<svg version="1.1" xmlns="http://www.w3.org/2000/svg" xmlns:xlink="http://www.w3.org/1999/xlink" width="786.62977" height="753.47189" viewBox="0,0,786.62977,753.47189"><defs><linearGradient x1="333.5662" y1="116.81025" x2="251.16324" y2="197.90724" gradientUnits="userSpaceOnUse" id="color-1"><stop offset="0" stop-color="#ffffff" stop-opacity="0"/><stop offset="1" stop-color="#ffffff" stop-opacity="0.26667"/></linearGradient><linearGradient x1="170.06696" y1="280.64099" x2="252.46993" y2="199.54404" gradientUnits="userSpaceOnUse" id="color-2"><stop offset="0" stop-color="#ffffff" stop-opacity="0"/><stop offset="1" stop-color="#ffffff" stop-opacity="0.26667"/></linearGradient></defs><g transform="translate(79.01668,219.73608)"><g data-paper-data="{&quot;isPaintingLayer&quot;:true}" fill-rule="nonzero" stroke="none" stroke-linecap="butt" stroke-linejoin="miter" stroke-miterlimit="10" stroke-dasharray="" stroke-dashoffset="0" style="mix-blend-mode: normal"><path d="M1.06953,368.36181v-379h641.50751v379z" fill="#000000" stroke-width="NaN"/><path d="M2.07958,-55.18756l82.40296,-81.097l498.16726,506.18961l-82.40296,81.097z" fill="url(#color-1)" stroke-width="0"/><path d="M-41.65248,387.56606l157.14121,-431.47247l64.04669,23.32565l-157.14121,431.47248z" fill-opacity="0.09804" fill="#ffffff" stroke-width="0"/><path d="M44.12966,406.53617l152.99592,-432.94718l23.74484,8.87214l-152.99592,432.94719z" fill-opacity="0.09804" fill="#ffffff" stroke-width="0"/><path d="M293.67786,460.59188l247.77376,-680.32795l100.98617,36.77891l-247.77376,680.32797z" fill-opacity="0.03529" fill="#ffffff" stroke-width="0"/><path d="M428.93557,490.50316l241.23765,-682.65321l37.43988,13.98922l-241.23764,682.65323z" fill-opacity="0.03529" fill="#ffffff" stroke-width="0"/><path d="M507.47001,72.50007v-69h142.60856v69z" fill="#000000" stroke-width="0"/><path d="M455.95531,267.30629v-9h21v9z" fill-opacity="0.78039" fill="#ffffff" stroke-width="0"/><path d="M388.95531,316.30629v-9h11v9z" fill-opacity="0.78039" fill="#ffffff" stroke-width="0"/><path d="M345.95531,248.3063v-7h11v7z" fill-opacity="0.78039" fill="#ffffff" stroke-width="0"/><path d="M388.95531,214.97295v-7h11v7z" fill-opacity="0.78039" fill="#ffffff" stroke-width="0"/><path d="M279.95527,233.63964v-7h11v7z" fill-opacity="0.78039" fill="#ffffff" stroke-width="0"/><path d="M304.95527,301.30629v-6h18v6z" fill-opacity="0.78039" fill="#ffffff" stroke-width="0"/><path d="M295.95527,351.30631v-5h18v5z" fill-opacity="0.78039" fill="#ffffff" stroke-width="0"/><path d="M407.95531,350.30631v-6h6v6z" fill-opacity="0.78039" fill="#ffffff" stroke-width="0"/><path d="M343.95531,328.30629v-7h7v7z" fill-opacity="0.78039" fill="#ffffff" stroke-width="0"/><path d="M392.95531,261.30629v-7h7v7z" fill-opacity="0.78039" fill="#ffffff" stroke-width="0"/><path d="M305.95527,205.3063v-11h16v11z" fill-opacity="0.78039" fill="#ffffff" stroke-width="0"/><path d="M227.95531,172.3063v-8h14v8z" fill-opacity="0.78039" fill="#ffffff" stroke-width="0"/><path d="M221.95531,208.30629v-9h9v9z" fill-opacity="0.78039" fill="#ffffff" stroke-width="0"/><path d="M262.95527,186.30629v-5h9v5z" fill-opacity="0.78039" fill="#ffffff" stroke-width="0"/><path d="M267.95527,127.30628v-6h11v6z" fill-opacity="0.78039" fill="#ffffff" stroke-width="0"/><path d="M201.95531,123.30628v-9h16v9z" fill-opacity="0.78039" fill="#ffffff" stroke-width="0"/><path d="M143.95531,135.30623v-6h9v6z" fill-opacity="0.78039" fill="#ffffff" stroke-width="0"/><path d="M182.95531,159.30623v-8h8v8z" fill-opacity="0.78039" fill="#ffffff" stroke-width="0"/><path d="M171.95531,87.30628v-7h8v7z" fill-opacity="0.78039" fill="#ffffff" stroke-width="0"/><path d="M115.95531,22.30629v-7h9v7z" fill-opacity="0.78039" fill="#ffffff" stroke-width="0"/><path d="M117.95531,92.30628v-5h13v5z" fill-opacity="0.78039" fill="#ffffff" stroke-width="0"/><path d="M117.95531,45.30628v-3h13v3z" fill-opacity="0.78039" fill="#ffffff" stroke-width="0"/><path d="M146.95531,67.30625v-19h5v19z" fill-opacity="0.78039" fill="#ffffff" stroke-width="0"/><path d="M501.55355,452.63883l-82.40296,81.09699l-498.16726,-506.18961l82.40296,-81.097z" data-paper-data="{&quot;index&quot;:null}" fill="url(#color-2)" stroke-width="0"/><path d="M65.07361,48.18477v-43h181.60856v43z" fill="#000000" stroke-width="0"/><path d="M109.41857,28.99751c0,0.74794 0.49094,3.17016 -0.76727,3.72359c-1.80758,0.79508 -5.66121,2.2986 -8.88474,2.2986c-3.97794,0 -7.90285,-1.52455 -9.47639,-2.6526c-0.58917,-0.42236 -0.67059,-2.87312 -0.67059,-3.36959c0,-1.82245 4.43215,-3.29983 9.8995,-3.29983c5.46734,0 9.8995,1.47738 9.8995,3.29983z" fill="#ffffff" stroke-width="0"/><path d="M100.22431,32.99235c0,1.20464 0.79071,5.10592 -1.23578,5.99728c-2.91132,1.28057 -9.11805,3.70218 -14.30994,3.70218c-6.40694,0 -12.72849,-2.45547 -15.26287,-4.27233c-0.94893,-0.68026 -1.08007,-4.62751 -1.08007,-5.42713c0,-2.93527 7.13852,-5.31477 15.94433,-5.31477c8.80581,0 15.94433,2.3795 15.94433,5.31477z" fill="#ffffff" stroke-width="0"/><path d="M93.33407,20.62455c0,0.58908 0.38667,2.49685 -0.60431,2.93274c-1.42367,0.62621 -4.45883,1.8104 -6.99772,1.8104c-3.13307,0 -6.22437,-1.20075 -7.46371,-2.08921c-0.46404,-0.33266 -0.52816,-2.2629 -0.52816,-2.65393c0,-1.43538 3.49081,-2.59898 7.79695,-2.59898c4.30614,0 7.79695,1.1636 7.79695,2.59898z" fill="#ffffff" stroke-width="0"/><path d="M104.78201,11.93183c0,0.46994 0.30846,1.99186 -0.48209,2.3396c-1.13573,0.49956 -3.55703,1.44425 -5.58244,1.44425c-2.49941,0 -4.96551,-0.9579 -5.95419,-1.66667c-0.37019,-0.26537 -0.42135,-1.80524 -0.42135,-2.11718c0,-1.14508 2.78481,-2.07335 6.22004,-2.07335c3.43523,0 6.22003,0.92827 6.22003,2.07335z" fill="#ffffff" stroke-width="0"/></g></g></svg>