<svg version="1.1" xmlns="http://www.w3.org/2000/svg" xmlns:xlink="http://www.w3.org/1999/xlink" width="960.92616" height="682.04887" viewBox="0,0,960.92616,682.04887"><defs><linearGradient x1="294.62218" y1="24.44655" x2="242.64424" y2="112.46821" gradientUnits="userSpaceOnUse" id="color-1"><stop offset="0" stop-color="#ffffff" stop-opacity="0"/><stop offset="1" stop-color="#ffffff" stop-opacity="0.40392"/></linearGradient><linearGradient x1="190.70861" y1="200.41821" x2="242.68655" y2="112.39655" gradientUnits="userSpaceOnUse" id="color-2"><stop offset="0" stop-color="#ffffff" stop-opacity="0"/><stop offset="1" stop-color="#ffffff" stop-opacity="0.40392"/></linearGradient><radialGradient cx="233.43374" cy="-70.60177" r="25.32549" gradientUnits="userSpaceOnUse" id="color-3"><stop offset="0" stop-color="#ffffff"/><stop offset="1" stop-color="#ffffff" stop-opacity="0"/></radialGradient><radialGradient cx="401.50289" cy="-38.36934" r="13.8139" gradientUnits="userSpaceOnUse" id="color-4"><stop offset="0" stop-color="#ffffff"/><stop offset="1" stop-color="#ffffff" stop-opacity="0"/></radialGradient><radialGradient cx="495.8979" cy="-63.69481" r="18.41853" gradientUnits="userSpaceOnUse" id="color-5"><stop offset="0" stop-color="#ffffff"/><stop offset="1" stop-color="#ffffff" stop-opacity="0"/></radialGradient><radialGradient cx="369.27045" cy="16.88628" r="9.20927" gradientUnits="userSpaceOnUse" id="color-6"><stop offset="0" stop-color="#ffffff"/><stop offset="1" stop-color="#ffffff" stop-opacity="0"/></radialGradient><radialGradient cx="253.00345" cy="66.38609" r="21.87201" gradientUnits="userSpaceOnUse" id="color-7"><stop offset="0" stop-color="#ffffff"/><stop offset="1" stop-color="#ffffff" stop-opacity="0"/></radialGradient><radialGradient cx="-34.78619" cy="44.51409" r="10.36043" gradientUnits="userSpaceOnUse" id="color-8"><stop offset="0" stop-color="#ffffff"/><stop offset="1" stop-color="#ffffff" stop-opacity="0"/></radialGradient><radialGradient cx="-73.92558" cy="141.2114" r="10.36043" gradientUnits="userSpaceOnUse" id="color-9"><stop offset="0" stop-color="#ffffff"/><stop offset="1" stop-color="#ffffff" stop-opacity="0"/></radialGradient><radialGradient cx="29.67869" cy="317.33864" r="35.68591" gradientUnits="userSpaceOnUse" id="color-10"><stop offset="0" stop-color="#ffffff"/><stop offset="1" stop-color="#ffffff" stop-opacity="0"/></radialGradient><radialGradient cx="191.99205" cy="274.74579" r="13.8139" gradientUnits="userSpaceOnUse" id="color-11"><stop offset="0" stop-color="#ffffff"/><stop offset="1" stop-color="#ffffff" stop-opacity="0"/></radialGradient><radialGradient cx="36.58565" cy="197.61817" r="5.75579" gradientUnits="userSpaceOnUse" id="color-12"><stop offset="0" stop-color="#ffffff"/><stop offset="1" stop-color="#ffffff" stop-opacity="0"/></radialGradient><radialGradient cx="-108.46033" cy="-52.18324" r="16.11622" gradientUnits="userSpaceOnUse" id="color-13"><stop offset="0" stop-color="#ffffff"/><stop offset="1" stop-color="#ffffff" stop-opacity="0"/></radialGradient><radialGradient cx="-76.2279" cy="-158.08983" r="17.26738" gradientUnits="userSpaceOnUse" id="color-14"><stop offset="0" stop-color="#ffffff"/><stop offset="1" stop-color="#ffffff" stop-opacity="0"/></radialGradient><radialGradient cx="-207.45996" cy="81.35115" r="14.96506" gradientUnits="userSpaceOnUse" id="color-15"><stop offset="0" stop-color="#ffffff"/><stop offset="1" stop-color="#ffffff" stop-opacity="0"/></radialGradient><radialGradient cx="392.29363" cy="414.03597" r="9.20927" gradientUnits="userSpaceOnUse" id="color-16"><stop offset="0" stop-color="#ffffff"/><stop offset="1" stop-color="#ffffff" stop-opacity="0"/></radialGradient><radialGradient cx="425.67722" cy="234.45524" r="17.26738" gradientUnits="userSpaceOnUse" id="color-17"><stop offset="0" stop-color="#ffffff"/><stop offset="1" stop-color="#ffffff" stop-opacity="0"/></radialGradient><radialGradient cx="508.56063" cy="157.32762" r="5.75579" gradientUnits="userSpaceOnUse" id="color-18"><stop offset="0" stop-color="#ffffff"/><stop offset="1" stop-color="#ffffff" stop-opacity="0"/></radialGradient><radialGradient cx="689.29252" cy="243.66451" r="12.66275" gradientUnits="userSpaceOnUse" id="color-19"><stop offset="0" stop-color="#ffffff"/><stop offset="1" stop-color="#ffffff" stop-opacity="0"/></radialGradient><radialGradient cx="642.09502" cy="64.08378" r="8.05812" gradientUnits="userSpaceOnUse" id="color-20"><stop offset="0" stop-color="#ffffff"/><stop offset="1" stop-color="#ffffff" stop-opacity="0"/></radialGradient><radialGradient cx="663.96703" cy="-97.07842" r="13.8139" gradientUnits="userSpaceOnUse" id="color-21"><stop offset="0" stop-color="#ffffff"/><stop offset="1" stop-color="#ffffff" stop-opacity="0"/></radialGradient><radialGradient cx="-168.32058" cy="301.22243" r="12.66275" gradientUnits="userSpaceOnUse" id="color-22"><stop offset="0" stop-color="#ffffff"/><stop offset="1" stop-color="#ffffff" stop-opacity="0"/></radialGradient></defs><g transform="translate(237.79758,228.59199)"><g data-paper-data="{&quot;isPaintingLayer&quot;:true}" fill-rule="nonzero" stroke="none" stroke-width="0" stroke-linecap="butt" stroke-linejoin="miter" stroke-miterlimit="10" stroke-dasharray="" stroke-dashoffset="0" style="mix-blend-mode: normal"><path d="M-185.86196,-140.57035l51.97794,-88.02164l857.0126,506.07722l-51.97796,88.02166z" fill="url(#color-1)"/><path d="M671.19294,365.43522l-51.97794,88.02166l-857.01258,-506.07722l51.97794,-88.02166z" data-paper-data="{&quot;index&quot;:null}" fill="url(#color-2)"/><path d="M258.75924,-70.60177c0,12.71534 -11.33861,23.02318 -25.32549,23.02318c-13.98688,0 -25.32549,-10.30782 -25.32549,-23.02318c0,-12.71534 11.33861,-23.02318 25.32549,-23.02318c13.98688,0 25.32549,10.30782 25.32549,23.02318z" fill="url(#color-3)"/><path d="M415.31679,-38.36934c0,7.62921 -6.18469,13.8139 -13.8139,13.8139c-7.62921,0 -13.8139,-6.18469 -13.8139,-13.8139c0,-7.62921 6.18469,-13.8139 13.8139,-13.8139c7.62921,0 13.8139,6.18469 13.8139,13.8139z" fill="url(#color-4)"/><path d="M514.31643,-63.69481c0,10.17228 -8.24626,18.41853 -18.41853,18.41853c-10.17228,0 -18.41853,-8.24626 -18.41853,-18.41853c0,-10.17228 8.24626,-18.41853 18.41853,-18.41853c10.17228,0 18.41853,8.24626 18.41853,18.41853z" fill="url(#color-5)"/><path d="M378.47972,16.88628c0,5.08615 -4.12313,9.20927 -9.20927,9.20927c-5.08615,0 -9.20927,-4.12313 -9.20927,-9.20927c0,-5.08615 4.12313,-9.20927 9.20927,-9.20927c5.08615,0 9.20927,4.12313 9.20927,9.20927z" fill="url(#color-6)"/><path d="M270.27082,66.38609c0,12.07959 -7.73087,21.87201 -17.26738,21.87201c-9.53651,0 -17.26738,-9.79244 -17.26738,-21.87201c0,-12.07959 7.73087,-21.87201 17.26738,-21.87201c9.53651,0 17.26738,9.79244 17.26738,21.87201z" fill="url(#color-7)"/><path d="M-24.42575,44.51409c0,5.08615 -4.63852,9.20927 -10.36043,9.20927c-5.7219,0 -10.36043,-4.12313 -10.36043,-9.20927c0,-5.08615 4.63852,-9.20927 10.36043,-9.20927c5.7219,0 10.36043,4.12313 10.36043,9.20927z" fill="url(#color-8)"/><path d="M-63.56515,141.2114c0,5.08615 -4.63852,9.20927 -10.36043,9.20927c-5.7219,0 -10.36043,-4.12313 -10.36043,-9.20927c0,-5.08615 4.63852,-9.20927 10.36043,-9.20927c5.7219,0 10.36043,4.12313 10.36043,9.20927z" fill="url(#color-9)"/><path d="M60.75997,317.33864c0,19.70878 -13.91556,35.68591 -31.08128,35.68591c-17.16572,0 -31.08128,-15.97713 -31.08128,-35.68591c0,-19.70878 13.91556,-35.68591 31.08128,-35.68591c17.16572,0 31.08128,15.97713 31.08128,35.68591z" fill="url(#color-10)"/><path d="M205.80595,274.74579c0,6.35767 -6.18469,11.51159 -13.8139,11.51159c-7.62921,0 -13.8139,-5.15392 -13.8139,-11.51159c0,-6.35767 6.18469,-11.51159 13.8139,-11.51159c7.62921,0 13.8139,5.15392 13.8139,11.51159z" fill="url(#color-11)"/><path d="M42.34143,197.61817c0,1.90729 -2.57695,3.45347 -5.75579,3.45347c-3.17884,0 -5.75579,-1.54618 -5.75579,-3.45347c0,-1.90729 2.57695,-3.45347 5.75579,-3.45347c3.17884,0 5.75579,1.54618 5.75579,3.45347z" fill="url(#color-12)"/><path d="M-93.49527,-52.18324c0,8.90074 -6.70008,16.11622 -14.96506,16.11622c-8.26498,0 -14.96506,-7.21548 -14.96506,-16.11622c0,-8.90074 6.70008,-16.11622 14.96506,-16.11622c8.26498,0 14.96506,7.21548 14.96506,16.11622z" fill="url(#color-13)"/><path d="M-58.96052,-158.08983c0,6.35767 -7.73087,11.51159 -17.26738,11.51159c-9.53651,0 -17.26738,-5.15392 -17.26738,-11.51159c0,-6.35767 7.73087,-11.51159 17.26738,-11.51159c9.53651,0 17.26738,5.15392 17.26738,11.51159z" fill="url(#color-14)"/><path d="M-192.4949,81.35115c0,7.62921 -6.70008,13.8139 -14.96506,13.8139c-8.26498,0 -14.96506,-6.18469 -14.96506,-13.8139c0,-7.62921 6.70008,-13.8139 14.96506,-13.8139c8.26498,0 14.96506,6.18469 14.96506,13.8139z" fill="url(#color-15)"/><path d="M401.50289,414.03597c0,4.45038 -4.12313,8.05812 -9.20927,8.05812c-5.08615,0 -9.20927,-3.60774 -9.20927,-8.05812c0,-4.45038 4.12313,-8.05812 9.20927,-8.05812c5.08615,0 9.20927,3.60774 9.20927,8.05812z" fill="url(#color-16)"/><path d="M440.64228,234.45524c0,9.53651 -6.70008,17.26738 -14.96506,17.26738c-8.26498,0 -14.96506,-7.73087 -14.96506,-17.26738c0,-9.53651 6.70008,-17.26738 14.96506,-17.26738c8.26498,0 14.96506,7.73087 14.96506,17.26738z" fill="url(#color-17)"/><path d="M514.31643,157.32762c0,1.27154 -2.57695,2.30231 -5.75579,2.30231c-3.17884,0 -5.75579,-1.03079 -5.75579,-2.30231c0,-1.27154 2.57695,-2.30231 5.75579,-2.30231c3.17884,0 5.75579,1.03079 5.75579,2.30231z" fill="url(#color-18)"/><path d="M698.5018,243.66451c0,6.99344 -4.12313,12.66275 -9.20927,12.66275c-5.08615,0 -9.20927,-5.66931 -9.20927,-12.66275c0,-6.99344 4.12313,-12.66275 9.20927,-12.66275c5.08615,0 9.20927,5.66931 9.20927,12.66275z" fill="url(#color-19)"/><path d="M650.15314,64.08378c0,1.90729 -3.60774,3.45347 -8.05812,3.45347c-4.45038,0 -8.05812,-1.54618 -8.05812,-3.45347c0,-1.90729 3.60774,-3.45347 8.05812,-3.45347c4.45038,0 8.05812,1.54618 8.05812,3.45347z" fill="url(#color-20)"/><path d="M677.78093,-97.07842c0,6.99344 -6.18469,12.66275 -13.8139,12.66275c-7.62921,0 -13.8139,-5.66931 -13.8139,-12.66275c0,-6.99344 6.18469,-12.66275 13.8139,-12.66275c7.62921,0 13.8139,5.66931 13.8139,12.66275z" fill="url(#color-21)"/><path d="M-155.65783,301.22243c0,4.45038 -5.66931,8.05812 -12.66275,8.05812c-6.99344,0 -12.66275,-3.60774 -12.66275,-8.05812c0,-4.45038 5.66931,-8.05812 12.66275,-8.05812c6.99344,0 12.66275,3.60774 12.66275,8.05812z" fill="url(#color-22)"/></g></g></svg>