<svg version="1.1" xmlns="http://www.w3.org/2000/svg" xmlns:xlink="http://www.w3.org/1999/xlink" width="58.69002" height="46.92494" viewBox="0,0,58.69002,46.92494"><defs><radialGradient cx="326.395" cy="162.26125" r="16" gradientUnits="userSpaceOnUse" id="color-1"><stop offset="0" stop-color="#00ffce"/><stop offset="1" stop-color="#0082ff"/></radialGradient></defs><g transform="translate(-291.06087,-154.89273)"><g data-paper-data="{&quot;isPaintingLayer&quot;:true}" fill-rule="nonzero" stroke-linejoin="miter" stroke-miterlimit="10" stroke-dasharray="" stroke-dashoffset="0" style="mix-blend-mode: normal"><text transform="translate(291.20463,198.22367) scale(0.28752,0.28752)" font-size="40" xml:space="preserve" fill="#ffffff" fill-rule="nonzero" stroke="none" stroke-width="1" stroke-linecap="butt" stroke-linejoin="miter" stroke-miterlimit="10" stroke-dasharray="" stroke-dashoffset="0" font-family="&quot;OpenSans-Bold&quot;, Sans Serif" font-weight="normal" text-anchor="start" style="mix-blend-mode: normal"><tspan x="0" dy="0">DIAMOND</tspan></text><path d="M304.48119,171.89273c0,-8.83656 7.16344,-16 16,-16c8.83656,0 16,7.16344 16,16c0,8.83656 -7.16344,16 -16,16c-8.83656,0 -16,-7.16344 -16,-16z" fill="url(#color-1)" stroke="#000000" stroke-width="2" stroke-linecap="butt"/><g fill="none" stroke-linecap="round"><path d="M326.48251,177.69219l-11.25,0.25" data-paper-data="{&quot;index&quot;:null}" stroke="#000000" stroke-width="2"/><path d="M331.99439,169.96401l-3.51188,0.72818l-4.25,6.5l1.75,-13.25l-5.25,12.5l-6.25,-12.75l2.5,13.5l-5.25,-7.25l-2.90479,-1.14484" data-paper-data="{&quot;index&quot;:null}" stroke="#000000" stroke-width="2"/><path d="M316.73251,168.19219l3.75,-6.5l3.25,4.5" data-paper-data="{&quot;index&quot;:null}" stroke="#000000" stroke-width="2"/><path d="M320.32772,161.46402l0.5,8.33333" stroke="none" stroke-width="0"/><path d="M320.99439,174.96402l-1,-12.33334" stroke="#000000" stroke-width="2"/><path d="M306.16105,177.79735l3.83333,-2.33333l1.83333,7.5" stroke="#000000" stroke-width="2"/><path d="M328.32772,183.46401l3.66667,-8.66667l2.66667,1.66667" stroke="#000000" stroke-width="2"/><path d="M326.16105,168.13068l7.16667,-5.16667" stroke="#000000" stroke-width="2"/><path d="M314.49438,167.29735l-7,-5.16667" stroke="#000000" stroke-width="2"/><path d="M320.49438,176.96401l0.33333,8.16667" stroke="#000000" stroke-width="2"/></g></g></g></svg>