<svg version="1.1" xmlns="http://www.w3.org/2000/svg" xmlns:xlink="http://www.w3.org/1999/xlink" width="663.0591" height="409" viewBox="0,0,663.0591,409"><defs><linearGradient x1="321.79298" y1="-1.65" x2="321.79298" y2="407.35" gradientUnits="userSpaceOnUse" id="color-1"><stop offset="0" stop-color="#000000"/><stop offset="1" stop-color="#505050" stop-opacity="0.21961"/></linearGradient><linearGradient x1="296.00001" y1="199.5" x2="296.00001" y2="180.5" gradientUnits="userSpaceOnUse" id="color-2"><stop offset="0" stop-color="#ffffff" stop-opacity="0.40392"/><stop offset="1" stop-color="#ffffff" stop-opacity="0"/></linearGradient><linearGradient x1="89.50001" y1="250.5" x2="508.50001" y2="250.5" gradientUnits="userSpaceOnUse" id="color-3"><stop offset="0" stop-color="#ffffff" stop-opacity="0.40392"/><stop offset="1" stop-color="#ffffff" stop-opacity="0"/></linearGradient></defs><g transform="translate(9.73659,1.65)"><g data-paper-data="{&quot;isPaintingLayer&quot;:true}" fill-rule="nonzero" stroke="none" stroke-linecap="butt" stroke-linejoin="miter" stroke-miterlimit="10" stroke-dasharray="" stroke-dashoffset="0" style="mix-blend-mode: normal"><path d="M-9.73659,407.35v-409h663.0591v409z" fill="url(#color-1)" stroke-width="0"/><text transform="translate(67.77343,71.12891) scale(1.3234,1.3234)" font-size="40" xml:space="preserve" data-paper-data="{&quot;origPos&quot;:null}" fill="#ffffff" fill-rule="nonzero" stroke="none" stroke-width="1" stroke-linecap="butt" stroke-linejoin="miter" stroke-miterlimit="10" stroke-dasharray="" stroke-dashoffset="0" font-family="&quot;OpenSans-Medium&quot;, Sans Serif" font-weight="normal" text-anchor="start" style="mix-blend-mode: normal"><tspan x="0" dy="0">Icons select</tspan></text><text transform="translate(68.54387,92.2518) scale(0.5,0.5)" font-size="40" xml:space="preserve" fill="#ffffff" fill-rule="nonzero" stroke="none" stroke-width="1" stroke-linecap="butt" stroke-linejoin="miter" stroke-miterlimit="10" stroke-dasharray="" stroke-dashoffset="0" font-family="&quot;OpenSans-Light&quot;, Sans Serif" font-weight="normal" text-anchor="start" style="mix-blend-mode: normal"><tspan x="0" dy="0">Free Page</tspan></text><text transform="translate(294.90121,87.85385) scale(2.118,2.118)" font-size="40" xml:space="preserve" fill-opacity="0.19216" fill="#ffffff" fill-rule="nonzero" stroke="none" stroke-width="1" stroke-linecap="butt" stroke-linejoin="miter" stroke-miterlimit="10" stroke-dasharray="" stroke-dashoffset="0" font-family="&quot;KNBobohei-Bold&quot;, Sans Serif" font-weight="normal" text-anchor="start" style="mix-blend-mode: normal"><tspan x="0" dy="0">Colors</tspan></text><text transform="translate(75.54688,309.75071) scale(0.3889,0.3889)" font-size="40" xml:space="preserve" fill="#ffffff" fill-rule="nonzero" stroke="none" stroke-width="1" stroke-linecap="butt" stroke-linejoin="miter" stroke-miterlimit="10" stroke-dasharray="" stroke-dashoffset="0" font-family="&quot;KNBobohei-Bold&quot;, Sans Serif" font-weight="normal" text-anchor="start" style="mix-blend-mode: normal"><tspan x="0" dy="0">Change game theme</tspan></text><text transform="translate(557,320) scale(0.5,0.5)" font-size="40" xml:space="preserve" fill="#ffffff" fill-rule="nonzero" stroke="none" stroke-width="1" stroke-linecap="butt" stroke-linejoin="miter" stroke-miterlimit="10" stroke-dasharray="" stroke-dashoffset="0" font-family="&quot;OpenSans-Medium&quot;, Sans Serif" font-weight="normal" text-anchor="start" style="mix-blend-mode: normal"><tspan x="0" dy="0">Coins</tspan></text><path d="M487.00001,180.5l21.5,18l-419,-1.5l15.5,-16.5z" data-paper-data="{&quot;index&quot;:null}" fill="url(#color-2)" stroke-width="0"/><path d="M120.30601,204.82643c0,0 -5.66667,-4.05556 -5.66667,-6.08333c0,-2.02778 5.66667,-6.08333 5.66667,-6.08333h42c0,0 6.33333,4.33642 6.33333,6.41667c0,1.96922 -6.33333,5.75 -6.33333,5.75z" fill-opacity="0.46667" fill="#000000" stroke-width="0"/><text transform="translate(133.88019,200.59795) scale(0.18125,0.18125)" font-size="40" xml:space="preserve" fill="#ffffff" fill-rule="nonzero" stroke="none" stroke-width="1" stroke-linecap="butt" stroke-linejoin="miter" stroke-miterlimit="10" stroke-dasharray="" stroke-dashoffset="0" font-family="&quot;OpenSans-Medium&quot;, Sans Serif" font-weight="normal" text-anchor="start" style="mix-blend-mode: normal"><tspan x="0" dy="0">Blue</tspan></text><path d="M198.63938,204.4931c0,0 -5.66667,-4.05555 -5.66667,-6.08334c0,-2.02778 5.66667,-6.08334 5.66667,-6.08334h42c0,0 6.33333,4.33643 6.33333,6.41667c0,1.96922 -6.33333,5.75 -6.33333,5.75z" fill-opacity="0.46667" fill="#000000" stroke-width="0"/><text transform="translate(208.88023,200.59795) scale(0.18125,0.18125)" font-size="40" xml:space="preserve" fill="#ffffff" fill-rule="nonzero" stroke="none" stroke-width="1" stroke-linecap="butt" stroke-linejoin="miter" stroke-miterlimit="10" stroke-dasharray="" stroke-dashoffset="0" font-family="&quot;OpenSans-Medium&quot;, Sans Serif" font-weight="normal" text-anchor="start" style="mix-blend-mode: normal"><tspan x="0" dy="0">Green</tspan></text><path d="M276.96824,204.58334c0,0 -5.66667,-4.05555 -5.66667,-6.08334c0,-2.02778 5.66667,-6.08334 5.66667,-6.08334h42c0,0 6.33333,4.33643 6.33333,6.41667c0,1.96922 -6.33333,5.75 -6.33333,5.75z" fill-opacity="0.46667" fill="#000000" stroke-width="0"/><text transform="translate(283.2086,200.675) scale(0.18125,0.18125)" font-size="40" xml:space="preserve" fill="#ffffff" fill-rule="nonzero" stroke="none" stroke-width="1" stroke-linecap="butt" stroke-linejoin="miter" stroke-miterlimit="10" stroke-dasharray="" stroke-dashoffset="0" font-family="&quot;OpenSans-Medium&quot;, Sans Serif" font-weight="normal" text-anchor="start" style="mix-blend-mode: normal"><tspan x="0" dy="0">Magenta</tspan></text><path d="M358.30157,204.58334c0,0 -5.66667,-4.05555 -5.66667,-6.08334c0,-2.02778 5.66667,-6.08334 5.66667,-6.08334h42c0,0 6.33333,4.33643 6.33333,6.41667c0,1.96922 -6.33333,5.75 -6.33333,5.75z" fill-opacity="0.46667" fill="#000000" stroke-width="0"/><text transform="translate(366.20862,200.675) scale(0.18125,0.18125)" font-size="40" xml:space="preserve" fill="#ffffff" fill-rule="nonzero" stroke="none" stroke-width="1" stroke-linecap="butt" stroke-linejoin="miter" stroke-miterlimit="10" stroke-dasharray="" stroke-dashoffset="0" font-family="&quot;OpenSans-Medium&quot;, Sans Serif" font-weight="normal" text-anchor="start" style="mix-blend-mode: normal"><tspan x="0" dy="0">Orange</tspan></text><path d="M438.96825,204.25001c0,0 -5.66667,-4.05555 -5.66667,-6.08334c0,-2.02778 5.66667,-6.08334 5.66667,-6.08334h42c0,0 6.33333,4.33643 6.33333,6.41667c0,1.96922 -6.33333,5.75 -6.33333,5.75z" fill-opacity="0.46667" fill="#000000" stroke-width="0"/><text transform="translate(453.20862,200.675) scale(0.18125,0.18125)" font-size="40" xml:space="preserve" fill="#ffffff" fill-rule="nonzero" stroke="none" stroke-width="1" stroke-linecap="butt" stroke-linejoin="miter" stroke-miterlimit="10" stroke-dasharray="" stroke-dashoffset="0" font-family="&quot;OpenSans-Medium&quot;, Sans Serif" font-weight="normal" text-anchor="start" style="mix-blend-mode: normal"><tspan x="0" dy="0">Red</tspan></text><path d="M487.00001,241.5l21.5,18l-419,-1.5l15.5,-16.5z" data-paper-data="{&quot;index&quot;:null}" fill="url(#color-3)" stroke-width="0"/><path d="M119.30601,265.75c0,0 -5.66667,-4.05556 -5.66667,-6.08333c0,-2.02778 5.66667,-6.08333 5.66667,-6.08333h42c0,0 6.33333,4.33642 6.33333,6.41667c0,1.96922 -6.33333,5.75 -6.33333,5.75z" fill-opacity="0.46667" fill="#000000" stroke-width="0"/><text transform="translate(122.36035,261.84168) scale(0.18125,0.18125)" font-size="40" xml:space="preserve" fill="#ffffff" fill-rule="nonzero" stroke="none" stroke-width="1" stroke-linecap="butt" stroke-linejoin="miter" stroke-miterlimit="10" stroke-dasharray="" stroke-dashoffset="0" font-family="&quot;OpenSans-Medium&quot;, Sans Serif" font-weight="normal" text-anchor="start" style="mix-blend-mode: normal"><tspan x="0" dy="0">Neon Gold</tspan></text><path d="M192.50358,265.58334c0,0 -7.03087,-4.05555 -7.03087,-6.08334c0,-2.02778 7.03087,-6.08334 7.03087,-6.08334h52.11111c0,0 7.85802,4.33643 7.85802,6.41667c0,1.96922 -7.85802,5.75 -7.85802,5.75z" fill-opacity="0.46667" fill="#000000" stroke-width="0"/><text transform="translate(191.45953,261.675) scale(0.18125,0.18125)" font-size="40" xml:space="preserve" fill="#ffffff" fill-rule="nonzero" stroke="none" stroke-width="1" stroke-linecap="butt" stroke-linejoin="miter" stroke-miterlimit="10" stroke-dasharray="" stroke-dashoffset="0" font-family="&quot;OpenSans-Medium&quot;, Sans Serif" font-weight="normal" text-anchor="start" style="mix-blend-mode: normal"><tspan x="0" dy="0">Purple-Magenta</tspan></text></g></g></svg>