<svg version="1.1" xmlns="http://www.w3.org/2000/svg" xmlns:xlink="http://www.w3.org/1999/xlink" width="58.75994" height="32.0665" viewBox="0,0,58.75994,32.0665"><g transform="translate(-388.36696,-333.47405)"><g data-paper-data="{&quot;isPaintingLayer&quot;:true}" fill-rule="nonzero" stroke="none" stroke-linecap="butt" stroke-linejoin="miter" stroke-miterlimit="10" stroke-dasharray="" stroke-dashoffset="0" style="mix-blend-mode: normal"><path d="M447.1269,333.59416v7.95787h-7.33201v-7.95787z" fill="#000000" stroke-width="NaN"/><path d="M439.7863,333.47405v7.95787h-7.33201v-7.95787z" fill="#ffffff" stroke-width="NaN"/><path d="M432.46436,333.53386v7.95787h-7.33201v-7.95787z" fill="#000000" stroke-width="NaN"/><path d="M425.12377,333.48601v7.95787h-7.33201v-7.95787z" fill="#ffffff" stroke-width="NaN"/><path d="M447.1269,341.54216v7.95787h-7.33201v-7.95787z" fill="#ffffff" stroke-width="NaN"/><path d="M439.7863,341.42206v7.95787h-7.332v-7.95787z" fill="#000000" stroke-width="NaN"/><path d="M432.46436,341.48186v7.95787h-7.33201v-7.95786z" fill="#ffffff" stroke-width="NaN"/><path d="M425.12377,341.43402v7.95787h-7.33201v-7.95786z" fill="#000000" stroke-width="NaN"/><path d="M447.06033,349.63467v7.95787h-7.33201v-7.95786z" fill="#000000" stroke-width="NaN"/><path d="M439.71973,349.51457v7.95787h-7.332v-7.95787z" fill="#ffffff" stroke-width="NaN"/><path d="M432.39779,349.57438v7.95786h-7.33201v-7.95786z" fill="#000000" stroke-width="NaN"/><path d="M425.0572,349.52653v7.95786h-7.33201v-7.95787z" fill="#ffffff" stroke-width="NaN"/><path d="M447.06033,357.58268v7.95787h-7.332v-7.95787z" fill="#ffffff" stroke-width="NaN"/><path d="M439.71973,357.46257v7.95786h-7.33201v-7.95786z" fill="#000000" stroke-width="NaN"/><path d="M432.39779,357.52238c0,0 0,0.57324 0,1.09479c0,1.30584 0,6.86308 0,6.86308h-7.332v-7.95787z" fill="#ffffff" stroke-width="NaN"/><path d="M425.0572,357.47453v7.95786h-7.33201v-7.95786z" fill="#000000" stroke-width="NaN"/><path d="M417.76866,333.59415v7.95787h-7.33201v-7.95787z" fill="#000000" stroke-width="NaN"/><path d="M410.42806,333.47405v7.95787h-7.33201v-7.95787z" fill="#ffffff" stroke-width="NaN"/><path d="M403.10612,333.53386v7.95786h-7.332v-7.95787z" fill="#000000" stroke-width="NaN"/><path d="M395.76553,333.48601v7.95786h-7.33201v-7.95786z" fill="#ffffff" stroke-width="NaN"/><path d="M417.76866,341.54216v7.95787h-7.332v-7.95787z" fill="#ffffff" stroke-width="NaN"/><path d="M410.42806,341.42206v7.95786h-7.33201v-7.95786z" fill="#000000" stroke-width="NaN"/><path d="M403.10612,341.48186v7.95787h-7.332v-7.95787z" fill="#ffffff" stroke-width="NaN"/><path d="M395.76553,341.43401v7.95787h-7.33201v-7.95787z" fill="#000000" stroke-width="NaN"/><path d="M417.70209,349.63467v7.95786h-7.332v-7.95786z" fill="#000000" stroke-width="NaN"/><path d="M410.36149,349.51457v7.95786h-7.33201v-7.95787z" fill="#ffffff" stroke-width="NaN"/><path d="M403.03956,349.57438v7.95787h-7.33201v-7.95787z" fill="#000000" stroke-width="NaN"/><path d="M395.69896,349.52652v7.95787h-7.332v-7.95787z" fill="#ffffff" stroke-width="NaN"/><path d="M417.70209,357.58267v7.95787h-7.332v-7.95787z" fill="#ffffff" stroke-width="NaN"/><path d="M410.36149,357.46257v7.95787h-7.33201v-7.95787z" fill="#000000" stroke-width="NaN"/><path d="M403.03956,357.52238v7.95787h-7.33201v-7.95787z" fill="#ffffff" stroke-width="NaN"/><path d="M395.69896,357.47453v7.95787h-7.332v-7.95787z" fill="#000000" stroke-width="NaN"/></g></g></svg>