<svg version="1.1" xmlns="http://www.w3.org/2000/svg" xmlns:xlink="http://www.w3.org/1999/xlink" width="58.75994" height="32.0665" viewBox="0,0,58.75994,32.0665"><g transform="translate(-371.16696,-294.07405)"><g data-paper-data="{&quot;isPaintingLayer&quot;:true}" fill-rule="nonzero" stroke="none" stroke-linecap="butt" stroke-linejoin="miter" stroke-miterlimit="10" stroke-dasharray="" stroke-dashoffset="0" style="mix-blend-mode: normal"><path d="M429.9269,294.19416v7.95787h-7.33201v-7.95787z" fill="#000000" stroke-width="NaN"/><path d="M422.5863,294.07405v7.95787h-7.33201v-7.95787z" fill="#ffffff" stroke-width="NaN"/><path d="M415.26436,294.13386v7.95787h-7.33201v-7.95787z" fill="#000000" stroke-width="NaN"/><path d="M407.92377,294.08601v7.95787h-7.33201v-7.95787z" fill="#ffffff" stroke-width="NaN"/><path d="M429.9269,302.14216v7.95787h-7.33201v-7.95787z" fill="#ffffff" stroke-width="NaN"/><path d="M422.5863,302.02206v7.95787h-7.332v-7.95787z" fill="#000000" stroke-width="NaN"/><path d="M415.26436,302.08186v7.95787h-7.33201v-7.95786z" fill="#ffffff" stroke-width="NaN"/><path d="M407.92377,302.03402v7.95787h-7.33201v-7.95786z" fill="#000000" stroke-width="NaN"/><path d="M429.86033,310.23467v7.95787h-7.33201v-7.95786z" fill="#000000" stroke-width="NaN"/><path d="M422.51973,310.11457v7.95787h-7.332v-7.95787z" fill="#ffffff" stroke-width="NaN"/><path d="M415.19779,310.17438v7.95786h-7.33201v-7.95786z" fill="#000000" stroke-width="NaN"/><path d="M407.8572,310.12653v7.95786h-7.33201v-7.95787z" fill="#ffffff" stroke-width="NaN"/><path d="M429.86033,318.18268v7.95787h-7.332v-7.95787z" fill="#ffffff" stroke-width="NaN"/><path d="M422.51973,318.06257v7.95786h-7.33201v-7.95786z" fill="#000000" stroke-width="NaN"/><path d="M415.19779,318.12238c0,0 0,0.57324 0,1.09479c0,1.30584 0,6.86308 0,6.86308h-7.332v-7.95787z" fill="#ffffff" stroke-width="NaN"/><path d="M407.8572,318.07453v7.95786h-7.33201v-7.95786z" fill="#000000" stroke-width="NaN"/><path d="M400.56866,294.19415v7.95787h-7.33201v-7.95787z" fill="#000000" stroke-width="NaN"/><path d="M393.22806,294.07405v7.95787h-7.33201v-7.95787z" fill="#ffffff" stroke-width="NaN"/><path d="M385.90612,294.13386v7.95786h-7.332v-7.95787z" fill="#000000" stroke-width="NaN"/><path d="M378.56553,294.08601v7.95786h-7.33201v-7.95786z" fill="#ffffff" stroke-width="NaN"/><path d="M400.56866,302.14216v7.95787h-7.332v-7.95787z" fill="#ffffff" stroke-width="NaN"/><path d="M393.22806,302.02206v7.95786h-7.33201v-7.95786z" fill="#000000" stroke-width="NaN"/><path d="M385.90612,302.08186v7.95787h-7.332v-7.95787z" fill="#ffffff" stroke-width="NaN"/><path d="M378.56553,302.03401v7.95787h-7.33201v-7.95787z" fill="#000000" stroke-width="NaN"/><path d="M400.50209,310.23467v7.95786h-7.332v-7.95786z" fill="#000000" stroke-width="NaN"/><path d="M393.16149,310.11457v7.95786h-7.33201v-7.95787z" fill="#ffffff" stroke-width="NaN"/><path d="M385.83956,310.17438v7.95787h-7.33201v-7.95787z" fill="#000000" stroke-width="NaN"/><path d="M378.49896,310.12652v7.95787h-7.332v-7.95787z" fill="#ffffff" stroke-width="NaN"/><path d="M400.50209,318.18267v7.95787h-7.332v-7.95787z" fill="#ffffff" stroke-width="NaN"/><path d="M393.16149,318.06257v7.95787h-7.33201v-7.95787z" fill="#000000" stroke-width="NaN"/><path d="M385.83956,318.12238v7.95787h-7.33201v-7.95787z" fill="#ffffff" stroke-width="NaN"/><path d="M378.49896,318.07453v7.95787h-7.332v-7.95787z" fill="#000000" stroke-width="NaN"/></g></g></svg>