<svg version="1.1" xmlns="http://www.w3.org/2000/svg" xmlns:xlink="http://www.w3.org/1999/xlink" width="264.5" height="21.40096" viewBox="0,0,264.5,21.40096"><g transform="translate(-354.52344,-224.3102)"><g data-paper-data="{&quot;isPaintingLayer&quot;:true}" fill-rule="nonzero" stroke-linecap="butt" stroke-linejoin="miter" stroke-miterlimit="10" stroke-dasharray="" stroke-dashoffset="0" style="mix-blend-mode: normal"><path d="M355.77344,243.5602v-18h262v18z" fill="#757575" stroke="#000000" stroke-width="2.5"/><path d="M399.70798,237.90227c0,2.5 -2.5,2.5 -2.5,2.5l-1.62047,-0.12829c-2.18933,0.72404 -4.20756,1.57492 -6.57707,1.57492c-5.45209,0 -10.37186,-2.93866 -15.91288,-2.89325c0,0 -1.22679,0 -1.96161,-0.85938c-0.97135,0.98036 -1.98518,1.91575 -3.19619,2.52783c-2.81018,1.42035 -6.0264,2.03346 -9.00009,3.02534c0,0 -2.37171,0.79057 -3.16228,-1.58114c-0.79057,-2.37171 1.58114,-3.16228 1.58114,-3.16228c2.75058,-0.91628 5.75084,-1.4761 8.35942,-2.76116c3.07447,-1.51458 4.6073,-4.90643 7.74769,-6.28447c3.19063,-1.40008 5.62229,-1.19675 8.79389,-1.20904l2.2372,0.6105c0,0 2.37171,0.79057 1.58114,3.16228c-0.79057,2.37171 -3.16228,1.58114 -3.16228,1.58114l-0.65606,-0.35392c-1.9411,-0.00892 -4.03605,-0.14753 -5.93529,0.45695c2.52265,0.22782 4.83632,0.70118 7.50234,1.36769c1.76132,0.44033 3.3174,1.37291 5.18387,1.37291c1.51601,0 3.65465,-0.86724 4.99593,-1.31833l3.20161,-0.12829c0,0 2.5,0 2.5,2.5z" fill="#000000" stroke="none" stroke-width="0.5"/><path d="M478.05795,228.90138c1.76777,1.76777 0,3.53553 0,3.53553l-0.86323,0.79457c-1.88194,1.25273 -3.49385,2.92427 -5.49633,3.9736c-6.34348,3.32407 -11.00613,-0.38538 -16.64577,-2.79144c0,0 -0.54575,-0.23389 -0.99133,-0.73968c-0.44156,0.25555 -0.87694,0.5519 -1.30743,0.89453c-1.59765,1.2716 -3.00584,2.89563 -4.88335,3.69839c-4.04302,1.72866 -8.25181,2.11799 -12.56806,2.13539c0,0 -1.44638,0 -2.13883,-1.10016c-0.45878,0.01544 -0.91633,0.04959 -1.37208,0.11158c-0.07271,0.00989 -0.14606,0.02057 -0.22001,0.03199c0.33239,0.1783 0.66065,0.3638 0.98417,0.55685l2.22861,0.88284c0,0 2.32119,0.92848 1.39272,3.24967c-0.92848,2.32119 -3.24967,1.39272 -3.24967,1.39272l-2.59347,-1.04599c-1.56405,-0.94383 -3.24786,-1.7106 -4.98396,-2.27895c0,0 -0.80085,-0.26695 -1.3167,-0.95598c-1.57919,0.28281 -3.10979,0.37109 -4.44218,0.00059c-1.06109,-0.29505 -1.53207,-1.6226 -2.48022,-2.18295c-1.84886,-1.09265 -4.16495,-1.29185 -5.93395,-2.50956c-3.21662,-2.21419 -3.73954,-3.44837 -7.82432,-4.42484c0,0 -0.87261,-0.21815 -1.44016,-0.91616c-0.119,0.01739 -0.24072,0.02639 -0.36455,0.02639c-1.38071,0 -2.5,-1.11929 -2.5,-2.5c0,-1.38071 1.11929,-2.5 2.5,-2.5c0.81505,0 1.53901,0.39004 1.9954,0.99365c0.56598,-0.06859 1.02199,0.04541 1.02199,0.04541c2.34258,0.60642 3.88238,1.32036 5.3279,2.22727c0.60414,-0.37889 1.71277,-0.79988 2.85129,0.16083c1.2058,-0.326 2.4047,-0.68329 3.60043,-0.46437c0.5666,-0.41432 1.18708,-0.51773 1.18708,-0.51773l2.84679,-0.47447c0.14831,-0.02742 0.30121,-0.04176 0.45746,-0.04176c1.38071,0 2.5,1.11929 2.5,2.5c0,1.18975 -0.83109,2.18539 -1.9444,2.43804l-3.54858,0.88714c0.6625,0.2136 1.30903,0.45882 1.89626,0.8169c0.61713,0.37631 0.69409,1.43921 1.37745,1.67472c0.59602,0.20541 1.17778,-0.47981 1.80025,-0.57959c2.73422,-0.43829 5.43518,-1.08471 8.18085,-1.44434c0.2268,-0.02971 6.2037,-0.02416 7.09767,-0.02416h0.96442c0,0 0.96893,0 1.70037,0.60321c1.6867,-0.26169 3.34965,-0.68996 5.01992,-1.36106c1.50673,-0.6054 2.5055,-2.0675 3.7964,-3.05253c3.43612,-2.62196 6.98939,-3.37872 11.1827,-3.42274l2.08245,0.74614c0,0 2.23607,1.11803 1.11803,3.3541c-0.41309,0.82617 -0.9788,1.19447 -1.52796,1.33046c2.2207,0.9848 4.52366,1.47948 6.77693,0.17754c1.82848,-1.0565 3.35593,-2.56919 5.11226,-3.74174l0.10119,-0.16985c0,0 1.76777,-1.76777 3.53553,0zM417.50171,233.72631c-0.07093,0.03252 -0.14191,0.06442 -0.21301,0.0957c0.0856,0.02592 0.17114,0.052 0.25653,0.07839z" fill="#000000" stroke="none" stroke-width="0.5"/><path d="M616.5254,238.2095c-1.72909,0.86455 -2.78965,-0.2765 -3.18169,-0.83835c-0.41217,-0.02875 -0.82092,-0.02562 -1.21964,0.07099c-1.04793,0.25392 -1.84242,1.20503 -2.89325,1.44663c-1.1531,0.26511 -2.38001,-0.14562 -3.54939,0.0346c-2.42225,0.37329 -4.75154,1.48777 -7.20236,1.47839c-2.04111,-0.00781 -3.96268,-0.9837 -5.92694,-1.53857c-1.09996,-0.31072 -2.35775,-0.12386 -3.36357,-0.66682c-1.85847,-1.00325 -3.1453,-2.86382 -4.96437,-3.93686c0,0 -0.33401,-0.20041 -0.65924,-0.57485c-2.66215,-0.00577 -5.24786,0.24181 -7.52015,0.84222c-1.37439,0.36316 -2.44502,1.51954 -3.81036,1.91537c-4.51879,1.31006 -9.36565,1.03086 -13.96764,2.40614c-1.33292,0.39833 -2.70018,0.72249 -3.96596,1.29968c-1.2738,0.58085 -2.21986,1.95706 -3.60605,2.15313c-1.49317,0.21121 -2.9416,-0.66648 -4.4077,-1.01959c-3.01102,-0.72519 -5.99524,-1.70907 -8.76596,-3.12365c-4.3031,0.95237 -9.02206,0.20107 -13.45738,-0.17524c-2.44327,-0.2073 -5.54896,-0.70654 -7.96309,0.2852c-2.27971,0.93652 -5.25593,4.35168 -7.10754,5.89479c0,0 -1.92055,1.60046 -3.52101,-0.32009c-1.60046,-1.92055 0.32009,-3.52101 0.32009,-3.52101c4.92905,-4.10727 8.75853,-7.79021 15.58451,-7.81258c2.9536,-0.00968 6.48861,0.89111 9.86491,1.19783c-1.2439,-1.18222 -2.43184,-2.43127 -3.75003,-3.5282c0,0 -1.92055,-1.60046 -0.32009,-3.52101c1.60046,-1.92055 3.52101,-0.32009 3.52101,-0.32009c1.98191,1.65382 3.65986,3.66122 5.70353,5.23808c0.48439,0.37375 0.97574,0.71519 1.47376,1.02944c0.25679,-0.70545 0.86631,-1.54267 2.31305,-1.54267c2.5,0 2.5,2.5 2.5,2.5l-0.45446,1.16377c1.72549,0.65194 3.51264,1.16956 5.35204,1.72561c0.80197,0.24243 1.51806,1.05432 2.34322,0.90925c0.90861,-0.15974 1.34824,-1.30641 2.18046,-1.70454c1.49623,-0.71577 3.12674,-1.11159 4.7138,-1.59357c4.5963,-1.39586 9.52458,-1.07894 14.00045,-2.41595c1.39296,-0.4161 2.49566,-1.5855 3.90498,-1.9423c7.15628,-1.81179 16.51028,-0.85807 23.47828,0.95775l1.77511,-0.08224c0,0 2.5,0 2.5,2.5c0,1.14808 -0.52723,1.76892 -1.09745,2.10465c4.59681,-0.66026 8.8565,-2.59642 13.54592,-2.67582l2.71828,2.34638c0,0 1.11803,2.23607 -1.11803,3.3541z" fill="#000000" stroke="none" stroke-width="0.5"/></g></g></svg>