<svg version="1.1" xmlns="http://www.w3.org/2000/svg" xmlns:xlink="http://www.w3.org/1999/xlink" width="40.78187" height="40.78187" viewBox="0,0,40.78187,40.78187"><defs><radialGradient cx="239.6698" cy="198.02881" r="18.62317" gradientUnits="userSpaceOnUse" id="color-1"><stop offset="0" stop-color="#ffffff"/><stop offset="1" stop-color="#1a1a1a"/></radialGradient><radialGradient cx="239.6698" cy="190.63238" r="10.90746" gradientUnits="userSpaceOnUse" id="color-2"><stop offset="0" stop-color="#ffffff"/><stop offset="1" stop-color="#1a1a1a"/></radialGradient></defs><g transform="translate(-219.60906,-159.60906)"><g data-paper-data="{&quot;isPaintingLayer&quot;:true}" fill-rule="nonzero" stroke-linecap="butt" stroke-linejoin="miter" stroke-miterlimit="10" stroke-dasharray="" stroke-dashoffset="0" style="mix-blend-mode: normal"><path d="M240,161.37683l18.62317,18.62317l-18.62317,18.62317l-18.62317,-18.62317z" data-paper-data="{&quot;index&quot;:null}" fill="#000000" stroke="url(#color-1)" stroke-width="2.5"/><path d="M240,169.09254l10.90746,10.90746l-10.90746,10.90746l-10.90746,-10.90746z" data-paper-data="{&quot;index&quot;:null}" fill="none" stroke="url(#color-2)" stroke-width="2.5"/><path d="M244.01891,167.51852c0,0.53434 -0.06134,0.97897 -0.17248,1.34446c0.01658,0.01828 0.0329,0.0368 0.04895,0.05557c1.03155,1.11815 2.87449,3.69646 3.28361,4.85858l-0.00001,-0.00001c0.0754,0.21416 0.12444,0.43959 0.14911,0.66982c0.4952,0.2683 0.94522,0.57108 1.17361,0.90326l0.0382,-0.00531c0.07829,0.04824 0.15837,0.09474 0.23984,0.13991l0.03584,0.01195l-0.0022,0.00659c0.05716,0.0313 0.11497,0.06198 0.17328,0.09217c0.00663,-0.00627 0.01327,-0.01255 0.01991,-0.01882l0.02802,0.04348c0.04747,0.02426 0.09524,0.04822 0.14325,0.07197l0.00571,-0.008l0.04867,0.03476c0.92409,0.45252 1.92405,0.83454 2.47724,1.66558c0.03721,0.05589 0.07297,0.11255 0.10744,0.1699l0.0312,-0.026l0.99621,1.19545c0.20444,0.24183 0.32768,0.5545 0.32768,0.89595c0,0.76688 -0.62168,1.38857 -1.38857,1.38857c-0.14357,0 -0.28205,-0.02179 -0.41231,-0.06224l-1.23036,-0.35153c-4.01001,0.03537 -8.00308,-1.08261 -12.01583,-0.59868c-3.35251,0.40431 -6.44962,0.69776 -9.7699,-0.24343c0,0 -1.33515,-0.38147 -0.95368,-1.71662c0.38147,-1.33515 1.71662,-0.95368 1.71662,-0.95368c0.35762,0.1031 0.71315,0.18732 1.06704,0.25538l-0.6326,-0.7239c0,0 0,-1.38857 1.38857,-1.38857c0.34339,0 0.60187,0.08492 0.79642,0.21276c0.07702,0.00089 0.1539,0.00131 0.23055,0.00093c0.02802,-0.22567 0.11018,-0.43454 0.23309,-0.6132l0.7911,-1.18665l0.03328,0.02219c0.03937,-0.07581 0.08225,-0.15008 0.12912,-0.22259c0.49199,-0.76117 1.47581,-1.05249 2.21372,-1.57874l0.01578,-0.00478l-0.0027,-0.00405l0.14386,-0.09591c0.56996,-1.17719 0.68065,-2.62054 1.97446,-3.26033c-0.12733,-0.29992 -0.19777,-0.62983 -0.19777,-0.9762c0,-0.91756 0.49432,-1.71966 1.23117,-2.15454c1.17939,-2.06394 5.48586,0.6465 5.48586,2.15454zM243.70728,177.28206c-1.22208,-0.86972 -2.34961,-2.39552 -3.15986,-3.98829l-0.50857,-0.45206l0.01402,-0.01577c-0.02748,-0.01618 -0.05487,-0.03254 -0.08217,-0.04908c-0.26721,-0.16187 -0.4758,-0.39688 -0.66385,-0.6533c-0.03286,0.13943 -0.08672,0.27074 -0.15808,0.39042l-0.78953,1.38168l-0.01301,-0.00743c-0.00763,0.02253 -0.01541,0.04502 -0.02335,0.06747c-0.64576,1.82519 -1.97589,2.94665 -3.55635,3.57525l-0.00001,0.00001c1.64304,-0.10047 3.29183,-0.29654 4.99239,-0.30178c1.4059,-0.00433 2.78283,0.0802 4.15262,0.18793c-0.06752,-0.04123 -0.13561,-0.0862 -0.20424,-0.13504zM246.05033,177.49979c-0.0471,0.02988 -0.09526,0.05768 -0.14442,0.08326c0.17131,0.01437 0.34266,0.0286 0.51412,0.04257l-0.25596,-0.08532c-0.03866,-0.01189 -0.0766,-0.02542 -0.11374,-0.04051z" data-paper-data="{&quot;index&quot;:null}" fill="#000000" stroke="none" stroke-width="0.5"/></g></g></svg>