<svg version="1.1" xmlns="http://www.w3.org/2000/svg" xmlns:xlink="http://www.w3.org/1999/xlink" width="291.9629" height="59.5" viewBox="0,0,291.9629,59.5"><g transform="translate(-172.06551,-158)"><g data-paper-data="{&quot;isPaintingLayer&quot;:true}" fill-rule="nonzero" stroke="none" stroke-linecap="butt" stroke-linejoin="miter" stroke-miterlimit="10" stroke-dasharray="" stroke-dashoffset="0" style="mix-blend-mode: normal"><path d="M193,217.5c0,0 -11.38761,-4.26965 -16.85236,-11.22217c-4.73237,-6.02076 -4.04764,-16.22857 -4.04764,-21.04471c0,-3.98964 2.14124,-11.04442 5.16917,-16.67482c4.06665,-7.56188 15.73083,-10.5583 15.73083,-10.5583h254c0,0 9.13866,3.22771 13.76557,10.00237c3.78879,5.5475 3.23443,14.29702 3.23443,18.67848c0,4.62979 0.41964,11.50095 -3.45487,17.58119c-4.56812,7.16872 -13.54513,13.23797 -13.54513,13.23797z" fill="#ff0000" stroke-width="0"/><text transform="translate(190.56249,181.80937) scale(0.5,0.5)" font-size="40" xml:space="preserve" fill="#ffffff" fill-rule="nonzero" stroke="none" stroke-width="1" stroke-linecap="butt" stroke-linejoin="miter" stroke-miterlimit="10" stroke-dasharray="" stroke-dashoffset="0" font-family="&quot;OpenSans-Medium&quot;, Sans Serif" font-weight="normal" text-anchor="start" style="mix-blend-mode: normal"><tspan x="0" dy="0">I understand and still wants</tspan><tspan x="0" dy="46.15px">               to proceed</tspan></text></g></g></svg>