<svg version="1.1" xmlns="http://www.w3.org/2000/svg" xmlns:xlink="http://www.w3.org/1999/xlink" width="54.2966" height="63.6824" viewBox="0,0,54.2966,63.6824"><g transform="translate(-200.98656,-47.29557)"><g data-paper-data="{&quot;isPaintingLayer&quot;:true}" fill-rule="nonzero" stroke="none" stroke-linecap="butt" stroke-linejoin="miter" stroke-miterlimit="10" stroke-dasharray="" stroke-dashoffset="0" style="mix-blend-mode: normal"><g><path d="M250.00388,75.67161l1.18171,6.64378l-6.12127,1.08877l-1.18171,-6.64378z" fill="#000000" stroke-width="NaN"/><path d="M243.85762,76.66138l1.18171,6.64378l-6.12127,1.08877l-1.18171,-6.64378z" fill="#ffffff" stroke-width="NaN"/><path d="M237.75364,77.79859l1.18171,6.64378l-6.12126,1.08877l-1.18171,-6.64378z" fill="#000000" stroke-width="NaN"/><path d="M231.6181,78.8487l1.18171,6.64377l-6.12126,1.08877l-1.18171,-6.64378z" fill="#ffffff" stroke-width="NaN"/><path d="M251.18413,82.30714l1.18171,6.64378l-6.12127,1.08877l-1.18171,-6.64378z" fill="#ffffff" stroke-width="NaN"/><path d="M245.03787,83.29692l1.18171,6.64377l-6.12127,1.08877l-1.18171,-6.64377z" fill="#000000" stroke-width="NaN"/><path d="M238.93389,84.43413l1.18171,6.64377l-6.12126,1.08877l-1.18171,-6.64377z" fill="#ffffff" stroke-width="NaN"/><path d="M232.79835,85.48423l1.18171,6.64378l-6.12126,1.08877l-1.18171,-6.64377z" fill="#000000" stroke-width="NaN"/><path d="M252.33026,89.07322l1.18171,6.64378l-6.12126,1.08877l-1.18171,-6.64378z" fill="#000000" stroke-width="NaN"/><path d="M246.18398,90.06299l1.18171,6.64378l-6.12126,1.08877l-1.18171,-6.64378z" fill="#ffffff" stroke-width="NaN"/><path d="M240.08001,91.2002l1.18171,6.64377l-6.12127,1.08877l-1.18171,-6.64378z" fill="#000000" stroke-width="NaN"/><path d="M233.94447,92.2503l1.18171,6.64377l-6.12127,1.08877l-1.18171,-6.64377z" fill="#ffffff" stroke-width="NaN"/><path d="M253.5105,95.70876l1.18171,6.64378l-6.12127,1.08877l-1.18171,-6.64378z" fill="#ffffff" stroke-width="NaN"/><path d="M247.36423,96.69854l1.18171,6.64378l-6.12127,1.08877l-1.18171,-6.64377z" fill="#000000" stroke-width="NaN"/><path d="M241.26026,97.83575c0,0 0.08512,0.47858 0.16257,0.91401c0.19391,1.09021 1.01914,5.72977 1.01914,5.72977l-6.12127,1.08877l-1.18171,-6.64378z" fill="#ffffff" stroke-width="NaN"/><path d="M235.12472,98.88585l1.18171,6.64377l-6.12127,1.08877l-1.18171,-6.64378z" fill="#000000" stroke-width="NaN"/><path d="M225.49361,80.03118l1.18171,6.64378l-6.12127,1.08877l-1.18171,-6.64378z" fill="#000000" stroke-width="NaN"/><path d="M219.34734,81.02095l1.18171,6.64378l-6.12127,1.08877l-1.18171,-6.64378z" fill="#ffffff" stroke-width="NaN"/><path d="M213.24337,82.15817l1.18171,6.64377l-6.12127,1.08877l-1.18171,-6.64377z" fill="#000000" stroke-width="NaN"/><path d="M207.10782,83.20827l1.18171,6.64377l-6.12127,1.08877l-1.18171,-6.64377z" fill="#ffffff" stroke-width="NaN"/><path d="M226.67385,86.66672l1.18171,6.64378l-6.12126,1.08877l-1.18171,-6.64378z" fill="#ffffff" stroke-width="NaN"/><path d="M220.52759,87.6565l1.18171,6.64377l-6.12127,1.08877l-1.18171,-6.64377z" fill="#000000" stroke-width="NaN"/><path d="M214.42361,88.79371l1.18171,6.64378l-6.12127,1.08877l-1.18171,-6.64378z" fill="#ffffff" stroke-width="NaN"/><path d="M208.28807,89.84381l1.18171,6.64378l-6.12126,1.08877l-1.18171,-6.64378z" fill="#000000" stroke-width="NaN"/><path d="M227.81998,93.4328l1.18171,6.64378l-6.12127,1.08877l-1.18171,-6.64378z" fill="#000000" stroke-width="NaN"/><path d="M221.67372,94.42257l1.18171,6.64377l-6.12127,1.08877l-1.18171,-6.64377z" fill="#ffffff" stroke-width="NaN"/><path d="M215.56974,95.55978l1.18171,6.64378l-6.12127,1.08877l-1.18171,-6.64378z" fill="#000000" stroke-width="NaN"/><path d="M209.43419,96.60988l1.18171,6.64378l-6.12127,1.08877l-1.18171,-6.64378z" fill="#ffffff" stroke-width="NaN"/><path d="M229.00022,100.06833l1.18171,6.64378l-6.12127,1.08877l-1.18171,-6.64378z" fill="#ffffff" stroke-width="NaN"/><path d="M222.85396,101.0581l1.18171,6.64378l-6.12126,1.08877l-1.18171,-6.64378z" fill="#000000" stroke-width="NaN"/><path d="M216.74998,102.19531l1.18171,6.64378l-6.12127,1.08877l-1.18171,-6.64378z" fill="#ffffff" stroke-width="NaN"/><path d="M210.61444,103.24542l1.18171,6.64378l-6.12127,1.08877l-1.18171,-6.64377z" fill="#000000" stroke-width="NaN"/></g><path d="M254.01936,102.67057c0,0 -2.72376,-10.98777 -4.1348,-20.48377c-0.37663,-2.53461 -1.2402,-5.07905 -1.2402,-7.14123c0,-10.4957 0,-27.75 0,-27.75l1.51381,3c0,0 0.125,14.2543 0.125,24.75c0,2.04919 0.84414,4.20114 1.19067,6.71833c1.30871,9.50649 3.80933,20.90667 3.80933,20.90667z" fill="#ffffff" stroke-width="0"/></g></g></svg>