<svg version="1.1" xmlns="http://www.w3.org/2000/svg" xmlns:xlink="http://www.w3.org/1999/xlink" width="67.41666" height="63.75001" viewBox="0,0,67.41666,63.75001"><defs><linearGradient x1="279.50001" y1="120.82684" x2="279.50001" y2="148.57684" gradientUnits="userSpaceOnUse" id="color-1"><stop offset="0" stop-color="#ff6300"/><stop offset="1" stop-color="#ffffff"/></linearGradient><linearGradient x1="280.0139" y1="126.06851" x2="280.0139" y2="143.12961" gradientUnits="userSpaceOnUse" id="color-2"><stop offset="0" stop-color="#ff6f13"/><stop offset="1" stop-color="#9c4901"/></linearGradient><linearGradient x1="316.83334" y1="154.16018" x2="316.83334" y2="182.57685" gradientUnits="userSpaceOnUse" id="color-3"><stop offset="0" stop-color="#00d1ff"/><stop offset="1" stop-color="#ffffff"/></linearGradient><linearGradient x1="317.3596" y1="159.52776" x2="317.3596" y2="176.99875" gradientUnits="userSpaceOnUse" id="color-4"><stop offset="0" stop-color="#11d4ff"/><stop offset="1" stop-color="#00738f"/></linearGradient></defs><g transform="translate(-264.62501,-119.82684)"><g data-paper-data="{&quot;isPaintingLayer&quot;:true}" fill-rule="nonzero" stroke="#000000" stroke-linecap="butt" stroke-linejoin="miter" stroke-miterlimit="10" stroke-dasharray="" stroke-dashoffset="0" style="mix-blend-mode: normal"><path d="M265.62501,134.70184c0,-7.66296 6.21206,-13.875 13.875,-13.875c7.66294,0 13.875,6.21204 13.875,13.875c0,7.66296 -6.21206,13.875 -13.875,13.875c-7.66294,0 -13.875,-6.21204 -13.875,-13.875z" fill="url(#color-1)" stroke-width="2"/><path d="M271.48335,134.59906c0,-4.71129 3.81925,-8.53055 8.53055,-8.53055c4.7113,0 8.53055,3.81927 8.53055,8.53055c0,4.71129 -3.81925,8.53055 -8.53055,8.53055c-4.7113,0 -8.53055,-3.81927 -8.53055,-8.53055z" fill="url(#color-2)" stroke-width="2.5"/><path d="M302.62501,168.36851c0,-7.84705 6.36129,-14.20833 14.20833,-14.20833c7.84704,0 14.20833,6.36128 14.20833,14.20833c0,7.84705 -6.36129,14.20834 -14.20833,14.20834c-7.84705,0 -14.20833,-6.36129 -14.20833,-14.20834z" fill="url(#color-3)" stroke-width="2"/><path d="M308.62408,168.26326c0,-4.82448 3.91102,-8.7355 8.73549,-8.7355c4.82449,0 8.73549,3.91102 8.73549,8.7355c0,4.82448 -3.911,8.73549 -8.73549,8.73549c-4.82448,0 -8.73549,-3.91102 -8.73549,-8.73549z" fill="url(#color-4)" stroke-width="2.5"/></g></g></svg>