<svg version="1.1" xmlns="http://www.w3.org/2000/svg" xmlns:xlink="http://www.w3.org/1999/xlink" width="100.87112" height="104.2238" viewBox="0,0,100.87112,104.2238"><defs><linearGradient x1="320" y1="127.8881" x2="320" y2="232.1119" gradientUnits="userSpaceOnUse" id="color-1"><stop offset="0" stop-color="#000000"/><stop offset="1" stop-color="#000000" stop-opacity="0"/></linearGradient><radialGradient cx="319.82666" cy="177.92966" r="46.7095" gradientUnits="userSpaceOnUse" id="color-2"><stop offset="0" stop-color="#6e6e6c"/><stop offset="1" stop-color="#000000"/></radialGradient></defs><g transform="translate(-269.56444,-127.8881)"><g data-paper-data="{&quot;isPaintingLayer&quot;:true}" fill-rule="nonzero" stroke-linejoin="miter" stroke-miterlimit="10" stroke-dasharray="" stroke-dashoffset="0" style="mix-blend-mode: normal"><path d="M269.56444,232.1119v-104.2238h100.87112v104.2238z" fill="url(#color-1)" stroke="none" stroke-width="NaN" stroke-linecap="butt"/><path d="M274.79307,226.70948v-93.41899h90.41387v93.41899z" fill="url(#color-2)" stroke="none" stroke-width="NaN" stroke-linecap="butt"/><text transform="translate(276.30481,220.9868) scale(0.23844,0.23844)" font-size="40" xml:space="preserve" fill="#ffffff" fill-rule="nonzero" stroke="none" stroke-width="1" stroke-linecap="butt" stroke-linejoin="miter" stroke-miterlimit="10" stroke-dasharray="" stroke-dashoffset="0" font-family="&quot;OpenSans-Light&quot;, Sans Serif" font-weight="normal" text-anchor="start" style="mix-blend-mode: normal"><tspan x="0" dy="0">Timed run</tspan></text><path d="M288.93262,179.99997c0,-17.15805 13.90934,-31.06736 31.06737,-31.06736c17.15805,0 31.06739,13.90933 31.06739,31.06736c0,17.15805 -13.90936,31.0674 -31.06739,31.0674c-17.15805,0 -31.06737,-13.90937 -31.06737,-31.0674z" fill="none" stroke="#ffffff" stroke-width="2.5" stroke-linecap="butt"/><path d="M325.36417,189.83425l-7.37571,-7.37571v-20.5626" fill="none" stroke="#ffffff" stroke-width="2.5" stroke-linecap="round"/><path d="M324.44205,230.6053v-24.76541h45.2067v24.76541z" fill="#002dff" stroke="none" stroke-width="0" stroke-linecap="butt"/><text transform="translate(326.05751,222.89384) scale(0.38927,0.38927)" font-size="40" xml:space="preserve" fill="#ffffff" fill-rule="nonzero" stroke="none" stroke-width="1" stroke-linecap="butt" stroke-linejoin="miter" stroke-miterlimit="10" stroke-dasharray="" stroke-dashoffset="0" font-family="&quot;OpenSans-Bold&quot;, Sans Serif" font-weight="normal" text-anchor="start" style="mix-blend-mode: normal"><tspan x="0" dy="0">PLAN</tspan></text></g></g></svg>