<svg version="1.1" xmlns="http://www.w3.org/2000/svg" xmlns:xlink="http://www.w3.org/1999/xlink" width="265.38673" height="48.84419" viewBox="0,0,265.38673,48.84419"><g transform="translate(-105.21505,-257.11088)"><g data-paper-data="{&quot;isPaintingLayer&quot;:true}" fill="#ffffff" fill-rule="nonzero" stroke="none" stroke-width="0" stroke-linecap="butt" stroke-linejoin="miter" stroke-miterlimit="10" stroke-dasharray="" stroke-dashoffset="0" style="mix-blend-mode: normal"><path d="M105.21505,264.63908l5.5282,-5.5282l21.82183,21.82183l-5.5282,5.5282z"/><path d="M105.21505,299.55401l22.98566,-22.98566l6.40107,6.40107l-22.98566,22.98566z"/><path d="M132.21505,264.63908l5.5282,-5.52819l21.82182,21.82182l-5.52819,5.5282z"/><path d="M132.21505,299.55401l22.98566,-22.98566l6.40107,6.40107l-22.98566,22.98566z"/><path d="M158.21505,264.63908l5.5282,-5.52819l21.82182,21.82182l-5.52819,5.5282z"/><path d="M158.21505,299.55401l22.98566,-22.98566l6.40107,6.40107l-22.98566,22.98566z"/><path d="M185.21505,264.63908l5.5282,-5.52819l21.82182,21.82182l-5.52819,5.5282z"/><path d="M185.21505,299.55401l22.98566,-22.98566l6.40107,6.40107l-22.98566,22.98566z"/><path d="M261.21505,262.63908l5.5282,-5.52819l21.82182,21.82182l-5.52819,5.5282z"/><path d="M261.21505,297.55401l22.98566,-22.98566l6.40107,6.40107l-22.98566,22.98566z"/><path d="M288.21505,262.63908l5.5282,-5.52819l21.82182,21.82182l-5.52819,5.5282z"/><path d="M288.21505,297.55401l22.98566,-22.98566l6.40107,6.40107l-22.98566,22.98566z"/><path d="M314.21505,262.63908l5.5282,-5.52819l21.82182,21.82182l-5.52819,5.5282z"/><path d="M314.21505,297.55401l22.98566,-22.98566l6.40107,6.40107l-22.98566,22.98566z"/><path d="M341.21505,262.63908l5.5282,-5.52819l21.82182,21.82182l-5.52819,5.5282z"/><path d="M341.21505,297.55401l22.98566,-22.98566l6.40107,6.40107l-22.98566,22.98566z"/></g></g></svg>