<svg version="1.1" xmlns="http://www.w3.org/2000/svg" xmlns:xlink="http://www.w3.org/1999/xlink" width="913.10717" height="761.91605" viewBox="0,0,913.10717,761.91605"><defs><linearGradient x1="119.41842" y1="-74.30083" x2="119.41842" y2="125.88803" gradientUnits="userSpaceOnUse" id="color-1"><stop offset="0" stop-color="#ff0000"/><stop offset="1" stop-color="#b00000"/></linearGradient><linearGradient x1="245.66365" y1="27.5971" x2="373.71238" y2="27.5971" gradientUnits="userSpaceOnUse" id="color-2"><stop offset="0" stop-color="#ff0000"/><stop offset="1" stop-color="#b00000"/></linearGradient><radialGradient cx="508.77753" cy="-74.14185" r="105.50494" gradientUnits="userSpaceOnUse" id="color-3"><stop offset="0" stop-color="#ff0000"/><stop offset="1" stop-color="#b00000"/></radialGradient><linearGradient x1="389.94391" y1="70.88119" x2="564.88372" y2="70.88119" gradientUnits="userSpaceOnUse" id="color-4"><stop offset="0" stop-color="#ff0000"/><stop offset="1" stop-color="#b00000"/></linearGradient><linearGradient x1="436.83499" y1="50.1409" x2="436.83499" y2="71.78294" gradientUnits="userSpaceOnUse" id="color-5"><stop offset="0" stop-color="#ff0000"/><stop offset="1" stop-color="#b00000"/></linearGradient><radialGradient cx="184.14695" cy="30.46134" r="112.71896" gradientUnits="userSpaceOnUse" id="color-6"><stop offset="0" stop-color="#ff0000"/><stop offset="1" stop-color="#b00000"/></radialGradient><linearGradient x1="166.3095" y1="-43.64126" x2="339.44581" y2="-43.64126" gradientUnits="userSpaceOnUse" id="color-7"><stop offset="0" stop-color="#ff0000"/><stop offset="1" stop-color="#b00000"/></linearGradient><linearGradient x1="380.02464" y1="5.05331" x2="380.02464" y2="100.63898" gradientUnits="userSpaceOnUse" id="color-8"><stop offset="0" stop-color="#ff0000"/><stop offset="1" stop-color="#b00000"/></linearGradient><radialGradient cx="32.65268" cy="135.06452" r="86.56815" gradientUnits="userSpaceOnUse" id="color-9"><stop offset="0" stop-color="#ff0000"/><stop offset="1" stop-color="#b00000"/></radialGradient><linearGradient x1="67.11683" y1="85.30921" x2="151.88148" y2="85.30921" gradientUnits="userSpaceOnUse" id="color-10"><stop offset="0" stop-color="#ff0000"/><stop offset="1" stop-color="#b00000"/></linearGradient><radialGradient cx="216.61001" cy="151.29605" r="55.00685" gradientUnits="userSpaceOnUse" id="color-11"><stop offset="0" stop-color="#ff0000"/><stop offset="1" stop-color="#b00000"/></radialGradient><linearGradient x1="34.37036" y1="152.94057" x2="34.37036" y2="257.54376" gradientUnits="userSpaceOnUse" id="color-12"><stop offset="0" stop-color="#ff0000"/><stop offset="1" stop-color="#b00000"/></linearGradient><radialGradient cx="113.81033" cy="163.92058" r="24.34729" gradientUnits="userSpaceOnUse" id="color-13"><stop offset="0" stop-color="#ff0000"/><stop offset="1" stop-color="#b00000"/></radialGradient><linearGradient x1="-8.6303" y1="317.05937" x2="101.38339" y2="317.05937" gradientUnits="userSpaceOnUse" id="color-14"><stop offset="0" stop-color="#ff0000"/><stop offset="1" stop-color="#b00000"/></linearGradient><linearGradient x1="123.92717" y1="340.50491" x2="123.92717" y2="446.9116" gradientUnits="userSpaceOnUse" id="color-15"><stop offset="0" stop-color="#ff0000"/><stop offset="1" stop-color="#b00000"/></linearGradient><linearGradient x1="191.55855" y1="321.56814" x2="341.24931" y2="321.56814" gradientUnits="userSpaceOnUse" id="color-16"><stop offset="0" stop-color="#ff0000"/><stop offset="1" stop-color="#b00000"/></linearGradient><linearGradient x1="355.67734" y1="253.93676" x2="355.67734" y2="342.30841" gradientUnits="userSpaceOnUse" id="color-17"><stop offset="0" stop-color="#ff0000"/><stop offset="1" stop-color="#b00000"/></linearGradient><linearGradient x1="536.6189" y1="198.02816" x2="536.6189" y2="401.82402" gradientUnits="userSpaceOnUse" id="color-18"><stop offset="0" stop-color="#ff0000"/><stop offset="1" stop-color="#b00000"/></linearGradient><linearGradient x1="325.91953" y1="342.30841" x2="325.91953" y2="423.46606" gradientUnits="userSpaceOnUse" id="color-19"><stop offset="0" stop-color="#ff0000"/><stop offset="1" stop-color="#b00000"/></linearGradient><linearGradient x1="361.08785" y1="386.49425" x2="485.52956" y2="386.49425" gradientUnits="userSpaceOnUse" id="color-20"><stop offset="0" stop-color="#ff0000"/><stop offset="1" stop-color="#b00000"/></linearGradient><linearGradient x1="506.05502" y1="111.91722" x2="680.99484" y2="111.91722" gradientUnits="userSpaceOnUse" id="color-21"><stop offset="0" stop-color="#ff0000"/><stop offset="1" stop-color="#b00000"/></linearGradient><linearGradient x1="496.04" y1="-22.72242" x2="670.97982" y2="-22.72242" gradientUnits="userSpaceOnUse" id="color-22"><stop offset="0" stop-color="#ff0000"/><stop offset="1" stop-color="#b00000"/></linearGradient><linearGradient x1="481.52048" y1="440.71602" x2="656.4603" y2="440.71602" gradientUnits="userSpaceOnUse" id="color-23"><stop offset="0" stop-color="#ff0000"/><stop offset="1" stop-color="#b00000"/></linearGradient><linearGradient x1="0.41842" y1="-145.30083" x2="0.41842" y2="54.88803" gradientUnits="userSpaceOnUse" id="color-24"><stop offset="0" stop-color="#ff0000"/><stop offset="1" stop-color="#b00000"/></linearGradient><linearGradient x1="-85.05657" y1="-54.30083" x2="-85.05657" y2="145.88803" gradientUnits="userSpaceOnUse" id="color-25"><stop offset="0" stop-color="#ff0000"/><stop offset="1" stop-color="#b00000"/></linearGradient><linearGradient x1="-123.05657" y1="84.69917" x2="-123.05657" y2="284.88803" gradientUnits="userSpaceOnUse" id="color-26"><stop offset="0" stop-color="#ff0000"/><stop offset="1" stop-color="#b00000"/></linearGradient><linearGradient x1="-48.9875" y1="212.82229" x2="-48.9875" y2="413.01115" gradientUnits="userSpaceOnUse" id="color-27"><stop offset="0" stop-color="#ff0000"/><stop offset="1" stop-color="#b00000"/></linearGradient><linearGradient x1="358.4149" y1="408.5543" x2="358.4149" y2="608.74316" gradientUnits="userSpaceOnUse" id="color-28"><stop offset="0" stop-color="#ff0000"/><stop offset="1" stop-color="#b00000"/></linearGradient><linearGradient x1="464.0155" y1="407.54829" x2="464.0155" y2="607.73715" gradientUnits="userSpaceOnUse" id="color-29"><stop offset="0" stop-color="#ff0000"/><stop offset="1" stop-color="#b00000"/></linearGradient><linearGradient x1="620.66715" y1="175.31105" x2="620.66715" y2="375.49991" gradientUnits="userSpaceOnUse" id="color-30"><stop offset="0" stop-color="#ff0000"/><stop offset="1" stop-color="#b00000"/></linearGradient><linearGradient x1="18.377" y1="68.68392" x2="249.60823" y2="68.68392" gradientUnits="userSpaceOnUse" id="color-31"><stop offset="0" stop-color="#1e1e1e" stop-opacity="0.7098"/><stop offset="1" stop-color="#616161" stop-opacity="0.6549"/></linearGradient><linearGradient x1="447.22849" y1="196.81799" x2="651.02435" y2="196.81799" gradientUnits="userSpaceOnUse" id="color-32"><stop offset="0" stop-color="#ff0000"/><stop offset="1" stop-color="#b00000"/></linearGradient></defs><g transform="translate(210.24829,152.42289)"><g data-paper-data="{&quot;isPaintingLayer&quot;:true}" fill-rule="nonzero" stroke-linecap="butt" stroke-linejoin="miter" stroke-miterlimit="10" stroke-dasharray="" stroke-dashoffset="0" style="mix-blend-mode: normal"><path d="M-5.0233,125.88803v-200.18886h248.88345v200.18886z" fill="url(#color-1)" stroke="#000000" stroke-width="1.5"/><path d="M245.66365,129.49503v-203.79586h128.04873v203.79586z" fill="url(#color-2)" stroke="#000000" stroke-width="1.5"/><path d="M375.51588,129.49503v-211.00988h173.1363v211.00988z" fill="url(#color-3)" stroke="#000000" stroke-width="1.5"/><path d="M389.94391,199.83166v-257.90095h174.93982v257.90095z" fill="url(#color-4)" stroke="#000000" stroke-width="1.5"/><path d="M384.53339,-52.65879v-16.23152h7.21402v16.23152z" fill="#ff0000" stroke="#000000" stroke-width="1.5"/><path d="M353.87384,71.78294v-21.64204h165.9223v21.64204z" fill="url(#color-5)" stroke="#000000" stroke-width="1.5"/><path d="M63.50982,48.3374v-57.71211h225.43791v57.71211z" fill="url(#color-6)" stroke="#000000" stroke-width="1.5"/><path d="M166.3095,24.89185v-137.06624h173.1363v137.06624z" fill="url(#color-7)" stroke="#000000" stroke-width="1.5"/><path d="M321.41078,100.63898v-95.58567h117.22771v95.58567z" fill="url(#color-8)" stroke="#000000" stroke-width="1.5"/><path d="M389.94391,360.34345v-180.35032h85.65364v180.35032z" fill="#b2b2b2" stroke="none" stroke-width="0"/><path d="M-44.70037,169.17211v-68.53313h173.1363v68.53313z" fill="url(#color-9)" stroke="#000000" stroke-width="1.5"/><path d="M67.11683,152.94057v-135.26274h84.76465v135.26274z" fill="url(#color-10)" stroke="#000000" stroke-width="1.5"/><path d="M135.64995,178.18963v-57.71211h110.01369v57.71211z" fill="url(#color-11)" stroke="#000000" stroke-width="1.5"/><path d="M-41.09337,257.54376v-104.60319h150.92746v104.60319z" fill="url(#color-12)" stroke="#000000" stroke-width="1.5"/><path d="M92.36587,178.18963v-48.69459h45.08758v48.69459z" fill="url(#color-13)" stroke="#000000" stroke-width="1.5"/><path d="M-8.6303,374.77148v-115.42421h110.01369v115.42421z" fill="url(#color-14)" stroke="#000000" stroke-width="1.5"/><path d="M-28.46884,446.9116v-106.40669h304.79204v106.40669z" fill="url(#color-15)" stroke="#000000" stroke-width="1.5"/><path d="M191.55855,394.61002v-146.08376h149.69076v146.08376z" fill="url(#color-16)" stroke="#000000" stroke-width="1.5"/><path d="M319.60728,342.30841v-88.37165h72.14013v88.37165z" fill="url(#color-17)" stroke="#000000" stroke-width="1.5"/><path d="M470.79104,401.82402v-203.79586h131.65574v203.79586z" fill="url(#color-18)" stroke="#000000" stroke-width="1.5"/><path d="M254.68116,423.46606v-81.15765h142.47676v81.15765z" fill="url(#color-19)" stroke="#000000" stroke-width="1.5"/><path d="M361.08785,412.64504v-52.30159h124.44172v52.30159z" fill="url(#color-20)" stroke="#000000" stroke-width="1.5"/><path d="M99.57989,338.70141v-156.90478h88.37165v156.90478z" fill="#b2b2b2" stroke="none" stroke-width="0"/><path d="M243.86015,257.54376v-128.04873h146.08376v128.04873z" fill="#b2b2b2" stroke="none" stroke-width="0"/><path d="M110.4009,250.32976v-70.33663h344.46912v70.33663z" fill="#b2b2b2" stroke="none" stroke-width="0"/><path d="M506.05502,240.8677v-257.90095h174.93982v257.90096z" fill="url(#color-21)" stroke="#000000" stroke-width="1.5"/><path d="M496.04,106.22806v-257.90095h174.93982v257.90096z" fill="url(#color-22)" stroke="#000000" stroke-width="1.5"/><path d="M481.52048,569.66649v-257.90096h174.93982v257.90096z" fill="url(#color-23)" stroke="#000000" stroke-width="1.5"/><path d="M-124.0233,54.88803v-200.18886h248.88345v200.18886z" fill="url(#color-24)" stroke="#000000" stroke-width="1.5"/><path d="M-209.49829,145.88803v-200.18886h248.88345v200.18886z" fill="url(#color-25)" stroke="#000000" stroke-width="1.5"/><path d="M-204.49829,284.88803v-200.18886h162.88345v200.18886z" fill="url(#color-26)" stroke="#000000" stroke-width="1.5"/><path d="M-130.42922,413.01115v-200.18886h162.88345v200.18886z" fill="url(#color-27)" stroke="#000000" stroke-width="1.5"/><path d="M276.97318,608.74316v-200.18886h162.88345v200.18886z" fill="url(#color-28)" stroke="#000000" stroke-width="1.5"/><path d="M382.57378,607.73715v-200.18886h162.88345v200.18886z" fill="url(#color-29)" stroke="#000000" stroke-width="1.5"/><path d="M539.22543,375.49991v-200.18886h162.88345v200.18886z" fill="url(#color-30)" stroke="#000000" stroke-width="1.5"/><path d="M18.377,127.774v-118.18018h231.23123v118.18018z" fill="url(#color-31)" stroke="#ffffff" stroke-width="2"/><path d="M651.02435,262.64585h-203.79586v-131.65574h203.79586z" fill="url(#color-32)" stroke="#000000" stroke-width="1.5"/><text transform="translate(24.90052,58.562) scale(0.3647,0.3647)" font-size="40" xml:space="preserve" fill-opacity="0.1451" fill="#00ffc3" fill-rule="nonzero" stroke="#ffffff" stroke-width="1" stroke-linecap="butt" stroke-linejoin="miter" stroke-miterlimit="10" stroke-dasharray="" stroke-dashoffset="0" font-family="&quot;OpenSans-Light&quot;, Sans Serif" font-weight="normal" text-anchor="start" style="mix-blend-mode: normal"><tspan x="0" dy="0">Geez, "there's not much room</tspan><tspan x="0" dy="48px">up here."</tspan><tspan x="0" dy="48px"> </tspan><tspan x="0" dy="48px">BFDIA REFERENCE LOL</tspan></text><text transform="translate(23.90053,33.55418) scale(0.48447,0.48447)" font-size="40" xml:space="preserve" fill="#ffffff" fill-rule="nonzero" stroke="#ffffff" stroke-width="1" stroke-linecap="butt" stroke-linejoin="miter" stroke-miterlimit="10" stroke-dasharray="" stroke-dashoffset="0" font-family="&quot;OpenSans-Medium&quot;, Sans Serif" font-weight="normal" text-anchor="start" style="mix-blend-mode: normal"><tspan x="0" dy="0">Level 11 - Cramped</tspan></text></g></g></svg>