<svg version="1.1" xmlns="http://www.w3.org/2000/svg" xmlns:xlink="http://www.w3.org/1999/xlink" width="130.78396" height="45.23178" viewBox="0,0,130.78396,45.23178"><g transform="translate(-99.67797,-131.51645)"><g data-paper-data="{&quot;isPaintingLayer&quot;:true}" fill-rule="nonzero" stroke-linejoin="miter" stroke-miterlimit="10" stroke-dasharray="" stroke-dashoffset="0" style="mix-blend-mode: normal"><path d="M188.23015,154.13234c0,-10.83356 8.78234,-19.61589 19.61589,-19.61589c10.83356,0 19.61589,8.78234 19.61589,19.61589c0,10.83356 -8.78234,19.61589 -19.61589,19.61589c-10.83356,0 -19.61589,-8.78234 -19.61589,-19.61589z" fill="#000000" stroke="#ffffff" stroke-width="6" stroke-linecap="butt"/><text transform="translate(99.88578,151.62649) scale(0.41563,0.41563)" font-size="40" xml:space="preserve" fill="#585858" fill-rule="nonzero" stroke="#ffffff" stroke-width="1" stroke-linecap="butt" stroke-linejoin="miter" stroke-miterlimit="10" stroke-dasharray="" stroke-dashoffset="0" font-family="&quot;OpenSans-Medium&quot;, Sans Serif" font-weight="normal" text-anchor="start" style="mix-blend-mode: normal"><tspan x="0" dy="0">Enable </tspan><tspan x="0" dy="46.150000000000006px">Gamepad</tspan></text><path d="M200.89295,164.0292l-14.38866,-10.05905l13.92356,-9.91423" fill="#ffffff" stroke="#ffffff" stroke-width="0.5" stroke-linecap="round"/><path d="M214.90531,143.59499l13.92356,9.91422l-14.38865,10.05906" data-paper-data="{&quot;index&quot;:null}" fill="#ffffff" stroke="#ffffff" stroke-width="0.5" stroke-linecap="round"/><path d="M198.01212,147.60335l9.60914,-14.13585l10.36954,14.16654" data-paper-data="{&quot;index&quot;:null}" fill="#ffffff" stroke="#ffffff" stroke-width="0.5" stroke-linecap="round"/><path d="M217.51661,160.07831l-9.90126,14.49769l-10.06574,-13.81443" data-paper-data="{&quot;index&quot;:null}" fill="#ffffff" stroke="#ffffff" stroke-width="0.5" stroke-linecap="round"/><path d="M197.98805,152.16647l9.60914,-14.13585l10.36954,14.16653" data-paper-data="{&quot;index&quot;:null}" fill="#000000" stroke="#ffffff" stroke-width="0.5" stroke-linecap="round"/><path d="M218.1611,156.13687l-10.36954,14.16654l-9.60914,-14.13585" data-paper-data="{&quot;index&quot;:null}" fill="#000000" stroke="#ffffff" stroke-width="0.5" stroke-linecap="round"/><path d="M208.98344,143.57093l13.92356,9.91422l-14.38865,10.05906" data-paper-data="{&quot;index&quot;:null}" fill="#000000" stroke="none" stroke-width="0" stroke-linecap="round"/><path d="M205.18951,164.17546l-14.38865,-10.05906l13.92356,-9.91422" data-paper-data="{&quot;index&quot;:null}" fill="#000000" stroke="none" stroke-width="0" stroke-linecap="round"/></g></g></svg>