<svg version="1.1" xmlns="http://www.w3.org/2000/svg" xmlns:xlink="http://www.w3.org/1999/xlink" width="39.85542" height="51.28781" viewBox="0,0,39.85542,51.28781"><defs><radialGradient cx="326.395" cy="162.26125" r="16" gradientUnits="userSpaceOnUse" id="color-1"><stop offset="0" stop-color="#efff00"/><stop offset="1" stop-color="#ffad00"/></radialGradient><radialGradient cx="319.395" cy="176.06125" r="9.20993" gradientUnits="userSpaceOnUse" id="color-2"><stop offset="0" stop-color="#b2bf00"/><stop offset="1" stop-color="#a77200"/></radialGradient><radialGradient cx="319.79501" cy="184.66125" r="9.20993" gradientUnits="userSpaceOnUse" id="color-3"><stop offset="0" stop-color="#b2bf00"/><stop offset="1" stop-color="#a77200"/></radialGradient><radialGradient cx="319.69896" cy="169.70487" r="7.42532" gradientUnits="userSpaceOnUse" id="color-4"><stop offset="0" stop-color="#b2bf00"/><stop offset="1" stop-color="#a77200"/></radialGradient></defs><g transform="translate(-300.70013,-154.89273)"><g data-paper-data="{&quot;isPaintingLayer&quot;:true}" fill-rule="nonzero" stroke-linejoin="miter" stroke-miterlimit="10" stroke-dasharray="" stroke-dashoffset="0" style="mix-blend-mode: normal"><text transform="translate(300.87341,201.84867) scale(0.34655,0.34655)" font-size="40" xml:space="preserve" fill="#ffffff" fill-rule="nonzero" stroke="none" stroke-width="1" stroke-linecap="butt" stroke-linejoin="miter" stroke-miterlimit="10" stroke-dasharray="" stroke-dashoffset="0" font-family="&quot;OpenSans-Bold&quot;, Sans Serif" font-weight="normal" text-anchor="start" style="mix-blend-mode: normal"><tspan x="0" dy="0">GOLD</tspan></text><path d="M304.48119,171.89273c0,-8.83656 7.16344,-16 16,-16c8.83656,0 16,7.16344 16,16c0,8.83656 -7.16344,16 -16,16c-8.83656,0 -16,-7.16344 -16,-16z" fill="url(#color-1)" stroke="#000000" stroke-width="2" stroke-linecap="butt"/><path d="M329.50228,168.02916l-9.28933,9.28933l-9.13053,-9.13053" fill="none" stroke="url(#color-2)" stroke-width="2" stroke-linecap="round"/><path d="M329.50228,174.42916l-9.28933,9.28933l-9.13053,-9.13053" fill="none" stroke="url(#color-3)" stroke-width="2" stroke-linecap="round"/><path d="M327.84772,163.22916l-7.48933,7.48933l-7.3613,-7.3613" fill="none" stroke="url(#color-4)" stroke-width="2" stroke-linecap="round"/></g></g></svg>