<svg version="1.1" xmlns="http://www.w3.org/2000/svg" xmlns:xlink="http://www.w3.org/1999/xlink" width="152.61626" height="54" viewBox="0,0,152.61626,54"><defs><linearGradient x1="334.15094" y1="157.18367" x2="334.15094" y2="196.95515" gradientUnits="userSpaceOnUse" id="color-1"><stop offset="0" stop-color="#fc0000"/><stop offset="1" stop-color="#000000"/></linearGradient><linearGradient x1="274.4937" y1="177.06941" x2="393.80816" y2="177.06941" gradientUnits="userSpaceOnUse" id="color-2"><stop offset="0" stop-color="#ffffff"/><stop offset="1" stop-color="#000000"/></linearGradient><linearGradient x1="246.19189" y1="176.50512" x2="295.19189" y2="176.50512" gradientUnits="userSpaceOnUse" id="color-3"><stop offset="0" stop-color="#000000"/><stop offset="1" stop-color="#ffffff"/></linearGradient><linearGradient x1="246.19189" y1="176.50512" x2="295.19189" y2="176.50512" gradientUnits="userSpaceOnUse" id="color-4"><stop offset="0" stop-color="#ffffff"/><stop offset="1" stop-color="#000000"/></linearGradient><radialGradient cx="270.6431" cy="177.00041" r="16.6341" gradientUnits="userSpaceOnUse" id="color-5"><stop offset="0" stop-color="#000000"/><stop offset="1" stop-color="#ff0000"/></radialGradient></defs><g transform="translate(-243.69188,-149.50512)"><g data-paper-data="{&quot;isPaintingLayer&quot;:true}" fill-rule="nonzero" stroke-linecap="butt" stroke-linejoin="miter" stroke-miterlimit="10" stroke-dasharray="" stroke-dashoffset="0" style="mix-blend-mode: normal"><path d="M274.4937,196.95515v-39.77148h119.31444v39.77148z" fill="url(#color-1)" stroke="url(#color-2)" stroke-width="5"/><path d="M246.19189,176.50512c0,-13.53098 10.96902,-24.5 24.5,-24.5c13.53098,0 24.5,10.96902 24.5,24.5c0,13.53098 -10.96902,24.5 -24.5,24.5c-13.53098,0 -24.5,-10.96902 -24.5,-24.5z" fill="url(#color-3)" stroke="url(#color-4)" stroke-width="5"/><text transform="translate(298.62136,183.20698) scale(0.5,0.5)" font-size="40" xml:space="preserve" fill="#ffffff" fill-rule="nonzero" stroke="none" stroke-width="1" stroke-linecap="butt" stroke-linejoin="miter" stroke-miterlimit="10" stroke-dasharray="" stroke-dashoffset="0" font-family="Sans Serif" font-weight="normal" text-anchor="start" style="mix-blend-mode: normal"><tspan x="0" dy="0">Restart</tspan></text><path d="M286.73182,177.00041c0,9.18676 -7.20316,16.6341 -16.08872,16.6341c-8.88555,0 -16.08872,-7.44734 -16.08872,-16.6341c0,-9.18676 7.20316,-16.6341 16.08872,-16.6341c8.88555,0 16.08872,7.44734 16.08872,16.6341z" fill="url(#color-5)" stroke="none" stroke-width="0"/></g></g></svg>