<svg version="1.1" xmlns="http://www.w3.org/2000/svg" xmlns:xlink="http://www.w3.org/1999/xlink" width="58.75994" height="32.0665" viewBox="0,0,58.75994,32.0665"><g transform="translate(-49.36696,-334.47405)"><g data-paper-data="{&quot;isPaintingLayer&quot;:true}" fill-rule="nonzero" stroke="none" stroke-linecap="butt" stroke-linejoin="miter" stroke-miterlimit="10" stroke-dasharray="" stroke-dashoffset="0" style="mix-blend-mode: normal"><path d="M108.1269,334.59416v7.95787h-7.33201v-7.95787z" fill="#000000" stroke-width="NaN"/><path d="M100.7863,334.47405v7.95787h-7.33201v-7.95787z" fill="#ffffff" stroke-width="NaN"/><path d="M93.46436,334.53386v7.95787h-7.33201v-7.95787z" fill="#000000" stroke-width="NaN"/><path d="M86.12377,334.48601v7.95787h-7.33201v-7.95787z" fill="#ffffff" stroke-width="NaN"/><path d="M108.1269,342.54216v7.95787h-7.33201v-7.95787z" fill="#ffffff" stroke-width="NaN"/><path d="M100.7863,342.42206v7.95787h-7.332v-7.95787z" fill="#000000" stroke-width="NaN"/><path d="M93.46436,342.48186v7.95787h-7.33201v-7.95786z" fill="#ffffff" stroke-width="NaN"/><path d="M86.12377,342.43402v7.95787h-7.33201v-7.95786z" fill="#000000" stroke-width="NaN"/><path d="M108.06033,350.63467v7.95787h-7.33201v-7.95786z" fill="#000000" stroke-width="NaN"/><path d="M100.71973,350.51457v7.95787h-7.332v-7.95787z" fill="#ffffff" stroke-width="NaN"/><path d="M93.39779,350.57438v7.95786h-7.33201v-7.95786z" fill="#000000" stroke-width="NaN"/><path d="M86.0572,350.52653v7.95786h-7.33201v-7.95787z" fill="#ffffff" stroke-width="NaN"/><path d="M108.06033,358.58268v7.95787h-7.332v-7.95787z" fill="#ffffff" stroke-width="NaN"/><path d="M100.71973,358.46257v7.95786h-7.33201v-7.95786z" fill="#000000" stroke-width="NaN"/><path d="M93.39779,358.52238c0,0 0,0.57324 0,1.09479c0,1.30584 0,6.86308 0,6.86308h-7.332v-7.95787z" fill="#ffffff" stroke-width="NaN"/><path d="M86.0572,358.47453v7.95786h-7.33201v-7.95786z" fill="#000000" stroke-width="NaN"/><path d="M78.76866,334.59415v7.95787h-7.33201v-7.95787z" fill="#000000" stroke-width="NaN"/><path d="M71.42806,334.47405v7.95787h-7.33201v-7.95787z" fill="#ffffff" stroke-width="NaN"/><path d="M64.10612,334.53386v7.95786h-7.332v-7.95787z" fill="#000000" stroke-width="NaN"/><path d="M56.76553,334.48601v7.95786h-7.33201v-7.95786z" fill="#ffffff" stroke-width="NaN"/><path d="M78.76866,342.54216v7.95787h-7.332v-7.95787z" fill="#ffffff" stroke-width="NaN"/><path d="M71.42806,342.42206v7.95786h-7.33201v-7.95786z" fill="#000000" stroke-width="NaN"/><path d="M64.10612,342.48186v7.95787h-7.332v-7.95787z" fill="#ffffff" stroke-width="NaN"/><path d="M56.76553,342.43401v7.95787h-7.33201v-7.95787z" fill="#000000" stroke-width="NaN"/><path d="M78.70209,350.63467v7.95786h-7.332v-7.95786z" fill="#000000" stroke-width="NaN"/><path d="M71.36149,350.51457v7.95786h-7.33201v-7.95787z" fill="#ffffff" stroke-width="NaN"/><path d="M64.03956,350.57438v7.95787h-7.33201v-7.95787z" fill="#000000" stroke-width="NaN"/><path d="M56.69896,350.52652v7.95787h-7.332v-7.95787z" fill="#ffffff" stroke-width="NaN"/><path d="M78.70209,358.58267v7.95787h-7.332v-7.95787z" fill="#ffffff" stroke-width="NaN"/><path d="M71.36149,358.46257v7.95787h-7.33201v-7.95787z" fill="#000000" stroke-width="NaN"/><path d="M64.03956,358.52238v7.95787h-7.33201v-7.95787z" fill="#ffffff" stroke-width="NaN"/><path d="M56.69896,358.47453v7.95787h-7.332v-7.95787z" fill="#000000" stroke-width="NaN"/></g></g></svg>