<svg version="1.1" xmlns="http://www.w3.org/2000/svg" xmlns:xlink="http://www.w3.org/1999/xlink" width="40.78187" height="40.78187" viewBox="0,0,40.78187,40.78187"><defs><radialGradient cx="239.6698" cy="161.97119" r="18.62317" gradientUnits="userSpaceOnUse" id="color-1"><stop offset="0" stop-color="#ffffff"/><stop offset="1" stop-color="#1a1a1a"/></radialGradient><radialGradient cx="239.6698" cy="169.36762" r="10.90746" gradientUnits="userSpaceOnUse" id="color-2"><stop offset="0" stop-color="#ffffff"/><stop offset="1" stop-color="#1a1a1a"/></radialGradient></defs><g transform="translate(-219.60906,-159.60906)"><g data-paper-data="{&quot;isPaintingLayer&quot;:true}" fill-rule="nonzero" stroke-linecap="butt" stroke-linejoin="miter" stroke-miterlimit="10" stroke-dasharray="" stroke-dashoffset="0" style="mix-blend-mode: normal"><path d="M221.37683,180l18.62317,-18.62317l18.62317,18.62317l-18.62317,18.62317z" fill="#000000" stroke="url(#color-1)" stroke-width="2.5"/><path d="M229.09254,180l10.90746,-10.90746l10.90746,10.90746l-10.90746,10.90746z" fill="none" stroke="url(#color-2)" stroke-width="2.5"/><path d="M244.01891,192.48149c0,1.50804 -4.30647,4.21848 -5.48586,2.15454c-0.73685,-0.43488 -1.23117,-1.23698 -1.23117,-2.15454c0,-0.34637 0.07044,-0.67628 0.19777,-0.9762c-1.29381,-0.63979 -1.4045,-2.08314 -1.97446,-3.26033l-0.14386,-0.09591l0.0027,-0.00405l-0.01578,-0.00478c-0.73791,-0.52625 -1.72173,-0.81757 -2.21372,-1.57874c-0.04687,-0.07251 -0.08975,-0.14678 -0.12912,-0.22259l-0.03328,0.02219l-0.7911,-1.18665c-0.12291,-0.17866 -0.20507,-0.38753 -0.23309,-0.6132c-0.07665,-0.00038 -0.15353,0.00004 -0.23055,0.00093c-0.19455,0.12784 -0.45303,0.21276 -0.79642,0.21276c-1.38857,0 -1.38857,-1.38857 -1.38857,-1.38857l0.6326,-0.7239c-0.35389,0.06806 -0.70942,0.15228 -1.06704,0.25538c0,0 -1.33515,0.38147 -1.71662,-0.95368c-0.38147,-1.33515 0.95368,-1.71662 0.95368,-1.71662c3.32028,-0.94119 6.41739,-0.64774 9.7699,-0.24343c4.01275,0.48393 8.00582,-0.63405 12.01583,-0.59868l1.23036,-0.35153c0.13026,-0.04045 0.26874,-0.06224 0.41231,-0.06224c0.76689,0 1.38857,0.62169 1.38857,1.38857c0,0.34145 -0.12324,0.65412 -0.32768,0.89595l-0.99621,1.19545l-0.0312,-0.026c-0.03447,0.05735 -0.07023,0.11401 -0.10744,0.1699c-0.55319,0.83104 -1.55315,1.21306 -2.47724,1.66558l-0.04867,0.03476l-0.00571,-0.008c-0.04801,0.02375 -0.09578,0.04771 -0.14325,0.07197l-0.02802,0.04348c-0.00664,-0.00627 -0.01328,-0.01255 -0.01991,-0.01882c-0.05831,0.03019 -0.11612,0.06087 -0.17328,0.09217l0.0022,0.00659l-0.03584,0.01195c-0.08147,0.04517 -0.16155,0.09167 -0.23984,0.13991l-0.0382,-0.00531c-0.22839,0.33218 -0.67841,0.63496 -1.17361,0.90326c-0.02467,0.23023 -0.07371,0.45566 -0.14911,0.66982l0.00001,-0.00001c-0.40912,1.16212 -2.25206,3.74043 -3.28361,4.85858c-0.01605,0.01877 -0.03237,0.03729 -0.04895,0.05557c0.11114,0.36549 0.17248,0.81012 0.17248,1.34446zM243.70729,182.71793c0.06863,-0.04884 0.13672,-0.09381 0.20424,-0.13504c-1.36979,0.10773 -2.74672,0.19226 -4.15262,0.18793c-1.70056,-0.00524 -3.34935,-0.20131 -4.99239,-0.30178l0.00001,0.00001c1.58046,0.6286 2.91059,1.75006 3.55635,3.57525c0.00794,0.02245 0.01572,0.04494 0.02335,0.06747l0.01301,-0.00743l0.78953,1.38168c0.07136,0.11968 0.12522,0.25099 0.15808,0.39042c0.18805,-0.25642 0.39664,-0.49143 0.66385,-0.6533c0.0273,-0.01654 0.05469,-0.0329 0.08217,-0.04908l-0.01402,-0.01577l0.50857,-0.45206c0.81025,-1.59277 1.93778,-3.11857 3.15986,-3.98829zM246.16407,182.4597l0.25596,-0.08532c-0.17146,0.01397 -0.34281,0.0282 -0.51412,0.04257c0.04916,0.02558 0.09732,0.05338 0.14442,0.08326c0.03714,-0.01509 0.07508,-0.02862 0.11374,-0.04051z" fill="#000000" stroke="none" stroke-width="0.5"/></g></g></svg>