<svg version="1.1" xmlns="http://www.w3.org/2000/svg" xmlns:xlink="http://www.w3.org/1999/xlink" width="173.30436" height="172.28795" viewBox="0,0,173.30436,172.28795"><defs><radialGradient cx="320" cy="180" r="27.01224" gradientUnits="userSpaceOnUse" id="color-1"><stop offset="0" stop-color="#ffffff"/><stop offset="1" stop-color="#1a1a1a"/></radialGradient><linearGradient x1="320" y1="152.98776" x2="320" y2="207.01224" gradientUnits="userSpaceOnUse" id="color-2"><stop offset="0" stop-color="#000000"/><stop offset="1" stop-color="#ffffff"/></linearGradient><linearGradient x1="315.96088" y1="174.41429" x2="315.96088" y2="195.02398" gradientUnits="userSpaceOnUse" id="color-3"><stop offset="0" stop-color="#000000"/><stop offset="1" stop-color="#ffffff"/></linearGradient><linearGradient x1="332.49877" y1="165.47584" x2="332.49877" y2="170.49749" gradientUnits="userSpaceOnUse" id="color-4"><stop offset="0" stop-color="#000000"/><stop offset="1" stop-color="#ffffff"/></linearGradient><radialGradient cx="329.82272" cy="170.75268" r="9.52021" gradientUnits="userSpaceOnUse" id="color-5"><stop offset="0" stop-color="#ffffff"/><stop offset="1" stop-color="#1a1a1a"/></radialGradient><linearGradient x1="332.6338" y1="167.9416" x2="327.01164" y2="173.56376" gradientUnits="userSpaceOnUse" id="color-6"><stop offset="0" stop-color="#000000"/><stop offset="1" stop-color="#ffffff"/></linearGradient><linearGradient x1="323.08318" y1="170.49749" x2="323.08318" y2="195.60573" gradientUnits="userSpaceOnUse" id="color-7"><stop offset="0" stop-color="#000000"/><stop offset="1" stop-color="#ffffff"/></linearGradient><linearGradient x1="307.39053" y1="161.50037" x2="307.39053" y2="174.47296" gradientUnits="userSpaceOnUse" id="color-8"><stop offset="0" stop-color="#000000"/><stop offset="1" stop-color="#ffffff"/></linearGradient></defs><g transform="translate(-174.95788,-35.97429)"><g data-paper-data="{&quot;isPaintingLayer&quot;:true}" fill-rule="nonzero" stroke-linejoin="miter" stroke-miterlimit="10" stroke-dasharray="" stroke-dashoffset="0" style="mix-blend-mode: normal"><text transform="translate(175.20788,57.8243) scale(0.5,0.5)" font-size="40" xml:space="preserve" fill="none" fill-rule="nonzero" stroke="none" stroke-width="1" stroke-linecap="butt" stroke-linejoin="miter" stroke-miterlimit="10" stroke-dasharray="" stroke-dashoffset="0" font-family="Sans Serif" font-weight="normal" text-anchor="start" style="mix-blend-mode: normal"><tspan x="0" dy="0">II</tspan></text><path d="M292.98776,180c0,-14.91845 12.09379,-27.01224 27.01224,-27.01224c14.91845,0 27.01224,12.09379 27.01224,27.01224c0,14.91845 -12.09379,27.01224 -27.01224,27.01224c-14.91845,0 -27.01224,-12.09379 -27.01224,-27.01224z" fill="url(#color-1)" stroke="url(#color-2)" stroke-width="2.5" stroke-linecap="butt"/><path d="M305.65604,195.02398l20.60968,-20.60968" fill="none" stroke="url(#color-3)" stroke-width="2.5" stroke-linecap="round"/><path d="M329.98795,167.98666c0,-1.38669 1.12413,-2.51082 2.51082,-2.51082c1.38669,0 2.51082,1.12413 2.51082,2.51082c0,1.38669 -1.12413,2.51082 -2.51082,2.51082c-1.38669,0 -2.51082,-1.12413 -2.51082,-2.51082z" fill="none" stroke="url(#color-4)" stroke-width="2.5" stroke-linecap="butt"/><path d="M320.27983,166.83196l5.62216,-5.62217l13.46361,13.46361l-5.62216,5.62216z" fill="url(#color-5)" stroke="url(#color-6)" stroke-width="2.5" stroke-linecap="butt"/><path d="M335.6373,195.60573l-22.07433,-22.07433l-3.03391,-3.03391" fill="none" stroke="url(#color-7)" stroke-width="2.5" stroke-linecap="round"/><path d="M313.87683,167.98666c0,3.58228 -2.90401,6.4863 -6.4863,6.4863c-2.1944,0 -4.13428,-1.08971 -5.30804,-2.75751c4.13327,-1.22775 7.14786,-5.05552 7.14786,-9.58737c0,-0.12219 -0.00219,-0.24387 -0.00654,-0.365c2.68954,0.79099 4.65301,3.27799 4.65301,6.22359z" fill="#ffffff" stroke="url(#color-8)" stroke-width="2.5" stroke-linecap="butt"/></g></g></svg>