<svg version="1.1" xmlns="http://www.w3.org/2000/svg" xmlns:xlink="http://www.w3.org/1999/xlink" width="977.97597" height="695.6937" viewBox="0,0,977.97597,695.6937"><g transform="translate(160.31915,127.86349)"><g data-paper-data="{&quot;isPaintingLayer&quot;:true}" fill="#464646" fill-rule="nonzero" stroke="#ff0000" stroke-width="2" stroke-linecap="butt" stroke-linejoin="miter" stroke-miterlimit="10" stroke-dasharray="" stroke-dashoffset="0" style="mix-blend-mode: normal"><path d="M-55.71555,476.74012v-570.57057h136.63664v570.57057z"/><path d="M-108.2681,-2.23887v-124.62462h833.33333v124.62462z"/><path d="M553.89406,461.7251v-534.53453h142.64264v534.53453z"/><path d="M-159.31915,566.83021v-216.21622h944.44444v216.21622z"/><path d="M-106.7666,12.77615v-136.63664h923.42342v136.63664z"/><path d="M46.38655,388.15153v-418.91892h43.54354v418.91892z"/><path d="M593.31381,289.82733v-120.12012h54.05405v120.12012z"/><path d="M554.27477,355.89339v-99.0991h45.04505v99.0991z"/><path d="M560.28078,142.68018v-93.09309h63.06306v93.09309z"/><path d="M615.83634,280.81832v-177.17718h61.56156v177.17718z"/><path d="M482.2027,4.54204v-27.02703h171.17117v27.02703z"/><path d="M593.31381,118.65616v-129.12913h72.07207v129.12913z"/><path d="M247.96847,-5.96847v-25.52553h291.29129v25.52553z"/><path d="M29.89339,-2.96547v-21.02102h189.18919v21.02102z"/><path d="M14.87838,195.23273v-216.21622h63.06306v216.21622z"/><path d="M17.88138,273.31081v-39.03904h51.05105v39.03904z"/><path d="M29.89339,381.41892v-69.06907h45.04505v69.06907z"/></g></g></svg>