<svg version="1.1" xmlns="http://www.w3.org/2000/svg" xmlns:xlink="http://www.w3.org/1999/xlink" width="869.58875" height="744.6811" viewBox="0,0,869.58875,744.6811"><defs><linearGradient x1="286.10036" y1="-42.97297" x2="286.10036" y2="405.97598" gradientUnits="userSpaceOnUse" id="color-1"><stop offset="0" stop-color="#295f67"/><stop offset="1" stop-color="#312152"/></linearGradient><linearGradient x1="60.86605" y1="-86.45238" x2="-25.97115" y2="-3.45753" gradientUnits="userSpaceOnUse" id="color-2"><stop offset="0" stop-color="#295f67"/><stop offset="1" stop-color="#312152"/></linearGradient><linearGradient x1="157.30726" y1="-86.69711" x2="88.77871" y2="-21.20079" gradientUnits="userSpaceOnUse" id="color-3"><stop offset="0" stop-color="#295f67"/><stop offset="1" stop-color="#312152"/></linearGradient><linearGradient x1="297.78747" y1="-94.59847" x2="186.52673" y2="11.73922" gradientUnits="userSpaceOnUse" id="color-4"><stop offset="0" stop-color="#295f67"/><stop offset="1" stop-color="#312152"/></linearGradient><linearGradient x1="382.36704" y1="-125.63451" x2="271.10631" y2="-19.29681" gradientUnits="userSpaceOnUse" id="color-5"><stop offset="0" stop-color="#295f67"/><stop offset="1" stop-color="#312152"/></linearGradient><linearGradient x1="492.47215" y1="-126.64052" x2="381.21142" y2="-20.30282" gradientUnits="userSpaceOnUse" id="color-6"><stop offset="0" stop-color="#295f67"/><stop offset="1" stop-color="#312152"/></linearGradient><linearGradient x1="619.09377" y1="-102.121" x2="507.83304" y2="4.2167" gradientUnits="userSpaceOnUse" id="color-7"><stop offset="0" stop-color="#295f67"/><stop offset="1" stop-color="#312152"/></linearGradient><linearGradient x1="80.55023" y1="370.32645" x2="-30.71051" y2="476.66415" gradientUnits="userSpaceOnUse" id="color-8"><stop offset="0" stop-color="#295f67"/><stop offset="1" stop-color="#312152"/></linearGradient><linearGradient x1="189.15383" y1="354.30543" x2="77.89309" y2="460.64313" gradientUnits="userSpaceOnUse" id="color-9"><stop offset="0" stop-color="#295f67"/><stop offset="1" stop-color="#312152"/></linearGradient><linearGradient x1="318.77845" y1="398.34447" x2="207.51772" y2="504.68217" gradientUnits="userSpaceOnUse" id="color-10"><stop offset="0" stop-color="#295f67"/><stop offset="1" stop-color="#312152"/></linearGradient><linearGradient x1="428.88356" y1="367.30843" x2="317.62283" y2="473.64613" gradientUnits="userSpaceOnUse" id="color-11"><stop offset="0" stop-color="#295f67"/><stop offset="1" stop-color="#312152"/></linearGradient><linearGradient x1="535.98566" y1="384.32045" x2="424.72493" y2="490.65815" gradientUnits="userSpaceOnUse" id="color-12"><stop offset="0" stop-color="#295f67"/><stop offset="1" stop-color="#312152"/></linearGradient><linearGradient x1="631.07575" y1="360.79192" x2="519.81502" y2="467.12962" gradientUnits="userSpaceOnUse" id="color-13"><stop offset="0" stop-color="#295f67"/><stop offset="1" stop-color="#312152"/></linearGradient><linearGradient x1="7.68769" y1="75.64565" x2="18.1982" y2="75.64565" gradientUnits="userSpaceOnUse" id="color-14"><stop offset="0" stop-color="#295f67"/><stop offset="1" stop-color="#312152"/></linearGradient><linearGradient x1="69.24925" y1="49.36937" x2="91.77177" y2="49.36937" gradientUnits="userSpaceOnUse" id="color-15"><stop offset="0" stop-color="#295f67"/><stop offset="1" stop-color="#312152"/></linearGradient><linearGradient x1="-8.82883" y1="138.70871" x2="6.18619" y2="138.70871" gradientUnits="userSpaceOnUse" id="color-16"><stop offset="0" stop-color="#295f67"/><stop offset="1" stop-color="#312152"/></linearGradient><linearGradient x1="52.73273" y1="113.93393" x2="78.25826" y2="113.93393" gradientUnits="userSpaceOnUse" id="color-17"><stop offset="0" stop-color="#295f67"/><stop offset="1" stop-color="#312152"/></linearGradient><linearGradient x1="24.2042" y1="187.50751" x2="30.21021" y2="187.50751" gradientUnits="userSpaceOnUse" id="color-18"><stop offset="0" stop-color="#295f67"/><stop offset="1" stop-color="#312152"/></linearGradient><linearGradient x1="136.81682" y1="108.67868" x2="156.33634" y2="108.67868" gradientUnits="userSpaceOnUse" id="color-19"><stop offset="0" stop-color="#295f67"/><stop offset="1" stop-color="#312152"/></linearGradient><linearGradient x1="83.1836" y1="173.41122" x2="101.86145" y2="179.08128" gradientUnits="userSpaceOnUse" id="color-20"><stop offset="0" stop-color="#295f67"/><stop offset="1" stop-color="#312152"/></linearGradient><linearGradient x1="40.72072" y1="225.04505" x2="54.23423" y2="225.04505" gradientUnits="userSpaceOnUse" id="color-21"><stop offset="0" stop-color="#295f67"/><stop offset="1" stop-color="#312152"/></linearGradient><linearGradient x1="3.18318" y1="264.83483" x2="10.69069" y2="264.83483" gradientUnits="userSpaceOnUse" id="color-22"><stop offset="0" stop-color="#295f67"/><stop offset="1" stop-color="#312152"/></linearGradient><linearGradient x1="57.23724" y1="277.5976" x2="63.24324" y2="277.5976" gradientUnits="userSpaceOnUse" id="color-23"><stop offset="0" stop-color="#295f67"/><stop offset="1" stop-color="#312152"/></linearGradient><linearGradient x1="111.29129" y1="244.56456" x2="118.7988" y2="244.56456" gradientUnits="userSpaceOnUse" id="color-24"><stop offset="0" stop-color="#295f67"/><stop offset="1" stop-color="#312152"/></linearGradient><linearGradient x1="168.34835" y1="294.86486" x2="187.86787" y2="294.86486" gradientUnits="userSpaceOnUse" id="color-25"><stop offset="0" stop-color="#295f67"/><stop offset="1" stop-color="#312152"/></linearGradient><linearGradient x1="145.82583" y1="205.52553" x2="154.83483" y2="205.52553" gradientUnits="userSpaceOnUse" id="color-26"><stop offset="0" stop-color="#295f67"/><stop offset="1" stop-color="#312152"/></linearGradient><linearGradient x1="160.84084" y1="152.22222" x2="163.84384" y2="152.22222" gradientUnits="userSpaceOnUse" id="color-27"><stop offset="0" stop-color="#295f67"/><stop offset="1" stop-color="#312152"/></linearGradient><linearGradient x1="178.85886" y1="192.01201" x2="186.36637" y2="192.01201" gradientUnits="userSpaceOnUse" id="color-28"><stop offset="0" stop-color="#295f67"/><stop offset="1" stop-color="#312152"/></linearGradient><linearGradient x1="208.88889" y1="132.7027" x2="217.8979" y2="132.7027" gradientUnits="userSpaceOnUse" id="color-29"><stop offset="0" stop-color="#295f67"/><stop offset="1" stop-color="#312152"/></linearGradient><linearGradient x1="165.34535" y1="51.62162" x2="187.86787" y2="51.62162" gradientUnits="userSpaceOnUse" id="color-30"><stop offset="0" stop-color="#295f67"/><stop offset="1" stop-color="#312152"/></linearGradient><linearGradient x1="261.44144" y1="116.18619" x2="265.94595" y2="116.18619" gradientUnits="userSpaceOnUse" id="color-31"><stop offset="0" stop-color="#295f67"/><stop offset="1" stop-color="#312152"/></linearGradient><linearGradient x1="273.45345" y1="64.38438" x2="276.45646" y2="64.38438" gradientUnits="userSpaceOnUse" id="color-32"><stop offset="0" stop-color="#295f67"/><stop offset="1" stop-color="#312152"/></linearGradient><linearGradient x1="202.88288" y1="91.41141" x2="204.38438" y2="91.41141" gradientUnits="userSpaceOnUse" id="color-33"><stop offset="0" stop-color="#295f67"/><stop offset="1" stop-color="#312152"/></linearGradient><linearGradient x1="252.43243" y1="182.25225" x2="261.44144" y2="182.25225" gradientUnits="userSpaceOnUse" id="color-34"><stop offset="0" stop-color="#295f67"/><stop offset="1" stop-color="#312152"/></linearGradient><linearGradient x1="196.87688" y1="216.03604" x2="204.38438" y2="216.03604" gradientUnits="userSpaceOnUse" id="color-35"><stop offset="0" stop-color="#295f67"/><stop offset="1" stop-color="#312152"/></linearGradient><linearGradient x1="274.95495" y1="277.5976" x2="300.48048" y2="277.5976" gradientUnits="userSpaceOnUse" id="color-36"><stop offset="0" stop-color="#295f67"/><stop offset="1" stop-color="#312152"/></linearGradient><linearGradient x1="223.9039" y1="252.82282" x2="232.91291" y2="252.82282" gradientUnits="userSpaceOnUse" id="color-37"><stop offset="0" stop-color="#295f67"/><stop offset="1" stop-color="#312152"/></linearGradient><linearGradient x1="324.5045" y1="155.97598" x2="341.02102" y2="155.97598" gradientUnits="userSpaceOnUse" id="color-38"><stop offset="0" stop-color="#295f67"/><stop offset="1" stop-color="#312152"/></linearGradient><linearGradient x1="271.95195" y1="212.28228" x2="286.96697" y2="212.28228" gradientUnits="userSpaceOnUse" id="color-39"><stop offset="0" stop-color="#295f67"/><stop offset="1" stop-color="#312152"/></linearGradient><linearGradient x1="307.98799" y1="111.68168" x2="326.00601" y2="111.68168" gradientUnits="userSpaceOnUse" id="color-40"><stop offset="0" stop-color="#295f67"/><stop offset="1" stop-color="#312152"/></linearGradient><linearGradient x1="353.2027" y1="68.69024" x2="390.4009" y2="52.57102" gradientUnits="userSpaceOnUse" id="color-41"><stop offset="0" stop-color="#295f67"/><stop offset="1" stop-color="#312152"/></linearGradient><linearGradient x1="398.07808" y1="177.74775" x2="413.09309" y2="177.74775" gradientUnits="userSpaceOnUse" id="color-42"><stop offset="0" stop-color="#295f67"/><stop offset="1" stop-color="#312152"/></linearGradient><linearGradient x1="336.51652" y1="227.2973" x2="351.53153" y2="227.2973" gradientUnits="userSpaceOnUse" id="color-43"><stop offset="0" stop-color="#295f67"/><stop offset="1" stop-color="#312152"/></linearGradient><linearGradient x1="326.00601" y1="274.59459" x2="330.51051" y2="274.59459" gradientUnits="userSpaceOnUse" id="color-44"><stop offset="0" stop-color="#295f67"/><stop offset="1" stop-color="#312152"/></linearGradient><linearGradient x1="378.55856" y1="279.84985" x2="390.57057" y2="279.84985" gradientUnits="userSpaceOnUse" id="color-45"><stop offset="0" stop-color="#295f67"/><stop offset="1" stop-color="#312152"/></linearGradient><linearGradient x1="294.47447" y1="325.64565" x2="307.98799" y2="325.64565" gradientUnits="userSpaceOnUse" id="color-46"><stop offset="0" stop-color="#295f67"/><stop offset="1" stop-color="#312152"/></linearGradient><linearGradient x1="231.41141" y1="321.89189" x2="240.42042" y2="321.89189" gradientUnits="userSpaceOnUse" id="color-47"><stop offset="0" stop-color="#295f67"/><stop offset="1" stop-color="#312152"/></linearGradient><linearGradient x1="393.57357" y1="115.43544" x2="402.58258" y2="115.43544" gradientUnits="userSpaceOnUse" id="color-48"><stop offset="0" stop-color="#295f67"/><stop offset="1" stop-color="#312152"/></linearGradient><linearGradient x1="437.11712" y1="46.36637" x2="452.13213" y2="46.36637" gradientUnits="userSpaceOnUse" id="color-49"><stop offset="0" stop-color="#295f67"/><stop offset="1" stop-color="#312152"/></linearGradient><linearGradient x1="482.16216" y1="44.11411" x2="500.18018" y2="44.11411" gradientUnits="userSpaceOnUse" id="color-50"><stop offset="0" stop-color="#295f67"/><stop offset="1" stop-color="#312152"/></linearGradient><linearGradient x1="435.61562" y1="115.43544" x2="444.62462" y2="115.43544" gradientUnits="userSpaceOnUse" id="color-51"><stop offset="0" stop-color="#295f67"/><stop offset="1" stop-color="#312152"/></linearGradient><linearGradient x1="492.67267" y1="101.17117" x2="516.6967" y2="101.17117" gradientUnits="userSpaceOnUse" id="color-52"><stop offset="0" stop-color="#295f67"/><stop offset="1" stop-color="#312152"/></linearGradient><linearGradient x1="459.63964" y1="183.75375" x2="474.65465" y2="183.75375" gradientUnits="userSpaceOnUse" id="color-53"><stop offset="0" stop-color="#295f67"/><stop offset="1" stop-color="#312152"/></linearGradient><linearGradient x1="404.08408" y1="224.29429" x2="428.10811" y2="224.29429" gradientUnits="userSpaceOnUse" id="color-54"><stop offset="0" stop-color="#295f67"/><stop offset="1" stop-color="#312152"/></linearGradient><linearGradient x1="470.15015" y1="262.58258" x2="480.66066" y2="262.58258" gradientUnits="userSpaceOnUse" id="color-55"><stop offset="0" stop-color="#295f67"/><stop offset="1" stop-color="#312152"/></linearGradient><linearGradient x1="425.10511" y1="288.85886" x2="431.11111" y2="288.85886" gradientUnits="userSpaceOnUse" id="color-56"><stop offset="0" stop-color="#295f67"/><stop offset="1" stop-color="#312152"/></linearGradient><linearGradient x1="501.68168" y1="315.13514" x2="512.19219" y2="315.13514" gradientUnits="userSpaceOnUse" id="color-57"><stop offset="0" stop-color="#295f67"/><stop offset="1" stop-color="#312152"/></linearGradient><linearGradient x1="548.22823" y1="255.82583" x2="555.73574" y2="255.82583" gradientUnits="userSpaceOnUse" id="color-58"><stop offset="0" stop-color="#295f67"/><stop offset="1" stop-color="#312152"/></linearGradient><linearGradient x1="503.18318" y1="181.5015" x2="516.6967" y2="181.5015" gradientUnits="userSpaceOnUse" id="color-59"><stop offset="0" stop-color="#295f67"/><stop offset="1" stop-color="#312152"/></linearGradient><linearGradient x1="498.67868" y1="252.07207" x2="516.6967" y2="252.07207" gradientUnits="userSpaceOnUse" id="color-60"><stop offset="0" stop-color="#295f67"/><stop offset="1" stop-color="#312152"/></linearGradient><linearGradient x1="542.22222" y1="131.2012" x2="555.73574" y2="131.2012" gradientUnits="userSpaceOnUse" id="color-61"><stop offset="0" stop-color="#295f67"/><stop offset="1" stop-color="#312152"/></linearGradient><linearGradient x1="566.24625" y1="83.15315" x2="578.25826" y2="83.15315" gradientUnits="userSpaceOnUse" id="color-62"><stop offset="0" stop-color="#295f67"/><stop offset="1" stop-color="#312152"/></linearGradient><linearGradient x1="555.73574" y1="207.77778" x2="579.75976" y2="207.77778" gradientUnits="userSpaceOnUse" id="color-63"><stop offset="0" stop-color="#295f67"/><stop offset="1" stop-color="#312152"/></linearGradient><linearGradient x1="575.25526" y1="282.1021" x2="590.27027" y2="282.1021" gradientUnits="userSpaceOnUse" id="color-64"><stop offset="0" stop-color="#295f67"/><stop offset="1" stop-color="#312152"/></linearGradient><linearGradient x1="530.21021" y1="297.11712" x2="539.21922" y2="297.11712" gradientUnits="userSpaceOnUse" id="color-65"><stop offset="0" stop-color="#295f67"/><stop offset="1" stop-color="#312152"/></linearGradient><linearGradient x1="420.6006" y1="317.38739" x2="432.61261" y2="317.38739" gradientUnits="userSpaceOnUse" id="color-66"><stop offset="0" stop-color="#295f67"/><stop offset="1" stop-color="#312152"/></linearGradient><linearGradient x1="459.63964" y1="303.12312" x2="476.15616" y2="303.12312" gradientUnits="userSpaceOnUse" id="color-67"><stop offset="0" stop-color="#295f67"/><stop offset="1" stop-color="#312152"/></linearGradient><linearGradient x1="384.56456" y1="246.06607" x2="395.07508" y2="246.06607" gradientUnits="userSpaceOnUse" id="color-68"><stop offset="0" stop-color="#295f67"/><stop offset="1" stop-color="#312152"/></linearGradient><linearGradient x1="336.51652" y1="185.25526" x2="350.03003" y2="185.25526" gradientUnits="userSpaceOnUse" id="color-69"><stop offset="0" stop-color="#295f67"/><stop offset="1" stop-color="#312152"/></linearGradient><linearGradient x1="307.98799" y1="53.12312" x2="335.01502" y2="53.12312" gradientUnits="userSpaceOnUse" id="color-70"><stop offset="0" stop-color="#295f67"/><stop offset="1" stop-color="#312152"/></linearGradient><linearGradient x1="265.94595" y1="152.22222" x2="276.45646" y2="152.22222" gradientUnits="userSpaceOnUse" id="color-71"><stop offset="0" stop-color="#295f67"/><stop offset="1" stop-color="#312152"/></linearGradient><linearGradient x1="249.42943" y1="89.90991" x2="256.93694" y2="89.90991" gradientUnits="userSpaceOnUse" id="color-72"><stop offset="0" stop-color="#295f67"/><stop offset="1" stop-color="#312152"/></linearGradient><linearGradient x1="108.28829" y1="71.14114" x2="121.8018" y2="71.14114" gradientUnits="userSpaceOnUse" id="color-73"><stop offset="0" stop-color="#295f67"/><stop offset="1" stop-color="#312152"/></linearGradient><linearGradient x1="130.81081" y1="18.58859" x2="144.32432" y2="18.58859" gradientUnits="userSpaceOnUse" id="color-74"><stop offset="0" stop-color="#295f67"/><stop offset="1" stop-color="#312152"/></linearGradient><linearGradient x1="94.77477" y1="128.1982" x2="105.28529" y2="128.1982" gradientUnits="userSpaceOnUse" id="color-75"><stop offset="0" stop-color="#295f67"/><stop offset="1" stop-color="#312152"/></linearGradient><linearGradient x1="22.7027" y1="46.36637" x2="24.2042" y2="46.36637" gradientUnits="userSpaceOnUse" id="color-76"><stop offset="0" stop-color="#295f67"/><stop offset="1" stop-color="#312152"/></linearGradient><linearGradient x1="-13.33333" y1="82.4024" x2="-4.32432" y2="82.4024" gradientUnits="userSpaceOnUse" id="color-77"><stop offset="0" stop-color="#295f67"/><stop offset="1" stop-color="#312152"/></linearGradient><linearGradient x1="19.6997" y1="110.18018" x2="37.71772" y2="110.18018" gradientUnits="userSpaceOnUse" id="color-78"><stop offset="0" stop-color="#295f67"/><stop offset="1" stop-color="#312152"/></linearGradient><linearGradient x1="-13.33333" y1="196.51652" x2="-1.32132" y2="196.51652" gradientUnits="userSpaceOnUse" id="color-79"><stop offset="0" stop-color="#295f67"/><stop offset="1" stop-color="#312152"/></linearGradient><linearGradient x1="19.6997" y1="291.11111" x2="28.70871" y2="291.11111" gradientUnits="userSpaceOnUse" id="color-80"><stop offset="0" stop-color="#295f67"/><stop offset="1" stop-color="#312152"/></linearGradient><linearGradient x1="55.73574" y1="322.64264" x2="66.24625" y2="322.64264" gradientUnits="userSpaceOnUse" id="color-81"><stop offset="0" stop-color="#295f67"/><stop offset="1" stop-color="#312152"/></linearGradient><linearGradient x1="-25.72555" y1="-67.93887" x2="-112.56275" y2="15.05598" gradientUnits="userSpaceOnUse" id="color-82"><stop offset="0" stop-color="#295f67"/><stop offset="1" stop-color="#312152"/></linearGradient><linearGradient x1="-10.54587" y1="391.84297" x2="-121.80661" y2="498.18067" gradientUnits="userSpaceOnUse" id="color-83"><stop offset="0" stop-color="#295f67"/><stop offset="1" stop-color="#312152"/></linearGradient><linearGradient x1="8.877" y1="58.68392" x2="192.10823" y2="58.68392" gradientUnits="userSpaceOnUse" id="color-84"><stop offset="0" stop-color="#1e1e1e" stop-opacity="0.7098"/><stop offset="1" stop-color="#616161" stop-opacity="0.6549"/></linearGradient></defs><g transform="translate(175.99353,183.31973)"><g data-paper-data="{&quot;isPaintingLayer&quot;:true}" fill-rule="nonzero" stroke-linecap="butt" stroke-linejoin="miter" stroke-miterlimit="10" stroke-dasharray="" stroke-dashoffset="0" style="mix-blend-mode: normal"><path d="M-121.39453,405.97598v-448.94895h814.98975v448.94895z" fill="url(#color-1)" stroke="none" stroke-width="0"/><path d="M-67.98729,-47.41886l86.8372,-82.99484l84.03228,87.92266l-86.8372,82.99484z" fill="url(#color-2)" stroke="#000000" stroke-width="0.5"/><path d="M55.6212,-55.89337l68.52855,-65.49631l66.31502,69.38515l-68.52855,65.49631z" fill="url(#color-3)" stroke="#000000" stroke-width="0.5"/><path d="M132.69327,-44.58653l111.26074,-106.33769l107.66691,112.65148l-111.26073,106.3377z" fill="url(#color-4)" stroke="#000000" stroke-width="0.5"/><path d="M217.27285,-75.62256l111.26075,-106.33769l107.66691,112.65149l-111.26074,106.3377z" fill="url(#color-5)" stroke="#000000" stroke-width="0.5"/><path d="M327.37796,-76.62857l111.26074,-106.33769l107.66691,112.65149l-111.26073,106.3377z" fill="url(#color-6)" stroke="#000000" stroke-width="0.5"/><path d="M453.99958,-52.10905l111.26074,-106.33769l107.66691,112.65148l-111.26074,106.3377z" fill="url(#color-7)" stroke="#000000" stroke-width="0.5"/><path d="M-84.54397,420.3384l111.26075,-106.33769l107.66691,112.65149l-111.26074,106.3377z" fill="url(#color-8)" stroke="#000000" stroke-width="0.5"/><path d="M24.05963,404.31738l111.26074,-106.33769l107.66691,112.65148l-111.26074,106.3377z" fill="url(#color-9)" stroke="#000000" stroke-width="0.5"/><path d="M153.68426,448.35642l111.26075,-106.33769l107.66691,112.65148l-111.26074,106.3377z" fill="url(#color-10)" stroke="#000000" stroke-width="0.5"/><path d="M263.78937,417.32038l111.26075,-106.33769l107.66691,112.65148l-111.26073,106.3377z" fill="url(#color-11)" stroke="#000000" stroke-width="0.5"/><path d="M370.89147,434.3324l111.26075,-106.33769l107.66691,112.65148l-111.26074,106.3377z" fill="url(#color-12)" stroke="#000000" stroke-width="0.5"/><path d="M465.98156,410.80387l111.26075,-106.33769l107.66691,112.65148l-111.26074,106.3377z" fill="url(#color-13)" stroke="#000000" stroke-width="0.5"/><path d="M7.68769,81.65165v-12.01201h10.51051v12.01201z" fill="url(#color-14)" stroke="#000000" stroke-width="0.5"/><path d="M69.24925,68.13814v-37.53754h22.52252v37.53754z" fill="url(#color-15)" stroke="#000000" stroke-width="0.5"/><path d="M-8.82883,147.71772v-18.01802h15.01502v18.01802z" fill="url(#color-16)" stroke="#000000" stroke-width="0.5"/><path d="M52.73273,128.1982v-28.52853h25.52553v28.52853z" fill="url(#color-17)" stroke="#000000" stroke-width="0.5"/><path d="M24.2042,191.26126v-7.50751h6.00601v7.50751z" fill="url(#color-18)" stroke="#000000" stroke-width="0.5"/><path d="M136.81682,120.69069v-24.02402h19.51952v24.02402z" fill="url(#color-19)" stroke="#000000" stroke-width="0.5"/><path d="M80.56665,182.03176l5.2339,-17.24109l18.67785,5.67006l-5.2339,17.24109z" fill="url(#color-20)" stroke="#000000" stroke-width="0.5"/><path d="M40.72072,234.8048v-19.51952h13.51351v19.51952z" fill="url(#color-21)" stroke="#000000" stroke-width="0.5"/><path d="M3.18318,270.84084v-12.01201h7.50751v12.01201z" fill="url(#color-22)" stroke="#000000" stroke-width="0.5"/><path d="M57.23724,281.35135v-7.50751h6.00601v7.50751z" fill="url(#color-23)" stroke="#000000" stroke-width="0.5"/><path d="M111.29129,251.32132v-13.51351h7.50751v13.51351z" fill="url(#color-24)" stroke="#000000" stroke-width="0.5"/><path d="M168.34835,306.87688v-24.02402h19.51952v24.02402z" fill="url(#color-25)" stroke="#000000" stroke-width="0.5"/><path d="M145.82583,210.78078v-10.51051h9.00901v10.51051z" fill="url(#color-26)" stroke="#000000" stroke-width="0.5"/><path d="M160.84084,156.72673v-9.00901h3.003v9.00901z" fill="url(#color-27)" stroke="#000000" stroke-width="0.5"/><path d="M178.85886,197.26727v-10.51051h7.50751v10.51051z" fill="url(#color-28)" stroke="#000000" stroke-width="0.5"/><path d="M208.88889,141.71171v-18.01802h9.00901v18.01802z" fill="url(#color-29)" stroke="#000000" stroke-width="0.5"/><path d="M165.34535,65.13514v-27.02703h22.52252v27.02703z" fill="url(#color-30)" stroke="#000000" stroke-width="0.5"/><path d="M261.44144,122.19219v-12.01201h4.5045v12.01201z" fill="url(#color-31)" stroke="#000000" stroke-width="0.5"/><path d="M273.45345,66.63664v-4.5045h3.003v4.5045z" fill="url(#color-32)" stroke="#000000" stroke-width="0.5"/><path d="M202.88288,92.16216v-1.5015h1.5015v1.5015z" fill="url(#color-33)" stroke="#000000" stroke-width="0.5"/><path d="M252.43243,189.75976v-15.01502h9.00901v15.01502z" fill="url(#color-34)" stroke="#000000" stroke-width="0.5"/><path d="M196.87688,219.78979v-7.50751h7.50751v7.50751z" fill="url(#color-35)" stroke="#000000" stroke-width="0.5"/><path d="M274.95495,291.86186v-28.52853h25.52553v28.52853z" fill="url(#color-36)" stroke="#000000" stroke-width="0.5"/><path d="M223.9039,260.33033v-15.01502h9.00901v15.01502z" fill="url(#color-37)" stroke="#000000" stroke-width="0.5"/><path d="M324.5045,165.73574v-19.51952h16.51652v19.51952z" fill="url(#color-38)" stroke="#000000" stroke-width="0.5"/><path d="M271.95195,218.28829v-12.01201h15.01502v12.01201z" fill="url(#color-39)" stroke="#000000" stroke-width="0.5"/><path d="M307.98799,119.18919v-15.01502h18.01802v15.01502z" fill="url(#color-40)" stroke="#000000" stroke-width="0.5"/><path d="M362.75483,90.73362l-19.10426,-44.08676l37.1982,-16.11922l19.10426,44.08676z" fill="url(#color-41)" stroke="#000000" stroke-width="0.5"/><path d="M398.07808,189.75976v-24.02402h15.01502v24.02402z" fill="url(#color-42)" stroke="#000000" stroke-width="0.5"/><path d="M336.51652,237.80781v-21.02102h15.01502v21.02102z" fill="url(#color-43)" stroke="#000000" stroke-width="0.5"/><path d="M326.00601,281.35135v-13.51351h4.5045v13.51351z" fill="url(#color-44)" stroke="#000000" stroke-width="0.5"/><path d="M378.55856,285.85586v-12.01201h12.01201v12.01201z" fill="url(#color-45)" stroke="#000000" stroke-width="0.5"/><path d="M294.47447,333.9039v-16.51652h13.51351v16.51652z" fill="url(#color-46)" stroke="#000000" stroke-width="0.5"/><path d="M231.41141,327.8979v-12.01201h9.00901v12.01201z" fill="url(#color-47)" stroke="#000000" stroke-width="0.5"/><path d="M393.57357,123.69369v-16.51652h9.00901v16.51652z" fill="url(#color-48)" stroke="#000000" stroke-width="0.5"/><path d="M437.11712,53.12312v-13.51351h15.01502v13.51351z" fill="url(#color-49)" stroke="#000000" stroke-width="0.5"/><path d="M482.16216,53.12312v-18.01802h18.01802v18.01802z" fill="url(#color-50)" stroke="#000000" stroke-width="0.5"/><path d="M435.61562,119.18919v-7.50751h9.00901v7.50751z" fill="url(#color-51)" stroke="#000000" stroke-width="0.5"/><path d="M492.67267,114.68468v-27.02703h24.02402v27.02703z" fill="url(#color-52)" stroke="#000000" stroke-width="0.5"/><path d="M459.63964,189.75976v-12.01201h15.01502v12.01201z" fill="url(#color-53)" stroke="#000000" stroke-width="0.5"/><path d="M404.08408,237.80781v-27.02703h24.02402v27.02703z" fill="url(#color-54)" stroke="#000000" stroke-width="0.5"/><path d="M470.15015,266.33634v-7.50751h10.51051v7.50751z" fill="url(#color-55)" stroke="#000000" stroke-width="0.5"/><path d="M425.10511,290.36036v-3.003h6.00601v3.003z" fill="url(#color-56)" stroke="#000000" stroke-width="0.5"/><path d="M501.68168,320.39039v-10.51051h10.51051v10.51051z" fill="url(#color-57)" stroke="#000000" stroke-width="0.5"/><path d="M548.22823,260.33033v-9.00901h7.50751v9.00901z" fill="url(#color-58)" stroke="#000000" stroke-width="0.5"/><path d="M503.18318,191.26126v-19.51952h13.51351v19.51952z" fill="url(#color-59)" stroke="#000000" stroke-width="0.5"/><path d="M498.67868,258.82883v-13.51351h18.01802v13.51351z" fill="url(#color-60)" stroke="#000000" stroke-width="0.5"/><path d="M542.22222,138.70871v-15.01502h13.51351v15.01502z" fill="url(#color-61)" stroke="#000000" stroke-width="0.5"/><path d="M566.24625,93.66366v-21.02102h12.01201v21.02102z" fill="url(#color-62)" stroke="#000000" stroke-width="0.5"/><path d="M555.73574,216.78679v-18.01802h24.02402v18.01802z" fill="url(#color-63)" stroke="#000000" stroke-width="0.5"/><path d="M575.25526,288.85886v-13.51351h15.01502v13.51351z" fill="url(#color-64)" stroke="#000000" stroke-width="0.5"/><path d="M530.21021,302.37237v-10.51051h9.00901v10.51051z" fill="url(#color-65)" stroke="#000000" stroke-width="0.5"/><path d="M420.6006,321.89189v-9.00901h12.01201v9.00901z" fill="url(#color-66)" stroke="#000000" stroke-width="0.5"/><path d="M459.63964,311.38138v-16.51652h16.51652v16.51652z" fill="url(#color-67)" stroke="#000000" stroke-width="0.5"/><path d="M384.56456,248.31832v-4.5045h10.51051v4.5045z" fill="url(#color-68)" stroke="#000000" stroke-width="0.5"/><path d="M336.51652,191.26126v-12.01201h13.51351v12.01201z" fill="url(#color-69)" stroke="#000000" stroke-width="0.5"/><path d="M307.98799,63.63363v-21.02102h27.02703v21.02102z" fill="url(#color-70)" stroke="#000000" stroke-width="0.5"/><path d="M265.94595,156.72673v-9.00901h10.51051v9.00901z" fill="url(#color-71)" stroke="#000000" stroke-width="0.5"/><path d="M249.42943,99.66967v-19.51952h7.50751v19.51952z" fill="url(#color-72)" stroke="#000000" stroke-width="0.5"/><path d="M108.28829,72.64264v-3.003h13.51351v3.003z" fill="url(#color-73)" stroke="#000000" stroke-width="0.5"/><path d="M130.81081,26.0961v-15.01502h13.51351v15.01502z" fill="url(#color-74)" stroke="#000000" stroke-width="0.5"/><path d="M94.77477,134.2042v-12.01201h10.51051v12.01201z" fill="url(#color-75)" stroke="#000000" stroke-width="0.5"/><path d="M22.7027,47.11712v-1.5015h1.5015v1.5015z" fill="url(#color-76)" stroke="#000000" stroke-width="0.5"/><path d="M-13.33333,90.66066v-16.51652h9.00901v16.51652z" fill="url(#color-77)" stroke="#000000" stroke-width="0.5"/><path d="M19.6997,119.18919v-18.01802h18.01802v18.01802z" fill="url(#color-78)" stroke="#000000" stroke-width="0.5"/><path d="M-13.33333,201.77177v-10.51051h12.01201v10.51051z" fill="url(#color-79)" stroke="#000000" stroke-width="0.5"/><path d="M19.6997,293.36336v-4.5045h9.00901v4.5045z" fill="url(#color-80)" stroke="#000000" stroke-width="0.5"/><path d="M55.73574,332.4024v-19.51952h10.51051v19.51952z" fill="url(#color-81)" stroke="#000000" stroke-width="0.5"/><path d="M-154.57889,-28.90535l86.8372,-82.99484l84.03228,87.92266l-86.8372,82.99484z" fill="url(#color-82)" stroke="#000000" stroke-width="0.5"/><path d="M-175.64007,441.85492l111.26075,-106.33769l107.66691,112.65149l-111.26074,106.3377z" fill="url(#color-83)" stroke="#000000" stroke-width="0.5"/><path d="M8.877,117.774v-118.18018h183.23123v118.18018z" fill="url(#color-84)" stroke="#ffffff" stroke-width="2"/><text transform="translate(13.40052,75.062) scale(0.3647,0.3647)" font-size="40" xml:space="preserve" fill-opacity="0.1451" fill="#00ffc3" fill-rule="nonzero" stroke="#ffffff" stroke-width="1" stroke-linecap="butt" stroke-linejoin="miter" stroke-miterlimit="10" stroke-dasharray="" stroke-dashoffset="0" font-family="&quot;OpenSans-Light&quot;, Sans Serif" font-weight="normal" text-anchor="start" style="mix-blend-mode: normal"><tspan x="0" dy="0">aCtUalLy iT's iNsiDe*****</tspan><tspan x="0" dy="48px"> </tspan><tspan x="0" dy="48px">ok, this text box is dumb.</tspan></text><text transform="translate(14.40053,23.55418) scale(0.48447,0.48447)" font-size="40" xml:space="preserve" fill="#ffffff" fill-rule="nonzero" stroke="#ffffff" stroke-width="1" stroke-linecap="butt" stroke-linejoin="miter" stroke-miterlimit="10" stroke-dasharray="" stroke-dashoffset="0" font-family="&quot;OpenSans-Medium&quot;, Sans Serif" font-weight="normal" text-anchor="start" style="mix-blend-mode: normal"><tspan x="0" dy="0">Level 12 - HELP I'M</tspan><tspan x="0" dy="48px">UNDA DA WADUH</tspan></text></g></g></svg>