<svg version="1.1" xmlns="http://www.w3.org/2000/svg" xmlns:xlink="http://www.w3.org/1999/xlink" width="126.09328" height="63.39982" viewBox="0,0,126.09328,63.39982"><g transform="translate(-215.03361,-133.14071)"><g data-paper-data="{&quot;isPaintingLayer&quot;:true}" fill-rule="nonzero" stroke="none" stroke-width="none" stroke-linecap="butt" stroke-linejoin="miter" stroke-miterlimit="10" stroke-dasharray="" stroke-dashoffset="0" style="mix-blend-mode: normal"><path d="M215.03362,196.30308v-15.73379h15.73379v15.73379z" fill="#000000"/><path d="M230.78584,196.54054v-15.73379h15.73379v15.73379z" fill="#ffffff"/><path d="M246.49803,196.42229v-15.73378h15.73379v15.73378z" fill="#000000"/><path d="M262.25025,196.51689v-15.73378h15.73379v15.73378z" fill="#ffffff"/><path d="M215.03362,180.58879v-15.73379h15.73379v15.73379z" fill="#ffffff"/><path d="M230.78584,180.82625v-15.73378h15.73379v15.73378z" fill="#000000"/><path d="M246.49803,180.708v-15.73379h15.73379v15.73379z" fill="#ffffff"/><path d="M262.25025,180.80261v-15.73379h15.73379v15.73379z" fill="#000000"/><path d="M215.17647,164.58879v-15.73379h15.73379v15.73379z" fill="#000000"/><path d="M230.9287,164.82625v-15.73378h15.73379v15.73378z" fill="#ffffff"/><path d="M246.64088,164.708v-15.73379h15.73379v15.73379z" fill="#000000"/><path d="M262.39311,164.80261v-15.73379h15.73379v15.73379z" fill="#ffffff"/><path d="M215.17647,148.87451v-15.73379h15.73379v15.73379z" fill="#ffffff"/><path d="M230.9287,149.11197v-15.73379h15.73379v15.73379z" fill="#000000"/><path d="M246.64088,148.99372v-15.73379h15.73379v15.73379z" fill="#ffffff"/><path d="M262.39311,149.08832v-15.73379h15.73379v15.73379z" fill="#000000"/><path d="M278.03362,196.30308v-15.73379h15.73379v15.73379z" fill="#000000"/><path d="M293.78584,196.54054v-15.73379h15.73379v15.73379z" fill="#ffffff"/><path d="M309.49803,196.42229v-15.73378h15.73379v15.73378z" fill="#000000"/><path d="M325.25025,196.51689v-15.73378h15.73379v15.73378z" fill="#ffffff"/><path d="M278.03362,180.58879v-15.73379h15.73379v15.73379z" fill="#ffffff"/><path d="M293.78584,180.82625v-15.73378h15.73379v15.73378z" fill="#000000"/><path d="M309.49803,180.708v-15.73379h15.73379v15.73379z" fill="#ffffff"/><path d="M325.25025,180.80261v-15.73379h15.73379v15.73379z" fill="#000000"/><path d="M278.17647,164.58879v-15.73379h15.73379v15.73379z" fill="#000000"/><path d="M293.9287,164.82625v-15.73378h15.73379v15.73378z" fill="#ffffff"/><path d="M309.64088,164.708v-15.73379h15.73379v15.73379z" fill="#000000"/><path d="M325.39311,164.80261v-15.73379h15.73379v15.73379z" fill="#ffffff"/><path d="M278.17647,148.87451v-15.73379h15.73379v15.73379z" fill="#ffffff"/><path d="M293.9287,149.11197v-15.73379h15.73379v15.73379z" fill="#000000"/><path d="M309.64088,148.99372v-15.73379h15.73379v15.73379z" fill="#ffffff"/><path d="M325.39311,149.08832v-15.73379h15.73379v15.73379z" fill="#000000"/></g></g></svg>