<svg version="1.1" xmlns="http://www.w3.org/2000/svg" xmlns:xlink="http://www.w3.org/1999/xlink" width="590.11402" height="487.01501" viewBox="0,0,590.11402,487.01501"><defs><linearGradient x1="19.38439" y1="153.00002" x2="166.48186" y2="153.00002" gradientUnits="userSpaceOnUse" id="color-1"><stop offset="0" stop-color="#1e1e1e" stop-opacity="0.7098"/><stop offset="1" stop-color="#616161" stop-opacity="0.6549"/></linearGradient></defs><g transform="translate(23.63112,48.38311)"><g data-paper-data="{&quot;isPaintingLayer&quot;:true}" fill-rule="nonzero" stroke-linejoin="miter" stroke-miterlimit="10" stroke-dasharray="" stroke-dashoffset="0" style="mix-blend-mode: normal"><path d="M-6.80462,402.6569v-428.48751h573.03752v428.48751z" fill="#515151" stroke="#000000" stroke-width="0.5" stroke-linecap="butt"/><path d="M59.83888,134.20689l30.975,15.4875" fill="none" stroke="#000000" stroke-width="2" stroke-linecap="round"/><path d="M98.04138,135.23939l-20.65,9.2925l-7.2275,-19.6175" fill="none" stroke="#000000" stroke-width="2" stroke-linecap="round"/><path d="M167.21888,294.24439l-24.78,6.195" fill="none" stroke="#000000" stroke-width="2" stroke-linecap="round"/><path d="M162.05638,281.85439l-7.2275,13.4225l-13.4225,-10.325" fill="none" stroke="#000000" stroke-width="2" stroke-linecap="round"/><path d="M409.85639,295.27689l21.6825,11.3575" fill="none" stroke="#000000" stroke-width="2" stroke-linecap="round"/><path d="M433.60389,297.34189l-10.325,5.1625l-4.13,-13.4225" fill="none" stroke="#000000" stroke-width="2" stroke-linecap="round"/><path d="M385.07639,180.66939l-34.0725,8.26" fill="none" stroke="#000000" stroke-width="2" stroke-linecap="round"/><path d="M379.91389,161.05189l-11.3575,21.6825l-14.455,-12.39" fill="none" stroke="#000000" stroke-width="2" stroke-linecap="round"/><path d="M250.85139,126.97939l34.0725,3.0975" fill="none" stroke="#000000" stroke-width="2" stroke-linecap="round"/><path d="M283.89139,110.45939l-19.6175,16.52l-9.2925,-20.65" fill="none" stroke="#000000" stroke-width="2" stroke-linecap="round"/><path d="M439.79889,79.48439l-30.975,-1.0325" fill="none" stroke="#000000" stroke-width="2" stroke-linecap="round"/><path d="M438.76639,61.93189l-15.4875,16.52l-8.26,-20.65" fill="none" stroke="#000000" stroke-width="2" stroke-linecap="round"/><path d="M292.15139,258.10689l-20.65,1.0325" fill="none" stroke="#000000" stroke-width="2" stroke-linecap="round"/><path d="M297.31389,237.4569l-13.4225,18.585l-15.4875,-10.325" fill="none" stroke="#000000" stroke-width="2" stroke-linecap="round"/><path d="M155.86138,213.70939l40.2675,4.13" fill="none" stroke="#000000" stroke-width="2" stroke-linecap="round"/><path d="M198.19388,199.25439l-21.6825,15.4875l-6.195,-15.4875" fill="none" stroke="#000000" stroke-width="2" stroke-linecap="round"/><path d="M296.28139,316.95939l-26.845,15.4875" fill="none" stroke="#000000" stroke-width="2" stroke-linecap="round"/><path d="M283.89139,305.60189v15.4875l-17.5525,-3.0975" fill="none" stroke="#000000" stroke-width="2" stroke-linecap="round"/><path d="M454.25389,243.6519l21.6825,5.1625" fill="none" stroke="#000000" stroke-width="2" stroke-linecap="round"/><path d="M490.39139,225.06689l-27.8775,19.6175v-19.6175" fill="none" stroke="#000000" stroke-width="2" stroke-linecap="round"/><path d="M379.91389,268.43189l34.0725,-13.4225" fill="none" stroke="#000000" stroke-width="2" stroke-linecap="round"/><path d="M395.40139,232.29439v25.8125l-17.5525,-12.39" fill="none" stroke="#000000" stroke-width="2" stroke-linecap="round"/><path d="M457.35139,149.69439l40.2675,1.0325" fill="none" stroke="#000000" stroke-width="2" stroke-linecap="round"/><path d="M488.32639,131.10939l-8.26,15.4875l-15.4875,-25.8125" fill="none" stroke="#000000" stroke-width="2" stroke-linecap="round"/><path d="M70.16388,278.75689l41.3,-10.325" fill="none" stroke="#000000" stroke-width="2" stroke-linecap="round"/><path d="M106.30138,243.65188l-13.4225,22.715l-17.5525,-10.325" fill="none" stroke="#000000" stroke-width="2" stroke-linecap="round"/><path d="M95.97638,273.59439l-5.1625,-7.2275" fill="none" stroke="#000000" stroke-width="2" stroke-linecap="round"/><path d="M173.41388,80.51689l-36.1375,3.0975" fill="none" stroke="#000000" stroke-width="2" stroke-linecap="round"/><path d="M178.57638,67.09439l-18.585,13.4225l-15.4875,-10.325" fill="none" stroke="#000000" stroke-width="2" stroke-linecap="round"/><path d="M332.41889,21.66439l23.7475,7.2275" fill="none" stroke="#000000" stroke-width="2" stroke-linecap="round"/><path d="M358.23139,11.33939l-17.5525,14.455v-12.39" fill="none" stroke="#000000" stroke-width="2" stroke-linecap="round"/><path d="M47.44888,415.0469l-9.2925,-445.00751" fill="none" stroke="#3d3d3d" stroke-width="10" stroke-linecap="round"/><path d="M100.10638,-33.05811l25.8125,443.97501" fill="none" stroke="#3d3d3d" stroke-width="10" stroke-linecap="round"/><path d="M212.64888,390.2669l-8.26,-426.42251" fill="none" stroke="#3d3d3d" stroke-width="10" stroke-linecap="round"/><path d="M265.30639,388.2019l-9.2925,-422.29251" fill="none" stroke="#3d3d3d" stroke-width="10" stroke-linecap="round"/><path d="M325.19139,-43.38311l6.195,461.52751" fill="none" stroke="#3d3d3d" stroke-width="10" stroke-linecap="round"/><path d="M383.01139,-24.79811l6.195,458.43001" fill="none" stroke="#3d3d3d" stroke-width="10" stroke-linecap="round"/><path d="M429.47389,-30.99311l20.65,457.39751" fill="none" stroke="#3d3d3d" stroke-width="10" stroke-linecap="round"/><path d="M481.09889,-38.22061l12.39,467.72251" fill="none" stroke="#3d3d3d" stroke-width="10" stroke-linecap="round"/><path d="M550.2764,429.5019l-10.325,-459.46251" fill="none" stroke="#3d3d3d" stroke-width="10" stroke-linecap="round"/><path d="M-18.63112,-27.89561l19.6175,396.48001" fill="none" stroke="#3d3d3d" stroke-width="10" stroke-linecap="round"/><path d="M19.38439,284.09009v-262.18018h147.09747v262.18018z" fill="url(#color-1)" stroke="#ffffff" stroke-width="2" stroke-linecap="butt"/><text transform="translate(22.89817,48.02726) scale(0.61028,0.61028)" font-size="40" xml:space="preserve" fill="#ffffff" fill-rule="nonzero" stroke="#ffffff" stroke-width="1" stroke-linecap="butt" stroke-linejoin="miter" stroke-miterlimit="10" stroke-dasharray="" stroke-dashoffset="0" font-family="&quot;OpenSans-Medium&quot;, Sans Serif" font-weight="normal" text-anchor="start" style="mix-blend-mode: normal"><tspan x="0" dy="0">Level 06 - </tspan><tspan x="0" dy="48px">Tricky Trials</tspan></text><text transform="translate(23.53431,106.85791) scale(0.43339,0.43339)" font-size="40" xml:space="preserve" fill-opacity="0.1451" fill="#00ffc3" fill-rule="nonzero" stroke="#ffffff" stroke-width="1" stroke-linecap="butt" stroke-linejoin="miter" stroke-miterlimit="10" stroke-dasharray="" stroke-dashoffset="0" font-family="&quot;OpenSans-Light&quot;, Sans Serif" font-weight="normal" text-anchor="start" style="mix-blend-mode: normal"><tspan x="0" dy="0">Press the e key </tspan><tspan x="0" dy="48px">on your keyboard</tspan><tspan x="0" dy="48px">or press the </tspan><tspan x="0" dy="48px">action (switch) </tspan><tspan x="0" dy="48px">button when </tspan><tspan x="0" dy="48px">your character </tspan><tspan x="0" dy="48px">touches the </tspan><tspan x="0" dy="48px">switch to toggle </tspan><tspan x="0" dy="48px">the switch.</tspan></text></g></g></svg>