<svg version="1.1" xmlns="http://www.w3.org/2000/svg" xmlns:xlink="http://www.w3.org/1999/xlink" width="643" height="114" viewBox="0,0,643,114"><defs><linearGradient x1="320.38889" y1="247" x2="320.38889" y2="361" gradientUnits="userSpaceOnUse" id="color-1"><stop offset="0" stop-color="#000000" stop-opacity="0.65882"/><stop offset="1" stop-color="#000000" stop-opacity="0.12941"/></linearGradient></defs><g transform="translate(1.11111,-247)"><g data-paper-data="{&quot;isPaintingLayer&quot;:true}" fill-rule="nonzero" stroke="none" stroke-width="0" stroke-linecap="butt" stroke-linejoin="miter" stroke-miterlimit="10" stroke-dasharray="" stroke-dashoffset="0" style="mix-blend-mode: normal"><path d="M-1.11111,361v-114h643v114z" fill="url(#color-1)"/><path d="M7.97499,295.13958v-38h38v38z" fill-opacity="0.65882" fill="#000000"/><path d="M51.47499,295.13958v-38h38v38z" fill-opacity="0.65882" fill="#000000"/><path d="M95.97499,295.25069v-38h38v38z" fill-opacity="0.65882" fill="#000000"/><path d="M139.47499,295.25069v-38h38v38z" fill-opacity="0.65882" fill="#000000"/><path d="M183.47499,295.19513v-38h38v38z" fill-opacity="0.65882" fill="#000000"/><path d="M226.97499,295.30625v-38h38v38z" fill-opacity="0.65882" fill="#000000"/><path d="M271.47499,295.30625v-38h38v38z" fill-opacity="0.65882" fill="#000000"/><path d="M314.97499,295.30625v-38h38v38z" fill-opacity="0.65882" fill="#000000"/><path d="M357.97499,295.25069v-38h38v38z" fill-opacity="0.65882" fill="#000000"/><path d="M401.47499,295.3618v-38h38v38z" fill-opacity="0.65882" fill="#000000"/><path d="M445.97499,295.3618v-38h38v38z" fill-opacity="0.65882" fill="#000000"/><path d="M489.47499,295.3618v-38h38v38z" fill-opacity="0.65882" fill="#000000"/><path d="M533.47499,295.30625v-38h38v38z" fill-opacity="0.65882" fill="#000000"/><path d="M576.97499,295.30625v-38h38v38z" fill-opacity="0.65882" fill="#000000"/><path d="M7.97499,336.73958v-38h38v38z" fill-opacity="0.65882" fill="#000000"/><path d="M51.47499,336.73958v-38h38v38z" fill-opacity="0.65882" fill="#000000"/><path d="M95.97499,336.85069v-38h38v38z" fill-opacity="0.65882" fill="#000000"/><path d="M139.47499,336.85069v-38h38v38z" fill-opacity="0.65882" fill="#000000"/><path d="M183.47499,336.79513v-38h38v38z" fill-opacity="0.65882" fill="#000000"/><path d="M226.97499,336.90624v-38h38v38z" fill-opacity="0.65882" fill="#000000"/><path d="M271.47499,336.90624v-38h38v38z" fill-opacity="0.65882" fill="#000000"/><path d="M314.97499,336.90624v-38h38v38z" fill-opacity="0.65882" fill="#000000"/><path d="M357.97499,336.85069v-38h38v38z" fill-opacity="0.65882" fill="#000000"/><path d="M401.47499,336.9618v-38h38v38z" fill-opacity="0.65882" fill="#000000"/></g></g></svg>