<svg version="1.1" xmlns="http://www.w3.org/2000/svg" xmlns:xlink="http://www.w3.org/1999/xlink" width="860.91062" height="851.97532" viewBox="0,0,860.91062,851.97532"><defs><radialGradient cx="286.00467" cy="189.1064" r="301.27327" gradientUnits="userSpaceOnUse" id="color-1"><stop offset="0" stop-color="#000000"/><stop offset="1" stop-color="#001c35"/></radialGradient><radialGradient cx="158.77043" cy="388.62827" r="241.17118" gradientUnits="userSpaceOnUse" id="color-2"><stop offset="0" stop-color="#090909"/><stop offset="1" stop-color="#090909" stop-opacity="0"/></radialGradient><radialGradient cx="309.92659" cy="18.9953" r="241.17118" gradientUnits="userSpaceOnUse" id="color-3"><stop offset="0" stop-color="#000000" stop-opacity="0.66667"/><stop offset="1" stop-color="#000000" stop-opacity="0"/></radialGradient><radialGradient cx="17.88672" cy="146.31446" r="0.00125" gradientUnits="userSpaceOnUse" id="color-4"><stop offset="0" stop-color="#727272"/><stop offset="1" stop-color="#0e0e0e"/></radialGradient><radialGradient cx="140.01067" cy="281.51783" r="204.38439" gradientUnits="userSpaceOnUse" id="color-5"><stop offset="0" stop-color="#000000" stop-opacity="0.49804"/><stop offset="1" stop-color="#000000" stop-opacity="0"/></radialGradient><radialGradient cx="47.41909" cy="176.90821" r="115.7958" gradientUnits="userSpaceOnUse" id="color-6"><stop offset="0" stop-color="#ffffff" stop-opacity="0.26667"/><stop offset="1" stop-color="#ffffff" stop-opacity="0"/></radialGradient><radialGradient cx="486.35301" cy="367.86251" r="174.35436" gradientUnits="userSpaceOnUse" id="color-7"><stop offset="0" stop-color="#ffffff" stop-opacity="0.58039"/><stop offset="1" stop-color="#ffffff" stop-opacity="0"/></radialGradient><radialGradient cx="313.42509" cy="139.61092" r="53.48349" gradientUnits="userSpaceOnUse" id="color-8"><stop offset="0" stop-color="#ffffff" stop-opacity="0.07451"/><stop offset="1" stop-color="#ffffff" stop-opacity="0"/></radialGradient><radialGradient cx="483.59026" cy="81.54785" r="53.48349" gradientUnits="userSpaceOnUse" id="color-9"><stop offset="0" stop-color="#ffffff" stop-opacity="0.76471"/><stop offset="1" stop-color="#ffffff" stop-opacity="0"/></radialGradient><radialGradient cx="110.21188" cy="59.52083" r="74.5045" gradientUnits="userSpaceOnUse" id="color-10"><stop offset="0" stop-color="#ffffff" stop-opacity="0.26667"/><stop offset="1" stop-color="#ffffff" stop-opacity="0"/></radialGradient><radialGradient cx="211.06774" cy="160.37669" r="33.21322" gradientUnits="userSpaceOnUse" id="color-11"><stop offset="0" stop-color="#ffffff" stop-opacity="0.07451"/><stop offset="1" stop-color="#ffffff" stop-opacity="0"/></radialGradient><radialGradient cx="198.04972" cy="294.50582" r="33.21322" gradientUnits="userSpaceOnUse" id="color-12"><stop offset="0" stop-color="#ffffff" stop-opacity="0.07451"/><stop offset="1" stop-color="#ffffff" stop-opacity="0"/></radialGradient><radialGradient cx="401.24792" cy="50.25658" r="33.21321" gradientUnits="userSpaceOnUse" id="color-13"><stop offset="0" stop-color="#ffffff" stop-opacity="0.07451"/><stop offset="1" stop-color="#ffffff" stop-opacity="0"/></radialGradient><linearGradient x1="24.86949" y1="150.66888" x2="256.10072" y2="150.66888" gradientUnits="userSpaceOnUse" id="color-14"><stop offset="0" stop-color="#004f3d" stop-opacity="0.24314"/><stop offset="1" stop-color="#000000" stop-opacity="0.28235"/></linearGradient></defs><g transform="translate(82.40073,222.17588)"><g data-paper-data="{&quot;isPaintingLayer&quot;:true}" fill-rule="nonzero" stroke-linecap="butt" stroke-linejoin="miter" stroke-miterlimit="10" stroke-dasharray="" stroke-dashoffset="0" style="mix-blend-mode: normal"><path d="M-15.2686,410.1064v-442h602.54655v442z" fill="url(#color-1)" stroke="none" stroke-width="0"/><path d="M-82.40073,388.62827c0,-133.19514 107.97602,-241.17118 241.17117,-241.17118c133.19514,0 241.17118,107.97603 241.17118,241.17118c0,133.19514 -107.97604,241.17117 -241.17118,241.17117c-133.19514,0 -241.17117,-107.97603 -241.17117,-241.17117z" fill="url(#color-2)" stroke="none" stroke-width="0"/><path d="M68.75543,18.9953c0,-133.19514 107.97602,-241.17118 241.17117,-241.17118c133.19514,0 241.17118,107.97604 241.17118,241.17118c0,133.19515 -107.97604,241.17117 -241.17118,241.17117c-133.19514,0 -241.17117,-107.97602 -241.17117,-241.17117z" fill="url(#color-3)" stroke="none" stroke-width="0"/><path d="M-44.22656,292.62892z" fill="url(#color-4)" stroke="none" stroke-width="0"/><path d="M-64.37371,281.51783c0,-112.87836 91.50602,-204.38439 204.38438,-204.38439c112.87837,0 204.38439,91.50603 204.38439,204.38439c0,112.87836 -91.50602,204.38438 -204.38439,204.38438c-112.87836,0 -204.38438,-91.50602 -204.38438,-204.38438z" fill="url(#color-5)" stroke="none" stroke-width="0"/><path d="M-68.37671,176.90821c0,-63.95224 51.84355,-115.7958 115.7958,-115.7958c63.95225,0 115.7958,51.84356 115.7958,115.7958c0,63.95224 -51.84356,115.79579 -115.7958,115.79579c-63.95225,0 -115.79579,-51.84355 -115.79579,-115.79579z" fill="url(#color-6)" stroke="none" stroke-width="0"/><path d="M311.99866,367.86251c0,-96.29324 78.06111,-174.35436 174.35435,-174.35436c96.29324,0 174.35436,78.06112 174.35436,174.35436c0,96.29324 -78.06112,174.35435 -174.35436,174.35435c-96.29324,0 -174.35435,-78.06111 -174.35435,-174.35435z" fill="url(#color-7)" stroke="none" stroke-width="0"/><path d="M259.94161,139.61092c0,-29.53811 23.94537,-53.48348 53.48348,-53.48348c29.53811,0 53.48349,23.94538 53.48349,53.48349c0,29.53811 -23.94538,53.48349 -53.48348,53.48349c-29.53811,0 -53.48348,-23.94538 -53.48348,-53.48348z" fill="url(#color-8)" stroke="none" stroke-width="0"/><path d="M430.10677,81.54785c0,-29.53811 23.94538,-53.48348 53.48349,-53.48348c29.53811,0 53.48349,23.94538 53.48349,53.48349c0,29.53811 -23.94538,53.48348 -53.48348,53.48348c-29.53811,0 -53.48348,-23.94537 -53.48348,-53.48348z" fill="url(#color-9)" stroke="none" stroke-width="0"/><path d="M35.70738,59.52083c0,-41.1477 33.35681,-74.50451 74.5045,-74.50451c41.1477,0 74.5045,33.35681 74.5045,74.50451c0,41.1477 -33.3568,74.50451 -74.5045,74.50451c-41.1477,0 -74.5045,-33.35681 -74.5045,-74.50451z" fill="url(#color-10)" stroke="none" stroke-width="0"/><path d="M177.85453,160.37669c0,-18.34315 14.87006,-33.21321 33.21321,-33.21321c18.34315,0 33.21322,14.87007 33.21322,33.21322c0,18.34315 -14.87007,33.21322 -33.21321,33.21322c-18.34315,0 -33.21321,-14.87007 -33.21321,-33.21321z" fill="url(#color-11)" stroke="none" stroke-width="0"/><path d="M164.83651,294.50582c0,-18.34315 14.87006,-33.21322 33.21321,-33.21322c18.34315,0 33.21322,14.87007 33.21322,33.21322c0,18.34315 -14.87007,33.21321 -33.21321,33.21321c-18.34315,0 -33.21321,-14.87006 -33.21321,-33.21321z" fill="url(#color-12)" stroke="none" stroke-width="0"/><path d="M368.03471,50.25658c0,-18.34315 14.87006,-33.21321 33.21321,-33.21321c18.34315,0 33.21321,14.87007 33.21321,33.21322c0,18.34315 -14.87007,33.21321 -33.21321,33.21321c-18.34315,0 -33.21321,-14.87007 -33.21321,-33.21321z" fill="url(#color-13)" stroke="none" stroke-width="0"/><path d="M24.86949,209.75896v-118.18018h231.23123v118.18018z" fill="url(#color-14)" stroke-opacity="0.24314" stroke="#00f2ff" stroke-width="2"/><text transform="translate(30.39302,115.35278) scale(0.5,0.5)" font-size="40" xml:space="preserve" fill-opacity="0.22745" fill="#00ffc3" fill-rule="nonzero" stroke="none" stroke-width="1" stroke-linecap="butt" stroke-linejoin="miter" stroke-miterlimit="10" stroke-dasharray="" stroke-dashoffset="0" font-family="&quot;OpenSans-Medium&quot;, Sans Serif" font-weight="normal" text-anchor="start" style="mix-blend-mode: normal"><tspan x="0" dy="0">Level 03 - A little maze</tspan></text><text transform="translate(31.39301,135.71798) scale(0.42501,0.42501)" font-size="40" xml:space="preserve" fill-opacity="0.1451" fill="#00ffc3" fill-rule="nonzero" stroke="none" stroke-width="1" stroke-linecap="butt" stroke-linejoin="miter" stroke-miterlimit="10" stroke-dasharray="" stroke-dashoffset="0" font-family="&quot;OpenSans-Light&quot;, Sans Serif" font-weight="normal" text-anchor="start" style="mix-blend-mode: normal"><tspan x="0" dy="0">Don't get lost!</tspan></text><path d="M358.42236,202.42475v-52.39416h230.08753v52.39416z" fill-opacity="0.52549" fill="#ffffff" stroke="none" stroke-width="0"/><path d="M254.42236,364.42474v-16.3335h344.08753v16.3335z" fill-opacity="0.52549" fill="#ffffff" stroke="none" stroke-width="0"/><path d="M447.42236,124.42475v-66.39416h230.08753v66.39416z" fill-opacity="0.52549" fill="#ffffff" stroke="none" stroke-width="0"/><path d="M506.42236,394.42475v-52.39416h106.08752v52.39416z" fill-opacity="0.52549" fill="#ffffff" stroke="none" stroke-width="0"/><path d="M181.42236,41.42475v-48.39416h458.95921v48.39416z" fill-opacity="0.52549" fill="#ffffff" stroke="none" stroke-width="0"/><path d="M505.42236,-2.57525v-19.39416h125.95921v19.39416z" fill-opacity="0.52549" fill="#ffffff" stroke="none" stroke-width="0"/><path d="M434.42236,276.42474v-16.3335h344.08753v16.3335z" fill-opacity="0.52549" fill="#ffffff" stroke="none" stroke-width="0"/></g></g></svg>