<svg version="1.1" xmlns="http://www.w3.org/2000/svg" xmlns:xlink="http://www.w3.org/1999/xlink" width="843" height="566.56483" viewBox="0,0,843,566.56483"><defs><linearGradient x1="350.75842" y1="-23.37107" x2="350.75842" y2="408.62893" gradientUnits="userSpaceOnUse" id="color-1"><stop offset="0" stop-color="#9d9d9d"/><stop offset="1" stop-color="#1f1f1f"/></linearGradient><linearGradient x1="614.65549" y1="151.33763" x2="614.65549" y2="155.84213" gradientUnits="userSpaceOnUse" id="color-2"><stop offset="0" stop-color="#9d9d9d"/><stop offset="1" stop-color="#1f1f1f"/></linearGradient><linearGradient x1="41.86949" y1="68.66889" x2="273.10072" y2="68.66889" gradientUnits="userSpaceOnUse" id="color-3"><stop offset="0" stop-color="#4f4f4f" stop-opacity="0.7098"/><stop offset="1" stop-color="#ffffff" stop-opacity="0.6549"/></linearGradient></defs><g transform="translate(38.76659,45.06483)"><g data-paper-data="{&quot;isPaintingLayer&quot;:true}" fill-rule="nonzero" stroke-linecap="butt" stroke-linejoin="miter" stroke-miterlimit="10" stroke-dasharray="" stroke-dashoffset="0" style="mix-blend-mode: normal"><path d="M-3.24158,408.62893v-432h708v432z" fill="url(#color-1)" stroke="#6c6c6c" stroke-width="0.5"/><path d="M612.40324,155.84213v-4.5045h4.5045v4.5045z" fill="url(#color-2)" stroke="#6c6c6c" stroke-width="0.5"/><path d="M344.73341,307.93517v-353h65v353z" fill="#000000" stroke="none" stroke-width="0"/><path d="M353.73341,176.93517v-86h360v86z" fill="#000000" stroke="none" stroke-width="0"/><path d="M3.73341,257.93517v-86h195v86z" fill="#000000" stroke="none" stroke-width="0"/><path d="M98.23341,192.43517h-86v-233h86z" fill="#000000" stroke="none" stroke-width="0"/><path d="M221.23341,222.43517h-86v-79h86z" fill-opacity="0.40392" fill="#000000" stroke="none" stroke-width="0"/><path d="M240.23341,239.43517h-86v-79h86z" fill-opacity="0.40392" fill="#000000" stroke="none" stroke-width="0"/><path d="M267.23341,263.43517h-86v-79h86z" fill-opacity="0.40392" fill="#000000" stroke="none" stroke-width="0"/><path d="M293.23341,285.43517h-86v-79h86z" fill-opacity="0.40392" fill="#000000" stroke="none" stroke-width="0"/><path d="M317.23341,308.43517h-86v-79h86z" fill-opacity="0.40392" fill="#000000" stroke="none" stroke-width="0"/><path d="M336.23341,325.43517h-86v-79h86z" fill-opacity="0.40392" fill="#000000" stroke="none" stroke-width="0"/><path d="M363.23341,349.43517h-86v-79h86z" fill-opacity="0.40392" fill="#000000" stroke="none" stroke-width="0"/><path d="M389.23341,371.43517h-86v-79h86z" fill-opacity="0.40392" fill="#000000" stroke="none" stroke-width="0"/><path d="M411.23341,407.43517h-86v-79h86z" fill-opacity="0.40392" fill="#000000" stroke="none" stroke-width="0"/><path d="M430.23341,424.43517h-86v-79h86z" fill-opacity="0.40392" fill="#000000" stroke="none" stroke-width="0"/><path d="M457.23341,448.43517h-86v-79h86z" fill-opacity="0.40392" fill="#000000" stroke="none" stroke-width="0"/><path d="M483.23341,470.43517h-86v-79h86z" fill-opacity="0.40392" fill="#000000" stroke="none" stroke-width="0"/><path d="M265.23341,47.43517h-86v-79h86z" fill-opacity="0.40392" fill="#000000" stroke="none" stroke-width="0"/><path d="M284.23341,64.43517h-86v-79h86z" fill-opacity="0.40392" fill="#000000" stroke="none" stroke-width="0"/><path d="M311.23341,88.43517h-86v-79h86z" fill-opacity="0.40392" fill="#000000" stroke="none" stroke-width="0"/><path d="M337.23341,110.43517h-86v-79h86z" fill-opacity="0.40392" fill="#000000" stroke="none" stroke-width="0"/><path d="M361.23341,133.43517h-86v-79h86z" fill-opacity="0.40392" fill="#000000" stroke="none" stroke-width="0"/><path d="M380.23341,150.43517h-86v-79h86z" fill-opacity="0.40392" fill="#000000" stroke="none" stroke-width="0"/><path d="M407.23341,174.43517h-86v-79h86z" fill-opacity="0.40392" fill="#000000" stroke="none" stroke-width="0"/><path d="M433.23341,196.43517h-86v-79h86z" fill-opacity="0.40392" fill="#000000" stroke="none" stroke-width="0"/><path d="M455.23341,232.43517h-86v-79h86z" fill-opacity="0.40392" fill="#000000" stroke="none" stroke-width="0"/><path d="M474.23341,249.43517h-86v-79h86z" fill-opacity="0.40392" fill="#000000" stroke="none" stroke-width="0"/><path d="M501.23341,273.43517h-86v-79h86z" fill-opacity="0.40392" fill="#000000" stroke="none" stroke-width="0"/><path d="M527.23341,295.43517h-86v-79h86z" fill-opacity="0.40392" fill="#000000" stroke="none" stroke-width="0"/><path d="M542.23341,76.5h-86v-79h86z" fill-opacity="0.40392" fill="#000000" stroke="none" stroke-width="0"/><path d="M561.23341,93.5h-86v-79h86z" fill-opacity="0.40392" fill="#000000" stroke="none" stroke-width="0"/><path d="M588.23341,117.5h-86v-79h86z" fill-opacity="0.40392" fill="#000000" stroke="none" stroke-width="0"/><path d="M614.23341,139.5h-86v-79h86z" fill-opacity="0.40392" fill="#000000" stroke="none" stroke-width="0"/><path d="M638.23341,162.5h-86v-79h86z" fill-opacity="0.40392" fill="#000000" stroke="none" stroke-width="0"/><path d="M657.23341,179.5h-86v-79h86z" fill-opacity="0.40392" fill="#000000" stroke="none" stroke-width="0"/><path d="M684.23341,203.5h-86v-79h86z" fill-opacity="0.40392" fill="#000000" stroke="none" stroke-width="0"/><path d="M710.23341,225.5h-86v-79h86z" fill-opacity="0.40392" fill="#000000" stroke="none" stroke-width="0"/><path d="M732.23341,261.5h-86v-79h86z" fill-opacity="0.40392" fill="#000000" stroke="none" stroke-width="0"/><path d="M751.23341,278.5h-86v-79h86z" fill-opacity="0.40392" fill="#000000" stroke="none" stroke-width="0"/><path d="M778.23341,302.5h-86v-79h86z" fill-opacity="0.40392" fill="#000000" stroke="none" stroke-width="0"/><path d="M804.23341,324.5h-86v-79h86z" fill-opacity="0.40392" fill="#000000" stroke="none" stroke-width="0"/><path d="M47.23341,273.5h-86v-79h86z" fill-opacity="0.40392" fill="#000000" stroke="none" stroke-width="0"/><path d="M66.23341,290.5h-86v-79h86z" fill-opacity="0.40392" fill="#000000" stroke="none" stroke-width="0"/><path d="M93.23341,314.5h-86v-79h86z" fill-opacity="0.40392" fill="#000000" stroke="none" stroke-width="0"/><path d="M119.23341,336.5h-86v-79h86z" fill-opacity="0.40392" fill="#000000" stroke="none" stroke-width="0"/><path d="M143.23341,359.5h-86v-79h86z" fill-opacity="0.40392" fill="#000000" stroke="none" stroke-width="0"/><path d="M162.23341,376.5h-86v-79h86z" fill-opacity="0.40392" fill="#000000" stroke="none" stroke-width="0"/><path d="M189.23341,400.5h-86v-79h86z" fill-opacity="0.40392" fill="#000000" stroke="none" stroke-width="0"/><path d="M215.23341,422.5h-86v-79h86z" fill-opacity="0.40392" fill="#000000" stroke="none" stroke-width="0"/><path d="M237.23341,458.5h-86v-79h86z" fill-opacity="0.40392" fill="#000000" stroke="none" stroke-width="0"/><path d="M256.23341,475.5h-86v-79h86z" fill-opacity="0.40392" fill="#000000" stroke="none" stroke-width="0"/><path d="M283.23341,499.5h-86v-79h86z" fill-opacity="0.40392" fill="#000000" stroke="none" stroke-width="0"/><path d="M309.23341,521.5h-86v-79h86z" fill-opacity="0.40392" fill="#000000" stroke="none" stroke-width="0"/><path d="M41.86949,127.75897v-118.18018h231.23123v118.18018z" fill="url(#color-3)" stroke="#ffffff" stroke-width="2"/><text transform="translate(47.39302,33.35278) scale(0.5,0.5)" font-size="40" xml:space="preserve" fill="#ffffff" fill-rule="nonzero" stroke="#ffffff" stroke-width="1" stroke-linecap="butt" stroke-linejoin="miter" stroke-miterlimit="10" stroke-dasharray="" stroke-dashoffset="0" font-family="&quot;OpenSans-Medium&quot;, Sans Serif" font-weight="normal" text-anchor="start" style="mix-blend-mode: normal"><tspan x="0" dy="0">Level 04 - A faint light</tspan></text><text transform="translate(48.39301,53.71799) scale(0.42501,0.42501)" font-size="40" xml:space="preserve" fill-opacity="0.1451" fill="#00ffc3" fill-rule="nonzero" stroke="#ffffff" stroke-width="1" stroke-linecap="butt" stroke-linejoin="miter" stroke-miterlimit="10" stroke-dasharray="" stroke-dashoffset="0" font-family="&quot;OpenSans-Light&quot;, Sans Serif" font-weight="normal" text-anchor="start" style="mix-blend-mode: normal"><tspan x="0" dy="0">between the shadows.</tspan></text></g></g></svg>