<svg version="1.1" xmlns="http://www.w3.org/2000/svg" xmlns:xlink="http://www.w3.org/1999/xlink" width="42.66792" height="42.66792" viewBox="0,0,42.66792,42.66792"><g transform="translate(-303.66604,-163.66604)"><g data-paper-data="{&quot;isPaintingLayer&quot;:true}" fill-rule="nonzero" stroke="#000000" stroke-linejoin="miter" stroke-miterlimit="10" stroke-dasharray="" stroke-dashoffset="0" style="mix-blend-mode: normal"><g stroke-width="3"><path d="M308.14818,202.09695v-34.43273h33.21067v34.43273z" fill="#0567ff" stroke-linecap="butt"/><path d="M315.86615,194.09498v-18.42878c0,0 6.61179,3.24114 9.57042,3.24114c2.96625,0 8.2043,-3.24114 8.2043,-3.24114v18.42878z" fill="#2ec9ff" stroke-linecap="butt"/><path d="M342.47889,175.58886c0,5.08138 -7.7204,9.20064 -17.244,9.20064c-9.5236,0 -17.24401,-4.11926 -17.24401,-9.20064c0,-2.59059 -0.61523,-5.45388 2.61401,-7.12598c3.10483,-1.60768 9.96173,-2.07468 14.63,-2.07468c4.77126,0 11.81267,0.19749 14.93468,1.86832c3.10962,1.6642 2.30932,4.79669 2.30932,7.33232z" fill="#9a9a9a" stroke-linecap="butt"/><path d="M312.73046,170.57032l0.10084,6.79593" fill="none" stroke-linecap="round"/><path d="M318.68015,178.72545l-0.30253,-8.67789" fill="none" stroke-linecap="round"/><path d="M325.43657,170.36122l0.5042,9.40976" fill="none" stroke-linecap="round"/><path d="M331.89046,169.7339l0.10085,8.99155" fill="none" stroke-linecap="round"/><path d="M337.03341,170.46578l0.30253,6.58682" fill="none" stroke-linecap="round"/><path d="M309.80604,172.87049c0,3.29135 -0.90297,5.95951 -2.01684,5.95951c-1.11387,0 -2.01684,-2.66817 -2.01684,-5.95951c0,-3.29135 0.90298,-5.95951 2.01684,-5.95951c1.11387,0 2.01684,2.66816 2.01684,5.95951z" fill="#9a9a9a" stroke-linecap="butt"/><path d="M344.35837,173.5645c0,3.29135 -0.92555,5.95951 -2.06726,5.95951c-1.14171,0 -2.06727,-2.66817 -2.06727,-5.95951c0,-3.29135 0.92555,-5.95951 2.06727,-5.95951c1.14171,0 2.06726,2.66817 2.06726,5.95951z" fill="#9a9a9a" stroke-linecap="butt"/><path d="M341.97468,192.5787c0,1.61518 1.83478,9.48674 -0.18416,10.70126c-3.06958,1.84656 -11.0795,0.64273 -16.7069,0.64273c-5.46047,0 -13.44188,0.54214 -16.52956,-1.21199c-2.18732,-1.24263 -0.15981,-8.02576 -0.15981,-9.71377c0,-4.07088 8.26828,2.03878 17.59695,2.03878c9.32867,0 15.98347,-6.52787 15.98347,-2.45699z" fill="#9a9a9a" stroke-linecap="butt"/><path d="M341.47047,192.84007l-17.14316,6.79593l-15.02548,-7.63235" fill="none" stroke-linecap="round"/><path d="M323.72224,200.36788v1.98651" fill="none" stroke-linecap="round"/><path d="M313.33551,197.6495l0.30252,2.40471" fill="none" stroke-linecap="round"/><path d="M337.13425,197.6495l0.20169,3.5548" fill="none" stroke-linecap="round"/><path d="M331.78962,201.72707l0.10084,-2.40471" fill="none" stroke-linecap="round"/><path d="M318.27678,199.2178l0.10084,2.19561" fill="none" stroke-linecap="round"/></g><path d="M303.69104,206.30896v-42.61792h42.61792v42.61792z" fill="none" stroke-width="0.05" stroke-linecap="butt"/></g></g></svg>