<svg version="1.1" xmlns="http://www.w3.org/2000/svg" xmlns:xlink="http://www.w3.org/1999/xlink" width="254.41548" height="274.6892" viewBox="0,0,254.41548,274.6892"><defs><linearGradient x1="401.90658" y1="166.407" x2="401.90658" y2="213.71196" gradientUnits="userSpaceOnUse" id="color-1"><stop offset="0" stop-color="#490000"/><stop offset="1" stop-color="#ff6200"/></linearGradient><linearGradient x1="377.97192" y1="266.39556" x2="377.97192" y2="287.56344" gradientUnits="userSpaceOnUse" id="color-2"><stop offset="0" stop-color="#490000"/><stop offset="1" stop-color="#ff6200"/></linearGradient><linearGradient x1="335.10695" y1="212.41745" x2="335.10695" y2="287.56344" gradientUnits="userSpaceOnUse" id="color-3"><stop offset="0" stop-color="#490000"/><stop offset="1" stop-color="#ff6200"/></linearGradient><linearGradient x1="299.12155" y1="212.41746" x2="299.12155" y2="235.70213" gradientUnits="userSpaceOnUse" id="color-4"><stop offset="0" stop-color="#490000"/><stop offset="1" stop-color="#ff6200"/></linearGradient><linearGradient x1="283.24564" y1="127.74593" x2="283.24564" y2="209.24228" gradientUnits="userSpaceOnUse" id="color-5"><stop offset="0" stop-color="#490000"/><stop offset="1" stop-color="#ff6200"/></linearGradient><linearGradient x1="352.04125" y1="127.68753" x2="352.04125" y2="152.0306" gradientUnits="userSpaceOnUse" id="color-6"><stop offset="0" stop-color="#490000"/><stop offset="1" stop-color="#ff6200"/></linearGradient><linearGradient x1="400.19819" y1="146.79702" x2="400.19819" y2="166.90651" gradientUnits="userSpaceOnUse" id="color-7"><stop offset="0" stop-color="#490000"/><stop offset="1" stop-color="#ff6200"/></linearGradient><linearGradient x1="461.98998" y1="197.59994" x2="461.98998" y2="343.98315" gradientUnits="userSpaceOnUse" id="color-8"><stop offset="0" stop-color="#490000"/><stop offset="1" stop-color="#ff6200"/></linearGradient><linearGradient x1="431.95" y1="86.46856" x2="431.95" y2="123.66355" gradientUnits="userSpaceOnUse" id="color-9"><stop offset="0" stop-color="#490000"/><stop offset="1" stop-color="#ff6200"/></linearGradient><linearGradient x1="397.02298" y1="327.78242" x2="397.02298" y2="344.71673" gradientUnits="userSpaceOnUse" id="color-10"><stop offset="0" stop-color="#490000"/><stop offset="1" stop-color="#ff6200"/></linearGradient><linearGradient x1="227.67992" y1="140.44664" x2="227.67992" y2="271.68753" gradientUnits="userSpaceOnUse" id="color-11"><stop offset="0" stop-color="#490000"/><stop offset="1" stop-color="#ff6200"/></linearGradient><linearGradient x1="253.61057" y1="136.21308" x2="253.61057" y2="152.08899" gradientUnits="userSpaceOnUse" id="color-12"><stop offset="0" stop-color="#490000"/><stop offset="1" stop-color="#ff6200"/></linearGradient><linearGradient x1="315.52662" y1="327.78242" x2="315.52662" y2="344.71673" gradientUnits="userSpaceOnUse" id="color-13"><stop offset="0" stop-color="#490000"/><stop offset="1" stop-color="#ff6200"/></linearGradient><linearGradient x1="243.64342" y1="86.46855" x2="243.64342" y2="135.15468" gradientUnits="userSpaceOnUse" id="color-14"><stop offset="0" stop-color="#490000"/><stop offset="1" stop-color="#ff6200"/></linearGradient><linearGradient x1="380.08867" y1="72.70942" x2="380.08867" y2="87.52694" gradientUnits="userSpaceOnUse" id="color-15"><stop offset="0" stop-color="#490000"/><stop offset="1" stop-color="#ff6200"/></linearGradient><linearGradient x1="462.11423" y1="124.57074" x2="462.11423" y2="198.65833" gradientUnits="userSpaceOnUse" id="color-16"><stop offset="0" stop-color="#490000"/><stop offset="1" stop-color="#ff6200"/></linearGradient><linearGradient x1="255.22401" y1="273.74592" x2="255.22401" y2="344.89862" gradientUnits="userSpaceOnUse" id="color-17"><stop offset="0" stop-color="#490000"/><stop offset="1" stop-color="#ff6200"/></linearGradient><linearGradient x1="254.11225" y1="295.98113" x2="254.11225" y2="329.33395" gradientUnits="userSpaceOnUse" id="color-18"><stop offset="0" stop-color="#490000"/><stop offset="1" stop-color="#ff6200"/></linearGradient></defs><g transform="translate(-216.88672,-71.45942)"><g data-paper-data="{&quot;isPaintingLayer&quot;:true}" fill-rule="nonzero" stroke="#2c4a00" stroke-linejoin="miter" stroke-miterlimit="10" stroke-dasharray="" stroke-dashoffset="0" style="mix-blend-mode: normal"><path d="M394.19381,213.71196v-47.30496h15.42553v47.30496z" fill="url(#color-1)" stroke-width="2.5" stroke-linecap="butt"/><path d="M344.1033,287.56344v-21.16788h67.73723v21.16788z" fill="url(#color-2)" stroke-width="2.5" stroke-linecap="butt"/><path d="M327.16899,287.56344v-75.14599h15.87591v75.14599z" fill="url(#color-3)" stroke-width="2.5" stroke-linecap="butt"/><path d="M273.19089,235.70213v-23.28467h51.86131v23.28467z" fill="url(#color-4)" stroke-width="2.5" stroke-linecap="butt"/><path d="M273.19089,209.24228v-81.49635h20.10949v81.49635z" fill="url(#color-5)" stroke-width="2.5" stroke-linecap="butt"/><path d="M294.35877,152.0306v-24.34307h115.36496v24.34307z" fill="url(#color-6)" stroke-width="2.5" stroke-linecap="butt"/><path d="M390.67264,166.90651v-20.10949h19.05109v20.10949z" fill="url(#color-7)" stroke-width="2.5" stroke-linecap="butt"/><path d="M453.92775,343.98315v-146.38321h16.12445v146.38321z" fill="url(#color-8)" stroke-width="2.5" stroke-linecap="butt"/><path d="M412.8989,123.66355v-37.19499h38.10219v37.19499z" fill="url(#color-9)" stroke-width="3.5" stroke-linecap="butt"/><path d="M338.8113,344.71673v-16.93431h116.42336v16.93431z" fill="url(#color-10)" stroke-width="2.5" stroke-linecap="butt"/><path d="M219.21276,271.68753v-131.24088h16.93431v131.24088z" fill="url(#color-11)" stroke-width="2.5" stroke-linecap="butt"/><path d="M235.08867,152.08899v-15.87591h37.0438v15.87591z" fill="url(#color-12)" stroke-width="2.5" stroke-linecap="butt"/><path d="M293.30035,344.71673v-16.93431h44.45255v16.93431z" fill="url(#color-13)" stroke-width="2.5" stroke-linecap="butt"/><path d="M235.70546,135.15468v-48.68613h15.87591v48.68613z" fill="url(#color-14)" stroke-width="2.5" stroke-linecap="butt"/><path d="M349.39524,87.52694v-14.81752h61.38686v14.81752z" fill="url(#color-15)" stroke-width="2.5" stroke-linecap="butt"/><path d="M454.17627,198.65833v-74.08759h15.87591v74.08759z" fill="url(#color-16)" stroke-width="2.5" stroke-linecap="butt"/><path d="M230.88672,272.56444l-2,-120l5,-5" fill="none" stroke-width="2" stroke-linecap="round"/><path d="M242.88672,142.56445l17.5,0.5" fill="none" stroke-width="2" stroke-linecap="round"/><path d="M282.38672,142.56445l4,52.5" fill="none" stroke-width="2" stroke-linecap="round"/><path d="M293.38672,218.06445l22.5,3" fill="none" stroke-width="2" stroke-linecap="round"/><path d="M219.64766,344.89862v-71.1527h71.1527v71.1527z" fill="url(#color-17)" stroke-width="2.5" stroke-linecap="butt"/><path d="M238.54759,329.33395v-33.35282h31.12931v33.35282z" fill="url(#color-18)" stroke-width="2.5" stroke-linecap="butt"/><path d="M233.64306,284.58472l51.99591,4.7269l-5.25211,47.26901" fill="none" stroke-width="2" stroke-linecap="round"/><path d="M267.25657,335.00499l-45.16816,0.52521" fill="none" stroke-width="2" stroke-linecap="round"/><path d="M217.88672,319.24866l10.50422,-24.15971" fill="none" stroke-width="2" stroke-linecap="round"/><path d="M317.88672,344.06444l13,-9" fill="none" stroke-width="2" stroke-linecap="round"/><path d="M379.38672,329.56445l22.5,10" fill="none" stroke-width="2" stroke-linecap="round"/><path d="M435.38672,336.56445l-14,7" fill="none" stroke-width="2" stroke-linecap="round"/><path d="M459.88672,300.06444l10,10" fill="none" stroke-width="2" stroke-linecap="round"/><path d="M460.38672,268.06444l-7.5,13" fill="none" stroke-width="2" stroke-linecap="round"/><path d="M360.38672,272.56444l32,1" fill="none" stroke-width="2" stroke-linecap="round"/><path d="M337.38672,276.56444l-5,-41.5" fill="none" stroke-width="2" stroke-linecap="round"/><path d="M400.88672,175.06445v25.5" fill="none" stroke-width="2" stroke-linecap="round"/><path d="M328.88672,140.56445l64.5,0.5" fill="none" stroke-width="2" stroke-linecap="round"/><path d="M462.88672,140.56445l2.5,37" fill="none" stroke-width="2" stroke-linecap="round"/><path d="M459.88672,205.56445l4,28" fill="none" stroke-width="2" stroke-linecap="round"/><path d="M395.88672,155.56445l5.5,1" fill="none" stroke-width="2" stroke-linecap="round"/><path d="M441.38672,98.06445l-1.5,15l-10,-4l3.5,-16.5" fill="none" stroke-width="2" stroke-linecap="round"/><path d="M372.38672,76.06445l27.5,3" fill="none" stroke-width="2" stroke-linecap="round"/><path d="M250.88672,100.06445l-5,30.5" fill="none" stroke-width="2" stroke-linecap="round"/></g></g></svg>