<svg version="1.1" xmlns="http://www.w3.org/2000/svg" xmlns:xlink="http://www.w3.org/1999/xlink" width="736.62757" height="502.82242" viewBox="0,0,736.62757,502.82242"><g transform="translate(40.33879,99.10495)"><g data-paper-data="{&quot;isPaintingLayer&quot;:true}" fill-rule="nonzero" stroke="none" stroke-linecap="butt" stroke-linejoin="miter" stroke-miterlimit="10" stroke-dasharray="" stroke-dashoffset="0" style="mix-blend-mode: normal"><path d="M-5.52501,362.80627v-372h650v372z" fill="#000000" stroke-width="0"/><path d="M-40.33879,330.55575l69.46401,-253.6607l267.16355,73.16172l-69.464,253.6607z" fill="#504f4f" stroke-width="0"/><path d="M103.66121,154.55575l69.46401,-253.6607l267.16355,73.16172l-69.464,253.6607z" fill="#504f4f" stroke-width="0"/><path d="M235.66121,277.05476l54.81296,-200.15971l210.8146,57.73077l-54.81297,200.1597z" fill="#504f4f" stroke-width="0"/><path d="M430.66121,276.67879l54.81297,-271.73127l210.8146,78.37369l-54.81296,271.73127z" fill="#504f4f" stroke-width="0"/><path d="M30.14316,182.10724l40.37572,-200.15971l155.28794,57.73077l-40.37572,200.15971z" fill="#292828" stroke-width="0"/><path d="M52.44369,324.48132l31.17218,-154.53379l119.89043,44.57118l-31.17218,154.53379z" fill="#292828" stroke-width="0"/><path d="M162.95934,205.75199l44.99135,-125.85837l173.03996,36.30051l-44.99134,125.85837z" fill="#292828" stroke-width="0"/><path d="M214.99459,97.0444l-7.45188,-93.66894l121.41269,-26.63121l7.45187,93.66894z" fill="#292828" stroke-width="0"/><path d="M335.99459,265.99035l-7.45188,-93.66894l121.41269,-26.63121l7.45187,93.66894z" fill="#292828" stroke-width="0"/><path d="M431.51447,239.52077l15.29469,-92.71178l124.25391,3.35081l-15.29469,92.71178z" fill="#292828" stroke-width="0"/><path d="M562.53478,202.97639l-87.96208,-33.04654l27.47006,-121.22565l87.96208,33.04654z" fill="#292828" stroke-width="0"/><path d="M652.66042,248.21637l-74.03878,57.85897l-89.15592,-86.61111l74.03878,-57.85897z" fill="#292828" stroke-width="0"/><path d="M410.14006,254.09353l-74.03877,57.85897l-89.15592,-86.61111l74.03878,-57.85897z" fill="#292828" stroke-width="0"/><path d="M428.49064,141.62453l-98.91725,77.30071l-119.11405,-115.71413l98.91725,-77.30071z" fill="#292828" stroke-width="0"/><path d="M271.97499,146.04699l-98.91725,77.30071l-119.11405,-115.71413l98.91725,-77.30071z" fill="#121212" stroke-width="0"/><path d="M380.99064,157.04699l-98.91725,77.30071l-119.11405,-115.71413l98.91725,-77.30071z" fill="#121212" stroke-width="0"/><path d="M490.00629,197.16857l-98.91725,48.17913l-119.11405,-72.12102l98.91725,-48.17913z" fill="#121212" stroke-width="0"/><path d="M580.94875,182.27372l-41.2512,46.5665l-118.06877,-21.43334l41.25119,-46.5665z" fill="#121212" stroke-width="0"/><path d="M525.81368,86.65891l41.02432,34.89777l-36.07413,85.40238l-41.02432,-34.89777z" fill="#121212" stroke-width="0"/><path d="M516.06975,209.34756l49.48561,-21.26084l60.50102,70.24626l-49.48561,21.26084z" fill="#121212" stroke-width="0"/><path d="M500.3046,296.9236v-22.5h113.5v22.5z" fill="#ff5600" stroke-width="0"/><path d="M114.13828,163.85683l69.28816,46.6191l-40.69848,137.8674l-69.28816,-46.6191z" fill="#121212" stroke-width="0"/><text transform="translate(387.4566,295.43164) scale(0.89374,0.92695)" font-size="40" xml:space="preserve" fill="#ffffff" fill-rule="nonzero" stroke="none" stroke-width="1" stroke-linecap="butt" stroke-linejoin="miter" stroke-miterlimit="10" stroke-dasharray="" stroke-dashoffset="0" font-family="&quot;OpenSans-Light&quot;, Sans Serif" font-weight="normal" text-anchor="start" style="mix-blend-mode: normal"><tspan x="0" dy="0">Logical</tspan><tspan x="0" dy="46.150000000000006px">Operation</tspan></text><text transform="translate(503.02628,291.6736) scale(0.5,0.5)" font-size="40" xml:space="preserve" fill="#ffffff" fill-rule="nonzero" stroke="none" stroke-width="1" stroke-linecap="butt" stroke-linejoin="miter" stroke-miterlimit="10" stroke-dasharray="" stroke-dashoffset="0" font-family="&quot;Open Sans&quot;, Sans Serif" font-weight="normal" text-anchor="start" style="mix-blend-mode: normal"><tspan x="0" dy="0">REWRITTEN</tspan></text></g></g></svg>