<svg version="1.1" xmlns="http://www.w3.org/2000/svg" xmlns:xlink="http://www.w3.org/1999/xlink" width="89.73288" height="134.95825" viewBox="0,0,89.73288,134.95825"><defs><linearGradient x1="240" y1="118.62271" x2="240" y2="221.99499" gradientUnits="userSpaceOnUse" id="color-1"><stop offset="0" stop-color="#000000"/><stop offset="1" stop-color="#ffffff"/></linearGradient></defs><g transform="translate(-195.13356,-112.52087)"><g data-paper-data="{&quot;isPaintingLayer&quot;:true}" fill-rule="nonzero" stroke-linejoin="miter" stroke-miterlimit="10" stroke-dasharray="" stroke-dashoffset="0" style="mix-blend-mode: normal"><path d="M196.56929,245.32554c0,0 -1.43573,-0.49283 -1.43573,-5.02504c0,-24.37896 0,-103.32174 0,-118.4474c0,-4.88898 1.43573,-6.46077 1.43573,-6.46077c0,0 2.54435,-2.87145 6.64023,-2.87145c10.06825,0 53.36869,0 72.50417,0c5.61773,0 6.99917,2.15359 6.99917,2.15359c0,0 2.15359,2.28966 2.15359,7.17864c0,14.84059 0,91.11551 0,117.01167c0,5.40418 -2.15359,6.46077 -2.15359,6.46077c0,0 -1.62641,2.15359 -5.56344,2.15359c-10.3945,0 -57.74519,0 -75.37562,0c-4.13921,0 -5.20451,-2.15359 -5.20451,-2.15359z" fill="#000000" stroke="none" stroke-width="none" stroke-linecap="butt"/><path d="M200.49653,220.34543c0,0 -1.3059,-0.37748 -1.3059,-3.84896c0,-18.67325 0,-79.14006 0,-90.72567c0,-3.74475 1.3059,-4.94868 1.3059,-4.94868c0,0 2.31428,-2.19941 6.03979,-2.19941c9.15783,0 48.5428,0 65.94794,0c5.10975,0 6.36626,1.64956 6.36626,1.64956c0,0 1.95885,1.75379 1.95885,5.49853c0,11.36726 0,69.7906 0,89.62596c0,4.13937 -1.95885,4.94867 -1.95885,4.94867c0,0 -1.47935,1.64956 -5.06036,1.64956c-9.45457,0 -52.52356,0 -68.55974,0c-3.76492,0 -4.73389,-1.64956 -4.73389,-1.64956z" fill="url(#color-1)" stroke="none" stroke-width="none" stroke-linecap="butt"/><path d="M223.22491,191.88262l35.17529,-66.76126" fill="none" stroke="#737373" stroke-width="3" stroke-linecap="round"/><path d="M256.24661,190.4469l-33.0217,-64.60767" fill="none" stroke="#737373" stroke-width="3" stroke-linecap="round"/><path d="M210.6623,205.16309c0,-5.70689 4.62635,-10.33325 10.33324,-10.33325c5.70689,0 10.33325,4.62635 10.33325,10.33325c0,5.70689 -4.62635,10.33324 -10.33325,10.33324c-5.70689,0 -10.33324,-4.62635 -10.33324,-10.33324z" fill="none" stroke="#ff0000" stroke-width="8.5" stroke-linecap="butt"/><path d="M248.67121,205.16309c0,-5.7069 4.62635,-10.33325 10.33324,-10.33325c5.7069,0 10.33324,4.62635 10.33324,10.33325c0,5.7069 -4.62635,10.33324 -10.33324,10.33324c-5.7069,0 -10.33324,-4.62634 -10.33324,-10.33324z" fill="none" stroke="#ff0000" stroke-width="8.5" stroke-linecap="butt"/><text transform="translate(206.95256,240.50083) scale(0.5,0.5)" font-size="40" xml:space="preserve" fill="#ffffff" fill-rule="nonzero" stroke="none" stroke-width="1" stroke-linecap="butt" stroke-linejoin="miter" stroke-miterlimit="10" stroke-dasharray="" stroke-dashoffset="0" font-family="Serif" font-weight="normal" text-anchor="start" style="mix-blend-mode: normal"><tspan x="0" dy="0">Scissors</tspan></text></g></g></svg>