<svg version="1.1" xmlns="http://www.w3.org/2000/svg" xmlns:xlink="http://www.w3.org/1999/xlink" width="64.56391" height="97.1041" viewBox="0,0,64.56391,97.1041"><defs><linearGradient x1="227.081" y1="118.62272" x2="227.081" y2="189.27049" gradientUnits="userSpaceOnUse" id="color-1"><stop offset="0" stop-color="#000000"/><stop offset="1" stop-color="#ffffff"/></linearGradient></defs><g transform="translate(-195.13356,-112.5209)"><g data-paper-data="{&quot;isPaintingLayer&quot;:true}" fill-rule="nonzero" stroke-linejoin="miter" stroke-miterlimit="10" stroke-dasharray="" stroke-dashoffset="0" style="mix-blend-mode: normal"><path d="M196.16659,208.07548c0,0 -1.03303,-0.3546 -1.03303,-3.61558c0,-17.54096 0,-74.34125 0,-85.22435c0,-3.51768 1.03303,-4.6486 1.03303,-4.6486c0,0 1.83069,-2.06604 4.77773,-2.06604c7.24423,0 38.39942,0 52.16763,0c4.04203,0 5.03599,1.54953 5.03599,1.54953c0,0 1.54953,1.64744 1.54953,5.16512c0,10.67799 0,65.55872 0,84.19132c0,3.88837 -1.54953,4.6486 -1.54953,4.6486c0,0 -1.17022,1.54953 -4.00296,1.54953c-7.47897,0 -41.54837,0 -54.23368,0c-2.97821,0 -3.74471,-1.54953 -3.74471,-1.54953z" fill="#000000" stroke="none" stroke-width="NaN" stroke-linecap="butt"/><path d="M200.08312,188.14313c0,0 -0.89249,-0.25798 -0.89249,-2.6305c0,-12.76187 0,-54.08673 0,-62.00469c0,-2.55928 0.89249,-3.38208 0.89249,-3.38208c0,0 1.58165,-1.50314 4.12778,-1.50314c6.25874,0 33.17563,0 45.07083,0c3.49216,0 4.3509,1.12736 4.3509,1.12736c0,0 1.33874,1.19859 1.33874,3.75786c0,7.76873 0,47.69703 0,61.25312c0,2.82897 -1.33874,3.38207 -1.33874,3.38207c0,0 -1.01103,1.12736 -3.4584,1.12736c-6.46154,0 -35.8962,0 -46.85582,0c-2.57306,0 -3.23528,-1.12736 -3.23528,-1.12736z" fill="url(#color-1)" stroke="none" stroke-width="NaN" stroke-linecap="butt"/><path d="M239.65626,123.06409l-24.03987,45.62668" fill="none" stroke="#737373" stroke-width="3" stroke-linecap="round"/><path d="M238.18443,167.70956l-22.56804,-44.15485" fill="none" stroke="#737373" stroke-width="3" stroke-linecap="round"/><path d="M207.03072,177.76705c0,-3.90026 3.16179,-7.06206 7.06205,-7.06206c3.90026,0 7.06206,3.16179 7.06206,7.06206c0,3.90026 -3.16179,7.06205 -7.06206,7.06205c-3.90026,0 -7.06205,-3.16179 -7.06205,-7.06205z" fill="none" stroke="#ff0000" stroke-width="8.5" stroke-linecap="butt"/><path d="M233.00717,177.76705c0,-3.90027 3.16179,-7.06206 7.06205,-7.06206c3.90027,0 7.06205,3.16179 7.06205,7.06206c0,3.90027 -3.16179,7.06205 -7.06205,7.06205c-3.90027,0 -7.06205,-3.16178 -7.06205,-7.06205z" fill="none" stroke="#ff0000" stroke-width="8.5" stroke-linecap="butt"/><text transform="translate(204.29236,204.50533) scale(0.34481,0.34481)" font-size="40" xml:space="preserve" fill="#ffffff" fill-rule="nonzero" stroke="none" stroke-width="1" stroke-linecap="butt" stroke-linejoin="miter" stroke-miterlimit="10" stroke-dasharray="" stroke-dashoffset="0" font-family="Serif" font-weight="normal" text-anchor="start" style="mix-blend-mode: normal"><tspan x="0" dy="0">Scissors</tspan></text></g></g></svg>