<svg version="1.1" xmlns="http://www.w3.org/2000/svg" xmlns:xlink="http://www.w3.org/1999/xlink" width="64.56391" height="97.10411" viewBox="0,0,64.56391,97.10411"><g transform="translate(-195.13356,-112.52091)"><g data-paper-data="{&quot;isPaintingLayer&quot;:true}" fill-rule="nonzero" stroke="none" stroke-linecap="butt" stroke-linejoin="miter" stroke-miterlimit="10" stroke-dasharray="" stroke-dashoffset="0" style="mix-blend-mode: normal"><path d="M196.16659,208.07548c0,0 -1.03303,-0.3546 -1.03303,-3.61558c0,-17.54096 0,-74.34125 0,-85.22435c0,-3.51768 1.03303,-4.6486 1.03303,-4.6486c0,0 1.83069,-2.06604 4.77773,-2.06604c7.24423,0 38.39942,0 52.16763,0c4.04203,0 5.03599,1.54953 5.03599,1.54953c0,0 1.54953,1.64744 1.54953,5.16512c0,10.67799 0,65.55872 0,84.19132c0,3.88837 -1.54953,4.6486 -1.54953,4.6486c0,0 -1.17022,1.54953 -4.00296,1.54953c-7.47897,0 -41.54837,0 -54.23368,0c-2.97821,0 -3.74471,-1.54953 -3.74471,-1.54953z" fill="#000000" stroke-width="NaN"/><text transform="translate(211.03677,165.39001) scale(0.35976,0.35976)" font-size="40" xml:space="preserve" fill="#ffffff" fill-rule="nonzero" stroke="none" stroke-width="1" stroke-linecap="butt" stroke-linejoin="miter" stroke-miterlimit="10" stroke-dasharray="" stroke-dashoffset="0" font-family="Serif" font-weight="normal" text-anchor="start" style="mix-blend-mode: normal"><tspan x="0" dy="0">/card/</tspan></text></g></g></svg>