<svg version="1.1" xmlns="http://www.w3.org/2000/svg" xmlns:xlink="http://www.w3.org/1999/xlink" width="19.6545" height="29.85212" viewBox="0,0,19.6545,29.85212"><g transform="translate(-230.14218,-158.89788)"><g data-paper-data="{&quot;isPaintingLayer&quot;:true}" fill-rule="nonzero" stroke-linecap="butt" stroke-linejoin="miter" stroke-miterlimit="10" stroke-dasharray="" stroke-dashoffset="0" style="mix-blend-mode: normal"><path d="M231.50001,180c0,-4.69442 3.80558,-8.5 8.5,-8.5c4.69442,0 8.5,3.80558 8.5,8.5c0,4.69442 -3.80558,8.5 -8.5,8.5c-4.69442,0 -8.5,-3.80558 -8.5,-8.5z" fill="none" stroke="#ffffff" stroke-width="0.5"/><path d="M233.3047,171.22807l-2.12132,-2.12132c0,0 6.43232,-6.93232 8.69163,-9.19163c2.1552,-2.1552 8.94163,9.43337 8.94163,9.43337l-2.25368,1.74632c0,0 -4.31564,-8.80936 -6.50413,-6.62087c-2.23015,2.23015 -6.75413,6.75413 -6.75413,6.75413z" fill="#00ffe6" stroke="#000000" stroke-width="1.5"/></g></g></svg>