<svg version="1.1" xmlns="http://www.w3.org/2000/svg" xmlns:xlink="http://www.w3.org/1999/xlink" width="440.0072" height="306.27589" viewBox="0,0,440.0072,306.27589"><defs><linearGradient x1="54.51194" y1="261.95849" x2="54.51194" y2="265.92571" gradientUnits="userSpaceOnUse" id="color-1"><stop offset="0" stop-color="#ff0000"/><stop offset="1" stop-color="#ff0000" stop-opacity="0.45098"/></linearGradient><linearGradient x1="68.8462" y1="221.35832" x2="68.8462" y2="225.32554" gradientUnits="userSpaceOnUse" id="color-2"><stop offset="0" stop-color="#ff0000"/><stop offset="1" stop-color="#ff0000" stop-opacity="0.45098"/></linearGradient><linearGradient x1="48.13873" y1="165.76212" x2="48.13873" y2="169.72934" gradientUnits="userSpaceOnUse" id="color-3"><stop offset="0" stop-color="#ff0000"/><stop offset="1" stop-color="#ff0000" stop-opacity="0.45098"/></linearGradient><linearGradient x1="68.84621" y1="105.88134" x2="68.84621" y2="109.84856" gradientUnits="userSpaceOnUse" id="color-4"><stop offset="0" stop-color="#ff0000"/><stop offset="1" stop-color="#ff0000" stop-opacity="0.45098"/></linearGradient><linearGradient x1="392.93644" y1="261.19153" x2="396.90366" y2="261.19153" gradientUnits="userSpaceOnUse" id="color-5"><stop offset="0" stop-color="#ff0000"/><stop offset="1" stop-color="#ff0000" stop-opacity="0.45098"/></linearGradient><linearGradient x1="434.49048" y1="255.52499" x2="434.49048" y2="259.49221" gradientUnits="userSpaceOnUse" id="color-6"><stop offset="0" stop-color="#ff0000"/><stop offset="1" stop-color="#ff0000" stop-opacity="0.45098"/></linearGradient><linearGradient x1="420.49048" y1="234.12499" x2="420.49048" y2="238.09221" gradientUnits="userSpaceOnUse" id="color-7"><stop offset="0" stop-color="#ff0000"/><stop offset="1" stop-color="#ff0000" stop-opacity="0.45098"/></linearGradient><linearGradient x1="434.69048" y1="297.92499" x2="434.69048" y2="301.89221" gradientUnits="userSpaceOnUse" id="color-8"><stop offset="0" stop-color="#ff0000"/><stop offset="1" stop-color="#ff0000" stop-opacity="0.45098"/></linearGradient><linearGradient x1="420.69048" y1="276.52499" x2="420.69048" y2="280.49221" gradientUnits="userSpaceOnUse" id="color-9"><stop offset="0" stop-color="#ff0000"/><stop offset="1" stop-color="#ff0000" stop-opacity="0.45098"/></linearGradient><linearGradient x1="434.29048" y1="175.92499" x2="434.29048" y2="179.89221" gradientUnits="userSpaceOnUse" id="color-10"><stop offset="0" stop-color="#ff0000"/><stop offset="1" stop-color="#ff0000" stop-opacity="0.45098"/></linearGradient><linearGradient x1="420.29048" y1="154.52498" x2="420.29048" y2="158.4922" gradientUnits="userSpaceOnUse" id="color-11"><stop offset="0" stop-color="#ff0000"/><stop offset="1" stop-color="#ff0000" stop-opacity="0.45098"/></linearGradient><linearGradient x1="434.49048" y1="218.32498" x2="434.49048" y2="222.2922" gradientUnits="userSpaceOnUse" id="color-12"><stop offset="0" stop-color="#ff0000"/><stop offset="1" stop-color="#ff0000" stop-opacity="0.45098"/></linearGradient><linearGradient x1="420.49048" y1="196.92499" x2="420.49048" y2="200.89221" gradientUnits="userSpaceOnUse" id="color-13"><stop offset="0" stop-color="#ff0000"/><stop offset="1" stop-color="#ff0000" stop-opacity="0.45098"/></linearGradient><linearGradient x1="434.69048" y1="101.72499" x2="434.69048" y2="105.69221" gradientUnits="userSpaceOnUse" id="color-14"><stop offset="0" stop-color="#ff0000"/><stop offset="1" stop-color="#ff0000" stop-opacity="0.45098"/></linearGradient><linearGradient x1="420.69048" y1="80.32499" x2="420.69048" y2="84.29221" gradientUnits="userSpaceOnUse" id="color-15"><stop offset="0" stop-color="#ff0000"/><stop offset="1" stop-color="#ff0000" stop-opacity="0.45098"/></linearGradient><linearGradient x1="434.89048" y1="144.12499" x2="434.89048" y2="148.09221" gradientUnits="userSpaceOnUse" id="color-16"><stop offset="0" stop-color="#ff0000"/><stop offset="1" stop-color="#ff0000" stop-opacity="0.45098"/></linearGradient><linearGradient x1="420.89048" y1="122.72499" x2="420.89048" y2="126.69221" gradientUnits="userSpaceOnUse" id="color-17"><stop offset="0" stop-color="#ff0000"/><stop offset="1" stop-color="#ff0000" stop-opacity="0.45098"/></linearGradient><linearGradient x1="74.4462" y1="264.15849" x2="74.4462" y2="268.12571" gradientUnits="userSpaceOnUse" id="color-18"><stop offset="0" stop-color="#ff0000"/><stop offset="1" stop-color="#ff0000" stop-opacity="0.45098"/></linearGradient><linearGradient x1="102.8462" y1="275.32571" x2="102.8462" y2="276.92571" gradientUnits="userSpaceOnUse" id="color-19"><stop offset="0" stop-color="#ff0000"/><stop offset="1" stop-color="#ff0000" stop-opacity="0.45098"/></linearGradient><linearGradient x1="131.0462" y1="262.55849" x2="131.0462" y2="264.15849" gradientUnits="userSpaceOnUse" id="color-20"><stop offset="0" stop-color="#ff0000"/><stop offset="1" stop-color="#ff0000" stop-opacity="0.45098"/></linearGradient><linearGradient x1="163.2462" y1="274.32571" x2="163.2462" y2="275.92571" gradientUnits="userSpaceOnUse" id="color-21"><stop offset="0" stop-color="#ff0000"/><stop offset="1" stop-color="#ff0000" stop-opacity="0.45098"/></linearGradient><linearGradient x1="193.6462" y1="262.55849" x2="193.6462" y2="264.15849" gradientUnits="userSpaceOnUse" id="color-22"><stop offset="0" stop-color="#ff0000"/><stop offset="1" stop-color="#ff0000" stop-opacity="0.45098"/></linearGradient><linearGradient x1="222.0462" y1="273.72571" x2="222.0462" y2="275.32571" gradientUnits="userSpaceOnUse" id="color-23"><stop offset="0" stop-color="#ff0000"/><stop offset="1" stop-color="#ff0000" stop-opacity="0.45098"/></linearGradient><linearGradient x1="254.4462" y1="262.95849" x2="254.4462" y2="264.55849" gradientUnits="userSpaceOnUse" id="color-24"><stop offset="0" stop-color="#ff0000"/><stop offset="1" stop-color="#ff0000" stop-opacity="0.45098"/></linearGradient><linearGradient x1="282.8462" y1="274.12571" x2="282.8462" y2="275.72571" gradientUnits="userSpaceOnUse" id="color-25"><stop offset="0" stop-color="#ff0000"/><stop offset="1" stop-color="#ff0000" stop-opacity="0.45098"/></linearGradient><linearGradient x1="314.4462" y1="263.15849" x2="314.4462" y2="264.75849" gradientUnits="userSpaceOnUse" id="color-26"><stop offset="0" stop-color="#ff0000"/><stop offset="1" stop-color="#ff0000" stop-opacity="0.45098"/></linearGradient><linearGradient x1="342.8462" y1="274.32571" x2="342.8462" y2="275.92571" gradientUnits="userSpaceOnUse" id="color-27"><stop offset="0" stop-color="#ff0000"/><stop offset="1" stop-color="#ff0000" stop-opacity="0.45098"/></linearGradient></defs><g transform="translate(3.13311,-8.12723)"><g data-paper-data="{&quot;isPaintingLayer&quot;:true}" fill-rule="nonzero" stroke-linejoin="miter" stroke-miterlimit="10" stroke-dasharray="" stroke-dashoffset="0" style="mix-blend-mode: normal"><path d="M41.66766,265.92571v-3.96722h25.68855v3.96722z" fill="url(#color-1)" stroke="none" stroke-width="0" stroke-linecap="butt"/><path d="M67.09977,265.90504h-25.46906v-199.89357h-43.22023v-31.64338h77.95077v209.92683h321.06457v33.18696h-300.99803v8.48969h321.83636v-183.68598h-20.83833v129.66069h-246.20096v-206.83967h-151.27081l-3.08716,-16.97938h175.96808v199.12178h205.29609v-126.57353h58.65603v233.08053h-369.68733v-51.65703l301.85542,-0.91028" fill="none" stroke="none" stroke-width="0" stroke-linecap="round"/><path d="M62.27578,225.32554v-3.96722h13.14086v3.96722z" fill="url(#color-2)" stroke="none" stroke-width="0" stroke-linecap="butt"/><path d="M41.5683,169.72934v-3.96722h13.14086v3.96722z" fill="url(#color-3)" stroke="none" stroke-width="0" stroke-linecap="butt"/><path d="M62.27578,109.84856v-3.96723h13.14086v3.96723z" fill="url(#color-4)" stroke="none" stroke-width="0" stroke-linecap="butt"/><path d="M396.90366,277.7083h-3.96722v-33.03355h3.96722z" fill="url(#color-5)" stroke="none" stroke-width="0" stroke-linecap="butt"/><path d="M432.50687,259.49221v-3.96722h3.96722v3.96722z" fill="url(#color-6)" stroke="none" stroke-width="0" stroke-linecap="butt"/><path d="M418.50687,238.09221v-3.96722h3.96722v3.96722z" fill="url(#color-7)" stroke="none" stroke-width="0" stroke-linecap="butt"/><path d="M432.70687,301.89221v-3.96722h3.96722v3.96722z" fill="url(#color-8)" stroke="none" stroke-width="0" stroke-linecap="butt"/><path d="M418.70687,280.49221v-3.96722h3.96722v3.96722z" fill="url(#color-9)" stroke="none" stroke-width="0" stroke-linecap="butt"/><path d="M432.30687,179.89221v-3.96722h3.96722v3.96722z" fill="url(#color-10)" stroke="none" stroke-width="0" stroke-linecap="butt"/><path d="M418.30687,158.4922v-3.96722h3.96722v3.96722z" fill="url(#color-11)" stroke="none" stroke-width="0" stroke-linecap="butt"/><path d="M432.50687,222.2922v-3.96722h3.96722v3.96722z" fill="url(#color-12)" stroke="none" stroke-width="0" stroke-linecap="butt"/><path d="M418.50687,200.89221v-3.96722h3.96722v3.96722z" fill="url(#color-13)" stroke="none" stroke-width="0" stroke-linecap="butt"/><path d="M432.70687,105.69221v-3.96722h3.96722v3.96722z" fill="url(#color-14)" stroke="none" stroke-width="0" stroke-linecap="butt"/><path d="M418.70687,84.29221v-3.96722h3.96722v3.96722z" fill="url(#color-15)" stroke="none" stroke-width="0" stroke-linecap="butt"/><path d="M432.90687,148.09221v-3.96722h3.96722v3.96722z" fill="url(#color-16)" stroke="none" stroke-width="0" stroke-linecap="butt"/><path d="M418.90687,126.69221v-3.96722h3.96722v3.96722z" fill="url(#color-17)" stroke="none" stroke-width="0" stroke-linecap="butt"/><path d="M67.87578,268.12571v-3.96722h13.14086v3.96722z" fill="url(#color-18)" stroke="none" stroke-width="0" stroke-linecap="butt"/><path d="M96.27578,276.92571v-1.6h13.14086v1.6z" fill="url(#color-19)" stroke="none" stroke-width="0" stroke-linecap="butt"/><path d="M124.47578,264.15849v-1.6h13.14086v1.6z" fill="url(#color-20)" stroke="none" stroke-width="0" stroke-linecap="butt"/><path d="M156.67578,275.92571v-1.6h13.14086v1.6z" fill="url(#color-21)" stroke="none" stroke-width="0" stroke-linecap="butt"/><path d="M187.07578,264.15849v-1.6h13.14086v1.6z" fill="url(#color-22)" stroke="none" stroke-width="0" stroke-linecap="butt"/><path d="M215.47578,275.32571v-1.6h13.14086v1.6z" fill="url(#color-23)" stroke="none" stroke-width="0" stroke-linecap="butt"/><path d="M247.87578,264.55849v-1.6h13.14086v1.6z" fill="url(#color-24)" stroke="none" stroke-width="0" stroke-linecap="butt"/><path d="M276.27578,275.72571v-1.6h13.14086v1.6z" fill="url(#color-25)" stroke="none" stroke-width="0" stroke-linecap="butt"/><path d="M307.87578,264.75849v-1.6h13.14086v1.6z" fill="url(#color-26)" stroke="none" stroke-width="0" stroke-linecap="butt"/><path d="M336.27578,275.92571v-1.6h13.14086v1.6z" fill="url(#color-27)" stroke="none" stroke-width="0" stroke-linecap="butt"/><path d="M67.87578,314.15312l6.88331,-13.61018v-0.15644l6.25755,13.76662z" fill="#ff0000" stroke="#ff0000" stroke-width="0.5" stroke-linecap="butt"/><path d="M115.12578,314.15312l6.88331,-13.61018v-0.15644l6.25755,13.76662z" fill="#ff0000" stroke="#ff0000" stroke-width="0.5" stroke-linecap="butt"/><path d="M163.12578,314.15312l6.88331,-13.61018v-0.15644l6.25755,13.76662z" fill="#ff0000" stroke="#ff0000" stroke-width="0.5" stroke-linecap="butt"/><path d="M212.87578,314.15312l6.88331,-13.61018v-0.15644l6.25755,13.76662z" fill="#ff0000" stroke="#ff0000" stroke-width="0.5" stroke-linecap="butt"/><path d="M260.12578,314.15312l6.88331,-13.61018v-0.15644l6.25755,13.76662z" fill="#ff0000" stroke="#ff0000" stroke-width="0.5" stroke-linecap="butt"/><path d="M308.12578,314.15312l6.88331,-13.61018v-0.15644l6.25755,13.76662z" fill="#ff0000" stroke="#ff0000" stroke-width="0.5" stroke-linecap="butt"/><path d="M108.49164,285.38651l-6.25755,13.76662v-0.15644l-6.88331,-13.61018z" data-paper-data="{&quot;index&quot;:null}" fill="#ff0000" stroke="#ff0000" stroke-width="0.5" stroke-linecap="butt"/><path d="M155.74164,285.38651l-6.25755,13.76662v-0.15644l-6.88331,-13.61018z" data-paper-data="{&quot;index&quot;:null}" fill="#ff0000" stroke="#ff0000" stroke-width="0.5" stroke-linecap="butt"/><path d="M203.74164,285.38651l-6.25755,13.76662v-0.15644l-6.88331,-13.61018z" data-paper-data="{&quot;index&quot;:null}" fill="#ff0000" stroke="#ff0000" stroke-width="0.5" stroke-linecap="butt"/><path d="M253.49164,285.38651l-6.25755,13.76662v-0.15644l-6.88331,-13.61018z" data-paper-data="{&quot;index&quot;:null}" fill="#ff0000" stroke="#ff0000" stroke-width="0.5" stroke-linecap="butt"/><path d="M300.74164,285.38651l-6.25755,13.76662v-0.15644l-6.88331,-13.61018z" data-paper-data="{&quot;index&quot;:null}" fill="#ff0000" stroke="#ff0000" stroke-width="0.5" stroke-linecap="butt"/><path d="M348.74164,285.38651l-6.25755,13.76662v-0.15644l-6.88331,-13.61018z" data-paper-data="{&quot;index&quot;:null}" fill="#ff0000" stroke="#ff0000" stroke-width="0.5" stroke-linecap="butt"/></g></g></svg>