<svg version="1.1" xmlns="http://www.w3.org/2000/svg" xmlns:xlink="http://www.w3.org/1999/xlink" width="397.61941" height="276.48576" viewBox="0,0,397.61941,276.48576"><g transform="translate(-72.46868,-76.68205)"><g data-paper-data="{&quot;isPaintingLayer&quot;:true}" stroke-miterlimit="10" stroke-dasharray="" stroke-dashoffset="0" style="mix-blend-mode: normal"><g fill-rule="evenodd"><path d="" fill="#ffab19" stroke="#001026" stroke-width="1.2" stroke-linecap="round" stroke-linejoin="round"/><path d="" fill="#ffffff" stroke="none" stroke-width="1" stroke-linecap="butt" stroke-linejoin="miter"/></g><path d="" fill="#ffab19" fill-rule="evenodd" stroke="#001026" stroke-width="1.2" stroke-linecap="round" stroke-linejoin="round"/><path d="" fill="#ffab19" fill-rule="evenodd" stroke="#001026" stroke-width="1.2" stroke-linecap="round" stroke-linejoin="round"/><g fill-rule="evenodd"><path d="" fill="#ffab19" stroke="#001026" stroke-width="1.2" stroke-linecap="round" stroke-linejoin="round"/><path d="" fill="#ffffff" stroke="none" stroke-width="1" stroke-linecap="butt" stroke-linejoin="miter"/></g><path d="" fill="#ffab19" fill-rule="evenodd" stroke="#001026" stroke-width="1.2" stroke-linecap="round" stroke-linejoin="round"/><g><path d="" fill="#ffab19" fill-rule="nonzero" stroke="#001026" stroke-width="1.2" stroke-linecap="butt" stroke-linejoin="miter"/><path d="" fill="#ffab19" fill-rule="nonzero" stroke="#001026" stroke-width="1.2" stroke-linecap="butt" stroke-linejoin="miter"/><path d="" fill="#ffab19" fill-rule="nonzero" stroke="#001026" stroke-width="1.2" stroke-linecap="butt" stroke-linejoin="miter"/><path d="" fill="#ffab19" fill-rule="nonzero" stroke="#001026" stroke-width="1.2" stroke-linecap="butt" stroke-linejoin="miter"/><path d="" fill="#ffffff" fill-rule="nonzero" stroke="none" stroke-width="1" stroke-linecap="butt" stroke-linejoin="miter"/><path d="" fill="#ffffff" fill-rule="nonzero" stroke="none" stroke-width="1" stroke-linecap="butt" stroke-linejoin="miter"/><path d="" fill="#ffffff" fill-rule="evenodd" stroke="#001026" stroke-width="1.2" stroke-linecap="round" stroke-linejoin="round"/><path d="" fill="#001026" fill-rule="evenodd" stroke="#001026" stroke-width="1.2" stroke-linecap="round" stroke-linejoin="round"/><g fill-rule="evenodd"><path d="" fill="#ffffff" stroke="#001026" stroke-width="1.2" stroke-linecap="round" stroke-linejoin="round"/><path d="" fill="#001026" stroke="none" stroke-width="1" stroke-linecap="butt" stroke-linejoin="miter"/></g><g fill-rule="evenodd"><path d="" fill="#ffffff" stroke="#001026" stroke-width="1.2" stroke-linecap="round" stroke-linejoin="round"/><path d="" fill="#001026" stroke="none" stroke-width="1" stroke-linecap="butt" stroke-linejoin="miter"/></g></g><path d="" fill="#ffffff" fill-rule="nonzero" stroke="none" stroke-width="0.5" stroke-linecap="butt" stroke-linejoin="miter"/><path d="" fill="#ffffff" fill-rule="nonzero" stroke="none" stroke-width="0.5" stroke-linecap="butt" stroke-linejoin="miter"/><path d="" fill="#ffffff" fill-rule="nonzero" stroke="none" stroke-width="0.5" stroke-linecap="butt" stroke-linejoin="miter"/><path d="" fill="#ffffff" fill-rule="nonzero" stroke="none" stroke-width="0.5" stroke-linecap="butt" stroke-linejoin="miter"/><path d="" fill="#ffffff" fill-rule="nonzero" stroke="none" stroke-width="0.5" stroke-linecap="butt" stroke-linejoin="miter"/><text transform="translate(72.65921,158.31064) scale(0.38106,0.38106)" font-size="40" xml:space="preserve" fill="#ffffff" fill-rule="nonzero" stroke="none" stroke-width="1" stroke-linecap="butt" stroke-linejoin="miter" stroke-miterlimit="10" stroke-dasharray="" stroke-dashoffset="0" font-family="&quot;OpenSans-VariableFont_wdthwght&quot;, Sans Serif" font-weight="normal" text-anchor="start" style="mix-blend-mode: normal"><tspan x="0" dy="0">Tebak sebuah kata!</tspan></text><text transform="translate(360.5039,335.56751) scale(1.08516,1.08516)" font-size="40" xml:space="preserve" fill="#ffffff" fill-rule="nonzero" stroke="none" stroke-width="1" stroke-linecap="butt" stroke-linejoin="miter" stroke-miterlimit="10" stroke-dasharray="" stroke-dashoffset="0" font-family="&quot;OpenSans-VariableFont_wdthwght&quot;, Sans Serif" font-weight="normal" text-anchor="start" style="mix-blend-mode: normal"><tspan x="0" dy="0">KSOS</tspan></text><text transform="translate(365.35813,348.40456) scale(0.38106,0.38106)" font-size="40" xml:space="preserve" fill="#ffffff" fill-rule="nonzero" stroke="none" stroke-width="1" stroke-linecap="butt" stroke-linejoin="miter" stroke-miterlimit="10" stroke-dasharray="" stroke-dashoffset="0" font-family="&quot;OpenSans-VariableFont_wdthwght&quot;, Sans Serif" font-weight="normal" text-anchor="start" style="mix-blend-mode: normal"><tspan x="0" dy="0">Classic games</tspan></text><path d="M402.98127,135.06506c0.38929,-0.27207 0.92529,-0.45937 1.66329,-0.45937c2.69623,0 2.69623,2.5 2.69623,2.5l-2.16745,2.70005c-2.83798,0.50303 -4.00325,0.97387 -7.05997,0.22734c-3.50118,-0.85509 -7.45226,-4.09627 -11.27401,-3.91211c-0.95484,0.04601 -1.88159,0.23663 -2.79433,0.49986l0.12164,0.1289l-2.13507,1.73222c-0.47553,0.38989 -1.10062,0.62653 -1.78531,0.62653c-1.48909,0 -2.69623,-1.11929 -2.69623,-2.5c0,-0.48518 0.14906,-0.93808 0.40703,-1.32147l1.49583,-2.31161c3.07635,-7.43086 0.0695,-19.97925 -11.08486,-18.76276c-3.05744,0.33344 -5.852,3.33601 -8.06345,5.13509c0,0 -0.28477,0.23104 -0.7343,0.4211l-0.08791,2.52686c0.94,4.26122 -0.61146,9.71135 -0.6291,14.07413l0.00002,0.23867c0,0 0,2.5 -2.69623,2.5c-2.69623,0 -2.69623,-2.5 -2.69623,-2.5l0.00002,-0.25853c0.00772,-1.70918 0.07172,-3.41256 0.1595,-5.11458c-2.84505,3.22183 -6.5845,5.42348 -11.13555,4.34305c-3.57045,-0.84763 -5.71117,-2.66495 -7.16579,-5.05941c-1.12021,2.9749 -2.99372,5.63248 -6.42409,8.10002c-1.76623,1.27049 -3.61476,2.60411 -5.76143,3.18232c-4.58987,1.23629 -10.41543,-3.46937 -11.66746,-7.00786c-0.12292,-0.34738 -0.21436,-0.6945 -0.27657,-1.04091c-0.31618,0.16659 -0.63439,0.32211 -0.95455,0.46489c-2.38346,1.063 -5.12782,3.76962 -7.43466,2.57005c-2.27304,-1.18199 -1.036,-4.74141 -1.35334,-7.13986c-0.66615,-5.03471 -0.45367,-15.35559 -8.68002,-15.40149c-4.39481,-0.02452 -9.37816,4.90162 -9.81344,8.77253c-0.03102,0.27585 -0.05033,0.55641 -0.05999,0.84087c0.3548,1.80712 0.44466,3.68193 0.4449,5.56037c0.16408,1.60131 0.23944,3.16825 -0.08328,4.57733c-0.00594,0.37541 -0.00966,0.74879 -0.00966,1.1196v2.7346c0,1.38071 -1.20714,2.5 -2.69623,2.5c-1.48909,0 -2.69623,-1.11929 -2.69623,-2.5v-3.65329c-0.36027,-0.64134 -0.26945,-7.81341 -0.26811,-8.27951c0.00069,-0.23939 0.00664,-0.47957 0.0178,-0.72028c-0.39563,-2.63716 -1.26762,-5.15786 -3.12786,-7.3542c-3.12423,-3.6887 -11.17544,-0.31696 -12.89553,3.33956c-0.39559,0.84094 -0.59437,5.18798 -0.60845,5.29664c-0.12528,0.96698 -0.29905,1.81258 -0.51499,2.60613v4.53875c0,1.38071 -1.20714,2.5 -2.69623,2.5c-1.48909,0 -2.69623,-1.11929 -2.69623,-2.5c0,-0.4972 0,-4.2262 0,-4.7234c0,-0.0841 0,-0.1682 0,-0.2523c-0.12748,-0.33666 -0.09547,-0.68502 0,-1.03904c0,-1.06772 0,-2.13545 0,-3.20317c-2.11379,1.82729 -4.40604,3.35101 -6.38511,5.40321c-2.17816,2.25865 -4.42803,4.45 -6.70182,6.61847c0.16503,5.0614 -0.38745,10.12805 -1.03402,15.37389c-0.478,3.87816 -0.64076,7.86259 -1.56874,11.67869c-1.24649,5.12587 -2.80766,11.54231 -8.48047,14.20835c-2.35599,1.10724 -7.63888,0.8678 -10.46136,0.84605c-1.4565,-0.87373 -3.17373,-1.45588 -4.3695,-2.62119c-5.70683,-5.56144 -4.61644,-13.31898 -0.67318,-19.46224c2.41334,-3.75978 6.02387,-7.12961 9.17739,-10.35209c2.19715,-2.2452 4.44385,-4.43698 6.7059,-6.61079c-1.7096,0.67897 -3.72999,0.99974 -6.06517,0.84931c-6.66216,-0.42919 -9.84463,-4.9894 -10.03894,-10.01188c-1.44886,1.14574 -2.90664,2.28428 -4.32633,3.47277c-1.39305,1.1662 -2.49332,2.68901 -4.11776,3.56063c-1.70679,0.91581 -3.89015,2.52506 -5.63437,1.67204c-1.66981,-0.81663 -1.02748,-3.37417 -1.36695,-5.09607c-0.87915,-4.4593 -0.5572,-15.64271 -7.88778,-15.96179c-9.91785,-0.4317 -6.06896,11.34555 -7.36531,16.36836v5c0,1.38071 -1.20714,2.5 -2.69623,2.5c-1.47997,0 -2.68144,-1.10563 -2.69609,-2.47468l-0.03346,-2.67776c-0.01113,-0.23551 -0.02643,-0.48577 -0.04487,-0.74859c-3.83215,4.30092 -9.30136,7.03397 -14.80272,3.48789c-1.71569,-1.1059 -3.04413,-2.52074 -4.04505,-4.11489c-4.0138,5.13633 -12.44041,10.20575 -18.0331,3.33591c-1.31802,-1.619 -1.99862,-3.31889 -2.20226,-5.03936c-2.07277,0.66754 -4.32864,1.07036 -6.83401,1.12686c-4.67499,0.10543 -6.06376,0.95253 -9.55468,-1.63969c-2.51914,-1.87061 -4.32053,-4.67025 -5.80058,-7.24979c-1.47882,-2.57738 -2.34852,-5.45155 -2.97453,-8.31269c-0.08119,-1.26416 -0.15337,-2.52327 -0.21423,-3.77848c-2.49061,1.20053 -5.08194,2.31374 -7.38525,2.69288c-0.92528,0.15231 -6.58522,-0.55982 -7.89225,-0.69451c-0.18468,6.68793 -1.02434,13.2637 -3.78065,19.40671c-1.92872,3.46282 -7.48264,9.89413 -12.78262,8.09125c-8.01685,-2.72707 -12.43151,-15.63475 -8.68944,-22.457c3.62617,-6.61097 11.95747,-9.43446 19.79855,-10.00939c-0.08006,-3.68809 -0.25834,-7.36458 -0.25702,-10.94406c0.00165,-4.46774 0.27444,-8.86696 0.53956,-13.32805c0.01802,-0.3032 0.02609,-0.60836 0.03387,-0.91382c-1.749,2.01049 -4.88386,3.66023 -6.42157,4.75982c0,0 -2.1371,1.52428 -3.78102,-0.45728c-1.64392,-1.98156 0.49318,-3.50584 0.49318,-3.50584c2.23948,-1.59287 4.24197,-3.45339 6.36264,-5.18041c1.72212,-1.40246 3.07171,-4.27196 5.34622,-4.00954c2.15422,0.24854 2.91523,3.12605 3.58678,5.04016c1.06359,3.03154 -0.2286,6.37308 -0.4366,9.55515c-0.40262,6.15932 -0.03639,12.56278 0.02371,18.93723c0.01885,0.00107 0.03768,0.00216 0.05651,0.00326c2.31185,0.13481 4.62235,1.17503 6.89858,0.77671c2.49483,-0.43658 5.44661,-1.9589 8.0986,-3.30809c-0.11802,-6.57928 0.1745,-13.09654 1.21675,-19.71925c0.58154,-3.69524 2.19743,-8.54408 5.81875,-10.70066c7.83972,-4.66873 15.19236,6.52188 15.61771,12.35162c0.69694,9.55207 -9.65273,15.90569 -16.79464,20.85751c-0.12658,0.05593 -0.25471,0.11351 -0.38432,0.17257c0.06415,1.89656 0.15892,3.80277 0.27671,5.72428c0.48232,2.27804 1.20674,4.55627 2.38773,6.6033c1.34447,2.33041 2.32522,3.92064 4.38771,5.67741c1.84952,1.57537 3.3471,0.64626 6.05187,0.56071c2.99024,-0.09458 5.56826,-0.81407 7.88755,-1.93895c1.27953,-3.23907 3.64631,-6.30412 5.97109,-8.77077c1.2831,-1.36141 5.17396,-4.85861 6.94523,-5.14285c0.21209,-0.03403 0.42452,-0.05892 0.63724,-0.0758l-0.00938,-0.06954l4.24762,-0.49231c0.12307,-0.01595 0.24881,-0.0242 0.37662,-0.0242c1.48909,0 2.69623,1.11929 2.69623,2.5c0,0.3086 -0.0603,0.60413 -0.17058,0.87703c0.69938,0.41573 1.17807,1.12275 1.23691,1.93641l0.26629,3.20982l-0.02215,0.00158c0.00957,0.03133 0.01894,0.06274 0.02811,0.09422c1.04432,3.58737 -0.77359,7.05414 1.50761,10.51431c0.23338,0.354 3.30264,4.28033 5.00852,3.99162c2.71591,-0.45966 6.52396,-4.4216 7.70728,-6.62379c0.71943,-1.33887 1.07992,-2.32243 1.30052,-3.301c0.05235,-0.65444 0.14144,-1.25976 0.279,-1.79093c0.00481,-0.01857 0.00966,-0.03714 0.01454,-0.05569l-0.01233,-0.00054l0.25576,-4.9801c0.05918,-1.33217 1.24264,-2.39532 2.69391,-2.39532c0.0847,0 0.16849,0.00362 0.2512,0.01071c3.21725,-3.62415 9.00573,-5.23117 13.70763,-3.27795c5.26689,2.18792 6.89582,6.85211 8.17479,11.70838c0.45212,1.71672 0.7829,3.46198 1.04156,5.21279c0.03956,0.26775 0.07018,0.60025 0.08228,0.95694c0.71618,-0.58768 1.48815,-1.1301 2.19379,-1.72292c3.24378,-2.72515 6.68276,-5.18458 9.78177,-8.05039c0.43002,-0.29989 0.85816,-0.60214 1.28445,-0.90667c0.04707,-0.05708 0.09465,-0.1138 0.14273,-0.17016c1.25445,-1.47007 2.22845,-3.34339 4.0211,-4.2101c0.11687,-0.05651 0.23509,-0.10941 0.35454,-0.15901c-0.01953,-0.12138 -0.02965,-0.24561 -0.02965,-0.37203c0,-1.38071 1.20714,-2.5 2.69623,-2.5h3.21736c6.49499,-2.13634 10.14607,7.08116 11.43132,11.23175c0.50755,1.6391 0.89505,3.2655 1.18258,4.8848c1.11977,-1.10258 2.23066,-2.21384 3.32836,-3.33826c2.55023,-2.61229 5.56354,-4.34611 8.04951,-6.9672l0.30801,-0.47164c0,0 0.78482,-1.09155 2.07019,-1.16607c0,-0.22633 0,-0.45265 0,-0.67898c0,0 0,-2.5 2.69623,-2.5c0.91001,0 1.51288,0.28479 1.91228,0.66212c5.16618,-4.45668 14.05357,-5.91623 18.90834,-0.77745c0.60167,0.63687 1.13729,1.35828 1.61177,2.12953c2.57722,-4.2656 6.97741,-7.46204 12.80591,-7.48111c9.46256,-0.03096 13.1201,9.96757 13.83022,16.93694c0.11699,1.14822 0.25362,2.32875 0.01125,3.45997c-0.2152,1.00441 -2.26426,2.22512 -1.35334,2.80414c0.89626,0.56971 1.08258,-1.78533 1.88112,-2.46866c2.94325,-2.51857 6.83394,-4.85582 9.88097,-7.32522c0.1475,-0.09859 0.29509,-0.19669 0.44277,-0.29432c2.14534,-1.80297 4.40182,-3.33245 6.0759,-4.4522c0.81747,-0.54678 1.55811,-1.26399 2.5157,-1.55573c2.29818,-0.70018 4.73604,-0.91673 7.10406,-1.3751l-0.39255,0.73148c0.37893,0 0.75787,0 1.1368,0l3.21592,2.87357c0,0 0.58593,1.08658 0.12401,2.12358c0.14608,0.24534 0.28604,0.49385 0.41839,0.74628c0.41513,0.79182 0.26169,1.74826 0.50322,2.59972c0.65785,2.31916 2.65801,8.18334 6.75085,6.44433c1.32042,-0.56104 2.56917,-1.27808 3.73345,-2.08326c0.81488,-0.56354 1.58338,-1.21929 2.16235,-1.99407c1.88783,-2.52634 2.10187,-3.72126 2.98327,-6.37269l0.24902,-3.00161c0.09413,-1.30154 1.26256,-2.33024 2.69011,-2.33024c0.25408,0 0.49996,0.03259 0.73303,0.0935c2.77588,-2.30472 6.06745,-5.11591 9.76364,-5.52685c11.09786,-1.23385 18.53304,7.80614 18.96847,17.29957c0.0914,1.99262 -0.10729,3.31874 -0.50934,4.59065c0.2034,-0.01749 0.40553,-0.03221 0.60539,-0.04496c6.26103,-0.39921 10.37313,4.48004 16.45864,3.93545zM330.91348,120.71209c0,0 -0.31693,0 -0.73347,-0.10075c-2.81819,1.74289 -5.63691,3.39581 -8.40866,5.1926c-1.28273,1.11958 -2.47519,2.33976 -3.60714,3.76541c-0.58411,0.73566 -1.93507,2.72411 -1.50357,3.88212c1.62732,4.36723 6.10326,3.44678 8.84887,1.27574c5.26293,-4.16157 5.55911,-7.7261 6.23791,-13.66295l0.16665,-0.35216c-0.33352,0 -0.66705,0 -1.00057,0zM227.30171,120.7976c-1.67308,1.3133 -3.37005,2.60213 -5.10218,3.84827c-0.2813,0.33869 -0.52746,0.69716 -0.71557,1.08837c-1.92317,3.99955 -1.42075,9.15578 4.26085,9.62971c9.35871,0.78065 9.28068,-12.52689 3.33327,-16.21038l-1.6955,1.5721l-0.03303,-0.03062zM145.16251,131.19751c-0.12264,0.63973 -0.16866,1.27422 -0.12269,1.89534c0.2777,3.75221 5.031,4.8448 7.70004,2.55931c3.87624,-3.31922 4.50571,-6.74075 4.6033,-11.04866c-0.04768,-0.5383 -0.0591,-1.07149 0.01684,-1.5883c0.00038,-0.19055 0.0004,-0.38283 0.00025,-0.5769v-1.64946c-3.99041,3.81087 -7.71042,7.70542 -12.19774,10.40868zM119.73245,105.13962c5.96145,-4.05617 14.07577,-9.80885 10.99614,-16.8567c-1.22398,-2.80112 -1.98972,-5.39611 -5.37186,-6.37756c-2.80851,-0.81499 -4.22485,5.78076 -4.46155,7.35547c-0.8038,5.34749 -1.13552,10.59886 -1.16272,15.87878zM93.82927,115.77748c-4.93641,0.39617 -9.92999,1.8756 -13.32931,5.15571c-4.45686,4.30056 -2.14611,14.79481 3.55512,17.48205c0.40393,0.19039 0.88903,-0.20482 1.28708,-0.40558c2.5501,-1.28616 4.01032,-2.54146 5.23443,-4.92757c2.45605,-5.45608 3.14732,-11.34507 3.25268,-17.30461zM236.61996,141.49669c-4.68633,4.43558 -9.31586,8.92124 -13.47465,13.84179c-3.04403,3.6016 -7.13465,8.83679 -5.58457,13.93162c0.72926,2.39692 2.48878,3.22357 4.37988,4.46564c1.2119,-0.08436 6.32832,-0.42744 6.57895,-0.53528c2.40311,-1.03406 3.59067,-4.16532 4.30167,-6.20247c1.39938,-4.0095 1.821,-7.8564 2.30767,-12.01549c0.49944,-4.2682 1.20217,-8.86569 1.49104,-13.4858z" fill="#ffffff" fill-rule="nonzero" stroke="none" stroke-width="0.5" stroke-linecap="butt" stroke-linejoin="miter"/><text transform="translate(246.73788,158.31064) scale(0.38106,0.38106)" font-size="40" xml:space="preserve" fill="#ffffff" fill-rule="nonzero" stroke="none" stroke-width="1" stroke-linecap="butt" stroke-linejoin="miter" stroke-miterlimit="10" stroke-dasharray="" stroke-dashoffset="0" font-family="&quot;OpenSans-VariableFont_wdthwght&quot;, Sans Serif" font-weight="normal" text-anchor="start" style="mix-blend-mode: normal"><tspan x="0" dy="0">Guess a word!</tspan></text></g></g></svg>