<svg version="1.1" xmlns="http://www.w3.org/2000/svg" xmlns:xlink="http://www.w3.org/1999/xlink" width="701.82343" height="517.91035" viewBox="0,0,701.82343,517.91035"><defs><radialGradient cx="240" cy="191.89991" r="285.04204" gradientUnits="userSpaceOnUse" id="color-1"><stop offset="0" stop-color="#909090"/><stop offset="1" stop-color="#1a1a1a"/></radialGradient><linearGradient x1="239.5" y1="-3" x2="239.5" y2="31" gradientUnits="userSpaceOnUse" id="color-2"><stop offset="0" stop-color="#ffffff"/><stop offset="1" stop-color="#c1c1c1"/></linearGradient></defs><g transform="translate(45.04204,133.11054)"><g data-paper-data="{&quot;isPaintingLayer&quot;:true}" fill-rule="nonzero" stroke-linecap="butt" stroke-linejoin="miter" stroke-miterlimit="10" stroke-dasharray="" stroke-dashoffset="0" style="mix-blend-mode: normal"><path d="M-45.04204,384.79981v-385.79981h566.78488c-0.06744,0.29258 -0.12166,0.58957 -0.1621,0.89043l-3.18261,20.96384c-2.46991,6.74128 -2.14166,14.07609 -3.20555,21.11499c-1.02312,6.76929 -2.5592,13.4917 -3.05549,20.30962c-0.03286,0.45144 -0.02753,29.69662 -0.02753,34.83366v2.13149c0,0 0,10.65745 11.73013,10.65745c0.41532,0 0.81592,-0.01336 1.20235,-0.03913v28.76204c-3.5094,2.74235 -7.85844,8.8628 -8.95185,11.98498c-0.81761,2.33468 -1.61095,7.02062 -1.6346,9.38215c-0.1543,15.39807 -2.42974,31.01894 0.44623,46.19434c3.30079,17.41702 6.67663,34.82249 10.14022,52.2134v80.05997c-0.25185,0.9384 -0.48852,1.87993 -0.74415,2.80892c-2.81697,10.23748 2.77679,21.03706 -0.83016,31.33617c-0.7514,2.14549 -4.72579,1.55751 -7.20009,1.68214c-15.28472,0.76992 -30.60889,0.61904 -45.91155,0.99317c-16.73713,0.4092 -33.25718,3.56016 -49.85984,5.52692c-5.03222,0.59611 -11.40634,2.15956 -17.80445,3.99324z" fill="url(#color-1)" stroke="none" stroke-width="0"/><path d="M380.63778,4.78034c0.64593,4.63588 0.01125,9.48333 0.98925,14.01898c3.59734,-0.34323 7.18226,-0.74638 10.77567,-1.296c2.18953,-0.33489 2.26141,-0.44288 4.65242,-0.31558c0.56014,0.02982 1.18188,0.51373 1.66677,0.23172c0.46524,-0.27056 0.48357,-0.98467 0.54689,-1.51912c0.27532,-2.32377 -0.08855,-5.15181 -0.46012,-7.43069c-0.37571,-2.30424 -1.55707,-4.8721 -2.21966,-7.36931c17.17784,0.26297 34.38427,-0.55296 51.5532,-0.04582c0.11818,0.00349 0.23633,0.00704 0.35445,0.01065c0.494,2.09822 1.09053,4.19119 1.5924,6.20472c0.42703,2.99096 0.4183,5.87871 0.64559,8.87608c0.26946,3.55359 1.1361,7.06031 1.24455,10.61642c0.06392,2.09598 -0.35795,4.57943 -0.01939,6.62322c0.16625,1.00358 0.77824,1.89419 0.97213,2.89281c0.21168,1.09032 0.26099,2.21339 0.23481,3.32376c-0.00881,0.37343 -0.66165,0.88115 -0.33838,1.06829c0.59327,0.34343 1.36969,-0.08103 2.05517,-0.07448c1.00007,0.00957 1.99803,0.09784 2.99784,0.12279c5.53378,0.13807 11.07827,0.05387 16.61344,0.05248c-0.10636,1.18808 -0.23016,2.37207 -0.39154,3.54727c-0.87222,6.3517 -2.18173,12.6594 -2.60482,19.05673c-0.02801,0.42359 -0.02347,27.86465 -0.02347,32.68479v0.03966c-1.76983,0.26885 -3.49868,0.8377 -5.28225,1.0096c-4.10802,0.39591 -8.43096,0.12008 -12.5581,0.12649c-6.20695,0.00964 -12.41387,0.0106 -18.62082,0.01158c-0.76273,0.00001 -1.52545,0.00002 -2.28819,0.00003c0.00019,0.2707 0.00023,0.54213 0.00023,0.81431v1.24123c0,0 -0.00001,1.55155 -1.55155,1.55155c-1.55155,0 -1.55154,-1.55155 -1.55154,-1.55155v-1.24123c0,-0.27224 0,-0.54363 -0.00011,-0.81427c-1.13282,0.00001 -2.26563,0.00003 -3.39845,0.00004h-2.48249c0,0 -0.27212,0 -0.58845,-0.11396c-0.48573,0.27929 -1.04245,0.2097 -1.04245,0.2097l-1.71107,-0.21492c-0.70817,-0.14128 -1.41632,-0.28256 -2.12449,-0.42384c0,0 -0.96457,-0.19291 -1.20405,-1.03957c-17.6555,2.04506 -35.29171,4.17319 -52.91808,6.46362c-10.82828,1.40706 -21.98016,3.572 -32.93891,3.18604c-0.51389,-0.0181 -1.03501,-0.03635 -1.56063,-0.05655c-0.10664,0.45891 -0.44273,1.18207 -1.50198,1.18207c-1.18337,0 -1.46418,-0.90256 -1.53081,-1.33091c-1.44259,-0.09225 -2.88007,-0.22365 -4.25826,-0.42969c-2.93151,-0.43823 -5.78066,-1.41881 -8.71042,-1.86511c-4.07297,-0.62045 -8.26218,-0.8229 -12.36208,-1.23689c-5.53415,-1.26601 -11.05217,-2.55886 -16.71977,-3.0963c-14.11036,-1.33803 -28.51637,-0.61307 -42.6698,-0.61307c-1.78152,0 -3.5624,-0.01637 -5.3429,-0.04379c-0.11014,0.45945 -0.45,1.16833 -1.49875,1.16833c-1.09235,0 -1.41564,-0.76906 -1.51132,-1.22429c-8.17655,-0.17545 -16.34812,-0.52087 -24.53982,-0.52087c-2.89622,0 -5.79244,0 -8.68866,0c-0.73026,0 -4.03396,0.04381 -4.45582,-0.18358c-0.72423,-0.3904 -0.8066,-1.48514 -1.45091,-1.99679c-0.47404,-0.37645 -1.21972,-0.21741 -1.73577,-0.53382c-1.6375,-1.00397 -3.12375,-2.93497 -4.73346,-4.06595c-2.50304,-5.95542 -3.79969,-12.26225 -5.10737,-18.56439c-0.5695,-2.74462 -1.52486,-5.43216 -2.03651,-8.17732c-0.15151,-0.81291 -0.29093,-1.62876 -0.4192,-2.4472c-0.58628,0.04892 -1.1761,0.07938 -1.77296,0.0809h-0.20687c0,0 -1.55154,0 -1.55154,-1.55154c0,-1.55154 1.55154,-1.55155 1.55154,-1.55155h0.20687c0.45155,0.00133 0.89873,-0.01738 1.34331,-0.04985c-1.28131,-10.35547 -0.99412,-21.05171 -1.04266,-31.39547c-0.00001,-9.3105 0,-18.62098 0,-27.93148c0,-1.60514 -0.14387,-3.21855 -0.06496,-4.8194h5.63228c16.34857,0 32.6917,-0.27592 49.0323,-0.69108c0,8.28629 0,16.57258 0,24.85887c9.02261,0.57236 18.06886,1.62545 27.14248,1.11118c3.02986,-0.17172 6.01648,-0.90929 8.99149,-1.45491c6.18162,-1.13371 12.27519,-2.21951 18.53606,-2.78433c4.81009,-0.43394 9.68826,-1.09085 14.5226,-0.52976c0.52521,0.06095 1.04289,0.17188 1.55789,0.29973c0,-2.61406 0,-5.55478 0,-8.03891c0,-2.00701 0,-4.21615 0,-6.39672l-0.00001,-0.00001c-0.12576,-0.00178 -0.22628,-0.00307 -0.29547,-0.00307c-3.88047,0 -7.69153,-0.02082 -11.53742,0.59962c-3.66767,0.59169 -7.39601,1.66223 -10.85417,3.01508c-2.56356,1.00287 -5.60593,3.4177 -8.30649,3.7966c-1.29886,0.18223 -2.60828,-0.27888 -3.91243,-0.41832c-0.47952,-4.43199 -0.29257,-8.80202 -0.36776,-13.21465c0.99781,0.05439 1.99566,0.10949 2.99355,0.16526c0.01578,0.87704 0.02265,1.75721 0.02287,2.64255c0.00069,2.80685 0.16703,5.46929 -0.45444,8.2126c3.02438,-1.20202 5.85192,-2.88288 8.88212,-4.06914c4.7092,-1.84356 9.64222,-2.98839 14.6552,-3.54529c2.97358,-0.33035 5.8888,-0.28742 8.87898,-0.28742c0.09832,0 0.19683,-0.00208 0.29547,-0.00548c0,-0.329 0,-0.65456 0,-0.9758c1.79254,0.11528 3.58515,0.23093 5.37783,0.34666c0.31634,1.06459 0.43662,2.1447 -0.1291,3.16985c-0.17176,0.31124 -1.09418,0.45942 -2.14565,0.52739c0,1.93989 0,3.87977 0,5.81966c0,2.89622 0,6.41306 0,9.30928v0.05706c0.1309,0.01575 0.26225,0.02843 0.3941,0.03751c2.41065,0.16602 5.1605,-1.08052 7.62541,-1.21137c9.06916,-0.48142 18.19395,-0.44475 27.27682,-0.44475c1.53987,0 3.07974,0 4.6196,0c-0.67696,-5.06606 -2.081,-10.03036 -2.90337,-15.09231c1.06025,0.06173 2.12051,0.12282 3.18077,0.18321c0.89386,5.0763 2.38042,10.02515 3.00427,15.15277c0.35499,0.20797 0.68396,0.59343 0.68396,1.30786c0,0.60789 -0.23818,0.97761 -0.52789,1.20248c0.03992,1.66204 0.10122,4.25589 0.10438,4.49206c0.00841,0.62648 0.15232,1.27184 0.0001,1.87959c-0.07115,0.28408 -0.88422,0.75404 -0.62538,0.61706c0.57766,-0.30572 1.00117,-0.87166 1.60023,-1.13298c3.6206,-1.57939 7.73083,-1.16539 11.56488,-1.64542c3.75784,-0.47049 7.43658,-1.18845 11.21452,-1.5044c1.32152,-0.11013 2.63956,-0.22072 3.95515,-0.33599c-0.85186,-4.53953 -0.32094,-9.25761 -0.96406,-13.87331c-0.22003,-1.57917 -0.49379,-3.15155 -0.79394,-4.72055c1.05952,0.04232 2.11904,0.08338 3.17854,0.12311c0.25874,1.38598 0.49453,2.77495 0.6888,4.16923zM428.19571,79.51024c-1.30116,-5.70539 -2.75869,-11.38797 -4.11555,-17.08175c-0.46664,-1.95815 -1.00219,-3.7779 -1.20289,-5.72501c-0.90428,0.10633 -1.81116,0.20936 -2.72163,0.30628c-8.52238,0.90724 -17.25369,-0.61533 -25.7802,-0.61533c0,0 -0.47975,0.00001 -0.90571,-0.26677c-1.36521,0.40939 -2.7799,0.5166 -4.4853,0.69699c-2.23961,0.23689 -4.44136,0.27281 -6.6478,0.25825c-0.16115,0.43602 -0.54032,0.94897 -1.43243,0.94897c-0.91621,0 -1.29138,-0.54104 -1.44501,-0.98413c-0.81525,-0.01104 -1.63362,-0.02009 -2.45725,-0.01967c-11.06192,0.00567 -22.33351,0.72738 -33.32099,1.98428c-4.17007,0.47616 -8.33327,0.79314 -12.52958,0.88817l-0.03095,0.00016c-0.38191,0.50139 -1.03425,0.61011 -1.03425,0.61011c-0.37962,0.0632 -0.7593,0.1248 -1.13903,0.1849c0.75603,0.40946 0.75603,1.37021 0.75603,1.37021c0,13.36276 0,26.72551 0,40.08826c0.54633,0.02104 1.08798,0.04003 1.6217,0.05933c10.77999,0.38963 21.77732,-1.7781 32.42842,-3.16214c18.47433,-2.40062 36.95947,-4.62312 55.46627,-6.75852c0,0 1.54131,-0.17785 1.71916,1.36348c0.01743,0.15104 0.01835,0.28899 0.00582,0.41496l1.55118,0.19289c0,0 0.17604,0.02201 0.40162,0.11067c0.40936,-0.23036 0.84438,-0.23036 0.84438,-0.23036h2.48246c1.12862,-0.00001 2.25724,-0.00004 3.38586,-0.00005c-0.04861,-4.92788 -0.28312,-9.67399 -1.41433,-14.63416zM326.60007,62.06588c0,0 0,-0.61746 0.38952,-1.07333c-7.45592,1.08343 -14.9343,1.65073 -22.44621,2.42752c-8.67649,0.89721 -17.50007,2.27576 -26.22361,2.28363c-5.21161,-0.00038 -10.44185,-0.37252 -15.6434,-0.84931v0.31458c0,0 0,1.55154 -1.55155,1.55154c-1.55154,0 -1.55155,-1.55154 -1.55155,-1.55154c0,-0.20295 0,-0.40619 0,-0.60969c-0.09467,-0.00927 -0.18932,-0.01855 -0.28397,-0.02785c-0.38656,1.1209 -1.65501,0.95178 -1.65501,0.95178c-7.17296,-0.9564 -14.17008,-3.2704 -21.40127,-3.66381c0.52173,4.40231 0.37736,8.83484 0.37736,13.27946c0,6.54107 0,13.08213 0,19.6232c1.76292,0.02694 3.52621,0.04299 5.2901,0.04299c14.25637,0 28.76293,-0.72231 42.97557,0.62817c5.73273,0.54473 11.32095,1.83035 16.91684,3.12221c4.09337,0.40509 8.27383,0.61291 12.33947,1.23326c2.91561,0.44488 5.75085,1.42095 8.6669,1.85861c1.23221,0.18494 2.5128,0.30564 3.80083,0.39157c0,-12.92426 0,-27.23394 0,-39.933zM388.65768,53.7388c2.0776,-0.22022 4.01742,-0.14733 5.64343,-1.3997c0,0 1.26254,-0.90182 2.16436,0.36073c0.1585,0.2219 0.25014,0.43265 0.29354,0.62933c7.67486,0.23221 15.51112,1.42779 23.14069,0.58809c7.54178,-0.83004 14.84717,-2.00964 22.46368,-2.074c2.48717,0.00975 4.40805,-0.62059 6.86319,-1.10331c3.1127,-0.61201 6.25912,-0.97715 9.41879,-1.19883c2.93424,-0.20586 5.88432,-0.47402 8.83514,-0.59666c0,-1.64608 0,-3.48568 0,-5.04548c-3.22716,0.01078 -6.45466,0.00567 -9.67813,-0.07809c-1.55718,-0.04046 -6.14827,-0.09306 -7.29163,-1.08698c-0.43118,-0.37482 -0.52662,-5.371 -0.62348,-5.85633c-0.20579,-1.03114 -0.82511,-1.9565 -0.99045,-2.99489c-0.34996,-2.19804 0.04382,-4.77823 -0.01938,-7.03038c-0.09835,-3.50475 -0.97281,-6.98007 -1.23792,-10.48462c-0.06655,-0.87961 -0.10983,-1.75 -0.14965,-2.61659c-0.71982,0 -2.15441,0 -2.63744,0c-1.88956,-0.0019 -3.55624,0.39678 -5.39599,0.60899c-4.38387,0.50565 -8.91722,-0.20171 -13.30147,0.21321c-1.64424,0.15561 -3.21582,0.77158 -4.84857,1.02029c-2.68252,0.40861 -5.36828,0.08953 -8.05695,0.22611c-3.65298,0.18557 -7.28196,0.61307 -10.94161,0.62064c-0.13573,1.36807 -0.58839,2.65886 -1.95453,3.61879c-0.54615,0.38376 -4.72601,0.1646 -5.66233,0.2272c-2.67226,0.17865 -5.34506,0.91078 -8.00385,1.23498c-1.4042,0.17122 -2.8163,0.30445 -4.23136,0.41999c0,10.68138 0,21.36277 0,32.04416c2.0575,0.01272 4.11221,-0.02515 6.20194,-0.24666zM204.33318,29.06477c0.42379,8.47076 0.00502,17.0699 0.00502,25.55369v0.79246c4.10288,0.16816 8.22827,0.56584 12.2058,0.77865c6.06432,0.32446 12.13718,0.52411 18.20306,0.8274c0,0 1.54961,0.07748 1.47213,1.62709c-0.00116,0.02325 -0.00266,0.04613 -0.00446,0.06865c6.69475,0.34837 13.16516,2.29673 19.7704,3.3862c0.23062,-0.63745 0.73403,-0.85123 1.13274,-0.9159c0.09947,-0.02002 0.20237,-0.03051 0.30773,-0.03051c0.09873,0 0.1953,0.00922 0.28891,0.02685l1.10671,0.18772c0.25058,0.02531 0.50126,0.0505 0.75204,0.07555c0,-12.60647 0,-26.05471 0,-38.47571c0,0 0,-0.20725 0.07574,-0.47025c-9.02256,0.39196 -18.02133,-0.67802 -26.99385,-1.21548c-0.1884,0.08332 -0.41848,0.13419 -0.69941,0.13419c-0.36957,0 -0.65111,-0.08803 -0.86558,-0.22215c-0.82862,-0.0433 -1.65702,-0.08108 -2.48518,-0.11174c-3.85075,-0.14364 -7.66551,-0.29672 -11.51958,-0.29672c-2.85904,0 -6.03935,0.30041 -8.87824,-0.01162c-1.50464,-0.16538 -3.02495,-0.43369 -4.55397,-0.71792c0.06423,0.24253 0.06441,0.42818 0.06441,0.42922c-0.00232,2.89941 0.47112,5.69252 0.61559,8.58033zM201.23511,54.61846c0,-8.43181 0.42005,-16.97996 -0.00115,-25.39863c-0.14697,-2.93773 -0.61725,-5.78429 -0.61947,-8.73539c0,0 0,-0.50416 0.28739,-0.9377c-2.69437,-0.47713 -5.40285,-0.84336 -8.08816,-0.63012c-3.71263,0.29483 -7.13285,1.57491 -10.80294,1.82567c0,2.02047 -0.00001,4.04093 -0.00001,6.0614c0.048,10.22154 -0.24919,20.79905 1.0207,31.03201c0.42793,-0.06054 0.85739,-0.12031 1.28999,-0.17365c3.59089,-0.90107 7.41662,-1.7258 11.09627,-2.08756c1.91141,-0.18791 3.85683,-0.25273 5.81739,-0.24038z" data-paper-data="{&quot;index&quot;:null}" fill="#000000" stroke="none" stroke-width="0.5"/><path d="" data-paper-data="{&quot;index&quot;:null}" fill="#000000" stroke="none" stroke-width="0.5"/><path d="M440.28742,-119.80481c-2.6254,-0.06517 -5.34456,-0.03575 -7.89829,-0.39916c-5.04256,-0.71761 -10.39067,-2.29262 -15.29795,-3.66604c-1.26491,-0.35402 -2.52328,-0.78154 -3.77922,-1.2437c-0.50035,5.61824 -0.73163,11.26206 -0.92983,16.90523c-1.03117,-0.11333 -2.06271,-0.21849 -3.09482,-0.31164c0.21093,-5.9256 0.46324,-11.85146 1.01499,-17.74863c-3.25335,-1.27765 -6.51278,-2.57954 -9.85058,-3.2287c-2.78893,-0.54242 -5.99626,-0.33897 -8.83834,-0.52625c-2.57695,0.73764 -5.46948,1.18346 -8.09805,2.0038c0.39886,0.45686 0.39886,1.08415 0.39886,1.08415c-0.00688,6.19163 1.22066,12.34968 2.13975,18.50595c-1.01963,0.03606 -2.05965,0.07291 -3.10866,0.11012c-0.91821,-6.19235 -2.12772,-12.37854 -2.13416,-18.61606c0,0 0,-0.00497 0.00028,-0.01435c-1.52198,0.78971 -2.88603,1.88344 -4.35303,2.77995c-1.70498,1.04192 -3.55732,1.87126 -5.12248,3.11338c-1.42012,1.12701 -2.45663,2.66695 -3.69027,3.99549c-1.23372,1.32862 -2.64487,2.51185 -3.75841,3.93799c0.26514,1.81853 0.52345,3.63709 0.77969,5.45533c-1.27869,0.04577 -2.34149,0.08385 -3.11784,0.11167c-0.05138,-0.36409 -0.10285,-0.72819 -0.15446,-1.0923c-0.16594,0.37182 -0.32887,0.74486 -0.49069,1.11542c-0.41379,0.01483 -0.67538,0.0242 -0.76034,0.02724l-2.68114,0.09576c1.08227,-2.35218 2.10578,-5.00251 3.54726,-7.04175c0.09057,-0.12813 4.16611,-4.50991 4.36202,-4.72089c1.32972,-1.43201 2.47158,-3.06818 3.99979,-4.28612c0.12016,-0.09576 5.23032,-3.21333 5.46878,-3.35905c0.23569,-0.14404 5.35844,-3.28033 5.49178,-3.33767c3.34944,-1.44025 7.42734,-2.04194 10.96402,-2.9549c3.01518,0.15922 6.44955,-0.01675 9.44492,0.51092c1.04654,0.36744 2.12492,0.66721 3.22988,0.89408c0.65125,0.19109 1.30376,0.37734 1.95742,0.55918c2.39551,0.84758 4.77896,1.84891 7.0766,2.62418c8.37607,2.82628 17.04486,5.10808 25.87531,5.52498c2.06642,0.09756 4.13357,0.18119 6.19928,0.29268c0.86053,0.04645 1.733,0.31716 2.58037,0.16023c0.05404,-0.01001 0.10788,-0.02068 0.16153,-0.03199c1.90218,0.29016 3.80378,0.58661 5.70495,0.88802c-1.58291,0.66799 -5.14068,2.16561 -5.32417,2.19929c-0.15092,0.02771 -2.9678,-0.10021 -4.80825,-0.18732c-0.43328,4.14758 -0.98809,8.33431 -1.36934,12.5124c-1.04165,0.04433 -2.08331,0.08865 -3.12496,0.13298c0.379,-4.26442 0.94263,-8.53827 1.38782,-12.77391z" data-paper-data="{&quot;index&quot;:null}" fill="#000000" stroke="none" stroke-width="0.5"/><path d="M478.285,-117.5296c1.00808,2.89891 2.01725,5.79514 3.02027,8.69212c-1.09106,0.04702 -2.18212,0.09393 -3.27318,0.14071c-1.09228,-3.15918 -2.18573,-6.31927 -3.26781,-9.48566c1.16609,0.19624 2.33219,0.39247 3.49832,0.58836c0.00746,0.02149 0.01493,0.04298 0.0224,0.06447z" data-paper-data="{&quot;index&quot;:null}" fill="#000000" stroke="none" stroke-width="0.5"/><path d="" data-paper-data="{&quot;index&quot;:null}" fill="#000000" stroke="none" stroke-width="0.5"/><path d="M238.06406,193.41918c0,-5.4605 -0.19754,-10.96033 0.00172,-16.41594c0.22401,-6.13345 1.11407,-12.33073 1.75708,-18.44832c-2.6254,-0.06517 -5.34456,-0.03575 -7.89829,-0.39917c-5.04256,-0.71761 -10.39068,-2.29262 -15.29794,-3.66604c-1.26491,-0.35402 -2.52327,-0.78153 -3.77922,-1.24369c-0.77427,8.69405 -0.90422,17.44936 -1.26434,26.16872c-0.11062,2.67829 -0.65925,5.25495 -0.83019,7.90926c-0.15829,2.45777 -0.02462,4.9759 0.00019,7.44781c0.40203,0.48002 0.80488,0.95513 1.21332,1.41802c2.875,3.25833 5.94132,6.15241 9.21674,9.01645c0.97887,0.85593 3.5932,2.27478 4.3873,3.86821c0.10806,-1.0804 0.40986,-3.44164 0.49537,-4.12562c0.40976,-3.68818 0.90569,-7.37885 1.23291,-11.07504c0.11568,-1.30663 -0.46949,-2.85534 0.29049,-3.9245c2.66618,-3.7508 7.183,1.25041 9.05945,2.94547c0.47938,0.43305 0.95061,0.8789 1.41541,1.33439zM241.16544,177.1492c-0.19409,5.40728 0.00172,10.85791 0.00172,16.26998v1.44811c0,0 0,1.18293 -1.0329,1.483c1.74629,1.85514 3.43551,3.78355 5.17011,5.59943c1.90879,1.99824 4.07818,3.84364 5.86879,5.94162c1.73671,2.03484 2.92283,4.84778 4.84647,6.70158c0.41664,0.40151 0.8756,0.75408 1.34384,1.09593c0.15066,-0.50631 0.34269,-1.00902 0.46004,-1.51821c0.66878,-2.90181 1.02868,-4.84454 1.12436,-7.79862c0.03711,-1.1459 -0.36235,-2.45118 0.01953,-3.49369c-0.08427,-0.46743 -0.03655,-1.18042 0.83815,-1.61777c0.39887,-0.19944 0.74042,-0.2269 1.02464,-0.16479c0.62275,-0.29883 1.31137,-0.49299 1.96214,-0.60801c1.18933,-0.21022 2.37344,0.44987 3.55535,0.69848c1.99266,0.41916 3.90343,1.24887 5.68588,2.23338c2.54,1.40293 5.56685,2.51066 7.95014,4.1473c1.62186,1.11375 3.12851,2.52545 4.63082,3.90234c1.02365,-1.73892 2.06395,-3.46818 3.07003,-5.21732c0.36286,-0.63085 0.97371,-1.18523 1.06191,-1.90762c0.08167,-0.66885 -0.41424,-1.28284 -0.59304,-1.93249c-0.27159,-0.98681 -0.50515,-1.9837 -0.75773,-2.97556c-4.09955,-13.65963 -8.9325,-27.02978 -13.52868,-40.52734c-1.33465,-3.91944 -2.61972,-7.85668 -3.92834,-11.7849c-0.28646,-0.8599 -0.73509,-1.6845 -0.92727,-2.56497c-2.13976,2.43653 -4.45317,4.64762 -6.79973,6.91393c-0.81314,0.78533 -1.5061,1.72213 -2.44836,2.34669c-0.15811,0.1048 -5.64806,2.40742 -5.97496,2.54506c-0.38836,0.16352 -5.82284,2.46422 -6.05076,2.50606c-0.15092,0.02771 -2.96779,-0.10021 -4.80824,-0.18732c-0.63946,6.12117 -1.5436,12.32763 -1.76392,18.46573zM207.65772,187.10198c0.17115,-2.62428 0.71749,-5.16644 0.82479,-7.81308c0.36748,-9.06394 0.51004,-18.16458 1.35521,-27.19793c-3.25335,-1.27764 -6.51278,-2.57953 -9.85058,-3.2287c-2.78892,-0.54241 -5.99626,-0.33897 -8.83834,-0.52625c-2.57694,0.73764 -5.46947,1.18346 -8.09805,2.0038c0.39887,0.45686 0.39887,1.08416 0.39887,1.08416c-0.00902,8.11449 2.10216,16.17131 2.86057,24.24204c0.36378,3.87123 0.84013,7.71429 1.26648,11.57447c0.3663,3.31647 0.3796,6.53295 0.74479,9.78974c0.21792,-0.70104 0.40267,-1.40617 0.52374,-2.11879c0.43203,-2.5429 0.39472,-5.26176 0.59453,-7.83816c0.07686,-1.28641 -0.51714,-2.80963 0.23058,-3.85924c0.84932,-1.19225 2.46002,-1.99572 3.92366,-1.97233c1.30307,0.02083 2.21822,1.36943 3.30554,2.08788c2.3246,1.53598 4.63741,3.08049 6.98633,4.58497c1.36903,0.87687 2.57348,1.98022 3.69925,3.17867c-0.01837,-1.33691 -0.01338,-2.67252 0.07262,-3.99125zM185.72522,201.07347l0.03013,-0.31634c-0.88478,-4.4261 -0.76326,-8.71111 -1.26097,-13.15791c-0.43463,-3.88317 -0.90859,-7.74845 -1.2737,-11.64321c-0.76646,-8.17593 -2.86566,-16.30939 -2.87415,-24.53203c0,0 0,-0.00497 0.00028,-0.01435c-1.52198,0.78971 -2.88603,1.88344 -4.35303,2.77995c-1.70498,1.04193 -3.55732,1.87126 -5.12247,3.11338c-1.42012,1.12701 -2.45663,2.66695 -3.69027,3.99549c-1.23372,1.32863 -2.64487,2.51185 -3.75841,3.938c1.3818,9.47737 2.57804,18.95548 4.262,28.38563c0.47195,2.64291 0.70813,5.50199 1.43867,8.08708c0.7423,2.62668 1.30491,3.07605 2.12271,5.73898c0.91208,2.96995 1.45418,6.13367 2.16948,9.15793c2.12391,8.9803 4.20791,18.06485 5.39316,27.22091c1.32552,-1.26261 2.66434,-2.51084 4.02169,-3.73917c-0.21856,-0.40298 -0.21856,-0.82303 -0.21856,-0.82303c0.0014,-8.20602 0.79973,-16.22628 1.99157,-24.33081c0.58179,-3.95616 0.8697,-8.11211 1.7703,-12.00708c0.03686,-0.15942 0.07642,-0.31856 0.11832,-0.47747c-0.76676,-0.40614 -0.76676,-1.37596 -0.76676,-1.37596zM170.39571,217.32031c-0.69952,-2.9576 -1.22298,-6.05638 -2.11592,-8.96073c-0.611,-1.9873 -1.59205,-3.85174 -2.15539,-5.85307c-0.75177,-2.67074 -1.00716,-5.6096 -1.49454,-8.33894c-1.45126,-8.12706 -2.54232,-16.28943 -3.69985,-24.45642c-0.56823,1.27317 -1.10108,2.56078 -1.67506,3.71342c-2.65951,5.34062 -5.20432,10.7486 -7.67412,16.17965c3.32732,6.31672 4.64068,13.34346 7.32936,19.89775c1.3966,3.40454 3.45905,6.54743 4.95666,9.91027c3.60736,8.10026 6.34416,16.96442 8.87632,25.44995c0.38389,1.28645 0.72961,2.57156 1.04544,3.85697v-0.00001c0.73785,-0.73232 1.47784,-1.46228 2.22091,-2.18886c-1.08863,-9.82933 -3.3367,-19.58287 -5.6138,-29.20998zM208.36746,224.05963c1.55155,0 1.55155,1.55155 1.55155,1.55155c-0.03937,0.4227 -0.27312,0.87289 -0.1181,1.2681c0.06018,0.15343 0.17757,0.26513 0.31583,0.3616c0.06211,-0.00272 0.12419,-0.00536 0.18624,-0.00792l-0.07365,-0.07024c0,0 0.17231,0 0.40208,0.05742c1.12086,-0.04131 2.23115,-0.05742 3.32163,-0.05742c3.08358,0 6.45886,-0.34321 9.51883,0.01422c0.03431,0.004 0.06858,0.0082 0.10282,0.01258c0.02555,-1.81797 0.2756,-3.91716 0.01797,-5.67415c-0.09491,-0.64727 -0.54083,-1.21255 -0.62062,-1.86186c-0.34587,-2.8146 -0.02399,-6.04062 -0.02007,-8.88518c-1.23991,-1.11308 -2.56204,-2.13351 -3.81666,-3.23062c-2.11157,-1.84648 -4.27884,-3.70092 -6.28477,-5.65959c-1.47707,-1.44227 -2.79565,-3.05847 -4.10505,-4.68451c-0.84665,-0.21048 -1.03671,-0.99593 -1.07938,-1.33797c-1.26921,-1.56199 -2.56802,-3.09121 -4.0305,-4.44034c-2.43244,-2.24393 -5.91881,-3.49002 -8.53972,-5.56063c-0.02767,-0.02186 -0.05494,-0.04435 -0.08186,-0.06739c0.07182,0.74002 -0.18914,1.54138 -0.02155,2.27481c0.66823,2.92431 2.8441,5.55256 3.6432,8.45695c0.45536,1.65503 0.18326,3.46129 0.67928,5.10459c0.76144,2.52262 2.2336,4.83657 3.06959,7.33909c0.32193,0.9637 0.46493,1.98513 0.83337,2.93203c1.65243,4.24681 4.19173,7.11059 4.21862,11.85456v0.57616c0.22169,-0.15838 0.52257,-0.26585 0.93093,-0.26585zM240.019,236.472c-1.55155,0 -1.55155,-1.55155 -1.55155,-1.55155l0.0001,-0.61889c-3.50734,-0.79494 -6.95846,-1.68624 -10.42912,-2.65031c-1.66316,-0.46199 -3.27053,-1.205 -4.98565,-1.39966c-2.92524,-0.33201 -6.15366,0.01422 -9.09973,0.01422c-6.52676,0 -13.93269,0.52869 -19.66089,4.11023c-1.69365,1.05896 -3.05949,2.56885 -4.59398,3.84759c-3.68707,3.07175 -7.17737,6.34507 -10.62286,9.67136c-0.07631,0.41626 -0.34699,1.16825 -1.30707,1.26588c-1.06089,1.03025 -2.11934,2.06374 -3.17983,3.09612l-0.00002,0.00001c0.96521,4.63626 1.64148,9.29605 2.41609,14.05625c0.91539,5.62542 2.38228,11.18252 3.16872,16.82683c0.64593,4.63588 0.01126,9.48333 0.98925,14.01898c3.59734,-0.34323 7.18226,-0.74638 10.77566,-1.29601c2.18952,-0.33489 2.26141,-0.44288 4.65242,-0.31558c0.56015,0.02982 1.18188,0.51372 1.66678,0.23172c0.46523,-0.27056 0.48357,-0.98467 0.5469,-1.51913c0.27531,-2.32377 -0.08855,-5.1518 -0.46013,-7.43069c-0.55479,-3.40255 -2.86628,-7.37991 -2.67011,-10.85583c0.05762,-1.02107 0.29514,-2.17273 1.02092,-2.89326c0.89169,-0.88524 2.28456,-1.04774 3.4418,-1.53719c2.0035,-0.84737 4.14974,-1.3753 6.30072,-1.69982c2.65921,-0.39213 5.37859,-0.84633 8.06526,-0.98003c1.82501,-0.09082 3.66893,0.23821 5.48179,0.00925c2.87873,-0.36358 5.70633,-1.4336 8.61882,-1.73424c2.69257,-0.27794 5.62305,-0.13917 8.32746,-0.13924c3.14848,-0.00008 8.40441,-1.34451 10.1221,2.19903c0.1838,0.37917 0.09825,5.28933 0.10947,5.39524c0.38701,3.65312 1.5731,7.46938 2.46217,11.03633c0.42703,2.99096 0.41831,5.87871 0.64559,8.87607c0.26946,3.55359 1.1361,7.06031 1.24455,10.61641c0.06392,2.09598 -0.35795,4.57943 -0.01938,6.62323c0.16625,1.00358 0.77824,1.8942 0.97212,2.89281c0.21168,1.09032 0.26099,2.21339 0.2348,3.32375c-0.00881,0.37343 -0.66165,0.88115 -0.33838,1.0683c0.59327,0.34343 1.36969,-0.08103 2.05517,-0.07447c1.00008,0.00956 1.99804,0.09784 2.99785,0.12278c5.57963,0.13922 11.17017,0.05247 16.75105,0.05247c1.09159,0 2.22289,0.36073 3.2741,0.06657c1.4267,-0.39923 1.59425,-1.78493 2.16496,-2.93261c0.35908,-0.7221 0.94547,-1.35749 1.11894,-2.14508c0.19696,-0.89421 -0.03501,-1.831 -0.04151,-2.74662c-0.02201,-3.10266 0,-6.20653 0,-9.30928c0,-2.50386 -0.55789,-5.02081 1.85101,-6.81859c0.96373,-0.71924 2.25901,-0.82566 3.39499,-1.22019c1.54895,-0.53795 3.05613,-1.25491 4.6697,-1.54649c0.75099,-0.13571 5.41758,-0.50759 6.27102,-0.63488c3.98756,-0.59473 7.94589,-1.63373 11.88257,-2.49331c0.16752,-0.00047 6.10648,-0.02028 6.37506,-0.00922c1.33919,0.05514 2.93983,-0.51372 4.0103,0.29286c1.13148,0.85257 1.28067,2.55679 1.60264,3.93645c0.65852,2.82183 0.17006,6.62984 0.2361,9.53732c0.10025,4.413 1.07342,8.743 1.28508,13.13398c0.20043,4.15813 0.20473,8.34718 0.1572,12.53812c0.43818,0.07427 1.30357,0.36762 1.30357,1.52637c0,1.19689 -0.92329,1.47048 -1.3454,1.53301c-0.05093,3.32282 -0.11237,6.64236 -0.11237,9.94415c0,1.58634 -0.28156,3.19543 -0.01373,4.75901c0.64948,3.79159 2.22902,7.35283 2.49109,11.25119c0.00642,0.09558 0.00511,5.19782 0.00511,5.71145c0,1.50043 0.51737,4.86834 -0.1181,6.17932c-1.45237,2.99619 -2.89844,1.96508 -5.66779,2.19513c-1.024,0.08507 -2.02749,0.35124 -3.05141,0.43725c-3.48027,0.29236 -6.94899,0.27474 -10.41673,0.30848c0.00001,0.02413 0.00001,0.04827 0.00001,0.0724v3.10309c0,0 0,1.55155 -1.55155,1.55155c-1.55155,0 -1.55155,-1.55155 -1.55155,-1.55155c0,-0.0063 0,-3.11569 0,-3.122c-2.13343,0.05938 -4.26769,0.17898 -6.40524,0.44292c-6.06783,0.00568 -11.97078,0.95309 -17.99794,1.24124c-2.05208,0.09811 -4.11714,-0.18777 -6.16326,-0.00327c-2.05721,0.1855 -4.04054,0.91116 -6.09658,1.10931c-4.10802,0.39591 -8.43095,0.12008 -12.5581,0.12649c-6.20694,0.00964 -12.41387,0.01061 -18.62082,0.01159c-0.76273,0.00001 -1.52546,0.00002 -2.28819,0.00003c0.00019,0.2707 0.00023,0.54212 0.00023,0.81431v1.24124c0,0 0,1.55155 -1.55155,1.55155c-1.55155,0 -1.55155,-1.55155 -1.55155,-1.55155v-1.24124c0,-0.27223 0,-0.54363 -0.00011,-0.81427c-1.13282,0.00001 -2.26563,0.00003 -3.39845,0.00004h-2.48249c0,0 -0.27213,0 -0.58845,-0.11396c-0.48573,0.27929 -1.04245,0.2097 -1.04245,0.2097l-1.71107,-0.21493c-0.70816,-0.14128 -1.41632,-0.28256 -2.12448,-0.42384c0,0 -0.96458,-0.19291 -1.20406,-1.03957c-17.6555,2.04506 -35.29171,4.17319 -52.91807,6.46362c-10.82828,1.40706 -21.98016,3.572 -32.9389,3.18604c-0.51389,-0.0181 -1.03502,-0.03636 -1.56064,-0.05655c-0.10664,0.4589 -0.44273,1.18207 -1.50198,1.18207c-1.18337,0 -1.46418,-0.90256 -1.53081,-1.33091c-1.44258,-0.09224 -2.88006,-0.22365 -4.25826,-0.42969c-2.9315,-0.43824 -5.78065,-1.4188 -8.71042,-1.86511c-4.07297,-0.62045 -8.26218,-0.82291 -12.36208,-1.23689c-5.53416,-1.26601 -11.05217,-2.55886 -16.71977,-3.0963c-14.11036,-1.33803 -28.51638,-0.61307 -42.6698,-0.61307c-1.78152,0 -3.5624,-0.01637 -5.3429,-0.0438c-0.11013,0.45945 -0.45,1.16833 -1.49874,1.16833c-1.09236,0 -1.41564,-0.76906 -1.51132,-1.22429c-8.17655,-0.17545 -16.34811,-0.52087 -24.53982,-0.52087c-2.89622,0 -5.79244,0 -8.68866,0c-0.73026,0 -4.03396,0.04382 -4.45582,-0.18359c-0.72423,-0.39039 -0.8066,-1.48513 -1.45091,-1.99679c-0.47404,-0.37645 -1.21971,-0.21742 -1.73577,-0.53382c-1.6375,-1.00397 -3.12375,-2.93497 -4.73346,-4.06595c-2.50304,-5.95542 -3.79969,-12.26224 -5.10737,-18.5644c-0.5695,-2.74462 -1.52485,-5.43216 -2.03651,-8.17732c-0.15151,-0.8129 -0.29093,-1.62876 -0.4192,-2.4472c-0.58627,0.04892 -1.1761,0.07938 -1.77295,0.0809h-0.20687c0,0 -1.55155,0 -1.55155,-1.55155c0,-1.55155 1.55155,-1.55155 1.55155,-1.55155h0.20687c0.45156,0.00133 0.89872,-0.01738 1.34331,-0.04985c-1.28131,-10.35547 -0.99412,-21.05171 -1.04266,-31.39547c-0.00001,-9.3105 -0.00001,-18.62098 -0.00001,-27.93148c0,-1.91282 -0.2043,-3.8374 0.00755,-5.73845c0.19237,-1.7262 0.90685,-3.35571 1.25325,-5.05771c0.16873,-0.82906 -0.26885,-1.87388 0.2733,-2.52342c1.24432,-1.49079 3.36127,-1.25789 4.98239,-1.26496c1.64086,-0.00716 3.28186,-0.00558 4.92283,-0.00326c0.444,-0.61735 1.28335,-0.61735 1.28335,-0.61735c7.86117,0 15.72234,0 23.58351,0c2.98201,0 5.43198,0.06901 8.3517,0.79893c0.59021,0.14755 1.19959,0.23646 1.76778,0.45393c0.22597,0.08649 0.55654,0.68406 0.57517,0.44281c0.0528,-0.68357 -0.3937,-1.32308 -0.45444,-2.00598c-0.23482,-2.64003 0,-5.41322 0,-8.06804c0,-5.17182 0,-10.34365 0,-15.51546c0,-0.88274 -0.02891,-4.66494 0.14648,-5.00243c1.42948,-2.75046 5.11539,-4.02295 7.76291,-4.70283c3.64647,-0.93641 7.47767,-1.28804 11.3536,-1.38179c0.08733,-0.3996 0.35027,-0.82811 1.02224,-1.0521c1.47193,-0.49064 1.96257,0.98128 1.96257,0.98128c0.00475,0.0147 0.00948,0.0294 0.01417,0.0441c4.32088,0.01926 8.65251,0.25293 12.80298,0.25293c0.70237,0 4.14906,-0.04911 4.50248,0.2096c2.2398,1.63957 3.49846,6.06345 3.75839,8.59972c0.52681,5.14049 0.27362,10.36768 0.72078,15.49914c0.3437,3.94431 1.38469,7.86902 1.86735,11.80642c0.4921,4.0144 0.63147,7.94487 0.63246,11.98263c0.00069,2.80685 0.16703,5.46929 -0.45444,8.2126c3.02438,-1.20201 5.85192,-2.88288 8.88212,-4.06914c4.7092,-1.84356 9.64222,-2.98839 14.6552,-3.54529c2.97358,-0.33034 5.8888,-0.28743 8.87898,-0.28743c0.09832,0 0.19684,-0.00208 0.29547,-0.00549c0,-0.56593 0,-1.12169 0,-1.66276c0,0 0,-1.35567 1.26721,-1.53259c-0.90372,-4.35371 -0.63175,-8.83238 -0.63175,-13.24555c0.11722,-0.9485 -0.34801,-2.19448 0.35167,-2.84552c0.58416,-0.54355 5.91863,-1.56004 7.00543,-1.75952c4.73276,-0.8687 9.74412,-2.16927 14.53743,-2.52597c2.88568,-0.21475 5.93123,-0.0061 8.82608,-0.0061c1.35801,0 5.99272,-0.52968 7.11339,0.29286c0.37358,0.2742 2.15962,5.22312 2.25574,5.48127c1.72172,4.62394 1.58348,9.95189 1.96057,14.84833c0.51905,6.76056 2.80107,13.14552 3.6149,19.83471c0.35499,0.20797 0.68396,0.59343 0.68396,1.30787c0,0.6079 -0.23817,0.97762 -0.52789,1.20248c0.03992,1.66204 0.10122,4.25589 0.10438,4.49206c0.0084,0.62648 0.15231,1.27183 0.0001,1.87959c-0.07115,0.28408 -0.88422,0.75405 -0.62538,0.61706c0.57766,-0.30572 1.00117,-0.87167 1.60023,-1.13298c3.6206,-1.57939 7.73083,-1.16539 11.56488,-1.64542c3.75784,-0.47049 7.43657,-1.18844 11.21452,-1.5044c1.32151,-0.11013 2.63956,-0.22072 3.95515,-0.336c-0.85186,-4.53953 -0.32095,-9.25761 -0.96406,-13.87331c-0.78221,-5.61401 -2.24357,-11.14222 -3.15495,-16.73754c-0.61225,-3.75886 -1.15803,-7.45387 -1.8388,-11.12417c-0.289,0.06912 -0.63865,0.04594 -1.04897,-0.15922c-1.38775,-0.69387 -0.69387,-2.08162 -0.69387,-2.08162l0.92357,-1.81589c-0.43466,-1.96773 -0.92992,-3.93249 -1.51715,-5.90036c-2.49742,-8.3691 -5.18827,-17.12539 -8.75311,-25.11052c-1.50691,-3.37543 -3.5691,-6.5303 -4.97324,-9.94953c-1.7419,-4.24171 -2.73751,-8.79477 -4.36392,-13.08268c-1.01768,-2.68305 -2.22256,-5.28001 -3.20157,-7.9804c2.2033,-6.03787 5.13483,-11.83225 7.99938,-17.58502c1.28914,-2.58894 2.39808,-5.77124 4.0679,-8.13351c0.09057,-0.12813 4.16611,-4.5099 4.36202,-4.72089c1.32972,-1.43201 2.47158,-3.06819 3.99979,-4.28613c0.12016,-0.09576 5.23031,-3.21332 5.46877,-3.35905c0.23569,-0.14403 5.35843,-3.28033 5.49178,-3.33767c3.34944,-1.44025 7.42734,-2.04195 10.96402,-2.9549c3.11742,0.16461 6.68295,-0.02908 9.74809,0.56707c3.99588,0.77716 8.09948,2.71842 11.96074,4.0213c8.37607,2.82628 17.04486,5.10808 25.87531,5.52498c2.06642,0.09756 4.13356,0.18118 6.19928,0.29268c0.86053,0.04645 1.733,0.31717 2.58037,0.16023c1.92179,-0.35591 3.58761,-1.5522 5.38892,-2.31065c1.8181,-0.76551 3.82044,-1.18176 5.46473,-2.27164c0.78213,-0.51842 1.32855,-1.32553 1.99779,-1.98326c2.57133,-2.5271 5.14784,-4.92556 7.45353,-7.69628l1.10896,-1.33075c0.28455,-0.34641 0.71623,-0.56738 1.19952,-0.56738c0.73838,0 1.35629,0.51579 1.51309,1.20673l0.61275,2.45099l-0.12602,0.0315c2.36,5.67617 3.99505,11.6856 6.01189,17.48541c4.36409,12.54975 8.74874,25.04925 12.56557,37.77706c0.07894,0.30971 1.48978,5.7114 1.44579,6.0688c-0.32914,2.67423 -3.25084,6.17056 -4.59322,8.45262c-0.08199,0.13938 -0.16445,0.27838 -0.24737,0.417l1.9567,0.67411c0,0 1.46158,0.52065 0.94093,1.98223c-0.52065,1.46158 -1.98224,0.94093 -1.98224,0.94093l-2.4606,-0.89979c-0.035,-0.02787 -0.06998,-0.05584 -0.10493,-0.08393c-3.15427,4.73537 -6.91139,8.96875 -11.36594,12.61783c-0.03406,0.0279 -4.50143,3.69478 -4.6587,3.77856c-6.85441,3.65115 -14.49471,3.19205 -21.9746,3.27634c-1.98756,0.01167 -3.87441,-0.37431 -5.77662,-0.81598c-0.03004,0.33775 -0.22895,1.4561 -1.5462,1.4561zM230.32913,192.04805c0.39124,0.2757 0.83824,0.49407 1.25201,0.74662c-0.36753,-0.3556 -0.72748,-0.71984 -1.13337,-1.02947c-0.09043,-0.06898 -0.3387,-0.11516 -0.34122,-0.00145c-0.00124,0.05582 -0.00076,0.11156 0.00119,0.1672c0.13822,0.06164 0.2214,0.1171 0.2214,0.1171zM233.89962,196.82899c0.86647,1.90019 1.77567,3.78342 2.5468,5.72425c1.52186,3.83035 2.91817,8.15005 3.54074,12.24371c0.08076,0.53104 0.26075,5.61669 0.33105,6.26341c0.39606,3.64343 0.96394,7.12237 1.19054,10.76441c1.91412,0.46925 3.81823,0.9397 5.79808,0.90424c3.10986,-0.03505 6.60652,0.32249 9.83793,0.13446c-0.85014,-2.67623 -0.67936,-5.05822 -0.67936,-7.87292c0,-1.82609 -0.05885,-3.33848 0.1533,-4.91228c-0.03351,-0.06947 -0.062,-0.14182 -0.08499,-0.21658l-0.49429,-1.48285c-3.20729,-2.35533 -4.66743,-5.47458 -7.22656,-8.47301c-3.07382,-3.60147 -6.76273,-6.87038 -10.03924,-10.30029c-2.02458,-2.11937 -3.95595,-4.02936 -6.16699,-5.90364c0.64029,0.92206 0.82548,2.10185 1.29299,3.1271zM263.20822,204.62723c0.28349,0.86498 -0.00007,1.89762 0.43833,2.69534c0.29583,0.53831 1.10134,0.56695 1.57162,0.96206c1.48502,1.24764 3.14203,2.45139 4.07882,4.14972c0.43605,0.79053 0.33245,1.78998 0.68938,2.61924c0.28713,0.66711 0.8944,1.15672 1.2161,1.80786c0.25201,0.51009 0.11744,1.20249 0.48552,1.63633c0.66919,0.78873 1.82073,1.06687 2.48247,1.86186c0.36974,0.44419 0.30603,1.11463 0.45905,1.67195l1.25539,0.2458c0,0 0.26056,0.08685 0.52588,0.2971c2.48924,-2.63642 4.68942,-5.55076 6.57251,-8.45875c-1.54105,-1.39648 -3.08029,-2.83657 -4.73103,-3.9737c-2.31009,-1.59133 -5.26629,-2.63506 -7.72571,-4.00985c-2.11995,-1.18503 -4.83787,-2.47919 -7.35509,-2.5646c-0.15356,-0.00521 -0.29146,-0.00288 -0.41511,0.00644c0.17451,0.34131 0.33261,0.68932 0.45187,1.0532zM304.0117,348.60942c1.025,6.90127 1.38774,13.9297 1.46552,20.91338c3.38655,-0.0272 6.77404,-0.00979 10.1728,-0.298c1.90019,-0.16114 3.81329,-0.14565 5.71173,-0.32623c0.18844,-0.01792 0.36986,-0.21493 0.40155,-0.40155c0.24905,-1.46704 -0.1181,-3.48289 -0.1181,-4.99182c0,-1.8199 0.1246,-3.64372 0.00511,-5.45969c-0.25255,-3.83844 -1.85465,-7.34953 -2.47386,-11.09107c-0.28143,-1.70051 -0.01373,-3.44726 -0.01373,-5.17089c0,-3.29089 0.06098,-6.59914 0.11158,-9.91053c-3.14312,0.04504 -6.32336,0.16049 -9.43889,-0.09021c-2.65833,-0.21391 -4.9227,-0.76189 -7.57848,-0.75335c-0.77534,-0.05538 -1.55101,-0.09982 -2.32695,-0.1349c0.28025,5.97839 3.20738,11.82795 4.08173,17.71486zM227.73114,357.86997c-1.30116,-5.70539 -2.75869,-11.38797 -4.11556,-17.08174c-0.46664,-1.95816 -1.00218,-3.7779 -1.20288,-5.72501c-0.90428,0.10632 -1.81116,0.20936 -2.72163,0.30628c-8.52238,0.90724 -17.25369,-0.61533 -25.7802,-0.61533c0,0 -0.47975,0 -0.90571,-0.26677c-1.36521,0.40939 -2.77989,0.51661 -4.4853,0.69699c-2.23961,0.23689 -4.44136,0.27281 -6.6478,0.25825c-0.16115,0.43602 -0.54032,0.94897 -1.43242,0.94897c-0.91621,0 -1.29139,-0.54104 -1.44502,-0.98413c-0.81525,-0.01104 -1.63362,-0.02008 -2.45725,-0.01966c-11.06192,0.00567 -22.33351,0.72738 -33.32099,1.98427c-4.17007,0.47616 -8.33328,0.79314 -12.52958,0.88817l-0.03094,0.00016c-0.3819,0.50139 -1.03425,0.61011 -1.03425,0.61011c-0.37962,0.0632 -0.7593,0.1248 -1.13903,0.1849c0.75603,0.40946 0.75603,1.37021 0.75603,1.37021c0,13.36276 0,26.72551 0,40.08826c0.54634,0.02104 1.08798,0.04004 1.62169,0.05933c10.77999,0.38962 21.77732,-1.7781 32.42843,-3.16214c18.47433,-2.40061 36.95947,-4.62312 55.46627,-6.75852c0,0 1.54132,-0.17784 1.71916,1.36347c0.01743,0.15104 0.01835,0.28899 0.00582,0.41496l1.55118,0.19289c0,0 0.17604,0.02201 0.40162,0.11066c0.40935,-0.23036 0.84438,-0.23036 0.84438,-0.23036h2.48246c1.12862,-0.00001 2.25724,-0.00003 3.38586,-0.00004c-0.04861,-4.92787 -0.28312,-9.67399 -1.41433,-14.63416zM126.13549,340.42562c0,0 0,-0.61745 0.38952,-1.07334c-7.45592,1.08343 -14.9343,1.65073 -22.44622,2.42752c-8.67649,0.89721 -17.50007,2.27576 -26.22361,2.28363c-5.21161,-0.00038 -10.44185,-0.37253 -15.6434,-0.8493v0.31457c0,0 0,1.55155 -1.55155,1.55155c-1.55155,0 -1.55155,-1.55155 -1.55155,-1.55155c0,-0.20295 0,-0.40619 0,-0.60968c-0.09467,-0.00927 -0.18933,-0.01855 -0.28397,-0.02785c-0.38656,1.12091 -1.65501,0.95178 -1.65501,0.95178c-7.17297,-0.9564 -14.17008,-3.2704 -21.40127,-3.66381c0.52174,4.40231 0.37735,8.83485 0.37736,13.27946c0.00001,6.54107 0,13.08213 0,19.6232c1.76292,0.02694 3.52621,0.04299 5.2901,0.04299c14.25637,0 28.76293,-0.72231 42.97557,0.62817c5.73273,0.54472 11.32095,1.83034 16.91684,3.12221c4.09338,0.40509 8.27383,0.61291 12.33946,1.23326c2.9156,0.44488 5.75084,1.42095 8.6669,1.8586c1.23221,0.18494 2.5128,0.30564 3.80083,0.39157c0,-12.92426 0,-27.23394 0,-39.933zM0.77054,332.97819c0,-8.43181 0.42005,-16.97996 -0.00114,-25.39864c-0.14697,-2.93772 -0.61725,-5.78429 -0.61948,-8.73539c0,0 0,-0.50416 0.28739,-0.9377c-2.69437,-0.47713 -5.40284,-0.84336 -8.08816,-0.63012c-3.71263,0.29483 -7.13285,1.57491 -10.80295,1.82567c0,2.02047 0,4.04093 -0.00001,6.0614c0.048,10.22154 -0.24919,20.79905 1.0207,31.032c0.42793,-0.06054 0.85738,-0.12031 1.28998,-0.17365c3.59089,-0.90108 7.41662,-1.7258 11.09627,-2.08756c1.91141,-0.18792 3.85683,-0.25272 5.81739,-0.24037zM3.86861,307.4245c0.4238,8.47077 0.00502,17.0699 0.00502,25.55369v0.79247c4.10288,0.16816 8.22826,0.56584 12.20579,0.77865c6.06432,0.32446 12.13718,0.52411 18.20306,0.8274c0,0 1.54961,0.07748 1.47213,1.62709c-0.00116,0.02325 -0.00266,0.04612 -0.00447,0.06865c6.69476,0.34837 13.16516,2.29672 19.77041,3.3862c0.23062,-0.63744 0.73403,-0.85123 1.13273,-0.9159c0.09947,-0.02001 0.20237,-0.03052 0.30773,-0.03052c0.09873,0 0.19531,0.00922 0.28892,0.02685l1.10671,0.18772c0.25057,0.0253 0.50126,0.05049 0.75204,0.07555c0,-12.60647 0,-26.05471 0,-38.47571c0,0 0,-0.20724 0.07574,-0.47025c-9.02255,0.39196 -18.02133,-0.67803 -26.99386,-1.21548c-0.18841,0.08332 -0.41848,0.13418 -0.69941,0.13418c-0.36957,0 -0.65111,-0.08803 -0.86558,-0.22215c-0.82862,-0.04331 -1.65701,-0.08108 -2.48518,-0.11174c-3.85075,-0.14364 -7.66551,-0.29672 -11.51958,-0.29672c-2.85905,0 -6.03935,0.30041 -8.87823,-0.01162c-1.50465,-0.16538 -3.02494,-0.43368 -4.55398,-0.71791c0.06423,0.24253 0.06441,0.42818 0.06441,0.42923c-0.00232,2.89941 0.47112,5.69252 0.6156,8.58033zM106.89632,293.87922v0.05705c0.1309,0.01575 0.26224,0.02843 0.3941,0.03751c2.41065,0.16602 5.1605,-1.08052 7.6254,-1.21137c9.06916,-0.48142 18.19394,-0.44475 27.27682,-0.44475c1.53987,0 3.07973,0 4.6196,0c-0.86568,-6.47831 -2.92031,-12.79026 -3.42717,-19.35277c-0.35167,-4.56654 -0.14675,-9.69512 -1.77215,-13.99703c-0.36898,-0.97656 -0.81112,-1.92916 -1.0994,-2.9325c-0.10336,-0.35974 0.22534,-0.88505 -0.06523,-1.12098c-0.2584,-0.20981 -0.62358,0.25844 -0.95465,0.29286c-1.44034,0.14977 -2.89622,0 -4.34433,0c-2.80386,0 -5.75492,-0.20975 -8.55124,-0.0061c-2.69775,0.19648 -5.48223,1.005 -8.14613,1.46646c-3.01843,0.52286 -6.0921,1.22857 -9.12459,1.62466c-0.71011,0.09275 -1.5141,-0.26382 -2.14724,0.07081c-0.27879,0.14735 0.23444,0.58546 0.35167,0.87819c0,4.20762 -0.31478,8.53063 0.57978,12.67936c0.41786,1.93791 2.07278,4.23215 0.93041,6.30224c-0.17176,0.31124 -1.09418,0.45942 -2.14565,0.52739c0,1.93989 0,3.87978 0,5.81966c0,2.89622 0,6.41306 0,9.30928zM103.79322,278.79384c-0.12576,-0.00177 -0.22628,-0.00307 -0.29547,-0.00307c-3.88047,0 -7.69153,-0.02082 -11.53742,0.59963c-3.66767,0.59169 -7.39601,1.66223 -10.85417,3.01508c-2.56356,1.00287 -5.60593,3.4177 -8.30649,3.7966c-1.29886,0.18223 -2.60829,-0.27887 -3.91243,-0.41832c-0.57819,-5.344 -0.18741,-10.59791 -0.45557,-15.94504c-0.19538,-3.89591 -0.9479,-7.71565 -1.60078,-11.54429c-0.45723,0.51985 -1.20571,0.51985 -1.20571,0.51985h-1.86186c-4.46564,0 -9.06373,-0.30678 -13.51885,-0.00586c-3.75473,0.25361 -7.42643,1.59477 -11.1959,1.86382c-1.97755,0.14115 -3.99127,0.14076 -6.00586,0.10578c0,11.93652 0,23.87304 0,35.80956c9.02261,0.57236 18.06886,1.62545 27.14248,1.11117c3.02986,-0.17173 6.01648,-0.90929 8.99149,-1.45491c6.18162,-1.13371 12.27518,-2.21951 18.53605,-2.78433c4.81009,-0.43394 9.68826,-1.09084 14.52261,-0.52975c0.52521,0.06096 1.04289,0.17188 1.55789,0.29973c0,-2.61406 0,-5.55478 0,-8.03891c0,-2.00701 0,-4.21615 0,-6.39672zM47.93517,237.93775c0.34159,5.53132 2.46919,10.67894 2.48485,16.22188v1.52847c4.40388,-0.26696 8.93778,0.02307 13.3433,0.02307h1.86186c0,0 0.41863,0 0.82099,0.21745c-0.20595,-1.35259 -0.38269,-2.70847 -0.50145,-4.07136c-0.26911,-3.08822 -0.05183,-6.18243 -0.34677,-9.283c-0.33814,-3.55459 0.01211,-7.06991 -1.62732,-10.27927c-0.35388,-0.69277 -0.40183,-1.592 -0.97121,-2.12207c-0.26915,-0.25057 -0.71629,0.18349 -1.08309,0.2096c-0.61905,0.04406 -1.24124,0 -1.86186,0c-4.00408,0 -8.10614,-0.17648 -12.19919,-0.19437c0.2166,2.55012 -0.08257,5.11848 0.07992,7.7496zM188.19311,332.09853c2.0776,-0.22022 4.01741,-0.14733 5.64342,-1.39971c0,0 1.26254,-0.90182 2.16436,0.36073c0.1585,0.2219 0.25014,0.43265 0.29353,0.62933c7.67486,0.23222 15.51113,1.42779 23.14069,0.58809c7.54178,-0.83004 14.84717,-2.00963 22.46368,-2.074c2.48717,0.00975 4.40805,-0.62059 6.86319,-1.10331c3.11269,-0.612 6.25912,-0.97716 9.41879,-1.19883c2.93425,-0.20586 5.88431,-0.47402 8.83513,-0.59666c0,-1.64608 0,-3.48569 0,-5.04548c-3.22716,0.01078 -6.45466,0.00567 -9.67812,-0.07809c-1.55718,-0.04046 -6.14826,-0.09307 -7.29163,-1.08698c-0.43117,-0.37482 -0.52662,-5.371 -0.62348,-5.85632c-0.20579,-1.03114 -0.82511,-1.9565 -0.99045,-2.99489c-0.34997,-2.19804 0.04382,-4.77823 -0.01938,-7.03038c-0.09835,-3.50474 -0.97281,-6.98007 -1.23792,-10.48462c-0.06654,-0.8796 -0.10983,-1.75 -0.14965,-2.61659c-0.71982,0 -2.15442,0 -2.63744,0c-1.88957,-0.0019 -3.55624,0.39679 -5.39599,0.60899c-4.38388,0.50566 -8.91722,-0.20171 -13.30146,0.21321c-1.64424,0.15561 -3.21582,0.77158 -4.84858,1.02029c-2.68252,0.40862 -5.36828,0.08953 -8.05694,0.22612c-3.65299,0.18557 -7.28196,0.61307 -10.94161,0.62064c-0.13573,1.36807 -0.58839,2.65886 -1.95453,3.61879c-0.54616,0.38376 -4.72602,0.16461 -5.66234,0.2272c-2.67227,0.17866 -5.34507,0.91078 -8.00385,1.23498c-1.4042,0.17122 -2.8163,0.30445 -4.23136,0.41999c0,10.68139 0,21.36277 0,32.04416c2.05751,0.01272 4.11221,-0.02514 6.20194,-0.24665z" fill="#000000" stroke="none" stroke-width="0.5"/><path d="M325.78226,378.16915c-0.47404,-0.37645 -1.21972,-0.21741 -1.73577,-0.53382c-1.6375,-1.00397 -3.12375,-2.93497 -4.73347,-4.06595c-2.50303,-5.95542 -3.79969,-12.26225 -5.10737,-18.5644c-0.5695,-2.74462 -1.52486,-5.43215 -2.03651,-8.17732c-0.15151,-0.81291 -0.29093,-1.62876 -0.4192,-2.4472c-0.58628,0.04892 -1.1761,0.07938 -1.77295,0.0809h-0.20687c0,0 -1.55154,0 -1.55154,-1.55155c0,-1.55154 1.55154,-1.55155 1.55154,-1.55155h0.20687c0.45155,0.00133 0.89873,-0.01738 1.34331,-0.04985c-1.28131,-10.35547 -0.99412,-21.05171 -1.04266,-31.39547c-0.00001,-9.3105 -0.00001,-18.62099 -0.00001,-27.93148c0,-1.91282 -0.2043,-3.8374 0.00755,-5.73845c0.19236,-1.7262 0.90686,-3.35571 1.25325,-5.0577c0.16874,-0.82906 -0.26884,-1.87388 0.2733,-2.52342c1.24431,-1.49079 3.36127,-1.25789 4.98239,-1.26496c1.64086,-0.00716 3.28185,-0.00558 4.92283,-0.00326c0.44399,-0.61735 1.28335,-0.61735 1.28335,-0.61735c7.86117,0 15.72233,0 23.58351,0c2.98201,0 5.43197,0.06901 8.3517,0.79894c0.59021,0.14755 1.19959,0.23646 1.76777,0.45393c0.22598,0.08649 0.55654,0.68406 0.57517,0.44281c0.0528,-0.68357 -0.39369,-1.32308 -0.45443,-2.00599c-0.23483,-2.64003 0,-5.41321 0,-8.06804c0,-5.17182 0,-10.34364 0,-15.51546c0,-0.88274 -0.02891,-4.66494 0.14648,-5.00243c1.42948,-2.75045 5.11539,-4.02295 7.76292,-4.70283c3.64647,-0.93641 7.47767,-1.28804 11.3536,-1.38179c0.08733,-0.39961 0.35027,-0.82811 1.02224,-1.0521c1.47193,-0.49064 1.96257,0.98129 1.96257,0.98129c0.00475,0.0147 0.00948,0.0294 0.01417,0.0441c4.32089,0.01926 8.65251,0.25294 12.80298,0.25294c0.70238,0 4.14906,-0.04911 4.50248,0.2096c2.2398,1.63957 3.49846,6.06345 3.75839,8.59972c0.52681,5.14049 0.27362,10.36767 0.72078,15.49913c0.3437,3.94431 1.38469,7.86902 1.86735,11.80642c0.4921,4.01439 0.63146,7.94488 0.63246,11.98263c0.00069,2.80685 0.16703,5.46928 -0.45444,8.21259c3.02438,-1.20202 5.85192,-2.88288 8.88212,-4.06914c4.7092,-1.84356 9.64222,-2.98839 14.6552,-3.54529c2.97358,-0.33035 5.8888,-0.28742 8.87898,-0.28742c0.09833,0 0.19684,-0.00208 0.29547,-0.00549c0,-0.56593 0,-1.12169 0,-1.66276c0,0 0,-1.35567 1.26721,-1.53259c-0.90372,-4.35371 -0.63175,-8.83238 -0.63175,-13.24556c0.11722,-0.94851 -0.34801,-2.19448 0.35167,-2.84551c0.58416,-0.54355 5.91863,-1.56004 7.00543,-1.75952c4.73276,-0.86871 9.74412,-2.16926 14.53743,-2.52597c2.88568,-0.21474 5.93124,-0.0061 8.82609,-0.0061c1.35801,0 5.99272,-0.52968 7.11339,0.29286c0.37358,0.2742 2.15963,5.22312 2.25574,5.48127c1.72172,4.62394 1.58348,9.95189 1.96057,14.84834c0.51906,6.76056 2.80107,13.14552 3.6149,19.83471c0.35499,0.20797 0.68396,0.59343 0.68396,1.30786c0,0.60789 -0.23818,0.97762 -0.52789,1.20248c0.03992,1.66204 0.10122,4.25589 0.10439,4.49205c0.0084,0.62648 0.15231,1.27184 0.0001,1.87959c-0.07115,0.28408 -0.88422,0.75404 -0.62538,0.61706c0.57766,-0.30572 1.00117,-0.87166 1.60023,-1.13298c2.7921,-1.21798 5.87539,-1.25048 8.89864,-1.42173c-0.51954,1.94495 -1.10927,3.86871 -1.80416,5.76033c-0.99503,2.70867 -4.25969,4.02775 -5.65836,6.55178c-1.45704,2.62938 -2.00529,5.67741 -2.73437,8.59375c-1.32783,5.3113 -0.46358,10.78385 0.05482,16.24911c-2.29913,0.21304 -4.59045,0.45073 -6.86954,0.71144c-4.17006,0.47616 -8.33328,0.79314 -12.52958,0.88817l-0.03095,0.00016c-0.38191,0.50139 -1.03425,0.61012 -1.03425,0.61012c-0.37962,0.0632 -0.75931,0.1248 -1.13904,0.1849c0.75603,0.40946 0.75603,1.37022 0.75603,1.37022c0,3.824 0,7.64799 0,11.47199c-1.03427,0.0221 -2.06863,0.04181 -3.10306,0.05981c0,-3.9323 0,-7.80155 0,-11.53184h-0.00002c0,0 0,-0.61746 0.38952,-1.07333c-7.45592,1.08343 -14.9343,1.65073 -22.44622,2.42753c-8.67649,0.89721 -17.50006,2.27576 -26.22361,2.28363c-5.2116,-0.00038 -10.44184,-0.37252 -15.6434,-0.84931v0.31457c0,0 0,1.55154 -1.55154,1.55154c-1.55155,0 -1.55155,-1.55154 -1.55155,-1.55154c0,-0.20295 0,-0.40619 0,-0.60969c-0.09467,-0.00927 -0.18932,-0.01855 -0.28397,-0.02785c-0.38656,1.1209 -1.65501,0.95179 -1.65501,0.95179c-7.17296,-0.9564 -14.17008,-3.2704 -21.40126,-3.66381c0.52173,4.40231 0.37735,8.83484 0.37736,13.27946c0.00001,3.74902 0,7.49804 0,11.24706c-6.2849,2.225 -11.4731,4.1904 -13.35893,4.61212c-10.21913,2.28527 -17.27504,-2.41263 -26.64642,3.125c-0.67066,0.3963 -1.31421,0.81601 -1.93066,1.25724c-0.07696,-0.10174 -0.16285,-0.19435 -0.26206,-0.27314zM335.70313,312.16677c0.4238,8.47076 0.00502,17.0699 0.00502,25.5537v0.79246c4.10288,0.16816 8.22826,0.56584 12.20579,0.77865c6.06432,0.32446 12.13719,0.52411 18.20306,0.8274c0,0 1.54961,0.07748 1.47213,1.62709c-0.00116,0.02325 -0.00266,0.04613 -0.00447,0.06865c6.69476,0.34837 13.16516,2.29672 19.77041,3.3862c0.23062,-0.63745 0.73403,-0.85122 1.13273,-0.91589c0.09947,-0.02002 0.20238,-0.03052 0.30774,-0.03052c0.09873,0 0.1953,0.00922 0.28891,0.02685l1.1067,0.18772c0.25058,0.02531 0.50126,0.05049 0.75204,0.07555c0,-12.60647 0,-26.05471 0,-38.47571c0,0 0,-0.20724 0.07574,-0.47025c-9.02256,0.39196 -18.02133,-0.67802 -26.99385,-1.21548c-0.18841,0.08332 -0.41848,0.13419 -0.69941,0.13419c-0.36957,0 -0.65111,-0.08803 -0.86559,-0.22215c-0.82862,-0.0433 -1.65702,-0.08108 -2.48518,-0.11174c-3.85074,-0.14364 -7.66551,-0.29673 -11.51958,-0.29673c-2.85904,0 -6.03935,0.30041 -8.87823,-0.01162c-1.50465,-0.16538 -3.02495,-0.43369 -4.55397,-0.71792c0.06423,0.24253 0.06441,0.42818 0.06441,0.42923c-0.00232,2.89941 0.47112,5.69252 0.61559,8.58033zM435.62775,283.53611c-0.12576,-0.00178 -0.22627,-0.00307 -0.29547,-0.00307c-3.88047,0 -7.69153,-0.02082 -11.53742,0.59963c-3.66767,0.59169 -7.39601,1.66223 -10.85417,3.01508c-2.56356,1.00287 -5.60593,3.4177 -8.30649,3.79659c-1.29886,0.18223 -2.60829,-0.27888 -3.91243,-0.41832c-0.57818,-5.344 -0.18741,-10.5979 -0.45557,-15.94504c-0.19539,-3.89592 -0.9479,-7.71565 -1.60078,-11.54429c-0.45723,0.51986 -1.20571,0.51986 -1.20571,0.51986h-1.86185c-4.46564,0 -9.06373,-0.30678 -13.51885,-0.00587c-3.75473,0.25361 -7.42642,1.59478 -11.1959,1.86382c-1.97755,0.14114 -3.99128,0.14076 -6.00587,0.10577c0,11.93652 0,23.87304 0,35.80956c9.02261,0.57236 18.06887,1.62545 27.14248,1.11118c3.02986,-0.17172 6.01648,-0.90929 8.99149,-1.45491c6.18162,-1.13371 12.27518,-2.21951 18.53605,-2.78433c4.81009,-0.43394 9.68826,-1.09084 14.52261,-0.52975c0.52521,0.06095 1.04289,0.17188 1.55789,0.29972c0,-2.61406 0,-5.55478 0,-8.03891c0,-2.00701 0,-4.21615 0,-6.39672zM438.73084,298.62149v0.05706c0.1309,0.01575 0.26224,0.02843 0.3941,0.03751c2.41065,0.16602 5.1605,-1.08052 7.62541,-1.21137c9.06915,-0.48142 18.19394,-0.44475 27.27682,-0.44475c1.53987,0 3.07973,0 4.6196,0c-0.86568,-6.47832 -2.92031,-12.79026 -3.42717,-19.35277c-0.35168,-4.56655 -0.14675,-9.69512 -1.77215,-13.99703c-0.36898,-0.97656 -0.81113,-1.92916 -1.0994,-2.9325c-0.10336,-0.35974 0.22534,-0.88504 -0.06523,-1.12098c-0.2584,-0.20981 -0.62358,0.25844 -0.95465,0.29286c-1.44035,0.14977 -2.89622,0 -4.34433,0c-2.80386,0 -5.75492,-0.20975 -8.55124,-0.0061c-2.69776,0.19648 -5.48223,1.00501 -8.14613,1.46646c-3.01844,0.52287 -6.09211,1.22857 -9.12459,1.62466c-0.7101,0.09275 -1.51409,-0.26382 -2.14724,0.07081c-0.27879,0.14734 0.23445,0.58546 0.35167,0.8782c0,4.20762 -0.31479,8.53062 0.57978,12.67936c0.41785,1.93791 2.07278,4.23215 0.93041,6.30224c-0.17175,0.31124 -1.09418,0.45942 -2.14565,0.52739c0,1.93989 0,3.87977 0,5.81966c0,2.89622 0,6.41306 0,9.30928zM332.60506,337.72046c0,-8.43181 0.42005,-16.97996 -0.00115,-25.39864c-0.14697,-2.93773 -0.61726,-5.78429 -0.61947,-8.73539c0,0 0,-0.50416 0.28739,-0.9377c-2.69437,-0.47713 -5.40285,-0.84337 -8.08816,-0.63012c-3.71263,0.29483 -7.13285,1.57491 -10.80294,1.82568c0,2.02047 0,4.04093 -0.00001,6.06139c0.048,10.22154 -0.24919,20.79906 1.0207,31.03201c0.42793,-0.06054 0.85739,-0.12031 1.28999,-0.17365c3.59088,-0.90107 7.41661,-1.7258 11.09627,-2.08756c1.9114,-0.18791 3.85683,-0.25272 5.81739,-0.24037zM379.7697,242.68002c0.3416,5.53132 2.46918,10.67894 2.48485,16.22188v1.52847c4.40389,-0.26696 8.93779,0.02308 13.3433,0.02308h1.86185c0,0 0.41863,0 0.82099,0.21745c-0.20594,-1.35259 -0.38269,-2.70846 -0.50145,-4.07136c-0.26911,-3.08822 -0.05183,-6.18244 -0.34678,-9.283c-0.33814,-3.55459 0.01211,-7.06991 -1.62732,-10.27927c-0.35388,-0.69277 -0.40184,-1.59201 -0.97121,-2.12207c-0.26915,-0.25057 -0.71629,0.18349 -1.08309,0.2096c-0.61906,0.04406 -1.24124,0 -1.86185,0c-4.00408,0 -8.10613,-0.17649 -12.19919,-0.19438c0.2166,2.55012 -0.08257,5.11848 0.07992,7.74961z" fill="#000000" stroke="none" stroke-width="0.5"/><path d="M654.21271,336.58168c-0.05093,3.32281 -0.11237,6.64236 -0.11237,9.94415c0,1.58634 -0.28156,3.19544 -0.01373,4.75901c0.64948,3.79159 2.22902,7.35283 2.49109,11.25119c0.00643,0.09558 0.00511,5.19781 0.00511,5.71144c0,1.50043 0.51738,4.86835 -0.1181,6.17932c-1.2222,2.52136 -2.43994,2.19075 -4.44555,2.15973l-0.22377,-0.62828l-0.21425,-0.45295l-0.13965,-0.48121l-0.49758,-1.23816c0.75194,-0.0331 1.50328,-0.07382 2.25235,-0.14507c0.18844,-0.01792 0.36986,-0.21493 0.40154,-0.40155c0.24905,-1.46704 -0.1181,-3.48289 -0.1181,-4.99182c0,-1.81989 0.12459,-3.64372 0.00511,-5.45968c-0.25255,-3.83844 -1.85465,-7.34952 -2.47386,-11.09107c-0.28143,-1.70051 -0.01373,-3.44726 -0.01373,-5.17089c0,-3.29089 0.06098,-6.59915 0.11158,-9.91054c-3.14313,0.04505 -6.32336,0.16049 -9.43889,-0.09021c-2.11047,-0.16983 -3.97263,-0.55021 -5.97949,-0.69551l-5.28276,-13.14548c1.97296,-9.19333 3.98739,-18.38686 5.76811,-27.58744c0.14804,-0.03395 0.29605,-0.06797 0.44402,-0.10203l8.3303,26.32374l1.55097,3.60636l0.1246,0.17657l0.56969,1.66083l2.75137,3.04526l1.7541,2.48564l1.10826,0.68246l1.99863,2.21212l0.72641,0.17898c-0.14762,0.92924 -0.93959,1.15852 -1.32142,1.21509z" fill="#000000" stroke="none" stroke-width="0.5"/><path d="" fill="#000000" stroke="none" stroke-width="0.5"/><path d="M-3.5,31v-34h486v34z" fill="url(#color-2)" stroke="#000000" stroke-width="0.5"/></g></g></svg>