<svg version="1.1" xmlns="http://www.w3.org/2000/svg" xmlns:xlink="http://www.w3.org/1999/xlink" width="56.5998" height="56.5998" viewBox="0,0,56.5998,56.5998"><defs><linearGradient x1="480" y1="154.2001" x2="480" y2="205.7999" gradientUnits="userSpaceOnUse" id="color-1"><stop offset="0" stop-color="#ffffff"/><stop offset="1" stop-color="#1a1a1a"/></linearGradient><linearGradient x1="454.2001" y1="180" x2="505.7999" y2="180" gradientUnits="userSpaceOnUse" id="color-2"><stop offset="0" stop-color="#ffffff"/><stop offset="1" stop-color="#ffffff" stop-opacity="0"/></linearGradient><linearGradient x1="470.44057" y1="177.39636" x2="470.44057" y2="194.4385" gradientUnits="userSpaceOnUse" id="color-3"><stop offset="0" stop-color="#1dff00"/><stop offset="1" stop-color="#ffaf00"/></linearGradient><linearGradient x1="467.94057" y1="185.91743" x2="472.94057" y2="185.91743" gradientUnits="userSpaceOnUse" id="color-4"><stop offset="0" stop-color="#ffffff"/><stop offset="1" stop-color="#ffffff" stop-opacity="0"/></linearGradient><linearGradient x1="463.33968" y1="173.72757" x2="496.00378" y2="173.72757" gradientUnits="userSpaceOnUse" id="color-5"><stop offset="0" stop-color="#ffffff"/><stop offset="1" stop-color="#ffffff" stop-opacity="0"/></linearGradient><linearGradient x1="487.9561" y1="177.39636" x2="487.9561" y2="193.01832" gradientUnits="userSpaceOnUse" id="color-6"><stop offset="0" stop-color="#1dff00"/><stop offset="1" stop-color="#ffaf00"/></linearGradient><linearGradient x1="485.4561" y1="185.20734" x2="490.4561" y2="185.20734" gradientUnits="userSpaceOnUse" id="color-7"><stop offset="0" stop-color="#ffffff"/><stop offset="1" stop-color="#ffffff" stop-opacity="0"/></linearGradient></defs><g transform="translate(-451.7001,-151.7001)"><g data-paper-data="{&quot;isPaintingLayer&quot;:true}" fill-rule="nonzero" stroke-width="5" stroke-linejoin="miter" stroke-miterlimit="10" stroke-dasharray="" stroke-dashoffset="0" style="mix-blend-mode: normal"><path d="M454.2001,180c0,-14.24889 11.55101,-25.7999 25.7999,-25.7999c14.24889,0 25.7999,11.55101 25.7999,25.7999c0,14.24889 -11.55101,25.7999 -25.7999,25.7999c-14.24889,0 -25.7999,-11.55101 -25.7999,-25.7999z" fill="url(#color-1)" stroke="url(#color-2)" stroke-linecap="butt"/><path d="M470.44057,194.4385v-17.04214" fill="url(#color-3)" stroke="url(#color-4)" stroke-linecap="round"/><path d="M463.33968,181.1835l15.85866,-15.85866l16.80544,16.80544" fill="none" stroke="url(#color-5)" stroke-linecap="round"/><path d="M487.9561,177.39636v15.62196" fill="url(#color-6)" stroke="url(#color-7)" stroke-linecap="round"/></g></g></svg>