<svg version="1.1" xmlns="http://www.w3.org/2000/svg" xmlns:xlink="http://www.w3.org/1999/xlink" width="466.32607" height="335.8965" viewBox="0,0,466.32607,335.8965"><defs><linearGradient x1="148.43929" y1="15.18206" x2="148.43929" y2="122.57253" gradientUnits="userSpaceOnUse" id="color-1"><stop offset="0" stop-color="#ffffff"/><stop offset="1" stop-color="#1a1a1a"/></linearGradient></defs><g transform="translate(-6.05666,-15.18215)"><g data-paper-data="{&quot;isPaintingLayer&quot;:true}" stroke-miterlimit="10" stroke-dasharray="" stroke-dashoffset="0" style="mix-blend-mode: normal"><g fill-rule="evenodd"><path d="" fill="#ffab19" stroke="#001026" stroke-width="1.2" stroke-linecap="round" stroke-linejoin="round"/><path d="" fill="#ffffff" stroke="none" stroke-width="1" stroke-linecap="butt" stroke-linejoin="miter"/></g><path d="" fill="#ffab19" fill-rule="evenodd" stroke="#001026" stroke-width="1.2" stroke-linecap="round" stroke-linejoin="round"/><path d="" fill="#ffab19" fill-rule="evenodd" stroke="#001026" stroke-width="1.2" stroke-linecap="round" stroke-linejoin="round"/><g fill-rule="evenodd"><path d="" fill="#ffab19" stroke="#001026" stroke-width="1.2" stroke-linecap="round" stroke-linejoin="round"/><path d="" fill="#ffffff" stroke="none" stroke-width="1" stroke-linecap="butt" stroke-linejoin="miter"/></g><path d="" fill="#ffab19" fill-rule="evenodd" stroke="#001026" stroke-width="1.2" stroke-linecap="round" stroke-linejoin="round"/><g><path d="" fill="#ffab19" fill-rule="nonzero" stroke="#001026" stroke-width="1.2" stroke-linecap="butt" stroke-linejoin="miter"/><path d="" fill="#ffab19" fill-rule="nonzero" stroke="#001026" stroke-width="1.2" stroke-linecap="butt" stroke-linejoin="miter"/><path d="" fill="#ffab19" fill-rule="nonzero" stroke="#001026" stroke-width="1.2" stroke-linecap="butt" stroke-linejoin="miter"/><path d="" fill="#ffab19" fill-rule="nonzero" stroke="#001026" stroke-width="1.2" stroke-linecap="butt" stroke-linejoin="miter"/><path d="" fill="#ffffff" fill-rule="nonzero" stroke="none" stroke-width="1" stroke-linecap="butt" stroke-linejoin="miter"/><path d="" fill="#ffffff" fill-rule="nonzero" stroke="none" stroke-width="1" stroke-linecap="butt" stroke-linejoin="miter"/><path d="" fill="#ffffff" fill-rule="evenodd" stroke="#001026" stroke-width="1.2" stroke-linecap="round" stroke-linejoin="round"/><path d="" fill="#001026" fill-rule="evenodd" stroke="#001026" stroke-width="1.2" stroke-linecap="round" stroke-linejoin="round"/><g fill-rule="evenodd"><path d="" fill="#ffffff" stroke="#001026" stroke-width="1.2" stroke-linecap="round" stroke-linejoin="round"/><path d="" fill="#001026" stroke="none" stroke-width="1" stroke-linecap="butt" stroke-linejoin="miter"/></g><g fill-rule="evenodd"><path d="" fill="#ffffff" stroke="#001026" stroke-width="1.2" stroke-linecap="round" stroke-linejoin="round"/><path d="" fill="#001026" stroke="none" stroke-width="1" stroke-linecap="butt" stroke-linejoin="miter"/></g></g><path d="" fill="#ffffff" fill-rule="nonzero" stroke="none" stroke-width="0.5" stroke-linecap="butt" stroke-linejoin="miter"/><path d="" fill="#ffffff" fill-rule="nonzero" stroke="none" stroke-width="0.5" stroke-linecap="butt" stroke-linejoin="miter"/><path d="" fill="#ffffff" fill-rule="nonzero" stroke="none" stroke-width="0.5" stroke-linecap="butt" stroke-linejoin="miter"/><path d="" fill="#ffffff" fill-rule="nonzero" stroke="none" stroke-width="0.5" stroke-linecap="butt" stroke-linejoin="miter"/><path d="" fill="#ffffff" fill-rule="nonzero" stroke="none" stroke-width="0.5" stroke-linecap="butt" stroke-linejoin="miter"/><text transform="translate(324.55811,35.92407) scale(0.38106,0.38106)" font-size="40" xml:space="preserve" fill="#ffffff" fill-rule="nonzero" stroke="none" stroke-width="1" stroke-linecap="butt" stroke-linejoin="miter" stroke-miterlimit="10" stroke-dasharray="" stroke-dashoffset="0" font-family="&quot;OpenSans-VariableFont_wdthwght&quot;, Sans Serif" font-weight="normal" text-anchor="start" style="mix-blend-mode: normal"><tspan x="0" dy="0">Tebak sebuah kata!</tspan></text><text transform="translate(398.15242,338.47555) scale(0.77705,0.77705)" font-size="40" xml:space="preserve" fill="#ffffff" fill-rule="nonzero" stroke="none" stroke-width="1" stroke-linecap="butt" stroke-linejoin="miter" stroke-miterlimit="10" stroke-dasharray="" stroke-dashoffset="0" font-family="&quot;OpenSans-VariableFont_wdthwght&quot;, Sans Serif" font-weight="normal" text-anchor="start" style="mix-blend-mode: normal"><tspan x="0" dy="0">KS</tspan></text><text transform="translate(401.62839,347.66778) scale(0.27287,0.27287)" font-size="40" xml:space="preserve" fill="#ffffff" fill-rule="nonzero" stroke="none" stroke-width="1" stroke-linecap="butt" stroke-linejoin="miter" stroke-miterlimit="10" stroke-dasharray="" stroke-dashoffset="0" font-family="&quot;OpenSans-VariableFont_wdthwght&quot;, Sans Serif" font-weight="normal" text-anchor="start" style="mix-blend-mode: normal"><tspan x="0" dy="0">Classic games</tspan></text><path d="M287.11263,76.71655c0.33123,-0.28675 0.78729,-0.48416 1.41521,-0.48416c2.29411,0 2.29411,2.63495 2.29411,2.63495l-1.84419,2.8458c-2.41471,0.53019 -3.40618,1.02644 -6.00701,0.23961c-2.979,-0.90125 -6.34079,-4.31739 -9.59254,-4.12329c-0.81243,0.0485 -1.60096,0.24941 -2.37757,0.52685l0.1035,0.13586l-1.81664,1.82573c-0.40461,0.41094 -0.93647,0.66034 -1.51904,0.66034c-1.267,0 -2.29409,-1.1797 -2.29409,-2.63495c0,-0.51137 0.12682,-0.98873 0.34632,-1.39281l1.27273,-2.43639c2.61753,-7.83197 0.05914,-21.05771 -9.4316,-19.77556c-2.60144,0.35144 -4.97921,3.51609 -6.86083,5.41228c0,0 -0.24229,0.2435 -0.62477,0.44382l-0.0748,2.66326c0.7998,4.49124 -0.52027,10.23556 -0.53528,14.83384l0.00002,0.25156c0,0 0,2.63495 -2.29411,2.63495c-2.29411,0 -2.29409,-2.63495 -2.29409,-2.63495l0.00001,-0.27249c0.00657,-1.80143 0.06102,-3.59676 0.13571,-5.39066c-2.42072,3.39574 -5.60245,5.71624 -9.47474,4.57749c-3.03794,-0.89339 -4.85937,-2.80881 -6.09704,-5.33252c-0.95314,3.13548 -2.54722,5.93652 -5.46597,8.53726c-1.50281,1.33907 -3.07564,2.74468 -4.90214,3.3541c-3.90531,1.30303 -8.862,-3.65663 -9.9273,-7.38613c-0.10458,-0.36613 -0.18239,-0.73198 -0.23532,-1.0971c-0.26902,0.17558 -0.53977,0.33949 -0.81218,0.48998c-2.02797,1.12037 -4.36303,3.9731 -6.32582,2.70878c-1.93402,-1.2458 -0.88148,-4.99735 -1.15149,-7.52527c-0.5668,-5.30648 -0.38601,-16.18448 -7.38544,-16.23286c-3.73934,-0.02584 -7.97946,5.16621 -8.34982,9.24607c-0.0264,0.29074 -0.04282,0.58644 -0.05104,0.88626c0.30188,1.90466 0.37833,3.88068 0.37853,5.86052c0.13961,1.68775 0.20374,3.33927 -0.07085,4.82442c-0.00505,0.39567 -0.00823,0.7892 -0.00823,1.18003v2.88221c0,1.45524 -1.0271,2.63496 -2.29409,2.63496c-1.267,0 -2.2941,-1.17972 -2.2941,-2.63496v-3.85049c-0.30653,-0.67596 -0.22926,-8.23517 -0.22812,-8.72643c0.00059,-0.25231 0.00565,-0.50547 0.01515,-0.75916c-0.33662,-2.77952 -1.07856,-5.43627 -2.66136,-7.75117c-2.65826,-3.88781 -9.50867,-0.33407 -10.97222,3.51983c-0.33659,0.88634 -0.50573,5.46802 -0.5177,5.58255c-0.10659,1.01918 -0.25445,1.91043 -0.43818,2.74681v4.78375c0,1.45524 -1.0271,2.63496 -2.2941,2.63496c-1.267,0 -2.2941,-1.17972 -2.2941,-2.63496c0,-0.52403 0,-4.45433 0,-4.97836c0,-0.08864 0,-0.17728 0,-0.26592c-0.10846,-0.35483 -0.08123,-0.72199 0,-1.09512c0,-1.12535 0,-2.25072 0,-3.37607c-1.79853,1.92593 -3.74891,3.53189 -5.4328,5.69487c-1.8533,2.38057 -3.7676,4.69021 -5.70227,6.97574c0.14041,5.33461 -0.32966,10.67476 -0.8798,16.20377c-0.40671,4.0875 -0.5452,8.287 -1.33477,12.3091c-1.06058,5.40256 -2.38891,12.16536 -7.21565,14.97531c-2.0046,1.16701 -6.49957,0.91464 -8.90109,0.89172c-1.23926,-0.9209 -2.7004,-1.53446 -3.71782,-2.76268c-4.85568,-5.86164 -3.92791,-14.03794 -0.57277,-20.5128c2.0534,-3.96273 5.12543,-7.51447 7.80862,-10.91089c1.86945,-2.36639 3.78107,-4.67648 5.70575,-6.96764c-1.45462,0.71562 -3.17369,1.05371 -5.16058,0.89516c-5.66853,-0.45236 -8.37635,-5.25872 -8.54167,-10.55231c-1.23277,1.20758 -2.47312,2.40758 -3.68107,3.66023c-1.18528,1.22915 -2.12145,2.83415 -3.50361,3.75283c-1.45223,0.96524 -3.30995,2.66136 -4.79403,1.7623c-1.42077,-0.8607 -0.87424,-3.5563 -1.16308,-5.37115c-0.74803,-4.70001 -0.47409,-16.4871 -6.71135,-16.8234c-8.43864,-0.455 -5.1638,11.95798 -6.2668,17.25192v5.26989c0,1.45524 -1.0271,2.63495 -2.29409,2.63495c-1.25924,0 -2.28152,-1.16531 -2.29398,-2.60826l-0.02847,-2.8223c-0.00947,-0.24823 -0.02249,-0.51198 -0.03818,-0.78899c-3.2606,4.53308 -7.9141,7.41366 -12.59496,3.67616c-1.4598,-1.16559 -2.5901,-2.65681 -3.44174,-4.33701c-3.41517,5.41358 -10.58499,10.75665 -15.34355,3.51598c-1.12144,-1.70639 -1.70054,-3.49805 -1.8738,-5.31139c-1.76363,0.70357 -3.68304,1.12815 -5.81475,1.1877c-3.97774,0.11113 -5.15937,1.00393 -8.12963,-1.72821c-2.14342,-1.97159 -3.67614,-4.92234 -4.93545,-7.64113c-1.25826,-2.7165 -1.99825,-5.74582 -2.5309,-8.7614c-0.06907,-1.33239 -0.13049,-2.65948 -0.18228,-3.98244c-2.11915,1.26533 -4.324,2.43862 -6.28378,2.83823c-0.78728,0.16053 -5.60306,-0.59004 -6.71515,-0.73199c-0.15714,7.04894 -0.87157,13.97967 -3.21679,20.45428c-1.64107,3.64974 -6.36663,10.42821 -10.87614,8.52801c-6.82117,-2.87427 -10.5774,-16.4787 -7.39345,-23.66921c3.08534,-6.96782 10.17407,-9.94373 16.84569,-10.54969c-0.06812,-3.88717 -0.21981,-7.76212 -0.21869,-11.53482c0.0014,-4.70891 0.23351,-9.34559 0.45908,-14.04749c0.01534,-0.31957 0.02219,-0.6412 0.02882,-0.96315c-1.48815,2.11901 -4.15544,3.85781 -5.46381,5.01676c0,0 -1.81836,1.60656 -3.2171,-0.48196c-1.39874,-2.08852 0.41963,-3.69509 0.41963,-3.69509c1.90547,-1.67885 3.60929,-3.6398 5.41368,-5.46005c1.46527,-1.47817 2.61358,-4.50256 4.54885,-4.22597c1.83293,0.26196 2.48044,3.2948 3.05183,5.31223c0.90496,3.19518 -0.1945,6.71709 -0.37148,10.07093c-0.34258,6.49179 -0.03096,13.24092 0.02018,19.95945c0.01603,0.00113 0.03206,0.00228 0.04808,0.00344c1.96705,0.14209 3.93295,1.23846 5.86968,0.81864c2.12273,-0.46014 4.63428,-2.06463 6.89073,-3.48665c-0.10042,-6.93443 0.14847,-13.80349 1.03527,-20.78369c0.49481,-3.89471 1.8697,-9.00528 4.95092,-11.27827c6.67045,-4.92075 12.92648,6.87393 13.2884,13.01836c0.59299,10.06768 -8.21307,16.76427 -14.28979,21.98339c-0.1077,0.05895 -0.21672,0.11964 -0.327,0.18188c0.05459,1.99894 0.13522,4.00804 0.23544,6.03328c0.41039,2.401 1.02676,4.80221 2.03161,6.95974c1.14395,2.4562 1.97842,4.13228 3.7333,5.98388c1.57367,1.6604 2.8479,0.68114 5.14926,0.59098c2.54425,-0.09969 4.73779,-0.85802 6.71116,-2.04362c1.0887,-3.41391 3.10247,-6.64441 5.08053,-9.24421c1.09173,-1.4349 4.40228,-5.12088 5.90938,-5.42046c0.18046,-0.03587 0.3612,-0.0621 0.5422,-0.0799l-0.00798,-0.07329l3.61411,-0.51888c0.10471,-0.01682 0.2117,-0.02551 0.32044,-0.02551c1.26699,0 2.29411,1.1797 2.29411,2.63495c0,0.32525 -0.0513,0.63674 -0.14514,0.92437c0.59507,0.43818 1.00236,1.18336 1.05243,2.04094l0.22657,3.38309l-0.01884,0.00166c0.00814,0.03302 0.01611,0.06613 0.02392,0.09931c0.88856,3.78102 -0.65821,7.43492 1.28276,11.08187c0.19858,0.37311 2.81007,4.51138 4.26152,4.20708c2.31084,-0.48447 5.55094,-4.66028 6.55777,-6.98134c0.61213,-1.41114 0.91886,-2.44779 1.10656,-3.47919c0.04454,-0.68977 0.12034,-1.32776 0.23739,-1.8876c0.00409,-0.01958 0.00822,-0.03915 0.01238,-0.0587l-0.0105,-0.00057l0.21761,-5.24891c0.05035,-1.40409 1.05731,-2.52462 2.29213,-2.52462c0.07207,0 0.14335,0.00381 0.21373,0.01129c2.73741,-3.81978 7.66257,-5.51355 11.6632,-3.45489c4.48136,2.30602 5.86734,7.22198 6.95556,12.34039c0.38469,1.80939 0.66613,3.64885 0.88621,5.49417c0.03366,0.2822 0.05972,0.63264 0.07001,1.00859c0.60936,-0.61941 1.2662,-1.1911 1.8666,-1.81592c2.75998,-2.87225 5.68605,-5.46444 8.32286,-8.48495c0.36588,-0.31608 0.73017,-0.63463 1.09288,-0.9556c0.04005,-0.06016 0.08054,-0.11995 0.12144,-0.17935c1.06735,-1.54942 1.8961,-3.52386 3.42138,-4.43736c0.09943,-0.05956 0.20003,-0.11532 0.30166,-0.1676c-0.01662,-0.12794 -0.02523,-0.25887 -0.02523,-0.39211c0,-1.45524 1.02709,-2.63495 2.29409,-2.63495h2.73751c5.52629,-2.25165 8.63283,7.46339 9.72639,11.83803c0.43185,1.72758 0.76156,3.44178 1.0062,5.14848c0.95276,-1.16209 1.89796,-2.33335 2.83195,-3.51846c2.16987,-2.7533 4.73377,-4.58071 6.84896,-7.34328l0.26207,-0.4971c0,0 0.66777,-1.15047 1.76143,-1.22901c0,-0.23855 0,-0.47708 0,-0.71563c0,0 -0.00001,-2.63495 2.2941,-2.63495c0.77428,0 1.28725,0.30016 1.62708,0.69787c4.39567,-4.69725 11.95754,-6.23558 16.08823,-0.81942c0.51193,0.67124 0.96767,1.4316 1.37139,2.24448c2.19284,-4.49585 5.93676,-7.86484 10.89596,-7.88493c8.05126,-0.03263 11.1633,10.50561 11.76751,17.85118c0.09954,1.21019 0.21581,2.45446 0.00959,3.64674c-0.1831,1.05863 -1.92656,2.34525 -1.1515,2.95552c0.76259,0.60046 0.92111,-1.8817 1.60055,-2.60192c2.50428,-2.65452 5.81469,-5.11794 8.40727,-7.72064c0.12551,-0.10391 0.25108,-0.2073 0.37673,-0.3102c1.82537,-1.90029 3.74531,-3.51234 5.1697,-4.69253c0.69555,-0.57629 1.32572,-1.33221 2.14049,-1.6397c1.95542,-0.73797 4.02969,-0.96621 6.04453,-1.44932l-0.33401,0.77096c0.32241,0 0.64484,0 0.96725,0l2.73628,3.02868c0,0 0.49854,1.14523 0.10551,2.23821c0.12429,0.25858 0.24338,0.52051 0.35599,0.78657c0.35321,0.83456 0.22267,1.84264 0.42817,2.74005c0.55973,2.44434 2.26157,8.62508 5.74399,6.79219c1.12348,-0.59132 2.18599,-1.34707 3.17663,-2.19572c0.69334,-0.59396 1.34723,-1.28512 1.83984,-2.10171c1.60627,-2.66272 1.78838,-3.92213 2.53832,-6.71668l0.21188,-3.16363c0.08009,-1.37179 1.07425,-2.45603 2.28889,-2.45603c0.21618,0 0.4254,0.03435 0.62371,0.09855c2.36187,-2.42913 5.16251,-5.39206 8.30743,-5.82519c9.44266,-1.30045 15.76893,8.22752 16.13941,18.2334c0.07777,2.10018 -0.09129,3.49788 -0.43338,4.83844c0.17306,-0.01843 0.34506,-0.03394 0.51511,-0.04738c5.32722,-0.42077 8.82602,4.72186 14.00391,4.14787zM225.79341,61.58882c0,0 -0.26965,0 -0.62407,-0.10619c-2.39787,1.83697 -4.79621,3.57912 -7.15456,5.4729c-1.09142,1.18001 -2.10601,2.46606 -3.06914,3.96867c-0.49699,0.77537 -1.64646,2.87115 -1.27932,4.09167c1.38461,4.60297 5.19299,3.63283 7.5291,1.34461c4.47799,-4.38621 4.72998,-8.14315 5.30755,-14.40047l0.1418,-0.37117c-0.28378,0 -0.56756,0 -0.85134,0zM137.63489,61.67894c-1.42354,1.38419 -2.86743,2.74259 -4.34122,4.056c-0.23935,0.35698 -0.44879,0.7348 -0.60884,1.14712c-1.63634,4.21545 -1.20885,9.65001 3.62536,10.14952c7.96291,0.82278 7.89651,-13.20309 2.83613,-17.08541l-1.44262,1.65696l-0.02811,-0.03227zM67.74638,72.64024c-0.10435,0.67426 -0.14351,1.34299 -0.10439,1.99764c0.23628,3.95475 4.28065,5.10632 6.55161,2.69747c3.29812,-3.49838 3.8337,-7.10461 3.91674,-11.64506c-0.04057,-0.56736 -0.05028,-1.12933 0.01433,-1.67404c0.00033,-0.20084 0.00034,-0.4035 0.00021,-0.60804v-1.73849c-3.39526,4.01657 -6.56044,8.12134 -10.3785,10.97053zM46.1091,45.17575c5.07233,-4.27512 11.97643,-10.33832 9.35612,-17.76661c-1.04143,-2.95232 -1.69296,-5.68738 -4.57067,-6.72181c-2.38963,-0.85899 -3.59473,6.0928 -3.79613,7.75251c-0.68391,5.63614 -0.96616,11.17097 -0.9893,16.73591zM24.06927,56.38784c-4.20017,0.41756 -8.44898,1.97684 -11.34131,5.43401c-3.79214,4.53271 -1.82602,15.59343 3.02489,18.42573c0.34369,0.20067 0.75643,-0.21588 1.09511,-0.42748c2.16976,-1.35559 3.4122,-2.67865 4.45374,-5.19355c2.08974,-5.7506 2.67791,-11.95747 2.76756,-18.23871zM145.56336,83.49536c-3.98738,4.67501 -7.92644,9.40281 -11.46497,14.58897c-2.59003,3.79601 -6.07055,9.31379 -4.75166,14.68364c0.6205,2.5263 2.1176,3.39758 3.72665,4.70669c1.03115,-0.08891 5.38448,-0.45051 5.59773,-0.56417c2.04469,-1.08988 3.05513,-4.39016 3.66009,-6.53728c1.19067,-4.22593 1.54941,-8.28048 1.96349,-12.66408c0.42496,-4.49859 1.02288,-9.34426 1.26866,-14.21376z" fill="url(#color-1)" fill-rule="nonzero" stroke="none" stroke-width="0.5" stroke-linecap="butt" stroke-linejoin="miter"/><text transform="translate(360.95631,55.78962) scale(0.38106,0.38106)" font-size="40" xml:space="preserve" fill="#ffffff" fill-rule="nonzero" stroke="none" stroke-width="1" stroke-linecap="butt" stroke-linejoin="miter" stroke-miterlimit="10" stroke-dasharray="" stroke-dashoffset="0" font-family="&quot;OpenSans-VariableFont_wdthwght&quot;, Sans Serif" font-weight="normal" text-anchor="start" style="mix-blend-mode: normal"><tspan x="0" dy="0">Guess a word!</tspan></text><text transform="translate(122.48175,347.27669) scale(0.28707,0.28707)" font-size="40" xml:space="preserve" fill="#ffffff" fill-rule="nonzero" stroke="none" stroke-width="1" stroke-linecap="butt" stroke-linejoin="miter" stroke-miterlimit="10" stroke-dasharray="" stroke-dashoffset="0" font-family="&quot;OpenSans-VariableFont_wdthwght&quot;, Sans Serif" font-weight="normal" text-anchor="start" style="mix-blend-mode: normal"><tspan x="0" dy="0">Song - Electrical Fuse by DJ MUSIX</tspan></text><text transform="translate(7.48618,100.47466) scale(0.36968,0.36968)" font-size="40" xml:space="preserve" fill="#ffffff" fill-rule="nonzero" stroke="none" stroke-width="1" stroke-linecap="butt" stroke-linejoin="miter" stroke-miterlimit="10" stroke-dasharray="" stroke-dashoffset="0" font-family="&quot;OpenSans-VariableFont_wdthwght&quot;, Sans Serif" font-weight="normal" text-anchor="start" style="mix-blend-mode: normal"><tspan x="0" dy="0">VERSION 1.3</tspan></text><path d="M349.48618,294.97111v-217h121v217z" fill-opacity="0.44314" fill="#000000" fill-rule="nonzero" stroke="none" stroke-width="0" stroke-linecap="butt" stroke-linejoin="miter"/><text transform="translate(356.92783,100.47466) scale(0.36968,0.36968)" font-size="40" xml:space="preserve" fill="#ffffff" fill-rule="nonzero" stroke="none" stroke-width="1" stroke-linecap="butt" stroke-linejoin="miter" stroke-miterlimit="10" stroke-dasharray="" stroke-dashoffset="0" font-family="&quot;OpenSans-VariableFont_wdthwght&quot;, Sans Serif" font-weight="normal" text-anchor="start" style="mix-blend-mode: normal"><tspan x="0" dy="0">Changelog</tspan></text><text transform="translate(356.92783,124.47466) scale(0.36968,0.36968)" font-size="40" xml:space="preserve" fill="#ffffff" fill-rule="nonzero" stroke="none" stroke-width="1" stroke-linecap="butt" stroke-linejoin="miter" stroke-miterlimit="10" stroke-dasharray="" stroke-dashoffset="0" font-family="&quot;OpenSans-VariableFont_wdthwght&quot;, Sans Serif" font-weight="normal" text-anchor="start" style="mix-blend-mode: normal"><tspan x="0" dy="0">1.3 - Rewritten</tspan><tspan x="0" dy="46.150000000000006px">the chose word</tspan><tspan x="0" dy="46.150000000000006px">logic, revamped</tspan><tspan x="0" dy="46.150000000000006px">some ui.</tspan></text><text transform="translate(356.92783,201.47466) scale(0.36968,0.36968)" font-size="40" xml:space="preserve" fill="#ffffff" fill-rule="nonzero" stroke="none" stroke-width="1" stroke-linecap="butt" stroke-linejoin="miter" stroke-miterlimit="10" stroke-dasharray="" stroke-dashoffset="0" font-family="&quot;OpenSans-VariableFont_wdthwght&quot;, Sans Serif" font-weight="normal" text-anchor="start" style="mix-blend-mode: normal"><tspan x="0" dy="0">1.2- Rewritten</tspan><tspan x="0" dy="46.150000000000006px">the input char</tspan><tspan x="0" dy="46.150000000000006px">function, </tspan><tspan x="0" dy="46.150000000000006px">revamped</tspan><tspan x="0" dy="46.150000000000006px">some ui and</tspan><tspan x="0" dy="46.150000000000006px">added song...</tspan></text><text transform="translate(15.47926,274.72111) scale(0.34832,0.34832)" font-size="40" xml:space="preserve" fill="#ffffff" fill-rule="nonzero" stroke="none" stroke-width="1" stroke-linecap="butt" stroke-linejoin="miter" stroke-miterlimit="10" stroke-dasharray="" stroke-dashoffset="0" font-family="&quot;OpenSans-VariableFont_wdthwght&quot;, Sans Serif" font-weight="normal" text-anchor="start" style="mix-blend-mode: normal"><tspan x="0" dy="0">Keep mouse out of</tspan><tspan x="0" dy="46.150000000000006px">button to choose by</tspan><tspan x="0" dy="46.150000000000006px">keyboard.</tspan></text><text transform="translate(169.48838,102.47466) scale(0.36968,0.36968)" font-size="40" xml:space="preserve" fill="#ffffff" fill-rule="nonzero" stroke="none" stroke-width="1" stroke-linecap="butt" stroke-linejoin="miter" stroke-miterlimit="10" stroke-dasharray="" stroke-dashoffset="0" font-family="&quot;OpenSans-VariableFont_wdthwght&quot;, Sans Serif" font-weight="normal" text-anchor="start" style="mix-blend-mode: normal"><tspan x="0" dy="0">SUPPORT 2+ KATA</tspan></text><text transform="translate(183.92783,272.72842) scale(0.24353,0.24353)" font-size="40" xml:space="preserve" fill="#ffffff" fill-rule="nonzero" stroke="none" stroke-width="1" stroke-linecap="butt" stroke-linejoin="miter" stroke-miterlimit="10" stroke-dasharray="" stroke-dashoffset="0" font-family="&quot;OpenSans-VariableFont_wdthwght&quot;, Sans Serif" font-weight="normal" text-anchor="start" style="mix-blend-mode: normal"><tspan x="0" dy="0">tips; try to not choose</tspan><tspan x="0" dy="46.15px">the same letters even</tspan><tspan x="0" dy="46.15px">if it already deemed correct as</tspan><tspan x="0" dy="46.15px">there is an ongoing bug.</tspan></text></g></g></svg>