<svg version="1.1" xmlns="http://www.w3.org/2000/svg" xmlns:xlink="http://www.w3.org/1999/xlink" width="116.21045" height="37.9052" viewBox="0,0,116.21045,37.9052"><defs><linearGradient x1="234.22455" y1="166.05008" x2="234.22455" y2="197.18362" gradientUnits="userSpaceOnUse" id="color-1"><stop offset="0" stop-color="#ffffff"/><stop offset="1" stop-color="#898989"/></linearGradient></defs><g transform="translate(-173.61932,-165.77842)"><g data-paper-data="{&quot;isPaintingLayer&quot;:true}" fill-rule="nonzero" stroke="none" stroke-linecap="butt" stroke-linejoin="miter" stroke-miterlimit="10" stroke-dasharray="" stroke-dashoffset="0" style="mix-blend-mode: normal"><text transform="translate(193.65183,185.38356) scale(0.44863,0.44863)" font-size="40" xml:space="preserve" fill="#ffffff" fill-rule="nonzero" stroke="none" stroke-width="1" stroke-linecap="butt" stroke-linejoin="miter" stroke-miterlimit="10" stroke-dasharray="" stroke-dashoffset="0" font-family="&quot;OpenSans-VariableFont_wdthwght&quot;, Sans Serif" font-weight="normal" text-anchor="start" style="mix-blend-mode: normal"><tspan x="0" dy="0">Start/Mulai</tspan></text><path d="M173.61933,203.68363v-31.25974c0,0 1.00807,-1.39368 2.1597,-2.93156c0.74093,-0.98942 1.52164,-2.82919 2.4616,-2.82919c11.96193,0 107.03995,5.76074 107.03995,5.76074c0,0 4.5492,18.99561 4.5492,24.52841c0,1.08718 -1.18198,2.37966 -2.05364,3.54004c-1.31083,1.74502 -2.49555,3.19129 -2.49555,3.19129z" fill="#989898" stroke-width="0"/><path d="M178.61932,197.18362v-31.13354h111.21046v31.13354z" fill="url(#color-1)" stroke-width="0"/><text transform="translate(189.63361,187.00041) scale(0.44863,0.44863)" font-size="40" xml:space="preserve" fill="#000000" fill-rule="nonzero" stroke="none" stroke-width="1" stroke-linecap="butt" stroke-linejoin="miter" stroke-miterlimit="10" stroke-dasharray="" stroke-dashoffset="0" font-family="&quot;OpenSans-VariableFont_wdthwght&quot;, Sans Serif" font-weight="normal" text-anchor="start" style="mix-blend-mode: normal"><tspan x="0" dy="0">Start/Mulai</tspan></text></g></g></svg>