<svg version="1.1" xmlns="http://www.w3.org/2000/svg" xmlns:xlink="http://www.w3.org/1999/xlink" width="97.25586" height="27.22692" viewBox="0,0,97.25586,27.22692"><g transform="translate(-191.37207,-165.21809)"><g data-paper-data="{&quot;isPaintingLayer&quot;:true}" fill-rule="nonzero" stroke="none" stroke-linecap="butt" stroke-linejoin="miter" stroke-miterlimit="10" stroke-dasharray="" stroke-dashoffset="0" style="mix-blend-mode: normal"><path d="M192.05377,191.76331c0,0 -0.6817,-0.58378 -0.6817,-2.53938c0,-5.64923 0,-17.05739 0,-20.35457c0,-1.74676 1.47703,-3.08318 1.47703,-3.08318c0,0 0.60731,-0.56809 3.10762,-0.56809c9.82511,0 73.26899,0 89.09758,0c2.28138,0 2.32383,0.45447 2.32383,0.45447c0,0 1.2498,0.66148 1.2498,2.41847c0,5.56992 0,17.58213 0,20.90566c0,1.66487 -0.56809,2.31215 -0.56809,2.31215c0,0 -0.46808,1.13618 -2.32383,1.13618c-14.84768,0 -82.16045,0 -91.0078,0c-1.88169,0 -2.67444,-0.6817 -2.67444,-0.6817z" fill="#ffffff" stroke-width="0"/><text transform="translate(195.03424,183.86094) scale(0.32175,0.32175)" font-size="40" xml:space="preserve" fill="#000000" fill-rule="nonzero" stroke="none" stroke-width="1" stroke-linecap="butt" stroke-linejoin="miter" stroke-miterlimit="10" stroke-dasharray="" stroke-dashoffset="0" font-family="&quot;OpenSans-VariableFont_wdthwght&quot;, Sans Serif" font-weight="normal" text-anchor="start" style="mix-blend-mode: normal"><tspan x="0" dy="0">License/Lisensi</tspan></text></g></g></svg>