<svg version="1.1" xmlns="http://www.w3.org/2000/svg" xmlns:xlink="http://www.w3.org/1999/xlink" width="502.528" height="372.66194" viewBox="0,0,502.528,372.66194"><g transform="translate(17.19457,1.38729)"><g data-paper-data="{&quot;isPaintingLayer&quot;:true}" fill-rule="nonzero" stroke-linecap="butt" stroke-linejoin="miter" stroke-miterlimit="10" stroke-dasharray="" stroke-dashoffset="0" style="mix-blend-mode: normal"><path d="M-17.19457,371.27466v-372.66194h502.528v372.66194z" fill="#1b1b1b" stroke="none" stroke-width="0"/><text transform="translate(50.08029,330.18904) scale(0.30135,0.30135)" font-size="40" xml:space="preserve" fill="#ffffff" fill-rule="nonzero" stroke="none" stroke-width="1" stroke-linecap="butt" stroke-linejoin="miter" stroke-miterlimit="10" stroke-dasharray="" stroke-dashoffset="0" font-family="&quot;Open Sans Variable&quot;, Sans Serif" font-weight="normal" text-anchor="start" style="mix-blend-mode: normal"><tspan x="0" dy="0">Klik dua kali untuk menjamin perubahan</tspan><tspan x="0" dy="48px">tingkat kesulitan.</tspan></text><path d="M30.02676,326.79706c0,-4.13956 3.35578,-7.49534 7.49534,-7.49534c4.13956,0 7.49534,3.35578 7.49534,7.49534c0,4.13956 -3.35578,7.49534 -7.49534,7.49534c-4.13956,0 -7.49534,-3.35578 -7.49534,-7.49534z" fill="none" stroke="#ffffff" stroke-width="1.5"/><text transform="translate(35.93662,331.07049) scale(0.30135,0.30135)" font-size="40" xml:space="preserve" fill="#ffffff" fill-rule="nonzero" stroke="none" stroke-width="1" stroke-linecap="butt" stroke-linejoin="miter" stroke-miterlimit="10" stroke-dasharray="" stroke-dashoffset="0" font-family="&quot;Open Sans Variable&quot;, Sans Serif" font-weight="normal" text-anchor="start" style="mix-blend-mode: normal"><tspan x="0" dy="0">i</tspan></text><text transform="translate(10.03524,60.30294) scale(1.23051,1.23051)" font-size="40" xml:space="preserve" fill="#ffffff" fill-rule="nonzero" stroke="none" stroke-width="1" stroke-linecap="butt" stroke-linejoin="miter" stroke-miterlimit="10" stroke-dasharray="" stroke-dashoffset="0" font-family="&quot;Open Sans Variable&quot;, Sans Serif" font-weight="normal" text-anchor="start" style="mix-blend-mode: normal"><tspan x="0" dy="0">tingkatan</tspan></text><path d="M24,182.50151v-3.75h432v3.75z" fill="#000000" stroke="none" stroke-width="0"/><text transform="translate(51.28559,280.25847) scale(0.37427,0.37427)" font-size="40" xml:space="preserve" fill="#ffffff" fill-rule="nonzero" stroke="none" stroke-width="1" stroke-linecap="butt" stroke-linejoin="miter" stroke-miterlimit="10" stroke-dasharray="" stroke-dashoffset="0" font-family="&quot;Open Sans Variable&quot;, Sans Serif" font-weight="normal" text-anchor="start" style="mix-blend-mode: normal"><tspan x="0" dy="0">Kesulitan:</tspan></text><path d="M37.56943,284.48148l-9.54594,-9.54594l9.54594,-9.54594l9.54594,9.54594z" fill="none" stroke="#ffffff" stroke-width="1.5"/><path d="M37.81943,279.98148l-4.79594,-4.79594l4.79594,-4.79594l4.79594,4.79594z" fill="none" stroke="#ffffff" stroke-width="1.5"/></g></g></svg>