<svg version="1.1" xmlns="http://www.w3.org/2000/svg" xmlns:xlink="http://www.w3.org/1999/xlink" width="19.60971" height="31.50585" viewBox="0,0,19.60971,31.50585"><g transform="translate(-230.21603,-171.25)"><g data-paper-data="{&quot;isPaintingLayer&quot;:true}" fill-rule="nonzero" stroke-linecap="butt" stroke-linejoin="miter" stroke-miterlimit="10" stroke-dasharray="" stroke-dashoffset="0" style="mix-blend-mode: normal"><path d="M231.5,180c0,-4.69442 3.80558,-8.5 8.5,-8.5c4.69442,0 8.5,3.80558 8.5,8.5c0,4.69442 -3.80558,8.5 -8.5,8.5c-4.69442,0 -8.5,-3.80558 -8.5,-8.5z" fill="none" stroke="#ffffff" stroke-width="0.5"/><path d="M246.48418,189.80956l2.30652,1.91833c0,0 -5.77104,7.49178 -7.81415,9.94833c-1.94896,2.34336 -9.76725,-8.57566 -9.76725,-8.57566l2.08444,-1.9452c0,0 5.10358,8.37753 7.08264,5.99799c2.01674,-2.42484 6.1078,-7.34378 6.1078,-7.34378z" fill="#ff8800" stroke="#000000" stroke-width="1.5"/></g></g></svg>