<svg version="1.1" xmlns="http://www.w3.org/2000/svg" xmlns:xlink="http://www.w3.org/1999/xlink" width="232.84302" height="219.85831" viewBox="0,0,232.84302,219.85831"><defs><linearGradient x1="247.21539" y1="221.32866" x2="228.54872" y2="221.32866" gradientUnits="userSpaceOnUse" id="color-1"><stop offset="0" stop-color="#000000"/><stop offset="1" stop-color="#000000" stop-opacity="0"/></linearGradient><linearGradient x1="247.22638" y1="241.18581" x2="228.55971" y2="241.18581" gradientUnits="userSpaceOnUse" id="color-2"><stop offset="0" stop-color="#000000"/><stop offset="1" stop-color="#000000" stop-opacity="0"/></linearGradient><linearGradient x1="247.22937" y1="261.33771" x2="228.5627" y2="261.33771" gradientUnits="userSpaceOnUse" id="color-3"><stop offset="0" stop-color="#000000"/><stop offset="1" stop-color="#000000" stop-opacity="0"/></linearGradient><linearGradient x1="332.38452" y1="70.84017" x2="332.38452" y2="89.50684" gradientUnits="userSpaceOnUse" id="color-4"><stop offset="0" stop-color="#000000"/><stop offset="1" stop-color="#000000" stop-opacity="0"/></linearGradient><linearGradient x1="352.24167" y1="70.82919" x2="352.24167" y2="89.49586" gradientUnits="userSpaceOnUse" id="color-5"><stop offset="0" stop-color="#000000"/><stop offset="1" stop-color="#000000" stop-opacity="0"/></linearGradient><linearGradient x1="372.39357" y1="70.8262" x2="372.39357" y2="89.49287" gradientUnits="userSpaceOnUse" id="color-6"><stop offset="0" stop-color="#000000"/><stop offset="1" stop-color="#000000" stop-opacity="0"/></linearGradient><linearGradient x1="392.55842" y1="70.81521" x2="392.55842" y2="89.48187" gradientUnits="userSpaceOnUse" id="color-7"><stop offset="0" stop-color="#000000"/><stop offset="1" stop-color="#000000" stop-opacity="0"/></linearGradient><linearGradient x1="441.13665" y1="119.98892" x2="459.80332" y2="119.98892" gradientUnits="userSpaceOnUse" id="color-8"><stop offset="0" stop-color="#000000"/><stop offset="1" stop-color="#000000" stop-opacity="0"/></linearGradient><linearGradient x1="441.12566" y1="99.82408" x2="459.79232" y2="99.82407" gradientUnits="userSpaceOnUse" id="color-9"><stop offset="0" stop-color="#000000"/><stop offset="1" stop-color="#000000" stop-opacity="0"/></linearGradient><linearGradient x1="390.38452" y1="270.50684" x2="390.38452" y2="289.17351" gradientUnits="userSpaceOnUse" id="color-10"><stop offset="0" stop-color="#000000"/><stop offset="1" stop-color="#000000" stop-opacity="0"/></linearGradient><linearGradient x1="410.24167" y1="270.49585" x2="410.24167" y2="289.16252" gradientUnits="userSpaceOnUse" id="color-11"><stop offset="0" stop-color="#000000"/><stop offset="1" stop-color="#000000" stop-opacity="0"/></linearGradient><linearGradient x1="430.39357" y1="270.49286" x2="430.39357" y2="289.15953" gradientUnits="userSpaceOnUse" id="color-12"><stop offset="0" stop-color="#000000"/><stop offset="1" stop-color="#000000" stop-opacity="0"/></linearGradient><linearGradient x1="450.55841" y1="270.48188" x2="450.55841" y2="289.14854" gradientUnits="userSpaceOnUse" id="color-13"><stop offset="0" stop-color="#000000"/><stop offset="1" stop-color="#000000" stop-opacity="0"/></linearGradient><linearGradient x1="381.80331" y1="190.32225" x2="400.46998" y2="190.32225" gradientUnits="userSpaceOnUse" id="color-14"><stop offset="0" stop-color="#000000"/><stop offset="1" stop-color="#000000" stop-opacity="0"/></linearGradient><linearGradient x1="381.79233" y1="170.15741" x2="400.45899" y2="170.1574" gradientUnits="userSpaceOnUse" id="color-15"><stop offset="0" stop-color="#000000"/><stop offset="1" stop-color="#000000" stop-opacity="0"/></linearGradient></defs><g transform="translate(-227.79872,-70.0652)"><g data-paper-data="{&quot;isPaintingLayer&quot;:true}" fill-rule="nonzero" stroke="#ffffff" stroke-width="1.5" stroke-linecap="butt" stroke-linejoin="miter" stroke-miterlimit="10" stroke-dasharray="" stroke-dashoffset="0" style="mix-blend-mode: normal"><path d="M228.54872,211.99533h18.66667v18.66667h-18.66667z" fill="url(#color-1)"/><path d="M228.55971,231.85247l18.66667,0l0,18.66667h-18.66667z" fill="url(#color-2)"/><path d="M228.5627,252.00437l18.66667,0l0,18.66667l-18.66667,0z" fill="url(#color-3)"/><path d="M323.05119,89.50684v-18.66667h18.66667v18.66667z" fill="url(#color-4)"/><path d="M342.90833,89.49586v-18.66667h18.66667v18.66667z" fill="url(#color-5)"/><path d="M363.06023,89.49287v-18.66667h18.66667v18.66667z" fill="url(#color-6)"/><path d="M383.22508,89.48187v-18.66667h18.66667v18.66667z" fill="url(#color-7)"/><path d="M459.80332,129.32226h-18.66667v-18.66667h18.66667z" fill="url(#color-8)"/><path d="M459.79232,109.15742h-18.66667v-18.66667h18.66667z" fill="url(#color-9)"/><path d="M381.05119,289.17351v-18.66667h18.66667v18.66667z" fill="url(#color-10)"/><path d="M400.90833,289.16252v-18.66667h18.66667v18.66667z" fill="url(#color-11)"/><path d="M421.06023,289.15953v-18.66667h18.66667v18.66667z" fill="url(#color-12)"/><path d="M441.22507,289.14854v-18.66667h18.66667v18.66667z" fill="url(#color-13)"/><path d="M400.46998,199.65559h-18.66667v-18.66667h18.66667z" fill="url(#color-14)"/><path d="M400.45899,179.49075h-18.66667v-18.66667h18.66667z" fill="url(#color-15)"/></g></g></svg>