<svg version="1.1" xmlns="http://www.w3.org/2000/svg" xmlns:xlink="http://www.w3.org/1999/xlink" width="773.10805" height="515.57264" viewBox="0,0,773.10805,515.57264"><defs><linearGradient x1="346.96844" y1="39.65886" x2="346.96844" y2="69.68889" gradientUnits="userSpaceOnUse" id="color-1"><stop offset="0" stop-color="#000000" stop-opacity="0.34902"/><stop offset="1" stop-color="#000000" stop-opacity="0"/></linearGradient></defs><g transform="translate(65.58411,100.41845)"><g data-paper-data="{&quot;isPaintingLayer&quot;:true}" fill-rule="nonzero" stroke="none" stroke-linecap="butt" stroke-linejoin="miter" stroke-miterlimit="10" stroke-dasharray="" stroke-dashoffset="0" style="mix-blend-mode: normal"><path d="M1.06953,368.36169v-379h641.50751v379z" fill="#444444" stroke-width="NaN"/><path d="M-17.15791,373.60764l-48.4262,-85.76688l687.6398,-388.25921l48.4262,85.76688z" fill="#565656" stroke-width="0"/><path d="M19.88414,415.15419l-48.4262,-85.76688l687.6398,-388.25921l48.4262,85.76688z" fill="#a7a7a7" stroke-width="0"/><path d="M17.84616,380.65569l-44.88712,-79.4989l637.38589,-359.88455l44.88712,79.4989z" fill="#000000" stroke-width="0"/><path d="M112.5,120.5v-39h40v39z" fill="#ffffff" stroke-width="0"/><path d="M161.5,109.5v-12h6v12z" fill="#ffffff" stroke-width="0"/><path d="M129.5,168.5v-35h70v35z" fill="#ffffff" stroke-width="0"/><path d="M219.5,151.5v-10h6v10z" fill="#ffffff" stroke-width="0"/><path d="M198.5,125.5v-23h17v23z" fill="#ffffff" stroke-width="0"/><path d="M246.5,102.5v-6h2v6z" fill="#ffffff" stroke-width="0"/><path d="M88.5,235.5v-41h29v41z" fill="#ffffff" stroke-width="0"/><path d="M130.5,213.5v-23h16v23z" fill="#ffffff" stroke-width="0"/><path d="M347.5,357.5v-52h63v52z" fill="#ffffff" stroke-width="0"/><path d="M429.5,323.5v-47h17v47z" fill="#ffffff" stroke-width="0"/><path d="M438.5,268.5v-32h44v32z" fill="#ffffff" stroke-width="0"/><path d="M477.5,218.5v-47h30v47z" fill="#ffffff" stroke-width="0"/><path d="M514.5,270.5v-6h3v6z" fill="#ffffff" stroke-width="0"/><path d="M455.5,285.5v-9h8v9z" fill="#ffffff" stroke-width="0"/><path d="M393.5,293.5v-12h22v12z" fill="#ffffff" stroke-width="0"/><path d="M429.5,349.5v-10h25v10z" fill="#ffffff" stroke-width="0"/><path d="M489.5,238.5v-6h10v6z" fill="#ffffff" stroke-width="0"/><path d="M515.5,184.5v-13h13v13z" fill="#ffffff" stroke-width="0"/><path d="M336.5,72.5v-57h340.57853v57z" fill="#ffffff" stroke-width="0"/><path d="M368.4,43.9c0,15.74012 -12.98374,28.5 -29,28.5c-16.01626,0 -29,-12.75988 -29,-28.5c0,-15.74012 12.98374,-28.5 29,-28.5c16.01626,0 29,12.75988 29,28.5z" fill="#ffffff" stroke-width="0"/><text transform="translate(322.18851,36.86169) scale(0.5,0.5)" font-size="40" xml:space="preserve" fill="#000000" fill-rule="nonzero" stroke="none" stroke-width="1" stroke-linecap="butt" stroke-linejoin="miter" stroke-miterlimit="10" stroke-dasharray="" stroke-dashoffset="0" font-family="Sans Serif" font-weight="normal" text-anchor="start" style="mix-blend-mode: normal"><tspan x="0" dy="0">coins:</tspan></text><text transform="translate(16.8048,30.83258) scale(0.5,0.5)" font-size="40" xml:space="preserve" fill="#ffffff" fill-rule="nonzero" stroke="none" stroke-width="1" stroke-linecap="butt" stroke-linejoin="miter" stroke-miterlimit="10" stroke-dasharray="" stroke-dashoffset="0" font-family="&quot;OpenSans-Light&quot;, Sans Serif" font-weight="normal" text-anchor="start" style="mix-blend-mode: normal"><tspan x="0" dy="0">Tap!Dash</tspan></text><path d="M322.19367,69.68889v-30.03003h49.54954v30.03003z" fill="url(#color-1)" stroke-width="NaN"/></g></g></svg>