<svg version="1.1" xmlns="http://www.w3.org/2000/svg" xmlns:xlink="http://www.w3.org/1999/xlink" width="676" height="432" viewBox="0,0,676,432"><defs><linearGradient x1="8.377" y1="186.62892" x2="184.60823" y2="186.62892" gradientUnits="userSpaceOnUse" id="color-1"><stop offset="0" stop-color="#ffea00" stop-opacity="0.7098"/><stop offset="1" stop-color="#a79100" stop-opacity="0.6549"/></linearGradient></defs><g transform="translate(18.13904,20.68173)"><g data-paper-data="{&quot;isPaintingLayer&quot;:true}" fill-rule="nonzero" stroke-linecap="butt" stroke-linejoin="miter" stroke-miterlimit="10" stroke-dasharray="" stroke-dashoffset="0" style="mix-blend-mode: normal"><path d="M-17.13904,410.31827v-430h674v430z" fill="#4f0b00" stroke="#000000" stroke-width="2"/><path d="M198.36096,43.31827c0,2.5 -2.5,2.5 -2.5,2.5c-9,0 -23,0 -32,0c-4.51021,0 -9.22924,-0.38247 -13.72524,-0.01514c-1.80492,0.14746 -5.69028,1.78061 -6.72144,2.15591c-4.28099,1.55814 -8.62434,3.01605 -13.08943,3.97999c-6.83219,1.47497 -14.25452,1.5375 -21.2184,2.31179c-6.23199,0.68775 -12.39995,0.57201 -18.663,0.58503c-0.31942,0.00066 -9.10179,-0.00222 -9.61686,0.07874c-3.22499,0.50693 -6.46938,2.5594 -9.71992,2.89157c-4.6804,0.47829 -10.5348,-0.95253 -15.22855,-1.39771c-4.97752,-0.47209 -10.72342,-0.34981 -15.47719,-2.07159c-0.19877,-0.07199 -8.73631,-4.74048 -9.11678,-4.95385c-1.67112,-0.93717 -3.65755,-1.47819 -4.98716,-2.8577c-1.32961,-1.37951 -1.78141,-3.39268 -2.67211,-5.08901c0,0 -1.11803,-2.23607 1.11803,-3.3541c2.23607,-1.11803 3.3541,1.11803 3.3541,1.11803c0.60001,1.28509 0.8158,2.8341 1.80002,3.85526c0.98422,1.02116 2.53375,1.27562 3.78636,1.94077c2.83341,1.50457 5.41905,3.53651 8.43026,4.6431c2.23206,0.82026 7.00587,1.10642 9.25891,1.31933c4.97752,0.47036 9.95805,0.91948 14.93299,1.41631c1.43741,0.14355 2.87272,0.60331 4.30968,0.45538c3.26911,-0.33654 6.18977,-2.3471 9.43661,-2.85539c9.28119,-1.45295 19.12122,0.35625 28.50246,-0.69358c6.78363,-0.75321 14.05829,-0.76652 20.7067,-2.22788c6.77309,-1.48877 13.48896,-5.58076 20.32519,-6.2201c4.65908,-0.43573 9.59724,-0.01514 14.27476,-0.01514c9,0 18,0 27,0h5c0,0 2.5,0 2.5,2.5z" fill="#801100" stroke="none" stroke-width="0.5"/><path d="M84.36096,110.31827c0,2.5 -2.5,2.5 -2.5,2.5h-4c-7.11946,0 -14.18389,-0.2583 -21.27279,-1.01493c-6.31751,-0.67429 -12.35071,-1.99339 -18.72721,-1.98507c0,0 -2.5,0 -2.5,-2.5c0,-2.5 2.5,-2.5 2.5,-2.5c6.56812,0.00798 12.76877,1.32144 19.27279,2.01493c6.90843,0.7366 13.78957,0.98507 20.72721,0.98507h4c0,0 2.5,0 2.5,2.5z" fill="#801100" stroke="none" stroke-width="0.5"/><path d="M289.35805,167.43893c-0.12066,2.49709 -2.61775,2.37643 -2.61775,2.37643l-1.1204,-0.05414c-8.14826,-0.39373 -17.91326,0.55094 -25.70045,-2.12701c-2.49212,-0.85702 -4.31464,-3.05579 -6.65278,-4.27164c-2.69373,-1.40076 -5.6526,-2.19037 -8.65206,-2.55647c-8.15197,-0.99497 -16.42995,1.04715 -24.46691,1.99567c-6.3457,0.74892 -12.75986,1.12678 -19.12507,1.68842c-14.32314,1.26381 -29.10831,2.29854 -43.49606,1.16494c-6.65217,-0.52412 -13.34488,-1.81865 -19.95765,-2.72188c-6.29835,-0.86028 -16.24243,-0.64602 -20.71668,-6.12665c-1.07157,-1.3126 -0.94444,-3.25466 -1.41666,-4.88199c0,0 -0.60634,-2.42536 1.81902,-3.0317c2.42536,-0.60634 3.0317,1.81902 3.0317,1.81902c0.19445,1.03934 -0.06918,2.286 0.58334,3.11801c0.75676,0.96492 2.08554,1.32484 3.23536,1.75106c4.3971,1.62994 9.53977,1.76983 14.14058,2.39825c6.51873,0.89038 13.11708,2.17295 19.67437,2.69138c14.10944,1.11551 28.61721,0.07827 42.66321,-1.16109c6.32037,-0.55768 12.69012,-0.93065 18.99104,-1.67477c8.38935,-0.99075 17.02597,-3.07428 25.53309,-2.00433c3.76257,0.47322 7.06088,1.35324 10.45068,3.08805c2.21401,1.13307 3.88765,3.28948 6.24449,4.08385c2.91048,0.98097 6.07088,0.89766 9.07622,1.04075c4.99434,0.23779 9.98835,0.48264 14.98252,0.72396l1.1204,0.05414c0,0 2.49709,0.12066 2.37643,2.61775z" fill="#801100" stroke="none" stroke-width="0.5"/><path d="M256.36096,95.31827c0,2.5 -2.5,2.5 -2.5,2.5h-2c-7.99593,0 -16.50625,0.83398 -24.45205,-0.05217c-3.30898,-0.36903 -6.481,-1.63191 -9.79429,-1.95999c-2.57198,-0.25468 -5.1691,0.01217 -7.75366,0.01217c0,0 -2.5,0 -2.5,-2.5c0,-2.5 2.5,-2.5 2.5,-2.5c1.26062,0 8.10005,-0.00232 8.24634,0.01217c4.50564,0.44615 5.43058,1.46814 9.81732,1.96233c7.7652,0.87478 16.11931,0.0255 23.93633,0.0255h2c0,0 2.5,0 2.5,2.5z" fill="#801100" stroke="none" stroke-width="0.5"/><path d="M443.3598,33.39456c-0.07629,2.49884 -2.57513,2.42254 -2.57513,2.42254l-3.10507,-0.0948c-9.34101,-0.28947 -18.45656,-1.9004 -27.81864,-1.90404c-4.05658,-0.00157 -9.33847,-0.23618 -13.29194,0.89764c-1.34913,0.38692 -2.46539,1.34978 -3.75135,1.91206c-6.33275,2.76898 -13.31623,4.50337 -19.81695,6.91537c-8.11197,5.34568 -17.8072,4.35605 -27.13694,4.13072c-19.90759,-0.48079 -39.9702,-5.99977 -59.4931,-9.90435c0,0 -2.45145,-0.49029 -1.96116,-2.94174c0.49029,-2.45145 2.94174,-1.96116 2.94174,-1.96116c9.8021,1.96042 19.6218,3.80805 29.43564,5.70619c6.39898,1.23765 12.94121,3.15801 19.41552,3.8754c3.24176,0.3592 6.52151,0.14827 9.78215,0.22712c8.4486,0.20431 17.4337,1.34733 24.73663,-3.58233c6.61427,-2.50379 13.71857,-4.27794 20.18305,-7.08463c1.44745,-0.62844 2.73014,-1.65879 4.24865,-2.08794c4.44766,-1.25694 10.13196,-1.10064 14.70806,-1.10236c9.4162,-0.00355 18.58102,1.62418 27.97122,1.90636l3.10507,0.0948c0,0 2.49884,0.07629 2.42254,2.57513z" fill="#801100" stroke="none" stroke-width="0.5"/><path d="M352.36096,103.31827c0,2.5 -2.5,2.5 -2.5,2.5c-11,0 -25,0 -36,0c0,0 -2.5,0 -2.5,-2.5c0,-2.5 2.5,-2.5 2.5,-2.5c11,0 22,0 33,0h3c0,0 2.5,0 2.5,2.5z" fill="#801100" stroke="none" stroke-width="0.5"/><path d="M515.36096,67.31827c0,2.5 -2.5,2.5 -2.5,2.5l0.11803,-0.26393c-1.51455,0.73235 -2.9041,1.82013 -4.54365,2.19705c-1.73598,0.39909 -5.36984,-0.7105 -7.2825,0.79443c-1.27469,1.00296 -2.0282,2.5814 -3.33234,3.54575c-1.39565,1.03202 -3.1661,1.44496 -4.64522,2.35332c-1.54358,0.94794 -2.72352,2.49676 -4.39381,3.19773c-1.44904,0.60812 -3.11475,0.42087 -4.67502,0.60819c-2.97447,0.35712 -5.94839,0.78112 -8.87273,1.43169c-10.09478,2.22752 -20.08881,2.13636 -30.37277,2.13576c-9.34511,-0.00055 -18.94743,-0.12164 -28.24965,-1.0125c-6.3465,-0.60779 -12.5923,-2.49665 -18.9459,-2.99516c-3.25814,-0.25564 -6.5363,0.00766 -9.80445,0.00766c0,0 -2.5,0 -2.5,-2.5c0,-2.5 2.5,-2.5 2.5,-2.5c0.25202,0 10.06661,-0.00246 10.19555,0.00766c6.39264,0.50157 12.67103,2.3954 19.0541,3.00484c9.13745,0.87242 18.57059,0.98805 27.75035,0.9875c9.91106,-0.00059 19.56538,0.1466 29.29123,-2.01738c3.1001,-0.68417 6.2435,-1.2002 9.40211,-1.51948c1.12703,-0.11392 2.35002,0.17035 3.38614,-0.28749c1.39244,-0.61529 2.31381,-1.99775 3.60619,-2.80227c1.35629,-0.8443 3.01545,-1.16764 4.29905,-2.11882c1.37504,-1.01894 2.14724,-2.73208 3.55686,-3.70262c2.47296,-1.70267 5.94766,-0.85872 8.88404,-1.48506c1.27085,-0.27107 2.30423,-1.20196 3.45635,-1.80295l2.11803,-0.26393c0,0 2.5,0 2.5,2.5z" fill="#801100" stroke="none" stroke-width="0.5"/><path d="M488.36096,160.31827c0,2.5 -2.5,2.5 -2.5,2.5h-1c-16.02571,0 -31.93444,-0.06166 -47.92793,0.99896c-8.10365,-0.06869 -16.21903,0.08115 -24.29695,-0.59237c-2.06519,-0.17219 -8.12785,-1.33412 -10.37141,0.01739c-1.35989,0.81919 -2.07012,2.47426 -3.41154,3.32337c-2.18623,1.38387 -5.57303,2.23089 -8.16221,2.96348c-4.67241,1.32202 -10.01981,3.61458 -14.83535,4.15613c-0.266,0.02991 -9.88991,-0.4748 -10.39449,-0.50073c-0.68257,-0.03507 -10.19018,-0.50416 -10.54756,-0.60662c-1.83808,-0.52699 -3.43292,-1.48961 -4.89589,-2.646l-4.32714,-2.40396c-0.7909,-0.41981 -1.32954,-1.25182 -1.32954,-2.20964c0,-1.38071 1.11929,-2.5 2.5,-2.5h3c0,0 2.5,0 2.5,2.5c0,0.066 -0.00174,0.13025 -0.00513,0.19281l0.09003,0.05002c1.43081,0.37271 2.42438,1.80293 3.84568,2.21043c3.02334,0.86681 6.2851,0.25819 9.4261,0.41957c3.19364,0.16408 6.40134,0.88283 9.57917,0.52546c3.17783,-0.35737 6.14576,-1.77063 9.22319,-2.63994c3.28294,-0.92737 8.68442,-1.80089 11.63356,-3.71959c1.46351,-0.95216 2.29567,-2.74437 3.83571,-3.56702c3.5585,-1.90086 9.34881,-0.85713 13.06203,-0.54786c7.89174,0.6573 15.82056,0.50308 23.73759,0.57718c16.03996,-1.07518 31.99971,-1.00104 48.07207,-1.00104h1c0,0 2.5,0 2.5,2.5z" fill="#801100" stroke="none" stroke-width="0.5"/><path d="M408.08652,230.33869c-0.41738,0.15067 -9.51896,3.44452 -9.74726,3.49186c-0.2279,0.04725 -9.88957,0.64337 -10.33209,0.67097c-7.37685,0.46016 -14.75607,0.31676 -22.14621,0.31676c-18.36088,0 -36.72177,-0.00002 -55.08265,-0.00005c-18.31198,-0.00003 -36.82839,0.68703 -55.11951,-0.19212c-6.6511,-0.31968 -13.26107,-1.47428 -19.91113,-1.8104c-4.59908,-0.23245 -9.28224,0.00257 -13.88671,0.00257c0,0 -2.5,0 -2.5,-2.5c0,-2.5 2.5,-2.5 2.5,-2.5c4.68034,0 9.43836,-0.23253 14.11329,0.00257c6.65487,0.33466 13.2694,1.49115 19.9246,1.81103c18.21068,0.87529 36.64784,0.18633 54.87947,0.18636c18.36088,0.00003 36.72176,0.00005 55.08264,0.00005c7.28545,0 14.56219,0.14838 21.83432,-0.30702c3.20912,-0.20097 6.48051,0.07614 9.62897,-0.5766c3.14845,-0.65273 6.04019,-2.20717 9.06458,-3.29892c6.18946,-2.23378 11.97431,-4.91179 17.90193,-7.75156l0.49036,0.16882c0.02674,-0.01114 0.05337,-0.02175 0.07985,-0.03186v-0.20286h4c1.38071,0 2.5,1.11929 2.5,2.5c0,1.38071 -1.11929,2.5 -2.5,2.5h-3.55721c-5.63472,2.91071 -11.24683,5.3647 -17.21723,7.52042z" fill="#801100" stroke="none" stroke-width="0.5"/><path d="M166.98512,209.99996c1.31831,2.12416 -0.80585,3.44247 -0.80585,3.44247l-3.09191,1.9101c-3.21238,1.36477 -6.18699,3.32218 -9.51835,4.36338c-6.03089,1.88491 -13.48693,1.10236 -19.70806,1.10236c-7.469,0 -15.11877,0.52967 -22.5255,-0.48112c-0.99429,6.44261 -6.71492,11.18563 -12.74164,13.37129c-2.77186,1.00525 -5.88962,0.29942 -8.83618,0.4068c-6.85941,0.24998 -13.54468,0.76458 -20.36336,-0.1224c-5.57792,-0.72558 -10.73276,-0.64498 -15.48813,-4.13183c-3.72944,-2.73459 -6.49308,-7.31453 -9.06249,-11.06609c-0.72741,-1.06209 -0.99561,-2.58038 -2.10073,-3.24058c-0.82815,-0.49474 -1.92131,0.17595 -2.88197,0.26393c0,0 -2.5,0 -2.5,-2.5c0,-2.5 2.5,-2.5 2.5,-2.5c1.70601,0.08798 3.6257,-0.56742 5.11803,0.26393c1.79166,0.9981 2.64724,3.13501 3.89927,4.75942c2.5542,3.31387 4.58933,7.42389 8.00858,10.00498c3.81096,2.87678 8.64208,2.59333 13.15661,3.18855c4.96914,0.65516 9.53304,0.44779 14.53541,0.26549c7.19792,-0.26231 13.95193,0.68168 19.54051,-4.77594c1.95563,-1.90981 3.30251,-5.92801 4.26709,-8.22531c10.13765,-0.75333 20.31092,-0.48507 30.4745,-0.48112c4.06128,0.00158 9.35834,0.35869 13.29194,-0.89764c3.02267,-0.96539 5.71096,-2.77429 8.63451,-4.00772l2.75523,-1.7188c0,0 2.12416,-1.31831 3.44247,0.80585z" fill="#801100" stroke="none" stroke-width="0.5"/><path d="M263.36096,304.31827c0,2.5 -2.5,2.5 -2.5,2.5c-4.66667,0 -10.33333,0 -15,0c-8.33333,0 -16.66667,0.00044 -25,0c-3.85772,-0.0002 -8.11126,-0.25352 -11.91697,0.31333c-4.75701,0.70854 -9.59345,2.63228 -14.26348,3.79564c-9.67933,2.41124 -19.62394,5.25078 -29.46484,6.86573c-5.91717,0.97105 -12.33342,0.69502 -18.32105,1.02507c-5.63571,-0.15645 -13.58171,1.00467 -18.70565,-1.7752c-1.66855,-0.90523 -2.76991,-2.59828 -4.09578,-3.9568c-0.43802,-0.4488 -0.57942,-1.31055 -1.18894,-1.45807c-1.31329,-0.31785 -2.69824,0.16176 -4.04915,0.19029c-4.68413,0.09893 -9.45113,0.08981 -14.13213,-0.06726c-12.95929,-0.43486 -25.88462,-1.9353 -38.86201,-1.93273c0,0 -2.5,0 -2.5,-2.5c0,-2.5 2.5,-2.5 2.5,-2.5c13.03422,0.0025 26.01387,1.49879 39.0297,1.93554c4.65352,0.15615 9.32078,-0.03297 13.97616,0.06446c1.9842,0.04153 4.0562,-0.40051 5.95085,0.19029c1.24988,0.38975 4.9228,5.1687 5.78635,5.6562c4.0996,2.31433 11.67074,1.01958 16.22328,1.15373c5.76986,-0.32316 11.98229,-0.02646 17.67895,-0.97493c9.67402,-1.61069 19.44622,-4.39664 28.96564,-6.76804c4.83016,-1.20325 9.81564,-3.15656 14.7355,-3.88936c4.04408,-0.60236 8.55215,-0.36767 12.65358,-0.36789c8.33333,-0.00044 16.66667,0 25,0c4.66667,0 9.33333,0 14,0h1c0,0 2.5,0 2.5,2.5z" fill="#801100" stroke="none" stroke-width="0.5"/><path d="M447.57108,297.49468c1.82359,1.71012 0.11348,3.53371 0.11348,3.53371l-2.77,2.7102c-16.1519,1.80664 -33.55159,2.3645 -49.60065,-0.31034c-0.64185,-0.10697 -9.9394,-1.64323 -10.31292,-1.76254c-6.54918,-2.09203 -10.4537,-7.4273 -13.37609,-13.2294c0,0 -1.11803,-2.23607 1.11803,-3.3541c2.23607,-1.11803 3.3541,1.11803 3.3541,1.11803c1.28833,2.59809 2.24051,5.17131 4.5295,7.1373c4.54056,3.89984 9.88003,4.22052 15.50937,5.15874c15.2845,2.54742 31.16632,1.39789 46.60239,0.74077l1.29908,-1.62889c0,0 1.71012,-1.82359 3.53371,-0.11348z" fill="#801100" stroke="none" stroke-width="0.5"/><path d="M438.36096,340.31827c0,2.5 -2.5,2.5 -2.5,2.5h-2c-4.91849,0 -8.80059,-0.30563 -13.46601,1.29057c-10.35933,3.38444 -22.65653,1.71261 -33.53399,1.70943c-5.7578,-0.00168 -11.11286,1.49064 -16.8022,1.99216c-10.66901,0.94048 -21.51517,-0.99216 -32.1978,-0.99216c0,0 -2.5,0 -2.5,-2.5c0,-2.5 2.5,-2.5 2.5,-2.5c10.54202,0 21.27866,1.94475 31.8022,1.00784c5.81825,-0.518 11.30211,-2.00616 17.1978,-2.00784c6.33333,-0.0018 12.66667,0 19,0c4.82606,0 8.33686,0.1219 12.95285,-1.45285c5.23755,-1.70749 9.57088,-1.54715 15.04715,-1.54715h2c0,0 2.5,0 2.5,2.5z" fill="#801100" stroke="none" stroke-width="0.5"/><path d="M623.36096,302.31827c0,2.5 -2.5,2.5 -2.5,2.5c-11,0 -27,0 -38,0c-6.00983,0 -12.65724,-0.78218 -18.60377,-0.0316c-1.02108,0.12888 -1.91537,0.79377 -2.92716,0.98216c-0.27771,0.05171 -9.97531,1.00964 -10.34454,1.04634c-11.37484,0.00689 -22.74969,0.0031 -34.12453,0.0031c-4.95994,0 -10.36319,0.53917 -15.28755,-0.01659c-0.18612,-0.02101 -9.56894,-2.229 -9.76839,-2.27582c-4.78585,-1.12355 -10.51388,-1.95509 -15.01626,-3.94918c-1.30389,-0.57749 -5.8643,-4.44766 -6.97592,-4.98872c-1.09607,-0.5335 -2.37215,-0.56288 -3.55823,-0.84433c0,0 -2.42536,-0.60634 -1.81902,-3.0317c0.60634,-2.42536 3.0317,-1.81902 3.0317,-1.81902c1.48059,0.38522 3.06362,0.49141 4.44177,1.15567c2.5909,1.24881 4.38725,3.86263 7.02408,5.01128c4.20023,1.82969 9.5647,2.55402 14.01443,3.59829c3.06827,0.72006 6.06905,1.8244 9.20092,2.17671c4.73461,0.5326 9.94499,-0.01659 14.71245,-0.01659c11.29182,0 22.58365,-0.00408 33.87547,0.0031c3.18481,-0.32053 6.41059,-0.35142 9.5562,-0.94374c1.09228,-0.20568 2.06901,-0.89138 3.1721,-1.02777c6.23359,-0.7707 13.10284,-0.0316 19.39623,-0.0316c11,0 22,0 33,0h5c0,0 2.5,0 2.5,2.5z" fill="#801100" stroke="none" stroke-width="0.5"/><path d="M536.62146,254.47995c-0.16167,-1.2395 1.07783,-1.40117 1.07783,-1.40117c2.92052,-0.38094 6.05354,-0.78959 9.23216,-1.20419c-1.68521,-0.02297 -3.37553,-0.0563 -5.07049,-0.0563c-12,0 -24,0 -36,0c0,0 -2.5,0 -2.5,-2.5c0,-2.5 2.5,-2.5 2.5,-2.5c12,0 24,0 36,0c5.59416,0 11.25004,0.49656 16.72387,-0.55343c0.27652,-0.68312 0.8946,-1.44657 2.27613,-1.44657c2.5,0 2.5,2.5 2.5,2.5l-1.4384,2.60185c7.17817,-0.91225 14.60571,-1.39142 21.68516,-2.82593c8.02089,-1.62528 15.69344,-5.22955 23.75859,-6.5984l-0.05108,-0.17879l2.37605,-0.67887c0.11726,-0.03641 0.24192,-0.05603 0.37116,-0.05603c0.69036,0 1.25,0.55964 1.25,1.25c0,0.21923 -0.05644,0.42527 -0.15557,0.6044l-1.15519,2.19002l-0.07169,-0.03782l-0.08262,0.26551c-3.05586,2.33253 -5.80405,5.71612 -6.77522,9.51044c-0.75686,2.95701 0.19049,6.7304 -0.22625,9.81108c-0.14404,1.06476 0.00984,2.31267 -0.65605,3.15591c-0.58993,0.74705 -1.85025,0.5396 -2.65885,1.04188c-1.33694,0.83048 -1.92791,2.57521 -3.25658,3.41886c-0.24244,0.15394 -4.89431,1.65556 -5.21323,1.75975c-9.2222,0.05513 -18.44703,0.03842 -27.66907,-0.03335c-2.88204,-0.02243 -8.65317,0.63898 -10.7517,-1.89211c-0.60206,-0.72615 -0.20897,-1.89782 -0.55739,-2.77439c-0.56793,-1.42882 -1.65105,-2.60048 -2.3401,-3.97499c0,0 -0.55902,-1.11803 0.55902,-1.67705c1.11803,-0.55902 1.67705,0.55902 1.67705,0.55902c0.72008,1.44419 1.85825,2.67748 2.4334,4.18526c0.25854,0.67777 -0.18438,1.56025 0.21544,2.16552c0.31074,0.47042 1.03769,0.46848 1.5921,0.57085c2.28796,0.42246 4.8737,0.32051 7.19133,0.33796c9.0831,0.06839 18.16651,0.00181 27.24947,0.06556c1.41899,-0.48409 3.00791,-0.59887 4.27361,-1.40253c1.32867,-0.84365 1.91161,-2.60145 3.25658,-3.41886c0.61334,-0.37276 1.59566,-0.0138 2.08457,-0.53926c0.95976,-1.0315 0.12718,-2.81502 0.19036,-4.22255c0.10425,-2.32265 -0.36891,-5.51597 0.18149,-7.74511c0.88337,-3.57768 3.24358,-7.05423 6.05579,-9.52185c-3.20365,1.52577 -7.73658,2.06814 -10.72014,2.92059c-3.9148,1.11852 -7.87999,2.57798 -11.8688,3.38751c-7.3161,1.48481 -14.9976,1.95969 -22.40257,2.92555c-7.437,0.97004 -14.87401,1.94009 -22.31101,2.91013l-1.37798,0.17974c0,0 -1.2395,0.16167 -1.40117,-1.07783z" fill="#801100" stroke="none" stroke-width="0.5"/><path d="M620.35864,196.42606c-0.10779,2.49768 -2.60546,2.38989 -2.60546,2.38989l-3.30555,-0.14276c-1.67131,-0.10369 -3.34262,-0.20738 -5.01393,-0.31108c-8.27739,-0.51373 -16.58584,-1.28806 -24.87459,-1.54504c-13.31698,-0.41286 -26.79895,0.86383 -40.09108,-0.0345c-7.57193,-0.51174 -15.02793,-2.9874 -22.60706,-2.96429c0,0 -2.5,0 -2.5,-2.5c0,-2.5 2.5,-2.5 2.5,-2.5c7.71909,0.02051 15.24232,2.45515 22.94421,2.97567c13.22923,0.89408 26.65385,-0.38542 39.90887,0.02553c8.3405,0.25858 16.70037,1.0353 25.02938,1.55224c1.65562,0.10279 3.31124,0.20559 4.96686,0.30838l3.25846,0.1405c0,0 2.49768,0.10779 2.38989,2.60546z" fill="#801100" stroke="none" stroke-width="0.5"/><path d="M597.62873,127.5505c1.76777,1.76777 0,3.53553 0,3.53553l-1.45807,1.18894c0.11466,3.36082 0.8571,6.74991 -2.99537,9.16992c-1.78541,1.12155 -4.20757,0.28892 -6.31433,0.37337c-5.89513,0.23631 -11.14307,-0.07801 -16.35937,-3.21944c-1.68392,-1.01411 -3.36995,-2.1635 -4.5848,-3.70887c-0.68189,-0.86741 0.08399,-2.60692 -0.8464,-3.19999c-0.64548,-0.41145 -0.96847,1.2253 -1.61926,1.62829c-1.54142,0.95451 -3.15227,1.85477 -4.88211,2.39764c-3.06357,0.96141 -6.36025,1.00604 -9.56981,1.09854c-1.44199,0.04156 -3.06423,0.42172 -4.3179,-0.29199c-1.38882,-0.79066 -1.93365,-2.54496 -2.90048,-3.81744c0,0 -1.38675,-2.08013 0.69338,-3.46688c2.08013,-1.38675 3.46688,0.69338 3.46688,0.69338c0.36651,0.72752 0.42578,1.72465 1.09952,2.18256c0.47067,0.3199 1.11761,-0.21983 1.6821,-0.29199c2.80327,-0.35836 5.73692,-0.0453 8.43019,-0.90146c1.44896,-0.46061 2.65956,-1.48768 4.06216,-2.0745c1.77085,-0.7409 3.61775,-2.51366 5.43647,-1.89957c1.81382,0.61244 1.89778,3.35504 3.1536,4.80001c0.89718,1.03231 2.03315,1.86522 3.22389,2.53808c4.86799,2.75078 8.50942,2.23637 13.83194,2.53361c1.23292,0.06885 2.56137,0.88406 3.68567,0.37337c0.78955,-0.35863 0.75501,-1.58981 0.88121,-2.44776c0.21266,-1.4458 0.08228,-2.92155 0.12342,-4.38233l2.54193,-2.81106c0,0 1.76777,-1.76777 3.53553,0z" fill="#801100" stroke="none" stroke-width="0.5"/><path d="M617.86096,47.81827c2.5,0 2.5,2.5 2.5,2.5l-0.26393,2.11803c-0.82277,1.54991 -1.19913,3.43797 -2.4683,4.64973c-4.07402,3.88972 -9.77113,2.73223 -14.76777,2.73223c-8.33333,0 -16.66667,0 -25,0c0,0 -2.5,0 -2.5,-2.5c0,-2.5 2.5,-2.5 2.5,-2.5c8.33333,0 16.66667,0 25,0c2.7162,0 8.94731,1.19971 11.23223,-1.26777c0.83431,-0.90097 1.02113,-2.23351 1.5317,-3.35027l-0.26393,0.11803c0,0 0,-2.5 2.5,-2.5z" fill="#801100" stroke="none" stroke-width="0.5"/><path d="M395.24735,186.57319c0.74508,2.38639 -1.6413,3.13147 -1.6413,3.13147l-0.51521,0.16086c-8.48205,2.64791 -16.53407,4.82017 -25.53533,3.93402c-4.08546,-0.4022 -8.12373,-2.23214 -12.15359,-3.02378c-3.45141,-0.67801 -7.03119,-0.96345 -10.54095,-0.95749c0,0 -2.5,0 -2.5,-2.5c0,-2.5 2.5,-2.5 2.5,-2.5c3.81844,0.00585 7.70295,0.30758 11.45905,1.04251c3.91388,0.7658 7.88433,2.60188 11.84641,2.97622c8.28313,0.78261 15.63172,-1.30779 23.43425,-3.74426l0.51521,-0.16086c0,0 2.38639,-0.74508 3.13147,1.6413z" fill="#801100" stroke="none" stroke-width="0.5"/><path d="M332.34501,280.60026c-0.28199,2.48405 -2.76604,2.20205 -2.76604,2.20205l-3.20068,-0.3642c-4.20557,-0.7002 -8.80469,-0.84501 -12.91778,-1.65213c-1.22959,-0.24128 -7.9054,-2.71748 -9.16307,-3.03206c-2.7354,-0.6842 -5.62836,-0.52437 -8.38478,-1.11827c-0.12794,-0.02757 -9.52589,-2.84958 -9.77007,-2.92283c0,0 -2.39457,-0.71837 -1.6762,-3.11294c0.71837,-2.39457 3.11294,-1.6762 3.11294,-1.6762c3.12957,0.93887 6.19239,2.13593 9.38646,2.82413c2.78101,0.59919 5.6976,0.44964 8.45869,1.13478c3.01588,0.74836 5.78687,2.37409 8.83693,2.96794c4.0761,0.79362 8.63335,0.93899 12.8101,1.63585l3.07144,0.34782c0,0 2.48405,0.28199 2.20205,2.76604z" fill="#801100" stroke="none" stroke-width="0.5"/><path d="M175.94109,271.93152c1.38675,2.08013 -0.69338,3.46688 -0.69338,3.46688l-3.66229,2.3126c-6.17168,0.1768 -12.85804,0.59525 -18.99132,-0.1243c-6.76757,-0.79396 -12.94984,-4.14335 -19.47098,-5.87135c-6.34591,-1.68157 -12.72135,-2.89708 -19.26217,-2.89708c0,0 -2.5,0 -2.5,-2.5c0,-2.5 2.5,-2.5 2.5,-2.5c6.9741,0 13.78287,1.2704 20.54364,3.06408c6.25256,1.65885 12.28034,4.99885 18.7643,5.7375c5.55288,0.63258 11.37421,0.04008 16.9676,0.30569l2.33771,-1.6874c0,0 2.08013,-1.38675 3.46688,0.69338z" fill="#801100" stroke="none" stroke-width="0.5"/><path d="M61.23267,343.5277c0.79057,2.37171 -1.58114,3.16228 -1.58114,3.16228l-3.39011,1.09601c-4.53821,0.03329 -10.75509,1.01942 -15.12492,-0.07499c-1.32656,-0.33223 -2.26892,-1.53391 -3.4663,-2.19453c-4.96506,-2.73932 -10.73272,-3.92939 -15.77289,-6.49071c-1.40713,-0.71508 -2.52074,-1.97434 -3.99118,-2.54806c-2.10633,-0.82183 -4.80666,-0.66625 -7.04516,-0.65942c0,0 -2.5,0 -2.5,-2.5c0,-2.5 2.5,-2.5 2.5,-2.5c3.09973,0.00824 5.71648,-0.16512 8.81878,0.98457c1.64566,0.60987 2.91566,1.97073 4.48091,2.76453c4.1898,2.1248 8.95696,3.56288 13.28084,5.42264c1.81357,0.78004 3.2284,2.45781 5.14394,2.93554c1.38326,0.34498 2.85001,-0.09078 4.27554,-0.10727c2.70792,-0.03132 5.8474,0.0076 8.59954,0.03228l2.60989,-0.90399c0,0 2.37171,-0.79057 3.16228,1.58114z" fill="#801100" stroke="none" stroke-width="0.5"/><path d="M154.11096,21.31827c0,1.25 -1.25,1.25 -1.25,1.25h-1c-10.68389,0 -22.01711,-0.42142 -32.09808,-4.20178c-3.05896,-1.17795 -6.14233,-0.79822 -9.40192,-0.79822c-5,0 -10,0 -15,0c-1.91155,0 -6.50772,0.70123 -8.15716,-0.18669c-0.72855,-0.39219 -0.62839,-1.58003 -1.21281,-2.16573c-1.68126,-1.68496 -5.89293,-2.67675 -8.13003,-2.64758c0,0 -1.25,0 -1.25,-1.25c0,-1.25 1.25,-1.25 1.25,-1.25c2.90009,0.03049 7.63273,1.19994 9.86997,3.35242c0.47947,0.4613 0.22335,1.48105 0.78719,1.83427c0.52323,0.32778 1.22598,-0.16017 1.84284,-0.18669c2.48723,-0.10692 5.01021,0 7.5,0c7.07761,0 16.13402,-1.47906 22.77973,0.9574c9.79708,3.67391 20.83697,4.0426 31.22027,4.0426h1c0,0 1.25,0 1.25,1.25z" fill="#801100" stroke="none" stroke-width="0.5"/><path d="M192.11096,98.31827c0,1.25 -1.25,1.25 -1.25,1.25h-0.5c-8.16259,-0.00042 -16.28515,0.9031 -24.41346,1.58045c-2.72662,0.22722 -7.18358,-0.4771 -9.67831,0.35101c-1.53727,0.51028 -2.29173,2.47106 -3.82275,2.99981c-2.01359,0.6954 -5.75853,0.06615 -7.91079,0.06141c-7.437,-0.01647 -15.21346,0.39 -22.61469,-0.32308c-7.50531,-0.72311 -14.19348,-3.61374 -21.75683,-1.70692c0,0 -1.21268,0.30317 -1.51585,-0.90951c-0.30317,-1.21268 0.90951,-1.51585 0.90951,-1.51585c7.93621,-1.96869 14.75291,0.88747 22.60293,1.64379c7.32213,0.70546 15.02234,0.29544 22.38044,0.31157c1.8482,0.00407 5.35757,0.67356 7.0892,0.07554c1.5309,-0.5287 2.28712,-2.48378 3.82238,-2.99968c2.71497,-0.91231 7.34959,-0.23465 10.28715,-0.47945c8.19792,-0.68316 16.38855,-1.58867 24.62108,-1.58909h0.5c0,0 1.25,0 1.25,1.25z" fill="#801100" stroke="none" stroke-width="0.5"/><path d="M283.11096,129.31827c0,1.25 -1.25,1.25 -1.25,1.25h-1c-6.58404,0 -13.12685,-0.05536 -19.70323,-0.38774c-6.72489,-0.33988 -13.29624,-0.95722 -19.98142,-1.65931c-3.22313,-0.3385 -7.05478,0.09525 -10.17427,-0.76152c-1.59294,-0.4375 -2.82914,-1.81058 -4.42827,-2.22487c-1.40111,-0.36299 -2.8946,0.03342 -4.34197,0.03336c-4.16673,-0.00017 -8.33345,-0.00121 -12.50018,-0.00199c-8.47499,-0.00158 -16.69981,-0.10369 -25.09769,-1.30339c-1.96353,-0.2805 -5.37722,-0.0875 -7.16826,-0.75869c-1.56068,-0.58486 -2.44442,-2.4017 -4,-3c-1.54842,-0.59555 -4.93923,0.06415 -6.60472,0.06415c0,0 -1.25,0 -1.25,-1.25c0,-1.25 1.25,-1.25 1.25,-1.25c1.99072,0 5.52096,-0.6264 7.39528,0.06415c1.56391,0.57618 2.43963,2.41432 4,3c1.65984,0.62302 4.88454,0.39171 6.73124,0.65552c8.28015,1.18288 16.38748,1.2767 24.7446,1.27826c4.16661,0.00078 8.33321,0.00182 12.49982,0.00199c0.12663,0.00001 4.73945,-0.01136 4.91625,0.03352c1.62973,0.41371 2.89462,1.80195 4.516,2.24726c2.97042,0.81583 6.69839,0.363 9.77328,0.68593c6.6409,0.69744 13.16576,1.31117 19.84649,1.64882c6.5344,0.33026 13.03496,0.38455 19.57704,0.38455h1c0,0 1.25,0 1.25,1.25z" fill="#801100" stroke="none" stroke-width="0.5"/><path d="M334.11096,69.31827c0,1.25 -1.25,1.25 -1.25,1.25c-4.16667,0 -10.33333,0 -14.5,0c-3.25666,0 -6.60067,0.23448 -9.83402,-0.22314c-3.26514,-0.46211 -6.50153,-1.45776 -9.7816,-1.78222c-2.37878,-0.23531 -4.82557,0.20221 -7.20511,-0.0399c-5.61031,-0.57083 -11.24875,-2.16626 -16.85605,-2.9673c0,0 -1.23744,-0.17678 -1.06066,-1.41421c0.17678,-1.23744 1.41421,-1.06066 1.41421,-1.06066c5.57287,0.79612 11.18105,2.38783 16.75556,2.95502c2.37054,0.24119 4.81037,-0.19568 7.18328,0.03778c3.31956,0.32659 6.59333,1.32164 9.8958,1.79549c3.1126,0.44661 6.35292,0.19916 9.48858,0.19916c4.16667,0 8.33333,0 12.5,0h2c0,0 1.25,0 1.25,1.25z" fill="#801100" stroke="none" stroke-width="0.5"/><path d="M617.10899,29.24804c0.07023,1.24803 -1.1778,1.31825 -1.1778,1.31825l-1.44148,0.07503c-10.72352,1.67336 -21.44634,3.35131 -32.17079,5.01865c-13.21497,0.78708 -26.99845,1.82927 -40.22002,0.61647c-4.13779,-0.37955 -8.05742,-1.71628 -12.23794,-1.70819c-14.66667,0 -29.33333,0 -44,0c0,0 -1.25,0 -1.25,-1.25c0,-1.25 1.25,-1.25 1.25,-1.25c14.66667,0 29.33333,0 44,0c4.26857,0.00758 8.24666,1.33158 12.4663,1.71864c13.05871,1.19786 26.6717,0.14973 39.72501,-0.61267c10.68308,-1.67349 21.36793,-3.33582 32.05199,-5.00302l1.68647,-0.10098c0,0 1.24803,-0.07023 1.31825,1.1778z" fill="#801100" stroke="none" stroke-width="0.5"/><path d="M595.11096,99.31827c0,1.25 -1.25,1.25 -1.25,1.25h-1.26492c-12.49391,-0.00002 -25.06573,0.39468 -37.54892,-0.11387c-2.45171,-0.10012 -5.25805,0.11628 -7.66811,-0.32547c-1.63109,-0.29897 -3.08702,-1.27879 -4.71828,-1.5768c-2.86805,-0.52394 -6.37816,0.01614 -9.29977,0.01614c-7.16667,0 -14.33333,0 -21.5,0c0,0 -1.25,0 -1.25,-1.25c0,-1.25 1.25,-1.25 1.25,-1.25c7.16667,0 14.33333,0 21.5,0c3.06695,0 6.68345,-0.52476 9.70023,0.01614c1.64878,0.29562 3.12093,1.28348 4.76855,1.58548c2.2952,0.4207 4.98562,0.19128 7.31939,0.28659c12.44869,0.50965 24.9874,0.11177 37.44691,0.11179h1.26492c0,0 1.25,0 1.25,1.25z" fill="#801100" stroke="none" stroke-width="0.5"/><path d="M576.57618,166.3114l0.72214,1.26c-4.08801,0.02261 -8.3183,-0.20771 -12.39007,0.16954c-5.68368,0.5266 -11.25529,2.35224 -16.94419,2.82307c-3.97302,0.32882 -8.11431,0.00426 -12.1031,0.00426c-15,0 -30,0 -45,0c0,0 -1.25,0 -1.25,-1.25c0,-1.25 1.25,-1.25 1.25,-1.25c15,0 30,0 45,0c3.91946,0 7.99341,0.32732 11.8969,0.00426c5.67917,-0.47002 11.24389,-2.29504 16.91975,-2.82092c3.65686,-0.33881 7.43577,-0.20208 11.13252,-0.18102c0.0341,-0.00236 0.05358,-0.00231 0.05358,-0.00231l0.0015,0.00262c0.47461,0.00256 0.94785,0.00316 1.41928,0.00055z" fill="#801100" stroke="none" stroke-width="0.5"/><path d="M484.11096,217.31827c0,1.25 -1.25,1.25 -1.25,1.25c-11.5,0 -25.5,0 -37,0c0,0 -1.25,0 -1.25,-1.25c0,-1.25 1.25,-1.25 1.25,-1.25c11.5,0 23,0 34.5,0h2.5c0,0 1.25,0 1.25,1.25z" fill="#801100" stroke="none" stroke-width="0.5"/><path d="M456.11096,181.31827c0,1.25 -1.25,1.25 -1.25,1.25c-13.33333,0 -27.66667,0 -41,0c0,0 -1.25,0 -1.25,-1.25c0,-1.25 1.25,-1.25 1.25,-1.25c13.33333,0 26.66667,0 40,0h1c0,0 1.25,0 1.25,1.25z" fill="#801100" stroke="none" stroke-width="0.5"/><path d="M343.11096,205.31827c0,1.25 -1.25,1.25 -1.25,1.25c-12.5,0 -27.5,0 -40,0c0,0 -1.25,0 -1.25,-1.25c0,-1.25 1.25,-1.25 1.25,-1.25c12.5,0 25,0 37.5,0h2.5c0,0 1.25,0 1.25,1.25z" fill="#801100" stroke="none" stroke-width="0.5"/><path d="M287.11096,183.31827c0,1.25 -1.25,1.25 -1.25,1.25h-0.5c-14.76369,0 -29.52781,-0.03225 -44.29144,0.01115c-2.78544,0.00756 -6.95815,-0.45505 -9.60691,0.4168c-0.82211,0.2706 -1.37183,1.16449 -2.2168,1.35187c-4.05445,0.89911 -9.05633,-1.74832 -12.73998,-3.07815c-4.08529,-1.47483 -7.61752,-3.35415 -11.4065,-5.46087c-0.8347,-0.4641 -1.8396,-0.69997 -2.51175,-1.37845c-0.5235,-0.52843 -0.26955,-1.62951 -0.88379,-2.04905c-0.50984,-0.34824 -1.22856,0.12446 -1.84284,0.18669c0,0 -1.25,0 -1.25,-1.25c0,-1.25 1.25,-1.25 1.25,-1.25c1.05239,0.06223 2.24473,-0.34137 3.15716,0.18669c0.80056,0.46331 0.70648,1.76089 1.35228,2.42309c1.08331,1.11082 2.76546,1.40993 4.11678,2.17244c4.77679,2.69539 10.37876,5.35177 15.7731,6.57119c1.44437,0.32651 2.9785,0.85163 4.41507,0.49237c0.77734,-0.1944 1.25858,-1.05846 2.02315,-1.29819c2.95157,-0.92547 7.28174,-0.52669 10.36367,-0.53643c14.76608,-0.04339 29.53264,-0.01116 44.29878,-0.01116h0.5c0,0 1.25,0 1.25,1.25z" fill="#801100" stroke="none" stroke-width="0.5"/><path d="M255.11096,265.31827c0,1.25 -1.25,1.25 -1.25,1.25c-0.83333,0 -4.16667,0 -5,0c-8.07876,0 -16.15592,0.03506 -24.23346,-0.11754c-4.04659,-0.07645 -8.97439,0.44368 -12.84628,-0.96625c-2.24289,-0.81673 -4.63123,-2.80484 -6.61363,-4.12615c0,0 -1.04006,-0.69338 -0.34669,-1.73344c0.69338,-1.04006 1.73344,-0.34669 1.73344,-0.34669c1.81348,1.20925 4.02675,3.10866 6.08229,3.85718c3.57931,1.30339 8.29826,0.74514 12.03809,0.81579c8.06179,0.1523 16.12322,0.11709 24.18624,0.11709c0.83333,0 1.66667,0 2.5,0h2.5c0,0 1.25,0 1.25,1.25z" fill="#801100" stroke="none" stroke-width="0.5"/><path d="M97.86096,259.06827c1.25,0 1.25,1.25 1.25,1.25l-0.66308,2.10364c-6.8033,3.61805 -11.32542,9.72973 -18.29973,13.11292c-6.72411,0.08067 -13.40059,-0.10425 -20.11679,-0.40396c-3.13931,-0.14009 -7.22662,0.34139 -10.24858,-0.48471c-5.32446,-1.45552 -4.13831,-8.29521 -9.92182,-8.07789c0,0 -1.25,0 -1.25,-1.25c0,-1.25 1.25,-1.25 1.25,-1.25c2.79622,0.07401 5.46928,0.93794 7.06331,3.59284c1.29816,2.16211 0.42077,3.82536 3.487,4.56534c2.93141,0.70745 6.70795,0.27198 9.73154,0.40691c6.4862,0.28945 12.94126,0.37029 19.43096,0.46836c6.62686,-3.43956 11.0832,-9.36807 17.70027,-12.88708l-0.66308,0.10364c0,0 0,-1.25 1.25,-1.25z" fill="#801100" stroke="none" stroke-width="0.5"/><path d="M138.83705,338.5374c0.78087,0.97609 -0.19522,1.75695 -0.19522,1.75695l-0.54783,0.43826c-3.249,2.47278 -6.27344,1.83623 -10.23304,1.83565c-2.70058,-0.00039 -4.46777,-0.45874 -7.01888,-1.13103c-2.37954,-0.62707 -4.99897,-0.39818 -7.40126,-0.94759c-4.6591,-1.06554 -9.87419,-2.92821 -14.13888,-5.05335c0,0 -1.11803,-0.55902 -0.55902,-1.67705c0.55902,-1.11803 1.67705,-0.55902 1.67705,-0.55902c4.08126,2.04811 9.11578,3.83178 13.5782,4.85234c2.43164,0.55612 5.06005,0.3392 7.47619,0.96595c2.41405,0.62621 3.83941,1.05012 6.38659,1.04975c3.15275,-0.00047 6.23304,0.8016 8.6713,-1.28782l0.54783,-0.43826c0,0 0.97609,-0.78087 1.75695,0.19522z" fill="#801100" stroke="none" stroke-width="0.5"/><path d="M324.11096,333.31827c0,1.25 -1.25,1.25 -1.25,1.25c-9,0 -20,0 -29,0c0,0 -1.25,0 -1.25,-1.25c0,-1.25 1.25,-1.25 1.25,-1.25c9,0 18,0 27,0h2c0,0 1.25,0 1.25,1.25z" fill="#801100" stroke="none" stroke-width="0.5"/><path d="M75.11096,170.31827c0,1.25 -1.25,1.25 -1.25,1.25l-1.71961,-0.03185c-3.62835,1.80803 -7.79152,2.12061 -11.77413,2.70714c-4.97224,0.71968 -9.38434,3.67389 -14.35481,4.3155c-2.26996,0.29302 -5.3031,0.19543 -7.57232,-0.05693c-2.58071,-0.287 -4.85879,-1.44944 -7.31551,-1.95642c-0.95002,-0.19605 -2.06464,0.3277 -2.90598,-0.15513c-1.92158,-1.10275 -0.98042,-2.89659 -2.37,-4.21235c-1.33675,-1.26574 -4.36614,-0.60997 -5.98763,-0.60997c0,0 -1.25,0 -1.25,-1.25c0,-1.25 1.25,-1.25 1.25,-1.25c2.50617,0 5.53997,-0.57909 7.65475,1.24699c1.11127,0.95956 0.65727,3.30954 1.98762,3.9307c0.63419,0.29611 1.40482,-0.27718 2.09402,-0.15513c2.38653,0.42263 4.62262,1.64814 7.11946,1.92667c7.88464,0.87957 13.78789,-3.12572 21.28616,-4.24726c3.95719,-0.58279 7.94408,-0.94339 11.5776,-2.67011l2.28039,-0.03185c0,0 1.25,0 1.25,1.25z" fill="#801100" stroke="none" stroke-width="0.5"/><path d="M537.80468,325.49858c0.81969,0.94372 -0.12403,1.76341 -0.12403,1.76341l-1.91274,1.65957c-1.42367,1.01321 -2.28651,2.80444 -3.87676,3.52869c-0.91992,0.41896 -2.01959,0.09645 -3.03019,0.11801c-2.49684,0.05328 -5.00253,0 -7.5,0c-5.66667,0 -11.33333,0 -17,0c-4.33213,0 -8.56765,0.45585 -12.64305,-1.16093c-2.25676,-0.8953 -7.70193,-2.73083 -8.95026,-4.98311c-0.19029,-0.34333 -0.1567,-4.27418 -0.1567,-5.10596c0,0 0,-1.25 1.25,-1.25c1.25,0 1.25,1.25 1.25,1.25c0,1.29906 -0.78644,2.75782 -0.1567,3.89404c0.3071,0.55409 1.13952,0.55602 1.68919,0.87096c2.52099,1.4444 5.25919,3.20805 8.13335,3.87223c2.92887,0.67683 6.59125,0.11277 9.58415,0.11277c5.66667,0 11.33333,0 17,0c2.49613,0 5.00483,-0.06588 7.5,0c0.65755,0.01736 1.37868,0.40654 1.96981,0.11801c1.4013,-0.68396 2.12321,-2.31336 3.38729,-3.22634l1.82321,-1.58539c0,0 0.94372,-0.81969 1.76341,0.12403z" fill="#801100" stroke="none" stroke-width="0.5"/><path d="M470.99591,255.79445c0.52382,1.13495 -0.61113,1.65877 -0.61113,1.65877l-1.9602,0.90471c-0.29605,0.13664 -4.62308,2.14338 -4.79547,2.18124c-2.29222,0.50346 -5.41208,0.0291 -7.76815,0.0291c-14.66667,0 -29.33333,0 -44,0c0,0 -1.25,0 -1.25,-1.25c0,-1.25 1.25,-1.25 1.25,-1.25c14.66667,0 29.33333,0 44,0c2.171,0 5.11689,0.49362 7.23185,0.0291c1.54059,-0.33837 2.85199,-1.34836 4.28413,-2.00934l1.9602,-0.90471c0,0 1.13495,-0.52382 1.65877,0.61113z" fill="#801100" stroke="none" stroke-width="0.5"/><path d="M410.74721,118.43676c0.88151,0.88625 -0.00475,1.76776 -0.00475,1.76776l-0.62245,0.61912c-1.21635,1.2098 -2.44336,2.40895 -3.67932,3.59871c-1.3561,0.85739 -2.99499,1.36295 -4.09286,2.53291c-1.08353,1.15469 -1.40153,2.84528 -2.23345,4.19259c-1.8248,2.95531 -4.49841,5.24159 -7.16751,7.41772c-0.76601,0.62453 -1.38576,1.53038 -2.32387,1.84142c-0.93811,0.31105 -1.97634,-0.04402 -2.96368,-0.08824c-1.33743,-0.0599 -4.85972,-0.11415 -5.81237,-1.19446c-0.6764,-0.76704 -0.16007,-2.04661 -0.38963,-3.04318c-0.89123,-3.86896 -2.95295,-7.68097 -4.71438,-11.20383c0,0 -0.55902,-1.11803 0.55902,-1.67705c1.11803,-0.55902 1.67705,0.55902 1.67705,0.55902c1.53303,3.06607 2.84175,6.07211 4.01476,9.29396c0.30644,0.84169 0.7593,1.64492 0.91294,2.52738c0.11176,0.64194 -0.51461,1.4218 -0.13339,1.95025c0.32355,0.4485 1.10028,0.11469 1.65186,0.15466c1.47107,0.10659 3.01106,0.81274 4.41104,0.34855c0.64491,-0.21383 0.98895,-0.93236 1.49981,-1.3803c1.79137,-1.57074 3.7955,-3.06418 5.33257,-4.90363c1.59496,-1.90872 2.19243,-4.73252 3.8562,-6.50555c0.16681,-0.17777 3.9722,-2.53893 4.37313,-2.7894c1.15941,-1.12815 2.31214,-2.2632 3.45908,-3.40403l0.62245,-0.61912c0,0 0.88625,-0.88151 1.76776,0.00475z" fill="#801100" stroke="none" stroke-width="0.5"/><path d="M64.61096,139.31827c0,-0.69036 0.55964,-1.25 1.25,-1.25c0.69036,0 1.25,0.55964 1.25,1.25c0,0.69036 -0.55964,1.25 -1.25,1.25c-0.69036,0 -1.25,-0.55964 -1.25,-1.25z" fill="#801100" stroke="none" stroke-width="0.5"/><path d="M69.61096,76.31827c0,-0.69036 0.55964,-1.25 1.25,-1.25c0.69036,0 1.25,0.55964 1.25,1.25c0,0.69036 -0.55964,1.25 -1.25,1.25c-0.69036,0 -1.25,-0.55964 -1.25,-1.25z" fill="#801100" stroke="none" stroke-width="0.5"/><path d="M201.61096,26.31827c0,-0.69036 0.55964,-1.25 1.25,-1.25c0.69036,0 1.25,0.55964 1.25,1.25c0,0.69036 -0.55964,1.25 -1.25,1.25c-0.69036,0 -1.25,-0.55964 -1.25,-1.25z" fill="#801100" stroke="none" stroke-width="0.5"/><path d="M207.36096,26.31827c0,-1.38071 1.11929,-2.5 2.5,-2.5c1.38071,0 2.5,1.11929 2.5,2.5c0,1.38071 -1.11929,2.5 -2.5,2.5c-1.38071,0 -2.5,-1.11929 -2.5,-2.5z" fill="#801100" stroke="none" stroke-width="0.5"/><path d="M207.36096,71.31827c0,-1.38071 1.11929,-2.5 2.5,-2.5c1.38071,0 2.5,1.11929 2.5,2.5c0,1.38071 -1.11929,2.5 -2.5,2.5c-1.38071,0 -2.5,-1.11929 -2.5,-2.5z" fill="#801100" stroke="none" stroke-width="0.5"/><path d="M255.36096,23.31827c0,-1.38071 1.11929,-2.5 2.5,-2.5c1.38071,0 2.5,1.11929 2.5,2.5c0,1.38071 -1.11929,2.5 -2.5,2.5c-1.38071,0 -2.5,-1.11929 -2.5,-2.5z" fill="#801100" stroke="none" stroke-width="0.5"/><path d="M231.36096,67.31827c0,-1.38071 1.11929,-2.5 2.5,-2.5c1.38071,0 2.5,1.11929 2.5,2.5c0,1.38071 -1.11929,2.5 -2.5,2.5c-1.38071,0 -2.5,-1.11929 -2.5,-2.5z" fill="#801100" stroke="none" stroke-width="0.5"/><path d="M284.36096,122.31827c0,-1.38071 1.11929,-2.5 2.5,-2.5c1.38071,0 2.5,1.11929 2.5,2.5c0,1.38071 -1.11929,2.5 -2.5,2.5c-1.38071,0 -2.5,-1.11929 -2.5,-2.5z" fill="#801100" stroke="none" stroke-width="0.5"/><path d="M311.36096,141.31827c0,-1.38071 1.11929,-2.5 2.5,-2.5c1.38071,0 2.5,1.11929 2.5,2.5c0,1.38071 -1.11929,2.5 -2.5,2.5c-1.38071,0 -2.5,-1.11929 -2.5,-2.5z" fill="#801100" stroke="none" stroke-width="0.5"/><path d="M287.36096,196.31827c0,-1.38071 1.11929,-2.5 2.5,-2.5c1.38071,0 2.5,1.11929 2.5,2.5c0,1.38071 -1.11929,2.5 -2.5,2.5c-1.38071,0 -2.5,-1.11929 -2.5,-2.5z" fill="#801100" stroke="none" stroke-width="0.5"/><path d="M195.36096,202.31827c0,-1.38071 1.11929,-2.5 2.5,-2.5c1.38071,0 2.5,1.11929 2.5,2.5c0,1.38071 -1.11929,2.5 -2.5,2.5c-1.38071,0 -2.5,-1.11929 -2.5,-2.5z" fill="#801100" stroke="none" stroke-width="0.5"/><path d="M174.36096,243.31827c0,-1.38071 1.11929,-2.5 2.5,-2.5c1.38071,0 2.5,1.11929 2.5,2.5c0,1.38071 -1.11929,2.5 -2.5,2.5c-1.38071,0 -2.5,-1.11929 -2.5,-2.5z" fill="#801100" stroke="none" stroke-width="0.5"/><path d="M200.36096,284.31827c0,-1.38071 1.11929,-2.5 2.5,-2.5c1.38071,0 2.5,1.11929 2.5,2.5c0,1.38071 -1.11929,2.5 -2.5,2.5c-1.38071,0 -2.5,-1.11929 -2.5,-2.5z" fill="#801100" stroke="none" stroke-width="0.5"/><path d="M239.36096,329.31827c0,-1.38071 1.11929,-2.5 2.5,-2.5c1.38071,0 2.5,1.11929 2.5,2.5c0,1.38071 -1.11929,2.5 -2.5,2.5c-1.38071,0 -2.5,-1.11929 -2.5,-2.5z" fill="#801100" stroke="none" stroke-width="0.5"/><path d="M330.36096,320.31827c0,-1.38071 1.11929,-2.5 2.5,-2.5c1.38071,0 2.5,1.11929 2.5,2.5c0,1.38071 -1.11929,2.5 -2.5,2.5c-1.38071,0 -2.5,-1.11929 -2.5,-2.5z" fill="#801100" stroke="none" stroke-width="0.5"/><path d="M359.36096,255.31827c0,-1.38071 1.11929,-2.5 2.5,-2.5c1.38071,0 2.5,1.11929 2.5,2.5c0,1.38071 -1.11929,2.5 -2.5,2.5c-1.38071,0 -2.5,-1.11929 -2.5,-2.5z" fill="#801100" stroke="none" stroke-width="0.5"/><path d="M488.36096,230.31827c0,-1.38071 1.11929,-2.5 2.5,-2.5c1.38071,0 2.5,1.11929 2.5,2.5c0,1.38071 -1.11929,2.5 -2.5,2.5c-1.38071,0 -2.5,-1.11929 -2.5,-2.5z" fill="#801100" stroke="none" stroke-width="0.5"/><path d="M476.36096,136.31827c0,-1.38071 1.11929,-2.5 2.5,-2.5c1.38071,0 2.5,1.11929 2.5,2.5c0,1.38071 -1.11929,2.5 -2.5,2.5c-1.38071,0 -2.5,-1.11929 -2.5,-2.5z" fill="#801100" stroke="none" stroke-width="0.5"/><path d="M519.36096,112.31827c0,-1.38071 1.11929,-2.5 2.5,-2.5c1.38071,0 2.5,1.11929 2.5,2.5c0,1.38071 -1.11929,2.5 -2.5,2.5c-1.38071,0 -2.5,-1.11929 -2.5,-2.5z" fill="#801100" stroke="none" stroke-width="0.5"/><path d="M457.36096,110.31827c0,-1.38071 1.11929,-2.5 2.5,-2.5c1.38071,0 2.5,1.11929 2.5,2.5c0,1.38071 -1.11929,2.5 -2.5,2.5c-1.38071,0 -2.5,-1.11929 -2.5,-2.5z" fill="#801100" stroke="none" stroke-width="0.5"/><path d="M423.36096,131.31827c0,-1.38071 1.11929,-2.5 2.5,-2.5c1.38071,0 2.5,1.11929 2.5,2.5c0,1.38071 -1.11929,2.5 -2.5,2.5c-1.38071,0 -2.5,-1.11929 -2.5,-2.5z" fill="#801100" stroke="none" stroke-width="0.5"/><path d="M445.36096,71.31827c0,-1.38071 1.11929,-2.5 2.5,-2.5c1.38071,0 2.5,1.11929 2.5,2.5c0,1.38071 -1.11929,2.5 -2.5,2.5c-1.38071,0 -2.5,-1.11929 -2.5,-2.5z" fill="#801100" stroke="none" stroke-width="0.5"/><path d="M455.36096,50.31827c0,-1.38071 1.11929,-2.5 2.5,-2.5c1.38071,0 2.5,1.11929 2.5,2.5c0,1.38071 -1.11929,2.5 -2.5,2.5c-1.38071,0 -2.5,-1.11929 -2.5,-2.5z" fill="#801100" stroke="none" stroke-width="0.5"/><path d="M421.36096,50.31827c0,-1.38071 1.11929,-2.5 2.5,-2.5c1.38071,0 2.5,1.11929 2.5,2.5c0,1.38071 -1.11929,2.5 -2.5,2.5c-1.38071,0 -2.5,-1.11929 -2.5,-2.5z" fill="#801100" stroke="none" stroke-width="0.5"/><path d="M488.36096,50.31827c0,-1.38071 1.11929,-2.5 2.5,-2.5c1.38071,0 2.5,1.11929 2.5,2.5c0,1.38071 -1.11929,2.5 -2.5,2.5c-1.38071,0 -2.5,-1.11929 -2.5,-2.5z" fill="#801100" stroke="none" stroke-width="0.5"/><path d="M527.36096,50.31827c0,-1.38071 1.11929,-2.5 2.5,-2.5c1.38071,0 2.5,1.11929 2.5,2.5c0,1.38071 -1.11929,2.5 -2.5,2.5c-1.38071,0 -2.5,-1.11929 -2.5,-2.5z" fill="#801100" stroke="none" stroke-width="0.5"/><path d="M543.36096,76.31827c0,-1.38071 1.11929,-2.5 2.5,-2.5c1.38071,0 2.5,1.11929 2.5,2.5c0,1.38071 -1.11929,2.5 -2.5,2.5c-1.38071,0 -2.5,-1.11929 -2.5,-2.5z" fill="#801100" stroke="none" stroke-width="0.5"/><path d="M560.36096,71.31827c0,-1.38071 1.11929,-2.5 2.5,-2.5c1.38071,0 2.5,1.11929 2.5,2.5c0,1.38071 -1.11929,2.5 -2.5,2.5c-1.38071,0 -2.5,-1.11929 -2.5,-2.5z" fill="#801100" stroke="none" stroke-width="0.5"/><path d="M584.36096,74.31827c0,-1.38071 1.11929,-2.5 2.5,-2.5c1.38071,0 2.5,1.11929 2.5,2.5c0,1.38071 -1.11929,2.5 -2.5,2.5c-1.38071,0 -2.5,-1.11929 -2.5,-2.5z" fill="#801100" stroke="none" stroke-width="0.5"/><path d="M620.36096,86.31827c0,-1.38071 1.11929,-2.5 2.5,-2.5c1.38071,0 2.5,1.11929 2.5,2.5c0,1.38071 -1.11929,2.5 -2.5,2.5c-1.38071,0 -2.5,-1.11929 -2.5,-2.5z" fill="#801100" stroke="none" stroke-width="0.5"/><path d="M591.36096,105.31827c0,-1.38071 1.11929,-2.5 2.5,-2.5c1.38071,0 2.5,1.11929 2.5,2.5c0,1.38071 -1.11929,2.5 -2.5,2.5c-1.38071,0 -2.5,-1.11929 -2.5,-2.5z" fill="#801100" stroke="none" stroke-width="0.5"/><path d="M601.36096,122.31827c0,-1.38071 1.11929,-2.5 2.5,-2.5c1.38071,0 2.5,1.11929 2.5,2.5c0,1.38071 -1.11929,2.5 -2.5,2.5c-1.38071,0 -2.5,-1.11929 -2.5,-2.5z" fill="#801100" stroke="none" stroke-width="0.5"/><path d="M596.36096,163.31827c0,-1.38071 1.11929,-2.5 2.5,-2.5c1.38071,0 2.5,1.11929 2.5,2.5c0,1.38071 -1.11929,2.5 -2.5,2.5c-1.38071,0 -2.5,-1.11929 -2.5,-2.5z" fill="#801100" stroke="none" stroke-width="0.5"/><path d="M503.36096,283.31827c0,-1.38071 1.11929,-2.5 2.5,-2.5c1.38071,0 2.5,1.11929 2.5,2.5c0,1.38071 -1.11929,2.5 -2.5,2.5c-1.38071,0 -2.5,-1.11929 -2.5,-2.5z" fill="#801100" stroke="none" stroke-width="0.5"/><path d="M570.36096,333.31827c0,-1.38071 1.11929,-2.5 2.5,-2.5c1.38071,0 2.5,1.11929 2.5,2.5c0,1.38071 -1.11929,2.5 -2.5,2.5c-1.38071,0 -2.5,-1.11929 -2.5,-2.5z" fill="#801100" stroke="none" stroke-width="0.5"/><path d="M601.36096,321.31827c0,-1.38071 1.11929,-2.5 2.5,-2.5c1.38071,0 2.5,1.11929 2.5,2.5c0,1.38071 -1.11929,2.5 -2.5,2.5c-1.38071,0 -2.5,-1.11929 -2.5,-2.5z" fill="#801100" stroke="none" stroke-width="0.5"/><path d="M608.36096,331.31827c0,-1.38071 1.11929,-2.5 2.5,-2.5c1.38071,0 2.5,1.11929 2.5,2.5c0,1.38071 -1.11929,2.5 -2.5,2.5c-1.38071,0 -2.5,-1.11929 -2.5,-2.5z" fill="#801100" stroke="none" stroke-width="0.5"/><path d="M97.36096,187.31827c0,-1.38071 1.11929,-2.5 2.5,-2.5c1.38071,0 2.5,1.11929 2.5,2.5c0,1.38071 -1.11929,2.5 -2.5,2.5c-1.38071,0 -2.5,-1.11929 -2.5,-2.5z" fill="#801100" stroke="none" stroke-width="0.5"/><path d="M140.36096,187.31827c0,-1.38071 1.11929,-2.5 2.5,-2.5c1.38071,0 2.5,1.11929 2.5,2.5c0,1.38071 -1.11929,2.5 -2.5,2.5c-1.38071,0 -2.5,-1.11929 -2.5,-2.5z" fill="#801100" stroke="none" stroke-width="0.5"/><path d="M104.36096,158.31827c0,-1.38071 1.11929,-2.5 2.5,-2.5c1.38071,0 2.5,1.11929 2.5,2.5c0,1.38071 -1.11929,2.5 -2.5,2.5c-1.38071,0 -2.5,-1.11929 -2.5,-2.5z" fill="#801100" stroke="none" stroke-width="0.5"/><path d="M136.36096,115.31827c0,2.5 -2.5,2.5 -2.5,2.5h-3c0,0 -2.5,0 -2.5,-2.5c0,-2.5 2.5,-2.5 2.5,-2.5h3c0,0 2.5,0 2.5,2.5z" fill="#801100" stroke="none" stroke-width="0.5"/><path d="M44.36096,153.31827c0,-1.38071 1.11929,-2.5 2.5,-2.5c1.38071,0 2.5,1.11929 2.5,2.5c0,1.38071 -1.11929,2.5 -2.5,2.5c-1.38071,0 -2.5,-1.11929 -2.5,-2.5z" fill="#801100" stroke="none" stroke-width="0.5"/><path d="M25.36096,141.31827c0,-1.38071 1.11929,-2.5 2.5,-2.5c1.38071,0 2.5,1.11929 2.5,2.5c0,1.38071 -1.11929,2.5 -2.5,2.5c-1.38071,0 -2.5,-1.11929 -2.5,-2.5z" fill="#801100" stroke="none" stroke-width="0.5"/><path d="M20.36096,98.31827c0,-1.38071 1.11929,-2.5 2.5,-2.5c1.38071,0 2.5,1.11929 2.5,2.5c0,1.38071 -1.11929,2.5 -2.5,2.5c-1.38071,0 -2.5,-1.11929 -2.5,-2.5z" fill="#801100" stroke="none" stroke-width="0.5"/><path d="M39.36096,62.31827c0,-1.38071 1.11929,-2.5 2.5,-2.5c1.38071,0 2.5,1.11929 2.5,2.5c0,1.38071 -1.11929,2.5 -2.5,2.5c-1.38071,0 -2.5,-1.11929 -2.5,-2.5z" fill="#801100" stroke="none" stroke-width="0.5"/><path d="M51.36096,83.31827c0,-1.38071 1.11929,-2.5 2.5,-2.5c1.38071,0 2.5,1.11929 2.5,2.5c0,1.38071 -1.11929,2.5 -2.5,2.5c-1.38071,0 -2.5,-1.11929 -2.5,-2.5z" fill="#801100" stroke="none" stroke-width="0.5"/><path d="M54.36096,23.31827c0,-1.38071 1.11929,-2.5 2.5,-2.5c1.38071,0 2.5,1.11929 2.5,2.5c0,1.38071 -1.11929,2.5 -2.5,2.5c-1.38071,0 -2.5,-1.11929 -2.5,-2.5z" fill="#801100" stroke="none" stroke-width="0.5"/><path d="M20.36096,23.31827c0,-1.38071 1.11929,-2.5 2.5,-2.5c1.38071,0 2.5,1.11929 2.5,2.5c0,1.38071 -1.11929,2.5 -2.5,2.5c-1.38071,0 -2.5,-1.11929 -2.5,-2.5z" fill="#801100" stroke="none" stroke-width="0.5"/><path d="M37.36096,16.31827c0,-1.38071 1.11929,-2.5 2.5,-2.5c1.38071,0 2.5,1.11929 2.5,2.5c0,1.38071 -1.11929,2.5 -2.5,2.5c-1.38071,0 -2.5,-1.11929 -2.5,-2.5z" fill="#801100" stroke="none" stroke-width="0.5"/><path d="M13.36096,201.31827c0,-1.38071 1.11929,-2.5 2.5,-2.5c1.38071,0 2.5,1.11929 2.5,2.5c0,1.38071 -1.11929,2.5 -2.5,2.5c-1.38071,0 -2.5,-1.11929 -2.5,-2.5z" fill="#801100" stroke="none" stroke-width="0.5"/><path d="M18.36096,225.31827c0,-1.38071 1.11929,-2.5 2.5,-2.5c1.38071,0 2.5,1.11929 2.5,2.5c0,1.38071 -1.11929,2.5 -2.5,2.5c-1.38071,0 -2.5,-1.11929 -2.5,-2.5z" fill="#801100" stroke="none" stroke-width="0.5"/><path d="M1.36096,263.31827c0,-1.38071 1.11929,-2.5 2.5,-2.5c1.38071,0 2.5,1.11929 2.5,2.5c0,1.38071 -1.11929,2.5 -2.5,2.5c-1.38071,0 -2.5,-1.11929 -2.5,-2.5z" fill="#801100" stroke="none" stroke-width="0.5"/><path d="M44.36096,242.31827c0,-1.38071 1.11929,-2.5 2.5,-2.5c1.38071,0 2.5,1.11929 2.5,2.5c0,1.38071 -1.11929,2.5 -2.5,2.5c-1.38071,0 -2.5,-1.11929 -2.5,-2.5z" fill="#801100" stroke="none" stroke-width="0.5"/><path d="M20.36096,283.31827c0,-1.38071 1.11929,-2.5 2.5,-2.5c1.38071,0 2.5,1.11929 2.5,2.5c0,1.38071 -1.11929,2.5 -2.5,2.5c-1.38071,0 -2.5,-1.11929 -2.5,-2.5z" fill="#801100" stroke="none" stroke-width="0.5"/><path d="M44.36096,291.31827c0,-1.38071 1.11929,-2.5 2.5,-2.5c1.38071,0 2.5,1.11929 2.5,2.5c0,1.38071 -1.11929,2.5 -2.5,2.5c-1.38071,0 -2.5,-1.11929 -2.5,-2.5z" fill="#801100" stroke="none" stroke-width="0.5"/><path d="M18.36096,321.31827c0,-1.38071 1.11929,-2.5 2.5,-2.5c1.38071,0 2.5,1.11929 2.5,2.5c0,1.38071 -1.11929,2.5 -2.5,2.5c-1.38071,0 -2.5,-1.11929 -2.5,-2.5z" fill="#801100" stroke="none" stroke-width="0.5"/><path d="M8.377,231.66401v-90.07018h176.23123v90.07018z" fill="url(#color-1)" stroke="#7d1e00" stroke-width="2"/><text transform="translate(12.58672,164.35503) scale(0.49423,0.49423)" font-size="40" xml:space="preserve" fill="#7d1e00" fill-rule="nonzero" stroke="#7d1e00" stroke-width="1" stroke-linecap="butt" stroke-linejoin="miter" stroke-miterlimit="10" stroke-dasharray="" stroke-dashoffset="0" font-family="&quot;OpenSans-Medium&quot;, Sans Serif" font-weight="normal" text-anchor="start" style="mix-blend-mode: normal"><tspan x="0" dy="0">Level 08 - </tspan><tspan x="0" dy="48px">Chocolate or dirt?</tspan></text><text transform="translate(13.34886,212.89528) scale(0.48629,0.48629)" font-size="40" xml:space="preserve" fill="#7d1e00" fill-rule="nonzero" stroke="#751b00" stroke-width="1" stroke-linecap="butt" stroke-linejoin="miter" stroke-miterlimit="10" stroke-dasharray="" stroke-dashoffset="0" font-family="&quot;OpenSans-Light&quot;, Sans Serif" font-weight="normal" text-anchor="start" style="mix-blend-mode: normal"><tspan x="0" dy="0">ew.</tspan></text></g></g></svg>