<svg version="1.1" xmlns="http://www.w3.org/2000/svg" xmlns:xlink="http://www.w3.org/1999/xlink" width="42.66792" height="42.66792" viewBox="0,0,42.66792,42.66792"><g transform="translate(-298.66604,-158.66604)"><g data-paper-data="{&quot;isPaintingLayer&quot;:true}" fill-rule="nonzero" stroke-linejoin="miter" stroke-miterlimit="10" stroke-dasharray="" stroke-dashoffset="0" style="mix-blend-mode: normal"><g><path d="M304.05131,198.12631v-31.93597h31.93597v31.93597z" fill="#ff00ee" stroke="#000000" stroke-width="3" stroke-linecap="butt"/><path d="M336.47915,194.09095l1.55939,4.67819l-34.64094,-0.22277l0.22277,-6.12621z" fill="#ff0000" stroke="#000000" stroke-width="3" stroke-linecap="round"/><path d="M311.47305,190.70458v-17.09249h17.09249v17.09249z" fill="#d22be0" stroke="#000000" stroke-width="3" stroke-linecap="butt"/><path d="M328.12521,171.2569l-14.81429,1.11386l-2.00494,-8.24254l5.12374,3.00741l1.89355,-4.12127l3.56434,3.78711l2.67326,-4.34405z" fill="#e8ff00" stroke="#000000" stroke-width="3" stroke-linecap="round"/><path d="M321.61544,197.76995c1.94163,0.25032 3.17691,1.17937 5.20567,0.11638c0.78724,-0.42693 1.63964,-0.80759 2.52997,-0.90405c0.77225,-0.08367 1.62427,0.36015 2.33003,0.03569c0.66075,-0.30377 0.272,-1.76324 0.38442,-2.03968c0.26689,-0.65622 0.68085,-1.29406 1.24521,-1.72228c0.54016,-0.40987 1.74072,0.20651 1.98947,-0.42429c0.49484,-1.25481 -1.15046,-4.01227 -2.5986,-3.87858c-0.64744,0.05977 -0.8738,2.32635 -1.23217,2.5867c-0.69164,0.50243 -2.77246,0.18408 -3.70492,0.312c-1.46108,1.39113 -2.27175,0.79993 -4.0485,1.40331c-0.49731,0.16889 -0.92314,0.59301 -1.44752,0.62228c-1.15886,0.06468 -2.1545,-0.58423 -3.46008,-0.36423c-0.74843,0.12611 -0.98798,1.40339 -1.74462,1.46314c-1.06101,0.08379 -1.79315,-1.28352 -2.84422,-1.45098c-1.09719,-0.17481 -2.11806,0.35134 -3.19279,-0.27458c-0.41811,-0.24351 -0.47584,-0.85132 -0.79717,-1.21308c-0.82733,-0.93145 -1.97265,-1.47877 -3.14046,-1.89358c-0.05965,0.02111 -0.09725,0.02978 -0.09725,0.02978c-0.30902,0.0713 -2.84043,0.39039 -3.07109,0.70003c-0.65639,0.88115 2.87203,1.60227 2.91978,1.63772c0.75879,0.56327 1.02809,1.62789 1.76702,2.21696c0.74611,0.5948 1.24175,-0.06016 2.16035,0.34375c0.4181,0.18385 0.57758,0.72312 0.95025,0.9872c0.81457,0.57722 2.40521,0.45934 3.36369,0.74192l0.38551,1.58812c2.07824,0.43236 4.04226,-0.89108 6.14801,-0.6196zM306.40143,187.55872c1.98318,0.61202 4.1255,1.37898 5.53537,3.01624c0.1855,0.21542 0.08789,0.62315 0.31669,0.79186c0.63772,0.47026 1.60002,-0.20963 2.3765,-0.05181c0.63945,0.12997 1.29345,0.32687 1.82737,0.702c0.2121,0.14903 -0.02977,0.73725 0.22938,0.74305c0.24589,0.0055 -0.18055,-0.5736 0.00252,-0.73786c0.77528,-0.69562 2.06343,-0.79739 3.03111,-0.83631c0.83092,-0.03342 1.62378,0.47857 2.45471,0.44536c0.30713,-0.01228 0.49066,-0.38834 0.78019,-0.49158c1.84767,-0.65886 2.41261,0.14411 3.7485,-1.26995c1.20946,-0.27629 1.6531,-0.49526 2.86948,-0.35577c0.19776,0.02268 0.38722,0.33046 0.55428,0.22223c0.151,-0.09785 -0.11154,-0.35962 -0.0715,-0.53504c0.31515,-1.38048 0.59557,-2.08248 2.1809,-2.44755c3.27592,-0.75439 6.55034,4.45797 4.97563,7.25998c-0.47662,0.84808 -1.80899,0.7198 -2.68872,1.1351c-0.58257,0.27502 -0.23619,1.65424 -0.31042,1.82986c-0.31508,0.7454 -0.72118,1.54417 -1.40151,1.9824c-1.34538,0.86661 -3.42285,0.0434 -4.94194,0.9138c-2.48305,1.20142 -4.16682,0.62749 -6.60121,0.11638c-0.62676,-0.1316 -1.21134,0.43243 -1.8409,0.54993c-2.03442,0.37968 -4.21599,0.33387 -6.06264,-0.54376l-0.94823,-1.39376c0,0 -0.00527,-0.01055 -0.01365,-0.03c-0.67618,-0.11145 -1.33927,-0.26916 -1.9551,-0.65906c-0.28206,-0.17858 -0.3049,-0.65755 -0.60915,-0.79498c-0.78274,-0.35356 -1.81602,-0.05223 -2.51786,-0.54733c-0.78193,-0.55159 -1.05242,-1.63779 -1.7973,-2.23847c-0.61892,-0.49908 -1.66238,-0.16198 -2.29781,-0.63986c-0.57188,-0.43008 -1.12041,-0.99857 -1.33467,-1.6813c-0.81092,-2.58394 1.17536,-3.28924 3.10681,-3.71542c0.33249,-1.06785 1.40322,-0.73838 1.40322,-0.73838z" fill="#000000" stroke="none" stroke-width="0.5" stroke-linecap="butt"/><path d="M315.44258,198.4176l-0.39162,-1.59506c-0.95849,-0.28258 -2.55408,-0.17513 -3.36865,-0.75235c-0.37266,-0.26408 -0.53326,-0.80833 -0.95136,-0.99218c-0.91859,-0.40392 -1.41452,0.24879 -2.16063,-0.346c-0.73893,-0.58907 -1.00823,-1.66065 -1.76702,-2.22392c-0.04775,-0.03544 -3.57573,-0.75974 -2.91934,-1.64088c0.23066,-0.30964 2.76286,-0.63217 3.07188,-0.70347c0,0 0.10971,0.01171 0.16937,-0.0094c1.16779,0.41481 2.31398,0.95846 3.14131,1.8899c0.32133,0.36175 0.37958,0.965 0.79769,1.2085c1.07471,0.62591 2.09563,0.09907 3.19282,0.27388c1.05106,0.16746 1.77934,1.51683 2.84035,1.43304c0.75662,-0.05975 0.92624,-1.3294 1.67467,-1.45551c1.30558,-0.22 2.30019,0.4356 3.45906,0.37093c0.52439,-0.02926 0.95038,-0.44691 1.44768,-0.6158c1.77676,-0.60338 2.58813,-0.008 4.04921,-1.39913c0.93245,-0.12791 3.01296,0.18885 3.7046,-0.31358c0.35837,-0.26034 0.6568,-2.54648 1.30424,-2.60625c1.44814,-0.13369 3.09563,2.63447 2.60079,3.88929c-0.24875,0.63079 -1.44926,0.01527 -1.98943,0.42514c-0.56435,0.42822 -0.97849,1.07108 -1.24537,1.72732c-0.11243,0.27645 0.27517,1.74203 -0.38557,2.0458c-0.70575,0.32447 -1.55839,-0.11731 -2.33065,-0.03365c-0.89034,0.09645 -1.74583,0.48397 -2.53306,0.9109c-2.02876,1.06299 -3.2799,0.14877 -5.22152,-0.10154c-2.10575,-0.27148 -4.11119,1.0464 -6.18943,0.61403z" data-paper-data="{&quot;noHover&quot;:false,&quot;origItem&quot;:[&quot;Path&quot;,{&quot;applyMatrix&quot;:true,&quot;segments&quot;:[[[484.26004,401.66678],[-5.62016,-0.72456],[5.18213,0.66809]],[[498.15376,401.97738],[-5.41468,2.83709],[2.1011,-1.13946]],[[504.90615,399.5645],[-2.37628,0.25743],[2.0611,-0.22329]],[[511.1249,399.65973],[-1.88363,0.86599],[1.76349,-0.81075]],[[512.15092,394.21589],[-0.30006,0.73782],[0.71229,-1.75145]],[[515.47432,389.6192],[-1.50623,1.1429],[1.44169,-1.09393]],[[520.78413,388.48679],[-0.66391,1.68356],[1.3207,-3.34907]],[[513.84858,378.135],[3.86502,-0.3568],[-1.72799,0.15952]],[[510.55996,385.03877],[0.95649,-0.69483],[-1.84594,1.34096]],[[500.67167,385.87148],[2.48868,-0.34141],[-3.89956,3.71285]],[[489.86638,389.61686],[4.74209,-1.6104],[-1.3273,0.45075]],[[486.003,391.27769],[1.39957,-0.07811],[-3.09295,0.17262]],[[476.76819,390.30556],[3.48454,-0.58717],[-1.99752,0.33659]],[[472.11189,394.21062],[2.0194,-0.15947],[-2.8318,0.22362]],[[464.52079,390.33801],[2.80524,0.44693],[-2.92834,-0.46655]],[[455.99938,389.60516],[2.86839,1.67055],[-1.11592,-0.64991]],[[453.87178,386.36751],[0.85759,0.96551],[-2.2081,-2.48599]],[[445.49003,381.3136],[3.11681,1.10713],[-0.15922,0.05633]],[[445.23046,381.39309],[0,0],[-0.82476,0.1903]],[[437.03384,383.26142],[0.61561,-0.82639],[-1.7519,2.35174]],[[444.82661,387.63243],[-0.12743,-0.0946],[2.02518,1.50334]],[[449.54274,393.54942],[-1.97218,-1.57223],[1.99133,1.58749]],[[455.30861,394.46689],[-2.45169,-1.07805],[1.11591,0.49069]],[[457.84478,397.10168],[-0.99462,-0.70481],[2.17405,1.54057]],[[466.82235,399.08185],[-2.55817,-0.7542],[0,0]],[[467.85127,403.32049],[0,0],[5.54675,1.15396]]],&quot;closed&quot;:true}]}" fill="#feff00" stroke="none" stroke-width="0.5" stroke-linecap="butt"/><path d="M322.55593,169.58611c0,1.35337 -1.24672,2.45048 -2.78464,2.45048c-1.53791,0 -2.78464,-1.09711 -2.78464,-2.45048c0,-1.35337 1.24673,-2.45049 2.78464,-2.45049c1.53791,0 2.78464,1.09712 2.78464,2.45049z" fill="#ff0000" stroke="#000000" stroke-width="2.5" stroke-linecap="butt"/><path d="M303.62038,185.73703l-3.56434,3.67573l2.89602,-20.04942z" fill="#feff00" stroke="#000000" stroke-width="0.5" stroke-linecap="round"/><path d="M336.92467,168.36087l2.78464,18.93556l-3.56434,-2.22771z" fill="#feff00" stroke="#000000" stroke-width="0.5" stroke-linecap="round"/></g><path d="M298.69104,201.30896v-42.61792h42.61792v42.61792z" fill="none" stroke="#000000" stroke-width="0.05" stroke-linecap="butt"/></g></g></svg>