<svg version="1.1" xmlns="http://www.w3.org/2000/svg" xmlns:xlink="http://www.w3.org/1999/xlink" width="58.75994" height="32.0665" viewBox="0,0,58.75994,32.0665"><g transform="translate(-303.16696,-63.07405)"><g data-paper-data="{&quot;isPaintingLayer&quot;:true}" fill-rule="nonzero" stroke="none" stroke-linecap="butt" stroke-linejoin="miter" stroke-miterlimit="10" stroke-dasharray="" stroke-dashoffset="0" style="mix-blend-mode: normal"><path d="M361.9269,63.19416v7.95787h-7.33201v-7.95787z" fill="#000000" stroke-width="NaN"/><path d="M354.5863,63.07405v7.95787h-7.33201v-7.95787z" fill="#ffffff" stroke-width="NaN"/><path d="M347.26436,63.13386v7.95787h-7.33201v-7.95787z" fill="#000000" stroke-width="NaN"/><path d="M339.92377,63.08601v7.95787h-7.33201v-7.95787z" fill="#ffffff" stroke-width="NaN"/><path d="M361.9269,71.14216v7.95787h-7.33201v-7.95787z" fill="#ffffff" stroke-width="NaN"/><path d="M354.5863,71.02206v7.95787h-7.332v-7.95787z" fill="#000000" stroke-width="NaN"/><path d="M347.26436,71.08186v7.95787h-7.33201v-7.95786z" fill="#ffffff" stroke-width="NaN"/><path d="M339.92377,71.03402v7.95787h-7.33201v-7.95786z" fill="#000000" stroke-width="NaN"/><path d="M361.86033,79.23467v7.95787h-7.33201v-7.95786z" fill="#000000" stroke-width="NaN"/><path d="M354.51973,79.11457v7.95787h-7.332v-7.95787z" fill="#ffffff" stroke-width="NaN"/><path d="M347.19779,79.17438v7.95786h-7.33201v-7.95786z" fill="#000000" stroke-width="NaN"/><path d="M339.8572,79.12653v7.95786h-7.33201v-7.95787z" fill="#ffffff" stroke-width="NaN"/><path d="M361.86033,87.18268v7.95787h-7.332v-7.95787z" fill="#ffffff" stroke-width="NaN"/><path d="M354.51973,87.06257v7.95786h-7.33201v-7.95786z" fill="#000000" stroke-width="NaN"/><path d="M347.19779,87.12238c0,0 0,0.57324 0,1.09479c0,1.30584 0,6.86308 0,6.86308h-7.332v-7.95787z" fill="#ffffff" stroke-width="NaN"/><path d="M339.8572,87.07453v7.95786h-7.33201v-7.95786z" fill="#000000" stroke-width="NaN"/><path d="M332.56866,63.19415v7.95787h-7.33201v-7.95787z" fill="#000000" stroke-width="NaN"/><path d="M325.22806,63.07405v7.95787h-7.33201v-7.95787z" fill="#ffffff" stroke-width="NaN"/><path d="M317.90612,63.13386v7.95786h-7.332v-7.95787z" fill="#000000" stroke-width="NaN"/><path d="M310.56553,63.08601v7.95786h-7.33201v-7.95786z" fill="#ffffff" stroke-width="NaN"/><path d="M332.56866,71.14216v7.95787h-7.332v-7.95787z" fill="#ffffff" stroke-width="NaN"/><path d="M325.22806,71.02206v7.95786h-7.33201v-7.95786z" fill="#000000" stroke-width="NaN"/><path d="M317.90612,71.08186v7.95787h-7.332v-7.95787z" fill="#ffffff" stroke-width="NaN"/><path d="M310.56553,71.03401v7.95787h-7.33201v-7.95787z" fill="#000000" stroke-width="NaN"/><path d="M332.50209,79.23467v7.95786h-7.332v-7.95786z" fill="#000000" stroke-width="NaN"/><path d="M325.16149,79.11457v7.95786h-7.33201v-7.95787z" fill="#ffffff" stroke-width="NaN"/><path d="M317.83956,79.17438v7.95787h-7.33201v-7.95787z" fill="#000000" stroke-width="NaN"/><path d="M310.49896,79.12652v7.95787h-7.332v-7.95787z" fill="#ffffff" stroke-width="NaN"/><path d="M332.50209,87.18267v7.95787h-7.332v-7.95787z" fill="#ffffff" stroke-width="NaN"/><path d="M325.16149,87.06257v7.95787h-7.33201v-7.95787z" fill="#000000" stroke-width="NaN"/><path d="M317.83956,87.12238v7.95787h-7.33201v-7.95787z" fill="#ffffff" stroke-width="NaN"/><path d="M310.49896,87.07453v7.95787h-7.332v-7.95787z" fill="#000000" stroke-width="NaN"/></g></g></svg>