<svg version="1.1" xmlns="http://www.w3.org/2000/svg" xmlns:xlink="http://www.w3.org/1999/xlink" width="179.27181" height="315.49831" viewBox="0,0,179.27181,315.49831"><defs><radialGradient cx="39.11394" cy="323.21038" r="27.01224" gradientUnits="userSpaceOnUse" id="color-1"><stop offset="0" stop-color="#ffffff"/><stop offset="1" stop-color="#1a1a1a"/></radialGradient><linearGradient x1="39.11394" y1="296.19814" x2="39.11394" y2="350.22262" gradientUnits="userSpaceOnUse" id="color-2"><stop offset="0" stop-color="#000000"/><stop offset="1" stop-color="#ffffff"/></linearGradient><radialGradient cx="33.57878" cy="323.22837" r="2.42143" gradientUnits="userSpaceOnUse" id="color-3"><stop offset="0" stop-color="#ffffff"/><stop offset="1" stop-color="#1a1a1a"/></radialGradient><linearGradient x1="33.57878" y1="308.35386" x2="33.57878" y2="338.10287" gradientUnits="userSpaceOnUse" id="color-4"><stop offset="0" stop-color="#000000"/><stop offset="1" stop-color="#ffffff"/></linearGradient><radialGradient cx="45.49716" cy="323.3855" r="2.42143" gradientUnits="userSpaceOnUse" id="color-5"><stop offset="0" stop-color="#ffffff"/><stop offset="1" stop-color="#1a1a1a"/></radialGradient><linearGradient x1="45.49716" y1="308.51099" x2="45.49716" y2="338.26001" gradientUnits="userSpaceOnUse" id="color-6"><stop offset="0" stop-color="#000000"/><stop offset="1" stop-color="#ffffff"/></linearGradient></defs><g transform="translate(-10.8517,-35.9743)"><g data-paper-data="{&quot;isPaintingLayer&quot;:true}" fill-rule="nonzero" stroke-linecap="butt" stroke-linejoin="miter" stroke-miterlimit="10" stroke-dasharray="" stroke-dashoffset="0" style="mix-blend-mode: normal"><text transform="translate(175.20789,57.82431) scale(0.5,0.5)" font-size="40" xml:space="preserve" fill="none" fill-rule="nonzero" stroke="none" stroke-width="1" stroke-linecap="butt" stroke-linejoin="miter" stroke-miterlimit="10" stroke-dasharray="" stroke-dashoffset="0" font-family="Sans Serif" font-weight="normal" text-anchor="start" style="mix-blend-mode: normal"><tspan x="0" dy="0">II</tspan></text><path d="M12.1017,323.21038c0,-14.91845 12.09379,-27.01224 27.01224,-27.01224c14.91845,0 27.01224,12.09379 27.01224,27.01224c0,14.91845 -12.09379,27.01224 -27.01224,27.01224c-14.91845,0 -27.01224,-12.09379 -27.01224,-27.01224z" fill="url(#color-1)" stroke="url(#color-2)" stroke-width="2.5"/><path d="M31.15735,338.10287v-29.74902h4.84286v29.74902z" fill="url(#color-3)" stroke="url(#color-4)" stroke-width="2.5"/><path d="M43.07573,338.26001v-29.74902h4.84286v29.74902z" fill="url(#color-5)" stroke="url(#color-6)" stroke-width="2.5"/></g></g></svg>