<svg version="1.1" xmlns="http://www.w3.org/2000/svg" xmlns:xlink="http://www.w3.org/1999/xlink" width="441.85855" height="269.76521" viewBox="0,0,441.85855,269.76521"><g transform="translate(-83.4266,-97.91928)"><g data-paper-data="{&quot;isPaintingLayer&quot;:true}" fill="#000000" fill-rule="nonzero" stroke="#000000" stroke-linecap="butt" stroke-linejoin="miter" stroke-miterlimit="10" stroke-dasharray="" stroke-dashoffset="0" style="mix-blend-mode: normal"><path d="M273.70726,202.85816v-8.46716h31.75182v8.46716z" stroke-width="2.5"/><path d="M244.8478,161.61453v-9.52554h131.0073v9.52554z" stroke-width="2.5"/><path d="M403.37335,161.34994v-11.11314h120.6618v11.11314z" stroke-width="2.5"/><path d="M513.44634,361.65103v-198.9781h10.58394v198.9781z" stroke-width="2.5"/><path d="M236.14707,263.22038v-111.13139h9.52555v111.13139z" stroke-width="2.5"/><path d="M208.62882,265.33716v-10.58394h37.0438v10.58394z" stroke-width="2.5"/><path d="M208.02055,366.43449v-111.13139h11.64234v111.13139z" stroke-width="2.5"/><path d="M486.98648,289.01873v-13.49453h25.40146v13.49453z" stroke-width="2.5"/><path d="M362.09597,341.54154v-47.62774h11.64234v47.62774z" stroke-width="2.5"/><path d="M362.09597,293.91381v-14.81752h63.50365v14.81752z" stroke-width="2.5"/><path d="M403.37335,196.54154v-35.9854h10.58394v35.9854z" stroke-width="2.5"/><path d="M373.73831,111.87001v-12.70073h37.0438v12.70073z" stroke-width="2.5"/><path d="M509.61483,149.13887v-38.10219h14.28832v38.10219z" stroke-width="2.5"/><path d="M125.01568,278.03789v-15.87591h31.75182v15.87591z" stroke-width="2.5"/><path d="M84.6766,138.32986v-39.16058h11.64234v39.16058z" stroke-width="2.5"/><path d="M244.75,265.76782v-10h66v10z" stroke-width="2"/><path d="M426.75,289.26782v-11.5h64v11.5z" stroke-width="2"/><path d="M361.25,294.76782v-20.5h160.5v20.5z" stroke-width="2"/><path d="M302.25,279.26782v-12.5h8.5v12.5z" stroke-width="2"/><path d="M301.75,286.26782v-11.5h58.5v11.5z" stroke-width="2"/><path d="M150.6766,365.26782v-86.5h7v86.5z" stroke-width="2.5"/></g></g></svg>