<svg version="1.1" xmlns="http://www.w3.org/2000/svg" xmlns:xlink="http://www.w3.org/1999/xlink" width="58.75995" height="32.0665" viewBox="0,0,58.75995,32.0665"><g transform="translate(-205.36696,-55.47404)"><g data-paper-data="{&quot;isPaintingLayer&quot;:true}" fill-rule="nonzero" stroke="none" stroke-linecap="butt" stroke-linejoin="miter" stroke-miterlimit="10" stroke-dasharray="" stroke-dashoffset="0" style="mix-blend-mode: normal"><g><path d="M264.1269,55.59415l0,7.95787h-7.33201l0,-7.95787z" fill="#000000" stroke-width="NaN"/><path d="M256.78631,55.47404v7.95787h-7.33201l0,-7.95787z" fill="#ffffff" stroke-width="NaN"/><path d="M249.46437,55.53385v7.95787l-7.332,0v-7.95787z" fill="#000000" stroke-width="NaN"/><path d="M242.12377,55.48601v7.95786h-7.332v-7.95787z" fill="#ffffff" stroke-width="NaN"/><path d="M264.1269,63.54215l0,7.95787l-7.33201,0v-7.95787z" fill="#ffffff" stroke-width="NaN"/><path d="M256.78631,63.42205v7.95786l-7.33201,0v-7.95786z" fill="#000000" stroke-width="NaN"/><path d="M249.46437,63.48186v7.95786h-7.332v-7.95786z" fill="#ffffff" stroke-width="NaN"/><path d="M242.12377,63.43401v7.95787l-7.332,0l0,-7.95786z" fill="#000000" stroke-width="NaN"/><path d="M264.06033,71.63467l0,7.95787l-7.332,0v-7.95787z" fill="#000000" stroke-width="NaN"/><path d="M256.71973,71.51456v7.95787h-7.332v-7.95787z" fill="#ffffff" stroke-width="NaN"/><path d="M249.3978,71.57437v7.95786l-7.33201,0v-7.95787z" fill="#000000" stroke-width="NaN"/><path d="M242.0572,71.52652l0,7.95786l-7.33201,0l0,-7.95786z" fill="#ffffff" stroke-width="NaN"/><path d="M264.06033,79.58267v7.95787l-7.33201,0v-7.95787z" fill="#ffffff" stroke-width="NaN"/><path d="M256.71973,79.46257v7.95787l-7.33201,0v-7.95786z" fill="#000000" stroke-width="NaN"/><path d="M249.3978,79.52238c0,0 0,0.57324 0,1.09479c0,1.30584 0,6.86308 0,6.86308l-7.33201,0v-7.95787z" fill="#ffffff" stroke-width="NaN"/><path d="M242.0572,79.47453l0,7.95786l-7.33201,0v-7.95787z" fill="#000000" stroke-width="NaN"/><path d="M234.76866,55.59415l0,7.95787l-7.33201,0l0,-7.95787z" fill="#000000" stroke-width="NaN"/><path d="M227.42807,55.47404v7.95787h-7.33201l0,-7.95787z" fill="#ffffff" stroke-width="NaN"/><path d="M220.10613,55.53386v7.95786h-7.33201v-7.95786z" fill="#000000" stroke-width="NaN"/><path d="M212.76553,55.48601v7.95786h-7.33201v-7.95786z" fill="#ffffff" stroke-width="NaN"/><path d="M234.76866,63.54215l0,7.95787l-7.332,0v-7.95787z" fill="#ffffff" stroke-width="NaN"/><path d="M227.42807,63.42205l0,7.95786h-7.33201l0,-7.95786z" fill="#000000" stroke-width="NaN"/><path d="M220.10613,63.48186v7.95787l-7.33201,0v-7.95787z" fill="#ffffff" stroke-width="NaN"/><path d="M212.76553,63.43401v7.95787h-7.332v-7.95787z" fill="#000000" stroke-width="NaN"/><path d="M234.70209,71.63467v7.95787h-7.33201l0,-7.95787z" fill="#000000" stroke-width="NaN"/><path d="M227.3615,71.51456l0,7.95786l-7.33201,0l0,-7.95786z" fill="#ffffff" stroke-width="NaN"/><path d="M220.03956,71.57437l0,7.95787h-7.33201l0,-7.95787z" fill="#000000" stroke-width="NaN"/><path d="M212.69896,71.52652v7.95787l-7.33201,0l0,-7.95787z" fill="#ffffff" stroke-width="NaN"/><path d="M234.70209,79.58267v7.95787l-7.33201,0v-7.95787z" fill="#ffffff" stroke-width="NaN"/><path d="M227.3615,79.46256v7.95787h-7.332l0,-7.95787z" fill="#000000" stroke-width="NaN"/><path d="M220.03956,79.52237v7.95787h-7.33201l0,-7.95787z" fill="#ffffff" stroke-width="NaN"/><path d="M212.69896,79.47453v7.95787l-7.33201,0l0,-7.95786z" fill="#000000" stroke-width="NaN"/></g></g></g></svg>