<svg version="1.1" xmlns="http://www.w3.org/2000/svg" xmlns:xlink="http://www.w3.org/1999/xlink" width="58.75994" height="32.0665" viewBox="0,0,58.75994,32.0665"><g transform="translate(-99.16696,-173.07405)"><g data-paper-data="{&quot;isPaintingLayer&quot;:true}" fill-rule="nonzero" stroke="none" stroke-linecap="butt" stroke-linejoin="miter" stroke-miterlimit="10" stroke-dasharray="" stroke-dashoffset="0" style="mix-blend-mode: normal"><path d="M157.9269,173.19416v7.95787h-7.33201v-7.95787z" fill="#000000" stroke-width="NaN"/><path d="M150.5863,173.07405v7.95787h-7.33201v-7.95787z" fill="#ffffff" stroke-width="NaN"/><path d="M143.26436,173.13386v7.95787h-7.33201v-7.95787z" fill="#000000" stroke-width="NaN"/><path d="M135.92377,173.08601v7.95787h-7.33201v-7.95787z" fill="#ffffff" stroke-width="NaN"/><path d="M157.9269,181.14216v7.95787h-7.33201v-7.95787z" fill="#ffffff" stroke-width="NaN"/><path d="M150.5863,181.02206v7.95787h-7.332v-7.95787z" fill="#000000" stroke-width="NaN"/><path d="M143.26436,181.08186v7.95787h-7.33201v-7.95786z" fill="#ffffff" stroke-width="NaN"/><path d="M135.92377,181.03402v7.95787h-7.33201v-7.95786z" fill="#000000" stroke-width="NaN"/><path d="M157.86033,189.23467v7.95787h-7.33201v-7.95786z" fill="#000000" stroke-width="NaN"/><path d="M150.51973,189.11457v7.95787h-7.332v-7.95787z" fill="#ffffff" stroke-width="NaN"/><path d="M143.19779,189.17438v7.95786h-7.33201v-7.95786z" fill="#000000" stroke-width="NaN"/><path d="M135.8572,189.12653v7.95786h-7.33201v-7.95787z" fill="#ffffff" stroke-width="NaN"/><path d="M157.86033,197.18268v7.95787h-7.332v-7.95787z" fill="#ffffff" stroke-width="NaN"/><path d="M150.51973,197.06257v7.95786h-7.33201v-7.95786z" fill="#000000" stroke-width="NaN"/><path d="M143.19779,197.12238c0,0 0,0.57324 0,1.09479c0,1.30584 0,6.86308 0,6.86308h-7.332v-7.95787z" fill="#ffffff" stroke-width="NaN"/><path d="M135.8572,197.07453v7.95786h-7.33201v-7.95786z" fill="#000000" stroke-width="NaN"/><path d="M128.56866,173.19415v7.95787h-7.33201v-7.95787z" fill="#000000" stroke-width="NaN"/><path d="M121.22806,173.07405v7.95787h-7.33201v-7.95787z" fill="#ffffff" stroke-width="NaN"/><path d="M113.90612,173.13386v7.95786h-7.332v-7.95787z" fill="#000000" stroke-width="NaN"/><path d="M106.56553,173.08601v7.95786h-7.33201v-7.95786z" fill="#ffffff" stroke-width="NaN"/><path d="M128.56866,181.14216v7.95787h-7.332v-7.95787z" fill="#ffffff" stroke-width="NaN"/><path d="M121.22806,181.02206v7.95786h-7.33201v-7.95786z" fill="#000000" stroke-width="NaN"/><path d="M113.90612,181.08186v7.95787h-7.332v-7.95787z" fill="#ffffff" stroke-width="NaN"/><path d="M106.56553,181.03401v7.95787h-7.33201v-7.95787z" fill="#000000" stroke-width="NaN"/><path d="M128.50209,189.23467v7.95786h-7.332v-7.95786z" fill="#000000" stroke-width="NaN"/><path d="M121.16149,189.11457v7.95786h-7.33201v-7.95787z" fill="#ffffff" stroke-width="NaN"/><path d="M113.83956,189.17438v7.95787h-7.33201v-7.95787z" fill="#000000" stroke-width="NaN"/><path d="M106.49896,189.12652v7.95787h-7.332v-7.95787z" fill="#ffffff" stroke-width="NaN"/><path d="M128.50209,197.18267v7.95787h-7.332v-7.95787z" fill="#ffffff" stroke-width="NaN"/><path d="M121.16149,197.06257v7.95787h-7.33201v-7.95787z" fill="#000000" stroke-width="NaN"/><path d="M113.83956,197.12238v7.95787h-7.33201v-7.95787z" fill="#ffffff" stroke-width="NaN"/><path d="M106.49896,197.07453v7.95787h-7.332v-7.95787z" fill="#000000" stroke-width="NaN"/></g></g></svg>