<svg version="1.1" xmlns="http://www.w3.org/2000/svg" xmlns:xlink="http://www.w3.org/1999/xlink" width="125.20003" height="16.21564" viewBox="0,0,125.20003,16.21564"><defs><linearGradient x1="347.61877" y1="262.21109" x2="347.61877" y2="257.85254" gradientUnits="userSpaceOnUse" id="color-1"><stop offset="0" stop-color="#00ffff"/><stop offset="1" stop-color="#00ffff" stop-opacity="0"/></linearGradient><linearGradient x1="347.69279" y1="262.2247" x2="347.69279" y2="266.58325" gradientUnits="userSpaceOnUse" id="color-2"><stop offset="0" stop-color="#00ffff"/><stop offset="1" stop-color="#00ffff" stop-opacity="0"/></linearGradient><linearGradient x1="292.81798" y1="255.69052" x2="292.81798" y2="269.2545" gradientUnits="userSpaceOnUse" id="color-3"><stop offset="0" stop-color="#808080"/><stop offset="1" stop-color="#ffffff"/></linearGradient><linearGradient x1="402.45402" y1="255.03886" x2="402.45402" y2="268.60284" gradientUnits="userSpaceOnUse" id="color-4"><stop offset="0" stop-color="#808080"/><stop offset="1" stop-color="#ffffff"/></linearGradient></defs><g transform="translate(-285.03599,-254.03886)"><g data-paper-data="{&quot;isPaintingLayer&quot;:true}" fill-rule="nonzero" stroke-width="2" stroke-linecap="butt" stroke-linejoin="miter" stroke-miterlimit="10" stroke-dasharray="" stroke-dashoffset="0" style="mix-blend-mode: normal"><path d="M398.15848,257.85254v4.35855h-101.07941v-4.35855z" data-paper-data="{&quot;index&quot;:null}" fill="url(#color-1)" stroke="none"/><path d="M398.2325,262.2247v4.35855h-101.07941v-4.35855z" data-paper-data="{&quot;index&quot;:null}" fill="url(#color-2)" stroke="none"/><path d="M286.03599,262.47251c0,-3.74559 3.0364,-6.78199 6.78199,-6.78199c3.74559,0 6.78199,3.0364 6.78199,6.78199c0,3.74559 -3.0364,6.78199 -6.78199,6.78199c-3.74559,0 -6.78199,-3.0364 -6.78199,-6.78199z" fill="url(#color-3)" stroke="#000000"/><path d="M395.67203,261.82085c0,-3.74559 3.0364,-6.78199 6.78199,-6.78199c3.74559,0 6.78199,3.03641 6.78199,6.78199c0,3.74559 -3.0364,6.78199 -6.78199,6.78199c-3.74559,0 -6.78199,-3.0364 -6.78199,-6.78199z" fill="url(#color-4)" stroke="#000000"/></g></g></svg>