<svg version="1.1" xmlns="http://www.w3.org/2000/svg" xmlns:xlink="http://www.w3.org/1999/xlink" width="58.75994" height="32.0665" viewBox="0,0,58.75994,32.0665"><g transform="translate(-229.36696,-106.47405)"><g data-paper-data="{&quot;isPaintingLayer&quot;:true}" fill-rule="nonzero" stroke="none" stroke-linecap="butt" stroke-linejoin="miter" stroke-miterlimit="10" stroke-dasharray="" stroke-dashoffset="0" style="mix-blend-mode: normal"><path d="M288.1269,106.59416v7.95787h-7.33201v-7.95787z" fill="#000000" stroke-width="NaN"/><path d="M280.7863,106.47405v7.95787h-7.33201v-7.95787z" fill="#ffffff" stroke-width="NaN"/><path d="M273.46436,106.53386v7.95787h-7.33201v-7.95787z" fill="#000000" stroke-width="NaN"/><path d="M266.12377,106.48601v7.95787h-7.33201v-7.95787z" fill="#ffffff" stroke-width="NaN"/><path d="M288.1269,114.54216v7.95787h-7.33201v-7.95787z" fill="#ffffff" stroke-width="NaN"/><path d="M280.7863,114.42206v7.95787h-7.332v-7.95787z" fill="#000000" stroke-width="NaN"/><path d="M273.46436,114.48186v7.95787h-7.33201v-7.95786z" fill="#ffffff" stroke-width="NaN"/><path d="M266.12377,114.43402v7.95787h-7.33201v-7.95786z" fill="#000000" stroke-width="NaN"/><path d="M288.06033,122.63467v7.95787h-7.33201v-7.95786z" fill="#000000" stroke-width="NaN"/><path d="M280.71973,122.51457v7.95787h-7.332v-7.95787z" fill="#ffffff" stroke-width="NaN"/><path d="M273.39779,122.57438v7.95786h-7.33201v-7.95786z" fill="#000000" stroke-width="NaN"/><path d="M266.0572,122.52653v7.95786h-7.33201v-7.95787z" fill="#ffffff" stroke-width="NaN"/><path d="M288.06033,130.58268v7.95787h-7.332v-7.95787z" fill="#ffffff" stroke-width="NaN"/><path d="M280.71973,130.46257v7.95786h-7.33201v-7.95786z" fill="#000000" stroke-width="NaN"/><path d="M273.39779,130.52238c0,0 0,0.57324 0,1.09479c0,1.30584 0,6.86308 0,6.86308h-7.332v-7.95787z" fill="#ffffff" stroke-width="NaN"/><path d="M266.0572,130.47453v7.95786h-7.33201v-7.95786z" fill="#000000" stroke-width="NaN"/><path d="M258.76866,106.59415v7.95787h-7.33201v-7.95787z" fill="#000000" stroke-width="NaN"/><path d="M251.42806,106.47405v7.95787h-7.33201v-7.95787z" fill="#ffffff" stroke-width="NaN"/><path d="M244.10612,106.53386v7.95786h-7.332v-7.95787z" fill="#000000" stroke-width="NaN"/><path d="M236.76553,106.48601v7.95786h-7.33201v-7.95786z" fill="#ffffff" stroke-width="NaN"/><path d="M258.76866,114.54216v7.95787h-7.332v-7.95787z" fill="#ffffff" stroke-width="NaN"/><path d="M251.42806,114.42206v7.95786h-7.33201v-7.95786z" fill="#000000" stroke-width="NaN"/><path d="M244.10612,114.48186v7.95787h-7.332v-7.95787z" fill="#ffffff" stroke-width="NaN"/><path d="M236.76553,114.43401v7.95787h-7.33201v-7.95787z" fill="#000000" stroke-width="NaN"/><path d="M258.70209,122.63467v7.95786h-7.332v-7.95786z" fill="#000000" stroke-width="NaN"/><path d="M251.36149,122.51457v7.95786h-7.33201v-7.95787z" fill="#ffffff" stroke-width="NaN"/><path d="M244.03956,122.57438v7.95787h-7.33201v-7.95787z" fill="#000000" stroke-width="NaN"/><path d="M236.69896,122.52652v7.95787h-7.332v-7.95787z" fill="#ffffff" stroke-width="NaN"/><path d="M258.70209,130.58267v7.95787h-7.332v-7.95787z" fill="#ffffff" stroke-width="NaN"/><path d="M251.36149,130.46257v7.95787h-7.33201v-7.95787z" fill="#000000" stroke-width="NaN"/><path d="M244.03956,130.52238v7.95787h-7.33201v-7.95787z" fill="#ffffff" stroke-width="NaN"/><path d="M236.69896,130.47453v7.95787h-7.332v-7.95787z" fill="#000000" stroke-width="NaN"/></g></g></svg>