<svg version="1.1" xmlns="http://www.w3.org/2000/svg" xmlns:xlink="http://www.w3.org/1999/xlink" width="61.66666" height="56.78683" viewBox="0,0,61.66666,56.78683"><g transform="translate(-61.1982,-322.42489)"><g data-paper-data="{&quot;isPaintingLayer&quot;:true}" fill-rule="nonzero" stroke="none" stroke-linecap="butt" stroke-linejoin="miter" stroke-miterlimit="10" stroke-dasharray="" stroke-dashoffset="0" style="mix-blend-mode: normal"><path d="M99.97674,366.29677c-0.933,-0.41795 -1.69242,-1.16758 -2.6256,-1.58511c-1.51327,-0.67708 -3.23566,-0.72419 -4.85043,-1.09964c-2.50451,-0.58232 -5.40302,-1.13888 -7.9978,-0.69787c-3.50654,0.59598 -5.71744,3.7104 -7.99943,6.08304c-0.66879,0.69536 -1.45757,1.29083 -2.0129,2.07977c-0.64099,0.91063 -2.08605,4.68669 -2.72353,5.47941c-0.02041,0.02538 -0.04102,0.05057 -0.06182,0.07557l0.01044,0.00696l-1.23754,1.85631c-0.27843,0.43113 -0.76317,0.71651 -1.31457,0.71651c-0.81169,0 -1.47893,-0.61843 -1.55626,-1.40981l-0.21279,-1.91512c-1.23689,-11.13202 -3.41349,-22.09431 -5.24591,-33.13367c-0.08608,-0.05347 -0.17288,-0.11849 -0.25984,-0.19669c0.3831,-0.66605 0.75011,-1.32342 1.16193,-1.85565c1.5375,-1.98709 2.34059,-4.82326 2.38272,-7.75979c0.86071,-1.82439 1.90561,-3.49161 3.62466,-4.9006c3.87841,-3.17888 8.65679,-5.40933 13.70169,-5.61546c0.14269,-0.00583 6.17117,0.59269 6.44196,0.61936c1.80147,0.17744 3.67586,0.01077 5.40204,0.55581c2.00683,0.63365 4.00911,1.59205 5.98363,2.61492c1.18282,1.04294 2.61417,1.81056 4.19383,2.20264c0.45678,0.23319 0.91106,0.45948 1.36253,0.6754c0.6583,0.40193 1.20826,1.29055 1.9749,1.2058c0.76664,-0.08475 1.07874,-1.10548 1.66383,-1.60807c0.19287,-0.16568 0.38746,-0.32928 0.58344,-0.49119c2.28185,-0.76148 4.19763,-2.3231 5.41439,-4.35191c0.33435,-0.23513 1.23521,-0.71407 2.07444,0.20271c0.06298,0.0688 0.1181,0.13726 0.16608,0.20516c0.12292,-0.03906 0.26078,-0.06706 0.41539,-0.08112c1.55732,-0.14158 1.6989,1.41575 1.6989,1.41575c0.4718,5.18982 0.72137,10.39994 1.20475,15.58642c0.33253,3.568 1.13148,7.15225 1.30064,10.72883c0.04382,0.92667 -0.09433,1.86047 -0.03098,2.78439c-0.94655,0.92261 -1.84101,1.95807 -2.64613,3.07709c-0.03032,-0.16832 -0.06284,-0.33649 -0.09615,-0.50464c-0.02728,0.04242 -0.04491,0.06559 -0.04491,0.06559l-0.53118,0.69823c-1.26512,1.66286 -2.55037,3.3106 -3.85565,4.94212c-0.61204,0.81583 -1.22136,1.63371 -1.83613,2.44749c-0.50406,0.66723 -0.80812,1.57667 -1.42645,2.10776c-1.6567,0.02568 -3.27255,0.18093 -4.74707,0.43214c-2.60189,-0.0557 -4.97462,-0.5504 -7.4491,-1.65887zM96.55441,359.1156c-1.4835,0.4945 -1.97799,-0.989 -1.97799,-0.989l-0.33484,-1.00642c-1.16479,-0.34977 -2.36503,-0.61655 -3.42452,-1.19959c-0.88064,-0.48462 -1.44771,-1.44983 -2.35386,-1.8849c-1.14835,-0.55136 -2.66784,-0.65058 -4.20518,-0.49741c0.0466,0.15631 0.09646,0.31352 0.14997,0.47183l0.24774,0.01426c0,0 1.10573,1.10573 0,2.21146c-1.10573,1.10573 -2.21147,0 -2.21147,0l-1.00326,-1.23673c-0.0948,-0.2878 -0.17938,-0.5723 -0.25559,-0.85443c-0.70779,0.20554 -1.35789,0.44077 -1.90423,0.67966c-0.93705,0.40972 -1.65164,1.1803 -2.40934,1.88917c0.04913,0.20354 0.1004,0.40735 0.15409,0.61153c0.24081,0.06072 0.49508,0.19806 0.74934,0.45231c1.10573,1.10573 0,2.21147 0,2.21147l-3.21473,0.01427c-0.20263,-0.60808 -0.37979,-1.21127 -0.53762,-1.81179c-0.09915,0.03931 -0.1945,0.08657 -0.28426,0.1455c-1.9732,1.29534 -3.19511,3.10684 -3.68353,5.30403c0,0 -0.22167,0.88666 -1.00392,1.13481c0.40873,2.64333 0.78756,5.29182 1.11907,7.94884c0.08553,-0.14843 0.16801,-0.29792 0.24429,-0.44962c1.59796,-3.17792 3.53623,-5.15604 5.98995,-7.69949c0.79322,-0.82223 1.45636,-1.79803 2.38961,-2.45704c4.3042,-3.03942 9.5614,-2.66461 14.40984,-1.55371c1.77465,0.40662 3.64794,0.52116 5.3177,1.24685c0.9746,0.42357 1.76953,1.1956 2.73798,1.63304c2.29091,1.03478 4.08334,1.24147 6.36579,1.34366c-0.36058,-1.6492 -0.74096,-3.29525 -1.12763,-4.94058c-1.57167,1.23916 -3.41346,1.89013 -5.92842,1.14448c-0.27249,-0.08079 -1.96669,-1.40524 -3.2731,-2.347c-0.16207,0.18929 -0.3992,0.35629 -0.74188,0.47052zM114.67954,339.303l0.29052,-0.29052c0,0 1.10574,-1.10573 2.21147,0c1.10573,1.10573 0,2.21146 0,2.21146l-0.29052,0.29052c-0.28626,0.28625 -0.57258,0.57954 -0.85945,0.87728c0.17183,0.0773 0.34815,0.1974 0.52447,0.37372c1.10573,1.10573 0,2.21146 0,2.21146l-0.33258,0.21909c-0.52373,1.04724 -1.04112,2.1202 -1.57316,3.19316c0.55921,2.86643 0.97778,5.77812 1.45096,8.66032c0.2343,-0.30511 0.4679,-0.61075 0.7008,-0.91692l0.53118,-0.69823c0,0 0.93891,-1.2342 2.17578,-0.30948c-0.0807,-1.00343 0.05755,-2.01816 0.01002,-3.02505c-0.16723,-3.54255 -0.96377,-7.09837 -1.29319,-10.63295c-0.45323,-4.8631 -0.70109,-9.74685 -1.119,-14.61526l-0.47425,0.43162c-0.50461,0.39675 -1.00524,0.79875 -1.50556,1.20115c0.13849,0.64341 -0.24335,1.22901 -0.24335,1.22901l-1.12528,1.67418c-0.22903,1.0741 -0.14412,2.26768 -0.6871,3.22231c-0.56107,0.98644 -1.05382,1.59221 -1.55673,1.98387c0.20914,1.53299 0.6697,3.111 1.1711,4.67294c0.66142,-0.63903 1.32335,-1.29316 1.99385,-1.96366zM102.02528,335.38238c-0.28883,-1.72742 -0.56932,-3.46943 -0.63459,-5.21899c-2.5017,-1.33527 -5.06062,-2.71767 -7.62761,-3.5509c-0.83018,-0.26947 -1.70218,-0.33522 -2.58222,-0.36269c0.10235,0.19862 0.14113,0.35372 0.14113,0.35372c0.77895,3.17279 0.51381,6.42589 1.05095,9.61934c0.32842,0.25531 0.6662,0.44481 1.01263,0.52221c2.03041,0.45367 4.93133,-0.0671 7.05281,-0.0671c0.6349,0.01298 1.20178,-0.07726 1.73492,-0.22655c-0.04056,-0.35751 -0.08865,-0.71402 -0.14801,-1.06905zM102.6417,341.56933c-0.10058,-0.67293 -0.16473,-1.35051 -0.2176,-2.02951c-0.61263,0.1545 -1.26236,0.25509 -1.98571,0.26564c-2.05275,0 -4.87594,0.39786 -7.03509,0.11193c0.58667,1.59338 1.26324,3.1661 1.66598,4.80343c0.24401,0.99201 0.42854,1.98985 0.58742,2.98908c2.66243,0.78508 5.65981,0.84425 8.18276,0.50433c-0.45492,-2.2041 -0.86478,-4.41715 -1.19777,-6.6449zM81.96158,342.3436c0.31579,1.68645 0.95493,3.30307 1.24906,4.99343c0.19131,1.09946 0.29821,2.12698 0.43394,3.13827c2.16884,-0.22894 4.36967,-0.06565 6.12965,0.72098c0.98587,0.44064 1.61442,1.4626 2.55772,1.98823c0.36399,0.20281 0.72853,0.37847 1.09311,0.53635c-0.21287,-1.23576 -0.37917,-2.47668 -0.55971,-3.71878c-1.33759,-0.57893 -2.5833,-1.3491 -3.6774,-2.34557c-2.01073,-1.83131 -2.75165,-4.46371 -4.86196,-6.21131c-0.82111,-0.67998 -1.70318,-1.29388 -2.45601,-2.04876c-0.22859,-0.22921 -0.1236,-0.87664 -0.44699,-0.86214c-0.01711,0.00077 -0.03407,0.00207 -0.05087,0.00389c0.16336,1.27894 0.35428,2.54946 0.58945,3.80542zM99.46507,356.35556c1.52292,1.11048 2.10143,2.47103 4.23179,1.66954c0.6292,-0.23672 1.33718,-0.88622 1.99086,-1.60466c-0.41034,-1.73614 -0.81728,-3.47338 -1.20497,-5.21459c-2.67077,0.3738 -5.59136,0.39446 -8.34716,-0.18134c0.19108,1.32682 0.40305,2.64751 0.71571,3.95172c0.88389,0.34195 1.75781,0.75518 2.61377,1.37933zM92.04656,345.52354c-0.62877,-2.5735 -1.9224,-4.98928 -2.51797,-7.57186c-0.02629,-0.11401 -0.05125,-0.22814 -0.07496,-0.34238c-0.26666,-0.26686 -0.51908,-0.52801 -0.75443,-0.76384c-1.7743,-1.77784 -5.0844,-4.40928 -7.97994,-4.61563c0.0999,1.09269 0.19997,2.18653 0.31039,3.27781c0.2801,-0.04353 0.57735,-0.06474 0.89432,-0.06047c0.87628,0.01183 1.37613,1.08564 2.055,1.63984c1.30112,1.06218 2.78551,1.94739 3.86163,3.23701c0.06426,0.07701 3.15364,4.74168 3.46329,5.02943c0.27382,0.25445 0.56423,0.49046 0.86895,0.70894c-0.04038,-0.17969 -0.08241,-0.35931 -0.12628,-0.53886zM80.13634,347.9113c-0.29375,-1.69766 -0.93671,-3.32089 -1.25293,-5.01451c-0.10457,-0.56007 -0.20056,-1.12291 -0.28938,-1.68801c-0.66982,0.82974 -1.31306,1.68441 -2.02816,2.47389c-0.56852,0.62766 -1.14736,1.2601 -1.73809,1.8885c0.23523,1.10976 0.45223,2.21407 0.6502,3.30426c0.27128,1.49385 0.47732,2.93569 0.71187,4.36135c0.56166,-0.49931 1.14265,-0.96489 1.82146,-1.27052c0.77486,-0.34887 1.64955,-0.66098 2.57867,-0.91415c-0.14309,-1.01616 -0.2645,-2.04764 -0.45366,-3.14081zM72.40084,349.43424c-0.07126,-0.39241 -0.145,-0.78691 -0.22118,-1.18302c-1.4664,1.39579 -3.00995,2.70022 -4.65068,3.80154c0,0 -0.23304,0.15536 -0.56761,0.23595c0.43595,2.49866 0.86969,4.99719 1.28639,7.49845c0.88907,-1.60254 2.12967,-2.95104 3.84667,-4.11075c0.37162,-0.251 0.84351,-0.29426 1.28576,-0.40213c-0.35564,-1.91259 -0.61523,-3.83494 -0.97935,-5.84004zM68.93106,335.60874c0,0 -0.4945,-1.48349 0.98899,-1.97799c0.95725,-0.31909 1.50271,0.18541 1.76924,0.58348c1.54036,-1.9898 3.00225,-3.60898 5.65089,-4.54375c-0.10121,-1.01433 -0.21009,-2.02488 -0.33459,-3.02878c-1.29207,0.47749 -2.30978,1.54847 -3.48586,2.28194c-1.68825,1.05289 -3.22849,1.73074 -4.37163,3.44823c-1.84731,2.77545 -2.25939,6.11263 -4.08876,8.8127c0.06291,0.38441 0.12628,0.76871 0.19007,1.15292c1.46151,-1.66684 2.80094,-3.46237 4.17544,-5.20215c-0.16054,-0.51414 -0.32515,-1.02338 -0.49379,-1.5266zM88.28789,327.36205c0,0 -0.17093,-0.68374 0.17573,-1.24792c-2.89265,-0.28556 -5.61995,-0.54544 -8.41305,-0.1646c0.03642,0.12833 0.0471,0.21381 0.0471,0.21381c0.12238,0.97899 0.22923,1.96472 0.32823,2.95435c3.03127,0.08576 6.14713,1.95419 8.52173,3.71001c-0.10148,-1.83661 -0.20146,-3.67006 -0.65973,-5.46565zM113.26106,360.13409l0.02317,-0.98281c-0.36381,-2.0899 -0.67837,-4.20333 -1.02193,-6.31025c-0.71726,1.19272 -1.49463,2.3362 -2.36549,3.38956c-0.27256,0.32495 -0.54334,0.6517 -0.81535,0.9742c0.5702,2.40483 1.13918,4.80895 1.66424,7.22011c0.08953,-0.27675 0.14871,-0.58693 0.30057,-0.81552c0.58939,-0.88716 1.2779,-1.70432 1.91685,-2.55648c0.12326,-0.15408 0.24634,-0.3083 0.36925,-0.46267c-0.0713,-0.25656 -0.0713,-0.45615 -0.0713,-0.45615zM105.73482,341.10699c0.27122,1.81451 0.59387,3.61919 0.95052,5.4172c1.22253,-0.9434 2.37977,-1.91888 3.50998,-2.93247c-0.6318,-1.99259 -1.32032,-4.03786 -1.67847,-6.04626c-0.40808,0.07667 -0.85725,0.17243 -1.35968,0.31315c-0.60241,0.16872 -1.15715,0.37076 -1.69072,0.5799c0.10629,1.16883 0.20738,2.26053 0.26836,2.66848zM72.88227,337.78723c0.39018,1.34064 0.7554,2.70398 1.09422,4.07373c0.77909,-0.8818 1.54029,-1.76695 2.29009,-2.633c0.60482,-0.69859 1.16556,-1.43737 1.79683,-2.07476c-0.15365,-1.39991 -0.2848,-2.80598 -0.41428,-4.21071c-2.23018,1.05907 -3.21988,2.77663 -4.76687,4.84475zM65.90525,346.2134c0.162,0.94259 0.32539,1.88484 0.48938,2.82689c1.7961,-1.26615 3.45751,-2.78644 5.02899,-4.40551c-0.28677,-1.26796 -0.59745,-2.53791 -0.9315,-3.79509c-1.45712,1.85855 -2.93131,3.70704 -4.58687,5.37371zM110.8161,347.57929c-1.05914,0.89016 -2.23722,1.62253 -3.417,2.35215c0.25152,1.14696 0.51247,2.29199 0.77827,3.43594c1.23109,-1.6417 2.25296,-3.50049 3.20015,-5.38663c-0.05213,-0.24909 -0.10556,-0.49776 -0.16039,-0.74595c-0.13307,0.11672 -0.26674,0.23162 -0.40103,0.34449zM105.10644,334.8461c0.01516,0.09107 0.03264,0.22307 0.05193,0.38738c0.34051,-0.1355 0.69456,-0.25991 1.07115,-0.36163c0.6692,-0.18075 1.39417,-0.19566 2.06255,-0.31094c0.03685,-0.38878 0.11445,-0.7739 0.20599,-1.15777c-0.01189,0.00152 -0.02382,0.00294 -0.03579,0.00426c-1.31205,0.14504 -2.44527,-0.99529 -3.66791,-1.49294c-0.0476,-0.02277 -0.09522,-0.04565 -0.14289,-0.06865c0.11748,1.00417 0.28918,2.00461 0.45496,3.00028z" fill="#ffffff" stroke-width="0.5"/><path d="M68.56009,332.55481c-0.28825,-0.21595 -0.52856,-0.57603 -0.52856,-1.17642c0,-1.5 1.5,-1.5 1.5,-1.5l2.13754,1.79418c-0.198,0.89332 -0.198,1.85167 0,2.74499c0,0 0.29418,1.47087 -1.17669,1.76505c-1.47087,0.29417 -1.76505,-1.1767 -1.76505,-1.1767c-0.14828,-0.80218 -0.20402,-1.62979 -0.16724,-2.45109z" fill="#ffffff" stroke-width="0.5"/><path d="M77.65711,362.7545c0.3604,0.19427 0.70776,0.56874 0.70776,1.29057c0,1.5 -1.5,1.5 -1.5,1.5l-1.72605,-0.94291c-0.77631,-2.0165 -0.77395,-3.42609 -0.77395,-5.55709c0,0 0,-1.5 1.5,-1.5c1.5,0 1.5,1.5 1.5,1.5c0,1.47314 -0.08655,2.46655 0.29224,3.70943z" fill="#ffffff" stroke-width="0.5"/><path d="M83.53154,361.21173c-1.5,0 -1.5,-1.5 -1.5,-1.5l0.02913,-1.03916c-0.24665,-1.23397 -0.46839,-2.473 -0.67539,-3.71424c0,0 -0.2466,-1.47959 1.23299,-1.72619c1.47959,-0.2466 1.72619,1.23299 1.72619,1.23299c0.20146,1.20947 0.41735,2.41679 0.65795,3.61909l0.02912,1.62751c0,0 0,1.5 -1.5,1.5z" fill="#ffffff" stroke-width="0.5"/><path d="M95.86487,363.21173c-1.5,0 -1.5,-1.5 -1.5,-1.5c0,-1.11111 0,-3.55555 0,-4.66666c0,0 0,-1.5 1.5,-1.5c1.5,0 1.5,1.5 1.5,1.5c0,1.11111 0,2.22222 0,3.33333v1.33334c0,0 0,1.5 -1.5,1.5z" fill="#ffffff" stroke-width="0.5"/><g><path d="M61.1982,356.71173v-21.33334h61.66666v21.33334z" fill="#ffffff" stroke-width="0"/><text transform="translate(62.53154,353.71173) scale(0.5,0.5)" font-size="40" xml:space="preserve" fill="#000000" fill-rule="nonzero" stroke="none" stroke-width="1" stroke-linecap="butt" stroke-linejoin="miter" stroke-miterlimit="10" stroke-dasharray="" stroke-dashoffset="0" font-family="Sans Serif" font-weight="normal" text-anchor="start" style="mix-blend-mode: normal"><tspan x="0" dy="0">Finish</tspan></text></g></g></g></svg>