<svg version="1.1" xmlns="http://www.w3.org/2000/svg" xmlns:xlink="http://www.w3.org/1999/xlink" width="76.39597" height="84.63106" viewBox="0,0,76.39597,84.63106"><defs><linearGradient x1="289.14597" y1="184.04124" x2="289.14597" y2="211.79124" gradientUnits="userSpaceOnUse" id="color-1"><stop offset="0" stop-color="#ff6300"/><stop offset="1" stop-color="#ffffff"/></linearGradient><linearGradient x1="289.65986" y1="189.28291" x2="289.65986" y2="206.34403" gradientUnits="userSpaceOnUse" id="color-2"><stop offset="0" stop-color="#ff6200"/><stop offset="1" stop-color="#8e4500"/></linearGradient><linearGradient x1="242.83333" y1="129.16018" x2="242.83333" y2="157.57684" gradientUnits="userSpaceOnUse" id="color-3"><stop offset="0" stop-color="#00d1ff"/><stop offset="1" stop-color="#ffffff"/></linearGradient><linearGradient x1="243.35956" y1="134.52777" x2="243.35956" y2="151.99875" gradientUnits="userSpaceOnUse" id="color-4"><stop offset="0" stop-color="#11d4ff"/><stop offset="1" stop-color="#00738f"/></linearGradient></defs><g transform="translate(-227.625,-128.16018)"><g data-paper-data="{&quot;isPaintingLayer&quot;:true}" fill-rule="nonzero" stroke="#000000" stroke-linecap="butt" stroke-linejoin="miter" stroke-miterlimit="10" stroke-dasharray="" stroke-dashoffset="0" style="mix-blend-mode: normal"><path d="M275.27097,197.91624c0,-7.66295 6.21205,-13.875 13.875,-13.875c7.66295,0 13.875,6.21205 13.875,13.875c0,7.66295 -6.21205,13.875 -13.875,13.875c-7.66295,0 -13.875,-6.21205 -13.875,-13.875z" fill="url(#color-1)" stroke-width="2"/><path d="M281.1293,197.81347c0,-4.71129 3.81926,-8.53056 8.53056,-8.53056c4.7113,0 8.53056,3.81926 8.53056,8.53056c0,4.71129 -3.81926,8.53056 -8.53056,8.53056c-4.7113,0 -8.53056,-3.81926 -8.53056,-8.53056z" fill="url(#color-2)" stroke-width="2.5"/><path d="M228.625,143.36851c0,-7.84705 6.36128,-14.20833 14.20833,-14.20833c7.84704,0 14.20833,6.36128 14.20833,14.20833c0,7.84705 -6.36129,14.20833 -14.20833,14.20833c-7.84705,0 -14.20833,-6.36128 -14.20833,-14.20833z" fill="url(#color-3)" stroke-width="2"/><path d="M234.62407,143.26326c0,-4.82448 3.91102,-8.73549 8.73549,-8.73549c4.82448,0 8.73549,3.91102 8.73549,8.73549c0,4.82448 -3.91101,8.73549 -8.73549,8.73549c-4.82448,0 -8.73549,-3.91102 -8.73549,-8.73549z" fill="url(#color-4)" stroke-width="2.5"/></g></g></svg>