<svg version="1.1" xmlns="http://www.w3.org/2000/svg" xmlns:xlink="http://www.w3.org/1999/xlink" width="722.72072" height="485.48348" viewBox="0,0,722.72072,485.48348"><defs><linearGradient x1="-24.33834" y1="233.65293" x2="696.38238" y2="233.65293" gradientUnits="userSpaceOnUse" id="color-1"><stop offset="0" stop-color="#00bdb1"/><stop offset="1" stop-color="#0079b1"/></linearGradient><linearGradient x1="18.377" y1="68.68392" x2="249.60823" y2="68.68392" gradientUnits="userSpaceOnUse" id="color-2"><stop offset="0" stop-color="#1e1e1e" stop-opacity="0.7098"/><stop offset="1" stop-color="#616161" stop-opacity="0.6549"/></linearGradient></defs><g transform="translate(25.33834,9.08881)"><g data-paper-data="{&quot;isPaintingLayer&quot;:true}" fill-rule="nonzero" stroke-linecap="butt" stroke-linejoin="miter" stroke-miterlimit="10" stroke-dasharray="" stroke-dashoffset="0" style="mix-blend-mode: normal"><path d="M-24.33834,475.39467v-483.48348h720.72072v483.48348z" fill="url(#color-1)" stroke="#000000" stroke-width="2"/><path d="M65.83595,360.14184v-314.75453h46.49783v314.75453z" fill-opacity="0.36471" fill="#00ffee" stroke="none" stroke-width="0"/><path d="M257.78853,364.91084c0,0 -226.52247,-125.71277 -186.83428,-180.00129c36.79399,-50.32961 192.19941,-133.56098 192.19941,-133.56098l49.47846,1.19225c0,0 -193.84508,100.76665 -194.81885,151.69422c-1.01186,52.92054 188.85758,160.07968 188.85758,160.07968z" fill-opacity="0.36471" fill="#00ffee" stroke="none" stroke-width="0"/><path d="M462.85587,242.10889c0,0 -226.52247,-79.10823 -186.83428,-113.27078c36.79399,-31.67129 192.19941,-84.04693 192.19941,-84.04693l49.47846,0.75025c0,0 -193.84508,63.4102 -194.81885,95.45777c-1.01186,33.30171 188.85758,100.73455 188.85758,100.73455z" fill-opacity="0.36471" fill="#00ffee" stroke="none" stroke-width="0"/><path d="M351.8322,172.95827c0,0 10.26711,3.40174 27.00994,12.13393c9.98942,5.20997 18.15167,11.85255 33.97918,17.87902c30.62257,11.65984 68.79437,24.32867 93.44394,37.30546c30.24792,15.92404 45.82822,34.39475 32.40121,45.95236c-36.79399,31.67129 -186.83428,79.87405 -186.83428,79.87405l-41.72882,-1.94251c0,0 180.73032,-58.04506 181.70408,-90.09264c0.83551,-27.49772 -130.74905,-69.56816 -171.76287,-91.90666c-8.67858,-4.72686 -9.9412,-11.80852 -9.9412,-11.80852z" data-paper-data="{&quot;index&quot;:null}" fill-opacity="0.36471" fill="#00ffee" stroke="none" stroke-width="0"/><path d="M18.377,127.774v-118.18018h231.23123v118.18018z" fill="url(#color-2)" stroke="#ffffff" stroke-width="2"/><text transform="translate(23.90053,33.55418) scale(0.48447,0.48447)" font-size="40" xml:space="preserve" fill="#ffffff" fill-rule="nonzero" stroke="#ffffff" stroke-width="1" stroke-linecap="butt" stroke-linejoin="miter" stroke-miterlimit="10" stroke-dasharray="" stroke-dashoffset="0" font-family="&quot;OpenSans-Medium&quot;, Sans Serif" font-weight="normal" text-anchor="start" style="mix-blend-mode: normal"><tspan x="0" dy="0">Level 10 - Diamonds?</tspan></text><text transform="translate(24.90052,58.562) scale(0.3647,0.3647)" font-size="40" xml:space="preserve" fill-opacity="0.1451" fill="#00ffc3" fill-rule="nonzero" stroke="#ffffff" stroke-width="1" stroke-linecap="butt" stroke-linejoin="miter" stroke-miterlimit="10" stroke-dasharray="" stroke-dashoffset="0" font-family="&quot;OpenSans-Light&quot;, Sans Serif" font-weight="normal" text-anchor="start" style="mix-blend-mode: normal"><tspan x="0" dy="0">Ignore the self promotion lol.</tspan><tspan x="0" dy="48px">Anyways, moving objects!</tspan></text></g></g></svg>