<svg version="1.1" xmlns="http://www.w3.org/2000/svg" xmlns:xlink="http://www.w3.org/1999/xlink" width="58.75994" height="32.0665" viewBox="0,0,58.75994,32.0665"><g transform="translate(-190.16696,-192.07405)"><g data-paper-data="{&quot;isPaintingLayer&quot;:true}" fill-rule="nonzero" stroke="none" stroke-linecap="butt" stroke-linejoin="miter" stroke-miterlimit="10" stroke-dasharray="" stroke-dashoffset="0" style="mix-blend-mode: normal"><path d="M248.9269,192.19416v7.95787h-7.33201v-7.95787z" fill="#000000" stroke-width="NaN"/><path d="M241.5863,192.07405v7.95787h-7.33201v-7.95787z" fill="#ffffff" stroke-width="NaN"/><path d="M234.26436,192.13386v7.95787h-7.33201v-7.95787z" fill="#000000" stroke-width="NaN"/><path d="M226.92377,192.08601v7.95787h-7.33201v-7.95787z" fill="#ffffff" stroke-width="NaN"/><path d="M248.9269,200.14216v7.95787h-7.33201v-7.95787z" fill="#ffffff" stroke-width="NaN"/><path d="M241.5863,200.02206v7.95787h-7.332v-7.95787z" fill="#000000" stroke-width="NaN"/><path d="M234.26436,200.08186v7.95787h-7.33201v-7.95786z" fill="#ffffff" stroke-width="NaN"/><path d="M226.92377,200.03402v7.95787h-7.33201v-7.95786z" fill="#000000" stroke-width="NaN"/><path d="M248.86033,208.23467v7.95787h-7.33201v-7.95786z" fill="#000000" stroke-width="NaN"/><path d="M241.51973,208.11457v7.95787h-7.332v-7.95787z" fill="#ffffff" stroke-width="NaN"/><path d="M234.19779,208.17438v7.95786h-7.33201v-7.95786z" fill="#000000" stroke-width="NaN"/><path d="M226.8572,208.12653v7.95786h-7.33201v-7.95787z" fill="#ffffff" stroke-width="NaN"/><path d="M248.86033,216.18268v7.95787h-7.332v-7.95787z" fill="#ffffff" stroke-width="NaN"/><path d="M241.51973,216.06257v7.95786h-7.33201v-7.95786z" fill="#000000" stroke-width="NaN"/><path d="M234.19779,216.12238c0,0 0,0.57324 0,1.09479c0,1.30584 0,6.86308 0,6.86308h-7.332v-7.95787z" fill="#ffffff" stroke-width="NaN"/><path d="M226.8572,216.07453v7.95786h-7.33201v-7.95786z" fill="#000000" stroke-width="NaN"/><path d="M219.56866,192.19415v7.95787h-7.33201v-7.95787z" fill="#000000" stroke-width="NaN"/><path d="M212.22806,192.07405v7.95787h-7.33201v-7.95787z" fill="#ffffff" stroke-width="NaN"/><path d="M204.90612,192.13386v7.95786h-7.332v-7.95787z" fill="#000000" stroke-width="NaN"/><path d="M197.56553,192.08601v7.95786h-7.33201v-7.95786z" fill="#ffffff" stroke-width="NaN"/><path d="M219.56866,200.14216v7.95787h-7.332v-7.95787z" fill="#ffffff" stroke-width="NaN"/><path d="M212.22806,200.02206v7.95786h-7.33201v-7.95786z" fill="#000000" stroke-width="NaN"/><path d="M204.90612,200.08186v7.95787h-7.332v-7.95787z" fill="#ffffff" stroke-width="NaN"/><path d="M197.56553,200.03401v7.95787h-7.33201v-7.95787z" fill="#000000" stroke-width="NaN"/><path d="M219.50209,208.23467v7.95786h-7.332v-7.95786z" fill="#000000" stroke-width="NaN"/><path d="M212.16149,208.11457v7.95786h-7.33201v-7.95787z" fill="#ffffff" stroke-width="NaN"/><path d="M204.83956,208.17438v7.95787h-7.33201v-7.95787z" fill="#000000" stroke-width="NaN"/><path d="M197.49896,208.12652v7.95787h-7.332v-7.95787z" fill="#ffffff" stroke-width="NaN"/><path d="M219.50209,216.18267v7.95787h-7.332v-7.95787z" fill="#ffffff" stroke-width="NaN"/><path d="M212.16149,216.06257v7.95787h-7.33201v-7.95787z" fill="#000000" stroke-width="NaN"/><path d="M204.83956,216.12238v7.95787h-7.33201v-7.95787z" fill="#ffffff" stroke-width="NaN"/><path d="M197.49896,216.07453v7.95787h-7.332v-7.95787z" fill="#000000" stroke-width="NaN"/></g></g></svg>