<svg version="1.1" xmlns="http://www.w3.org/2000/svg" xmlns:xlink="http://www.w3.org/1999/xlink" width="250.78904" height="236.11219" viewBox="0,0,250.78904,236.11219"><defs><linearGradient x1="406.39034" y1="152.65609" x2="406.39034" y2="201.38614" gradientUnits="userSpaceOnUse" id="color-1"><stop offset="0" stop-color="#00ffff"/><stop offset="1" stop-color="#0095ff"/></linearGradient><linearGradient x1="297.22132" y1="156.65395" x2="297.22132" y2="207.03587" gradientUnits="userSpaceOnUse" id="color-2"><stop offset="0" stop-color="#00ffff"/><stop offset="1" stop-color="#0095ff"/></linearGradient><linearGradient x1="311.821" y1="138.61522" x2="311.821" y2="155.95982" gradientUnits="userSpaceOnUse" id="color-3"><stop offset="0" stop-color="#00ffff"/><stop offset="1" stop-color="#0095ff"/></linearGradient><linearGradient x1="311.5293" y1="207.88989" x2="311.5293" y2="222.75669" gradientUnits="userSpaceOnUse" id="color-4"><stop offset="0" stop-color="#00ffff"/><stop offset="1" stop-color="#0095ff"/></linearGradient><linearGradient x1="326.27483" y1="98.1445" x2="326.27483" y2="119.61876" gradientUnits="userSpaceOnUse" id="color-5"><stop offset="0" stop-color="#00ffff"/><stop offset="1" stop-color="#0095ff"/></linearGradient><linearGradient x1="455.16479" y1="106.44823" x2="455.16479" y2="127.92249" gradientUnits="userSpaceOnUse" id="color-6"><stop offset="0" stop-color="#00ffff"/><stop offset="1" stop-color="#0095ff"/></linearGradient><linearGradient x1="372.5293" y1="317.38989" x2="372.5293" y2="332.25669" gradientUnits="userSpaceOnUse" id="color-7"><stop offset="0" stop-color="#00ffff"/><stop offset="1" stop-color="#0095ff"/></linearGradient><linearGradient x1="225.39034" y1="271.65609" x2="225.39034" y2="320.38614" gradientUnits="userSpaceOnUse" id="color-8"><stop offset="0" stop-color="#00ffff"/><stop offset="1" stop-color="#0095ff"/></linearGradient></defs><g transform="translate(-216.11288,-97.1445)"><g data-paper-data="{&quot;isPaintingLayer&quot;:true}" fill-rule="nonzero" stroke="#000000" stroke-width="2" stroke-linejoin="miter" stroke-miterlimit="10" stroke-dasharray="" stroke-dashoffset="0" style="mix-blend-mode: normal"><path d="M398.13101,201.38614v-48.73005h16.51866v48.73005z" fill="url(#color-1)" stroke-linecap="butt"/><path d="M288.96199,207.03587v-50.38192h16.51866v50.38192z" fill="url(#color-2)" stroke-linecap="butt"/><path d="M289.10784,155.95982v-17.3446h45.42632v17.3446z" fill="url(#color-3)" stroke-linecap="butt"/><path d="M288.81613,222.75669v-14.8668h45.42632v14.8668z" fill="url(#color-4)" stroke-linecap="butt"/><path d="M315.5377,108.88163c0,-5.92995 4.80718,-10.73713 10.73713,-10.73713c5.92995,0 10.73713,4.80718 10.73713,10.73713c0,5.92995 -4.80718,10.73713 -10.73713,10.73713c-5.92995,0 -10.73713,-4.80718 -10.73713,-10.73713z" fill="url(#color-5)" stroke-linecap="butt"/><path d="M444.42766,117.18536c0,-5.92996 4.80718,-10.73713 10.73713,-10.73713c5.92996,0 10.73713,4.80718 10.73713,10.73713c0,5.92996 -4.80717,10.73713 -10.73713,10.73713c-5.92996,0 -10.73713,-4.80717 -10.73713,-10.73713z" fill="url(#color-6)" stroke-linecap="butt"/><path d="M289.22455,138.51362l4.37301,4.37302" fill="none" stroke-linecap="round"/><path d="M288.94917,155.7997l4.37302,-4.37301" data-paper-data="{&quot;index&quot;:null}" fill="none" stroke-linecap="round"/><path d="M334.4169,139.21002l-4.37302,4.37302" data-paper-data="{&quot;index&quot;:null}" fill="none" stroke-linecap="round"/><path d="M334.69229,156.49611l-4.37302,-4.37302" data-paper-data="{&quot;index&quot;:null}" fill="none" stroke-linecap="round"/><path d="M293.11168,151.00795v-8.6072h36.65003v8.6072z" fill="none" stroke-linecap="butt"/><g fill="none"><path d="M289.37955,207.36783l4.07621,-4.90708" stroke-linecap="round"/><path d="M305.4924,207.67684l-4.07621,-4.90707" data-paper-data="{&quot;index&quot;:null}" stroke-linecap="round"/><path d="M290.02868,156.6563l4.07621,4.90707" data-paper-data="{&quot;index&quot;:null}" stroke-linecap="round"/><path d="M306.14153,156.34728l-4.07621,4.90707" data-paper-data="{&quot;index&quot;:null}" stroke-linecap="round"/><path d="M301.02586,203.00598h-8.02302v-41.12597h8.02302z" stroke-linecap="butt"/></g><g fill="none"><path d="M398.11288,201.04653l4.07621,-4.71587" stroke-linecap="round"/><path d="M414.22573,201.34351l-4.07621,-4.71587" data-paper-data="{&quot;index&quot;:null}" stroke-linecap="round"/><path d="M398.76202,152.31092l4.07621,4.71587" data-paper-data="{&quot;index&quot;:null}" stroke-linecap="round"/><path d="M414.87487,152.01394l-4.07621,4.71588" data-paper-data="{&quot;index&quot;:null}" stroke-linecap="round"/><path d="M409.7592,196.85464h-8.02301v-39.52353h8.02301z" stroke-linecap="butt"/></g><path d="M289.55187,207.51362l4.27741,3.67195" fill="none" stroke-linecap="round"/><path d="M289.2825,222.02848l4.27741,-3.67195" data-paper-data="{&quot;index&quot;:null}" fill="none" stroke-linecap="round"/><path d="M333.75626,208.09838l-4.27742,3.67195" data-paper-data="{&quot;index&quot;:null}" fill="none" stroke-linecap="round"/><path d="M334.02562,222.61324l-4.27742,-3.67195" data-paper-data="{&quot;index&quot;:null}" fill="none" stroke-linecap="round"/><path d="M293.35401,218.00491v-7.22733h35.84881v7.22733z" fill="none" stroke-linecap="butt"/><path d="M349.81614,332.25669v-14.8668h45.42632v14.8668z" fill="url(#color-7)" stroke-linecap="butt"/><path d="M350.2825,331.52847l4.27741,-3.67195" data-paper-data="{&quot;index&quot;:null}" fill="none" stroke-linecap="round"/><path d="M394.75626,317.59838l-4.27742,3.67195" data-paper-data="{&quot;index&quot;:null}" fill="none" stroke-linecap="round"/><path d="M395.02562,332.11324l-4.27742,-3.67196" data-paper-data="{&quot;index&quot;:null}" fill="none" stroke-linecap="round"/><path d="M354.35401,327.50491v-7.22733h35.84881v7.22733z" fill="none" stroke-linecap="butt"/><path d="M217.13101,320.38614v-48.73005h16.51866v48.73005z" fill="url(#color-8)" stroke-linecap="butt"/><g fill="none"><path d="M217.11288,320.04653l4.07621,-4.71587" stroke-linecap="round"/><path d="M233.22573,320.34351l-4.07621,-4.71587" data-paper-data="{&quot;index&quot;:null}" stroke-linecap="round"/><path d="M217.76202,271.31092l4.07621,4.71587" data-paper-data="{&quot;index&quot;:null}" stroke-linecap="round"/><path d="M233.87487,271.01394l-4.07621,4.71588" data-paper-data="{&quot;index&quot;:null}" stroke-linecap="round"/><path d="M228.75919,315.85464h-8.02301v-39.52354h8.02301z" stroke-linecap="butt"/></g></g></g></svg>