<svg version="1.1" xmlns="http://www.w3.org/2000/svg" xmlns:xlink="http://www.w3.org/1999/xlink" width="720.1021" height="596.52253" viewBox="0,0,720.1021,596.52253"><defs><linearGradient x1="603.96247" y1="-23.70871" x2="603.96247" y2="374.18919" gradientUnits="userSpaceOnUse" id="color-1"><stop offset="0" stop-color="#ff0000" stop-opacity="0"/><stop offset="1" stop-color="#ff0000" stop-opacity="0.24314"/></linearGradient><linearGradient x1="66.92042" y1="-18.6997" x2="66.92042" y2="379.1982" gradientUnits="userSpaceOnUse" id="color-2"><stop offset="0" stop-color="#ff0000" stop-opacity="0"/><stop offset="1" stop-color="#ff0000" stop-opacity="0.19608"/></linearGradient><linearGradient x1="89.44596" y1="101.31231" x2="89.44596" y2="499.21021" gradientUnits="userSpaceOnUse" id="color-3"><stop offset="0" stop-color="#ff0000" stop-opacity="0"/><stop offset="1" stop-color="#ff0000" stop-opacity="0.19608"/></linearGradient><linearGradient x1="45.38289" y1="68.87087" x2="45.38289" y2="466.76877" gradientUnits="userSpaceOnUse" id="color-4"><stop offset="0" stop-color="#ff0000" stop-opacity="0"/><stop offset="1" stop-color="#ff0000" stop-opacity="0.19608"/></linearGradient><linearGradient x1="42.95947" y1="108.91592" x2="42.95947" y2="506.81382" gradientUnits="userSpaceOnUse" id="color-5"><stop offset="0" stop-color="#ff0000" stop-opacity="0"/><stop offset="1" stop-color="#ff0000" stop-opacity="0.19608"/></linearGradient><linearGradient x1="593.92342" y1="61.36937" x2="593.92342" y2="459.26727" gradientUnits="userSpaceOnUse" id="color-6"><stop offset="0" stop-color="#ff0000" stop-opacity="0"/><stop offset="1" stop-color="#ff0000" stop-opacity="0.24314"/></linearGradient><linearGradient x1="583.93243" y1="136.44144" x2="583.93243" y2="534.33934" gradientUnits="userSpaceOnUse" id="color-7"><stop offset="0" stop-color="#ff0000" stop-opacity="0"/><stop offset="1" stop-color="#ff0000" stop-opacity="0.24314"/></linearGradient><linearGradient x1="574.87236" y1="160.96096" x2="574.87236" y2="558.85886" gradientUnits="userSpaceOnUse" id="color-8"><stop offset="0" stop-color="#ff0000" stop-opacity="0"/><stop offset="1" stop-color="#ff0000" stop-opacity="0.24314"/></linearGradient><linearGradient x1="101.92042" y1="30.3003" x2="101.92042" y2="428.1982" gradientUnits="userSpaceOnUse" id="color-9"><stop offset="0" stop-color="#ff0000" stop-opacity="0"/><stop offset="1" stop-color="#ff0000" stop-opacity="0.19608"/></linearGradient><linearGradient x1="124.44596" y1="150.31231" x2="124.44596" y2="548.21021" gradientUnits="userSpaceOnUse" id="color-10"><stop offset="0" stop-color="#ff0000" stop-opacity="0"/><stop offset="1" stop-color="#ff0000" stop-opacity="0.19608"/></linearGradient><linearGradient x1="80.38289" y1="117.87087" x2="80.38289" y2="515.76877" gradientUnits="userSpaceOnUse" id="color-11"><stop offset="0" stop-color="#ff0000" stop-opacity="0"/><stop offset="1" stop-color="#ff0000" stop-opacity="0.19608"/></linearGradient><linearGradient x1="77.95946" y1="157.91592" x2="77.95946" y2="555.81382" gradientUnits="userSpaceOnUse" id="color-12"><stop offset="0" stop-color="#ff0000" stop-opacity="0"/><stop offset="1" stop-color="#ff0000" stop-opacity="0.19608"/></linearGradient><linearGradient x1="6.92042" y1="47.3003" x2="6.92042" y2="445.1982" gradientUnits="userSpaceOnUse" id="color-13"><stop offset="0" stop-color="#ff0000" stop-opacity="0"/><stop offset="1" stop-color="#ff0000" stop-opacity="0.19608"/></linearGradient><linearGradient x1="29.44595" y1="167.31231" x2="29.44595" y2="565.21021" gradientUnits="userSpaceOnUse" id="color-14"><stop offset="0" stop-color="#ff0000" stop-opacity="0"/><stop offset="1" stop-color="#ff0000" stop-opacity="0.19608"/></linearGradient><linearGradient x1="-14.61711" y1="134.87087" x2="-14.61711" y2="532.76877" gradientUnits="userSpaceOnUse" id="color-15"><stop offset="0" stop-color="#ff0000" stop-opacity="0"/><stop offset="1" stop-color="#ff0000" stop-opacity="0.19608"/></linearGradient><linearGradient x1="-17.04054" y1="174.91592" x2="-17.04054" y2="572.81382" gradientUnits="userSpaceOnUse" id="color-16"><stop offset="0" stop-color="#ff0000" stop-opacity="0"/><stop offset="1" stop-color="#ff0000" stop-opacity="0.19608"/></linearGradient></defs><g transform="translate(66.59009,23.70871)"><g data-paper-data="{&quot;isPaintingLayer&quot;:true}" fill-rule="nonzero" stroke="none" stroke-width="0" stroke-linecap="butt" stroke-linejoin="miter" stroke-miterlimit="10" stroke-dasharray="" stroke-dashoffset="0" style="mix-blend-mode: normal"><path d="M554.41292,374.18919v-397.8979h99.0991v397.8979z" fill="url(#color-1)"/><path d="M17.37088,379.1982v-397.8979h99.0991v397.8979z" fill="url(#color-2)"/><path d="M39.89641,499.21021v-397.8979h99.0991v397.8979z" fill="url(#color-3)"/><path d="M-4.16667,466.76877v-397.8979h99.0991v397.8979z" fill="url(#color-4)"/><path d="M-6.59008,506.81382v-397.8979h99.0991v397.8979z" fill="url(#color-5)"/><path d="M544.37389,459.26727v-397.8979h99.0991v397.8979z" fill="url(#color-6)"/><path d="M534.38289,534.33934v-397.8979h99.0991v397.8979z" fill="url(#color-7)"/><path d="M525.32283,558.85886v-397.8979h99.0991v397.8979z" fill="url(#color-8)"/><path d="M52.37087,428.1982v-397.8979h99.0991v397.8979z" fill="url(#color-9)"/><path d="M74.89641,548.21021v-397.8979h99.0991v397.8979z" fill="url(#color-10)"/><path d="M30.83333,515.76877v-397.8979h99.0991v397.8979z" fill="url(#color-11)"/><path d="M28.40991,555.81382v-397.8979h99.0991v397.8979z" fill="url(#color-12)"/><path d="M-42.62913,445.1982v-397.8979h99.0991v397.8979z" fill="url(#color-13)"/><path d="M-20.1036,565.21021v-397.8979h99.0991v397.8979z" fill="url(#color-14)"/><path d="M-64.16667,532.76877v-397.8979h99.0991v397.8979z" fill="url(#color-15)"/><path d="M-66.59009,572.81382v-397.8979h99.0991v397.8979z" fill="url(#color-16)"/></g></g></svg>