<svg version="1.1" xmlns="http://www.w3.org/2000/svg" xmlns:xlink="http://www.w3.org/1999/xlink" width="977.97597" height="695.6937" viewBox="0,0,977.97597,695.6937"><g transform="translate(160.3191,127.8635)"><g data-paper-data="{&quot;isPaintingLayer&quot;:true}" fill-rule="nonzero" stroke-width="2" stroke-linejoin="miter" stroke-miterlimit="10" stroke-dasharray="" stroke-dashoffset="0" style="mix-blend-mode: normal"><path d="M46.38658,388.15156v-418.91892h43.54354v418.91892z" fill="#000000" stroke="#000000" stroke-linecap="butt"/><path d="M-55.71552,476.74018v-570.57057h136.63664v570.57057z" fill="#000000" stroke="#000000" stroke-linecap="butt"/><path d="M-108.26805,-2.23888v-124.62462h833.33333v124.62462z" fill="#000000" stroke="#000000" stroke-linecap="butt"/><path d="M553.89411,461.72514v-534.53453h142.64264v534.53453z" fill="#000000" stroke="#000000" stroke-linecap="butt"/><path d="M-159.3191,566.83021v-216.21622h944.44444v216.21622z" fill="#000000" stroke="#000000" stroke-linecap="butt"/><path d="M-106.76655,12.77614v-136.63664h923.42342v136.63664z" fill="#000000" stroke="#000000" stroke-linecap="butt"/><path d="M315.50001,154.25002l-6.33334,-9.83334l16.5,-0.16666z" fill="#ff0000" stroke="#ff0000" stroke-linecap="round"/><path d="M335.75,154.25002l-6.33333,-9.83334l16.5,-0.16666z" fill="none" stroke="#ff0000" stroke-linecap="round"/><path d="M300.70881,142.52301v-9.25h46.58333v9.25z" fill="#ff0000" stroke="#ff0000" stroke-linecap="butt"/><path d="M429.00001,133.10634l-16.5,-0.16666l6.33334,-9.83334z" data-paper-data="{&quot;index&quot;:null}" fill="none" stroke="#ff0000" stroke-linecap="round"/><path d="M449.25001,133.10634l-16.5,-0.16666l6.33333,-9.83334z" data-paper-data="{&quot;index&quot;:null}" fill="none" stroke="#ff0000" stroke-linecap="round"/><path d="M469.50001,133.35634l-16.5,-0.16666l6.33333,-9.83334z" data-paper-data="{&quot;index&quot;:null}" fill="none" stroke="#ff0000" stroke-linecap="round"/><path d="M471.04213,135.58333v9.25h-59.25v-9.25z" data-paper-data="{&quot;index&quot;:null}" fill="#ff0000" stroke="#ff0000" stroke-linecap="butt"/><path d="M486.48071,258.01442l0.34649,16.4972l-10.02552,-6.02451z" data-paper-data="{&quot;index&quot;:null}" fill="none" stroke="#ff0000" stroke-linecap="round"/><path d="M485.85104,237.77422l0.34649,16.4972l-10.02552,-6.0245z" data-paper-data="{&quot;index&quot;:null}" fill="none" stroke="#ff0000" stroke-linecap="round"/><path d="M485.47124,217.52621l0.34649,16.4972l-10.02552,-6.0245z" data-paper-data="{&quot;index&quot;:null}" fill="none" stroke="#ff0000" stroke-linecap="round"/><path d="M487.6492,215.9156l9.24553,-0.28763l1.84237,59.22135l-9.24553,0.28763z" data-paper-data="{&quot;index&quot;:null}" fill="#ff0000" stroke="#ff0000" stroke-linecap="butt"/><path d="M297.31652,132.93777l9.25038,0.02294l-0.38247,63.89754l-9.25038,-0.02294z" fill="#ff0000" stroke="#ff0000" stroke-linecap="butt"/></g></g></svg>