<svg version="1.1" xmlns="http://www.w3.org/2000/svg" xmlns:xlink="http://www.w3.org/1999/xlink" width="779.27494" height="539.04121" viewBox="0,0,779.27494,539.04121"><defs><linearGradient x1="325.54523" y1="-45.97594" x2="325.54523" y2="443.99404" gradientUnits="userSpaceOnUse" id="color-1"><stop offset="0" stop-color="#3a3a3a"/><stop offset="1" stop-color="#000000"/></linearGradient><linearGradient x1="270.77344" y1="127.62894" x2="270.77344" y2="146.62894" gradientUnits="userSpaceOnUse" id="color-2"><stop offset="0" stop-color="#b56900"/><stop offset="1" stop-color="#480000"/></linearGradient><linearGradient x1="211.27344" y1="244.62895" x2="211.27344" y2="260.62892" gradientUnits="userSpaceOnUse" id="color-3"><stop offset="0" stop-color="#b56900"/><stop offset="1" stop-color="#480000"/></linearGradient><linearGradient x1="563.27344" y1="332.62892" x2="563.27344" y2="350.62895" gradientUnits="userSpaceOnUse" id="color-4"><stop offset="0" stop-color="#b56900"/><stop offset="1" stop-color="#480000"/></linearGradient><linearGradient x1="61.74072" y1="160.99955" x2="61.74072" y2="199.64221" gradientUnits="userSpaceOnUse" id="color-5"><stop offset="0" stop-color="#f0ff00"/><stop offset="1" stop-color="#4a4400"/></linearGradient><linearGradient x1="36.78152" y1="170.78067" x2="36.78152" y2="192.67181" gradientUnits="userSpaceOnUse" id="color-6"><stop offset="0" stop-color="#f0ff00"/><stop offset="1" stop-color="#4a4400"/></linearGradient><linearGradient x1="49.8136" y1="184.86343" x2="49.8136" y2="222.15801" gradientUnits="userSpaceOnUse" id="color-7"><stop offset="0" stop-color="#ff6200"/><stop offset="1" stop-color="#490000"/></linearGradient><linearGradient x1="34.34483" y1="223.85324" x2="34.34483" y2="239.9577" gradientUnits="userSpaceOnUse" id="color-8"><stop offset="0" stop-color="#ff6200"/><stop offset="1" stop-color="#490000"/></linearGradient><linearGradient x1="69.73231" y1="223.4294" x2="69.73231" y2="239.9577" gradientUnits="userSpaceOnUse" id="color-9"><stop offset="0" stop-color="#ff6200"/><stop offset="1" stop-color="#490000"/></linearGradient><linearGradient x1="270.62446" y1="71.99955" x2="270.62446" y2="94.07673" gradientUnits="userSpaceOnUse" id="color-10"><stop offset="0" stop-color="#f0ff00"/><stop offset="1" stop-color="#4a4400"/></linearGradient><linearGradient x1="284.88406" y1="77.58767" x2="284.88406" y2="90.09443" gradientUnits="userSpaceOnUse" id="color-11"><stop offset="0" stop-color="#f0ff00"/><stop offset="1" stop-color="#4a4400"/></linearGradient><linearGradient x1="277.43862" y1="85.63337" x2="277.43862" y2="106.94039" gradientUnits="userSpaceOnUse" id="color-12"><stop offset="0" stop-color="#ff6200"/><stop offset="1" stop-color="#490000"/></linearGradient><linearGradient x1="286.27618" y1="107.90889" x2="286.27618" y2="117.10963" gradientUnits="userSpaceOnUse" id="color-13"><stop offset="0" stop-color="#ff6200"/><stop offset="1" stop-color="#490000"/></linearGradient><linearGradient x1="266.05873" y1="107.66675" x2="266.05873" y2="117.10963" gradientUnits="userSpaceOnUse" id="color-14"><stop offset="0" stop-color="#ff6200"/><stop offset="1" stop-color="#490000"/></linearGradient><linearGradient x1="586.28557" y1="214.99956" x2="586.28557" y2="268.36704" gradientUnits="userSpaceOnUse" id="color-15"><stop offset="0" stop-color="#f0ff00"/><stop offset="1" stop-color="#4a4400"/></linearGradient><linearGradient x1="551.81562" y1="228.5078" x2="551.81562" y2="258.7406" gradientUnits="userSpaceOnUse" id="color-16"><stop offset="0" stop-color="#f0ff00"/><stop offset="1" stop-color="#4a4400"/></linearGradient><linearGradient x1="569.8136" y1="247.9568" x2="569.8136" y2="299.46257" gradientUnits="userSpaceOnUse" id="color-17"><stop offset="0" stop-color="#ff6200"/><stop offset="1" stop-color="#490000"/></linearGradient><linearGradient x1="548.45042" y1="301.80373" x2="548.45042" y2="324.04483" gradientUnits="userSpaceOnUse" id="color-18"><stop offset="0" stop-color="#ff6200"/><stop offset="1" stop-color="#490000"/></linearGradient><linearGradient x1="597.32237" y1="301.21842" x2="597.32237" y2="324.04483" gradientUnits="userSpaceOnUse" id="color-19"><stop offset="0" stop-color="#ff6200"/><stop offset="1" stop-color="#490000"/></linearGradient><linearGradient x1="161.77344" y1="55.62895" x2="161.77344" y2="81.72895" gradientUnits="userSpaceOnUse" id="color-20"><stop offset="0" stop-color="#b56900"/><stop offset="1" stop-color="#480000"/></linearGradient><linearGradient x1="240.79746" y1="5.99954" x2="240.79746" y2="25.38661" gradientUnits="userSpaceOnUse" id="color-21"><stop offset="0" stop-color="#f0ff00"/><stop offset="1" stop-color="#4a4400"/></linearGradient><linearGradient x1="228.2754" y1="10.90675" x2="228.2754" y2="21.88956" gradientUnits="userSpaceOnUse" id="color-22"><stop offset="0" stop-color="#f0ff00"/><stop offset="1" stop-color="#4a4400"/></linearGradient><linearGradient x1="234.81361" y1="17.97208" x2="234.81361" y2="36.68282" gradientUnits="userSpaceOnUse" id="color-23"><stop offset="0" stop-color="#ff6200"/><stop offset="1" stop-color="#490000"/></linearGradient><linearGradient x1="227.05291" y1="37.53331" x2="227.05291" y2="45.61293" gradientUnits="userSpaceOnUse" id="color-24"><stop offset="0" stop-color="#ff6200"/><stop offset="1" stop-color="#490000"/></linearGradient><linearGradient x1="244.80685" y1="37.32067" x2="244.80685" y2="45.61293" gradientUnits="userSpaceOnUse" id="color-25"><stop offset="0" stop-color="#ff6200"/><stop offset="1" stop-color="#490000"/></linearGradient><linearGradient x1="23.377" y1="83.68391" x2="254.60823" y2="83.68391" gradientUnits="userSpaceOnUse" id="color-26"><stop offset="0" stop-color="#1e1e1e" stop-opacity="0.7098"/><stop offset="1" stop-color="#616161" stop-opacity="0.6549"/></linearGradient></defs><g transform="translate(41.5015,45.97594)"><g data-paper-data="{&quot;isPaintingLayer&quot;:true}" fill-rule="nonzero" stroke-linejoin="miter" stroke-miterlimit="10" stroke-dasharray="" stroke-dashoffset="0" style="mix-blend-mode: normal"><path d="M-41.5015,443.99404v-489.96997h734.09345v489.96997z" fill="url(#color-1)" stroke="none" stroke-width="2" stroke-linecap="butt"/><g fill="none" stroke="#4e0600" stroke-width="2.5" stroke-linecap="round"><path d="M505.37639,394.10493l112.5,17.29431"/><path d="M505.37639,411.63942l112.5,-17.05411"/><path d="M503.87639,375.84982l112.5,17.29431"/><path d="M503.87639,393.38433l112.5,-17.05411"/><path d="M503.37639,358.19521l112.5,17.29431"/><path d="M503.37639,375.72971l112.5,-17.05411"/><path d="M505.63882,442.78412l-2,-102.08448l111.23757,13.41219"/><path d="M503.37639,354.95252l111.76243,-14.37298l2,102.08448"/></g><g fill="none" stroke="#4e0600" stroke-width="2.5" stroke-linecap="round"><path d="M279.65567,303.21218l112.5,52.61048"/><path d="M279.65567,356.55337l112.5,-51.87977"/><path d="M278.15567,247.67893l112.5,52.61048"/><path d="M278.15567,301.02009l112.5,-51.87977"/><path d="M277.65567,193.97238l112.5,52.61047"/><path d="M390.15567,195.43379l-112.5,51.87977"/><path d="M279.9181,451.29763l-2,-310.54794l111.23757,40.80078"/><path d="M277.65567,184.10792l111.76243,-43.72359l2,310.54793"/></g><path d="M104.986,289.15313l112.5,72" fill="none" stroke="#4e0600" stroke-width="2.5" stroke-linecap="round"/><path d="M104.986,362.15314l112.5,-71" fill="none" stroke="#4e0600" stroke-width="2.5" stroke-linecap="round"/><path d="M215.986,285.15314l-112.5,-72" fill="none" stroke="#4e0600" stroke-width="2.5" stroke-linecap="round"/><path d="M103.486,286.15313l112.5,-71" fill="none" stroke="#4e0600" stroke-width="2.5" stroke-linecap="round"/><path d="M102.986,139.65312l112.5,72" fill="none" stroke="#4e0600" stroke-width="2.5" stroke-linecap="round"/><path d="M102.986,212.65313l112.5,-71" fill="none" stroke="#4e0600" stroke-width="2.5" stroke-linecap="round"/><path d="M105.24843,491.81527l-2,-425l111.23757,55.83787" fill="none" stroke="#4e0600" stroke-width="2.5" stroke-linecap="round"/><path d="M102.98599,126.15314l111.76244,-59.83787l2,425" fill="none" stroke="#4e0600" stroke-width="2.5" stroke-linecap="round"/><path d="M3.77344,146.62894v-19h534v19z" fill="url(#color-2)" stroke="#3d3d3d" stroke-width="2" stroke-linecap="butt"/><path d="M-19.22656,260.62892v-16h461v16z" fill="url(#color-3)" stroke="#3d3d3d" stroke-width="2" stroke-linecap="butt"/><path d="M389.77344,350.62895v-18h347v18z" fill="url(#color-4)" stroke="#3d3d3d" stroke-width="2" stroke-linecap="butt"/><path d="M2.77344,121.62894l530,-3" fill="none" stroke="#878787" stroke-width="5" stroke-linecap="round"/><path d="M-19.22656,238.62895l460,1" fill="none" stroke="#878787" stroke-width="5" stroke-linecap="round"/><path d="M389.77344,321.62892l303,2" fill="none" stroke="#878787" stroke-width="5" stroke-linecap="round"/><path d="M44.32298,199.64221v-38.64264h34.83548v38.64264z" fill="url(#color-5)" stroke="none" stroke-width="0" stroke-linecap="butt"/><path d="M22.31432,192.67181v-21.89116h28.93439v21.89116z" fill="url(#color-6)" stroke="none" stroke-width="0" stroke-linecap="butt"/><path d="M26.71638,222.15801l-11.01885,-37.29459h68.23215l-8.47604,37.29459z" fill="url(#color-7)" stroke="#000000" stroke-width="2" stroke-linecap="round"/><path d="M26.29259,231.90547c0,-4.44713 3.60511,-8.05224 8.05224,-8.05224c4.44713,0 8.05224,3.60511 8.05224,8.05224c0,4.44713 -3.60511,8.05224 -8.05224,8.05224c-4.44713,0 -8.05224,-3.60511 -8.05224,-8.05224z" fill="url(#color-8)" stroke="#000000" stroke-width="1" stroke-linecap="butt"/><path d="M61.46817,231.69355c0,-4.56415 3.69999,-8.26414 8.26414,-8.26414c4.56415,0 8.26414,3.69999 8.26414,8.26414c0,4.56415 -3.69999,8.26414 -8.26414,8.26414c-4.56415,0 -8.26414,-3.69999 -8.26414,-8.26414z" fill="url(#color-9)" stroke="#000000" stroke-width="1" stroke-linecap="butt"/><path d="M260.67342,94.07673v-22.07718h19.90208v22.07718z" data-paper-data="{&quot;index&quot;:null}" fill="url(#color-10)" stroke="none" stroke-width="0" stroke-linecap="butt"/><path d="M276.61871,90.09443v-12.50678h16.5307v12.50678z" data-paper-data="{&quot;index&quot;:null}" fill="url(#color-11)" stroke="none" stroke-width="0" stroke-linecap="butt"/><path d="M262.79004,106.94039l-4.8425,-21.30701h38.98215l-6.29525,21.30701z" data-paper-data="{&quot;index&quot;:null}" fill="url(#color-12)" stroke="#000000" stroke-width="2" stroke-linecap="round"/><path d="M286.27618,117.10964c-2.54072,0 -4.60038,-2.05966 -4.60038,-4.60038c0,-2.54072 2.05966,-4.60038 4.60038,-4.60038c2.54072,0 4.60038,2.05966 4.60038,4.60038c0,2.54072 -2.05966,4.60038 -4.60038,4.60038z" data-paper-data="{&quot;index&quot;:null}" fill="url(#color-13)" stroke="#000000" stroke-width="1" stroke-linecap="butt"/><path d="M266.05873,117.10963c-2.60757,0 -4.72144,-2.11387 -4.72144,-4.72144c0,-2.60757 2.11387,-4.72144 4.72144,-4.72144c2.60757,0 4.72144,2.11387 4.72144,4.72144c0,2.60757 -2.11387,4.72144 -4.72144,4.72144z" data-paper-data="{&quot;index&quot;:null}" fill="url(#color-14)" stroke="#000000" stroke-width="1" stroke-linecap="butt"/><path d="M562.23077,268.36704v-53.3675h48.10961v53.3675z" fill="url(#color-15)" stroke="none" stroke-width="0" stroke-linecap="butt"/><path d="M531.83566,258.7406v-30.23283h39.95991v30.23283z" fill="url(#color-16)" stroke="none" stroke-width="0" stroke-linecap="butt"/><path d="M537.91514,299.46257l-15.2176,-51.50577h94.23215l-11.70585,51.50577z" fill="url(#color-17)" stroke="#000000" stroke-width="2" stroke-linecap="round"/><path d="M537.32985,312.92429c0,-6.14171 4.97885,-11.12056 11.12057,-11.12056c6.14171,0 11.12056,4.97885 11.12056,11.12057c0,6.14171 -4.97885,11.12057 -11.12056,11.12057c-6.14171,0 -11.12057,-4.97886 -11.12057,-11.12057z" fill="url(#color-18)" stroke="#000000" stroke-width="1" stroke-linecap="butt"/><path d="M585.90916,312.63163c0,-6.30333 5.10988,-11.41321 11.41321,-11.41321c6.30333,0 11.41321,5.10988 11.41321,11.41321c0,6.30333 -5.10988,11.41321 -11.41321,11.41321c-6.30333,0 -11.41321,-5.10988 -11.41321,-11.41321z" fill="url(#color-19)" stroke="#000000" stroke-width="1" stroke-linecap="butt"/><g><path d="M69.77344,81.72895v-26.1h184v26.1z" fill="url(#color-20)" stroke="#3d3d3d" stroke-width="2" stroke-linecap="butt"/><path d="M70.77344,46.62895h175" fill="none" stroke="#878787" stroke-width="2" stroke-linecap="round"/><path d="M232.05896,25.38661v-19.38706h17.477v19.38706z" fill="url(#color-21)" stroke="none" stroke-width="0" stroke-linecap="butt"/><path d="M221.01719,21.88956v-10.98282h14.51642v10.98282z" fill="url(#color-22)" stroke="none" stroke-width="0" stroke-linecap="butt"/><path d="M223.22571,36.68282l-5.52817,-18.71074h34.23215l-4.25244,18.71074z" fill="url(#color-23)" stroke="#000000" stroke-width="2" stroke-linecap="round"/><path d="M223.01309,41.57313c0,-2.23113 1.80869,-4.03982 4.03982,-4.03982c2.23113,0 4.03982,1.80869 4.03982,4.03982c0,2.23113 -1.80869,4.03982 -4.03982,4.03982c-2.23113,0 -4.03982,-1.80869 -4.03982,-4.03982z" fill="url(#color-24)" stroke="#000000" stroke-width="1" stroke-linecap="butt"/><path d="M240.66072,41.4668c0,-2.28984 1.85629,-4.14613 4.14613,-4.14613c2.28984,0 4.14613,1.85629 4.14613,4.14613c0,2.28984 -1.85629,4.14613 -4.14613,4.14613c-2.28984,0 -4.14613,-1.85629 -4.14613,-4.14613z" fill="url(#color-25)" stroke="#000000" stroke-width="1" stroke-linecap="butt"/></g><path d="M23.377,142.774v-118.18018h231.23123v118.18018z" fill="url(#color-26)" stroke="#ffffff" stroke-width="2" stroke-linecap="butt"/><text transform="translate(28.90053,53.55417) scale(0.48447,0.48447)" font-size="40" xml:space="preserve" fill="#ffffff" fill-rule="nonzero" stroke="#ffffff" stroke-width="1" stroke-linecap="butt" stroke-linejoin="miter" stroke-miterlimit="10" stroke-dasharray="" stroke-dashoffset="0" font-family="&quot;OpenSans-Medium&quot;, Sans Serif" font-weight="normal" text-anchor="start" style="mix-blend-mode: normal"><tspan x="0" dy="0">Level 07 - Mine works.</tspan></text><text transform="translate(29.90052,73.56199) scale(0.3647,0.3647)" font-size="40" xml:space="preserve" fill-opacity="0.1451" fill="#00ffc3" fill-rule="nonzero" stroke="#ffffff" stroke-width="1" stroke-linecap="butt" stroke-linejoin="miter" stroke-miterlimit="10" stroke-dasharray="" stroke-dashoffset="0" font-family="&quot;OpenSans-Light&quot;, Sans Serif" font-weight="normal" text-anchor="start" style="mix-blend-mode: normal"><tspan x="0" dy="0">Starting to get complicated, aye?</tspan></text></g></g></svg>