<svg version="1.1" xmlns="http://www.w3.org/2000/svg" xmlns:xlink="http://www.w3.org/1999/xlink" width="45.96018" height="49.3562" viewBox="0,0,45.96018,49.3562"><defs><radialGradient cx="320.13923" cy="184.85127" r="16" gradientUnits="userSpaceOnUse" id="color-1"><stop offset="0" stop-color="#ed00ff"/><stop offset="1" stop-color="#4d004a"/></radialGradient><linearGradient x1="321.45751" y1="177.11809" x2="321.45751" y2="179.11809" gradientUnits="userSpaceOnUse" id="color-2"><stop offset="0" stop-color="#000000"/><stop offset="1" stop-color="#000000" stop-opacity="0"/></linearGradient><linearGradient x1="321.45751" y1="177.11809" x2="321.45751" y2="179.11809" gradientUnits="userSpaceOnUse" id="color-3"><stop offset="0" stop-color="#000000"/><stop offset="1" stop-color="#404040" stop-opacity="0.32157"/></linearGradient><linearGradient x1="320.83251" y1="162.65652" x2="320.83251" y2="168.88909" gradientUnits="userSpaceOnUse" id="color-4"><stop offset="0" stop-color="#000000"/><stop offset="1" stop-color="#000000" stop-opacity="0"/></linearGradient><linearGradient x1="320.83251" y1="162.65652" x2="320.83251" y2="168.88909" gradientUnits="userSpaceOnUse" id="color-5"><stop offset="0" stop-color="#000000"/><stop offset="1" stop-color="#404040" stop-opacity="0.32157"/></linearGradient><linearGradient x1="321.17772" y1="159.56116" x2="321.17772" y2="170.42821" gradientUnits="userSpaceOnUse" id="color-6"><stop offset="0" stop-color="#000000"/><stop offset="1" stop-color="#000000" stop-opacity="0"/></linearGradient><linearGradient x1="321.17772" y1="159.56116" x2="321.17772" y2="170.42821" gradientUnits="userSpaceOnUse" id="color-7"><stop offset="0" stop-color="#000000"/><stop offset="1" stop-color="#404040" stop-opacity="0.32157"/></linearGradient><linearGradient x1="309.59438" y1="175.86173" x2="309.59438" y2="183.05316" gradientUnits="userSpaceOnUse" id="color-8"><stop offset="0" stop-color="#000000"/><stop offset="1" stop-color="#000000" stop-opacity="0"/></linearGradient><linearGradient x1="309.59438" y1="175.86173" x2="309.59438" y2="183.05316" gradientUnits="userSpaceOnUse" id="color-9"><stop offset="0" stop-color="#000000"/><stop offset="1" stop-color="#404040" stop-opacity="0.32157"/></linearGradient><linearGradient x1="330.34439" y1="163.87601" x2="330.34439" y2="168.83011" gradientUnits="userSpaceOnUse" id="color-10"><stop offset="0" stop-color="#000000"/><stop offset="1" stop-color="#000000" stop-opacity="0"/></linearGradient><linearGradient x1="330.34439" y1="163.87601" x2="330.34439" y2="168.83011" gradientUnits="userSpaceOnUse" id="color-11"><stop offset="0" stop-color="#000000"/><stop offset="1" stop-color="#404040" stop-opacity="0.32157"/></linearGradient><linearGradient x1="311.59438" y1="163.07697" x2="311.59438" y2="168.03106" gradientUnits="userSpaceOnUse" id="color-12"><stop offset="0" stop-color="#000000"/><stop offset="1" stop-color="#000000" stop-opacity="0"/></linearGradient><linearGradient x1="311.59438" y1="163.07697" x2="311.59438" y2="168.03106" gradientUnits="userSpaceOnUse" id="color-13"><stop offset="0" stop-color="#000000"/><stop offset="1" stop-color="#404040" stop-opacity="0.32157"/></linearGradient><linearGradient x1="320.84439" y1="164.57423" x2="320.84439" y2="177.5188" gradientUnits="userSpaceOnUse" id="color-14"><stop offset="0" stop-color="#000000"/><stop offset="1" stop-color="#000000" stop-opacity="0"/></linearGradient><linearGradient x1="320.84439" y1="164.57423" x2="320.84439" y2="177.5188" gradientUnits="userSpaceOnUse" id="color-15"><stop offset="0" stop-color="#000000"/><stop offset="1" stop-color="#404040" stop-opacity="0.32157"/></linearGradient><linearGradient x1="315.92772" y1="177.93925" x2="315.92772" y2="182.57373" gradientUnits="userSpaceOnUse" id="color-16"><stop offset="0" stop-color="#000000"/><stop offset="1" stop-color="#000000" stop-opacity="0"/></linearGradient><linearGradient x1="315.92772" y1="177.93925" x2="315.92772" y2="182.57373" gradientUnits="userSpaceOnUse" id="color-17"><stop offset="0" stop-color="#000000"/><stop offset="1" stop-color="#404040" stop-opacity="0.32157"/></linearGradient><linearGradient x1="330.51106" y1="175.22248" x2="330.51106" y2="183.53258" gradientUnits="userSpaceOnUse" id="color-18"><stop offset="0" stop-color="#000000"/><stop offset="1" stop-color="#000000" stop-opacity="0"/></linearGradient><linearGradient x1="330.51106" y1="175.22248" x2="330.51106" y2="183.53258" gradientUnits="userSpaceOnUse" id="color-19"><stop offset="0" stop-color="#000000"/><stop offset="1" stop-color="#404040" stop-opacity="0.32157"/></linearGradient><linearGradient x1="320.09439" y1="157.16402" x2="320.09439" y2="159.56116" gradientUnits="userSpaceOnUse" id="color-20"><stop offset="0" stop-color="#000000"/><stop offset="1" stop-color="#000000" stop-opacity="0"/></linearGradient><linearGradient x1="320.09439" y1="157.16402" x2="320.09439" y2="159.56116" gradientUnits="userSpaceOnUse" id="color-21"><stop offset="0" stop-color="#000000"/><stop offset="1" stop-color="#404040" stop-opacity="0.32157"/></linearGradient><linearGradient x1="313.76106" y1="166.11335" x2="313.76106" y2="185.13069" gradientUnits="userSpaceOnUse" id="color-22"><stop offset="0" stop-color="#000000"/><stop offset="1" stop-color="#000000" stop-opacity="0"/></linearGradient><linearGradient x1="313.76106" y1="166.11335" x2="313.76106" y2="185.13069" gradientUnits="userSpaceOnUse" id="color-23"><stop offset="0" stop-color="#000000"/><stop offset="1" stop-color="#404040" stop-opacity="0.32157"/></linearGradient><linearGradient x1="317.26106" y1="158.92192" x2="317.26106" y2="175.38232" gradientUnits="userSpaceOnUse" id="color-24"><stop offset="0" stop-color="#000000"/><stop offset="1" stop-color="#000000" stop-opacity="0"/></linearGradient><linearGradient x1="317.26106" y1="158.92192" x2="317.26106" y2="175.38232" gradientUnits="userSpaceOnUse" id="color-25"><stop offset="0" stop-color="#000000"/><stop offset="1" stop-color="#404040" stop-opacity="0.32157"/></linearGradient><linearGradient x1="324.17772" y1="158.60231" x2="324.17772" y2="162.91716" gradientUnits="userSpaceOnUse" id="color-26"><stop offset="0" stop-color="#000000"/><stop offset="1" stop-color="#000000" stop-opacity="0"/></linearGradient><linearGradient x1="324.17772" y1="158.60231" x2="324.17772" y2="162.91716" gradientUnits="userSpaceOnUse" id="color-27"><stop offset="0" stop-color="#000000"/><stop offset="1" stop-color="#404040" stop-opacity="0.32157"/></linearGradient><linearGradient x1="328.17772" y1="166.9124" x2="328.17772" y2="184.81106" gradientUnits="userSpaceOnUse" id="color-28"><stop offset="0" stop-color="#000000"/><stop offset="1" stop-color="#000000" stop-opacity="0"/></linearGradient><linearGradient x1="328.17772" y1="166.9124" x2="328.17772" y2="184.81106" gradientUnits="userSpaceOnUse" id="color-29"><stop offset="0" stop-color="#000000"/><stop offset="1" stop-color="#404040" stop-opacity="0.32157"/></linearGradient><linearGradient x1="330.42772" y1="160.36021" x2="330.42772" y2="164.35545" gradientUnits="userSpaceOnUse" id="color-30"><stop offset="0" stop-color="#000000"/><stop offset="1" stop-color="#000000" stop-opacity="0"/></linearGradient><linearGradient x1="330.42772" y1="160.36021" x2="330.42772" y2="164.35545" gradientUnits="userSpaceOnUse" id="color-31"><stop offset="0" stop-color="#000000"/><stop offset="1" stop-color="#404040" stop-opacity="0.32157"/></linearGradient><linearGradient x1="320.26106" y1="160.36021" x2="320.26106" y2="166.11335" gradientUnits="userSpaceOnUse" id="color-32"><stop offset="0" stop-color="#000000"/><stop offset="1" stop-color="#000000" stop-opacity="0"/></linearGradient><linearGradient x1="320.26106" y1="160.36021" x2="320.26106" y2="166.11335" gradientUnits="userSpaceOnUse" id="color-33"><stop offset="0" stop-color="#000000"/><stop offset="1" stop-color="#404040" stop-opacity="0.32157"/></linearGradient><linearGradient x1="321.17772" y1="168.19087" x2="321.17772" y2="172.0263" gradientUnits="userSpaceOnUse" id="color-34"><stop offset="0" stop-color="#000000"/><stop offset="1" stop-color="#000000" stop-opacity="0"/></linearGradient><linearGradient x1="321.17772" y1="168.19087" x2="321.17772" y2="172.0263" gradientUnits="userSpaceOnUse" id="color-35"><stop offset="0" stop-color="#000000"/><stop offset="1" stop-color="#404040" stop-opacity="0.32157"/></linearGradient><linearGradient x1="312.09439" y1="167.07221" x2="312.09439" y2="169.62916" gradientUnits="userSpaceOnUse" id="color-36"><stop offset="0" stop-color="#000000"/><stop offset="1" stop-color="#000000" stop-opacity="0"/></linearGradient><linearGradient x1="312.09439" y1="167.07221" x2="312.09439" y2="169.62916" gradientUnits="userSpaceOnUse" id="color-37"><stop offset="0" stop-color="#000000"/><stop offset="1" stop-color="#404040" stop-opacity="0.32157"/></linearGradient><linearGradient x1="330.84439" y1="166.75258" x2="330.84439" y2="170.4282" gradientUnits="userSpaceOnUse" id="color-38"><stop offset="0" stop-color="#000000"/><stop offset="1" stop-color="#000000" stop-opacity="0"/></linearGradient><linearGradient x1="330.84439" y1="166.75258" x2="330.84439" y2="170.4282" gradientUnits="userSpaceOnUse" id="color-39"><stop offset="0" stop-color="#000000"/><stop offset="1" stop-color="#404040" stop-opacity="0.32157"/></linearGradient></defs><g transform="translate(-298.16509,-154.89273)"><g data-paper-data="{&quot;isPaintingLayer&quot;:true}" fill-rule="nonzero" stroke-linejoin="miter" stroke-miterlimit="10" stroke-dasharray="" stroke-dashoffset="0" style="mix-blend-mode: normal"><text transform="translate(298.30673,200.70793) scale(0.28328,0.28328)" font-size="40" xml:space="preserve" fill="#ffffff" fill-rule="nonzero" stroke="none" stroke-width="1" stroke-linecap="butt" stroke-linejoin="miter" stroke-miterlimit="10" stroke-dasharray="" stroke-dashoffset="0" font-family="&quot;OpenSans-Bold&quot;, Sans Serif" font-weight="normal" text-anchor="start" style="mix-blend-mode: normal"><tspan x="0" dy="0">HACKER</tspan></text><path d="M304.48118,171.89273c0,-8.83656 7.16344,-16 16,-16c8.83656,0 16,7.16344 16,16c0,8.83656 -7.16344,16 -16,16c-8.83656,0 -16,-7.16344 -16,-16z" fill="url(#color-1)" stroke="#000000" stroke-width="2" stroke-linecap="butt"/><g stroke-width="2" stroke-linecap="round"><path d="M327.08251,177.99823l-11.25,0.23971" data-paper-data="{&quot;index&quot;:null}" fill="url(#color-2)" stroke="url(#color-3)"/><path d="M317.33251,168.88909l3.75,-6.23257l3.25,4.31486" data-paper-data="{&quot;index&quot;:null}" fill="url(#color-4)" stroke="url(#color-5)"/><path d="M321.42772,170.42821l-0.5,-7.99047l0.33333,-2.87657" fill="url(#color-6)" stroke="url(#color-7)"/><path d="M306.76105,178.09906l3.83333,-2.23733l1.83333,7.19143" fill="url(#color-8)" stroke="url(#color-9)"/><path d="M326.76105,168.83011l7.16667,-4.9541" fill="url(#color-10)" stroke="url(#color-11)"/><path d="M315.09438,168.03106l-7,-4.9541" fill="url(#color-12)" stroke="url(#color-13)"/><path d="M305.92772,174.58325l3.5,-5.1139l2.90479,1.09774l5.25,6.95171l-2.5,-12.94457l6.25,12.22543l5.25,-11.98571l-1.75,12.70486l4.25,-6.23257l3.51188,-0.69822l3.16666,2.71677" fill="url(#color-14)" stroke="url(#color-15)"/><path d="M314.09439,182.57373l3.66666,-4.63448" fill="url(#color-16)" stroke="url(#color-17)"/><path d="M335.26106,176.82058l-2.66667,-1.5981l-3.66667,8.3101l-3.16667,-4.79428" fill="url(#color-18)" stroke="url(#color-19)"/><path d="M323.92772,157.16402l-3.66667,2.39714l-4,-2.39714" fill="url(#color-20)" stroke="url(#color-21)"/><path d="M321.09439,177.30002l0.33333,7.83067l-13.33333,-15.66134l-2,-3.356" fill="url(#color-22)" stroke="url(#color-23)"/><path d="M312.92772,158.92192l7.66667,4.63448l1,11.82591" fill="url(#color-24)" stroke="url(#color-25)"/><path d="M320.09439,162.91716l8.16666,-4.31486" fill="url(#color-26)" stroke="url(#color-27)"/><path d="M335.76105,166.9124l-1.5,3.03637l-13.66666,14.86229" fill="url(#color-28)" stroke="url(#color-29)"/><path d="M329.26105,164.35545l2.33334,-3.99524" fill="url(#color-30)" stroke="url(#color-31)"/><path d="M330.42772,165.31431l-3.33333,-2.87657l-6.83334,3.67562l-5.5,-3.5158l-1.83333,2.39714l-2.83333,-4.63448" fill="url(#color-32)" stroke="url(#color-33)"/><path d="M310.09438,172.0263l11,-3.83543l11.16667,3.51581" fill="url(#color-34)" stroke="url(#color-35)"/><path d="M311.76105,169.62916l0.66667,-2.55696" fill="url(#color-36)" stroke="url(#color-37)"/><path d="M331.42772,170.4282l-1.16667,-3.67562" fill="url(#color-38)" stroke="url(#color-39)"/></g></g></g></svg>