<svg version="1.1" xmlns="http://www.w3.org/2000/svg" xmlns:xlink="http://www.w3.org/1999/xlink" width="422.86494" height="315.29839" viewBox="0,0,422.86494,315.29839"><g transform="translate(-131.28078,-37.11824)"><g data-paper-data="{&quot;isPaintingLayer&quot;:true}" fill="#ffffff" fill-rule="nonzero" stroke="#000000" stroke-width="2" stroke-linecap="butt" stroke-linejoin="miter" stroke-miterlimit="10" stroke-dasharray="" stroke-dashoffset="0" style="mix-blend-mode: normal"><path d="M374.56421,193.04658v-28.97515h11.82659v28.97515z"/><path d="M336.71912,238.57895v-12.41792h34.29711v12.41792z"/><path d="M421.87057,227.34369v-33.11445h13.00925v33.11445z"/><path d="M388.75612,163.4801v-11.23526h36.0711v11.23526z"/><path d="M467.40295,194.82057v-30.74914h11.23526v30.74914z"/><path d="M436.06248,240.35294v-13.00925h26.60983v13.00925z"/><path d="M480.4122,194.82057v-9.46127h23.65318v9.46127z"/><path d="M503.47405,223.79571v-26.0185h13.00925v26.0185z"/><path d="M465.62895,279.38069v-14.19191h36.0711v14.19191z"/><path d="M427.19254,99.61651v-17.73989h40.21041v17.73989z"/><path d="M509.97867,128.59166v-29.56648h8.86994v29.56648z"/><path d="M537.77115,188.90727v-37.25376h15.37457v37.25376z"/><path d="M505.83937,315.45179v-13.00925h34.88844v13.00925z"/><path d="M291.77807,193.63791v-34.29711h11.82659v34.29711z"/><path d="M303.60465,204.87317v-10.5422h27.20116v10.5422z"/><path d="M300.64801,157.56681v-14.19191h34.88844v14.19191z"/><path d="M342.04107,51.12749v-13.00925h45.53237v13.00925z"/><path d="M321.93588,270.51075v-36.0711h13.60058v36.0711z"/><path d="M328.22851,351.41663v-14.78324h53.81099v14.78324z"/><path d="M216.8409,344.41066v-27.20116h14.19191v27.20116z"/><path d="M132.28079,297.69563v-32.52312h17.14856v32.52312z"/><path d="M258.23399,157.55053v-8.97167h41.39307v8.97167z"/><path d="M503.47405,263.29571v-37.5185h13.00925v37.5185z"/><path d="M315.99201,266.23226v-25.12724h5.03582v25.12724z"/><path d="M376.23346,162.59798v-8.51489h11.82659v8.51489z"/><path d="M424.05727,236.5919v-8.51489h11.82659v8.51489z"/><path d="M503.76103,195.91317v-6.13579h8.52218v6.13579z"/><path d="M494.01061,201.6269v-6.13579h8.52218v6.13579z"/></g></g></svg>