<svg version="1.1" xmlns="http://www.w3.org/2000/svg" xmlns:xlink="http://www.w3.org/1999/xlink" width="26.41666" height="26.41667" viewBox="0,0,26.41666,26.41667"><defs><linearGradient x1="449.16668" y1="51.16018" x2="449.16668" y2="75.57685" gradientUnits="userSpaceOnUse" id="color-1"><stop offset="0" stop-color="#00d1ff"/><stop offset="1" stop-color="#ffffff"/></linearGradient><linearGradient x1="449.61883" y1="55.77221" x2="449.61883" y2="70.78394" gradientUnits="userSpaceOnUse" id="color-2"><stop offset="0" stop-color="#11d4ff"/><stop offset="1" stop-color="#00738f"/></linearGradient></defs><g transform="translate(-435.95835,-50.16018)"><g data-paper-data="{&quot;isPaintingLayer&quot;:true}" fill-rule="nonzero" stroke="#000000" stroke-linecap="butt" stroke-linejoin="miter" stroke-miterlimit="10" stroke-dasharray="" stroke-dashoffset="0" style="mix-blend-mode: normal"><path d="M436.95835,63.36851c0,-6.74248 5.46586,-12.20833 12.20833,-12.20833c6.74247,0 12.20833,5.46585 12.20833,12.20833c0,6.74248 -5.46586,12.20834 -12.20833,12.20834c-6.74248,0 -12.20833,-5.46586 -12.20833,-12.20834z" fill="url(#color-1)" stroke-width="2"/><path d="M442.11297,63.27808c0,-4.14537 3.3605,-7.50587 7.50586,-7.50587c4.14538,0 7.50586,3.3605 7.50586,7.50587c0,4.14537 -3.36048,7.50586 -7.50586,7.50586c-4.14537,0 -7.50586,-3.3605 -7.50586,-7.50586z" fill="url(#color-2)" stroke-width="2.5"/></g></g></svg>