<svg version="1.1" xmlns="http://www.w3.org/2000/svg" xmlns:xlink="http://www.w3.org/1999/xlink" width="757.5" height="469.1267" viewBox="0,0,757.5,469.1267"><defs><radialGradient cx="310.99099" cy="186.75677" r="378.5" gradientUnits="userSpaceOnUse" id="color-1"><stop offset="0" stop-color="#ffffff"/><stop offset="1" stop-color="#565656"/></radialGradient><radialGradient cx="39.21923" cy="126.69671" r="24" gradientUnits="userSpaceOnUse" id="color-2"><stop offset="0" stop-color="#565656"/><stop offset="1" stop-color="#ffffff"/></radialGradient><radialGradient cx="135.31533" cy="189.75977" r="23.5" gradientUnits="userSpaceOnUse" id="color-3"><stop offset="0" stop-color="#565656"/><stop offset="1" stop-color="#ffffff"/></radialGradient><radialGradient cx="196.8769" cy="63.63364" r="23" gradientUnits="userSpaceOnUse" id="color-4"><stop offset="0" stop-color="#565656"/><stop offset="1" stop-color="#ffffff"/></radialGradient><radialGradient cx="459.27345" cy="43.12892" r="22.5" gradientUnits="userSpaceOnUse" id="color-5"><stop offset="0" stop-color="#565656"/><stop offset="1" stop-color="#ffffff"/></radialGradient><radialGradient cx="548.22825" cy="150.72072" r="26" gradientUnits="userSpaceOnUse" id="color-6"><stop offset="0" stop-color="#565656"/><stop offset="1" stop-color="#ffffff"/></radialGradient><radialGradient cx="378.55857" cy="134.2042" r="23.5" gradientUnits="userSpaceOnUse" id="color-7"><stop offset="0" stop-color="#565656"/><stop offset="1" stop-color="#ffffff"/></radialGradient><radialGradient cx="280.96096" cy="239.30932" r="27.5" gradientUnits="userSpaceOnUse" id="color-8"><stop offset="0" stop-color="#565656"/><stop offset="1" stop-color="#ffffff"/></radialGradient><radialGradient cx="422.10212" cy="282.85285" r="19" gradientUnits="userSpaceOnUse" id="color-9"><stop offset="0" stop-color="#565656"/><stop offset="1" stop-color="#ffffff"/></radialGradient><radialGradient cx="509.1892" cy="315.88589" r="21" gradientUnits="userSpaceOnUse" id="color-10"><stop offset="0" stop-color="#565656"/><stop offset="1" stop-color="#ffffff"/></radialGradient><radialGradient cx="324.27344" cy="331.12891" r="17.5" gradientUnits="userSpaceOnUse" id="color-11"><stop offset="0" stop-color="#565656"/><stop offset="1" stop-color="#ffffff"/></radialGradient><radialGradient cx="148.77345" cy="330.62891" r="27" gradientUnits="userSpaceOnUse" id="color-12"><stop offset="0" stop-color="#565656"/><stop offset="1" stop-color="#ffffff"/></radialGradient><radialGradient cx="264.27344" cy="148.12891" r="12.5" gradientUnits="userSpaceOnUse" id="color-13"><stop offset="0" stop-color="#565656"/><stop offset="1" stop-color="#ffffff"/></radialGradient><radialGradient cx="344.27345" cy="38.12892" r="12.5" gradientUnits="userSpaceOnUse" id="color-14"><stop offset="0" stop-color="#565656"/><stop offset="1" stop-color="#ffffff"/></radialGradient><radialGradient cx="468.64867" cy="210.78079" r="20.5" gradientUnits="userSpaceOnUse" id="color-15"><stop offset="0" stop-color="#565656"/><stop offset="1" stop-color="#ffffff"/></radialGradient><radialGradient cx="548.27346" cy="41.12892" r="17.5" gradientUnits="userSpaceOnUse" id="color-16"><stop offset="0" stop-color="#565656"/><stop offset="1" stop-color="#ffffff"/></radialGradient><radialGradient cx="112.27345" cy="10.12891" r="7.5" gradientUnits="userSpaceOnUse" id="color-17"><stop offset="0" stop-color="#565656"/><stop offset="1" stop-color="#ffffff"/></radialGradient><radialGradient cx="132.31232" cy="105.67569" r="18" gradientUnits="userSpaceOnUse" id="color-18"><stop offset="0" stop-color="#565656"/><stop offset="1" stop-color="#ffffff"/></radialGradient><radialGradient cx="211.27346" cy="246.1289" r="9.5" gradientUnits="userSpaceOnUse" id="color-19"><stop offset="0" stop-color="#565656"/><stop offset="1" stop-color="#ffffff"/></radialGradient><radialGradient cx="312.77344" cy="85.62892" r="13" gradientUnits="userSpaceOnUse" id="color-20"><stop offset="0" stop-color="#565656"/><stop offset="1" stop-color="#ffffff"/></radialGradient><radialGradient cx="380.27345" cy="218.12891" r="9.5" gradientUnits="userSpaceOnUse" id="color-21"><stop offset="0" stop-color="#565656"/><stop offset="1" stop-color="#ffffff"/></radialGradient><radialGradient cx="570.75077" cy="255.82584" r="23" gradientUnits="userSpaceOnUse" id="color-22"><stop offset="0" stop-color="#565656"/><stop offset="1" stop-color="#ffffff"/></radialGradient><radialGradient cx="437.11712" cy="383.45345" r="28.5" gradientUnits="userSpaceOnUse" id="color-23"><stop offset="0" stop-color="#565656"/><stop offset="1" stop-color="#ffffff"/></radialGradient><radialGradient cx="162" cy="249.1289" r="10" gradientUnits="userSpaceOnUse" id="color-24"><stop offset="0" stop-color="#565656"/><stop offset="1" stop-color="#ffffff"/></radialGradient><radialGradient cx="192.00002" cy="278.62891" r="5.5" gradientUnits="userSpaceOnUse" id="color-25"><stop offset="0" stop-color="#565656"/><stop offset="1" stop-color="#ffffff"/></radialGradient><radialGradient cx="193.00002" cy="175.62891" r="8.5" gradientUnits="userSpaceOnUse" id="color-26"><stop offset="0" stop-color="#565656"/><stop offset="1" stop-color="#ffffff"/></radialGradient><radialGradient cx="200.50002" cy="122.62892" r="2.5" gradientUnits="userSpaceOnUse" id="color-27"><stop offset="0" stop-color="#565656"/><stop offset="1" stop-color="#ffffff"/></radialGradient><radialGradient cx="210.50002" cy="119.12892" r="5" gradientUnits="userSpaceOnUse" id="color-28"><stop offset="0" stop-color="#565656"/><stop offset="1" stop-color="#ffffff"/></radialGradient><radialGradient cx="246.00002" cy="72.62892" r="0.5" gradientUnits="userSpaceOnUse" id="color-29"><stop offset="0" stop-color="#565656"/><stop offset="1" stop-color="#ffffff"/></radialGradient><radialGradient cx="258" cy="56.62892" r="8.5" gradientUnits="userSpaceOnUse" id="color-30"><stop offset="0" stop-color="#565656"/><stop offset="1" stop-color="#ffffff"/></radialGradient><radialGradient cx="169.00002" cy="101.62892" r="6.5" gradientUnits="userSpaceOnUse" id="color-31"><stop offset="0" stop-color="#565656"/><stop offset="1" stop-color="#ffffff"/></radialGradient><radialGradient cx="138" cy="36.12892" r="6" gradientUnits="userSpaceOnUse" id="color-32"><stop offset="0" stop-color="#565656"/><stop offset="1" stop-color="#ffffff"/></radialGradient><radialGradient cx="302.5" cy="138.12891" r="5" gradientUnits="userSpaceOnUse" id="color-33"><stop offset="0" stop-color="#565656"/><stop offset="1" stop-color="#ffffff"/></radialGradient><radialGradient cx="275" cy="182.62891" r="4.5" gradientUnits="userSpaceOnUse" id="color-34"><stop offset="0" stop-color="#565656"/><stop offset="1" stop-color="#ffffff"/></radialGradient><radialGradient cx="244.00002" cy="192.62891" r="2.5" gradientUnits="userSpaceOnUse" id="color-35"><stop offset="0" stop-color="#565656"/><stop offset="1" stop-color="#ffffff"/></radialGradient><radialGradient cx="253.00002" cy="290.62891" r="11.5" gradientUnits="userSpaceOnUse" id="color-36"><stop offset="0" stop-color="#565656"/><stop offset="1" stop-color="#ffffff"/></radialGradient><radialGradient cx="211.50002" cy="331.12891" r="9" gradientUnits="userSpaceOnUse" id="color-37"><stop offset="0" stop-color="#565656"/><stop offset="1" stop-color="#ffffff"/></radialGradient><radialGradient cx="279" cy="384.62892" r="14.5" gradientUnits="userSpaceOnUse" id="color-38"><stop offset="0" stop-color="#565656"/><stop offset="1" stop-color="#ffffff"/></radialGradient><radialGradient cx="291" cy="320.62891" r="6.5" gradientUnits="userSpaceOnUse" id="color-39"><stop offset="0" stop-color="#565656"/><stop offset="1" stop-color="#ffffff"/></radialGradient><radialGradient cx="350" cy="270.62891" r="6.5" gradientUnits="userSpaceOnUse" id="color-40"><stop offset="0" stop-color="#565656"/><stop offset="1" stop-color="#ffffff"/></radialGradient><radialGradient cx="336" cy="167.62891" r="3.5" gradientUnits="userSpaceOnUse" id="color-41"><stop offset="0" stop-color="#565656"/><stop offset="1" stop-color="#ffffff"/></radialGradient><radialGradient cx="344" cy="212.62891" r="10.5" gradientUnits="userSpaceOnUse" id="color-42"><stop offset="0" stop-color="#565656"/><stop offset="1" stop-color="#ffffff"/></radialGradient><radialGradient cx="382" cy="172.62891" r="3.5" gradientUnits="userSpaceOnUse" id="color-43"><stop offset="0" stop-color="#565656"/><stop offset="1" stop-color="#ffffff"/></radialGradient><radialGradient cx="418.5" cy="207.62891" r="11" gradientUnits="userSpaceOnUse" id="color-44"><stop offset="0" stop-color="#565656"/><stop offset="1" stop-color="#ffffff"/></radialGradient><radialGradient cx="407.5" cy="246.6289" r="4" gradientUnits="userSpaceOnUse" id="color-45"><stop offset="0" stop-color="#565656"/><stop offset="1" stop-color="#ffffff"/></radialGradient><radialGradient cx="438" cy="119.62892" r="1.5" gradientUnits="userSpaceOnUse" id="color-46"><stop offset="0" stop-color="#565656"/><stop offset="1" stop-color="#ffffff"/></radialGradient><radialGradient cx="404.0841" cy="69.63965" r="11.5" gradientUnits="userSpaceOnUse" id="color-47"><stop offset="0" stop-color="#565656"/><stop offset="1" stop-color="#ffffff"/></radialGradient><radialGradient cx="369.54957" cy="84.65466" r="6" gradientUnits="userSpaceOnUse" id="color-48"><stop offset="0" stop-color="#565656"/><stop offset="1" stop-color="#ffffff"/></radialGradient><radialGradient cx="292" cy="18.62892" r="9.5" gradientUnits="userSpaceOnUse" id="color-49"><stop offset="0" stop-color="#565656"/><stop offset="1" stop-color="#ffffff"/></radialGradient><radialGradient cx="218.00002" cy="20.12892" r="4.5" gradientUnits="userSpaceOnUse" id="color-50"><stop offset="0" stop-color="#565656"/><stop offset="1" stop-color="#ffffff"/></radialGradient><radialGradient cx="412.5" cy="20.62892" r="6.5" gradientUnits="userSpaceOnUse" id="color-51"><stop offset="0" stop-color="#565656"/><stop offset="1" stop-color="#ffffff"/></radialGradient><radialGradient cx="461.14116" cy="90.66067" r="17" gradientUnits="userSpaceOnUse" id="color-52"><stop offset="0" stop-color="#565656"/><stop offset="1" stop-color="#ffffff"/></radialGradient><radialGradient cx="423.60361" cy="129.69971" r="6.5" gradientUnits="userSpaceOnUse" id="color-53"><stop offset="0" stop-color="#565656"/><stop offset="1" stop-color="#ffffff"/></radialGradient><radialGradient cx="476.15616" cy="152.22223" r="10.5" gradientUnits="userSpaceOnUse" id="color-54"><stop offset="0" stop-color="#565656"/><stop offset="1" stop-color="#ffffff"/></radialGradient><radialGradient cx="442" cy="163.62891" r="6.5" gradientUnits="userSpaceOnUse" id="color-55"><stop offset="0" stop-color="#565656"/><stop offset="1" stop-color="#ffffff"/></radialGradient><radialGradient cx="510.00002" cy="104.62892" r="6.5" gradientUnits="userSpaceOnUse" id="color-56"><stop offset="0" stop-color="#565656"/><stop offset="1" stop-color="#ffffff"/></radialGradient><radialGradient cx="509.00002" cy="25.12892" r="5" gradientUnits="userSpaceOnUse" id="color-57"><stop offset="0" stop-color="#565656"/><stop offset="1" stop-color="#ffffff"/></radialGradient><radialGradient cx="113.50001" cy="262.12891" r="8" gradientUnits="userSpaceOnUse" id="color-58"><stop offset="0" stop-color="#565656"/><stop offset="1" stop-color="#ffffff"/></radialGradient><radialGradient cx="195.50002" cy="383.62892" r="13" gradientUnits="userSpaceOnUse" id="color-59"><stop offset="0" stop-color="#565656"/><stop offset="1" stop-color="#ffffff"/></radialGradient><radialGradient cx="362.5" cy="394.12892" r="11" gradientUnits="userSpaceOnUse" id="color-60"><stop offset="0" stop-color="#565656"/><stop offset="1" stop-color="#ffffff"/></radialGradient><radialGradient cx="380.5" cy="318.12891" r="6" gradientUnits="userSpaceOnUse" id="color-61"><stop offset="0" stop-color="#565656"/><stop offset="1" stop-color="#ffffff"/></radialGradient><radialGradient cx="433.5" cy="322.62891" r="8" gradientUnits="userSpaceOnUse" id="color-62"><stop offset="0" stop-color="#565656"/><stop offset="1" stop-color="#ffffff"/></radialGradient><radialGradient cx="475.5" cy="263.62891" r="3" gradientUnits="userSpaceOnUse" id="color-63"><stop offset="0" stop-color="#565656"/><stop offset="1" stop-color="#ffffff"/></radialGradient><radialGradient cx="461" cy="250.6289" r="3.5" gradientUnits="userSpaceOnUse" id="color-64"><stop offset="0" stop-color="#565656"/><stop offset="1" stop-color="#ffffff"/></radialGradient><radialGradient cx="515.50001" cy="246.6289" r="5" gradientUnits="userSpaceOnUse" id="color-65"><stop offset="0" stop-color="#565656"/><stop offset="1" stop-color="#ffffff"/></radialGradient><radialGradient cx="505.00002" cy="190.62891" r="7.5" gradientUnits="userSpaceOnUse" id="color-66"><stop offset="0" stop-color="#565656"/><stop offset="1" stop-color="#ffffff"/></radialGradient><radialGradient cx="508.50002" cy="362.62892" r="12.5" gradientUnits="userSpaceOnUse" id="color-67"><stop offset="0" stop-color="#565656"/><stop offset="1" stop-color="#ffffff"/></radialGradient><radialGradient cx="73.11427" cy="179.10338" r="8.25826" gradientUnits="userSpaceOnUse" id="color-68"><stop offset="0" stop-color="#565656"/><stop offset="1" stop-color="#ffffff"/></radialGradient><radialGradient cx="70.11128" cy="79.25354" r="7.50751" gradientUnits="userSpaceOnUse" id="color-69"><stop offset="0" stop-color="#565656"/><stop offset="1" stop-color="#ffffff"/></radialGradient><radialGradient cx="53.59477" cy="27.45173" r="12.76276" gradientUnits="userSpaceOnUse" id="color-70"><stop offset="0" stop-color="#565656"/><stop offset="1" stop-color="#ffffff"/></radialGradient><radialGradient cx="14.55573" cy="173.84813" r="7.30176" gradientUnits="userSpaceOnUse" id="color-71"><stop offset="0" stop-color="#565656"/><stop offset="1" stop-color="#ffffff"/></radialGradient><radialGradient cx="34.82601" cy="214.38868" r="15.01501" gradientUnits="userSpaceOnUse" id="color-72"><stop offset="0" stop-color="#565656"/><stop offset="1" stop-color="#ffffff"/></radialGradient><radialGradient cx="48.22824" cy="305.37539" r="27.02703" gradientUnits="userSpaceOnUse" id="color-73"><stop offset="0" stop-color="#565656"/><stop offset="1" stop-color="#ffffff"/></radialGradient><radialGradient cx="85.12632" cy="381.05534" r="12.76277" gradientUnits="userSpaceOnUse" id="color-74"><stop offset="0" stop-color="#565656"/><stop offset="1" stop-color="#ffffff"/></radialGradient><linearGradient x1="15.86949" y1="68.66889" x2="247.10072" y2="68.66889" gradientUnits="userSpaceOnUse" id="color-75"><stop offset="0" stop-color="#1e1e1e" stop-opacity="0.7098"/><stop offset="1" stop-color="#616161" stop-opacity="0.6549"/></linearGradient></defs><g transform="translate(18.99007,19.62109)"><g data-paper-data="{&quot;isPaintingLayer&quot;:true}" fill-rule="nonzero" stroke-linecap="butt" stroke-linejoin="miter" stroke-miterlimit="10" stroke-dasharray="" stroke-dashoffset="0" style="mix-blend-mode: normal"><path d="M-18.74007,428.62892v-448h757v448z" fill="url(#color-1)" stroke="#6c6c6c" stroke-width="0.5"/><text transform="translate(234.23292,341.24524) scale(1.14435,1.14435)" font-size="40" xml:space="preserve" fill="#9c9c9c" fill-rule="nonzero" stroke="none" stroke-width="1" stroke-linecap="butt" stroke-linejoin="miter" stroke-miterlimit="10" stroke-dasharray="" stroke-dashoffset="0" font-family="Serif" font-weight="normal" text-anchor="start" style="mix-blend-mode: normal"><tspan x="0" dy="0">Unknown realm</tspan></text><text transform="translate(16.01969,391.04732) scale(5.08333,5.08333)" font-size="40" xml:space="preserve" fill="#9c9c9c" fill-rule="nonzero" stroke="none" stroke-width="1" stroke-linecap="butt" stroke-linejoin="miter" stroke-miterlimit="10" stroke-dasharray="" stroke-dashoffset="0" font-family="Serif" font-weight="normal" text-anchor="start" style="mix-blend-mode: normal"><tspan x="0" dy="0">5</tspan></text><path d="M16.77344,148.62891v-45h48v45z" fill="url(#color-2)" stroke="#6c6c6c" stroke-width="0.5"/><path d="M111.77345,212.62891v-47h46v47z" fill="url(#color-3)" stroke="#6c6c6c" stroke-width="0.5"/><path d="M176.77346,84.62892v-46h46v46z" fill="url(#color-4)" stroke="#6c6c6c" stroke-width="0.5"/><path d="M436.77345,65.62892v-45h45v45z" fill="url(#color-5)" stroke="#6c6c6c" stroke-width="0.5"/><path d="M527.77346,175.62891v-52h52v52z" fill="url(#color-6)" stroke="#6c6c6c" stroke-width="0.5"/><path d="M354.77345,158.62891v-47h47v47z" fill="url(#color-7)" stroke="#6c6c6c" stroke-width="0.5"/><path d="M254.77345,266.62891v-55h55v55z" fill="url(#color-8)" stroke="#6c6c6c" stroke-width="0.5"/><path d="M400.77345,296.62891v-38h38v38z" fill="url(#color-9)" stroke="#6c6c6c" stroke-width="0.5"/><path d="M485.77345,330.62891v-42h42v42z" fill="url(#color-10)" stroke="#6c6c6c" stroke-width="0.5"/><path d="M306.77344,348.62892v-35h35v35z" fill="url(#color-11)" stroke="#6c6c6c" stroke-width="0.5"/><path d="M121.77345,357.62892v-54h54v54z" fill="url(#color-12)" stroke="#6c6c6c" stroke-width="0.5"/><path d="M251.77345,160.62891v-25h25v25z" fill="url(#color-13)" stroke="#6c6c6c" stroke-width="0.5"/><path d="M331.77344,50.62892v-25h25v25z" fill="url(#color-14)" stroke="#6c6c6c" stroke-width="0.5"/><path d="M459.77345,233.62891v-41h27v41z" fill="url(#color-15)" stroke="#6c6c6c" stroke-width="0.5"/><path d="M530.77346,58.62892v-35h35v35z" fill="url(#color-16)" stroke="#6c6c6c" stroke-width="0.5"/><path d="M104.77345,17.62892v-15h15v15z" fill="url(#color-17)" stroke="#6c6c6c" stroke-width="0.5"/><path d="M114.77345,121.62892v-36h36v36z" fill="url(#color-18)" stroke="#6c6c6c" stroke-width="0.5"/><path d="M201.77346,255.6289v-19h19v19z" fill="url(#color-19)" stroke="#6c6c6c" stroke-width="0.5"/><path d="M299.77344,98.62892v-26h26v26z" fill="url(#color-20)" stroke="#6c6c6c" stroke-width="0.5"/><path d="M370.77345,227.62891v-19h19v19z" fill="url(#color-21)" stroke="#6c6c6c" stroke-width="0.5"/><path d="M546.77346,276.62891v-46h46v46z" fill="url(#color-22)" stroke="#6c6c6c" stroke-width="0.5"/><path d="M405.77345,404.62892v-57h57v57z" fill="url(#color-23)" stroke="#6c6c6c" stroke-width="0.5"/><path d="M152.5,259.12891v-20h19v20z" fill="url(#color-24)" stroke="none" stroke-width="0"/><path d="M186.50002,284.12891v-11h11v11z" fill="url(#color-25)" stroke="none" stroke-width="0"/><path d="M186.50002,184.12891v-17h13v17z" fill="url(#color-26)" stroke="none" stroke-width="0"/><path d="M199.50002,125.12892v-5h2v5z" fill="url(#color-27)" stroke="none" stroke-width="0"/><path d="M207.50002,124.12892v-10h6v10z" fill="url(#color-28)" stroke="none" stroke-width="0"/><path d="M245.50002,73.12892v-1h1v1z" fill="url(#color-29)" stroke="none" stroke-width="0"/><path d="M252.50002,65.12892v-17h11v17z" fill="url(#color-30)" stroke="none" stroke-width="0"/><path d="M162.5,107.12892v-11h13v11z" fill="url(#color-31)" stroke="none" stroke-width="0"/><path d="M133.5,42.12892v-12h9v12z" fill="url(#color-32)" stroke="none" stroke-width="0"/><path d="M297.5,143.12891v-10h10v10z" fill="url(#color-33)" stroke="none" stroke-width="0"/><path d="M271.5,187.12891v-9h7v9z" fill="url(#color-34)" stroke="none" stroke-width="0"/><path d="M241.50002,193.12891v-1h5v1z" fill="url(#color-35)" stroke="none" stroke-width="0"/><path d="M245.50002,302.12891v-23h15v23z" fill="url(#color-36)" stroke="none" stroke-width="0"/><path d="M203.50002,340.12892v-18h16v18z" fill="url(#color-37)" stroke="none" stroke-width="0"/><path d="M271.5,399.12892v-29h15v29z" fill="url(#color-38)" stroke="none" stroke-width="0"/><path d="M289.5,327.12891v-13h3v13z" fill="url(#color-39)" stroke="none" stroke-width="0"/><path d="M344.5,277.12891v-13h11v13z" fill="url(#color-40)" stroke="none" stroke-width="0"/><path d="M332.5,171.12891v-7h7v7z" fill="url(#color-41)" stroke="none" stroke-width="0"/><path d="M336.5,223.12891v-21h15v21z" fill="url(#color-42)" stroke="none" stroke-width="0"/><path d="M378.5,176.12891v-7h7v7z" fill="url(#color-43)" stroke="none" stroke-width="0"/><path d="M407.5,218.12891v-21h22v21z" fill="url(#color-44)" stroke="none" stroke-width="0"/><path d="M403.5,248.1289v-3h8v3z" fill="url(#color-45)" stroke="none" stroke-width="0"/><path d="M437.5,121.12892v-3h1v3z" fill="url(#color-46)" stroke="none" stroke-width="0"/><path d="M389.5,76.12892v-15h23v15z" fill="url(#color-47)" stroke="none" stroke-width="0"/><path d="M359.5,88.12892v-8h12v8z" fill="url(#color-48)" stroke="none" stroke-width="0"/><path d="M282.5,28.12892v-19h19v19z" fill="url(#color-49)" stroke="none" stroke-width="0"/><path d="M213.50002,23.12892v-6h9v6z" fill="url(#color-50)" stroke="none" stroke-width="0"/><path d="M406.5,27.12892v-13h12v13z" fill="url(#color-51)" stroke="none" stroke-width="0"/><path d="M447.5,103.12892v-21h34v21z" fill="url(#color-52)" stroke="none" stroke-width="0"/><path d="M416.5,135.12891v-12h13v12z" fill="url(#color-53)" stroke="none" stroke-width="0"/><path d="M464.5,163.12891v-19h21v19z" fill="url(#color-54)" stroke="none" stroke-width="0"/><path d="M438.5,170.12891v-13h7v13z" fill="url(#color-55)" stroke="none" stroke-width="0"/><path d="M506.50002,111.12892v-13h7v13z" fill="url(#color-56)" stroke="none" stroke-width="0"/><path d="M505.50002,30.12892v-10h7v10z" fill="url(#color-57)" stroke="none" stroke-width="0"/><path d="M105.50001,270.12891v-16h16v16z" fill="url(#color-58)" stroke="none" stroke-width="0"/><path d="M182.50002,392.12892v-17h26v17z" fill="url(#color-59)" stroke="none" stroke-width="0"/><path d="M357.5,405.12892v-22h10v22z" fill="url(#color-60)" stroke="none" stroke-width="0"/><path d="M374.5,324.12891v-12h12v12z" fill="url(#color-61)" stroke="none" stroke-width="0"/><path d="M425.5,327.12891v-9h16v9z" fill="url(#color-62)" stroke="none" stroke-width="0"/><path d="M472.5,266.12891v-5h6v5z" fill="url(#color-63)" stroke="none" stroke-width="0"/><path d="M457.5,252.1289v-3h7v3z" fill="url(#color-64)" stroke="none" stroke-width="0"/><path d="M510.50002,250.1289v-7h10v7z" fill="url(#color-65)" stroke="none" stroke-width="0"/><path d="M497.50002,197.12891v-13h15v13z" fill="url(#color-66)" stroke="none" stroke-width="0"/><path d="M501.50002,375.12892v-25h14v25z" fill="url(#color-67)" stroke="none" stroke-width="0"/><path d="M64.85603,185.86015v-13.51351h16.51652v13.51351z" fill="url(#color-68)" stroke="none" stroke-width="0"/><path d="M63.35453,86.76105v-15.01502h13.51351v15.01502z" fill="url(#color-69)" stroke="none" stroke-width="0"/><path d="M42.33351,40.2145v-25.52553h22.52252v25.52553z" fill="url(#color-70)" stroke="none" stroke-width="0"/><path d="M10.52717,180.04833l-3.2732,-5.0357l11.33032,-7.36471l3.2732,5.0357z" fill="url(#color-71)" stroke="none" stroke-width="0"/><path d="M19.81098,224.89919v-21.02102h30.03003v21.02102z" fill="url(#color-72)" stroke="none" stroke-width="0"/><path d="M28.81999,333.00729v-54.05405h43.54354v54.05405z" fill="url(#color-73)" stroke="none" stroke-width="0"/><path d="M72.36354,388.56285v-15.01502h25.52553v15.01502z" fill="url(#color-74)" stroke="none" stroke-width="0"/><path d="M15.86949,127.75898v-118.18018h231.23123v118.18018z" fill="url(#color-75)" stroke="#ffffff" stroke-width="2"/><text transform="translate(21.39302,33.53915) scale(0.48447,0.48447)" font-size="40" xml:space="preserve" fill="#ffffff" fill-rule="nonzero" stroke="#ffffff" stroke-width="1" stroke-linecap="butt" stroke-linejoin="miter" stroke-miterlimit="10" stroke-dasharray="" stroke-dashoffset="0" font-family="&quot;OpenSans-Medium&quot;, Sans Serif" font-weight="normal" text-anchor="start" style="mix-blend-mode: normal"><tspan x="0" dy="0">Level 05 - A strong Light</tspan></text><text transform="translate(22.39301,51.54697) scale(0.3647,0.3647)" font-size="40" xml:space="preserve" fill-opacity="0.1451" fill="#00ffc3" fill-rule="nonzero" stroke="#ffffff" stroke-width="1" stroke-linecap="butt" stroke-linejoin="miter" stroke-miterlimit="10" stroke-dasharray="" stroke-dashoffset="0" font-family="&quot;OpenSans-Light&quot;, Sans Serif" font-weight="normal" text-anchor="start" style="mix-blend-mode: normal"><tspan x="0" dy="0">that clears the shadows. Btw,</tspan><tspan x="0" dy="48px">look! there are portals now!</tspan></text></g></g></svg>