<svg version="1.1" xmlns="http://www.w3.org/2000/svg" xmlns:xlink="http://www.w3.org/1999/xlink" width="543.54355" height="368.74375" viewBox="0,0,543.54355,368.74375"><defs><linearGradient x1="114.50062" y1="255.90792" x2="114.50062" y2="291.65792" gradientUnits="userSpaceOnUse" id="color-1"><stop offset="0" stop-color="#ff6300"/><stop offset="1" stop-color="#ffffff"/></linearGradient><linearGradient x1="115.16265" y1="262.6607" x2="115.16265" y2="284.64032" gradientUnits="userSpaceOnUse" id="color-2"><stop offset="0" stop-color="#ff6f13"/><stop offset="1" stop-color="#9c4901"/></linearGradient></defs><g transform="translate(-46.54655,4.68469)"><g data-paper-data="{&quot;isPaintingLayer&quot;:true}" fill-rule="nonzero" stroke-linecap="butt" stroke-linejoin="miter" stroke-miterlimit="10" stroke-dasharray="" stroke-dashoffset="0" style="mix-blend-mode: normal"><path d="M46.54655,217.53754v-13.51351h540.54054v13.51351z" fill="#ffffff" stroke="none" stroke-width="2"/><path d="M48.04805,213.03303v-217.71772h64.56456v217.71772z" fill="#ffffff" stroke="none" stroke-width="0"/><path d="M49.54955,152.97297v-21.02102h400.9009v21.02102z" fill="#ffffff" stroke="none" stroke-width="0"/><path d="M503.003,214.53453v-216.21622h85.58559v216.21622z" fill="#ffffff" stroke="none" stroke-width="0"/><path d="M250.75075,80.9009v-24.02402h273.27327v24.02402z" fill="#ffffff" stroke="none" stroke-width="0"/><path d="M376.87688,104.92492v-37.53754h22.52252v37.53754z" fill="#ffffff" stroke="none" stroke-width="0"/><path d="M294.29429,136.45646v-30.03003h19.51952v30.03003z" fill="#ffffff" stroke="none" stroke-width="0"/><path d="M235.73574,107.92793v-51.05105h16.51652v51.05105z" fill="#ffffff" stroke="none" stroke-width="0"/><path d="M51.05105,19.33934v-24.02402h537.53754v24.02402z" fill="#ffffff" stroke="none" stroke-width="0"/><path d="M515.01502,358.67868v-148.64865h75.07508v148.64865z" fill="#ffffff" stroke="none" stroke-width="0"/><path d="M333.33333,364.05906v-21.27127h204.2042v21.27127z" fill="#ffffff" stroke="none" stroke-width="0"/><path d="M96.62562,273.78292c0,-9.8721 8.00292,-17.875 17.875,-17.875c9.87208,0 17.875,8.0029 17.875,17.875c0,9.8721 -8.00292,17.875 -17.875,17.875c-9.87208,0 -17.875,-8.0029 -17.875,-17.875z" fill="url(#color-1)" stroke="#000000" stroke-width="2"/><path d="M104.17284,273.65051c0,-6.0695 4.9203,-10.98981 10.98981,-10.98981c6.06951,0 10.98981,4.92032 10.98981,10.98981c0,6.0695 -4.9203,10.98981 -10.98981,10.98981c-6.06951,0 -10.98981,-4.92032 -10.98981,-10.98981z" fill="url(#color-2)" stroke="#000000" stroke-width="2.5"/></g></g></svg>