<svg version="1.1" xmlns="http://www.w3.org/2000/svg" xmlns:xlink="http://www.w3.org/1999/xlink" width="84.38266" height="69.95617" viewBox="0,0,84.38266,69.95617"><g transform="translate(-279.66118,-153.18647)"><g data-paper-data="{&quot;isPaintingLayer&quot;:true}" fill-rule="nonzero" stroke-linejoin="miter" stroke-miterlimit="10" stroke-dasharray="" stroke-dashoffset="0" style="mix-blend-mode: normal"><path d="M344.59422,177.30377c0,13.18153 -11.01121,23.86729 -24.59422,23.86729c-13.58301,0 -24.59422,-10.68574 -24.59422,-23.86729c0,-13.18153 11.0112,-23.8673 24.59422,-23.8673c13.58301,0 24.59422,10.68574 24.59422,23.8673z" fill="#000000" stroke="#000000" stroke-width="0.5" stroke-linecap="butt"/><text transform="translate(279.86409,218.06989) scale(0.40582,0.40582)" font-size="40" xml:space="preserve" fill="#ffffff" fill-rule="nonzero" stroke="none" stroke-width="1" stroke-linecap="butt" stroke-linejoin="miter" stroke-miterlimit="10" stroke-dasharray="" stroke-dashoffset="0" font-family="&quot;OpenSans-Bold&quot;, Sans Serif" font-weight="normal" text-anchor="start" style="mix-blend-mode: normal"><tspan x="0" dy="0">Save/Load</tspan></text><path d="M342.43026,177.30377c0,12.02174 -10.04237,21.76729 -22.43026,21.76729c-12.38789,0 -22.43026,-9.74554 -22.43026,-21.76729c0,-12.02174 10.04236,-21.7673 22.43026,-21.7673c12.38789,0 22.43026,9.74554 22.43026,21.7673z" fill="#1d00ff" stroke="#000000" stroke-width="0.5" stroke-linecap="butt"/><path d="M308.72289,192.30376v-29.4h23.0241v29.4z" fill="none" stroke="#00e6ff" stroke-width="2" stroke-linecap="butt"/><path d="M331.424,175.50376l-11.6,-11.8" fill="none" stroke="#00e6ff" stroke-width="2" stroke-linecap="round"/></g></g></svg>