<svg version="1.1" xmlns="http://www.w3.org/2000/svg" xmlns:xlink="http://www.w3.org/1999/xlink" width="45.61792" height="45.61792" viewBox="0,0,45.61792,45.61792"><g transform="translate(-297.19104,-157.19104)"><g data-paper-data="{&quot;isPaintingLayer&quot;:true}" fill-rule="nonzero" stroke-linejoin="miter" stroke-miterlimit="10" stroke-dasharray="" stroke-dashoffset="0" style="mix-blend-mode: normal"><path d="M298.69104,201.30896v-42.61792h42.61792v42.61792z" fill="#ff0000" stroke="#000000" stroke-width="3" stroke-linecap="butt"/><path d="M300.01091,180c0,-11.03967 8.94942,-19.98909 19.98909,-19.98909c11.03967,0 19.98909,8.94942 19.98909,19.98909c0,11.03967 -8.94942,19.98909 -19.98909,19.98909c-11.03967,0 -19.98909,-8.94942 -19.98909,-19.98909z" fill="#ffffff" stroke="#000000" stroke-width="3" stroke-linecap="butt"/><path d="M315.70225,183.17078c0,-0.82843 0.67157,-1.5 1.5,-1.5c0.82843,0 1.5,0.67157 1.5,1.5c0,0.82843 -0.67157,1.5 -1.5,1.5c-0.82843,0 -1.5,-0.67157 -1.5,-1.5z" fill="#000000" stroke="none" stroke-width="0.5" stroke-linecap="butt"/><path d="M320.99037,182.95926c0,-0.82843 0.67157,-1.5 1.5,-1.5c0.82843,0 1.5,0.67157 1.5,1.5c0,0.82843 -0.67157,1.5 -1.5,1.5c-0.82843,0 -1.5,-0.67157 -1.5,-1.5z" fill="#000000" stroke="none" stroke-width="0.5" stroke-linecap="butt"/><path d="M316.33683,188.24738c0,-0.82843 0.67157,-1.5 1.5,-1.5c0.82843,0 1.5,0.67157 1.5,1.5c0,0.82843 -0.67157,1.5 -1.5,1.5c-0.82843,0 -1.5,-0.67157 -1.5,-1.5z" fill="#000000" stroke="none" stroke-width="0.5" stroke-linecap="butt"/><path d="M321.83647,188.24738c0,-0.82843 0.67157,-1.5 1.5,-1.5c0.82843,0 1.5,0.67157 1.5,1.5c0,0.82843 -0.67157,1.5 -1.5,1.5c-0.82843,0 -1.5,-0.67157 -1.5,-1.5z" fill="#000000" stroke="none" stroke-width="0.5" stroke-linecap="butt"/><path d="M316.75988,193.5355c0,-0.82843 0.67157,-1.5 1.5,-1.5c0.82843,0 1.5,0.67157 1.5,1.5c0,0.82843 -0.67157,1.5 -1.5,1.5c-0.82843,0 -1.5,-0.67157 -1.5,-1.5z" fill="#000000" stroke="none" stroke-width="0.5" stroke-linecap="butt"/><path d="M320.99037,193.5355c0,-0.82843 0.67157,-1.5 1.5,-1.5c0.82843,0 1.5,0.67157 1.5,1.5c0,0.82843 -0.67157,1.5 -1.5,1.5c-0.82843,0 -1.5,-0.67157 -1.5,-1.5z" fill="#000000" stroke="none" stroke-width="0.5" stroke-linecap="butt"/><path d="M307.47212,173.75793c0,-2.74531 2.22552,-4.97083 4.97083,-4.97083c2.74531,0 4.97083,2.22552 4.97083,4.97083c0,2.74531 -2.22552,4.97083 -4.97083,4.97083c-2.74531,0 -4.97083,-2.22552 -4.97083,-4.97083z" fill="#ff0000" stroke="#000000" stroke-width="3" stroke-linecap="butt"/><path d="M322.6253,173.25829c0,-2.74532 2.22552,-4.97083 4.97083,-4.97083c2.74532,0 4.97083,2.22551 4.97083,4.97083c0,2.74532 -2.22552,4.97083 -4.97083,4.97083c-2.74532,0 -4.97083,-2.22552 -4.97083,-4.97083z" fill="#ff0000" stroke="#000000" stroke-width="3" stroke-linecap="butt"/><path d="M327.35544,162.44135l0.63457,4.44202" fill="none" stroke="#000000" stroke-width="3" stroke-linecap="round"/><path d="M329.04764,178.72876l0.42305,5.49964" fill="none" stroke="#000000" stroke-width="3" stroke-linecap="round"/><path d="M303.66467,181.90163v-4.01897l-0.21152,-8.67252l5.07659,1.6922" fill="none" stroke="#000000" stroke-width="3" stroke-linecap="round"/><path d="M303.66467,178.94029l4.2305,2.11525" fill="none" stroke="#000000" stroke-width="3" stroke-linecap="round"/><path d="M311.49109,162.01831l-0.42305,5.28812" fill="none" stroke="#000000" stroke-width="3" stroke-linecap="round"/><path d="M311.70261,163.92203l4.44202,1.26915l3.80745,-0.63457l1.05762,1.6922" fill="none" stroke="#000000" stroke-width="3" stroke-linecap="round"/><path d="M315.93311,164.97965l0.21152,2.32677" fill="none" stroke="#000000" stroke-width="3" stroke-linecap="round"/><path d="M312.76023,179.78639v2.32677l-1.26915,2.5383" fill="none" stroke="#000000" stroke-width="3" stroke-linecap="round"/><path d="M312.76023,182.53621l1.48067,1.26915" fill="none" stroke="#000000" stroke-width="3" stroke-linecap="round"/><path d="M302.184,181.69011l2.5383,2.96135" fill="none" stroke="#000000" stroke-width="3" stroke-linecap="round"/><path d="M316.35616,177.24809l1.90372,1.05762" fill="none" stroke="#000000" stroke-width="3" stroke-linecap="round"/><path d="M319.95208,163.92203l2.32677,-0.42305" fill="none" stroke="#000000" stroke-width="3" stroke-linecap="round"/></g></g></svg>