<svg version="1.1" xmlns="http://www.w3.org/2000/svg" xmlns:xlink="http://www.w3.org/1999/xlink" width="185.1463" height="172.28794" viewBox="0,0,185.1463,172.28794"><defs><radialGradient cx="320" cy="180" r="27.01224" gradientUnits="userSpaceOnUse" id="color-1"><stop offset="0" stop-color="#ffffff"/><stop offset="1" stop-color="#1a1a1a"/></radialGradient><linearGradient x1="320" y1="152.98776" x2="320" y2="207.01224" gradientUnits="userSpaceOnUse" id="color-2"><stop offset="0" stop-color="#000000"/><stop offset="1" stop-color="#ffffff"/></linearGradient></defs><g transform="translate(-174.95788,-35.9743)"><g data-paper-data="{&quot;isPaintingLayer&quot;:true}" fill-rule="nonzero" stroke-linecap="butt" stroke-linejoin="miter" stroke-miterlimit="10" stroke-dasharray="" stroke-dashoffset="0" style="mix-blend-mode: normal"><text transform="translate(175.20788,57.8243) scale(0.5,0.5)" font-size="40" xml:space="preserve" fill="none" fill-rule="nonzero" stroke="none" stroke-width="1" stroke-linecap="butt" stroke-linejoin="miter" stroke-miterlimit="10" stroke-dasharray="" stroke-dashoffset="0" font-family="Sans Serif" font-weight="normal" text-anchor="start" style="mix-blend-mode: normal"><tspan x="0" dy="0">II</tspan></text><path d="M292.98776,180c0,-14.91845 12.09379,-27.01224 27.01224,-27.01224c14.91845,0 27.01224,12.09379 27.01224,27.01224c0,14.91845 -12.09379,27.01224 -27.01224,27.01224c-14.91845,0 -27.01224,-12.09379 -27.01224,-27.01224z" fill="url(#color-1)" stroke="url(#color-2)" stroke-width="2.5"/><path d="M303.91749,196.02853v-19.7891h18.7097v19.7891z" fill-opacity="0.93333" fill="#ff0000" stroke="none" stroke-width="0"/><path d="M315.79095,180.55705v-17.27049h17.27049v17.27049z" fill-opacity="0.93333" fill="#ff0000" stroke="none" stroke-width="0"/><path d="M313.27234,198.54715v-15.47148h15.47148v15.47148z" fill-opacity="0.93333" fill="#ff0000" stroke="none" stroke-width="0"/><path d="M303.91749,174.08062v-5.75683h5.75683v5.75683z" fill-opacity="0.93333" fill="#ff0000" stroke="none" stroke-width="0"/><path d="M308.23511,166.52478v-4.31762h4.31762v4.31762z" fill-opacity="0.93333" fill="#ff0000" stroke="none" stroke-width="0"/><path d="M332.34184,190.99131v-5.39703h5.39703v5.39703z" fill-opacity="0.93333" fill="#ff0000" stroke="none" stroke-width="0"/><text transform="translate(280.82176,149.97389) scale(0.31289,0.31289)" font-size="40" xml:space="preserve" fill-opacity="0.93333" fill="#ffffff" fill-rule="nonzero" stroke="none" stroke-width="1" stroke-linecap="butt" stroke-linejoin="miter" stroke-miterlimit="10" stroke-dasharray="" stroke-dashoffset="0" font-family="&quot;OpenSans-Bold&quot;, Sans Serif" font-weight="normal" text-anchor="start" style="mix-blend-mode: normal"><tspan x="0" dy="0">Delete Mode</tspan></text></g></g></svg>