<svg version="1.1" xmlns="http://www.w3.org/2000/svg" xmlns:xlink="http://www.w3.org/1999/xlink" width="58.75994" height="32.0665" viewBox="0,0,58.75994,32.0665"><g transform="translate(-142.16696,-120.07405)"><g data-paper-data="{&quot;isPaintingLayer&quot;:true}" fill-rule="nonzero" stroke="none" stroke-linecap="butt" stroke-linejoin="miter" stroke-miterlimit="10" stroke-dasharray="" stroke-dashoffset="0" style="mix-blend-mode: normal"><path d="M200.9269,120.19416v7.95787h-7.33201v-7.95787z" fill="#000000" stroke-width="NaN"/><path d="M193.5863,120.07405v7.95787h-7.33201v-7.95787z" fill="#ffffff" stroke-width="NaN"/><path d="M186.26436,120.13386v7.95787h-7.33201v-7.95787z" fill="#000000" stroke-width="NaN"/><path d="M178.92377,120.08601v7.95787h-7.33201v-7.95787z" fill="#ffffff" stroke-width="NaN"/><path d="M200.9269,128.14216v7.95787h-7.33201v-7.95787z" fill="#ffffff" stroke-width="NaN"/><path d="M193.5863,128.02206v7.95787h-7.332v-7.95787z" fill="#000000" stroke-width="NaN"/><path d="M186.26436,128.08186v7.95787h-7.33201v-7.95786z" fill="#ffffff" stroke-width="NaN"/><path d="M178.92377,128.03402v7.95787h-7.33201v-7.95786z" fill="#000000" stroke-width="NaN"/><path d="M200.86033,136.23467v7.95787h-7.33201v-7.95786z" fill="#000000" stroke-width="NaN"/><path d="M193.51973,136.11457v7.95787h-7.332v-7.95787z" fill="#ffffff" stroke-width="NaN"/><path d="M186.19779,136.17438v7.95786h-7.33201v-7.95786z" fill="#000000" stroke-width="NaN"/><path d="M178.8572,136.12653v7.95786h-7.33201v-7.95787z" fill="#ffffff" stroke-width="NaN"/><path d="M200.86033,144.18268v7.95787h-7.332v-7.95787z" fill="#ffffff" stroke-width="NaN"/><path d="M193.51973,144.06257v7.95786h-7.33201v-7.95786z" fill="#000000" stroke-width="NaN"/><path d="M186.19779,144.12238c0,0 0,0.57324 0,1.09479c0,1.30584 0,6.86308 0,6.86308h-7.332v-7.95787z" fill="#ffffff" stroke-width="NaN"/><path d="M178.8572,144.07453v7.95786h-7.33201v-7.95786z" fill="#000000" stroke-width="NaN"/><path d="M171.56866,120.19415v7.95787h-7.33201v-7.95787z" fill="#000000" stroke-width="NaN"/><path d="M164.22806,120.07405v7.95787h-7.33201v-7.95787z" fill="#ffffff" stroke-width="NaN"/><path d="M156.90612,120.13386v7.95786h-7.332v-7.95787z" fill="#000000" stroke-width="NaN"/><path d="M149.56553,120.08601v7.95786h-7.33201v-7.95786z" fill="#ffffff" stroke-width="NaN"/><path d="M171.56866,128.14216v7.95787h-7.332v-7.95787z" fill="#ffffff" stroke-width="NaN"/><path d="M164.22806,128.02206v7.95786h-7.33201v-7.95786z" fill="#000000" stroke-width="NaN"/><path d="M156.90612,128.08186v7.95787h-7.332v-7.95787z" fill="#ffffff" stroke-width="NaN"/><path d="M149.56553,128.03401v7.95787h-7.33201v-7.95787z" fill="#000000" stroke-width="NaN"/><path d="M171.50209,136.23467v7.95786h-7.332v-7.95786z" fill="#000000" stroke-width="NaN"/><path d="M164.16149,136.11457v7.95786h-7.33201v-7.95787z" fill="#ffffff" stroke-width="NaN"/><path d="M156.83956,136.17438v7.95787h-7.33201v-7.95787z" fill="#000000" stroke-width="NaN"/><path d="M149.49896,136.12652v7.95787h-7.332v-7.95787z" fill="#ffffff" stroke-width="NaN"/><path d="M171.50209,144.18267v7.95787h-7.332v-7.95787z" fill="#ffffff" stroke-width="NaN"/><path d="M164.16149,144.06257v7.95787h-7.33201v-7.95787z" fill="#000000" stroke-width="NaN"/><path d="M156.83956,144.12238v7.95787h-7.33201v-7.95787z" fill="#ffffff" stroke-width="NaN"/><path d="M149.49896,144.07453v7.95787h-7.332v-7.95787z" fill="#000000" stroke-width="NaN"/></g></g></svg>