<svg version="1.1" xmlns="http://www.w3.org/2000/svg" xmlns:xlink="http://www.w3.org/1999/xlink" width="32.0665" height="58.75995" viewBox="0,0,32.0665,58.75995"><g transform="translate(-196.71368,-162.12732)"><g data-paper-data="{&quot;isPaintingLayer&quot;:true}" fill-rule="nonzero" stroke="none" stroke-linecap="butt" stroke-linejoin="miter" stroke-miterlimit="10" stroke-dasharray="" stroke-dashoffset="0" style="mix-blend-mode: normal"><g><path d="M228.66007,220.88727l-7.95787,0l0,-7.33201h7.95787z" fill="#000000" stroke-width="NaN"/><path d="M228.78018,213.54667h-7.95787l0,-7.33201l7.95787,0z" fill="#ffffff" stroke-width="NaN"/><path d="M228.72037,206.22473l-7.95787,0l0,-7.33201l7.95787,0z" fill="#000000" stroke-width="NaN"/><path d="M228.76822,198.88414h-7.95787v-7.33201h7.95787z" fill="#ffffff" stroke-width="NaN"/><path d="M220.71207,220.88727l-7.95787,0v-7.33201l7.95787,0z" fill="#ffffff" stroke-width="NaN"/><path d="M220.83217,213.54667l-7.95787,0l0,-7.332h7.95787z" fill="#000000" stroke-width="NaN"/><path d="M220.77237,206.22473l-7.95787,0l0,-7.33201h7.95786z" fill="#ffffff" stroke-width="NaN"/><path d="M220.82021,198.88414l-7.95787,0v-7.33201l7.95786,0z" fill="#000000" stroke-width="NaN"/><path d="M212.61956,220.8207l-7.95787,0l0,-7.33201l7.95786,0z" fill="#000000" stroke-width="NaN"/><path d="M212.73966,213.4801l-7.95787,0v-7.332h7.95787z" fill="#ffffff" stroke-width="NaN"/><path d="M212.67985,206.15816l-7.95786,0v-7.33201l7.95786,0z" fill="#000000" stroke-width="NaN"/><path d="M212.7277,198.81757l-7.95786,0l0,-7.33201l7.95787,0z" fill="#ffffff" stroke-width="NaN"/><path d="M204.67155,220.8207h-7.95787l0,-7.332l7.95787,0z" fill="#ffffff" stroke-width="NaN"/><path d="M204.79166,213.4801l-7.95786,0v-7.33201l7.95786,0z" fill="#000000" stroke-width="NaN"/><path d="M204.73185,206.15816c0,0 -0.57324,0 -1.09479,0c-1.30584,0 -6.86308,0 -6.86308,0l0,-7.332l7.95787,0z" fill="#ffffff" stroke-width="NaN"/><path d="M204.7797,198.81757l-7.95786,0l0,-7.33201l7.95786,0z" fill="#000000" stroke-width="NaN"/><path d="M228.66008,191.52903h-7.95787l0,-7.33201h7.95787z" fill="#000000" stroke-width="NaN"/><path d="M228.78018,184.18843l-7.95787,0l0,-7.33201l7.95787,0z" fill="#ffffff" stroke-width="NaN"/><path d="M228.72037,176.86649l-7.95786,0v-7.332h7.95787z" fill="#000000" stroke-width="NaN"/><path d="M228.76822,169.5259l-7.95786,0l0,-7.33201l7.95786,0z" fill="#ffffff" stroke-width="NaN"/><path d="M220.71207,191.52903h-7.95787l0,-7.332l7.95787,0z" fill="#ffffff" stroke-width="NaN"/><path d="M220.83217,184.18843l-7.95786,0l0,-7.33201h7.95786z" fill="#000000" stroke-width="NaN"/><path d="M220.77237,176.86649l-7.95787,0l0,-7.332h7.95787z" fill="#ffffff" stroke-width="NaN"/><path d="M220.82022,169.5259h-7.95787v-7.33201l7.95787,0z" fill="#000000" stroke-width="NaN"/><path d="M212.61956,191.46246h-7.95786v-7.332l7.95786,0z" fill="#000000" stroke-width="NaN"/><path d="M212.73966,184.12186l-7.95786,0v-7.33201h7.95787z" fill="#ffffff" stroke-width="NaN"/><path d="M212.67985,176.79993l-7.95787,0v-7.33201h7.95787z" fill="#000000" stroke-width="NaN"/><path d="M212.72771,169.45933l-7.95787,0v-7.332l7.95787,0z" fill="#ffffff" stroke-width="NaN"/><path d="M204.67156,191.46246h-7.95787l0,-7.332l7.95787,0z" fill="#ffffff" stroke-width="NaN"/><path d="M204.79166,184.12186h-7.95787l0,-7.33201l7.95787,0z" fill="#000000" stroke-width="NaN"/><path d="M204.73185,176.79993h-7.95787v-7.33201l7.95787,0z" fill="#ffffff" stroke-width="NaN"/><path d="M204.7797,169.45933l-7.95787,0l0,-7.332h7.95787z" fill="#000000" stroke-width="NaN"/></g></g></g></svg>