<svg version="1.1" xmlns="http://www.w3.org/2000/svg" xmlns:xlink="http://www.w3.org/1999/xlink" width="291.9629" height="36.30497" viewBox="0,0,291.9629,36.30497"><g transform="translate(-174.01855,-161.29525)"><g data-paper-data="{&quot;isPaintingLayer&quot;:true}" fill-rule="nonzero" stroke="none" stroke-linecap="butt" stroke-linejoin="miter" stroke-miterlimit="10" stroke-dasharray="" stroke-dashoffset="0" style="mix-blend-mode: normal"><path d="M194.95304,197.60022c0,0 -11.38761,-2.6052 -16.85236,-6.8474c-4.73237,-3.67367 -4.04764,-9.90215 -4.04764,-12.8408c0,-2.43435 2.14124,-6.73895 5.16917,-10.17443c4.06665,-4.61401 15.73083,-6.44233 15.73083,-6.44233h254c0,0 9.13866,1.96944 13.76557,6.10312c3.78879,3.3849 3.23443,8.72358 3.23443,11.397c0,2.82495 0.41964,7.01751 -3.45487,10.72747c-4.56812,4.37412 -13.54513,8.07738 -13.54513,8.07738z" fill="#3a7f00" stroke-width="0"/><text transform="translate(276.74805,185.76875) scale(0.5,0.5)" font-size="40" xml:space="preserve" fill="#ffffff" fill-rule="nonzero" stroke="none" stroke-width="1" stroke-linecap="butt" stroke-linejoin="miter" stroke-miterlimit="10" stroke-dasharray="" stroke-dashoffset="0" font-family="&quot;OpenSans-Medium&quot;, Sans Serif" font-weight="normal" text-anchor="start" style="mix-blend-mode: normal"><tspan x="0" dy="0">GO BACK</tspan></text></g></g></svg>