<svg version="1.1" xmlns="http://www.w3.org/2000/svg" xmlns:xlink="http://www.w3.org/1999/xlink" width="64.23438" height="72.62465" viewBox="0,0,64.23438,72.62465"><g transform="translate(-287.91247,-157.19104)"><g data-paper-data="{&quot;isPaintingLayer&quot;:true}" fill-rule="nonzero" stroke-linejoin="miter" stroke-miterlimit="10" stroke-dasharray="" stroke-dashoffset="0" style="mix-blend-mode: normal"><path d="M298.69104,201.30896v-42.61792h42.61792v42.61792z" fill="#ff0000" stroke="#000000" stroke-width="3" stroke-linecap="butt"/><path d="M300.01091,180c0,-11.03967 8.94942,-19.98909 19.98909,-19.98909c11.03967,0 19.98909,8.94942 19.98909,19.98909c0,11.03967 -8.94942,19.98909 -19.98909,19.98909c-11.03967,0 -19.98909,-8.94942 -19.98909,-19.98909z" fill="#ffffff" stroke="#000000" stroke-width="3" stroke-linecap="butt"/><path d="M315.70226,183.17078c0,-0.82843 0.67157,-1.5 1.5,-1.5c0.82843,0 1.5,0.67157 1.5,1.5c0,0.82843 -0.67157,1.5 -1.5,1.5c-0.82843,0 -1.5,-0.67157 -1.5,-1.5z" fill="#000000" stroke="none" stroke-width="0.5" stroke-linecap="butt"/><path d="M320.99038,182.95926c0,-0.82843 0.67157,-1.5 1.5,-1.5c0.82843,0 1.5,0.67157 1.5,1.5c0,0.82843 -0.67157,1.5 -1.5,1.5c-0.82843,0 -1.5,-0.67157 -1.5,-1.5z" fill="#000000" stroke="none" stroke-width="0.5" stroke-linecap="butt"/><path d="M316.33683,188.24738c0,-0.82843 0.67157,-1.5 1.5,-1.5c0.82843,0 1.5,0.67157 1.5,1.5c0,0.82843 -0.67157,1.5 -1.5,1.5c-0.82843,0 -1.5,-0.67157 -1.5,-1.5z" fill="#000000" stroke="none" stroke-width="0.5" stroke-linecap="butt"/><path d="M321.83648,188.24738c0,-0.82843 0.67157,-1.5 1.5,-1.5c0.82843,0 1.5,0.67157 1.5,1.5c0,0.82843 -0.67157,1.5 -1.5,1.5c-0.82843,0 -1.5,-0.67157 -1.5,-1.5z" fill="#000000" stroke="none" stroke-width="0.5" stroke-linecap="butt"/><path d="M316.75988,193.5355c0,-0.82843 0.67157,-1.5 1.5,-1.5c0.82843,0 1.5,0.67157 1.5,1.5c0,0.82843 -0.67157,1.5 -1.5,1.5c-0.82843,0 -1.5,-0.67157 -1.5,-1.5z" fill="#000000" stroke="none" stroke-width="0.5" stroke-linecap="butt"/><path d="M320.99038,193.5355c0,-0.82843 0.67157,-1.5 1.5,-1.5c0.82843,0 1.5,0.67157 1.5,1.5c0,0.82843 -0.67157,1.5 -1.5,1.5c-0.82843,0 -1.5,-0.67157 -1.5,-1.5z" fill="#000000" stroke="none" stroke-width="0.5" stroke-linecap="butt"/><path d="M307.47212,173.75793c0,-2.74532 2.22552,-4.97083 4.97083,-4.97083c2.74532,0 4.97083,2.22551 4.97083,4.97083c0,2.74532 -2.22552,4.97083 -4.97083,4.97083c-2.74532,0 -4.97083,-2.22552 -4.97083,-4.97083z" fill="#ff0000" stroke="#000000" stroke-width="3" stroke-linecap="butt"/><path d="M322.62531,173.25829c0,-2.74532 2.22552,-4.97083 4.97083,-4.97083c2.74532,0 4.97083,2.22552 4.97083,4.97083c0,2.74532 -2.22552,4.97083 -4.97083,4.97083c-2.74532,0 -4.97083,-2.22552 -4.97083,-4.97083z" fill="#ff0000" stroke="#000000" stroke-width="3" stroke-linecap="butt"/><path d="M327.99002,166.88337l-0.63457,-4.44202" fill="none" stroke="#000000" stroke-width="3" stroke-linecap="round"/><path d="M329.04764,178.72876l0.42305,5.49965" fill="none" stroke="#000000" stroke-width="3" stroke-linecap="round"/><path d="M303.66467,181.90164v-4.01897l-0.21152,-8.67252l5.07659,1.6922" fill="none" stroke="#000000" stroke-width="3" stroke-linecap="round"/><path d="M303.66467,178.94029l4.23049,2.11525" fill="none" stroke="#000000" stroke-width="3" stroke-linecap="round"/><path d="M311.49109,162.01831l-0.42305,5.28812" fill="none" stroke="#000000" stroke-width="3" stroke-linecap="round"/><path d="M311.70261,163.92203l4.44202,1.26914l3.80745,-0.63457l1.05763,1.6922" fill="none" stroke="#000000" stroke-width="3" stroke-linecap="round"/><path d="M315.93311,164.97965l0.21152,2.32677" fill="none" stroke="#000000" stroke-width="3" stroke-linecap="round"/><path d="M312.76024,179.78639v2.32677l-1.26915,2.5383" fill="none" stroke="#000000" stroke-width="3" stroke-linecap="round"/><path d="M312.76024,182.53621l1.48068,1.26914" fill="none" stroke="#000000" stroke-width="3" stroke-linecap="round"/><path d="M302.184,181.69011l2.5383,2.96134" fill="none" stroke="#000000" stroke-width="3" stroke-linecap="round"/><path d="M316.35616,177.24809l1.90373,1.05762" fill="none" stroke="#000000" stroke-width="3" stroke-linecap="round"/><path d="M322.27885,163.49898l-2.32677,0.42305" fill="none" stroke="#000000" stroke-width="3" stroke-linecap="round"/><text transform="translate(288.16247,223.56569) scale(0.5,0.5)" font-size="40" xml:space="preserve" fill="#ffffff" fill-rule="nonzero" stroke="none" stroke-width="1" stroke-linecap="butt" stroke-linejoin="miter" stroke-miterlimit="10" stroke-dasharray="" stroke-dashoffset="0" font-family="&quot;OpenSans-Light&quot;, Sans Serif" font-weight="normal" text-anchor="start" style="mix-blend-mode: normal"><tspan x="0" dy="0">Physco</tspan></text></g></g></svg>