<svg version="1.1" xmlns="http://www.w3.org/2000/svg" xmlns:xlink="http://www.w3.org/1999/xlink" width="326.5" height="199.66666" viewBox="0,0,326.5,199.66666"><defs><linearGradient x1="398.5" y1="145.87677" x2="398.5" y2="192.87677" gradientUnits="userSpaceOnUse" id="color-1"><stop offset="0" stop-color="#a2a2a2"/><stop offset="1" stop-color="#1a1a1a"/></linearGradient><linearGradient x1="351.25" y1="129.71011" x2="351.25" y2="144.29343" gradientUnits="userSpaceOnUse" id="color-2"><stop offset="0" stop-color="#a2a2a2"/><stop offset="1" stop-color="#1a1a1a"/></linearGradient><linearGradient x1="287.5" y1="129.87678" x2="287.5" y2="189.87678" gradientUnits="userSpaceOnUse" id="color-3"><stop offset="0" stop-color="#a2a2a2"/><stop offset="1" stop-color="#1a1a1a"/></linearGradient><linearGradient x1="428" y1="174.87677" x2="428" y2="192.87677" gradientUnits="userSpaceOnUse" id="color-4"><stop offset="0" stop-color="#a2a2a2"/><stop offset="1" stop-color="#1a1a1a"/></linearGradient><linearGradient x1="229.5" y1="176.87677" x2="229.5" y2="189.87677" gradientUnits="userSpaceOnUse" id="color-5"><stop offset="0" stop-color="#a2a2a2"/><stop offset="1" stop-color="#1a1a1a"/></linearGradient><linearGradient x1="172" y1="176.8768" x2="172" y2="295.8768" gradientUnits="userSpaceOnUse" id="color-6"><stop offset="0" stop-color="#a2a2a2"/><stop offset="1" stop-color="#1a1a1a"/></linearGradient><linearGradient x1="318.5" y1="225.87677" x2="318.5" y2="241.87677" gradientUnits="userSpaceOnUse" id="color-7"><stop offset="0" stop-color="#a2a2a2"/><stop offset="1" stop-color="#1a1a1a"/></linearGradient><linearGradient x1="459" y1="173.87677" x2="459" y2="243.87677" gradientUnits="userSpaceOnUse" id="color-8"><stop offset="0" stop-color="#a2a2a2"/><stop offset="1" stop-color="#1a1a1a"/></linearGradient><linearGradient x1="205" y1="295.87676" x2="205" y2="311.87676" gradientUnits="userSpaceOnUse" id="color-9"><stop offset="0" stop-color="#a2a2a2"/><stop offset="1" stop-color="#1a1a1a"/></linearGradient><linearGradient x1="237" y1="242.37677" x2="237" y2="295.87676" gradientUnits="userSpaceOnUse" id="color-10"><stop offset="0" stop-color="#a2a2a2"/><stop offset="1" stop-color="#1a1a1a"/></linearGradient><linearGradient x1="438.75" y1="310.00001" x2="438.75" y2="326.50001" gradientUnits="userSpaceOnUse" id="color-11"><stop offset="0" stop-color="#a2a2a2"/><stop offset="1" stop-color="#1a1a1a"/></linearGradient><linearGradient x1="478.5" y1="230.87677" x2="478.5" y2="326.37676" gradientUnits="userSpaceOnUse" id="color-12"><stop offset="0" stop-color="#a2a2a2"/><stop offset="1" stop-color="#1a1a1a"/></linearGradient><linearGradient x1="399.5" y1="244.87677" x2="399.5" y2="327.37676" gradientUnits="userSpaceOnUse" id="color-13"><stop offset="0" stop-color="#a2a2a2"/><stop offset="1" stop-color="#1a1a1a"/></linearGradient></defs><g transform="translate(-162.5,-128.7101)"><g data-paper-data="{&quot;isPaintingLayer&quot;:true}" fill-rule="nonzero" stroke="#000000" stroke-width="2" stroke-linecap="butt" stroke-linejoin="miter" stroke-miterlimit="10" stroke-dasharray="" stroke-dashoffset="0" style="mix-blend-mode: normal"><path d="M390.5,192.87677v-47h16v47z" fill="url(#color-1)"/><path d="M296,144.29343v-14.58333h110.5v14.58333z" fill="url(#color-2)"/><path d="M279.5,189.87678v-60h16v60z" fill="url(#color-3)"/><path d="M406.5,192.87677v-18h43v18z" fill="url(#color-4)"/><path d="M180.5,189.87677v-13h98v13z" fill="url(#color-5)"/><path d="M163.5,295.8768v-119h17v119z" fill="url(#color-6)"/><path d="M228.5,241.87677v-16h180v16z" fill="url(#color-7)"/><path d="M449.5,243.87677v-70h19v70z" fill="url(#color-8)"/><path d="M163.5,311.87676v-16h83v16z" fill="url(#color-9)"/><path d="M228.5,295.87676v-53.5h17v53.5z" fill="url(#color-10)"/><path d="M409.75,326.50001v-16.5h58v16.5z" fill="url(#color-11)"/><path d="M469,326.37676v-95.5h19v95.5z" fill="url(#color-12)"/><path d="M390,327.37676v-82.5h19v82.5z" fill="url(#color-13)"/></g></g></svg>