<svg version="1.1" xmlns="http://www.w3.org/2000/svg" xmlns:xlink="http://www.w3.org/1999/xlink" width="381.03132" height="662.82206" viewBox="0,0,381.03132,662.82206"><defs><linearGradient x1="178.97499" y1="458.30624" x2="178.97499" y2="475.30624" gradientUnits="userSpaceOnUse" id="color-1"><stop offset="0" stop-color="#ffffff" stop-opacity="0.46667"/><stop offset="1" stop-color="#969696"/></linearGradient><linearGradient x1="178.97499" y1="458.30624" x2="178.97499" y2="475.30624" gradientUnits="userSpaceOnUse" id="color-2"><stop offset="0" stop-color="#ffffff"/><stop offset="1" stop-color="#ffffff" stop-opacity="0"/></linearGradient></defs><g transform="translate(10.51566,11.41103)"><g data-paper-data="{&quot;isPaintingLayer&quot;:true}" fill-rule="nonzero" stroke-linecap="butt" stroke-linejoin="miter" stroke-miterlimit="10" stroke-dasharray="" stroke-dashoffset="0" style="mix-blend-mode: normal"><path d="M-10.51566,-10.75013l379.87931,-0.6609l1.15201,662.16116l-379.87931,0.6609z" fill="#000000" stroke="none" stroke-width="NaN"/><text transform="translate(12.46399,83.56727) scale(1.55198,1.55198)" font-size="40" xml:space="preserve" fill="#ffffff" fill-rule="nonzero" stroke="none" stroke-width="1" stroke-linecap="butt" stroke-linejoin="miter" stroke-miterlimit="10" stroke-dasharray="" stroke-dashoffset="0" font-family="&quot;Open Sans Light&quot;, Sans Serif" font-weight="normal" text-anchor="start" style="mix-blend-mode: normal"><tspan x="0" dy="0">Tentang</tspan></text><text transform="translate(17.63492,179.25956) scale(1.70224,1.70224)" font-size="40" xml:space="preserve" fill="#ffffff" fill-rule="nonzero" stroke="none" stroke-width="1" stroke-linecap="butt" stroke-linejoin="miter" stroke-miterlimit="10" stroke-dasharray="" stroke-dashoffset="0" font-family="&quot;ModernSans-Light&quot;, Sans Serif" font-weight="normal" text-anchor="start" style="mix-blend-mode: normal"><tspan x="0" dy="0">KSOS 1.0</tspan></text><text transform="translate(9.97499,273.30624) scale(0.5,0.5)" font-size="40" xml:space="preserve" fill="#ffffff" fill-rule="nonzero" stroke="none" stroke-width="1" stroke-linecap="butt" stroke-linejoin="miter" stroke-miterlimit="10" stroke-dasharray="" stroke-dashoffset="0" font-family="&quot;Open Sans Light&quot;, Sans Serif" font-weight="normal" text-anchor="start" style="mix-blend-mode: normal"><tspan x="0" dy="0">Versi Sebelumnya: KSOSR alpha 1.0.1</tspan><tspan x="0" dy="46.150000000000006px">terakhir dimutakhirkan pada 6 Juli </tspan><tspan x="0" dy="46.150000000000006px">2024.</tspan><tspan x="0" dy="46.150000000000006px"> </tspan><tspan x="0" dy="46.150000000000006px">Versi:1.0.1-beta</tspan><tspan x="0" dy="46.150000000000006px">Berdasarkan dari kodenama:DVORAK.</tspan><tspan x="0" dy="46.150000000000006px">Masih dalam pengembangan.</tspan><tspan x="0" dy="46.150000000000006px">Ini varian DVORAK.</tspan></text><g><path d="M268.79916,65.73117c0,-17.63704 14.29765,-31.93469 31.93469,-31.93469c17.63704,0 31.93469,14.29765 31.93469,31.93469c0,17.63704 -14.29765,31.9347 -31.93469,31.9347c-17.63704,0 -31.93469,-14.29765 -31.93469,-31.9347z" fill="none" stroke="#a5a5a5" stroke-width="2"/><path d="M254.97499,95.65967v-60.45889h13.02192v60.45889z" fill="#ffffff" stroke="none" stroke-width="0"/><path d="M262.2882,64.491v-6.51096h19.84293v6.51096z" fill="#ffffff" stroke="none" stroke-width="0"/><path d="M281.20099,58.60013v-22.94338h10.85159v22.94338z" fill="#ffffff" stroke="none" stroke-width="0"/><path d="M281.20099,94.87547v-30.38447h18.29268v30.38447z" fill="#ffffff" stroke="none" stroke-width="0"/><path d="M311.58545,48.05857v-9.61142h35.03516v9.61142z" fill="#ffffff" stroke="none" stroke-width="0"/><path d="M306.00463,60.77045v-16.12237h8.06119v16.12237z" fill="#ffffff" stroke="none" stroke-width="0"/><path d="M311.58545,72.24213v-9.30137h33.48493v9.30137z" fill="#ffffff" stroke="none" stroke-width="0"/><path d="M335.14892,92.70514v-20.46301h13.02192v20.46301z" fill="#ffffff" stroke="none" stroke-width="0"/><path d="M318.40646,96.11565v-8.37123h24.4936v8.37123z" fill="#ffffff" stroke="none" stroke-width="0"/><path d="M333.90874,69.76176z" fill="none" stroke="#ffffff" stroke-width="2"/></g><text transform="translate(6.97499,497.30625) scale(0.5,0.5)" font-size="40" xml:space="preserve" fill-opacity="0.46667" fill="#ffffff" fill-rule="nonzero" stroke="none" stroke-width="1" stroke-linecap="butt" stroke-linejoin="miter" stroke-miterlimit="10" stroke-dasharray="" stroke-dashoffset="0" font-family="&quot;OpenSans-Bold&quot;, Sans Serif" font-weight="normal" text-anchor="start" style="mix-blend-mode: normal"><tspan x="0" dy="0">Live OS - Penyimpanan Penuh</tspan></text><path d="M7.97499,475.30624v-17h342v17z" fill="url(#color-1)" stroke="url(#color-2)" stroke-width="2"/></g></g></svg>