<svg version="1.1" xmlns="http://www.w3.org/2000/svg" xmlns:xlink="http://www.w3.org/1999/xlink" width="153.99447" height="98.41199" viewBox="0,0,153.99447,98.41199"><defs><linearGradient x1="103.00285" y1="320.00001" x2="256.99732" y2="320.00001" gradientUnits="userSpaceOnUse" id="color-1"><stop offset="0" stop-color="#000000" stop-opacity="0.30588"/><stop offset="1" stop-color="#000000"/></linearGradient></defs><g transform="translate(-103.00284,-270.79401)"><g data-paper-data="{&quot;isPaintingLayer&quot;:true}" fill-rule="nonzero" stroke="none" stroke-linecap="butt" stroke-linejoin="miter" stroke-miterlimit="10" stroke-dasharray="" stroke-dashoffset="0" style="mix-blend-mode: normal"><path d="M103.00285,369.206v-98.41199h153.99447v98.41199z" fill="url(#color-1)" stroke-width="0"/><text transform="translate(159.3394,359.62895) scale(0.40074,0.40073)" font-size="40" xml:space="preserve" fill="#ffffff" fill-rule="nonzero" stroke="none" stroke-width="1" stroke-linecap="butt" stroke-linejoin="miter" stroke-miterlimit="10" stroke-dasharray="" stroke-dashoffset="0" font-family="&quot;Open Sans Light&quot;, Sans Serif" font-weight="normal" text-anchor="start" style="mix-blend-mode: normal"><tspan x="0" dy="0">More</tspan></text><path d="M145.08518,341.12008v-63.38036h41.34578v63.38036z" fill="#ffffff" stroke-width="none"/><path d="M150.08518,335.96932v-53.2296h31.17084v53.2296z" fill="#000000" stroke-width="none"/><path d="M169.84313,290.61386c0,2.32448 -1.82894,4.20885 -4.08506,4.20885c-2.25612,0 -4.08506,-1.88437 -4.08506,-4.20885c0,-2.32448 1.82894,-4.20885 4.08506,-4.20885c2.25612,0 4.08506,1.88437 4.08506,4.20885z" fill="#ffffff" stroke-width="0"/><path d="M197.09355,317.92552l2.47584,-26.62372l7.64199,0.71065l-2.47583,26.62372z" fill="#ffffff" stroke-width="0"/><path d="M215.0862,310.05743l-26.57691,-2.93598l0.84274,-7.62856l26.57691,2.93599z" fill="#ffffff" stroke-width="0"/></g></g></svg>