<svg version="1.1" xmlns="http://www.w3.org/2000/svg" xmlns:xlink="http://www.w3.org/1999/xlink" width="312.00518" height="131.60738" viewBox="0,0,312.00518,131.60738"><defs><linearGradient x1="180" y1="296.58417" x2="180" y2="343.41584" gradientUnits="userSpaceOnUse" id="color-1"><stop offset="0" stop-color="#f300ff"/><stop offset="1" stop-color="#fa66ff"/></linearGradient><linearGradient x1="178.12122" y1="339.50903" x2="178.12122" y2="342.00903" gradientUnits="userSpaceOnUse" id="color-2"><stop offset="0" stop-color="#000000"/><stop offset="1" stop-color="#efff6e"/></linearGradient></defs><g transform="translate(-23.99741,-211.80846)"><g data-paper-data="{&quot;isPaintingLayer&quot;:true}" fill-rule="nonzero" stroke-linejoin="miter" stroke-miterlimit="10" stroke-dasharray="" stroke-dashoffset="0" style="mix-blend-mode: normal"><path d="M81.43289,211.80846z" fill="#0026ff" stroke="none" stroke-width="0" stroke-linecap="butt"/><path d="M23.99741,343.41584v-46.83167h312.00518v46.83167z" fill="url(#color-1)" stroke="none" stroke-width="0" stroke-linecap="butt"/><path d="M326.85795,340.75903h-297.47347" fill="none" stroke="url(#color-2)" stroke-width="2.5" stroke-linecap="round"/><g stroke="none" stroke-width="1" stroke-linecap="butt" font-family="&quot;OpenSans-Medium&quot;, Sans Serif" font-weight="normal" font-size="40" text-anchor="start"><text transform="translate(36.66869,330.35872) scale(0.80371,0.80371)" font-size="40" xml:space="preserve" fill="#000000" fill-rule="nonzero" stroke="none" stroke-width="1" stroke-linecap="butt" stroke-linejoin="miter" stroke-miterlimit="10" stroke-dasharray="" stroke-dashoffset="0" font-family="&quot;OpenSans-Medium&quot;, Sans Serif" font-weight="normal" text-anchor="start" style="mix-blend-mode: normal"><tspan x="0" dy="0">Tap!Dash</tspan></text><text transform="translate(38.60364,329.09293) scale(0.80371,0.80371)" font-size="40" xml:space="preserve" fill="#ffffff" fill-rule="nonzero" stroke="none" stroke-width="1" stroke-linecap="butt" stroke-linejoin="miter" stroke-miterlimit="10" stroke-dasharray="" stroke-dashoffset="0" font-family="&quot;OpenSans-Medium&quot;, Sans Serif" font-weight="normal" text-anchor="start" style="mix-blend-mode: normal"><tspan x="0" dy="0">Tap!Dash</tspan></text></g><g stroke="#ffffff" stroke-width="2.5" stroke-linecap="round"><path d="M320.62533,333.76278l4.48941,-30.72793l-8.99285,1.60555l-15.51246,-3.72611l-3.96738,27.15492l11.62622,5.34789z" fill="none"/><path d="M315.72708,327.70224l2.31193,-16.68154l-4.63108,0.87162l-7.98851,-2.02283l-2.0431,14.74183l5.98721,2.90326z" fill="#ffffff"/><path d="M260.5213,302.33937h32.70329" fill="none"/><path d="M275.88193,309.02868h17.34265" fill="none"/><path d="M255.07075,316.709h36.91508" fill="none"/><path d="M280.58922,322.65504h11.3966" fill="none"/><path d="M286.53528,328.1056h4.70729" fill="none"/><path d="M268.20161,334.54715h33.19879" fill="none"/></g></g></g></svg>