<svg version="1.1" xmlns="http://www.w3.org/2000/svg" xmlns:xlink="http://www.w3.org/1999/xlink" width="18.62781" height="18.62781" viewBox="0,0,18.62781,18.62781"><defs><linearGradient x1="171.43609" y1="320" x2="188.56391" y2="320" gradientUnits="userSpaceOnUse" id="color-1"><stop offset="0" stop-color="#ffffff"/><stop offset="1" stop-color="#1a1a1a"/></linearGradient><linearGradient x1="180" y1="311.43609" x2="180" y2="328.56391" gradientUnits="userSpaceOnUse" id="color-2"><stop offset="0" stop-color="#ffffff"/><stop offset="1" stop-color="#000000"/></linearGradient><linearGradient x1="180" y1="315.7379" x2="180" y2="323.75272" gradientUnits="userSpaceOnUse" id="color-3"><stop offset="0" stop-color="#ffffff"/><stop offset="1" stop-color="#000000"/></linearGradient></defs><g transform="translate(-170.68609,-310.68609)"><g data-paper-data="{&quot;isPaintingLayer&quot;:true}" fill-rule="nonzero" stroke-width="1.5" stroke-linecap="butt" stroke-linejoin="miter" stroke-miterlimit="10" stroke-dasharray="" stroke-dashoffset="0" style="mix-blend-mode: normal"><path d="M171.43609,320c0,-4.72971 3.8342,-8.5639 8.56391,-8.5639c4.72971,0 8.5639,3.83419 8.5639,8.5639c0,4.72971 -3.83419,8.56391 -8.5639,8.56391c-4.72971,0 -8.56391,-3.8342 -8.56391,-8.56391z" fill="url(#color-1)" stroke="url(#color-2)"/><path d="M183.94517,319.74531c0,2.21323 -1.76631,4.00741 -3.94517,4.00741c-2.17886,0 -3.94518,-1.79417 -3.94518,-4.00741c0,-2.21323 1.76632,-4.00741 3.94518,-4.00741c2.17886,0 3.94517,1.79418 3.94517,4.00741z" fill="#000000" stroke="url(#color-3)"/></g></g></svg>