<svg version="1.1" xmlns="http://www.w3.org/2000/svg" xmlns:xlink="http://www.w3.org/1999/xlink" width="45" height="45" viewBox="0,0,45,45"><defs><linearGradient x1="158.5" y1="320" x2="201.5" y2="320" gradientUnits="userSpaceOnUse" id="color-1"><stop offset="0" stop-color="#00ff07"/><stop offset="1" stop-color="#148000"/></linearGradient><linearGradient x1="180" y1="298.5" x2="180" y2="341.5" gradientUnits="userSpaceOnUse" id="color-2"><stop offset="0" stop-color="#ffab00"/><stop offset="1" stop-color="#37ff00"/></linearGradient><linearGradient x1="178.5" y1="320" x2="181.5" y2="320" gradientUnits="userSpaceOnUse" id="color-3"><stop offset="0" stop-color="#00a9ff"/><stop offset="1" stop-color="#006d80"/></linearGradient><linearGradient x1="180" y1="318.5" x2="180" y2="321.5" gradientUnits="userSpaceOnUse" id="color-4"><stop offset="0" stop-color="#81ff00"/><stop offset="1" stop-color="#0400ff"/></linearGradient><linearGradient x1="190.59833" y1="319.15375" x2="190.59833" y2="321.15375" gradientUnits="userSpaceOnUse" id="color-5"><stop offset="0" stop-color="#cbff00"/><stop offset="1" stop-color="#0400ff"/></linearGradient></defs><g transform="translate(-157.5,-297.5)"><g data-paper-data="{&quot;isPaintingLayer&quot;:true}" fill-rule="nonzero" stroke-width="2" stroke-linejoin="miter" stroke-miterlimit="10" stroke-dasharray="" stroke-dashoffset="0" style="mix-blend-mode: normal"><path d="M158.5,320c0,-11.87412 9.62588,-21.5 21.5,-21.5c11.87412,0 21.5,9.62588 21.5,21.5c0,11.87412 -9.62588,21.5 -21.5,21.5c-11.87412,0 -21.5,-9.62588 -21.5,-21.5z" fill="url(#color-1)" stroke="url(#color-2)" stroke-linecap="butt"/><path d="M178.5,320c0,-0.82843 0.67157,-1.5 1.5,-1.5c0.82843,0 1.5,0.67157 1.5,1.5c0,0.82843 -0.67157,1.5 -1.5,1.5c-0.82843,0 -1.5,-0.67157 -1.5,-1.5z" fill="url(#color-3)" stroke="url(#color-4)" stroke-linecap="butt"/><path d="M179.865,320.15375h21.46667" fill="none" stroke="url(#color-5)" stroke-linecap="round"/></g></g></svg>