<svg version="1.1" xmlns="http://www.w3.org/2000/svg" xmlns:xlink="http://www.w3.org/1999/xlink" width="151.65361" height="78.40302" viewBox="0,0,151.65361,78.40302"><g transform="translate(-104.17319,-280.09698)"><g data-paper-data="{&quot;isPaintingLayer&quot;:true}" fill-rule="nonzero" stroke-linecap="butt" stroke-linejoin="miter" stroke-miterlimit="10" stroke-dasharray="" stroke-dashoffset="0" style="mix-blend-mode: normal"><path d="M104.1732,358.5v-77h151.65361v77z" fill="#636363" stroke="none" stroke-width="0"/><text transform="translate(177.01874,328.368) scale(1.1046,1.1046)" font-size="40" xml:space="preserve" fill="#ffffff" fill-rule="nonzero" stroke="none" stroke-width="1" stroke-linecap="butt" stroke-linejoin="miter" stroke-miterlimit="10" stroke-dasharray="" stroke-dashoffset="0" font-family="&quot;OpenSans-Medium&quot;, Sans Serif" font-weight="normal" text-anchor="start" style="mix-blend-mode: normal"><tspan x="0" dy="0">FPS</tspan></text><path d="M116.63854,315.1128c0,-7.89519 6.40031,-14.2955 14.2955,-14.2955c7.89519,0 14.2955,6.40031 14.2955,14.2955c0,7.89519 -6.40031,14.2955 -14.2955,14.2955c-7.89519,0 -14.2955,-6.40031 -14.2955,-14.2955z" fill-opacity="0.40392" fill="#bf0000" stroke="#ff0000" stroke-width="3"/><path d="M120.68004,310.89606c0,-7.89519 6.40031,-14.2955 14.2955,-14.2955c7.89519,0 14.2955,6.40031 14.2955,14.2955c0,7.89519 -6.40031,14.2955 -14.2955,14.2955c-7.89519,0 -14.2955,-6.40031 -14.2955,-14.2955z" fill-opacity="0.40392" fill="#bf6f00" stroke="#ffad00" stroke-width="3"/><path d="M124.87448,306.22053c0,-7.89519 6.40031,-14.2955 14.2955,-14.2955c7.89519,0 14.2955,6.40031 14.2955,14.2955c0,7.89519 -6.40031,14.2955 -14.2955,14.2955c-7.89519,0 -14.2955,-6.40031 -14.2955,-14.2955z" fill-opacity="0.40392" fill="#1fbf00" stroke="#10ff00" stroke-width="3"/><text transform="translate(118.3281,348.74896) scale(0.5,0.5)" font-size="40" xml:space="preserve" fill="#000000" fill-rule="nonzero" stroke="none" stroke-width="1" stroke-linecap="butt" stroke-linejoin="miter" stroke-miterlimit="10" stroke-dasharray="" stroke-dashoffset="0" font-family="&quot;OpenSans-ExtraBold&quot;, Sans Serif" font-weight="normal" text-anchor="start" style="mix-blend-mode: normal"><tspan x="0" dy="0">&amp;KECEPATAN</tspan></text></g></g></svg>