<svg version="1.1" xmlns="http://www.w3.org/2000/svg" xmlns:xlink="http://www.w3.org/1999/xlink" width="118.18833" height="160.20534" viewBox="0,0,118.18833,160.20534"><defs><radialGradient cx="183.14928" cy="364.2169" r="50.32981" gradientUnits="userSpaceOnUse" id="color-1"><stop offset="0" stop-color="#000000" stop-opacity="0.95686"/><stop offset="1" stop-color="#000000" stop-opacity="0"/></radialGradient><linearGradient x1="208.71316" y1="320.13806" x2="248.82105" y2="320.13806" gradientUnits="userSpaceOnUse" id="color-2"><stop offset="0" stop-color="#000000" stop-opacity="0.23137"/><stop offset="1" stop-color="#000000" stop-opacity="0"/></linearGradient><linearGradient x1="130.79424" y1="319.89677" x2="229.20602" y2="320.10324" gradientUnits="userSpaceOnUse" id="color-3"><stop offset="0" stop-color="#ffffff"/><stop offset="1" stop-color="#6f6f6f"/></linearGradient><radialGradient cx="179.74636" cy="313.1436" r="35.65145" gradientUnits="userSpaceOnUse" id="color-4"><stop offset="0" stop-color="#8e8e8e"/><stop offset="1" stop-color="#6d6d6d"/></radialGradient><radialGradient cx="158.94968" cy="297.66987" r="15.10235" gradientUnits="userSpaceOnUse" id="color-5"><stop offset="0" stop-color="#8e8e8e"/><stop offset="1" stop-color="#6d6d6d"/></radialGradient><radialGradient cx="186.67859" cy="306.21137" r="9.90318" gradientUnits="userSpaceOnUse" id="color-6"><stop offset="0" stop-color="#8e8e8e"/><stop offset="1" stop-color="#6d6d6d"/></radialGradient><radialGradient cx="186.92617" cy="326.51289" r="2.5" gradientUnits="userSpaceOnUse" id="color-7"><stop offset="0" stop-color="#8e8e8e"/><stop offset="1" stop-color="#6d6d6d"/></radialGradient></defs><g transform="translate(-130.63271,-242.89971)"><g data-paper-data="{&quot;isPaintingLayer&quot;:true}" fill-rule="nonzero" stroke-linejoin="miter" stroke-miterlimit="10" stroke-dasharray="" stroke-dashoffset="0" style="mix-blend-mode: normal"><path d="M135.15929,362.54313l100.19162,0.45833l0.468,40.10359l-100.19162,-0.45833z" fill="url(#color-1)" stroke="none" stroke-width="0" stroke-linecap="butt"/><path d="M208.71316,396.88771v-153.49931h40.10788v153.49931z" fill="url(#color-2)" stroke="none" stroke-width="0" stroke-linecap="butt"/><path d="M229.04448,397.1003l-98.41177,-0.20646l0.32307,-153.99413l98.41177,0.20646z" fill="url(#color-3)" stroke="none" stroke-width="0" stroke-linecap="butt"/><text transform="translate(143.18123,361.88113) scale(0.25432,0.25431)" font-size="40" xml:space="preserve" fill="#000000" fill-rule="nonzero" stroke="none" stroke-width="1" stroke-linecap="butt" stroke-linejoin="miter" stroke-miterlimit="10" stroke-dasharray="" stroke-dashoffset="0" font-family="&quot;OpenSans-Bold&quot;, Sans Serif" font-weight="normal" text-anchor="start" style="mix-blend-mode: normal"><tspan x="0" dy="0">Hal Hal Agama</tspan></text><path d="M210.69381,336.91122h-66.5989v-47.53527h71.3029v47.04011" fill="none" stroke="url(#color-4)" stroke-width="5.5" stroke-linecap="round"/><path d="M174.05203,290.1187l-15.10235,15.10235l-15.10235,-15.10235" fill="none" stroke="url(#color-5)" stroke-width="5.5" stroke-linecap="round"/><path d="M186.67859,316.11454v-19.80636" fill="none" stroke="url(#color-6)" stroke-width="5.5" stroke-linecap="round"/><path d="M184.42617,326.51289c0,-1.38071 1.11929,-2.5 2.5,-2.5c1.38071,0 2.5,1.11929 2.5,2.5c0,1.38071 -1.11929,2.5 -2.5,2.5c-1.38071,0 -2.5,-1.11929 -2.5,-2.5z" fill="#000000" stroke="url(#color-7)" stroke-width="0.5" stroke-linecap="butt"/></g></g></svg>