<svg version="1.1" xmlns="http://www.w3.org/2000/svg" xmlns:xlink="http://www.w3.org/1999/xlink" width="78.40411" height="89.89878" viewBox="0,0,78.40411,89.89878"><defs><radialGradient cx="154.81986" cy="285.77989" r="38.96193" gradientUnits="userSpaceOnUse" id="color-1"><stop offset="0" stop-color="#008ea1"/><stop offset="1" stop-color="#005661"/></radialGradient></defs><g transform="translate(-141.03807,-273.43789)"><g data-paper-data="{&quot;isPaintingLayer&quot;:true}" fill-rule="nonzero" stroke-linejoin="miter" stroke-miterlimit="10" stroke-dasharray="" stroke-dashoffset="0" style="mix-blend-mode: normal"><path d="M141.03807,352.91467v-75.66519h77.92387v75.66519z" fill="url(#color-1)" stroke="none" stroke-width="0" stroke-linecap="butt"/><text transform="translate(142.72541,296.44368) scale(0.50217,0.50217)" font-size="40" xml:space="preserve" fill="#000000" fill-rule="nonzero" stroke="none" stroke-width="1" stroke-linecap="butt" stroke-linejoin="miter" stroke-miterlimit="10" stroke-dasharray="" stroke-dashoffset="0" font-family="Sans Serif" font-weight="normal" text-anchor="start" style="mix-blend-mode: normal"><tspan x="0" dy="0">1</tspan><tspan x="0" dy="46.150000000000006px">0</tspan></text><text transform="translate(141.50904,295.38272) scale(0.50217,0.50217)" font-size="40" xml:space="preserve" fill="#ffffff" fill-rule="nonzero" stroke="none" stroke-width="1" stroke-linecap="butt" stroke-linejoin="miter" stroke-miterlimit="10" stroke-dasharray="" stroke-dashoffset="0" font-family="Sans Serif" font-weight="normal" text-anchor="start" style="mix-blend-mode: normal"><tspan x="0" dy="0">1</tspan><tspan x="0" dy="46.15px">0</tspan></text><text transform="translate(190.95334,348.68193) scale(1.17238,1.17238)" font-size="40" xml:space="preserve" fill="#ffffff" fill-rule="nonzero" stroke="none" stroke-width="1" stroke-linecap="butt" stroke-linejoin="miter" stroke-miterlimit="10" stroke-dasharray="" stroke-dashoffset="0" font-family="Sans Serif" font-weight="normal" text-anchor="start" style="mix-blend-mode: normal"><tspan x="0" dy="0">T</tspan></text><path d="M198.25647,347.9069h-43.3319v-53.31284h53.31284v18.50125" fill="none" stroke="#ffffff" stroke-width="2.5" stroke-linecap="round"/><path d="M158.57613,341.33408l8.52032,-19.71845h32.37719" fill="none" stroke="#ffffff" stroke-width="2.5" stroke-linecap="round"/><path d="M168.55709,321.3722v-2.43438h7.54657v1.9475" fill="none" stroke="#ffffff" stroke-width="1" stroke-linecap="round"/><path d="M178.14463,320.75795v-1.46062h6.32937v1.60678" fill="none" stroke="#ffffff" stroke-width="1" stroke-linecap="round"/><path d="M165.35198,333.75868c0,-3.82274 3.09894,-6.9217 6.9217,-6.9217c3.82274,0 6.92169,3.09894 6.92169,6.9217c0,3.82274 -3.09893,6.92169 -6.92169,6.92169c-3.82274,0 -6.9217,-3.09894 -6.9217,-6.92169z" fill="none" stroke="#ffffff" stroke-width="1" stroke-linecap="butt"/><path d="M184.3407,333.83636c0,-3.82274 3.09894,-6.9217 6.9217,-6.9217c3.82274,0 6.92169,3.09894 6.92169,6.9217c0,3.82274 -3.09893,6.92169 -6.92169,6.92169c-3.82274,0 -6.9217,-3.09894 -6.9217,-6.92169z" fill="none" stroke="#ffffff" stroke-width="1" stroke-linecap="butt"/><path d="M175.91992,330.48323l-4.14065,4.14065h-4.94407" fill="none" stroke="#ffffff" stroke-width="1" stroke-linecap="round"/><path d="M188.34188,334.62388h3.58445v3.83164" fill="none" stroke="#ffffff" stroke-width="1" stroke-linecap="round"/><path d="M154.96945,298.65583h40.91211" fill="none" stroke="#ffffff" stroke-width="2.5" stroke-linecap="round"/><path d="M155.46384,303.72349h30.15879" fill="none" stroke="#ffffff" stroke-width="2.5" stroke-linecap="round"/><path d="M156.69988,309.53277h21.38307" fill="none" stroke="#ffffff" stroke-width="2.5" stroke-linecap="round"/><path d="M146.41344,300.46895c0,-1.33125 1.0792,-2.41043 2.41043,-2.41043c1.33125,0 2.41043,1.0792 2.41043,2.41043c0,1.33125 -1.0792,2.41043 -2.41043,2.41043c-1.33125,0 -2.41043,-1.0792 -2.41043,-2.41043z" fill="#000000" stroke="none" stroke-width="0" stroke-linecap="butt"/><path d="M145.9203,299.8204c0,-1.33125 1.0792,-2.41043 2.41043,-2.41043c1.33125,0 2.41043,1.0792 2.41043,2.41043c0,1.33125 -1.0792,2.41043 -2.41043,2.41043c-1.33125,0 -2.41043,-1.0792 -2.41043,-2.41043z" fill="#ffffff" stroke="none" stroke-width="0" stroke-linecap="butt"/></g></g></svg>