<svg version="1.1" xmlns="http://www.w3.org/2000/svg" xmlns:xlink="http://www.w3.org/1999/xlink" width="154.66161" height="98.41199" viewBox="0,0,154.66161,98.41199"><defs><radialGradient cx="178.29738" cy="274.6273" r="76.99724" gradientUnits="userSpaceOnUse" id="color-1"><stop offset="0" stop-color="#c00080"/><stop offset="1" stop-color="#6d0049"/></radialGradient></defs><g transform="translate(-102.33575,-270.79403)"><g data-paper-data="{&quot;isPaintingLayer&quot;:true}" fill-rule="nonzero" stroke="none" stroke-linecap="butt" stroke-linejoin="miter" stroke-miterlimit="10" stroke-dasharray="" stroke-dashoffset="0" style="mix-blend-mode: normal"><path d="M103.00289,369.20602v-98.41199h153.99447v98.41199z" fill="url(#color-1)" stroke-width="0"/><text transform="translate(126.31932,365.39916) rotate(-89.32636) scale(0.54861,0.54861)" font-size="40" xml:space="preserve" fill="#ffffff" fill-rule="nonzero" stroke="none" stroke-width="1" stroke-linecap="butt" stroke-linejoin="miter" stroke-miterlimit="10" stroke-dasharray="" stroke-dashoffset="0" font-family="&quot;Open Sans Light&quot;, Sans Serif" font-weight="normal" text-anchor="start" style="mix-blend-mode: normal"><tspan x="0" dy="0">Apolo</tspan></text><text transform="translate(105.45421,296.5564) scale(0.57599,0.57599)" font-size="40" xml:space="preserve" fill="#ffffff" fill-rule="nonzero" stroke="none" stroke-width="1" stroke-linecap="butt" stroke-linejoin="miter" stroke-miterlimit="10" stroke-dasharray="" stroke-dashoffset="0" font-family="&quot;OpenSans-Medium&quot;, Sans Serif" font-weight="normal" text-anchor="start" style="mix-blend-mode: normal"><tspan x="0" dy="0">Kalkulator</tspan></text><text transform="translate(133.104,336.00899) scale(0.77032,0.77032)" font-size="40" xml:space="preserve" fill="#000000" fill-rule="nonzero" stroke="none" stroke-width="1" stroke-linecap="butt" stroke-linejoin="miter" stroke-miterlimit="10" stroke-dasharray="" stroke-dashoffset="0" font-family="&quot;OpenSans-Bold&quot;, Sans Serif" font-weight="normal" text-anchor="start" style="mix-blend-mode: normal"><tspan x="0" dy="0">1.0</tspan></text><path d="M180.96359,326.88239v-15.75494h64.71646v15.75494z" fill="#ff58c7" stroke-width="0"/><path d="M180.96359,335.60822v-7.75628h14.78541v7.75628z" fill="#ff58c7" stroke-width="0"/><path d="M196.87086,335.76054v-7.75628h14.7854v7.75628z" fill="#ff58c7" stroke-width="0"/><path d="M212.77813,335.67048v-7.75628h14.7854v7.75628z" fill="#ff58c7" stroke-width="0"/><path d="M228.44302,335.82281v-7.75628h16.96686v7.75628z" fill="#ff58c7" stroke-width="0"/><path d="M181.11592,344.48635v-7.75628h16.72447v7.75628z" fill="#ff58c7" stroke-width="0"/><path d="M198.96226,344.63868v-7.75628h14.7854v7.75628z" fill="#ff58c7" stroke-width="0"/><path d="M214.86953,344.54862v-7.75628h14.7854v7.75628z" fill="#ff58c7" stroke-width="0"/><path d="M230.53442,344.70094v-7.75628h14.7854v7.75628z" fill="#ff58c7" stroke-width="0"/><path d="M181.02586,353.12211v-7.75628h14.54302v7.75628z" fill="#ff58c7" stroke-width="0"/><path d="M196.69075,353.27444v-7.75628h14.78541v7.75628z" fill="#ff58c7" stroke-width="0"/><path d="M212.59802,353.18438v-7.75628h14.7854v7.75628z" fill="#ff58c7" stroke-width="0"/><path d="M228.2629,353.3367v-7.75628h16.96686v7.75628z" fill="#ff58c7" stroke-width="0"/><path d="M180.93581,362.00025v-7.75628h15.99732v7.75628z" fill="#ff58c7" stroke-width="0"/><path d="M198.05499,362.15257v-7.75628h14.7854v7.75628z" fill="#ff58c7" stroke-width="0"/><path d="M213.96226,362.06251v-7.75628h14.7854v7.75628z" fill="#ff58c7" stroke-width="0"/><path d="M229.62715,362.21484v-7.75628h15.51256v7.75628z" fill="#ff58c7" stroke-width="0"/><text transform="translate(130.59011,334.70701) scale(0.77032,0.77032)" font-size="40" xml:space="preserve" fill="#d65fff" fill-rule="nonzero" stroke="none" stroke-width="1" stroke-linecap="butt" stroke-linejoin="miter" stroke-miterlimit="10" stroke-dasharray="" stroke-dashoffset="0" font-family="&quot;OpenSans-Bold&quot;, Sans Serif" font-weight="normal" text-anchor="start" style="mix-blend-mode: normal"><tspan x="0" dy="0">1.0</tspan></text><text transform="translate(214.46237,307.07904) scale(0.5,0.5)" font-size="40" xml:space="preserve" fill="#ffffff" fill-rule="nonzero" stroke="none" stroke-width="1" stroke-linecap="butt" stroke-linejoin="miter" stroke-miterlimit="10" stroke-dasharray="" stroke-dashoffset="0" font-family="&quot;OpenSans-Medium&quot;, Sans Serif" font-weight="normal" text-anchor="start" style="mix-blend-mode: normal"><tspan x="0" dy="0">LITE</tspan></text></g></g></svg>