<svg version="1.1" xmlns="http://www.w3.org/2000/svg" xmlns:xlink="http://www.w3.org/1999/xlink" width="312.00518" height="131.60738" viewBox="0,0,312.00518,131.60738"><defs><linearGradient x1="180" y1="296.58417" x2="180" y2="343.41584" gradientUnits="userSpaceOnUse" id="color-1"><stop offset="0" stop-color="#ff9b00"/><stop offset="1" stop-color="#ffb666"/></linearGradient><linearGradient x1="178.12122" y1="339.50903" x2="178.12122" y2="342.00903" gradientUnits="userSpaceOnUse" id="color-2"><stop offset="0" stop-color="#000000"/><stop offset="1" stop-color="#efff6e"/></linearGradient></defs><g transform="translate(-23.99741,-211.80846)"><g data-paper-data="{&quot;isPaintingLayer&quot;:true}" fill-rule="nonzero" stroke-linejoin="miter" stroke-miterlimit="10" stroke-dasharray="" stroke-dashoffset="0" style="mix-blend-mode: normal"><path d="M81.43289,211.80846z" fill="#0026ff" stroke="none" stroke-width="0" stroke-linecap="butt"/><path d="M23.99741,343.41584v-46.83167h312.00518v46.83167z" fill="url(#color-1)" stroke="none" stroke-width="0" stroke-linecap="butt"/><path d="M29.38448,340.75903h297.47347" fill="none" stroke="url(#color-2)" stroke-width="2.5" stroke-linecap="round"/><text transform="translate(36.66869,330.35872) scale(0.80371,0.80371)" font-size="40" xml:space="preserve" fill="#000000" fill-rule="nonzero" stroke="none" stroke-width="1" stroke-linecap="butt" stroke-linejoin="miter" stroke-miterlimit="10" stroke-dasharray="" stroke-dashoffset="0" font-family="&quot;OpenSans-Medium&quot;, Sans Serif" font-weight="normal" text-anchor="start" style="mix-blend-mode: normal"><tspan x="0" dy="0">TapTap!Circle</tspan></text><text transform="translate(38.60364,329.09293) scale(0.80371,0.80371)" font-size="40" xml:space="preserve" fill="#ffffff" fill-rule="nonzero" stroke="none" stroke-width="1" stroke-linecap="butt" stroke-linejoin="miter" stroke-miterlimit="10" stroke-dasharray="" stroke-dashoffset="0" font-family="&quot;OpenSans-Medium&quot;, Sans Serif" font-weight="normal" text-anchor="start" style="mix-blend-mode: normal"><tspan x="0" dy="0">TapTap!Circle</tspan></text><path d="M271.82135,326.1348c0,-5.69564 4.61723,-10.31287 10.31287,-10.31287c5.69564,0 10.31287,4.61723 10.31287,10.31287c0,5.69564 -4.61723,10.31287 -10.31287,10.31287c-5.69564,0 -10.31287,-4.61723 -10.31287,-10.31287z" fill="#ffffff" stroke="none" stroke-width="0" stroke-linecap="butt"/><path d="M294.41145,319.25956c0,-9.49273 7.69538,-17.18812 17.18811,-17.18812c9.49273,0 17.18811,7.69538 17.18811,17.18812c0,9.49273 -7.69538,17.18811 -17.18811,17.18811c-9.49273,0 -17.18811,-7.69538 -17.18811,-17.18811z" fill="#ffffff" stroke="none" stroke-width="0" stroke-linecap="butt"/></g></g></svg>