<svg version="1.1" xmlns="http://www.w3.org/2000/svg" xmlns:xlink="http://www.w3.org/1999/xlink" width="153.99447" height="98.41199" viewBox="0,0,153.99447,98.41199"><defs><linearGradient x1="108.00285" y1="325.00001" x2="261.99732" y2="325.00001" gradientUnits="userSpaceOnUse" id="color-1"><stop offset="0" stop-color="#000000" stop-opacity="0.30588"/><stop offset="1" stop-color="#000000"/></linearGradient><linearGradient x1="145.09675" y1="300.022" x2="145.09675" y2="336.82701" gradientUnits="userSpaceOnUse" id="color-2"><stop offset="0" stop-color="#00ffff"/><stop offset="1" stop-color="#ff00e5"/></linearGradient><linearGradient x1="224.02378" y1="299.93194" x2="224.02378" y2="336.73695" gradientUnits="userSpaceOnUse" id="color-3"><stop offset="0" stop-color="#00ffff"/><stop offset="1" stop-color="#ff00e5"/></linearGradient></defs><g transform="translate(-108.00284,-275.79401)"><g data-paper-data="{&quot;isPaintingLayer&quot;:true}" fill-rule="nonzero" stroke-linejoin="miter" stroke-miterlimit="10" stroke-dasharray="" stroke-dashoffset="0" style="mix-blend-mode: normal"><path d="M108.00285,374.206v-98.41199h153.99447v98.41199z" fill="url(#color-1)" stroke="none" stroke-width="0" stroke-linecap="butt"/><text transform="translate(156.01426,361.91212) scale(0.40074,0.40073)" font-size="40" xml:space="preserve" fill="#ffffff" fill-rule="nonzero" stroke="none" stroke-width="1" stroke-linecap="butt" stroke-linejoin="miter" stroke-miterlimit="10" stroke-dasharray="" stroke-dashoffset="0" font-family="&quot;Open Sans Light&quot;, Sans Serif" font-weight="normal" text-anchor="start" style="mix-blend-mode: normal"><tspan x="0" dy="0">Buttons</tspan></text><path d="M125.60094,336.82701v-36.805h38.99161v36.805z" fill="url(#color-2)" stroke="none" stroke-width="0" stroke-linecap="butt"/><path d="M132.15436,318.40867c0,-7.36257 5.96854,-13.33111 13.33111,-13.33111c7.36256,0 13.33111,5.96854 13.33111,13.33111c0,7.36257 -5.96855,13.33111 -13.33111,13.33111c-7.36256,0 -13.33111,-5.96854 -13.33111,-13.33111z" fill="none" stroke="#ffffff" stroke-width="2.5" stroke-linecap="butt"/><path d="M145.72785,310.16763l-7.3927,7.3927l7.87747,7.87747" fill="none" stroke="#ffffff" stroke-width="2.5" stroke-linecap="round"/><path d="M204.52798,336.73695v-36.805h38.99161v36.805z" data-paper-data="{&quot;index&quot;:null}" fill="url(#color-3)" stroke="none" stroke-width="0" stroke-linecap="butt"/><path d="M223.63506,331.64973c-7.36256,0 -13.33111,-5.96854 -13.33111,-13.33111c0,-7.36257 5.96855,-13.33111 13.33111,-13.33111c7.36256,0 13.33111,5.96854 13.33111,13.33111c0,7.36257 -5.96854,13.33111 -13.33111,13.33111z" data-paper-data="{&quot;index&quot;:null}" fill="none" stroke="#ffffff" stroke-width="2.5" stroke-linecap="butt"/><path d="M222.18075,310.07757l7.3927,7.39271l-7.87747,7.87747" data-paper-data="{&quot;index&quot;:null}" fill="none" stroke="#ffffff" stroke-width="2.5" stroke-linecap="round"/><path d="M184.27883,331.55967c-7.36256,0 -13.33111,-5.96854 -13.33111,-13.33111c0,-7.36257 5.96855,-13.33111 13.33111,-13.33111c7.36256,0 13.33111,5.96854 13.33111,13.33111c0,7.36257 -5.96854,13.33111 -13.33111,13.33111z" data-paper-data="{&quot;index&quot;:null}" fill="#000000" stroke="#ffffff" stroke-width="2.5" stroke-linecap="butt"/><path d="M176.91739,319.81666l6.95173,-7.80881l8.32087,7.40758" data-paper-data="{&quot;index&quot;:null}" fill="none" stroke="#ffffff" stroke-width="2.5" stroke-linecap="round"/><path d="M177.06972,326.02858l6.95173,-7.80881l8.32086,7.40758" data-paper-data="{&quot;index&quot;:null}" fill="none" stroke="#ffffff" stroke-width="2.5" stroke-linecap="round"/></g></g></svg>