<svg version="1.1" xmlns="http://www.w3.org/2000/svg" xmlns:xlink="http://www.w3.org/1999/xlink" width="237.10835" height="211.94112" viewBox="0,0,237.10835,211.94112"><defs><linearGradient x1="320.00001" y1="76.52944" x2="320.00001" y2="283.47056" gradientUnits="userSpaceOnUse" id="color-1"><stop offset="0" stop-color="#000000"/><stop offset="1" stop-color="#292929"/></linearGradient></defs><g transform="translate(-201.44584,-74.02944)"><g data-paper-data="{&quot;isPaintingLayer&quot;:true}" fill-rule="nonzero" stroke-linecap="butt" stroke-linejoin="miter" stroke-miterlimit="10" stroke-dasharray="" stroke-dashoffset="0" style="mix-blend-mode: normal"><path d="M203.94585,283.47056v-206.94112h232.10835v206.94112z" fill="url(#color-1)" stroke-opacity="0.40392" stroke="#ffffff" stroke-width="5"/><text transform="translate(214.19239,260.32429) scale(1.06306,1.06306)" font-size="40" xml:space="preserve" fill-opacity="0.37255" fill="#ffffff" fill-rule="nonzero" stroke="none" stroke-width="1" stroke-linecap="butt" stroke-linejoin="miter" stroke-miterlimit="10" stroke-dasharray="" stroke-dashoffset="0" font-family="&quot;OpenSans-Light&quot;, Sans Serif" font-weight="normal" text-anchor="start" style="mix-blend-mode: normal"><tspan x="0" dy="0">keyboard</tspan></text><path d="M229.94744,197.42954v-64.73826h180.10517v64.73826z" fill-opacity="0.37255" fill="#ffffff" stroke="none" stroke-width="0"/><path d="M233.88311,153.26823v-14.96699h13.60636v14.96699z" fill-opacity="0.37255" fill="#ffffff" stroke="none" stroke-width="0"/><path d="M249.31465,153.26823v-14.96699h13.60636v14.96699z" fill-opacity="0.37255" fill="#ffffff" stroke="none" stroke-width="0"/><path d="M264.73519,153.26823v-14.96699h13.60636v14.96699z" fill-opacity="0.37255" fill="#ffffff" stroke="none" stroke-width="0"/><path d="M280.16673,153.26823v-14.96699h13.60636v14.96699z" fill-opacity="0.37255" fill="#ffffff" stroke="none" stroke-width="0"/><path d="M295.12273,153.26823v-14.96699h13.60636v14.96699z" fill-opacity="0.37255" fill="#ffffff" stroke="none" stroke-width="0"/><path d="M310.55427,153.26823v-14.96699h13.60636v14.96699z" fill-opacity="0.37255" fill="#ffffff" stroke="none" stroke-width="0"/><path d="M325.97479,153.26823v-14.96699h13.60636v14.96699z" fill-opacity="0.37255" fill="#ffffff" stroke="none" stroke-width="0"/><path d="M341.40635,153.26823v-14.96699h13.60636v14.96699z" fill-opacity="0.37255" fill="#ffffff" stroke="none" stroke-width="0"/><path d="M356.81589,153.26823v-14.96699h13.60636v14.96699z" fill-opacity="0.37255" fill="#ffffff" stroke="none" stroke-width="0"/><path d="M372.24743,153.26823v-14.96699h13.60636v14.96699z" fill-opacity="0.37255" fill="#ffffff" stroke="none" stroke-width="0"/><path d="M387.66797,153.26823v-14.96699h13.60636v14.96699z" fill-opacity="0.37255" fill="#ffffff" stroke="none" stroke-width="0"/><path d="M239.02567,172.09035v-14.96699h13.60636v14.96699z" fill-opacity="0.37255" fill="#ffffff" stroke="none" stroke-width="0"/><path d="M254.45722,172.09035v-14.96699h13.60636v14.96699z" fill-opacity="0.37255" fill="#ffffff" stroke="none" stroke-width="0"/><path d="M269.87775,172.09035v-14.96699h13.60636v14.96699z" fill-opacity="0.37255" fill="#ffffff" stroke="none" stroke-width="0"/><path d="M285.30929,172.09035v-14.96699h13.60636v14.96699z" fill-opacity="0.37255" fill="#ffffff" stroke="none" stroke-width="0"/><path d="M300.26529,172.09035v-14.96699h13.60636v14.96699z" fill-opacity="0.37255" fill="#ffffff" stroke="none" stroke-width="0"/><path d="M315.69683,172.09035v-14.96699h13.60636v14.96699z" fill-opacity="0.37255" fill="#ffffff" stroke="none" stroke-width="0"/><path d="M331.11737,172.09035v-14.96699h13.60636v14.96699z" fill-opacity="0.37255" fill="#ffffff" stroke="none" stroke-width="0"/><path d="M346.54892,172.09035v-14.96699h13.60636v14.96699z" fill-opacity="0.37255" fill="#ffffff" stroke="none" stroke-width="0"/><path d="M361.95846,172.09035v-14.96699h13.60636v14.96699z" fill-opacity="0.37255" fill="#ffffff" stroke="none" stroke-width="0"/><path d="M377.39,172.09035v-14.96699h13.60636v14.96699z" fill-opacity="0.37255" fill="#ffffff" stroke="none" stroke-width="0"/><path d="M392.81054,172.09035v-14.96699h13.60636v14.96699z" fill-opacity="0.37255" fill="#ffffff" stroke="none" stroke-width="0"/><path d="M234.50122,191.6038v-14.96699h13.60636v14.96699z" fill-opacity="0.37255" fill="#ffffff" stroke="none" stroke-width="0"/><path d="M249.93277,191.6038v-14.96699h13.60636v14.96699z" fill-opacity="0.37255" fill="#ffffff" stroke="none" stroke-width="0"/><path d="M265.3533,191.6038v-14.96699h13.60636v14.96699z" fill-opacity="0.37255" fill="#ffffff" stroke="none" stroke-width="0"/><path d="M280.78484,191.6038v-14.96699h13.60636v14.96699z" fill-opacity="0.37255" fill="#ffffff" stroke="none" stroke-width="0"/><path d="M295.74084,191.6038v-14.96699h13.60636v14.96699z" fill-opacity="0.37255" fill="#ffffff" stroke="none" stroke-width="0"/><path d="M311.17238,191.6038v-14.96699h13.60636v14.96699z" fill-opacity="0.37255" fill="#ffffff" stroke="none" stroke-width="0"/><path d="M326.59292,191.6038v-14.96699h13.60636v14.96699z" fill-opacity="0.37255" fill="#ffffff" stroke="none" stroke-width="0"/><path d="M342.02447,191.6038v-14.96699h13.60636v14.96699z" fill-opacity="0.37255" fill="#ffffff" stroke="none" stroke-width="0"/><path d="M357.43401,191.6038v-14.96699h13.60636v14.96699z" fill-opacity="0.37255" fill="#ffffff" stroke="none" stroke-width="0"/><path d="M372.86555,191.6038v-14.96699h13.60636v14.96699z" fill-opacity="0.37255" fill="#ffffff" stroke="none" stroke-width="0"/><path d="M388.28609,191.6038v-14.96699h13.60636v14.96699z" fill-opacity="0.37255" fill="#ffffff" stroke="none" stroke-width="0"/></g></g></svg>