<svg version="1.1" xmlns="http://www.w3.org/2000/svg" xmlns:xlink="http://www.w3.org/1999/xlink" width="322.7485" height="290.91122" viewBox="0,0,322.7485,290.91122"><defs><linearGradient x1="297.18102" y1="219.46699" x2="308.63766" y2="219.46699" gradientUnits="userSpaceOnUse" id="color-1"><stop offset="0" stop-color="#000000"/><stop offset="1" stop-color="#fbff00"/></linearGradient><linearGradient x1="297.27101" y1="248.36497" x2="308.72767" y2="248.36497" gradientUnits="userSpaceOnUse" id="color-2"><stop offset="0" stop-color="#fbff00"/><stop offset="1" stop-color="#000000"/></linearGradient><linearGradient x1="312.72927" y1="303.04692" x2="343.00755" y2="303.04692" gradientUnits="userSpaceOnUse" id="color-3"><stop offset="0" stop-color="#000000"/><stop offset="1" stop-color="#fbff00"/></linearGradient><linearGradient x1="371.00809" y1="78.64921" x2="419.00809" y2="78.64921" gradientUnits="userSpaceOnUse" id="color-4"><stop offset="0" stop-color="#000000"/><stop offset="1" stop-color="#fbff00"/></linearGradient><linearGradient x1="420.75809" y1="61.75" x2="468.75809" y2="61.75" gradientUnits="userSpaceOnUse" id="color-5"><stop offset="0" stop-color="#000000"/><stop offset="1" stop-color="#fbff00"/></linearGradient><linearGradient x1="470.75808" y1="61.75" x2="490.25809" y2="61.75" gradientUnits="userSpaceOnUse" id="color-6"><stop offset="0" stop-color="#000000"/><stop offset="1" stop-color="#fbff00"/></linearGradient><linearGradient x1="324.30933" y1="216.59531" x2="324.30933" y2="205.13868" gradientUnits="userSpaceOnUse" id="color-7"><stop offset="0" stop-color="#000000"/><stop offset="1" stop-color="#fbff00"/></linearGradient><linearGradient x1="354.70935" y1="216.59531" x2="354.70935" y2="205.13868" gradientUnits="userSpaceOnUse" id="color-8"><stop offset="0" stop-color="#000000"/><stop offset="1" stop-color="#fbff00"/></linearGradient><linearGradient x1="385.10935" y1="216.59532" x2="385.10935" y2="205.13869" gradientUnits="userSpaceOnUse" id="color-9"><stop offset="0" stop-color="#000000"/><stop offset="1" stop-color="#fbff00"/></linearGradient><linearGradient x1="437.83766" y1="196.467" x2="399.18104" y2="196.467" gradientUnits="userSpaceOnUse" id="color-10"><stop offset="0" stop-color="#000000"/><stop offset="1" stop-color="#7b7d00"/></linearGradient><linearGradient x1="356.40809" y1="106.1" x2="371.20809" y2="106.1" gradientUnits="userSpaceOnUse" id="color-11"><stop offset="0" stop-color="#000000"/><stop offset="1" stop-color="#fbff00"/></linearGradient><linearGradient x1="491.15808" y1="97.65" x2="510.65809" y2="97.65" gradientUnits="userSpaceOnUse" id="color-12"><stop offset="0" stop-color="#000000"/><stop offset="1" stop-color="#fbff00"/></linearGradient><linearGradient x1="491.35808" y1="50.45" x2="510.85809" y2="50.45" gradientUnits="userSpaceOnUse" id="color-13"><stop offset="0" stop-color="#000000"/><stop offset="1" stop-color="#fbff00"/></linearGradient><linearGradient x1="371.00809" y1="46.52421" x2="419.00809" y2="46.52421" gradientUnits="userSpaceOnUse" id="color-14"><stop offset="0" stop-color="#000000"/><stop offset="1" stop-color="#fbff00"/></linearGradient><linearGradient x1="468.75809" y1="61.75" x2="420.75809" y2="61.75" gradientUnits="userSpaceOnUse" id="color-15"><stop offset="0" stop-color="#000000"/><stop offset="1" stop-color="#fbff00"/></linearGradient><linearGradient x1="191.75808" y1="263.65312" x2="239.75809" y2="263.65312" gradientUnits="userSpaceOnUse" id="color-16"><stop offset="0" stop-color="#000000"/><stop offset="1" stop-color="#fbff00"/></linearGradient><linearGradient x1="239.75809" y1="263.65312" x2="191.75808" y2="263.65312" gradientUnits="userSpaceOnUse" id="color-17"><stop offset="0" stop-color="#000000"/><stop offset="1" stop-color="#fbff00"/></linearGradient><linearGradient x1="191.75809" y1="195.65312" x2="239.75809" y2="195.65312" gradientUnits="userSpaceOnUse" id="color-18"><stop offset="0" stop-color="#000000"/><stop offset="1" stop-color="#fbff00"/></linearGradient><linearGradient x1="239.75809" y1="195.65312" x2="191.75809" y2="195.65312" gradientUnits="userSpaceOnUse" id="color-19"><stop offset="0" stop-color="#000000"/><stop offset="1" stop-color="#fbff00"/></linearGradient></defs><g transform="translate(-189.739,-27.28745)"><g data-paper-data="{&quot;isPaintingLayer&quot;:true}" fill-rule="nonzero" stroke-width="2" stroke-linejoin="miter" stroke-miterlimit="10" stroke-dasharray="" stroke-dashoffset="0" style="mix-blend-mode: normal"><path d="M399.08007,176.7451l0.21458,28.19918" fill="none" stroke="#fbff00" stroke-linecap="round"/><path d="M371.53687,181.42873l-0.21457,-28.19918" fill="none" stroke="#fbff00" stroke-linecap="round"/><path d="M371.09403,124.86708l0.21457,28.19918" fill="none" stroke="#fbff00" stroke-linecap="round"/><path d="M371.0778,123.06715l-0.21458,-28.19919l59.38127,-0.00128" fill="none" stroke="#fbff00" stroke-linecap="round"/><path d="M430.74124,94.84172l59.38127,0.00128l-0.21458,28.19919" data-paper-data="{&quot;index&quot;:null}" fill="none" stroke="#fbff00" stroke-linecap="round"/><path d="M367.48751,316.40312l-25.5,-18l57.5292,-45.01976h28.2l60.7708,17.51976l-19.9708,-68.01977h28.2l-11.7292,102.51977" fill="none" stroke="#fbff00" stroke-linecap="round"/><path d="M308.30449,205.41179l0.21539,28.30529" fill="none" stroke="#fbff00" stroke-linecap="round"/><path d="M239.85588,297.64566l-1.01925,-133.94611" fill="none" stroke="#fbff00" stroke-linecap="round"/><path d="M398.99164,205.32718h-90.10803" fill="none" stroke="#fbff00" stroke-linecap="round"/><path d="M297.18102,233.81779v-28.70158h11.45663v28.70158z" fill="url(#color-1)" stroke="#fbff00" stroke-linecap="butt"/><path d="M297.27101,261.18549v-25.64103h11.45663v25.64103z" fill="url(#color-2)" stroke="#fbff00" stroke-linecap="butt"/><path d="M312.72927,309.72995v-13.36607h30.27823v13.36607z" fill="url(#color-3)" stroke="#fbff00" stroke-linecap="butt"/><path d="M371.00809,93v-28.70158h48v28.70158z" fill="url(#color-4)" stroke="#9ea000" stroke-linecap="butt"/><path d="M420.75809,93.25v-63h48z" fill="url(#color-5)" stroke="#9ea000" stroke-linecap="butt"/><path d="M470.75808,93.25v-63h19.5v63z" fill="url(#color-6)" stroke="#9ea000" stroke-linecap="butt"/><path d="M338.66013,216.59531h-28.70159v-11.45663h28.70159z" fill="url(#color-7)" stroke="#fbff00" stroke-linecap="butt"/><path d="M369.06015,216.59531h-28.70159v-11.45663h28.70159z" fill="url(#color-8)" stroke="#fbff00" stroke-linecap="butt"/><path d="M399.46015,216.59532h-28.70159v-11.45663h28.70159z" fill="url(#color-9)" stroke="#fbff00" stroke-linecap="butt"/><path d="M437.83766,176.31621v40.30159h-38.65663v-40.30159z" fill="url(#color-10)" stroke="#fbff00" stroke-linecap="butt"/><path d="M356.40809,182v-151.8h14.8v151.8z" fill="url(#color-11)" stroke="#9ea000" stroke-linecap="butt"/><path d="M356.39502,93.56125h15.4" fill="none" stroke="#9ea000" stroke-linecap="round"/><path d="M356.19502,124.88333h14.4" fill="none" stroke="#9ea000" stroke-linecap="round"/><path d="M356.39502,155.48333h14.4" fill="none" stroke="#9ea000" stroke-linecap="round"/><path d="M491.15808,123.65v-52h19.5v52z" fill="url(#color-12)" stroke="#9ea000" stroke-linecap="butt"/><path d="M491.35808,70.45v-40h19.5v40z" fill="url(#color-13)" stroke="#9ea000" stroke-linecap="butt"/><path d="M424.98751,308.90312l-25.5,-55" fill="none" stroke="#fbff00" stroke-linecap="round"/><path d="M511.48751,305.40312l-6,-27.5l-10,-66" fill="none" stroke="#fbff00" stroke-linecap="round"/><path d="M488.48751,271.90312l17,6l-60,32.5l-2.5,-50.5l-75.5,57.5l60,-64.5l49.66064,-10.53892" fill="none" stroke="#fbff00" stroke-linecap="round"/><path d="M371.00809,63.08333v-33.11825h48v33.11825z" fill="url(#color-14)" stroke="#9ea000" stroke-linecap="butt"/><path d="M468.75809,30.25l0,63l-48,0z" fill="url(#color-15)" stroke="#9ea000" stroke-linecap="butt"/><path d="M191.75808,295.15312v-63h48z" fill="url(#color-16)" stroke="#9ea000" stroke-linecap="butt"/><path d="M239.75809,232.15312v63h-48z" fill="url(#color-17)" stroke="#9ea000" stroke-linecap="butt"/><path d="M191.75809,227.15312v-63h48z" fill="url(#color-18)" stroke="#9ea000" stroke-linecap="butt"/><path d="M239.75809,164.15312v63h-48z" fill="url(#color-19)" stroke="#9ea000" stroke-linecap="butt"/></g></g></svg>