<svg version="1.1" xmlns="http://www.w3.org/2000/svg" xmlns:xlink="http://www.w3.org/1999/xlink" width="58.75994" height="32.0665" viewBox="0,0,58.75994,32.0665"><g transform="translate(-422.1057,-301.60018)"><g data-paper-data="{&quot;isPaintingLayer&quot;:true}" fill-rule="nonzero" stroke="none" stroke-linecap="butt" stroke-linejoin="miter" stroke-miterlimit="10" stroke-dasharray="" stroke-dashoffset="0" style="mix-blend-mode: normal"><path d="M480.86564,301.72029v7.95787l-7.33201,0l0,-7.95787z" fill="#000000" stroke-width="NaN"/><path d="M473.52504,301.60018v7.95787h-7.33201l0,-7.95787z" fill="#ffffff" stroke-width="NaN"/><path d="M466.2031,301.65999v7.95787l-7.33201,0v-7.95787z" fill="#000000" stroke-width="NaN"/><path d="M458.86251,301.61214l0,7.95787h-7.33201l0,-7.95787z" fill="#ffffff" stroke-width="NaN"/><path d="M480.86564,309.66829v7.95787h-7.33201l0,-7.95787z" fill="#ffffff" stroke-width="NaN"/><path d="M473.52504,309.54819v7.95787l-7.332,0v-7.95787z" fill="#000000" stroke-width="NaN"/><path d="M466.2031,309.60799v7.95787l-7.33201,0v-7.95786z" fill="#ffffff" stroke-width="NaN"/><path d="M458.86251,309.56015v7.95787l-7.33201,0l0,-7.95786z" fill="#000000" stroke-width="NaN"/><path d="M480.79907,317.7608v7.95787h-7.33201l0,-7.95786z" fill="#000000" stroke-width="NaN"/><path d="M473.45847,317.6407v7.95787l-7.332,0v-7.95787z" fill="#ffffff" stroke-width="NaN"/><path d="M466.13653,317.70051l0,7.95786h-7.33201v-7.95786z" fill="#000000" stroke-width="NaN"/><path d="M458.79594,317.65266v7.95786l-7.33201,0v-7.95787z" fill="#ffffff" stroke-width="NaN"/><path d="M480.79907,325.70881l0,7.95787h-7.332v-7.95787z" fill="#ffffff" stroke-width="NaN"/><path d="M473.45847,325.5887v7.95786l-7.33201,0v-7.95786z" fill="#000000" stroke-width="NaN"/><path d="M466.13653,325.64851c0,0 0,0.57324 0,1.09479c0,1.30584 0,6.86308 0,6.86308h-7.332v-7.95787z" fill="#ffffff" stroke-width="NaN"/><path d="M458.79594,325.60066v7.95786l-7.33201,0v-7.95786z" fill="#000000" stroke-width="NaN"/><path d="M451.5074,301.72028v7.95787h-7.33201v-7.95787z" fill="#000000" stroke-width="NaN"/><path d="M444.1668,301.60018v7.95787l-7.33201,0v-7.95787z" fill="#ffffff" stroke-width="NaN"/><path d="M436.84486,301.65999v7.95786h-7.332v-7.95787z" fill="#000000" stroke-width="NaN"/><path d="M429.50427,301.61214l0,7.95786h-7.33201v-7.95786z" fill="#ffffff" stroke-width="NaN"/><path d="M451.5074,309.66829v7.95787h-7.332v-7.95787z" fill="#ffffff" stroke-width="NaN"/><path d="M444.1668,309.54819l0,7.95786l-7.33201,0v-7.95786z" fill="#000000" stroke-width="NaN"/><path d="M436.84486,309.60799v7.95787l-7.332,0v-7.95787z" fill="#ffffff" stroke-width="NaN"/><path d="M429.50427,309.56014l0,7.95787h-7.33201v-7.95787z" fill="#000000" stroke-width="NaN"/><path d="M451.44083,317.7608l0,7.95786h-7.332l0,-7.95786z" fill="#000000" stroke-width="NaN"/><path d="M444.10023,317.6407v7.95786h-7.33201v-7.95787z" fill="#ffffff" stroke-width="NaN"/><path d="M436.7783,317.70051l0,7.95787h-7.33201v-7.95787z" fill="#000000" stroke-width="NaN"/><path d="M429.4377,317.65265l0,7.95787h-7.332v-7.95787z" fill="#ffffff" stroke-width="NaN"/><path d="M451.44083,325.7088l0,7.95787l-7.332,0l0,-7.95787z" fill="#ffffff" stroke-width="NaN"/><path d="M444.10023,325.5887v7.95787l-7.33201,0v-7.95787z" fill="#000000" stroke-width="NaN"/><path d="M436.7783,325.64851l0,7.95787h-7.33201v-7.95787z" fill="#ffffff" stroke-width="NaN"/><path d="M429.4377,325.60066v7.95787h-7.332v-7.95787z" fill="#000000" stroke-width="NaN"/></g></g></svg>