<svg version="1.1" xmlns="http://www.w3.org/2000/svg" xmlns:xlink="http://www.w3.org/1999/xlink" width="233.03567" height="40.98213" viewBox="0,0,233.03567,40.98213"><defs><linearGradient x1="341.35601" y1="136.06303" x2="341.35601" y2="177.04516" gradientUnits="userSpaceOnUse" id="color-1"><stop offset="0" stop-color="#000000"/><stop offset="1" stop-color="#000000" stop-opacity="0"/></linearGradient><radialGradient cx="243.4765" cy="156.55409" r="13.61275" gradientUnits="userSpaceOnUse" id="color-2"><stop offset="0" stop-color="#b100ff" stop-opacity="0.04706"/><stop offset="1" stop-color="#000000"/></radialGradient><linearGradient x1="236.83387" y1="156.55409" x2="250.11912" y2="156.55409" gradientUnits="userSpaceOnUse" id="color-3"><stop offset="0" stop-color="#00ffff"/><stop offset="1" stop-color="#ff0000"/></linearGradient><linearGradient x1="243.4765" y1="149.1515" x2="243.4765" y2="163.95668" gradientUnits="userSpaceOnUse" id="color-4"><stop offset="0" stop-color="#ffffff"/><stop offset="1" stop-color="#1a1a1a"/></linearGradient><linearGradient x1="239.39522" y1="156.55409" x2="247.55777" y2="156.55409" gradientUnits="userSpaceOnUse" id="color-5"><stop offset="0" stop-color="#00ffff"/><stop offset="1" stop-color="#ff00de"/></linearGradient><linearGradient x1="243.4765" y1="152.00589" x2="243.4765" y2="161.10229" gradientUnits="userSpaceOnUse" id="color-6"><stop offset="0" stop-color="#ffffff"/><stop offset="1" stop-color="#1a1a1a"/></linearGradient></defs><g transform="translate(-224.83817,-136.06303)"><g data-paper-data="{&quot;isPaintingLayer&quot;:true}" fill-rule="nonzero" stroke-linecap="butt" stroke-linejoin="miter" stroke-miterlimit="10" stroke-dasharray="" stroke-dashoffset="0" style="mix-blend-mode: normal"><path d="M224.83817,177.04516v-40.98213h233.03567v40.98213z" data-paper-data="{&quot;index&quot;:null}" fill="url(#color-1)" stroke="none" stroke-width="0"/><text transform="translate(300.53698,163.58669) scale(0.58605,0.58605)" font-size="40" xml:space="preserve" fill="#ffffff" fill-rule="nonzero" stroke="none" stroke-width="1" stroke-linecap="butt" stroke-linejoin="miter" stroke-miterlimit="10" stroke-dasharray="" stroke-dashoffset="0" font-family="&quot;OpenSans-Light&quot;, Sans Serif" font-weight="normal" text-anchor="start" style="mix-blend-mode: normal"><tspan x="0" dy="0">Customization</tspan></text><path d="M229.86375,170.61929v-28.1304h27.2255v28.1304z" fill="url(#color-2)" stroke="none" stroke-width="NaN"/><path d="M236.83387,162.43675v-13.28525c0,0 4.38158,1.35104 6.58633,1.35104c2.22351,0 6.69892,-1.35104 6.69892,-1.35104v13.28525c0,0 -4.46627,1.51992 -6.69892,1.51992c-2.19513,0 -6.58633,-1.51992 -6.58633,-1.51992z" fill="url(#color-3)" stroke="url(#color-4)" stroke-width="1.5"/><path d="M239.39522,160.16844v-8.16255c0,0 2.69208,0.83009 4.04669,0.83009c1.36614,0 4.11586,-0.83009 4.11586,-0.83009v8.16255c0,0 -2.7441,0.93385 -4.11586,0.93385c-1.3487,0 -4.04669,-0.93385 -4.04669,-0.93385z" fill="url(#color-5)" stroke="url(#color-6)" stroke-width="1.5"/></g></g></svg>