<svg version="1.1" xmlns="http://www.w3.org/2000/svg" xmlns:xlink="http://www.w3.org/1999/xlink" width="67.84375" height="77.47967" viewBox="0,0,67.84375,77.47967"><g transform="translate(-281.93722,-156.40285)"><g data-paper-data="{&quot;isPaintingLayer&quot;:true}" fill-rule="nonzero" stroke-linejoin="miter" stroke-miterlimit="10" stroke-dasharray="" stroke-dashoffset="0" style="mix-blend-mode: normal"><path d="M294.65156,181.75711c0,-11.57506 9.38344,-20.95851 20.95851,-20.95851c11.57506,0 20.95851,9.38344 20.95851,20.95851c0,11.57506 -9.38344,20.95851 -20.95851,20.95851c-11.57506,0 -20.95851,-9.38344 -20.95851,-20.95851z" fill="#ff7b00" stroke="#000000" stroke-width="3" stroke-linecap="butt"/><path d="M305.05648,162.28503l-1.18913,-3.56741l5.79703,-0.74321l2.8242,2.37827z" fill="#e06a00" stroke="#000000" stroke-width="3" stroke-linecap="round"/><path d="M303.86735,158.71762c0,0 -0.49993,4.59684 -1.65346,5.91133c-0.92715,1.05652 -4.73814,1.37212 -4.73814,1.37212c0,0 -0.73273,-3.25757 0.12941,-4.2634c0.91805,-1.07106 5.2217,-1.97956 5.2217,-1.97956" fill="#42ff00" stroke="#000000" stroke-width="3" stroke-linecap="round"/><path d="M315.49073,169.84472c0,-0.82843 0.67157,-1.5 1.5,-1.5c0.82843,0 1.5,0.67157 1.5,1.5c0,0.82843 -0.67157,1.5 -1.5,1.5c-0.82843,0 -1.5,-0.67157 -1.5,-1.5z" fill="#000000" stroke="none" stroke-width="0.5" stroke-linecap="butt"/><path d="M325.00934,174.28674c0,-0.82843 0.67157,-1.5 1.5,-1.5c0.82843,0 1.5,0.67157 1.5,1.5c0,0.82843 -0.67157,1.5 -1.5,1.5c-0.82843,0 -1.5,-0.67157 -1.5,-1.5z" fill="#000000" stroke="none" stroke-width="0.5" stroke-linecap="butt"/><path d="M318.87513,176.40199c0,-0.82843 0.67157,-1.5 1.5,-1.5c0.82843,0 1.5,0.67157 1.5,1.5c0,0.82843 -0.67157,1.5 -1.5,1.5c-0.82843,0 -1.5,-0.67157 -1.5,-1.5z" fill="#000000" stroke="none" stroke-width="0.5" stroke-linecap="butt"/><path d="M326.91132,168.98457c-0.83205,1.24808 -2.08013,0.41603 -2.08013,0.41603l-1.25071,-0.834c-2.92116,-1.8594 -6.89467,-2.36039 -10.24492,-1.49716c0,0 -1.45521,0.3638 -1.81902,-1.09141c-0.3638,-1.45521 1.09141,-1.81902 1.09141,-1.81902c4.22717,-1.03064 8.89758,-0.39313 12.59975,1.88724l1.28759,0.8582c0,0 1.24808,0.83205 0.41603,2.08013z" fill="#ffffff" stroke="none" stroke-width="0.5" stroke-linecap="butt"/><path d="M327.54764,171.95997c0,-0.82843 0.67157,-1.5 1.5,-1.5c0.82843,0 1.5,0.67157 1.5,1.5c0,0.82843 -0.67157,1.5 -1.5,1.5c-0.82843,0 -1.5,-0.67157 -1.5,-1.5z" fill="#ffffff" stroke="none" stroke-width="0.5" stroke-linecap="butt"/><text transform="translate(282.18722,227.63252) scale(0.5,0.5)" font-size="40" xml:space="preserve" fill="#ffffff" fill-rule="nonzero" stroke="none" stroke-width="1" stroke-linecap="butt" stroke-linejoin="miter" stroke-miterlimit="10" stroke-dasharray="" stroke-dashoffset="0" font-family="&quot;OpenSans-Light&quot;, Sans Serif" font-weight="normal" text-anchor="start" style="mix-blend-mode: normal"><tspan x="0" dy="0">Orange</tspan></text></g></g></svg>