<svg version="1.1" xmlns="http://www.w3.org/2000/svg" xmlns:xlink="http://www.w3.org/1999/xlink" width="62.37582" height="75.13298" viewBox="0,0,62.37582,75.13298"><g transform="translate(-289.03874,-170.6351)"><g data-paper-data="{&quot;isPaintingLayer&quot;:true}" fill-rule="nonzero" stroke-linejoin="miter" stroke-miterlimit="10" stroke-dasharray="" stroke-dashoffset="0" style="mix-blend-mode: normal"><path d="M297.74161,216.33235v-42.61792h42.61792v42.61792z" fill="#0567ff" stroke="#000000" stroke-width="3" stroke-linecap="butt"/><path d="M307.64577,206.4282v-22.80959c0,0 8.48463,4.01161 12.28133,4.01161c3.80647,0 10.52826,-4.01161 10.52826,-4.01161v22.80959z" fill="#2ec9ff" stroke="#000000" stroke-width="3" stroke-linecap="butt"/><path d="M341.79682,183.52289c0,6.2893 -9.90728,11.38778 -22.12853,11.38778c-12.22126,0 -22.12853,-5.09848 -22.12853,-11.38778c0,-3.20641 -0.7895,-6.75035 3.35444,-8.81993c3.9843,-1.98985 12.78349,-2.56786 18.77409,-2.56786c6.12277,0 15.15873,0.24444 19.16508,2.31245c3.99045,2.05981 2.96345,5.93694 2.96345,9.07533z" fill="#9a9a9a" stroke="#000000" stroke-width="3" stroke-linecap="butt"/><path d="M303.62186,177.31135l0.12941,8.41144" fill="none" stroke="#000000" stroke-width="3" stroke-linecap="round"/><path d="M311.25686,187.40507l-0.38822,-10.74075" fill="none" stroke="#000000" stroke-width="3" stroke-linecap="round"/><path d="M319.9271,177.05254l0.64703,11.6466" fill="none" stroke="#000000" stroke-width="3" stroke-linecap="round"/><path d="M328.20913,176.27612l0.1294,11.12897" fill="none" stroke="#000000" stroke-width="3" stroke-linecap="round"/><path d="M335.19708,185.33457l-0.38822,-8.15262" fill="none" stroke="#000000" stroke-width="3" stroke-linecap="round"/><path d="M299.86907,180.1583c0,4.07375 -1.15875,7.37618 -2.58813,7.37618c-1.42938,0 -2.58813,-3.30243 -2.58813,-7.37618c0,-4.07375 1.15875,-7.37618 2.58813,-7.37618c1.42938,0 2.58813,3.30243 2.58813,7.37618z" fill="#9a9a9a" stroke="#000000" stroke-width="3" stroke-linecap="butt"/><path d="M344.20869,181.01729c0,4.07375 -1.18771,7.37617 -2.65283,7.37617c-1.46512,0 -2.65284,-3.30242 -2.65284,-7.37617c0,-4.07375 1.18772,-7.37618 2.65284,-7.37618c1.46512,0 2.65283,3.30243 2.65283,7.37618z" fill="#9a9a9a" stroke="#000000" stroke-width="3" stroke-linecap="butt"/><path d="M341.14979,204.55146c0,1.99912 2.35451,11.74187 -0.23631,13.24511c-3.93908,2.28551 -14.21788,0.79551 -21.4393,0.79551c-7.0072,0 -17.24942,0.67102 -21.21172,-1.5001c-2.8069,-1.53803 -0.20507,-9.93361 -0.20507,-12.0229c0,-5.03859 10.61035,2.52343 22.58146,2.52343c11.97111,0 20.51095,-8.07964 20.51095,-3.04105z" fill="#9a9a9a" stroke="#000000" stroke-width="3" stroke-linecap="butt"/><path d="M340.50276,204.87497l-21.99913,8.41144l-19.28159,-9.44669" fill="none" stroke="#000000" stroke-width="3" stroke-linecap="round"/><path d="M317.72719,214.19227v2.45872" fill="none" stroke="#000000" stroke-width="3" stroke-linecap="round"/><path d="M304.3983,210.82769l0.38822,2.97635" fill="none" stroke="#000000" stroke-width="3" stroke-linecap="round"/><path d="M334.93827,210.82769l0.25881,4.39982" fill="none" stroke="#000000" stroke-width="3" stroke-linecap="round"/><path d="M328.07972,215.87453l0.12941,-2.97635" fill="none" stroke="#000000" stroke-width="3" stroke-linecap="round"/><path d="M310.86864,215.48633l-0.12941,-2.71754" fill="none" stroke="#000000" stroke-width="3" stroke-linecap="round"/><text transform="translate(291.07281,240.08859) scale(0.45436,0.45436)" font-size="40" xml:space="preserve" fill="#000000" fill-rule="nonzero" stroke="none" stroke-width="1" stroke-linecap="butt" stroke-linejoin="miter" stroke-miterlimit="10" stroke-dasharray="" stroke-dashoffset="0" font-family="&quot;OpenSans-Bold&quot;, Sans Serif" font-weight="normal" text-anchor="start" style="mix-blend-mode: normal"><tspan x="0" dy="0">Knight</tspan></text><text transform="translate(289.26592,238.2817) scale(0.45436,0.45436)" font-size="40" xml:space="preserve" fill="#ffffff" fill-rule="nonzero" stroke="none" stroke-width="1" stroke-linecap="butt" stroke-linejoin="miter" stroke-miterlimit="10" stroke-dasharray="" stroke-dashoffset="0" font-family="&quot;OpenSans-Bold&quot;, Sans Serif" font-weight="normal" text-anchor="start" style="mix-blend-mode: normal"><tspan x="0" dy="0">Knight</tspan></text></g></g></svg>