<svg version="1.1" xmlns="http://www.w3.org/2000/svg" xmlns:xlink="http://www.w3.org/1999/xlink" width="369.72081" height="316.58269" viewBox="0,0,369.72081,316.58269"><g transform="translate(-274.5,-132.45781)"><g data-paper-data="{&quot;isPaintingLayer&quot;:true}" fill-rule="nonzero" stroke-linejoin="miter" stroke-miterlimit="10" stroke-dasharray="" stroke-dashoffset="0" style="mix-blend-mode: normal"><path d="M277,180.00001c0,-23.74825 19.25175,-43 43,-43c23.74825,0 43,19.25175 43,43c0,23.74825 -19.25175,43 -43,43c-23.74825,0 -43,-19.25175 -43,-43z" fill="#4a4a4a" stroke="#d4d4d4" stroke-width="5" stroke-linecap="butt"/><text transform="translate(312.62992,170.16538) scale(0.87755,0.87755)" font-size="40" xml:space="preserve" fill="none" fill-rule="nonzero" stroke="none" stroke-width="1" stroke-linecap="butt" stroke-linejoin="miter" stroke-miterlimit="10" stroke-dasharray="" stroke-dashoffset="0" font-family="Sans Serif" font-weight="normal" text-anchor="start" style="mix-blend-mode: normal"><tspan x="0" dy="0">II</tspan></text><path d="M291.39774,160.25821l20.86522,49.67911" fill="none" stroke="#ffffff" stroke-width="2" stroke-linecap="round"/><path d="M301.00491,182.65967l-9.32439,-22.37853c0,0 8.18068,0.49947 11.94885,-1.0706c3.35516,-1.39799 7.4152,-7.92351 12.90392,-11.16968c5.68904,-3.36465 12.75049,-3.42774 12.75049,-3.42774l9.32439,22.37853c0,0 -7.36681,-1.79704 -12.87718,1.39062c-5.88755,3.40586 -10.04972,11.85507 -13.58738,13.32909c-3.82844,1.59518 -11.1387,0.94831 -11.1387,0.94831z" fill="#ffffff" stroke="#ffffff" stroke-width="2" stroke-linecap="butt"/><path d="M326.70735,174.27603v-14.18067h20.37488v14.18067z" fill="#d4d4d4" stroke="#ffffff" stroke-width="0" stroke-linecap="butt"/><path d="M327.13629,187.13757l-15.87096,-17.4785l16.2999,-15.17002h-0.21447v32.9783z" fill="#d4d4d4" stroke="#ffffff" stroke-width="0" stroke-linecap="butt"/><path d="M326.74198,180.59517v-4.61696h20.37488v4.61696z" fill="#d4d4d4" stroke="#ffffff" stroke-width="0" stroke-linecap="butt"/><text transform="translate(316.0162,195.61918) scale(0.22724,0.22724)" font-size="40" xml:space="preserve" fill="#ffffff" fill-rule="nonzero" stroke="none" stroke-width="1" stroke-linecap="butt" stroke-linejoin="miter" stroke-miterlimit="10" stroke-dasharray="" stroke-dashoffset="0" font-family="&quot;OpenSans-Medium&quot;, Sans Serif" font-weight="normal" text-anchor="start" style="mix-blend-mode: normal"><tspan x="0" dy="0">Back to </tspan><tspan x="0" dy="46.150000000000006px">Spawn</tspan></text><text transform="translate(619.82884,442.86457) scale(0.5,0.5)" font-size="40" xml:space="preserve" fill-opacity="0.5098" fill="#000000" fill-rule="nonzero" stroke="none" stroke-width="1" stroke-linecap="butt" stroke-linejoin="miter" stroke-miterlimit="10" stroke-dasharray="" stroke-dashoffset="0" font-family="Sans Serif" font-weight="normal" text-anchor="start" style="mix-blend-mode: normal"><tspan x="0" dy="0">KS</tspan></text></g></g></svg>