<svg version="1.1" xmlns="http://www.w3.org/2000/svg" xmlns:xlink="http://www.w3.org/1999/xlink" width="579.50946" height="75.80212" viewBox="0,0,579.50946,75.80212"><defs><linearGradient x1="225.87793" y1="5.18479" x2="225.87793" y2="48.18479" gradientUnits="userSpaceOnUse" id="color-1"><stop offset="0" stop-color="#212121"/><stop offset="1" stop-color="#000000"/></linearGradient><linearGradient x1="89.61962" y1="30.35871" x2="109.51293" y2="30.35871" gradientUnits="userSpaceOnUse" id="color-2"><stop offset="0" stop-color="#ffffff"/><stop offset="1" stop-color="#b8b8b8"/></linearGradient><linearGradient x1="68.33569" y1="35.18472" x2="100.37626" y2="35.18472" gradientUnits="userSpaceOnUse" id="color-3"><stop offset="0" stop-color="#ffffff"/><stop offset="1" stop-color="#b8b8b8"/></linearGradient><linearGradient x1="77.74019" y1="21.69665" x2="93.40837" y2="21.69665" gradientUnits="userSpaceOnUse" id="color-4"><stop offset="0" stop-color="#ffffff"/><stop offset="1" stop-color="#b8b8b8"/></linearGradient><linearGradient x1="92.34198" y1="12.7871" x2="104.84131" y2="12.7871" gradientUnits="userSpaceOnUse" id="color-5"><stop offset="0" stop-color="#ffffff"/><stop offset="1" stop-color="#b8b8b8"/></linearGradient><linearGradient x1="364.36213" y1="8.85888" x2="364.36213" y2="51.85879" gradientTransform="translate(-378.31055,-44.12037) scale(1.07326,1.07326)" gradientUnits="userSpaceOnUse" id="color-6"><stop offset="0" stop-color="#ffffff"/><stop offset="1" stop-color="#000000"/></linearGradient></defs><g transform="translate(-65.07364,-0.8886)"><g data-paper-data="{&quot;isPaintingLayer&quot;:true}" fill-rule="nonzero" stroke="none" stroke-linecap="butt" stroke-linejoin="miter" stroke-miterlimit="10" stroke-dasharray="" stroke-dashoffset="0" style="mix-blend-mode: normal"><path d="M617.11452,75.69072c-33.00239,0 -73.62745,1 -92.29686,1c-14.79291,0 -28.2776,-24.65995 -28.2776,-36.46913c0,-11.15333 12.50141,-33.53087 27.03006,-33.53087c18.64589,0 60.29168,0 93.5444,0c19.33695,0 27.46858,23.30414 27.46858,34.86419c0,11.43866 -8.14091,34.13581 -27.46858,34.13581z" data-paper-data="{&quot;index&quot;:null}" fill="#000000" stroke-width="0"/><path d="M70.07365,40.18479c0,0 -5,-5.89312 -5,-12.96914c0,-7.25294 5.33334,-15.69752 5.33334,-15.69752c0,0 5.19276,-6.33333 16.78942,-6.33333c35.0611,0 214.72146,0 277.66667,0c13.65654,0 18.81914,8.33333 18.81914,8.33333c0,0 3,4.73004 3,11.69753c0,7.34583 -4.33334,14.96914 -4.33334,14.96914c0,0 -3.96402,8 -17.81914,8c-62.8954,0 -240.32048,0 -276,0c-12.21209,0 -18.45609,-8 -18.45609,-8z" fill="url(#color-1)" stroke-width="0"/><path d="M109.41861,28.99753c0,0.74794 0.49094,3.17016 -0.76727,3.72359c-1.80758,0.79508 -5.66121,2.2986 -8.88474,2.2986c-3.97794,0 -7.90285,-1.52455 -9.47639,-2.6526c-0.58917,-0.42236 -0.67059,-2.87312 -0.67059,-3.36959c0,-1.82245 4.43215,-3.29983 9.8995,-3.29983c5.46734,0 9.8995,1.47738 9.8995,3.29983z" fill="url(#color-2)" stroke-width="0"/><path d="M100.22435,32.99237c0,1.20464 0.79071,5.10592 -1.23578,5.99728c-2.91132,1.28057 -9.11805,3.70218 -14.30994,3.70218c-6.40694,0 -12.72849,-2.45547 -15.26287,-4.27233c-0.94893,-0.68026 -1.08007,-4.62751 -1.08007,-5.42713c0,-2.93527 7.13852,-5.31477 15.94433,-5.31477c8.80581,0 15.94433,2.3795 15.94433,5.31477z" fill="url(#color-3)" stroke-width="0"/><path d="M93.33409,20.62457c0,0.58908 0.38667,2.49685 -0.60431,2.93274c-1.42367,0.62621 -4.45883,1.8104 -6.99772,1.8104c-3.13307,0 -6.22437,-1.20075 -7.46371,-2.08921c-0.46404,-0.33266 -0.52816,-2.2629 -0.52816,-2.65393c0,-1.43538 3.49081,-2.59898 7.79695,-2.59898c4.30614,0 7.79695,1.1636 7.79695,2.59898z" fill="url(#color-4)" stroke-width="0"/><path d="M104.78205,11.93185c0,0.46994 0.30846,1.99186 -0.48209,2.3396c-1.13573,0.49956 -3.55703,1.44425 -5.58244,1.44425c-2.49941,0 -4.96551,-0.9579 -5.95419,-1.66667c-0.37019,-0.26537 -0.42135,-1.80524 -0.42135,-2.11718c0,-1.14508 2.78481,-2.07335 6.22004,-2.07335c3.43523,0 6.22003,0.92827 6.22003,2.07335z" fill="url(#color-5)" stroke-width="0"/><text transform="translate(352.48708,41.10871) scale(0.93174,0.93174)" font-size="40" xml:space="preserve" fill="url(#color-6)" fill-rule="nonzero" stroke="none" stroke-width="1" stroke-linecap="butt" stroke-linejoin="miter" stroke-miterlimit="10" stroke-dasharray="" stroke-dashoffset="0" font-family="&quot;OpenSans-Bold&quot;, Sans Serif" font-weight="normal" text-anchor="start" style="mix-blend-mode: normal"><tspan x="0" dy="0">C</tspan></text></g></g></svg>