<svg version="1.1" xmlns="http://www.w3.org/2000/svg" xmlns:xlink="http://www.w3.org/1999/xlink" width="78.95438" height="73.86864" viewBox="0,0,78.95438,73.86864"><defs><linearGradient x1="320.55406" y1="174.232" x2="320.55406" y2="216.84992" gradientUnits="userSpaceOnUse" id="color-1"><stop offset="0" stop-color="#8eff00"/><stop offset="1" stop-color="#00ff12"/></linearGradient></defs><g transform="translate(-281.29979,-172.732)"><g data-paper-data="{&quot;isPaintingLayer&quot;:true}" fill-rule="nonzero" stroke-linejoin="miter" stroke-miterlimit="10" stroke-dasharray="" stroke-dashoffset="0" style="mix-blend-mode: normal"><path d="M299.2451,216.84992v-42.61792h42.61792v42.61792z" fill="url(#color-1)" stroke="#000000" stroke-width="3" stroke-linecap="butt"/><path d="M319.33126,188.94556c0,1.05452 1.69636,3.37024 0.78655,4.17531c-1.46293,1.29449 -6.12903,0.80419 -8.88753,0.80419c-4.47405,0 -8.10098,-2.2294 -8.10098,-4.9795c0,-1.17794 -1.26694,-5.67911 -0.15457,-6.53172c1.48465,-1.13796 4.65735,3.33592 7.21505,3.33592c0.95001,0 1.57375,0.34739 2.11196,1.11534c0.6216,0.88693 2.16963,0.45189 2.93398,0.8645c1.69063,0.91262 4.09554,-0.27577 4.09554,1.21596z" fill="#ff0000" stroke="#350000" stroke-width="2" stroke-linecap="butt"/><path d="M327.70857,187.23382c0.56024,-0.30243 2.6754,-0.9641 3.13102,-1.61418c0.298,-0.4252 1.06756,-0.66032 1.51316,-0.27023c0.14428,0.12631 1.49872,-1.52781 1.66904,-1.52781c1.87468,0 2.56592,-0.55545 3.6541,0.27862c0.81532,0.62493 -0.11329,3.92409 -0.11329,4.78747c0,2.01571 -2.65838,3.64976 -5.93767,3.64976c-2.02186,0 -5.44191,0.35936 -6.51418,-0.58944c-0.66686,-0.59008 0.5765,-2.28741 0.5765,-3.06032c0,-1.09337 0.78217,-0.98497 2.02133,-1.65388z" data-paper-data="{&quot;index&quot;:null}" fill="#ff0000" stroke="#000000" stroke-width="3" stroke-linecap="butt"/><path d="M342.10569,203.04595c0.83812,1.81592 -0.97781,2.65404 -0.97781,2.65404l-1.82563,0.83868c-0.61638,0.38064 -1.23276,0.76129 -1.84914,1.14194c-2.52282,1.45915 -4.70396,2.72007 -7.72547,1.6242c-2.91927,-1.05879 -4.06032,-3.44133 -7.49688,-3.42216c-2.37791,0.01326 -3.09305,2.28162 -5.48712,2.90168c-1.19146,0.30859 -2.46399,0.14975 -3.69178,0.06399c-1.42277,-0.09939 -3.9726,-0.72118 -5.21536,-1.50356c-2.62561,-1.65295 -3.99168,-4.16448 -6.5992,-0.68239c0,0 -1.29188,1.52678 -2.81866,0.23489c-1.52677,-1.29189 -0.23489,-2.81866 -0.23489,-2.81866c0.71522,-0.78769 1.23023,-1.82085 2.14565,-2.36307c6.31147,-3.7383 9.2673,4.75807 15.3465,3.21394c0.89031,-0.22614 2.96077,-2.31513 3.59435,-2.57932c1.36664,-0.56984 4.06956,-0.56905 5.5007,-0.27987c2.42846,0.49069 3.21137,1.14604 5.21649,2.55092c0.89344,0.62598 1.18959,1.32466 2.37215,1.13765c0.91237,-0.14429 2.3172,-1.08484 3.03743,-1.50936c0.67185,-0.41211 1.3437,-0.82422 2.01555,-1.23633l2.03906,-0.94502c0,0 1.81592,-0.83812 2.65404,0.9778z" fill="#000000" stroke="none" stroke-width="0.5" stroke-linecap="butt"/><path d="M302.38609,202.24901l4.75654,-2.8242l0.14864,2.8242" fill="none" stroke="#000000" stroke-width="3" stroke-linecap="round"/><path d="M334.64138,205.51913l-1.18914,-5.79703l3.56741,4.45925" fill="none" stroke="#000000" stroke-width="3" stroke-linecap="round"/><path d="M313.08831,207.60011l-2.8242,3.27012l-0.44593,-4.45925" fill="none" stroke="#000000" stroke-width="3" stroke-linecap="round"/><path d="M330.92533,207.15419l-1.48642,5.20247l-1.7837,-5.20247" fill="none" stroke="#000000" stroke-width="3" stroke-linecap="round"/><text transform="translate(283.33386,240.92114) scale(0.45436,0.45436)" font-size="40" xml:space="preserve" fill="#000000" fill-rule="nonzero" stroke="none" stroke-width="1" stroke-linecap="butt" stroke-linejoin="miter" stroke-miterlimit="10" stroke-dasharray="" stroke-dashoffset="0" font-family="&quot;OpenSans-Bold&quot;, Sans Serif" font-weight="normal" text-anchor="start" style="mix-blend-mode: normal"><tspan x="0" dy="0">Monster</tspan></text><text transform="translate(281.52697,239.11425) scale(0.45436,0.45436)" font-size="40" xml:space="preserve" fill="#ff0000" fill-rule="nonzero" stroke="none" stroke-width="1" stroke-linecap="butt" stroke-linejoin="miter" stroke-miterlimit="10" stroke-dasharray="" stroke-dashoffset="0" font-family="&quot;OpenSans-Bold&quot;, Sans Serif" font-weight="normal" text-anchor="start" style="mix-blend-mode: normal"><tspan x="0" dy="0">Monster</tspan></text></g></g></svg>