<svg version="1.1" xmlns="http://www.w3.org/2000/svg" xmlns:xlink="http://www.w3.org/1999/xlink" width="188.01223" height="87.63089" viewBox="0,0,188.01223,87.63089"><g transform="translate(-80.18446,-198.45366)"><g data-paper-data="{&quot;isPaintingLayer&quot;:true}" fill-rule="nonzero" stroke-linejoin="miter" stroke-miterlimit="10" stroke-dasharray="" stroke-dashoffset="0" style="mix-blend-mode: normal"><path d="M85.18446,286.08455v-77.53584h183.01223v77.53584z" fill="#272727" stroke="none" stroke-width="0" stroke-linecap="butt"/><path d="M80.18446,275.9895v-77.53584h183.01223v77.53584z" fill="#000000" stroke="none" stroke-width="0" stroke-linecap="butt"/><text transform="translate(143.10082,265.24278) scale(0.47128,0.47511)" font-size="40" xml:space="preserve" fill="#ffffff" fill-rule="nonzero" stroke="none" stroke-width="1" stroke-linecap="butt" stroke-linejoin="miter" stroke-miterlimit="10" stroke-dasharray="" stroke-dashoffset="0" font-family="&quot;OpenSans-Bold&quot;, Sans Serif" font-weight="normal" text-anchor="start" style="mix-blend-mode: normal"><tspan x="0" dy="0">About</tspan></text><path d="M235.74147,209.5017l6.70309,6.70309l2.85238,2.85238l-9.34154,9.34154" fill="none" stroke="#ffffff" stroke-width="1.5" stroke-linecap="round"/><path d="M225.04505,218.62931c0,-7.71909 6.25756,-13.97665 13.97665,-13.97665c7.71909,0 13.97666,6.25757 13.97666,13.97665c0,7.71909 -6.25756,13.97666 -13.97666,13.97666c-7.71909,0 -13.97665,-6.25757 -13.97665,-13.97666z" fill="none" stroke="#ffffff" stroke-width="1.5" stroke-linecap="butt"/><path d="M155.73334,224.56349c0,-8.81294 7.1443,-15.95724 15.95724,-15.95724c8.81294,0 15.95724,7.1443 15.95724,15.95724c0,8.81294 -7.1443,15.95724 -15.95724,15.95724c-8.81294,0 -15.95724,-7.1443 -15.95724,-15.95724z" fill="#ffffff" stroke="none" stroke-width="0" stroke-linecap="butt"/><text transform="translate(159.54214,231.83999) scale(0.5,0.5)" font-size="40" xml:space="preserve" fill="#000000" fill-rule="nonzero" stroke="none" stroke-width="1" stroke-linecap="butt" stroke-linejoin="miter" stroke-miterlimit="10" stroke-dasharray="" stroke-dashoffset="0" font-family="&quot;OpenSans-Bold&quot;, Sans Serif" font-weight="normal" text-anchor="start" style="mix-blend-mode: normal"><tspan x="0" dy="0">KS</tspan></text></g></g></svg>