<svg version="1.1" xmlns="http://www.w3.org/2000/svg" xmlns:xlink="http://www.w3.org/1999/xlink" width="164.9258" height="153.01101" viewBox="0,0,164.9258,153.01101"><defs><radialGradient cx="320" cy="180" r="82.4629" gradientUnits="userSpaceOnUse" id="color-1"><stop offset="0" stop-color="#4a4a4a"/><stop offset="1" stop-color="#4a4a4a" stop-opacity="0"/></radialGradient></defs><g transform="translate(-237.5371,-103.49449)"><g data-paper-data="{&quot;isPaintingLayer&quot;:true}" fill-rule="nonzero" stroke-linecap="butt" stroke-linejoin="miter" stroke-miterlimit="10" stroke-dasharray="" stroke-dashoffset="0" style="mix-blend-mode: normal"><path d="M237.5371,256.50551v-153.01101h164.9258v153.01101z" fill="url(#color-1)" stroke="none" stroke-width="0"/><g stroke="none" stroke-width="0"><path d="M267.42093,229.47632l-19.46644,-44.79593l124.62457,-54.15664l19.46644,44.79593z" fill-opacity="0.37255" fill="#0090ff"/><path d="M256.6766,197.30136l-4.50049,-10.35648l9.41498,-4.09136l4.50049,10.35648z" fill-opacity="0.37255" fill="#ffffff"/><path d="M267.35453,192.66115l-4.50049,-10.35648l9.41498,-4.09136l4.50049,10.35648z" fill-opacity="0.37255" fill="#ffffff"/><path d="M278.02484,188.0243l-4.50049,-10.35648l9.41498,-4.09136l4.50049,10.35648z" fill-opacity="0.37255" fill="#ffffff"/><path d="M288.70276,183.3841l-4.50049,-10.35648l9.41498,-4.09136l4.50049,10.35648z" fill-opacity="0.37255" fill="#ffffff"/><path d="M299.05163,178.88694l-4.50049,-10.35648l9.41498,-4.09136l4.50049,10.35648z" fill-opacity="0.37255" fill="#ffffff"/><path d="M309.72955,174.24674l-4.50049,-10.35648l9.41498,-4.09136l4.50049,10.35648z" fill-opacity="0.37255" fill="#ffffff"/><path d="M320.39985,169.60988l-4.50049,-10.35648l9.41498,-4.09136l4.50049,10.35648z" fill-opacity="0.37255" fill="#ffffff"/><path d="M331.07779,164.9697l-4.50049,-10.35648l9.41498,-4.09136l4.50049,10.35648z" fill-opacity="0.37255" fill="#ffffff"/><path d="M341.74049,160.33611l-4.50049,-10.35648l9.41498,-4.09136l4.50049,10.35648z" fill-opacity="0.37255" fill="#ffffff"/><path d="M352.41841,155.69595l-4.50049,-10.35648l9.41498,-4.09136l4.50049,10.35648z" fill-opacity="0.37255" fill="#ffffff"/><path d="M363.08873,151.05907l-4.50049,-10.35648l9.41498,-4.09136l4.50049,10.35648z" fill-opacity="0.37255" fill="#ffffff"/><path d="M265.89473,208.77906l-4.50049,-10.35648l9.41498,-4.09136l4.50049,10.35648z" fill-opacity="0.37255" fill="#ffffff"/><path d="M276.57266,204.13886l-4.50049,-10.35648l9.41498,-4.09136l4.50049,10.35648z" fill-opacity="0.37255" fill="#ffffff"/><path d="M287.24297,199.50201l-4.50049,-10.35648l9.41498,-4.09136l4.50049,10.35648z" fill-opacity="0.37255" fill="#ffffff"/><path d="M297.92089,194.86181l-4.50049,-10.35648l9.41498,-4.09136l4.50049,10.35648z" fill-opacity="0.37255" fill="#ffffff"/><path d="M308.26976,190.36465l-4.50049,-10.35648l9.41498,-4.09136l4.50049,10.35648z" fill-opacity="0.37255" fill="#ffffff"/><path d="M318.94768,185.72445l-4.50049,-10.35648l9.41498,-4.09136l4.50049,10.35648z" fill-opacity="0.37255" fill="#ffffff"/><path d="M329.618,181.08759l-4.50049,-10.35648l9.41498,-4.09136l4.50049,10.35648z" fill-opacity="0.37255" fill="#ffffff"/><path d="M340.29592,176.4474l-4.50049,-10.35648l9.41498,-4.09136l4.50049,10.35648z" fill-opacity="0.37255" fill="#ffffff"/><path d="M350.95862,171.81382l-4.50049,-10.35648l9.41498,-4.09136l4.50049,10.35648z" fill-opacity="0.37255" fill="#ffffff"/><path d="M361.63655,167.17366l-4.50049,-10.35648l9.41498,-4.09136l4.50049,10.35648z" fill-opacity="0.37255" fill="#ffffff"/><path d="M372.30686,162.53677l-4.50049,-10.35648l9.41498,-4.09136l4.50049,10.35648z" fill-opacity="0.37255" fill="#ffffff"/><path d="M268.6316,223.64196l-4.50049,-10.35648l9.41498,-4.09136l4.50049,10.35648z" fill-opacity="0.37255" fill="#ffffff"/><path d="M279.30954,219.00176l-4.50049,-10.35648l9.41498,-4.09136l4.50049,10.35648z" fill-opacity="0.37255" fill="#ffffff"/><path d="M289.97985,214.3649l-4.50049,-10.35648l9.41498,-4.09136l4.50049,10.35648z" fill-opacity="0.37255" fill="#ffffff"/><path d="M300.65776,209.72471l-4.50049,-10.35648l9.41498,-4.09136l4.50049,10.35648z" fill-opacity="0.37255" fill="#ffffff"/><path d="M311.00663,205.22752l-4.50049,-10.35648l9.41498,-4.09136l4.50049,10.35648z" fill-opacity="0.37255" fill="#ffffff"/><path d="M321.68456,200.58735l-4.50049,-10.35648l9.41498,-4.09136l4.50049,10.35648z" fill-opacity="0.37255" fill="#ffffff"/><path d="M332.35487,195.95046l-4.50049,-10.35648l9.41498,-4.09136l4.50049,10.35648z" fill-opacity="0.37255" fill="#ffffff"/><path d="M343.0328,191.3103l-4.50049,-10.35648l9.41498,-4.09136l4.50049,10.35648z" fill-opacity="0.37255" fill="#ffffff"/><path d="M353.6955,186.67672l-4.50049,-10.35648l9.41498,-4.09136l4.50049,10.35648z" fill-opacity="0.37255" fill="#ffffff"/><path d="M364.37342,182.03657l-4.50049,-10.35648l9.41498,-4.09136l4.50049,10.35648z" fill-opacity="0.37255" fill="#ffffff"/><path d="M375.04374,177.39967l-4.50049,-10.35648l9.41498,-4.09136l4.50049,10.35648z" fill-opacity="0.37255" fill="#ffffff"/></g><text transform="translate(259.03155,130.63653) scale(0.58665,0.58665)" font-size="40" xml:space="preserve" fill="#000000" fill-rule="nonzero" stroke="#000000" stroke-width="3" stroke-linecap="butt" stroke-linejoin="miter" stroke-miterlimit="10" stroke-dasharray="" stroke-dashoffset="0" font-family="&quot;OpenSans-Medium&quot;, Sans Serif" font-weight="normal" text-anchor="start" style="mix-blend-mode: normal"><tspan x="0" dy="0">KEYBOARD</tspan></text></g></g></svg>