<svg version="1.1" xmlns="http://www.w3.org/2000/svg" xmlns:xlink="http://www.w3.org/1999/xlink" width="797.24481" height="493.53197" viewBox="0,0,797.24481,493.53197"><defs><radialGradient cx="668.53223" cy="178.05158" r="43.68355" gradientUnits="userSpaceOnUse" id="color-1"><stop offset="0" stop-color="#999999"/><stop offset="1" stop-color="#ffffff"/></radialGradient><radialGradient cx="102.86928" cy="50.82325" r="186.89832" gradientUnits="userSpaceOnUse" id="color-2"><stop offset="0" stop-color="#999999"/><stop offset="1" stop-color="#ffffff"/></radialGradient><radialGradient cx="123.22574" cy="199.3473" r="82.45269" gradientUnits="userSpaceOnUse" id="color-3"><stop offset="0" stop-color="#999999"/><stop offset="1" stop-color="#ffffff"/></radialGradient><radialGradient cx="291.95343" cy="104.88163" r="61.15696" gradientUnits="userSpaceOnUse" id="color-4"><stop offset="0" stop-color="#999999"/><stop offset="1" stop-color="#ffffff"/></radialGradient><radialGradient cx="286.49298" cy="273.60932" r="50.78212" gradientUnits="userSpaceOnUse" id="color-5"><stop offset="0" stop-color="#999999"/><stop offset="1" stop-color="#ffffff"/></radialGradient><radialGradient cx="270.6577" cy="214.0905" r="135.41899" gradientUnits="userSpaceOnUse" id="color-6"><stop offset="0" stop-color="#999999"/><stop offset="1" stop-color="#ffffff"/></radialGradient><radialGradient cx="82.51018" cy="304.73713" r="165.22022" gradientUnits="userSpaceOnUse" id="color-7"><stop offset="0" stop-color="#999999"/><stop offset="1" stop-color="#ffffff"/></radialGradient><radialGradient cx="350.38017" cy="178.05157" r="66.61741" gradientUnits="userSpaceOnUse" id="color-8"><stop offset="0" stop-color="#999999"/><stop offset="1" stop-color="#ffffff"/></radialGradient><radialGradient cx="57.15437" cy="196.07104" r="128.32042" gradientUnits="userSpaceOnUse" id="color-9"><stop offset="0" stop-color="#999999"/><stop offset="1" stop-color="#ffffff"/></radialGradient><radialGradient cx="267.38142" cy="368.075" r="137.60317" gradientUnits="userSpaceOnUse" id="color-10"><stop offset="0" stop-color="#999999"/><stop offset="1" stop-color="#ffffff"/></radialGradient><radialGradient cx="367.30755" cy="331.49003" r="96.64984" gradientUnits="userSpaceOnUse" id="color-11"><stop offset="0" stop-color="#999999"/><stop offset="1" stop-color="#ffffff"/></radialGradient><radialGradient cx="401.70834" cy="106.51977" r="131.59668" gradientUnits="userSpaceOnUse" id="color-12"><stop offset="0" stop-color="#999999"/><stop offset="1" stop-color="#ffffff"/></radialGradient><radialGradient cx="394.06372" cy="20.24477" r="114.66931" gradientUnits="userSpaceOnUse" id="color-13"><stop offset="0" stop-color="#999999"/><stop offset="1" stop-color="#ffffff"/></radialGradient><radialGradient cx="550.99119" cy="69.38875" r="106.69142" gradientUnits="userSpaceOnUse" id="color-14"><stop offset="0" stop-color="#999999"/><stop offset="1" stop-color="#ffffff"/></radialGradient><radialGradient cx="501.38848" cy="354.96993" r="136.81116" gradientUnits="userSpaceOnUse" id="color-15"><stop offset="0" stop-color="#999999"/><stop offset="1" stop-color="#ffffff"/></radialGradient><radialGradient cx="536.05984" cy="267.88324" r="114.14622" gradientUnits="userSpaceOnUse" id="color-16"><stop offset="0" stop-color="#999999"/><stop offset="1" stop-color="#ffffff"/></radialGradient><radialGradient cx="541.70026" cy="191.70268" r="115.96597" gradientUnits="userSpaceOnUse" id="color-17"><stop offset="0" stop-color="#999999"/><stop offset="1" stop-color="#ffffff"/></radialGradient><radialGradient cx="162.54093" cy="15.33037" r="43.68355" gradientUnits="userSpaceOnUse" id="color-18"><stop offset="0" stop-color="#999999"/><stop offset="1" stop-color="#ffffff"/></radialGradient><radialGradient cx="53.87811" cy="66.11249" r="101.0182" gradientUnits="userSpaceOnUse" id="color-19"><stop offset="0" stop-color="#999999"/><stop offset="1" stop-color="#ffffff"/></radialGradient><radialGradient cx="249.90801" cy="94.50679" r="52.9663" gradientUnits="userSpaceOnUse" id="color-20"><stop offset="0" stop-color="#999999"/><stop offset="1" stop-color="#ffffff"/></radialGradient></defs><g transform="translate(84.52904,64.8921)"><g data-paper-data="{&quot;isPaintingLayer&quot;:true}" fill-rule="nonzero" stroke-opacity="0.22745" stroke="#000000" stroke-width="1" stroke-linecap="butt" stroke-linejoin="miter" stroke-miterlimit="10" stroke-dasharray="" stroke-dashoffset="0" style="mix-blend-mode: normal"><path d="M624.84868,368.62103v-381.13893h87.36709v381.13893z" fill="url(#color-1)"/><path d="M-84.02903,166.0386v-230.4307h373.79665v230.4307z" fill="url(#color-2)"/><path d="M64.25295,281.79999v-164.90539h117.94557v164.90539z" fill="url(#color-3)"/><path d="M233.52669,166.0386v-122.31393h116.85348v122.31393z" fill="url(#color-4)"/><path d="M235.71085,317.83892v-88.45918h101.56424v88.45918z" fill="url(#color-5)"/><path d="M135.23871,267.60284v-107.02469h270.83798v107.02469z" fill="url(#color-6)"/><path d="M-82.71004,404.1172v-198.76013h330.44044v198.76013z" fill="url(#color-7)"/><path d="M283.76277,227.19556v-98.28798h133.23481v98.28798z" fill="url(#color-8)"/><path d="M-71.16604,263.23447v-134.3269h256.64083v134.3269z" fill="url(#color-9)"/><path d="M129.77827,421.58734v-107.02469h275.20634v107.02469z" fill="url(#color-10)"/><path d="M307.78871,428.13987v-193.29969h119.03766v193.29969z" fill="url(#color-11)"/><path d="M323.07795,238.11645v-263.19336h157.26076v263.19336z" fill="url(#color-12)"/><path d="M279.39439,66.65852v-92.82753h229.33861v92.82753z" fill="url(#color-13)"/><path d="M444.2998,160.57816v-182.3788h213.38283v182.3788z" fill="url(#color-14)"/><path d="M364.57733,398.65348v-87.36709h273.62232v87.36709z" fill="url(#color-15)"/><path d="M421.91362,332.05575v-128.34501h228.29244v128.34501z" fill="url(#color-16)"/><path d="M425.73429,274.15536v-164.90539h231.93194v164.90539z" fill="url(#color-17)"/><path d="M118.85738,51.36929v-72.07785h87.36709v72.07785z" fill="url(#color-18)"/><path d="M-47.14009,98.3291v-64.43323h202.0364v64.43323z" fill="url(#color-19)"/><path d="M197.48776,147.47309v-105.9326h104.84051v105.9326z" fill="url(#color-20)"/></g></g></svg>