<svg version="1.1" xmlns="http://www.w3.org/2000/svg" xmlns:xlink="http://www.w3.org/1999/xlink" width="188.01223" height="87.63089" viewBox="0,0,188.01223,87.63089"><g transform="translate(-276.86884,-102.45621)"><g data-paper-data="{&quot;isPaintingLayer&quot;:true}" fill-rule="nonzero" stroke-linejoin="miter" stroke-miterlimit="10" stroke-dasharray="" stroke-dashoffset="0" style="mix-blend-mode: normal"><path d="M281.86884,190.0871v-77.53584h183.01223v77.53584z" fill="#272727" stroke="none" stroke-width="0" stroke-linecap="butt"/><path d="M276.86884,179.99205v-77.53584h183.01223v77.53584z" fill="#000000" stroke="none" stroke-width="0" stroke-linecap="butt"/><path d="M432.42585,113.50425l6.70309,6.70309l2.85238,2.85238l-9.34154,9.34154" fill="none" stroke="#ffffff" stroke-width="1.5" stroke-linecap="round"/><path d="M421.72943,122.63186c0,-7.71909 6.25756,-13.97665 13.97665,-13.97665c7.71909,0 13.97666,6.25757 13.97666,13.97665c0,7.71909 -6.25756,13.97666 -13.97666,13.97666c-7.71909,0 -13.97665,-6.25757 -13.97665,-13.97666z" fill="none" stroke="#ffffff" stroke-width="1.5" stroke-linecap="butt"/><text transform="translate(321.1365,166.63809) scale(0.47128,0.47511)" font-size="40" xml:space="preserve" fill="#ffffff" fill-rule="nonzero" stroke="none" stroke-width="1" stroke-linecap="butt" stroke-linejoin="miter" stroke-miterlimit="10" stroke-dasharray="" stroke-dashoffset="0" font-family="&quot;OpenSans-Bold&quot;, Sans Serif" font-weight="normal" text-anchor="start" style="mix-blend-mode: normal"><tspan x="0" dy="0">Gameplay</tspan></text><path d="M354.3983,126.85599c0,-7.71909 6.25756,-13.97665 13.97665,-13.97665c7.71909,0 13.97666,6.25756 13.97666,13.97665c0,7.71909 -6.25756,13.97665 -13.97666,13.97665c-7.71909,0 -13.97665,-6.25756 -13.97665,-13.97665z" fill="#ffffff" stroke="none" stroke-width="0" stroke-linecap="butt"/><path d="M363.49658,113.6507v-2.62048h9.17167v2.62048z" fill="#ffffff" stroke="none" stroke-width="0" stroke-linecap="butt"/><path d="M363.65878,142.14288v-2.62047h9.17167v2.62047z" fill="#ffffff" stroke="none" stroke-width="0" stroke-linecap="butt"/><path d="M355.4391,131.52293h-2.62047v-9.17167l2.62048,0z" fill="#ffffff" stroke="none" stroke-width="0" stroke-linecap="butt"/><path d="M383.93129,131.36073h-2.62047l0,-9.17167h2.62047z" fill="#ffffff" stroke="none" stroke-width="0" stroke-linecap="butt"/><path d="M355.81524,120.96797l-1.85296,-1.85296l6.48535,-6.48535l1.85296,1.85296z" fill="#ffffff" stroke="none" stroke-width="0" stroke-linecap="butt"/><path d="M376.07695,141.0003l-1.85296,-1.85296l6.48535,-6.48535l1.85296,1.85296z" fill="#ffffff" stroke="none" stroke-width="0" stroke-linecap="butt"/><path d="M362.75531,139.30304l-1.85296,1.85296l-6.48535,-6.48535l1.85296,-1.85296z" fill="#ffffff" stroke="none" stroke-width="0" stroke-linecap="butt"/><path d="M382.78763,119.04133l-1.85296,1.85296l-6.48535,-6.48535l1.85296,-1.85296z" fill="#ffffff" stroke="none" stroke-width="0" stroke-linecap="butt"/><path d="M358.64896,126.85599c0,-5.37152 4.35448,-9.726 9.726,-9.726c5.37152,0 9.726,4.35448 9.726,9.726c0,5.37152 -4.35448,9.726 -9.726,9.726c-5.37152,0 -9.726,-4.35448 -9.726,-9.726z" fill="#000000" stroke="none" stroke-width="0" stroke-linecap="butt"/></g></g></svg>