<svg version="1.1" xmlns="http://www.w3.org/2000/svg" xmlns:xlink="http://www.w3.org/1999/xlink" width="747" height="407.4461" viewBox="0,0,747,407.4461"><defs><linearGradient x1="2.88238" y1="180.8447" x2="749.88238" y2="180.8447" gradientUnits="userSpaceOnUse" id="color-1"><stop offset="0" stop-color="#00bdb1"/><stop offset="1" stop-color="#0079b1"/></linearGradient><linearGradient x1="71.877" y1="68.68392" x2="303.10823" y2="68.68392" gradientUnits="userSpaceOnUse" id="color-2"><stop offset="0" stop-color="#1e1e1e" stop-opacity="0.7098"/><stop offset="1" stop-color="#616161" stop-opacity="0.6549"/></linearGradient></defs><g transform="translate(-2.88238,8.08881)"><g data-paper-data="{&quot;isPaintingLayer&quot;:true}" fill-rule="nonzero" stroke-linecap="butt" stroke-linejoin="miter" stroke-miterlimit="10" stroke-dasharray="" stroke-dashoffset="0" style="mix-blend-mode: normal"><path d="M2.88238,369.77821v-377.86702h747v377.86702z" fill="url(#color-1)" stroke="none" stroke-width="0"/><path d="M579.41893,78.05099c0,0 -226.52247,-32.60974 -186.83428,-46.69212c36.79399,-13.05544 192.19941,-34.64555 192.19941,-34.64555l49.47846,0.30927c0,0 -193.84508,26.13875 -194.81885,39.34929c-1.01186,13.72752 188.85758,41.52447 188.85758,41.52447z" fill-opacity="0.36471" fill="#00ffee" stroke="none" stroke-width="0"/><path d="M468.39526,49.54594c0,0 10.26711,1.40225 27.00994,5.00181c9.98942,2.14764 18.15167,4.88582 33.97918,7.37003c30.62257,4.80638 68.79437,10.02869 93.44394,15.37794c30.24792,6.56416 45.82822,14.17809 32.40121,18.94233c-36.79399,13.05544 -186.83428,32.92542 -186.83428,32.92542l-41.72882,-0.80074c0,0 180.73032,-23.92715 181.70408,-37.1377c0.83551,-11.33502 -130.74905,-28.67716 -171.76287,-37.88547c-8.67858,-1.94849 -9.9412,-4.86767 -9.9412,-4.86767z" data-paper-data="{&quot;index&quot;:null}" fill-opacity="0.36471" fill="#00ffee" stroke="none" stroke-width="0"/><path d="M71.877,127.774v-118.18018h231.23123v118.18018z" fill="url(#color-2)" stroke="#ffffff" stroke-width="2"/><text transform="translate(77.40053,33.55418) scale(0.48447,0.48447)" font-size="40" xml:space="preserve" fill="#ffffff" fill-rule="nonzero" stroke="#ffffff" stroke-width="1" stroke-linecap="butt" stroke-linejoin="miter" stroke-miterlimit="10" stroke-dasharray="" stroke-dashoffset="0" font-family="&quot;OpenSans-Medium&quot;, Sans Serif" font-weight="normal" text-anchor="start" style="mix-blend-mode: normal"><tspan x="0" dy="0">Level 10 - Diamonds?</tspan></text><text transform="translate(78.40052,58.562) scale(0.3647,0.3647)" font-size="40" xml:space="preserve" fill-opacity="0.1451" fill="#00ffc3" fill-rule="nonzero" stroke="#ffffff" stroke-width="1" stroke-linecap="butt" stroke-linejoin="miter" stroke-miterlimit="10" stroke-dasharray="" stroke-dashoffset="0" font-family="&quot;OpenSans-Light&quot;, Sans Serif" font-weight="normal" text-anchor="start" style="mix-blend-mode: normal"><tspan x="0" dy="0">Ignore the self promotion lol.</tspan><tspan x="0" dy="48px">Anyways, moving objects!</tspan></text><path d="M566.50723,183.65159c0,0 -226.52247,-32.60974 -186.83428,-46.69211c36.79399,-13.05543 192.19941,-34.64555 192.19941,-34.64555l49.47846,0.30927c0,0 -193.84508,26.13875 -194.81885,39.34929c-1.01186,13.72752 188.85758,41.52447 188.85758,41.52447z" fill-opacity="0.36471" fill="#00ffee" stroke="none" stroke-width="0"/><path d="M455.48356,155.14655c0,0 10.26711,1.40226 27.00994,5.00181c9.98942,2.14764 18.15167,4.88582 33.97918,7.37003c30.62257,4.80638 68.79437,10.02869 93.44394,15.37794c30.24792,6.56416 45.82822,14.17809 32.40121,18.94233c-36.79399,13.05543 -186.83428,32.92542 -186.83428,32.92542l-41.72882,-0.80074c0,0 180.73032,-23.92715 181.70408,-37.1377c0.83551,-11.33502 -130.74905,-28.67716 -171.76287,-37.88547c-8.67858,-1.94849 -9.9412,-4.86767 -9.9412,-4.86767z" data-paper-data="{&quot;index&quot;:null}" fill-opacity="0.36471" fill="#00ffee" stroke="none" stroke-width="0"/><path d="M553.59552,295.2582c0,0 -226.52247,-32.60974 -186.83428,-46.69211c36.79399,-13.05543 192.19941,-34.64555 192.19941,-34.64555l49.47846,0.30927c0,0 -193.84508,26.13875 -194.81885,39.34929c-1.01186,13.72752 188.85758,41.52447 188.85758,41.52447z" fill-opacity="0.36471" fill="#00ffee" stroke="none" stroke-width="0"/><path d="M442.57185,266.75315c0,0 10.26711,1.40226 27.00994,5.00181c9.98942,2.14763 18.15167,4.88582 33.97918,7.37003c30.62257,4.80638 68.79437,10.02869 93.44394,15.37794c30.24792,6.56415 45.82822,14.17809 32.40121,18.94233c-36.79399,13.05543 -186.83428,32.92543 -186.83428,32.92543l-41.72882,-0.80074c0,0 180.73032,-23.92715 181.70408,-37.1377c0.83551,-11.33502 -130.74905,-28.67716 -171.76287,-37.88547c-8.67858,-1.94849 -9.9412,-4.86767 -9.9412,-4.86767z" data-paper-data="{&quot;index&quot;:null}" fill-opacity="0.36471" fill="#00ffee" stroke="none" stroke-width="0"/><path d="M553.59552,399.35729c0,0 -226.52247,-32.60974 -186.83428,-46.69211c36.79399,-13.05543 192.19941,-34.64555 192.19941,-34.64555l49.47846,0.30927c0,0 -193.84508,26.13875 -194.81885,39.34929c-1.01186,13.72753 188.85758,41.52447 188.85758,41.52447z" fill-opacity="0.36471" fill="#00ffee" stroke="none" stroke-width="0"/></g></g></svg>