<svg version="1.1" xmlns="http://www.w3.org/2000/svg" xmlns:xlink="http://www.w3.org/1999/xlink" width="631.61207" height="352.45428" viewBox="0,0,631.61207,352.45428"><defs><linearGradient x1="318.35514" y1="9.83033" x2="318.35514" y2="348.66817" gradientUnits="userSpaceOnUse" id="color-1"><stop offset="0" stop-color="#000000" stop-opacity="0.81961"/><stop offset="1" stop-color="#000000" stop-opacity="0.54902"/></linearGradient></defs><g transform="translate(-6.60723,-9.83033)"><g data-paper-data="{&quot;isPaintingLayer&quot;:true}" fill-rule="nonzero" stroke="none" stroke-linecap="butt" stroke-linejoin="miter" stroke-miterlimit="10" stroke-dasharray="" stroke-dashoffset="0" style="mix-blend-mode: normal"><text transform="translate(613.82733,356.10869) scale(0.5,0.5)" font-size="40" xml:space="preserve" fill-opacity="0.5098" fill="#000000" fill-rule="nonzero" stroke="none" stroke-width="1" stroke-linecap="butt" stroke-linejoin="miter" stroke-miterlimit="10" stroke-dasharray="" stroke-dashoffset="0" font-family="Sans Serif" font-weight="normal" text-anchor="start" style="mix-blend-mode: normal"><tspan x="0" dy="0">KS</tspan></text><path d="M16.84917,340.47865c0,0 -10.24194,-6.81948 -10.24194,-28.79948c0,-72.46133 0,-227.63848 0,-265.61092c0,-15.82357 9.72984,-27.50243 9.72984,-27.50243c0,0 4.53218,-8.73549 21.42961,-8.73549c60.15923,0 417.02999,0 545.92904,0c28.95565,0 36.16538,14.19517 36.16538,14.19517c0,0 10.24194,7.12726 10.24194,38.44311c0,72.57599 0,198.82694 0,237.73376c0,22.49604 -10.75403,36.45451 -10.75403,36.45451c0,0 -9.69011,10.91936 -33.08357,10.91936c-119.69241,0 -479.60432,1.09194 -542.35205,1.09194c-17.64673,0 -27.06421,-8.18952 -27.06421,-8.18952z" fill="url(#color-1)" stroke-width="none"/></g></g></svg>