<svg version="1.1" xmlns="http://www.w3.org/2000/svg" xmlns:xlink="http://www.w3.org/1999/xlink" width="509.50451" height="90.3195" viewBox="0,0,509.50451,90.3195"><defs><linearGradient x1="325.25525" y1="137.34025" x2="325.25525" y2="222.65975" gradientUnits="userSpaceOnUse" id="color-1"><stop offset="0" stop-color="#000000"/><stop offset="1" stop-color="#292929"/></linearGradient></defs><g transform="translate(-70.50301,-134.84025)"><g data-paper-data="{&quot;isPaintingLayer&quot;:true}" fill-rule="nonzero" stroke-linejoin="miter" stroke-miterlimit="10" stroke-dasharray="" stroke-dashoffset="0" style="mix-blend-mode: normal"><path d="M73.00301,222.65975v-85.3195h504.50451v85.3195z" fill="url(#color-1)" stroke-opacity="0.40392" stroke="#ffffff" stroke-width="5" stroke-linecap="butt"/><text transform="translate(86.20109,192.75672) scale(1.06306,1.06306)" font-size="40" xml:space="preserve" fill="#ffffff" fill-rule="nonzero" stroke="none" stroke-width="1" stroke-linecap="butt" stroke-linejoin="miter" stroke-miterlimit="10" stroke-dasharray="" stroke-dashoffset="0" font-family="&quot;OpenSans-Medium&quot;, Sans Serif" font-weight="normal" text-anchor="start" style="mix-blend-mode: normal"><tspan x="0" dy="0">START NEW</tspan></text><g fill="none" stroke="#ff0000" stroke-width="4"><path d="M500.72289,206.83077v-53.66153h42.0241v53.66153z" stroke-linecap="butt"/><path d="M524.4632,154.87163l17.94801,17.94802" stroke-linecap="round"/></g><path d="M528.58032,200.83334c0,-7.82404 6.34263,-14.16667 14.16666,-14.16667c7.82403,0 14.16666,6.34264 14.16666,14.16667c0,7.82404 -6.34263,14.16666 -14.16666,14.16666c-7.82403,0 -14.16666,-6.34263 -14.16666,-14.16666z" fill="#ff0000" stroke="#000000" stroke-width="0" stroke-linecap="butt"/><path d="M542.74699,193.83333v14" fill="none" stroke="#ffffff" stroke-width="3.5" stroke-linecap="round"/><path d="M535.74699,200.83333l14,0" fill="none" stroke="#ffffff" stroke-width="3.5" stroke-linecap="round"/></g></g></svg>