<svg version="1.1" xmlns="http://www.w3.org/2000/svg" xmlns:xlink="http://www.w3.org/1999/xlink" width="100.87112" height="104.2238" viewBox="0,0,100.87112,104.2238"><defs><linearGradient x1="320" y1="127.8881" x2="320" y2="232.1119" gradientUnits="userSpaceOnUse" id="color-1"><stop offset="0" stop-color="#000000"/><stop offset="1" stop-color="#000000" stop-opacity="0"/></linearGradient><radialGradient cx="320" cy="180" r="45.20693" gradientUnits="userSpaceOnUse" id="color-2"><stop offset="0" stop-color="#b100ff" stop-opacity="0.04706"/><stop offset="1" stop-color="#000000"/></radialGradient><linearGradient x1="297.94033" y1="171.70081" x2="342.05968" y2="171.70081" gradientUnits="userSpaceOnUse" id="color-3"><stop offset="0" stop-color="#00ffff"/><stop offset="1" stop-color="#ff0000"/></linearGradient><linearGradient x1="320.00001" y1="147.11735" x2="320.00001" y2="196.28425" gradientUnits="userSpaceOnUse" id="color-4"><stop offset="0" stop-color="#ffffff"/><stop offset="1" stop-color="#1a1a1a"/></linearGradient><linearGradient x1="306.4464" y1="171.70081" x2="333.55363" y2="171.70081" gradientUnits="userSpaceOnUse" id="color-5"><stop offset="0" stop-color="#00ffff"/><stop offset="1" stop-color="#ff00de"/></linearGradient><linearGradient x1="320.00001" y1="156.59657" x2="320.00001" y2="186.80505" gradientUnits="userSpaceOnUse" id="color-6"><stop offset="0" stop-color="#ffffff"/><stop offset="1" stop-color="#1a1a1a"/></linearGradient></defs><g transform="translate(-269.56444,-127.8881)"><g data-paper-data="{&quot;isPaintingLayer&quot;:true}" fill-rule="nonzero" stroke-linecap="butt" stroke-linejoin="miter" stroke-miterlimit="10" stroke-dasharray="" stroke-dashoffset="0" style="mix-blend-mode: normal"><path d="M269.56444,232.1119v-104.2238h100.87112v104.2238z" fill="url(#color-1)" stroke="none" stroke-width="NaN"/><path d="M274.79307,226.70948v-93.41899h90.41387v93.41899z" fill="url(#color-2)" stroke="none" stroke-width="NaN"/><path d="M297.94033,191.2367v-44.11934c0,0 14.55092,4.4867 21.87273,4.4867c7.38412,0 22.24662,-4.4867 22.24662,-4.4867v44.11934c0,0 -14.83215,5.04755 -22.24662,5.04755c-7.28986,0 -21.87273,-5.04755 -21.87273,-5.04755z" fill="url(#color-3)" stroke="url(#color-4)" stroke-width="1.5"/><path d="M306.4464,183.7038v-27.10723c0,0 8.94019,2.75666 13.43876,2.75666c4.53685,0 13.66848,-2.75666 13.66848,-2.75666v27.10723c0,0 -9.11297,3.10125 -13.66848,3.10125c-4.47894,0 -13.43876,-3.10125 -13.43876,-3.10125z" fill="url(#color-5)" stroke="url(#color-6)" stroke-width="1.5"/><text transform="translate(282.23617,216.09785) scale(0.23364,0.23364)" font-size="40" xml:space="preserve" fill="#ffffff" fill-rule="nonzero" stroke="none" stroke-width="1" stroke-linecap="butt" stroke-linejoin="miter" stroke-miterlimit="10" stroke-dasharray="" stroke-dashoffset="0" font-family="&quot;OpenSans-Medium&quot;, Sans Serif" font-weight="normal" text-anchor="start" style="mix-blend-mode: normal"><tspan x="0" dy="0">CUSTOMIZATION</tspan></text></g></g></svg>