<svg version="1.1" xmlns="http://www.w3.org/2000/svg" xmlns:xlink="http://www.w3.org/1999/xlink" width="747.5" height="505.60002" viewBox="0,0,747.5,505.60002"><g transform="translate(0.25,66.96811)"><g data-paper-data="{&quot;isPaintingLayer&quot;:true}" fill-rule="nonzero" stroke-linejoin="miter" stroke-miterlimit="10" stroke-dasharray="" stroke-dashoffset="0" style="mix-blend-mode: normal"><path d="M0,370.6494v-396.48001h747v396.48001z" fill="#515151" stroke="#000000" stroke-width="0.5" stroke-linecap="butt"/><path d="M113.33888,134.20689l30.975,15.4875" fill="none" stroke="#000000" stroke-width="2" stroke-linecap="round"/><path d="M151.54138,135.23939l-20.65,9.2925l-7.2275,-19.6175" fill="none" stroke="#000000" stroke-width="2" stroke-linecap="round"/><path d="M220.71888,294.24439l-24.78,6.195" fill="none" stroke="#000000" stroke-width="2" stroke-linecap="round"/><path d="M215.55638,281.85439l-7.2275,13.4225l-13.4225,-10.325" fill="none" stroke="#000000" stroke-width="2" stroke-linecap="round"/><path d="M463.35639,295.27689l21.6825,11.3575" fill="none" stroke="#000000" stroke-width="2" stroke-linecap="round"/><path d="M487.10389,297.34189l-10.325,5.1625l-4.13,-13.4225" fill="none" stroke="#000000" stroke-width="2" stroke-linecap="round"/><path d="M404.50389,188.92939l34.0725,-8.26" fill="none" stroke="#000000" stroke-width="2" stroke-linecap="round"/><path d="M433.41389,161.05189l-11.3575,21.6825l-14.455,-12.39" fill="none" stroke="#000000" stroke-width="2" stroke-linecap="round"/><path d="M304.35139,126.97939l34.0725,3.0975" fill="none" stroke="#000000" stroke-width="2" stroke-linecap="round"/><path d="M337.39139,110.45939l-19.6175,16.52l-9.2925,-20.65" fill="none" stroke="#000000" stroke-width="2" stroke-linecap="round"/><path d="M493.29889,79.48439l-30.975,-1.0325" fill="none" stroke="#000000" stroke-width="2" stroke-linecap="round"/><path d="M492.26639,61.93189l-15.4875,16.52l-8.26,-20.65" fill="none" stroke="#000000" stroke-width="2" stroke-linecap="round"/><path d="M345.65139,258.10689l-20.65,1.0325" fill="none" stroke="#000000" stroke-width="2" stroke-linecap="round"/><path d="M350.81389,237.4569l-13.4225,18.585l-15.4875,-10.325" fill="none" stroke="#000000" stroke-width="2" stroke-linecap="round"/><path d="M249.62888,217.83939l-40.2675,-4.13" fill="none" stroke="#000000" stroke-width="2" stroke-linecap="round"/><path d="M251.69388,199.25439l-21.6825,15.4875l-6.195,-15.4875" fill="none" stroke="#000000" stroke-width="2" stroke-linecap="round"/><path d="M349.78139,316.95939l-26.845,15.4875" fill="none" stroke="#000000" stroke-width="2" stroke-linecap="round"/><path d="M337.39139,305.60189v15.4875l-17.5525,-3.0975" fill="none" stroke="#000000" stroke-width="2" stroke-linecap="round"/><path d="M529.43639,248.8144l-21.6825,-5.1625" fill="none" stroke="#000000" stroke-width="2" stroke-linecap="round"/><path d="M543.89139,225.06689l-27.8775,19.6175v-19.6175" fill="none" stroke="#000000" stroke-width="2" stroke-linecap="round"/><path d="M467.48639,255.00939l-34.0725,13.4225" fill="none" stroke="#000000" stroke-width="2" stroke-linecap="round"/><path d="M448.90139,232.29439v25.8125l-17.5525,-12.39" fill="none" stroke="#000000" stroke-width="2" stroke-linecap="round"/><path d="M510.85139,149.69439l40.2675,1.0325" fill="none" stroke="#000000" stroke-width="2" stroke-linecap="round"/><path d="M541.82639,131.10939l-8.26,15.4875l-15.4875,-25.8125" fill="none" stroke="#000000" stroke-width="2" stroke-linecap="round"/><path d="M164.96388,268.43189l-41.3,10.325" fill="none" stroke="#000000" stroke-width="2" stroke-linecap="round"/><path d="M159.80138,243.65188l-13.4225,22.715l-17.5525,-10.325" fill="none" stroke="#000000" stroke-width="2" stroke-linecap="round"/><path d="M149.47638,273.59439l-5.1625,-7.2275" fill="none" stroke="#000000" stroke-width="2" stroke-linecap="round"/><path d="M190.77638,83.61439l36.1375,-3.0975" fill="none" stroke="#000000" stroke-width="2" stroke-linecap="round"/><path d="M232.07638,67.09439l-18.585,13.4225l-15.4875,-10.325" fill="none" stroke="#000000" stroke-width="2" stroke-linecap="round"/><path d="M409.66639,28.89189l-23.7475,-7.2275" fill="none" stroke="#000000" stroke-width="2" stroke-linecap="round"/><path d="M411.73139,11.33939l-17.5525,14.455v-12.39" fill="none" stroke="#000000" stroke-width="2" stroke-linecap="round"/><path d="M100.94888,415.0469l-9.2925,-445.00751" fill="none" stroke="#3d3d3d" stroke-width="10" stroke-linecap="round"/><path d="M179.41888,410.9169l-25.8125,-443.97501" fill="none" stroke="#3d3d3d" stroke-width="10" stroke-linecap="round"/><path d="M266.14888,390.2669l-8.26,-426.42251" fill="none" stroke="#3d3d3d" stroke-width="10" stroke-linecap="round"/><path d="M318.80639,388.2019l-9.2925,-422.29251" fill="none" stroke="#3d3d3d" stroke-width="10" stroke-linecap="round"/><path d="M378.69139,-43.38311l6.195,461.52751" fill="none" stroke="#3d3d3d" stroke-width="10" stroke-linecap="round"/><path d="M436.51139,-24.79811l6.195,458.43001" fill="none" stroke="#3d3d3d" stroke-width="10" stroke-linecap="round"/><path d="M482.97389,-30.99311l20.65,457.39751" fill="none" stroke="#3d3d3d" stroke-width="10" stroke-linecap="round"/><path d="M534.59889,-38.22061l12.39,467.72251" fill="none" stroke="#3d3d3d" stroke-width="10" stroke-linecap="round"/><path d="M603.7764,429.5019l-10.325,-459.46251" fill="none" stroke="#3d3d3d" stroke-width="10" stroke-linecap="round"/><path d="M34.86888,-27.89561l19.6175,396.48001" fill="none" stroke="#3d3d3d" stroke-width="10" stroke-linecap="round"/><path d="M713.8815,-61.96811l-12.39,467.72251" data-paper-data="{&quot;index&quot;:null}" fill="none" stroke="#3d3d3d" stroke-width="10" stroke-linecap="round"/><path d="M644.70399,405.7544l10.325,-459.46251" data-paper-data="{&quot;index&quot;:null}" fill="none" stroke="#3d3d3d" stroke-width="10" stroke-linecap="round"/></g></g></svg>