<svg version="1.1" xmlns="http://www.w3.org/2000/svg" xmlns:xlink="http://www.w3.org/1999/xlink" width="96.46982" height="96.46982" viewBox="0,0,96.46982,96.46982"><defs><linearGradient x1="320" y1="131.76509" x2="320" y2="228.23491" gradientUnits="userSpaceOnUse" id="color-1"><stop offset="0" stop-color="#000000"/><stop offset="1" stop-color="#000000" stop-opacity="0"/></linearGradient><radialGradient cx="320" cy="180" r="42.11336" gradientUnits="userSpaceOnUse" id="color-2"><stop offset="0" stop-color="#b100ff" stop-opacity="0.04706"/><stop offset="1" stop-color="#000000"/></radialGradient><linearGradient x1="297.94033" y1="180" x2="342.05968" y2="180" gradientUnits="userSpaceOnUse" id="color-3"><stop offset="0" stop-color="#00ffff"/><stop offset="1" stop-color="#ff0000"/></linearGradient><linearGradient x1="320.00001" y1="155.41654" x2="320.00001" y2="204.58344" gradientUnits="userSpaceOnUse" id="color-4"><stop offset="0" stop-color="#ffffff"/><stop offset="1" stop-color="#1a1a1a"/></linearGradient><linearGradient x1="306.4464" y1="180.00001" x2="333.55363" y2="180.00001" gradientUnits="userSpaceOnUse" id="color-5"><stop offset="0" stop-color="#00ffff"/><stop offset="1" stop-color="#ff00de"/></linearGradient><linearGradient x1="320.00001" y1="164.89577" x2="320.00001" y2="195.10425" gradientUnits="userSpaceOnUse" id="color-6"><stop offset="0" stop-color="#ffffff"/><stop offset="1" stop-color="#1a1a1a"/></linearGradient></defs><g transform="translate(-271.76509,-131.76509)"><g data-paper-data="{&quot;isPaintingLayer&quot;:true}" fill-rule="nonzero" stroke-linecap="butt" stroke-linejoin="miter" stroke-miterlimit="10" stroke-dasharray="" stroke-dashoffset="0" style="mix-blend-mode: normal"><path d="M271.76509,180c0,-26.63941 21.59551,-48.23491 48.23491,-48.23491c26.63941,0 48.23491,21.59551 48.23491,48.23491c0,26.63941 -21.59551,48.23491 -48.23491,48.23491c-26.63941,0 -48.23491,-21.59551 -48.23491,-48.23491z" fill="url(#color-1)" stroke="none" stroke-width="0"/><path d="M277.88664,180c0,-23.25857 18.8548,-42.11336 42.11336,-42.11336c23.25856,0 42.11336,18.85479 42.11336,42.11336c0,23.25857 -18.8548,42.11336 -42.11336,42.11336c-23.25856,0 -42.11336,-18.85479 -42.11336,-42.11336z" fill="url(#color-2)" stroke="none" stroke-width="0"/><path d="M297.94033,199.5359v-44.11934c0,0 14.55092,4.4867 21.87273,4.4867c7.38412,0 22.24662,-4.4867 22.24662,-4.4867v44.11934c0,0 -14.83215,5.04755 -22.24662,5.04755c-7.28986,0 -21.87273,-5.04755 -21.87273,-5.04755z" fill="url(#color-3)" stroke="url(#color-4)" stroke-width="1.5"/><path d="M306.4464,192.003v-27.10723c0,0 8.94019,2.75666 13.43876,2.75666c4.53685,0 13.66848,-2.75666 13.66848,-2.75666v27.10723c0,0 -9.11297,3.10125 -13.66848,3.10125c-4.47894,0 -13.43876,-3.10125 -13.43876,-3.10125z" fill="url(#color-5)" stroke="url(#color-6)" stroke-width="1.5"/><text transform="translate(293.39139,210.28606) scale(0.15875,0.15875)" font-size="40" xml:space="preserve" fill="#ffffff" fill-rule="nonzero" stroke="none" stroke-width="1" stroke-linecap="butt" stroke-linejoin="miter" stroke-miterlimit="10" stroke-dasharray="" stroke-dashoffset="0" font-family="&quot;OpenSans-Bold&quot;, Sans Serif" font-weight="normal" text-anchor="start" style="mix-blend-mode: normal"><tspan x="0" dy="0">CUSTOMIZATION</tspan></text></g></g></svg>