<svg version="1.1" xmlns="http://www.w3.org/2000/svg" xmlns:xlink="http://www.w3.org/1999/xlink" width="42.66792" height="42.66792" viewBox="0,0,42.66792,42.66792"><g transform="translate(-303.66604,-163.66604)"><g data-paper-data="{&quot;isPaintingLayer&quot;:true}" fill-rule="nonzero" stroke-linejoin="miter" stroke-miterlimit="10" stroke-dasharray="" stroke-dashoffset="0" style="mix-blend-mode: normal"><g><path d="M306.36049,186.52186c0,-9.96558 8.45697,-18.04428 18.88919,-18.04428c10.4322,0 18.88919,8.0787 18.88919,18.04428c0,9.96558 -8.45697,18.04428 -18.88919,18.04428c-10.4322,0 -18.88919,-8.0787 -18.88919,-18.04428z" fill="#ff7b00" stroke="#000000" stroke-width="3" stroke-linecap="butt"/><path d="M315.73809,169.75732l-1.07172,-3.07137l5.22466,-0.63987l2.54535,2.04758z" fill="#e06a00" stroke="#000000" stroke-width="3" stroke-linecap="round"/><path d="M314.66637,166.68595c0,0 -0.45057,3.95766 -1.49021,5.08937c-0.83561,0.90961 -4.27032,1.18133 -4.27032,1.18133c0,0 -0.66038,-2.80461 0.11663,-3.67058c0.82741,-0.92213 4.70614,-1.70431 4.70614,-1.70431" fill="#42ff00" stroke="#000000" stroke-width="3" stroke-linecap="round"/><path d="M325.14212,176.26586c0,-0.71324 0.60526,-1.29143 1.3519,-1.29143c0.74664,0 1.3519,0.57819 1.3519,1.29143c0,0.71324 -0.60526,1.29143 -1.3519,1.29143c-0.74664,0 -1.3519,-0.57819 -1.3519,-1.29143z" fill="#000000" stroke="none" stroke-width="0.5" stroke-linecap="butt"/><path d="M333.72092,180.09022c0,-0.71324 0.60526,-1.29143 1.3519,-1.29143c0.74664,0 1.3519,0.57819 1.3519,1.29143c0,0.71324 -0.60526,1.29143 -1.3519,1.29143c-0.74664,0 -1.3519,-0.57819 -1.3519,-1.29143z" fill="#000000" stroke="none" stroke-width="0.5" stroke-linecap="butt"/><path d="M328.19236,181.91135c0,-0.71324 0.60526,-1.29143 1.3519,-1.29143c0.74664,0 1.3519,0.57819 1.3519,1.29143c0,0.71324 -0.60526,1.29143 -1.3519,1.29143c-0.74664,0 -1.3519,-0.57819 -1.3519,-1.29143z" fill="#000000" stroke="none" stroke-width="0.5" stroke-linecap="butt"/><path d="M335.43511,175.52531c-0.7499,1.07454 -1.87475,0.35818 -1.87475,0.35818l-1.12722,-0.71803c-2.63274,-1.60085 -6.21393,-2.03218 -9.23339,-1.28898c0,0 -1.31153,0.31321 -1.63942,-0.93965c-0.32788,-1.25287 0.98365,-1.56609 0.98365,-1.56609c3.8098,-0.88733 8.01908,-0.33847 11.35572,1.62482l1.16046,0.73887c0,0 1.12485,0.71636 0.37495,1.79089z" fill="#ffffff" stroke="none" stroke-width="0.5" stroke-linecap="butt"/><path d="M336.0086,178.08698c0,-0.71324 0.60526,-1.29143 1.3519,-1.29143c0.74664,0 1.3519,0.57819 1.3519,1.29143c0,0.71324 -0.60526,1.29143 -1.3519,1.29143c-0.74664,0 -1.3519,-0.57819 -1.3519,-1.29143z" fill="#ffffff" stroke="none" stroke-width="0.5" stroke-linecap="butt"/></g><path d="M303.69104,206.30896v-42.61792h42.61792v42.61792z" fill="none" stroke="#000000" stroke-width="0.05" stroke-linecap="butt"/></g></g></svg>