<svg version="1.1" xmlns="http://www.w3.org/2000/svg" xmlns:xlink="http://www.w3.org/1999/xlink" width="807.96354" height="590.416" viewBox="0,0,807.96354,590.416"><defs><linearGradient x1="368.40965" y1="-3.90476" x2="368.40965" y2="376.96447" gradientUnits="userSpaceOnUse" id="color-1"><stop offset="0" stop-color="#295f67"/><stop offset="1" stop-color="#312152"/></linearGradient><linearGradient x1="159.15171" y1="-38.37151" x2="78.47406" y2="27.41969" gradientUnits="userSpaceOnUse" id="color-2"><stop offset="0" stop-color="#295f67"/><stop offset="1" stop-color="#312152"/></linearGradient><linearGradient x1="248.75213" y1="-38.56551" x2="185.08446" y2="13.35435" gradientUnits="userSpaceOnUse" id="color-3"><stop offset="0" stop-color="#295f67"/><stop offset="1" stop-color="#312152"/></linearGradient><linearGradient x1="379.26777" y1="-44.82903" x2="275.899" y2="39.46636" gradientUnits="userSpaceOnUse" id="color-4"><stop offset="0" stop-color="#295f67"/><stop offset="1" stop-color="#312152"/></linearGradient><linearGradient x1="457.84792" y1="-69.43173" x2="354.47916" y2="14.86366" gradientUnits="userSpaceOnUse" id="color-5"><stop offset="0" stop-color="#295f67"/><stop offset="1" stop-color="#312152"/></linearGradient><linearGradient x1="560.14303" y1="-70.22921" x2="456.77427" y2="14.06619" gradientUnits="userSpaceOnUse" id="color-6"><stop offset="0" stop-color="#295f67"/><stop offset="1" stop-color="#312152"/></linearGradient><linearGradient x1="677.7831" y1="-50.79224" x2="574.41434" y2="33.50316" gradientUnits="userSpaceOnUse" id="color-7"><stop offset="0" stop-color="#295f67"/><stop offset="1" stop-color="#312152"/></linearGradient><linearGradient x1="177.43964" y1="323.72353" x2="74.07087" y2="408.01893" gradientUnits="userSpaceOnUse" id="color-8"><stop offset="0" stop-color="#295f67"/><stop offset="1" stop-color="#312152"/></linearGradient><linearGradient x1="278.33975" y1="311.02344" x2="174.97098" y2="395.31884" gradientUnits="userSpaceOnUse" id="color-9"><stop offset="0" stop-color="#295f67"/><stop offset="1" stop-color="#312152"/></linearGradient><linearGradient x1="398.76981" y1="345.93381" x2="295.40105" y2="430.22921" gradientUnits="userSpaceOnUse" id="color-10"><stop offset="0" stop-color="#295f67"/><stop offset="1" stop-color="#312152"/></linearGradient><linearGradient x1="501.06492" y1="321.33111" x2="397.69616" y2="405.62651" gradientUnits="userSpaceOnUse" id="color-11"><stop offset="0" stop-color="#295f67"/><stop offset="1" stop-color="#312152"/></linearGradient><linearGradient x1="600.57003" y1="334.81678" x2="497.20127" y2="419.11217" gradientUnits="userSpaceOnUse" id="color-12"><stop offset="0" stop-color="#295f67"/><stop offset="1" stop-color="#312152"/></linearGradient><linearGradient x1="688.91517" y1="316.16538" x2="585.54641" y2="400.46078" gradientUnits="userSpaceOnUse" id="color-13"><stop offset="0" stop-color="#295f67"/><stop offset="1" stop-color="#312152"/></linearGradient><linearGradient x1="109.7454" y1="90.1259" x2="119.51038" y2="90.1259" gradientUnits="userSpaceOnUse" id="color-14"><stop offset="0" stop-color="#295f67"/><stop offset="1" stop-color="#312152"/></linearGradient><linearGradient x1="166.94027" y1="69.29632" x2="187.86521" y2="69.29632" gradientUnits="userSpaceOnUse" id="color-15"><stop offset="0" stop-color="#295f67"/><stop offset="1" stop-color="#312152"/></linearGradient><linearGradient x1="94.40044" y1="140.11687" x2="108.35041" y2="140.11687" gradientUnits="userSpaceOnUse" id="color-16"><stop offset="0" stop-color="#295f67"/><stop offset="1" stop-color="#312152"/></linearGradient><linearGradient x1="151.5953" y1="120.47756" x2="175.31025" y2="120.47756" gradientUnits="userSpaceOnUse" id="color-17"><stop offset="0" stop-color="#295f67"/><stop offset="1" stop-color="#312152"/></linearGradient><linearGradient x1="125.09036" y1="178.80037" x2="130.67035" y2="178.80037" gradientUnits="userSpaceOnUse" id="color-18"><stop offset="0" stop-color="#295f67"/><stop offset="1" stop-color="#312152"/></linearGradient><linearGradient x1="229.71512" y1="116.31165" x2="247.85008" y2="116.31165" gradientUnits="userSpaceOnUse" id="color-19"><stop offset="0" stop-color="#295f67"/><stop offset="1" stop-color="#312152"/></linearGradient><linearGradient x1="179.88622" y1="167.62605" x2="197.23921" y2="172.12078" gradientUnits="userSpaceOnUse" id="color-20"><stop offset="0" stop-color="#295f67"/><stop offset="1" stop-color="#312152"/></linearGradient><linearGradient x1="140.43533" y1="208.55691" x2="152.9903" y2="208.55691" gradientUnits="userSpaceOnUse" id="color-21"><stop offset="0" stop-color="#295f67"/><stop offset="1" stop-color="#312152"/></linearGradient><linearGradient x1="105.56041" y1="240.09883" x2="112.53539" y2="240.09883" gradientUnits="userSpaceOnUse" id="color-22"><stop offset="0" stop-color="#295f67"/><stop offset="1" stop-color="#312152"/></linearGradient><linearGradient x1="155.7803" y1="250.21606" x2="161.36028" y2="250.21606" gradientUnits="userSpaceOnUse" id="color-23"><stop offset="0" stop-color="#295f67"/><stop offset="1" stop-color="#312152"/></linearGradient><linearGradient x1="206.00017" y1="224.0303" x2="212.97516" y2="224.0303" gradientUnits="userSpaceOnUse" id="color-24"><stop offset="0" stop-color="#295f67"/><stop offset="1" stop-color="#312152"/></linearGradient><linearGradient x1="259.01005" y1="263.90406" x2="277.14501" y2="263.90406" gradientUnits="userSpaceOnUse" id="color-25"><stop offset="0" stop-color="#295f67"/><stop offset="1" stop-color="#312152"/></linearGradient><linearGradient x1="238.0851" y1="193.08351" x2="246.45507" y2="193.08351" gradientUnits="userSpaceOnUse" id="color-26"><stop offset="0" stop-color="#295f67"/><stop offset="1" stop-color="#312152"/></linearGradient><linearGradient x1="252.03506" y1="150.82923" x2="254.82505" y2="150.82923" gradientUnits="userSpaceOnUse" id="color-27"><stop offset="0" stop-color="#295f67"/><stop offset="1" stop-color="#312152"/></linearGradient><linearGradient x1="268.77503" y1="182.37115" x2="275.75001" y2="182.37115" gradientUnits="userSpaceOnUse" id="color-28"><stop offset="0" stop-color="#295f67"/><stop offset="1" stop-color="#312152"/></linearGradient><linearGradient x1="296.67496" y1="135.35583" x2="305.04494" y2="135.35583" gradientUnits="userSpaceOnUse" id="color-29"><stop offset="0" stop-color="#295f67"/><stop offset="1" stop-color="#312152"/></linearGradient><linearGradient x1="256.22006" y1="71.08171" x2="277.14501" y2="71.08171" gradientUnits="userSpaceOnUse" id="color-30"><stop offset="0" stop-color="#295f67"/><stop offset="1" stop-color="#312152"/></linearGradient><linearGradient x1="345.49984" y1="122.26295" x2="349.68484" y2="122.26295" gradientUnits="userSpaceOnUse" id="color-31"><stop offset="0" stop-color="#295f67"/><stop offset="1" stop-color="#312152"/></linearGradient><linearGradient x1="356.65981" y1="81.19893" x2="359.44981" y2="81.19893" gradientUnits="userSpaceOnUse" id="color-32"><stop offset="0" stop-color="#295f67"/><stop offset="1" stop-color="#312152"/></linearGradient><linearGradient x1="291.09497" y1="102.62364" x2="292.48996" y2="102.62364" gradientUnits="userSpaceOnUse" id="color-33"><stop offset="0" stop-color="#295f67"/><stop offset="1" stop-color="#312152"/></linearGradient><linearGradient x1="337.12986" y1="174.63445" x2="345.49984" y2="174.63445" gradientUnits="userSpaceOnUse" id="color-34"><stop offset="0" stop-color="#295f67"/><stop offset="1" stop-color="#312152"/></linearGradient><linearGradient x1="285.51499" y1="201.41534" x2="292.48996" y2="201.41534" gradientUnits="userSpaceOnUse" id="color-35"><stop offset="0" stop-color="#295f67"/><stop offset="1" stop-color="#312152"/></linearGradient><linearGradient x1="358.05481" y1="250.21606" x2="381.76976" y2="250.21606" gradientUnits="userSpaceOnUse" id="color-36"><stop offset="0" stop-color="#295f67"/><stop offset="1" stop-color="#312152"/></linearGradient><linearGradient x1="310.62492" y1="230.57674" x2="318.9949" y2="230.57674" gradientUnits="userSpaceOnUse" id="color-37"><stop offset="0" stop-color="#295f67"/><stop offset="1" stop-color="#312152"/></linearGradient><linearGradient x1="404.0897" y1="153.80488" x2="419.43467" y2="153.80488" gradientUnits="userSpaceOnUse" id="color-38"><stop offset="0" stop-color="#295f67"/><stop offset="1" stop-color="#312152"/></linearGradient><linearGradient x1="355.26482" y1="198.43968" x2="369.21479" y2="198.43968" gradientUnits="userSpaceOnUse" id="color-39"><stop offset="0" stop-color="#295f67"/><stop offset="1" stop-color="#312152"/></linearGradient><linearGradient x1="388.74474" y1="118.69217" x2="405.4847" y2="118.69217" gradientUnits="userSpaceOnUse" id="color-40"><stop offset="0" stop-color="#295f67"/><stop offset="1" stop-color="#312152"/></linearGradient><linearGradient x1="430.75227" y1="84.61224" x2="465.31192" y2="71.83431" gradientUnits="userSpaceOnUse" id="color-41"><stop offset="0" stop-color="#295f67"/><stop offset="1" stop-color="#312152"/></linearGradient><linearGradient x1="472.44454" y1="171.06367" x2="486.3945" y2="171.06367" gradientUnits="userSpaceOnUse" id="color-42"><stop offset="0" stop-color="#295f67"/><stop offset="1" stop-color="#312152"/></linearGradient><linearGradient x1="415.24968" y1="210.3423" x2="429.19964" y2="210.3423" gradientUnits="userSpaceOnUse" id="color-43"><stop offset="0" stop-color="#295f67"/><stop offset="1" stop-color="#312152"/></linearGradient><linearGradient x1="405.4847" y1="247.83553" x2="409.66969" y2="247.83553" gradientUnits="userSpaceOnUse" id="color-44"><stop offset="0" stop-color="#295f67"/><stop offset="1" stop-color="#312152"/></linearGradient><linearGradient x1="454.30959" y1="252.00145" x2="465.46956" y2="252.00145" gradientUnits="userSpaceOnUse" id="color-45"><stop offset="0" stop-color="#295f67"/><stop offset="1" stop-color="#312152"/></linearGradient><linearGradient x1="376.18977" y1="288.30443" x2="388.74474" y2="288.30443" gradientUnits="userSpaceOnUse" id="color-46"><stop offset="0" stop-color="#295f67"/><stop offset="1" stop-color="#312152"/></linearGradient><linearGradient x1="317.59991" y1="285.32877" x2="325.96989" y2="285.32877" gradientUnits="userSpaceOnUse" id="color-47"><stop offset="0" stop-color="#295f67"/><stop offset="1" stop-color="#312152"/></linearGradient><linearGradient x1="468.25955" y1="121.66782" x2="476.62953" y2="121.66782" gradientUnits="userSpaceOnUse" id="color-48"><stop offset="0" stop-color="#295f67"/><stop offset="1" stop-color="#312152"/></linearGradient><linearGradient x1="508.71446" y1="66.9158" x2="522.66442" y2="66.9158" gradientUnits="userSpaceOnUse" id="color-49"><stop offset="0" stop-color="#295f67"/><stop offset="1" stop-color="#312152"/></linearGradient><linearGradient x1="550.56435" y1="65.1304" x2="567.30432" y2="65.1304" gradientUnits="userSpaceOnUse" id="color-50"><stop offset="0" stop-color="#295f67"/><stop offset="1" stop-color="#312152"/></linearGradient><linearGradient x1="507.31946" y1="121.66782" x2="515.68943" y2="121.66782" gradientUnits="userSpaceOnUse" id="color-51"><stop offset="0" stop-color="#295f67"/><stop offset="1" stop-color="#312152"/></linearGradient><linearGradient x1="560.32933" y1="110.36034" x2="582.64928" y2="110.36034" gradientUnits="userSpaceOnUse" id="color-52"><stop offset="0" stop-color="#295f67"/><stop offset="1" stop-color="#312152"/></linearGradient><linearGradient x1="529.63941" y1="175.82472" x2="543.58937" y2="175.82472" gradientUnits="userSpaceOnUse" id="color-53"><stop offset="0" stop-color="#295f67"/><stop offset="1" stop-color="#312152"/></linearGradient><linearGradient x1="478.02452" y1="207.96177" x2="500.34448" y2="207.96177" gradientUnits="userSpaceOnUse" id="color-54"><stop offset="0" stop-color="#295f67"/><stop offset="1" stop-color="#312152"/></linearGradient><linearGradient x1="539.40438" y1="238.31344" x2="549.16936" y2="238.31344" gradientUnits="userSpaceOnUse" id="color-55"><stop offset="0" stop-color="#295f67"/><stop offset="1" stop-color="#312152"/></linearGradient><linearGradient x1="497.55449" y1="259.14302" x2="503.13447" y2="259.14302" gradientUnits="userSpaceOnUse" id="color-56"><stop offset="0" stop-color="#295f67"/><stop offset="1" stop-color="#312152"/></linearGradient><linearGradient x1="568.69931" y1="279.9726" x2="578.46429" y2="279.9726" gradientUnits="userSpaceOnUse" id="color-57"><stop offset="0" stop-color="#295f67"/><stop offset="1" stop-color="#312152"/></linearGradient><linearGradient x1="611.94421" y1="232.95727" x2="618.9192" y2="232.95727" gradientUnits="userSpaceOnUse" id="color-58"><stop offset="0" stop-color="#295f67"/><stop offset="1" stop-color="#312152"/></linearGradient><linearGradient x1="570.09431" y1="174.03932" x2="582.64928" y2="174.03932" gradientUnits="userSpaceOnUse" id="color-59"><stop offset="0" stop-color="#295f67"/><stop offset="1" stop-color="#312152"/></linearGradient><linearGradient x1="565.90932" y1="229.98161" x2="582.64928" y2="229.98161" gradientUnits="userSpaceOnUse" id="color-60"><stop offset="0" stop-color="#295f67"/><stop offset="1" stop-color="#312152"/></linearGradient><linearGradient x1="606.36422" y1="134.16557" x2="618.9192" y2="134.16557" gradientUnits="userSpaceOnUse" id="color-61"><stop offset="0" stop-color="#295f67"/><stop offset="1" stop-color="#312152"/></linearGradient><linearGradient x1="628.68417" y1="96.0772" x2="639.84414" y2="96.0772" gradientUnits="userSpaceOnUse" id="color-62"><stop offset="0" stop-color="#295f67"/><stop offset="1" stop-color="#312152"/></linearGradient><linearGradient x1="618.9192" y1="194.8689" x2="641.23914" y2="194.8689" gradientUnits="userSpaceOnUse" id="color-63"><stop offset="0" stop-color="#295f67"/><stop offset="1" stop-color="#312152"/></linearGradient><linearGradient x1="637.05415" y1="253.78684" x2="651.00412" y2="253.78684" gradientUnits="userSpaceOnUse" id="color-64"><stop offset="0" stop-color="#295f67"/><stop offset="1" stop-color="#312152"/></linearGradient><linearGradient x1="595.20425" y1="265.68946" x2="603.57423" y2="265.68946" gradientUnits="userSpaceOnUse" id="color-65"><stop offset="0" stop-color="#295f67"/><stop offset="1" stop-color="#312152"/></linearGradient><linearGradient x1="493.36949" y1="281.75799" x2="504.52946" y2="281.75799" gradientUnits="userSpaceOnUse" id="color-66"><stop offset="0" stop-color="#295f67"/><stop offset="1" stop-color="#312152"/></linearGradient><linearGradient x1="529.63941" y1="270.4505" x2="544.98437" y2="270.4505" gradientUnits="userSpaceOnUse" id="color-67"><stop offset="0" stop-color="#295f67"/><stop offset="1" stop-color="#312152"/></linearGradient><linearGradient x1="459.88957" y1="225.22057" x2="469.65455" y2="225.22057" gradientUnits="userSpaceOnUse" id="color-68"><stop offset="0" stop-color="#295f67"/><stop offset="1" stop-color="#312152"/></linearGradient><linearGradient x1="415.24968" y1="177.01498" x2="427.80465" y2="177.01498" gradientUnits="userSpaceOnUse" id="color-69"><stop offset="0" stop-color="#295f67"/><stop offset="1" stop-color="#312152"/></linearGradient><linearGradient x1="388.74474" y1="72.27197" x2="413.85468" y2="72.27197" gradientUnits="userSpaceOnUse" id="color-70"><stop offset="0" stop-color="#295f67"/><stop offset="1" stop-color="#312152"/></linearGradient><linearGradient x1="349.68484" y1="150.82923" x2="359.44981" y2="150.82923" gradientUnits="userSpaceOnUse" id="color-71"><stop offset="0" stop-color="#295f67"/><stop offset="1" stop-color="#312152"/></linearGradient><linearGradient x1="334.33987" y1="101.43338" x2="341.31486" y2="101.43338" gradientUnits="userSpaceOnUse" id="color-72"><stop offset="0" stop-color="#295f67"/><stop offset="1" stop-color="#312152"/></linearGradient><linearGradient x1="203.21018" y1="86.55511" x2="215.76515" y2="86.55511" gradientUnits="userSpaceOnUse" id="color-73"><stop offset="0" stop-color="#295f67"/><stop offset="1" stop-color="#312152"/></linearGradient><linearGradient x1="224.13513" y1="44.89596" x2="236.6901" y2="44.89596" gradientUnits="userSpaceOnUse" id="color-74"><stop offset="0" stop-color="#295f67"/><stop offset="1" stop-color="#312152"/></linearGradient><linearGradient x1="190.65521" y1="131.78504" x2="200.42019" y2="131.78504" gradientUnits="userSpaceOnUse" id="color-75"><stop offset="0" stop-color="#295f67"/><stop offset="1" stop-color="#312152"/></linearGradient><linearGradient x1="123.69537" y1="66.9158" x2="125.09036" y2="66.9158" gradientUnits="userSpaceOnUse" id="color-76"><stop offset="0" stop-color="#295f67"/><stop offset="1" stop-color="#312152"/></linearGradient><linearGradient x1="90.21545" y1="95.48207" x2="98.58543" y2="95.48207" gradientUnits="userSpaceOnUse" id="color-77"><stop offset="0" stop-color="#295f67"/><stop offset="1" stop-color="#312152"/></linearGradient><linearGradient x1="120.90538" y1="117.50191" x2="137.64534" y2="117.50191" gradientUnits="userSpaceOnUse" id="color-78"><stop offset="0" stop-color="#295f67"/><stop offset="1" stop-color="#312152"/></linearGradient><linearGradient x1="90.21545" y1="185.94194" x2="101.37542" y2="185.94194" gradientUnits="userSpaceOnUse" id="color-79"><stop offset="0" stop-color="#295f67"/><stop offset="1" stop-color="#312152"/></linearGradient><linearGradient x1="120.90538" y1="260.92841" x2="129.27536" y2="260.92841" gradientUnits="userSpaceOnUse" id="color-80"><stop offset="0" stop-color="#295f67"/><stop offset="1" stop-color="#312152"/></linearGradient><linearGradient x1="154.3853" y1="285.9239" x2="164.15028" y2="285.9239" gradientUnits="userSpaceOnUse" id="color-81"><stop offset="0" stop-color="#295f67"/><stop offset="1" stop-color="#312152"/></linearGradient><linearGradient x1="78.70224" y1="-23.69558" x2="-1.97541" y2="42.09561" gradientUnits="userSpaceOnUse" id="color-82"><stop offset="0" stop-color="#295f67"/><stop offset="1" stop-color="#312152"/></linearGradient><linearGradient x1="92.80519" y1="340.77998" x2="-10.56358" y2="425.07538" gradientUnits="userSpaceOnUse" id="color-83"><stop offset="0" stop-color="#295f67"/><stop offset="1" stop-color="#312152"/></linearGradient></defs><g transform="translate(60.96354,115.208)"><g data-paper-data="{&quot;isPaintingLayer&quot;:true}" fill-rule="nonzero" stroke-linecap="butt" stroke-linejoin="miter" stroke-miterlimit="10" stroke-dasharray="" stroke-dashoffset="0" style="mix-blend-mode: normal"><path d="M-10.18073,376.96447v-380.86924h757.18073v380.86924z" fill="url(#color-1)" stroke="none" stroke-width="0"/><path d="M39.43822,-7.42908l80.67765,-65.79118l78.07169,69.69754l-80.67765,65.79118z" fill="url(#color-2)" stroke="#000000" stroke-width="0.5"/><path d="M154.27888,-14.14695l63.66767,-51.91985l61.61115,55.00259l-63.66767,51.91985z" fill="url(#color-3)" stroke="#000000" stroke-width="0.5"/><path d="M225.88406,-5.18385l103.36877,-84.29539l100.02986,89.30042l-103.36876,84.2954z" fill="url(#color-4)" stroke="#000000" stroke-width="0.5"/><path d="M304.46423,-29.78655l103.36878,-84.29539l100.02986,89.30043l-103.36877,84.2954z" fill="url(#color-5)" stroke="#000000" stroke-width="0.5"/><path d="M406.75934,-30.58403l103.36877,-84.29539l100.02986,89.30043l-103.36876,84.2954z" fill="url(#color-6)" stroke="#000000" stroke-width="0.5"/><path d="M524.39941,-11.14706l103.36877,-84.29539l100.02986,89.30042l-103.36877,84.2954z" fill="url(#color-7)" stroke="#000000" stroke-width="0.5"/><path d="M24.05594,363.36871l103.36878,-84.29539l100.02986,89.30043l-103.36877,84.2954z" fill="url(#color-8)" stroke="#000000" stroke-width="0.5"/><path d="M124.95605,350.66862l103.36877,-84.29539l100.02986,89.30042l-103.36877,84.2954z" fill="url(#color-9)" stroke="#000000" stroke-width="0.5"/><path d="M245.38612,385.57899l103.36878,-84.29539l100.02986,89.30042l-103.36877,84.2954z" fill="url(#color-10)" stroke="#000000" stroke-width="0.5"/><path d="M347.68123,360.97629l103.36878,-84.29539l100.02986,89.30042l-103.36876,84.2954z" fill="url(#color-11)" stroke="#000000" stroke-width="0.5"/><path d="M447.18634,374.46196l103.36878,-84.29539l100.02986,89.30042l-103.36877,84.2954z" fill="url(#color-12)" stroke="#000000" stroke-width="0.5"/><path d="M535.53148,355.81056l103.36878,-84.29539l100.02986,89.30042l-103.36877,84.2954z" fill="url(#color-13)" stroke="#000000" stroke-width="0.5"/><path d="M109.7454,94.88694v-9.52209h9.76498v9.52209z" fill="url(#color-14)" stroke="#000000" stroke-width="0.5"/><path d="M166.94027,84.17459v-29.75654h20.92495v29.75654z" fill="url(#color-15)" stroke="#000000" stroke-width="0.5"/><path d="M94.40044,147.25844v-14.28314h13.94997v14.28314z" fill="url(#color-16)" stroke="#000000" stroke-width="0.5"/><path d="M151.5953,131.78504v-22.61497h23.71495v22.61497z" fill="url(#color-17)" stroke="#000000" stroke-width="0.5"/><path d="M125.09036,181.77602v-5.95131h5.57999v5.95131z" fill="url(#color-18)" stroke="#000000" stroke-width="0.5"/><path d="M229.71512,125.83374v-19.04418h18.13496v19.04418z" fill="url(#color-19)" stroke="#000000" stroke-width="0.5"/><path d="M177.4549,174.45967l4.86265,-13.66726l17.35299,4.49474l-4.86265,13.66726z" fill="url(#color-20)" stroke="#000000" stroke-width="0.5"/><path d="M140.43533,216.2936v-15.4734h12.55497v15.4734z" fill="url(#color-21)" stroke="#000000" stroke-width="0.5"/><path d="M105.56041,244.85988v-9.52209h6.97499v9.52209z" fill="url(#color-22)" stroke="#000000" stroke-width="0.5"/><path d="M155.7803,253.19171v-5.95131h5.57999v5.95131z" fill="url(#color-23)" stroke="#000000" stroke-width="0.5"/><path d="M206.00017,229.38648v-10.71235h6.97499v10.71235z" fill="url(#color-24)" stroke="#000000" stroke-width="0.5"/><path d="M259.01005,273.42616v-19.04418h18.13496v19.04418z" fill="url(#color-25)" stroke="#000000" stroke-width="0.5"/><path d="M238.0851,197.24942v-8.33183h8.36998v8.33183z" fill="url(#color-26)" stroke="#000000" stroke-width="0.5"/><path d="M252.03506,154.40001v-7.14157h2.78999v7.14157z" fill="url(#color-27)" stroke="#000000" stroke-width="0.5"/><path d="M268.77503,186.53707v-8.33183h6.97499v8.33183z" fill="url(#color-28)" stroke="#000000" stroke-width="0.5"/><path d="M296.67496,142.4974v-14.28314h8.36998v14.28314z" fill="url(#color-29)" stroke="#000000" stroke-width="0.5"/><path d="M256.22006,81.79407v-21.42471h20.92495v21.42471z" fill="url(#color-30)" stroke="#000000" stroke-width="0.5"/><path d="M345.49984,127.024v-9.52209h4.18499v9.52209z" fill="url(#color-31)" stroke="#000000" stroke-width="0.5"/><path d="M356.65981,82.98433v-3.57078h2.78999v3.57078z" fill="url(#color-32)" stroke="#000000" stroke-width="0.5"/><path d="M291.09497,103.21877v-1.19026h1.395v1.19026z" fill="url(#color-33)" stroke="#000000" stroke-width="0.5"/><path d="M337.12986,180.58576v-11.90262h8.36998v11.90262z" fill="url(#color-34)" stroke="#000000" stroke-width="0.5"/><path d="M285.51499,204.39099v-5.95131h6.97499v5.95131z" fill="url(#color-35)" stroke="#000000" stroke-width="0.5"/><path d="M358.05481,261.52354v-22.61497h23.71495v22.61497z" fill="url(#color-36)" stroke="#000000" stroke-width="0.5"/><path d="M310.62492,236.52805v-11.90262h8.36998v11.90262z" fill="url(#color-37)" stroke="#000000" stroke-width="0.5"/><path d="M404.0897,161.54158v-15.4734h15.34497v15.4734z" fill="url(#color-38)" stroke="#000000" stroke-width="0.5"/><path d="M355.26482,203.20073v-9.52209h13.94997v9.52209z" fill="url(#color-39)" stroke="#000000" stroke-width="0.5"/><path d="M388.74474,124.64348v-11.90262h16.73996v11.90262z" fill="url(#color-40)" stroke="#000000" stroke-width="0.5"/><path d="M439.62685,102.08634l-17.74915,-34.9482l34.55965,-12.77793l17.74915,34.9482z" fill="url(#color-41)" stroke="#000000" stroke-width="0.5"/><path d="M472.44454,180.58576v-19.04418h13.94997v19.04418z" fill="url(#color-42)" stroke="#000000" stroke-width="0.5"/><path d="M415.24968,218.67413v-16.66366h13.94997v16.66366z" fill="url(#color-43)" stroke="#000000" stroke-width="0.5"/><path d="M405.4847,253.19171v-10.71235h4.18499v10.71235z" fill="url(#color-44)" stroke="#000000" stroke-width="0.5"/><path d="M454.30959,256.7625v-9.52209h11.15997v9.52209z" fill="url(#color-45)" stroke="#000000" stroke-width="0.5"/><path d="M376.18977,294.85086v-13.09288h12.55497v13.09288z" fill="url(#color-46)" stroke="#000000" stroke-width="0.5"/><path d="M317.59991,290.08982v-9.52209h8.36998v9.52209z" fill="url(#color-47)" stroke="#000000" stroke-width="0.5"/><path d="M468.25955,128.21426v-13.09288h8.36998v13.09288z" fill="url(#color-48)" stroke="#000000" stroke-width="0.5"/><path d="M508.71446,72.27197v-10.71235h13.94997v10.71235z" fill="url(#color-49)" stroke="#000000" stroke-width="0.5"/><path d="M550.56435,72.27197v-14.28314h16.73996v14.28314z" fill="url(#color-50)" stroke="#000000" stroke-width="0.5"/><path d="M507.31946,124.64348v-5.95131h8.36998v5.95131z" fill="url(#color-51)" stroke="#000000" stroke-width="0.5"/><path d="M560.32933,121.07269v-21.42471h22.31994v21.42471z" fill="url(#color-52)" stroke="#000000" stroke-width="0.5"/><path d="M529.63941,180.58576v-9.52209h13.94997v9.52209z" fill="url(#color-53)" stroke="#000000" stroke-width="0.5"/><path d="M478.02452,218.67413v-21.42471h22.31994v21.42471z" fill="url(#color-54)" stroke="#000000" stroke-width="0.5"/><path d="M539.40438,241.2891v-5.95131h9.76498v5.95131z" fill="url(#color-55)" stroke="#000000" stroke-width="0.5"/><path d="M497.55449,260.33328v-2.38052h5.57999v2.38052z" fill="url(#color-56)" stroke="#000000" stroke-width="0.5"/><path d="M568.69931,284.13851v-8.33183h9.76498v8.33183z" fill="url(#color-57)" stroke="#000000" stroke-width="0.5"/><path d="M611.94421,236.52805v-7.14157h6.97499v7.14157z" fill="url(#color-58)" stroke="#000000" stroke-width="0.5"/><path d="M570.09431,181.77602v-15.4734h12.55497v15.4734z" fill="url(#color-59)" stroke="#000000" stroke-width="0.5"/><path d="M565.90932,235.33779v-10.71235h16.73996v10.71235z" fill="url(#color-60)" stroke="#000000" stroke-width="0.5"/><path d="M606.36422,140.11687v-11.90262h12.55497v11.90262z" fill="url(#color-61)" stroke="#000000" stroke-width="0.5"/><path d="M628.68417,104.40903v-16.66366h11.15997v16.66366z" fill="url(#color-62)" stroke="#000000" stroke-width="0.5"/><path d="M618.9192,202.01047v-14.28314h22.31994v14.28314z" fill="url(#color-63)" stroke="#000000" stroke-width="0.5"/><path d="M637.05415,259.14302v-10.71235h13.94997v10.71235z" fill="url(#color-64)" stroke="#000000" stroke-width="0.5"/><path d="M595.20425,269.85537v-8.33183h8.36998v8.33183z" fill="url(#color-65)" stroke="#000000" stroke-width="0.5"/><path d="M493.36949,285.32877v-7.14157h11.15997v7.14157z" fill="url(#color-66)" stroke="#000000" stroke-width="0.5"/><path d="M529.63941,276.99694v-13.09288h15.34497v13.09288z" fill="url(#color-67)" stroke="#000000" stroke-width="0.5"/><path d="M459.88957,227.00596v-3.57078h9.76498v3.57078z" fill="url(#color-68)" stroke="#000000" stroke-width="0.5"/><path d="M415.24968,181.77602v-9.52209h12.55497v9.52209z" fill="url(#color-69)" stroke="#000000" stroke-width="0.5"/><path d="M388.74474,80.6038v-16.66366h25.10994v16.66366z" fill="url(#color-70)" stroke="#000000" stroke-width="0.5"/><path d="M349.68484,154.40001v-7.14157h9.76498v7.14157z" fill="url(#color-71)" stroke="#000000" stroke-width="0.5"/><path d="M334.33987,109.17008v-15.4734h6.97499v15.4734z" fill="url(#color-72)" stroke="#000000" stroke-width="0.5"/><path d="M203.21018,87.74537v-2.38052h12.55497v2.38052z" fill="url(#color-73)" stroke="#000000" stroke-width="0.5"/><path d="M224.13513,50.84727v-11.90262h12.55497v11.90262z" fill="url(#color-74)" stroke="#000000" stroke-width="0.5"/><path d="M190.65521,136.54609v-9.52209h9.76498v9.52209z" fill="url(#color-75)" stroke="#000000" stroke-width="0.5"/><path d="M123.69537,67.51093v-1.19026h1.395v1.19026z" fill="url(#color-76)" stroke="#000000" stroke-width="0.5"/><path d="M90.21545,102.02851v-13.09288h8.36998v13.09288z" fill="url(#color-77)" stroke="#000000" stroke-width="0.5"/><path d="M120.90538,124.64348v-14.28314h16.73996v14.28314z" fill="url(#color-78)" stroke="#000000" stroke-width="0.5"/><path d="M90.21545,190.10785v-8.33183h11.15997v8.33183z" fill="url(#color-79)" stroke="#000000" stroke-width="0.5"/><path d="M120.90538,262.7138v-3.57078h8.36998v3.57078z" fill="url(#color-80)" stroke="#000000" stroke-width="0.5"/><path d="M154.3853,293.6606v-15.4734h9.76498v15.4734z" fill="url(#color-81)" stroke="#000000" stroke-width="0.5"/><path d="M-41.01125,7.24684l80.67765,-65.79118l78.07169,69.69754l-80.67765,65.79118z" fill="url(#color-82)" stroke="#000000" stroke-width="0.5"/><path d="M-60.57851,380.42516l103.36878,-84.29539l100.02986,89.30043l-103.36877,84.2954z" fill="url(#color-83)" stroke="#000000" stroke-width="0.5"/></g></g></svg>