<svg version="1.1" xmlns="http://www.w3.org/2000/svg" xmlns:xlink="http://www.w3.org/1999/xlink" width="355.46021" height="327.23414" viewBox="0,0,355.46021,327.23414"><g transform="translate(-178.36625,-31.71629)"><g data-paper-data="{&quot;isPaintingLayer&quot;:true}" fill-rule="nonzero" stroke-linejoin="miter" stroke-miterlimit="10" stroke-dasharray="" stroke-dashoffset="0" style="mix-blend-mode: normal"><path d="M222.70553,50.76184v-11.8564l32.99328,-5.98961l1.07112,10.70455z" fill="#960000" stroke="none" stroke-width="0" stroke-linecap="butt"/><path d="M344.06504,206.02317v-53.29769h16.55723v53.29769z" fill="#5c2800" stroke="#5c2800" stroke-width="2" stroke-linecap="butt"/><path d="M286.79741,210.19515v-56.287h14.1919v56.287z" fill="#5c2800" stroke="#5c2800" stroke-width="2" stroke-linecap="butt"/><path d="M286.79741,152.38414v-17.73988h73.91619v17.73988z" fill="#5c2800" stroke="#5c2800" stroke-width="2" stroke-linecap="butt"/><path d="M290.59538,251.28359v-19.80058h72.73353v19.80058z" fill="#2f1400" stroke="#2f1400" stroke-width="2" stroke-linecap="butt"/><path d="M386.98209,226.75237v-20.69653h12.41792v20.69653z" fill="#5c2800" stroke="#5c2800" stroke-width="2" stroke-linecap="butt"/><path d="M247.42833,230.30035v-16.55723h11.23526v16.55723z" fill="#5c2800" stroke="#5c2800" stroke-width="2" stroke-linecap="butt"/><path d="M362.14626,146.14022v-11.23526h24.24451v11.23526z" fill="#5c2800" stroke="#5c2800" stroke-width="2" stroke-linecap="butt"/><path d="M428.37517,162.29744v-17.73989h19.51387v17.73989z" fill="#5c2800" stroke="#5c2800" stroke-width="2" stroke-linecap="butt"/><path d="M401.76534,104.93849v-17.73989h23.06185v17.73989z" fill="#5c2800" stroke="#5c2800" stroke-width="2" stroke-linecap="butt"/><path d="M241.51503,119.1304v-34.25588h17.14856v34.25588z" fill="#5c2800" stroke="#5c2800" stroke-width="2" stroke-linecap="butt"/><path d="M263.21156,283.4333v-13.00925h23.65318v13.00925z" fill="#5c2800" stroke="#5c2800" stroke-width="2" stroke-linecap="butt"/><path d="M341.58701,283.74602v-36.66243h21.80925v36.66243z" fill="#2f1400" stroke="#2f1400" stroke-width="2" stroke-linecap="butt"/><path d="M250.4763,311.81712v-28.97515h11.23526v28.97515z" fill="#5c2800" stroke="#5c2800" stroke-width="2" stroke-linecap="butt"/><path d="M444.93239,208.42116v-16.55723h39.61908v16.55723z" fill="#5c2800" stroke="#5c2800" stroke-width="2" stroke-linecap="butt"/><path d="M519.43992,234.43966v-27.79249h13.00925v27.79249z" fill="#5c2800" stroke="#5c2800" stroke-width="2" stroke-linecap="butt"/><path d="M486.91679,117.94774v-21.28786h29.56648v21.28786z" fill="#5c2800" stroke="#5c2800" stroke-width="2" stroke-linecap="butt"/><path d="M194.20867,98.43386v-13.00925h45.53237v13.00925z" fill="#5c2800" stroke="#5c2800" stroke-width="2" stroke-linecap="butt"/><path d="M300.63112,134.76655l-5.6366,6.11199l-6.71316,-6.19103z" fill="#199600" stroke="#199600" stroke-width="2" stroke-linecap="round"/><path d="M317.19362,134.89155l-5.6366,6.11199l-6.71316,-6.19103z" fill="#199600" stroke="#199600" stroke-width="2" stroke-linecap="round"/><path d="M334.23112,134.96656l-5.6366,6.11199l-6.71316,-6.19102z" fill="#199600" stroke="#199600" stroke-width="2" stroke-linecap="round"/><path d="M351.19362,135.09156l-5.6366,6.11199l-6.71316,-6.19102z" fill="#199600" stroke="#199600" stroke-width="2" stroke-linecap="round"/><path d="M368.19362,135.09156l-5.6366,6.11199l-6.71316,-6.19102z" fill="#199600" stroke="#199600" stroke-width="2" stroke-linecap="round"/><path d="M286.83977,137.60814l6.11199,5.6366l-6.19102,6.71317z" fill="#199600" stroke="#199600" stroke-width="2" stroke-linecap="round"/><path d="M286.83977,155.00815l6.11199,5.6366l-6.19102,6.71317z" fill="#199600" stroke="#199600" stroke-width="2" stroke-linecap="round"/><path d="M286.63977,172.00815l6.11199,5.6366l-6.19103,6.71317z" fill="#199600" stroke="#199600" stroke-width="2" stroke-linecap="round"/><path d="M286.63977,189.20815l6.11199,5.6366l-6.19103,6.71317z" fill="#199600" stroke="#199600" stroke-width="2" stroke-linecap="round"/><path d="M286.63977,206.60814l6.11199,1.71144l-6.19103,2.03832z" fill="#199600" stroke="#199600" stroke-width="2" stroke-linecap="round"/><path d="M300.87272,209.15791l-6.11199,-5.63659l6.19102,-6.71317z" data-paper-data="{&quot;index&quot;:null}" fill="#199600" stroke="#199600" stroke-width="2" stroke-linecap="round"/><path d="M301.07272,192.15791l-6.11199,-5.63659l6.19102,-6.71317z" data-paper-data="{&quot;index&quot;:null}" fill="#199600" stroke="#199600" stroke-width="2" stroke-linecap="round"/><path d="M301.07272,174.95791l-6.11199,-5.63659l6.19102,-6.71317z" data-paper-data="{&quot;index&quot;:null}" fill="#199600" stroke="#199600" stroke-width="2" stroke-linecap="round"/><path d="M301.07272,157.55791l-6.11199,-1.71144l6.19102,-2.03832z" data-paper-data="{&quot;index&quot;:null}" fill="#199600" stroke="#199600" stroke-width="2" stroke-linecap="round"/><path d="M336.64386,151.92449l2.35042,-6.11199l2.79934,6.19103z" fill="#199600" stroke="#199600" stroke-width="2" stroke-linecap="round"/><path d="M320.20636,151.84949l5.6366,-6.11199l6.71316,6.19102z" fill="#199600" stroke="#199600" stroke-width="2" stroke-linecap="round"/><path d="M303.64386,151.72449l5.6366,-6.11199l6.71316,6.19102z" fill="#199600" stroke="#199600" stroke-width="2" stroke-linecap="round"/><path d="M344.03977,155.00815l6.11199,5.6366l-6.19102,6.71317z" fill="#199600" stroke="#199600" stroke-width="2" stroke-linecap="round"/><path d="M343.83977,172.00815l6.11199,5.6366l-6.19102,6.71317z" fill="#199600" stroke="#199600" stroke-width="2" stroke-linecap="round"/><path d="M343.83977,189.20815l6.11199,5.6366l-6.19102,6.71317z" fill="#199600" stroke="#199600" stroke-width="2" stroke-linecap="round"/><path d="M360.67272,201.15791l-6.11199,-5.63659l6.19103,-6.71317z" fill="#199600" stroke="#199600" stroke-width="2" stroke-linecap="round"/><path d="M360.87272,184.15791l-6.11199,-5.63659l6.19102,-6.71317z" fill="#199600" stroke="#199600" stroke-width="2" stroke-linecap="round"/><path d="M360.87272,166.9579l-6.11199,-5.63659l6.19102,-6.71317z" fill="#199600" stroke="#199600" stroke-width="2" stroke-linecap="round"/><path d="M346.48137,205.79949l5.63659,-6.11199l6.71317,6.19103z" fill="#199600" stroke="#199600" stroke-width="2" stroke-linecap="round"/><path d="M385.19362,135.09156l-5.6366,6.11199l-6.71316,-6.19102z" fill="#199600" stroke="#199600" stroke-width="2" stroke-linecap="round"/><path d="M386.47272,146.15791l-6.11199,-4.54121l6.19103,-5.40856z" fill="#199600" stroke="#199600" stroke-width="2" stroke-linecap="round"/><path d="M372.8018,146.78019l5.6366,-6.11198l6.71316,6.19102z" fill="#199600" stroke="#199600" stroke-width="2" stroke-linecap="round"/><path d="M363.4018,146.5802l5.6366,-6.11199l6.71316,6.19102z" fill="#199600" stroke="#199600" stroke-width="2" stroke-linecap="round"/><path d="M291.59538,250.01569v-17.13268h69.73353v17.13268z" fill="#5c2800" stroke="none" stroke-width="0" stroke-linecap="butt"/><path d="M342.795,281.93802v-33.8h18.6v33.8z" fill="#5c2800" stroke="none" stroke-width="0" stroke-linecap="butt"/><path d="M291.395,232.93802h15.6h1.4l-16.8,16.8z" fill-opacity="0.42745" fill="#ffffff" stroke="none" stroke-width="0" stroke-linecap="round"/><path d="M308.47834,233.02136h15.6h1.4l-16.8,16.8z" fill-opacity="0.42745" fill="#ffffff" stroke="none" stroke-width="0" stroke-linecap="round"/><path d="M325.395,233.02136h15.6h1.4l-16.8,16.8z" fill-opacity="0.42745" fill="#ffffff" stroke="none" stroke-width="0" stroke-linecap="round"/><path d="M342.22833,233.02136h17.43529h1.56471l-18.77647,16.8z" fill-opacity="0.42745" fill="#ffffff" stroke="none" stroke-width="0" stroke-linecap="round"/><path d="M342.72834,250.20763h17.12941h1.53725l-18.44706,15.28039z" fill-opacity="0.42745" fill="#ffffff" stroke="none" stroke-width="0" stroke-linecap="round"/><path d="M342.895,265.54096h17.12941h1.53725l-18.44705,16.19706z" fill-opacity="0.42745" fill="#ffffff" stroke="none" stroke-width="0" stroke-linecap="round"/><path d="M456.30409,192.14724l-4.57876,6.11199l-5.45328,-6.19103z" fill="#199600" stroke="#199600" stroke-width="2" stroke-linecap="round"/><path d="M469.75824,192.27224l-4.57876,6.11199l-5.45328,-6.19103z" fill="#199600" stroke="#199600" stroke-width="2" stroke-linecap="round"/><path d="M483.59826,192.34724l-4.57876,6.11199l-5.45328,-6.19102z" fill="#199600" stroke="#199600" stroke-width="2" stroke-linecap="round"/><path d="M211.75053,85.84213l-7.38044,6.11199l-8.79006,-6.19103z" fill="#199600" stroke="#199600" stroke-width="2" stroke-linecap="round"/><path d="M233.4371,85.96713l-7.38044,6.11199l-8.79006,-6.19103z" fill="#199600" stroke="#199600" stroke-width="2" stroke-linecap="round"/><path d="M255.74561,86.04213l-7.38044,6.11199l-8.79006,-6.19102z" fill="#199600" stroke="#199600" stroke-width="2" stroke-linecap="round"/><path d="M223.64207,83.76013l-1.56091,-45.57843l34.33992,-5.30708l0.93654,20.29177l-34.6521,4.9949l-0.62436,-19.97959" fill="none" stroke="#ffffff" stroke-width="2" stroke-linecap="round"/><path d="M223.15328,58.35037v-10.01805l32.99328,-5.06091l1.07111,10.46157z" fill="#ffffff" stroke="none" stroke-width="0" stroke-linecap="butt"/><path d="M247.86135,214.38492h9.26879h0.83181l-9.98178,14.65881z" fill-opacity="0.42745" fill="#ffffff" stroke="none" stroke-width="0" stroke-linecap="round"/><path d="M263.80521,271.24931h9.2688h0.83181l-9.98178,10.13852z" fill-opacity="0.42745" fill="#ffffff" stroke="none" stroke-width="0" stroke-linecap="round"/><path d="M275.7046,271.49111h9.2688h0.83182l-9.98178,10.13852z" fill-opacity="0.42745" fill="#ffffff" stroke="none" stroke-width="0" stroke-linecap="round"/><path d="M250.73965,283.16804h9.2688h0.83182l-9.98178,12.44476z" fill-opacity="0.42745" fill="#ffffff" stroke="none" stroke-width="0" stroke-linecap="round"/><path d="M251.23741,297.10986l9.26645,0.34557l0.8316,0.03101l-10.2287,12.06734z" fill-opacity="0.42745" fill="#ffffff" stroke="none" stroke-width="0" stroke-linecap="round"/><path d="M264.26892,357.95043v-19.80058h36.79459v19.80058z" fill="#2f1400" stroke="#2f1400" stroke-width="2" stroke-linecap="butt"/><path d="M264.7748,356.68253v-17.13268h35.27694v17.13268z" fill="#5c2800" stroke="none" stroke-width="0" stroke-linecap="butt"/><path d="M265.06854,339.60486h15.6h1.4l-16.8,16.8z" fill-opacity="0.42745" fill="#ffffff" stroke="none" stroke-width="0" stroke-linecap="round"/><path d="M282.15188,339.6882h15.6h1.4l-16.8,16.8z" fill-opacity="0.42745" fill="#ffffff" stroke="none" stroke-width="0" stroke-linecap="round"/><path d="M199.16683,346.65533h-19.80058v-36.79459l19.80058,0z" data-paper-data="{&quot;index&quot;:null}" fill="#2f1400" stroke="#2f1400" stroke-width="2" stroke-linecap="butt"/><path d="M197.89893,345.64357h-17.13268v-35.27694h17.13268z" data-paper-data="{&quot;index&quot;:null}" fill="#5c2800" stroke="none" stroke-width="0" stroke-linecap="butt"/><path d="M197.62126,310.86036l-16.8,16.8l0,-1.4l0,-15.6z" data-paper-data="{&quot;index&quot;:null}" fill-opacity="0.42745" fill="#ffffff" stroke="none" stroke-width="0" stroke-linecap="round"/><path d="M197.7046,327.9437l-16.8,16.8l0,-1.4v-15.6z" data-paper-data="{&quot;index&quot;:null}" fill-opacity="0.42745" fill="#ffffff" stroke="none" stroke-width="0" stroke-linecap="round"/><path d="M409.51505,324.82527v-19.80058h36.79459v19.80058z" fill="#2f1400" stroke="#2f1400" stroke-width="2" stroke-linecap="butt"/><path d="M410.02094,323.55737v-17.13268h35.27694v17.13268z" fill="#5c2800" stroke="none" stroke-width="0" stroke-linecap="butt"/><path d="M410.31467,306.4797h15.6h1.4l-16.8,16.8z" fill-opacity="0.42745" fill="#ffffff" stroke="none" stroke-width="0" stroke-linecap="round"/><path d="M427.39801,306.56304h15.6h1.4l-16.8,16.8z" fill-opacity="0.42745" fill="#ffffff" stroke="none" stroke-width="0" stroke-linecap="round"/><path d="M490.65292,297.13197v-19.80058h40.61567v19.80058z" fill="#2f1400" stroke="#2f1400" stroke-width="2" stroke-linecap="butt"/><path d="M509.52669,314.84398v-21.91201h21.80925v21.91201z" fill="#2f1400" stroke="#2f1400" stroke-width="2" stroke-linecap="butt"/><path d="M492.60456,295.86407v-17.13268h36.66403v17.13268z" fill="#5c2800" stroke="none" stroke-width="0" stroke-linecap="butt"/><path d="M510.73468,313.5118v-19.5254h18.6v19.5254z" fill="#5c2800" stroke="none" stroke-width="0" stroke-linecap="butt"/><path d="M493.33468,278.86974h15.6h1.4l-16.8,16.8z" fill-opacity="0.42745" fill="#ffffff" stroke="none" stroke-width="0" stroke-linecap="round"/><path d="M510.16801,278.86974h17.43529h1.56471l-18.77647,16.8z" fill-opacity="0.42745" fill="#ffffff" stroke="none" stroke-width="0" stroke-linecap="round"/><path d="M510.66802,296.05601h17.12941h1.53725l-18.44706,15.28039z" fill-opacity="0.42745" fill="#ffffff" stroke="none" stroke-width="0" stroke-linecap="round"/><path d="M387.75635,206.77569h9.2688h0.83181l-9.98178,14.65881z" fill-opacity="0.42745" fill="#ffffff" stroke="none" stroke-width="0" stroke-linecap="round"/><path d="M437.18304,145.04493l-3.23369,6.11199l-3.8513,-6.19103z" fill="#199600" stroke="#199600" stroke-width="2" stroke-linecap="round"/><path d="M446.68486,145.16993l-3.23369,6.11199l-3.8513,-6.19103z" fill="#199600" stroke="#199600" stroke-width="2" stroke-linecap="round"/><path d="M411.7581,87.23668l-4.11494,6.11199l-4.90088,-6.19103z" fill="#199600" stroke="#199600" stroke-width="2" stroke-linecap="round"/><path d="M423.84938,87.36168l-4.11494,6.11199l-4.90088,-6.19103z" fill="#199600" stroke="#199600" stroke-width="2" stroke-linecap="round"/><path d="M499.43968,96.75698l-5.36725,6.11199l-6.39237,-6.19103z" fill="#199600" stroke="#199600" stroke-width="2" stroke-linecap="round"/><path d="M515.21073,96.88198l-5.36725,6.11199l-6.39237,-6.19103z" fill="#199600" stroke="#199600" stroke-width="2" stroke-linecap="round"/><path d="M531.63041,206.32449l-5.36725,6.11199l-6.39237,-6.19103z" fill="#199600" stroke="#199600" stroke-width="2" stroke-linecap="round"/></g></g></svg>