<svg version="1.1" xmlns="http://www.w3.org/2000/svg" xmlns:xlink="http://www.w3.org/1999/xlink" width="164.9258" height="153.01101" viewBox="0,0,164.9258,153.01101"><g transform="translate(-237.5371,-103.49449)"><g data-paper-data="{&quot;isPaintingLayer&quot;:true}" fill-rule="nonzero" stroke="none" stroke-linecap="butt" stroke-linejoin="miter" stroke-miterlimit="10" stroke-dasharray="" stroke-dashoffset="0" style="mix-blend-mode: normal"><path d="M237.5371,256.5055v-153.01101h164.9258v153.01101z" fill-opacity="0.0549" fill="#000000" stroke-width="0"/><g stroke-width="0"><path d="M267.42093,229.4763l-19.46644,-44.79593l124.62457,-54.15664l19.46644,44.79593z" fill-opacity="0.37255" fill="#0090ff"/><path d="M256.6766,197.30134l-4.50049,-10.35648l9.41498,-4.09136l4.50049,10.35648z" fill-opacity="0.37255" fill="#ffffff"/><path d="M267.35453,192.66115l-4.50049,-10.35648l9.41498,-4.09136l4.50049,10.35648z" fill-opacity="0.37255" fill="#ffffff"/><path d="M278.02484,188.02428l-4.50049,-10.35648l9.41498,-4.09136l4.50049,10.35648z" fill-opacity="0.37255" fill="#ffffff"/><path d="M288.70276,183.3841l-4.50049,-10.35648l9.41498,-4.09136l4.50049,10.35648z" fill-opacity="0.37255" fill="#ffffff"/><path d="M299.05163,178.88692l-4.50049,-10.35648l9.41498,-4.09136l4.50049,10.35648z" fill-opacity="0.37255" fill="#ffffff"/><path d="M309.72955,174.24674l-4.50049,-10.35648l9.41498,-4.09136l4.50049,10.35648z" fill-opacity="0.37255" fill="#ffffff"/><path d="M320.39985,169.60987l-4.50049,-10.35648l9.41498,-4.09136l4.50049,10.35648z" fill-opacity="0.37255" fill="#ffffff"/><path d="M331.07779,164.96968l-4.50049,-10.35648l9.41498,-4.09136l4.50049,10.35648z" fill-opacity="0.37255" fill="#ffffff"/><path d="M341.74049,160.33611l-4.50049,-10.35648l9.41498,-4.09136l4.50049,10.35648z" fill-opacity="0.37255" fill="#ffffff"/><path d="M352.41841,155.69593l-4.50049,-10.35648l9.41498,-4.09136l4.50049,10.35648z" fill-opacity="0.37255" fill="#ffffff"/><path d="M363.08873,151.05907l-4.50049,-10.35648l9.41498,-4.09136l4.50049,10.35648z" fill-opacity="0.37255" fill="#ffffff"/><path d="M265.89473,208.77905l-4.50049,-10.35648l9.41498,-4.09136l4.50049,10.35648z" fill-opacity="0.37255" fill="#ffffff"/><path d="M276.57266,204.13886l-4.50049,-10.35648l9.41498,-4.09136l4.50049,10.35648z" fill-opacity="0.37255" fill="#ffffff"/><path d="M287.24297,199.502l-4.50049,-10.35648l9.41498,-4.09136l4.50049,10.35648z" fill-opacity="0.37255" fill="#ffffff"/><path d="M297.92089,194.86181l-4.50049,-10.35648l9.41498,-4.09136l4.50049,10.35648z" fill-opacity="0.37255" fill="#ffffff"/><path d="M308.26976,190.36463l-4.50049,-10.35648l9.41498,-4.09136l4.50049,10.35648z" fill-opacity="0.37255" fill="#ffffff"/><path d="M318.94768,185.72445l-4.50049,-10.35648l9.41498,-4.09136l4.50049,10.35648z" fill-opacity="0.37255" fill="#ffffff"/><path d="M329.618,181.08758l-4.50049,-10.35648l9.41498,-4.09136l4.50049,10.35648z" fill-opacity="0.37255" fill="#ffffff"/><path d="M340.29592,176.4474l-4.50049,-10.35648l9.41498,-4.09136l4.50049,10.35648z" fill-opacity="0.37255" fill="#ffffff"/><path d="M350.95862,171.81382l-4.50049,-10.35648l9.41498,-4.09136l4.50049,10.35648z" fill-opacity="0.37255" fill="#ffffff"/><path d="M361.63655,167.17364l-4.50049,-10.35648l9.41498,-4.09136l4.50049,10.35648z" fill-opacity="0.37255" fill="#ffffff"/><path d="M372.30686,162.53677l-4.50049,-10.35648l9.41498,-4.09136l4.50049,10.35648z" fill-opacity="0.37255" fill="#ffffff"/><path d="M268.6316,223.64194l-4.50049,-10.35648l9.41498,-4.09136l4.50049,10.35648z" fill-opacity="0.37255" fill="#ffffff"/><path d="M279.30954,219.00176l-4.50049,-10.35648l9.41498,-4.09136l4.50049,10.35648z" fill-opacity="0.37255" fill="#ffffff"/><path d="M289.97985,214.36489l-4.50049,-10.35648l9.41498,-4.09136l4.50049,10.35648z" fill-opacity="0.37255" fill="#ffffff"/><path d="M300.65776,209.72471l-4.50049,-10.35648l9.41498,-4.09136l4.50049,10.35648z" fill-opacity="0.37255" fill="#ffffff"/><path d="M311.00663,205.22751l-4.50049,-10.35648l9.41498,-4.09136l4.50049,10.35648z" fill-opacity="0.37255" fill="#ffffff"/><path d="M321.68456,200.58734l-4.50049,-10.35648l9.41498,-4.09136l4.50049,10.35648z" fill-opacity="0.37255" fill="#ffffff"/><path d="M332.35487,195.95046l-4.50049,-10.35648l9.41498,-4.09136l4.50049,10.35648z" fill-opacity="0.37255" fill="#ffffff"/><path d="M343.0328,191.31029l-4.50049,-10.35648l9.41498,-4.09136l4.50049,10.35648z" fill-opacity="0.37255" fill="#ffffff"/><path d="M353.6955,186.67672l-4.50049,-10.35648l9.41498,-4.09136l4.50049,10.35648z" fill-opacity="0.37255" fill="#ffffff"/><path d="M364.37342,182.03655l-4.50049,-10.35648l9.41498,-4.09136l4.50049,10.35648z" fill-opacity="0.37255" fill="#ffffff"/><path d="M375.04374,177.39967l-4.50049,-10.35648l9.41498,-4.09136l4.50049,10.35648z" fill-opacity="0.37255" fill="#ffffff"/></g><text transform="translate(247.99979,121.16839) scale(0.33651,0.33651)" font-size="40" xml:space="preserve" fill-opacity="0.7451" fill="#0091ff" fill-rule="nonzero" stroke="none" stroke-width="1" stroke-linecap="butt" stroke-linejoin="miter" stroke-miterlimit="10" stroke-dasharray="" stroke-dashoffset="0" font-family="&quot;OpenSans-Medium&quot;, Sans Serif" font-weight="normal" text-anchor="start" style="mix-blend-mode: normal"><tspan x="0" dy="0">Keyboard Commander</tspan></text></g></g></svg>