<svg version="1.1" xmlns="http://www.w3.org/2000/svg" xmlns:xlink="http://www.w3.org/1999/xlink" width="359.71715" height="298.34878" viewBox="0,0,359.71715,298.34878"><defs><linearGradient x1="406.39034" y1="152.65609" x2="406.39034" y2="201.38614" gradientUnits="userSpaceOnUse" id="color-1"><stop offset="0" stop-color="#00ffff"/><stop offset="1" stop-color="#0095ff"/></linearGradient><linearGradient x1="297.22132" y1="156.65395" x2="297.22132" y2="207.03587" gradientUnits="userSpaceOnUse" id="color-2"><stop offset="0" stop-color="#00ffff"/><stop offset="1" stop-color="#0095ff"/></linearGradient><linearGradient x1="311.821" y1="138.61522" x2="311.821" y2="155.95982" gradientUnits="userSpaceOnUse" id="color-3"><stop offset="0" stop-color="#00ffff"/><stop offset="1" stop-color="#0095ff"/></linearGradient><linearGradient x1="311.5293" y1="207.88989" x2="311.5293" y2="222.75669" gradientUnits="userSpaceOnUse" id="color-4"><stop offset="0" stop-color="#00ffff"/><stop offset="1" stop-color="#0095ff"/></linearGradient><linearGradient x1="326.27483" y1="98.1445" x2="326.27483" y2="119.61876" gradientUnits="userSpaceOnUse" id="color-5"><stop offset="0" stop-color="#00ffff"/><stop offset="1" stop-color="#0095ff"/></linearGradient><linearGradient x1="455.16479" y1="106.44823" x2="455.16479" y2="127.92249" gradientUnits="userSpaceOnUse" id="color-6"><stop offset="0" stop-color="#00ffff"/><stop offset="1" stop-color="#0095ff"/></linearGradient><linearGradient x1="372.5293" y1="317.38989" x2="372.5293" y2="332.25669" gradientUnits="userSpaceOnUse" id="color-7"><stop offset="0" stop-color="#00ffff"/><stop offset="1" stop-color="#0095ff"/></linearGradient><linearGradient x1="225.39034" y1="271.65609" x2="225.39034" y2="320.38614" gradientUnits="userSpaceOnUse" id="color-8"><stop offset="0" stop-color="#00ffff"/><stop offset="1" stop-color="#0095ff"/></linearGradient><linearGradient x1="181.57157" y1="37.183" x2="181.57157" y2="133.94423" gradientUnits="userSpaceOnUse" id="color-9"><stop offset="0" stop-color="#00ffff"/><stop offset="1" stop-color="#0095ff"/></linearGradient><linearGradient x1="116.46223" y1="37.22532" x2="116.46223" y2="133.98656" gradientUnits="userSpaceOnUse" id="color-10"><stop offset="0" stop-color="#00ffff"/><stop offset="1" stop-color="#0095ff"/></linearGradient><linearGradient x1="123.96835" y1="108.98517" x2="172.6984" y2="108.98517" gradientUnits="userSpaceOnUse" id="color-11"><stop offset="0" stop-color="#00ffff"/><stop offset="1" stop-color="#0095ff"/></linearGradient><linearGradient x1="123.94703" y1="69.44511" x2="172.67708" y2="69.44511" gradientUnits="userSpaceOnUse" id="color-12"><stop offset="0" stop-color="#00ffff"/><stop offset="1" stop-color="#0095ff"/></linearGradient></defs><g transform="translate(-107.18477,-34.90791)"><g data-paper-data="{&quot;isPaintingLayer&quot;:true}" fill-rule="nonzero" stroke="#000000" stroke-width="2" stroke-linejoin="miter" stroke-miterlimit="10" stroke-dasharray="" stroke-dashoffset="0" style="mix-blend-mode: normal"><path d="M398.13101,201.38614v-48.73005h16.51866v48.73005z" fill="url(#color-1)" stroke-linecap="butt"/><path d="M288.96199,207.03587v-50.38192h16.51866v50.38192z" fill="url(#color-2)" stroke-linecap="butt"/><path d="M289.10784,155.95982v-17.3446h45.42632v17.3446z" fill="url(#color-3)" stroke-linecap="butt"/><path d="M288.81613,222.75669v-14.8668h45.42632v14.8668z" fill="url(#color-4)" stroke-linecap="butt"/><path d="M315.5377,108.88163c0,-5.92995 4.80718,-10.73713 10.73713,-10.73713c5.92995,0 10.73713,4.80718 10.73713,10.73713c0,5.92995 -4.80718,10.73713 -10.73713,10.73713c-5.92995,0 -10.73713,-4.80718 -10.73713,-10.73713z" fill="url(#color-5)" stroke-linecap="butt"/><path d="M444.42766,117.18536c0,-5.92996 4.80718,-10.73713 10.73713,-10.73713c5.92996,0 10.73713,4.80718 10.73713,10.73713c0,5.92996 -4.80717,10.73713 -10.73713,10.73713c-5.92996,0 -10.73713,-4.80717 -10.73713,-10.73713z" fill="url(#color-6)" stroke-linecap="butt"/><path d="M289.22455,138.51362l4.37301,4.37302" fill="none" stroke-linecap="round"/><path d="M288.94917,155.7997l4.37302,-4.37301" data-paper-data="{&quot;index&quot;:null}" fill="none" stroke-linecap="round"/><path d="M334.4169,139.21002l-4.37302,4.37302" data-paper-data="{&quot;index&quot;:null}" fill="none" stroke-linecap="round"/><path d="M334.69229,156.49611l-4.37302,-4.37302" data-paper-data="{&quot;index&quot;:null}" fill="none" stroke-linecap="round"/><path d="M293.11168,151.00795v-8.6072h36.65003v8.6072z" fill="none" stroke-linecap="butt"/><g fill="none"><path d="M289.37955,207.36783l4.07621,-4.90708" stroke-linecap="round"/><path d="M301.41619,202.76977l4.07621,4.90707" data-paper-data="{&quot;index&quot;:null}" stroke-linecap="round"/><path d="M290.02868,156.6563l4.07621,4.90707" data-paper-data="{&quot;index&quot;:null}" stroke-linecap="round"/><path d="M306.14153,156.34728l-4.07621,4.90707" data-paper-data="{&quot;index&quot;:null}" stroke-linecap="round"/><path d="M301.02586,203.00598h-8.02302v-41.12597h8.02302z" stroke-linecap="butt"/></g><g fill="none"><path d="M398.11288,201.04653l4.07621,-4.71587" stroke-linecap="round"/><path d="M414.22573,201.34351l-4.07621,-4.71587" data-paper-data="{&quot;index&quot;:null}" stroke-linecap="round"/><path d="M402.83823,157.02679l-4.07621,-4.71587" data-paper-data="{&quot;index&quot;:null}" stroke-linecap="round"/><path d="M414.87487,152.01394l-4.07621,4.71588" data-paper-data="{&quot;index&quot;:null}" stroke-linecap="round"/><path d="M409.7592,196.85464h-8.02301v-39.52353h8.02301z" stroke-linecap="butt"/></g><path d="M289.55187,207.51362l4.27741,3.67195" fill="none" stroke-linecap="round"/><path d="M289.2825,222.02848l4.27741,-3.67195" data-paper-data="{&quot;index&quot;:null}" fill="none" stroke-linecap="round"/><path d="M333.75626,208.09838l-4.27742,3.67195" data-paper-data="{&quot;index&quot;:null}" fill="none" stroke-linecap="round"/><path d="M334.02562,222.61324l-4.27742,-3.67195" data-paper-data="{&quot;index&quot;:null}" fill="none" stroke-linecap="round"/><path d="M293.35401,218.00491v-7.22733h35.84881v7.22733z" fill="none" stroke-linecap="butt"/><path d="M349.81614,332.25669v-14.8668h45.42632v14.8668z" fill="url(#color-7)" stroke-linecap="butt"/><path d="M354.55991,327.85652l-4.27741,3.67195" data-paper-data="{&quot;index&quot;:null}" fill="none" stroke-linecap="round"/><path d="M390.47884,321.27033l4.27742,-3.67195" data-paper-data="{&quot;index&quot;:null}" fill="none" stroke-linecap="round"/><path d="M390.7482,328.44128l4.27742,3.67196" data-paper-data="{&quot;index&quot;:null}" fill="none" stroke-linecap="round"/><path d="M354.35401,327.50491v-7.22733h35.84881v7.22733z" fill="none" stroke-linecap="butt"/><path d="M217.13101,320.38614v-48.73005h16.51866v48.73005z" fill="url(#color-8)" stroke-linecap="butt"/><g fill="none"><path d="M217.11288,320.04653l4.07621,-4.71587" stroke-linecap="round"/><path d="M229.14952,315.62764l4.07621,4.71587" data-paper-data="{&quot;index&quot;:null}" stroke-linecap="round"/><path d="M217.76202,271.31092l4.07621,4.71587" data-paper-data="{&quot;index&quot;:null}" stroke-linecap="round"/><path d="M229.79866,275.72982l4.07621,-4.71588" data-paper-data="{&quot;index&quot;:null}" stroke-linecap="round"/><path d="M228.75919,315.85464h-8.02301v-39.52354h8.02301z" stroke-linecap="butt"/></g><path d="M173.31224,133.94423v-96.76124h16.51866v96.76124z" fill="url(#color-9)" stroke-linecap="butt"/><g fill="none"><path d="M173.29411,133.26989l4.07621,-9.36411" stroke-linecap="round"/><path d="M185.33075,124.49548l4.07621,9.36411" data-paper-data="{&quot;index&quot;:null}" stroke-linecap="round"/><path d="M173.94325,36.49761l4.07621,9.36411" data-paper-data="{&quot;index&quot;:null}" stroke-linecap="round"/><path d="M185.97989,45.27203l4.07621,-9.36413" data-paper-data="{&quot;index&quot;:null}" stroke-linecap="round"/><path d="M184.94042,124.94622h-8.02301v-78.48025h8.02301z" stroke-linecap="butt"/></g><path d="M108.2029,133.98656v-96.76124h16.51866v96.76124z" fill="url(#color-10)" stroke-linecap="butt"/><g fill="none"><path d="M108.18477,133.31221l4.07621,-9.36411" stroke-linecap="round"/><path d="M120.22141,124.53781l4.07621,9.3641" data-paper-data="{&quot;index&quot;:null}" stroke-linecap="round"/><path d="M108.83391,36.53993l4.07621,9.36411" data-paper-data="{&quot;index&quot;:null}" stroke-linecap="round"/><path d="M120.87055,45.31436l4.07621,-9.36412" data-paper-data="{&quot;index&quot;:null}" stroke-linecap="round"/><path d="M119.83108,124.98855h-8.02301v-78.48025h8.02301z" stroke-linecap="butt"/></g><path d="M172.6984,117.2445h-48.73005l0,-16.51866h48.73005z" fill="url(#color-11)" stroke-linecap="butt"/><g fill="none"><path d="M172.35879,117.26263l-4.71587,-4.07621" stroke-linecap="round"/><path d="M167.9399,105.22598l4.71587,-4.07621" data-paper-data="{&quot;index&quot;:null}" stroke-linecap="round"/><path d="M123.62318,116.61348l4.71587,-4.07621" data-paper-data="{&quot;index&quot;:null}" stroke-linecap="round"/><path d="M128.04208,104.57685l-4.71588,-4.07621" data-paper-data="{&quot;index&quot;:null}" stroke-linecap="round"/><path d="M168.1669,105.61631v8.02301h-39.52354v-8.02301z" stroke-linecap="butt"/></g><path d="M172.67708,77.70444h-48.73005v-16.51866h48.73005z" fill="url(#color-12)" stroke-linecap="butt"/><g fill="none"><path d="M172.33747,77.72257l-4.71587,-4.07621" stroke-linecap="round"/><path d="M167.91858,65.68593l4.71587,-4.07621" data-paper-data="{&quot;index&quot;:null}" stroke-linecap="round"/><path d="M123.60186,77.07343l4.71587,-4.07621" data-paper-data="{&quot;index&quot;:null}" stroke-linecap="round"/><path d="M128.02076,65.03679l-4.71588,-4.07621" data-paper-data="{&quot;index&quot;:null}" stroke-linecap="round"/><path d="M168.14558,66.07626v8.02301h-39.52354v-8.02301z" stroke-linecap="butt"/></g></g></g></svg>