<svg version="1.1" xmlns="http://www.w3.org/2000/svg" xmlns:xlink="http://www.w3.org/1999/xlink" width="717.69014" height="387.11026" viewBox="0,0,717.69014,387.11026"><defs><linearGradient x1="247.21539" y1="221.32866" x2="228.54872" y2="221.32866" gradientUnits="userSpaceOnUse" id="color-1"><stop offset="0" stop-color="#000000"/><stop offset="1" stop-color="#000000" stop-opacity="0"/></linearGradient><linearGradient x1="431.48142" y1="194.97944" x2="431.48142" y2="367.5377" gradientUnits="userSpaceOnUse" id="color-2"><stop offset="0" stop-color="#000000"/><stop offset="1" stop-color="#000000" stop-opacity="0"/></linearGradient><linearGradient x1="247.22638" y1="241.18581" x2="228.55971" y2="241.18581" gradientUnits="userSpaceOnUse" id="color-3"><stop offset="0" stop-color="#000000"/><stop offset="1" stop-color="#000000" stop-opacity="0"/></linearGradient><linearGradient x1="247.22937" y1="261.33771" x2="228.5627" y2="261.33771" gradientUnits="userSpaceOnUse" id="color-4"><stop offset="0" stop-color="#000000"/><stop offset="1" stop-color="#000000" stop-opacity="0"/></linearGradient><linearGradient x1="450.55841" y1="270.48188" x2="450.55841" y2="289.14854" gradientUnits="userSpaceOnUse" id="color-5"><stop offset="0" stop-color="#000000"/><stop offset="1" stop-color="#000000" stop-opacity="0"/></linearGradient><linearGradient x1="355.30668" y1="2.61746" x2="355.30668" y2="125.93729" gradientUnits="userSpaceOnUse" id="color-6"><stop offset="0" stop-color="#000000"/><stop offset="1" stop-color="#000000" stop-opacity="0"/></linearGradient><linearGradient x1="508.43299" y1="-0.83549" x2="508.43299" y2="174.27866" gradientUnits="userSpaceOnUse" id="color-7"><stop offset="0" stop-color="#000000"/><stop offset="1" stop-color="#000000" stop-opacity="0"/></linearGradient><linearGradient x1="480.31607" y1="68.22361" x2="480.31607" y2="159.48028" gradientUnits="userSpaceOnUse" id="color-8"><stop offset="0" stop-color="#000000"/><stop offset="1" stop-color="#000000" stop-opacity="0"/></linearGradient><linearGradient x1="546.16886" y1="12.46609" x2="546.16886" y2="122.97762" gradientUnits="userSpaceOnUse" id="color-9"><stop offset="0" stop-color="#000000"/><stop offset="1" stop-color="#000000" stop-opacity="0"/></linearGradient><linearGradient x1="527.42425" y1="115.06819" x2="527.42425" y2="172.78187" gradientUnits="userSpaceOnUse" id="color-10"><stop offset="0" stop-color="#000000"/><stop offset="1" stop-color="#000000" stop-opacity="0"/></linearGradient><linearGradient x1="484.50894" y1="0.13411" x2="484.50894" y2="75.60585" gradientUnits="userSpaceOnUse" id="color-11"><stop offset="0" stop-color="#000000"/><stop offset="1" stop-color="#000000" stop-opacity="0"/></linearGradient><linearGradient x1="512.87251" y1="0.62739" x2="512.87251" y2="102.24293" gradientUnits="userSpaceOnUse" id="color-12"><stop offset="0" stop-color="#000000"/><stop offset="1" stop-color="#000000" stop-opacity="0"/></linearGradient><linearGradient x1="501.0338" y1="77.57896" x2="501.0338" y2="122.46738" gradientUnits="userSpaceOnUse" id="color-13"><stop offset="0" stop-color="#000000"/><stop offset="1" stop-color="#000000" stop-opacity="0"/></linearGradient><linearGradient x1="390.38453" y1="270.50684" x2="390.38453" y2="289.17351" gradientUnits="userSpaceOnUse" id="color-14"><stop offset="0" stop-color="#000000"/><stop offset="1" stop-color="#000000" stop-opacity="0"/></linearGradient><linearGradient x1="410.24167" y1="270.49585" x2="410.24167" y2="289.16252" gradientUnits="userSpaceOnUse" id="color-15"><stop offset="0" stop-color="#000000"/><stop offset="1" stop-color="#000000" stop-opacity="0"/></linearGradient><linearGradient x1="430.39358" y1="270.49286" x2="430.39358" y2="289.15953" gradientUnits="userSpaceOnUse" id="color-16"><stop offset="0" stop-color="#000000"/><stop offset="1" stop-color="#000000" stop-opacity="0"/></linearGradient><linearGradient x1="80.39219" y1="68.43624" x2="80.39219" y2="361.93743" gradientUnits="userSpaceOnUse" id="color-17"><stop offset="0" stop-color="#000000"/><stop offset="1" stop-color="#000000" stop-opacity="0"/></linearGradient><linearGradient x1="68.61977" y1="86.68757" x2="68.61977" y2="166.59882" gradientUnits="userSpaceOnUse" id="color-18"><stop offset="0" stop-color="#000000"/><stop offset="1" stop-color="#000000" stop-opacity="0"/></linearGradient><linearGradient x1="204.27159" y1="179.91736" x2="204.27159" y2="248.97647" gradientUnits="userSpaceOnUse" id="color-19"><stop offset="0" stop-color="#000000"/><stop offset="1" stop-color="#000000" stop-opacity="0"/></linearGradient><linearGradient x1="134.96584" y1="214.94019" x2="134.96584" y2="300.27752" gradientUnits="userSpaceOnUse" id="color-20"><stop offset="0" stop-color="#000000"/><stop offset="1" stop-color="#000000" stop-opacity="0"/></linearGradient><linearGradient x1="4.7401" y1="238.12432" x2="4.7401" y2="358.97775" gradientUnits="userSpaceOnUse" id="color-21"><stop offset="0" stop-color="#000000"/><stop offset="1" stop-color="#000000" stop-opacity="0"/></linearGradient><linearGradient x1="-22.14362" y1="75.34215" x2="-22.14362" y2="187.80983" gradientUnits="userSpaceOnUse" id="color-22"><stop offset="0" stop-color="#000000"/><stop offset="1" stop-color="#000000" stop-opacity="0"/></linearGradient><linearGradient x1="96.98333" y1="146.37437" x2="96.98333" y2="213.95364" gradientUnits="userSpaceOnUse" id="color-23"><stop offset="0" stop-color="#000000"/><stop offset="1" stop-color="#000000" stop-opacity="0"/></linearGradient><linearGradient x1="400.4773" y1="147.02149" x2="376.29176" y2="219.30652" gradientUnits="userSpaceOnUse" id="color-24"><stop offset="0" stop-color="#000000"/><stop offset="1" stop-color="#000000" stop-opacity="0"/></linearGradient><linearGradient x1="287.21636" y1="351.74174" x2="287.21636" y2="368.25826" gradientUnits="userSpaceOnUse" id="color-25"><stop offset="0" stop-color="#000000"/><stop offset="1" stop-color="#000000" stop-opacity="0"/></linearGradient><linearGradient x1="631.74174" y1="187.71289" x2="648.25826" y2="187.71289" gradientUnits="userSpaceOnUse" id="color-26"><stop offset="0" stop-color="#000000"/><stop offset="1" stop-color="#000000" stop-opacity="0"/></linearGradient><linearGradient x1="327.67448" y1="15.17052" x2="327.67448" y2="-1.346" gradientUnits="userSpaceOnUse" id="color-27"><stop offset="0" stop-color="#000000"/><stop offset="1" stop-color="#000000" stop-opacity="0"/></linearGradient><linearGradient x1="15.2512" y1="179.19937" x2="-1.26532" y2="179.19937" gradientUnits="userSpaceOnUse" id="color-28"><stop offset="0" stop-color="#000000"/><stop offset="1" stop-color="#000000" stop-opacity="0"/></linearGradient></defs><g transform="translate(68.68188,10.099)"><g data-paper-data="{&quot;isPaintingLayer&quot;:true}" fill-rule="nonzero" stroke="#ffffff" stroke-width="1.5" stroke-linejoin="miter" stroke-miterlimit="10" stroke-dasharray="" stroke-dashoffset="0" style="mix-blend-mode: normal"><path d="M228.54872,211.99533h18.66667v18.66667h-18.66667z" fill="url(#color-1)" stroke-linecap="butt"/><path d="M452.44579,268.97134l13.31854,-55.24728l12.82527,-18.74461l32.06316,24.66396l36.00939,115.92064l12.33198,31.97365l-255.0254,-7.71827l12.33199,-50.80777l63.63303,-29.10348z" fill="url(#color-2)" stroke-linecap="round"/><path d="M228.55971,231.85247h18.66667v18.66667h-18.66667z" fill="url(#color-3)" stroke-linecap="butt"/><path d="M228.5627,252.00437h18.66667v18.66667h-18.66667z" fill="url(#color-4)" stroke-linecap="butt"/><path d="M441.22508,289.14854v-18.66667h18.66667v18.66667z" fill="url(#color-5)" stroke-linecap="butt"/><path d="M433.98473,3.11074l-35.02283,77.93813l-74.97845,44.88842l-47.35482,-123.31983z" fill="url(#color-6)" stroke-linecap="round"/><path d="M564.91349,-0.83548l-23.67741,121.34671l-23.67741,53.76744l-27.62365,-14.3051l-27.13036,-89.28356l-10.85215,-71.03222z" fill="url(#color-7)" stroke-linecap="round"/><path d="M462.80466,68.22361l35.02283,39.95563l-7.89247,51.30104z" fill="url(#color-8)" stroke-linecap="round"/><path d="M540.24951,122.97762l-9.86559,-87.80372l31.56988,-22.7078z" fill="url(#color-9)" stroke-linecap="round"/><path d="M515.58554,172.78187l7.89247,-57.71368l15.78494,10.35887z" fill="url(#color-10)" stroke-linecap="round"/><path d="M451.9525,0.13411l65.11287,0.49328l-46.86153,74.97846z" fill="url(#color-11)" stroke-linecap="round"/><path d="M522.98473,0.62739l13.81182,101.61554l-47.84809,-56.72712z" fill="url(#color-12)" stroke-linecap="round"/><path d="M480.56271,86.95127l32.55643,-9.37231l8.38575,44.88842z" fill="url(#color-13)" stroke-linecap="round"/><path d="M381.05119,289.17351v-18.66667h18.66667v18.66667z" fill="url(#color-14)" stroke-linecap="butt"/><path d="M400.90833,289.16252v-18.66667h18.66667v18.66667z" fill="url(#color-15)" stroke-linecap="butt"/><path d="M421.06024,289.15953v-18.66667h18.66667v18.66667z" fill="url(#color-16)" stroke-linecap="butt"/><path d="M228.62263,270.18748l-106.05505,12.82526l-73.49862,45.87498l-116.9072,33.04971l26.1438,-293.50119l91.08794,40.4489l88.79028,26.1438l89.77684,77.44485z" fill="url(#color-17)" stroke-linecap="round"/><path d="M47.6554,111.35153l89.77684,25.15725l-86.32388,30.09004l-51.30105,-79.91125z" fill="url(#color-18)" stroke-linecap="round"/><path d="M225.23596,214.44692l-41.92874,34.52955l2.95968,-69.0591z" fill="url(#color-19)" stroke-linecap="round"/><path d="M89.58415,300.27752l59.6868,-85.33732l26.1438,20.22445l4.93279,35.51611l-57.71368,6.90591z" fill="url(#color-20)" stroke-linecap="round"/><path d="M-53.46686,238.12432l128.25262,17.26478l-11.8387,27.13036l-67.57927,46.86153l-60.67336,29.59676z" fill="url(#color-21)" stroke-linecap="round"/><path d="M-40.64159,75.34215l44.39514,75.96501l-51.79433,36.50267z" fill="url(#color-22)" stroke-linecap="round"/><path d="M161.10964,163.63915l-128.25262,50.31449l111.48113,-67.57927z" fill="url(#color-23)" stroke-linecap="round"/><path d="M399.23036,218.55482l-15.36034,3.28729l-21.93491,-27.4334l15.59043,-34.97225l21.78587,-12.80504z" fill="url(#color-24)" stroke-linecap="round"/><path d="M-64.88574,368.25826v-16.51652h704.2042v16.51652z" fill="url(#color-25)" stroke-linecap="butt"/><path d="M648.25826,376.26126h-16.51652v-377.09674h16.51652z" fill="url(#color-26)" stroke-linecap="butt"/><path d="M647.67447,-1.346v16.51652h-640v-16.51652z" fill="url(#color-27)" stroke-linecap="butt"/><path d="M-1.26532,-9.349h16.51652v377.09675h-16.51652z" fill="url(#color-28)" stroke-linecap="butt"/></g></g></svg>