<svg version="1.1" xmlns="http://www.w3.org/2000/svg" xmlns:xlink="http://www.w3.org/1999/xlink" width="254.41548" height="274.6892" viewBox="0,0,254.41548,274.6892"><defs><linearGradient x1="455.40658" y1="166.407" x2="455.40658" y2="213.71196" gradientUnits="userSpaceOnUse" id="color-1"><stop offset="0" stop-color="#2f2f2f"/><stop offset="1" stop-color="#545454"/></linearGradient><linearGradient x1="431.47192" y1="266.39556" x2="431.47192" y2="287.56344" gradientUnits="userSpaceOnUse" id="color-2"><stop offset="0" stop-color="#2f2f2f"/><stop offset="1" stop-color="#545454"/></linearGradient><linearGradient x1="388.60695" y1="212.41745" x2="388.60695" y2="287.56344" gradientUnits="userSpaceOnUse" id="color-3"><stop offset="0" stop-color="#2f2f2f"/><stop offset="1" stop-color="#545454"/></linearGradient><linearGradient x1="352.62155" y1="212.41746" x2="352.62155" y2="235.70213" gradientUnits="userSpaceOnUse" id="color-4"><stop offset="0" stop-color="#2f2f2f"/><stop offset="1" stop-color="#545454"/></linearGradient><linearGradient x1="336.74564" y1="127.74593" x2="336.74564" y2="209.24228" gradientUnits="userSpaceOnUse" id="color-5"><stop offset="0" stop-color="#2f2f2f"/><stop offset="1" stop-color="#545454"/></linearGradient><linearGradient x1="405.54125" y1="127.68753" x2="405.54125" y2="152.0306" gradientUnits="userSpaceOnUse" id="color-6"><stop offset="0" stop-color="#2f2f2f"/><stop offset="1" stop-color="#545454"/></linearGradient><linearGradient x1="453.69819" y1="146.79702" x2="453.69819" y2="166.90651" gradientUnits="userSpaceOnUse" id="color-7"><stop offset="0" stop-color="#2f2f2f"/><stop offset="1" stop-color="#545454"/></linearGradient><linearGradient x1="515.48998" y1="197.59994" x2="515.48998" y2="343.98315" gradientUnits="userSpaceOnUse" id="color-8"><stop offset="0" stop-color="#2f2f2f"/><stop offset="1" stop-color="#545454"/></linearGradient><linearGradient x1="485.45" y1="86.46856" x2="485.45" y2="123.66355" gradientUnits="userSpaceOnUse" id="color-9"><stop offset="0" stop-color="#2f2f2f"/><stop offset="1" stop-color="#545454"/></linearGradient><linearGradient x1="450.52298" y1="327.78242" x2="450.52298" y2="344.71673" gradientUnits="userSpaceOnUse" id="color-10"><stop offset="0" stop-color="#2f2f2f"/><stop offset="1" stop-color="#545454"/></linearGradient><linearGradient x1="281.17992" y1="140.44664" x2="281.17992" y2="271.68753" gradientUnits="userSpaceOnUse" id="color-11"><stop offset="0" stop-color="#2f2f2f"/><stop offset="1" stop-color="#545454"/></linearGradient><linearGradient x1="307.11057" y1="136.21308" x2="307.11057" y2="152.08899" gradientUnits="userSpaceOnUse" id="color-12"><stop offset="0" stop-color="#2f2f2f"/><stop offset="1" stop-color="#545454"/></linearGradient><linearGradient x1="369.02662" y1="327.78242" x2="369.02662" y2="344.71673" gradientUnits="userSpaceOnUse" id="color-13"><stop offset="0" stop-color="#2f2f2f"/><stop offset="1" stop-color="#545454"/></linearGradient><linearGradient x1="297.14342" y1="86.46855" x2="297.14342" y2="135.15468" gradientUnits="userSpaceOnUse" id="color-14"><stop offset="0" stop-color="#2f2f2f"/><stop offset="1" stop-color="#545454"/></linearGradient><linearGradient x1="433.58867" y1="72.70942" x2="433.58867" y2="87.52694" gradientUnits="userSpaceOnUse" id="color-15"><stop offset="0" stop-color="#2f2f2f"/><stop offset="1" stop-color="#545454"/></linearGradient><linearGradient x1="515.61423" y1="124.57074" x2="515.61423" y2="198.65833" gradientUnits="userSpaceOnUse" id="color-16"><stop offset="0" stop-color="#2f2f2f"/><stop offset="1" stop-color="#545454"/></linearGradient><linearGradient x1="284.88672" y1="147.56444" x2="284.88672" y2="272.56444" gradientUnits="userSpaceOnUse" id="color-17"><stop offset="0" stop-color="#2f2f2f"/><stop offset="1" stop-color="#545454"/></linearGradient><linearGradient x1="305.13672" y1="141.81445" x2="305.13672" y2="143.81445" gradientUnits="userSpaceOnUse" id="color-18"><stop offset="0" stop-color="#2f2f2f"/><stop offset="1" stop-color="#545454"/></linearGradient><linearGradient x1="337.88672" y1="142.56445" x2="337.88672" y2="195.06445" gradientUnits="userSpaceOnUse" id="color-19"><stop offset="0" stop-color="#2f2f2f"/><stop offset="1" stop-color="#545454"/></linearGradient><linearGradient x1="358.13672" y1="218.06445" x2="358.13672" y2="221.06445" gradientUnits="userSpaceOnUse" id="color-20"><stop offset="0" stop-color="#2f2f2f"/><stop offset="1" stop-color="#545454"/></linearGradient><linearGradient x1="308.72401" y1="273.74592" x2="308.72401" y2="344.89862" gradientUnits="userSpaceOnUse" id="color-21"><stop offset="0" stop-color="#2f2f2f"/><stop offset="1" stop-color="#545454"/></linearGradient><linearGradient x1="307.61225" y1="295.98113" x2="307.61225" y2="329.33395" gradientUnits="userSpaceOnUse" id="color-22"><stop offset="0" stop-color="#2f2f2f"/><stop offset="1" stop-color="#545454"/></linearGradient><linearGradient x1="313.14102" y1="284.58472" x2="313.14102" y2="336.58063" gradientUnits="userSpaceOnUse" id="color-23"><stop offset="0" stop-color="#2f2f2f"/><stop offset="1" stop-color="#545454"/></linearGradient><linearGradient x1="298.17249" y1="334.26759" x2="298.17249" y2="336.26759" gradientUnits="userSpaceOnUse" id="color-24"><stop offset="0" stop-color="#2f2f2f"/><stop offset="1" stop-color="#545454"/></linearGradient><linearGradient x1="276.63883" y1="295.08894" x2="276.63883" y2="319.24866" gradientUnits="userSpaceOnUse" id="color-25"><stop offset="0" stop-color="#2f2f2f"/><stop offset="1" stop-color="#545454"/></linearGradient><linearGradient x1="377.88672" y1="335.06444" x2="377.88672" y2="344.06444" gradientUnits="userSpaceOnUse" id="color-26"><stop offset="0" stop-color="#2f2f2f"/><stop offset="1" stop-color="#545454"/></linearGradient><linearGradient x1="444.13672" y1="329.56445" x2="444.13672" y2="339.56445" gradientUnits="userSpaceOnUse" id="color-27"><stop offset="0" stop-color="#2f2f2f"/><stop offset="1" stop-color="#545454"/></linearGradient><linearGradient x1="481.88672" y1="336.56445" x2="481.88672" y2="343.56445" gradientUnits="userSpaceOnUse" id="color-28"><stop offset="0" stop-color="#2f2f2f"/><stop offset="1" stop-color="#545454"/></linearGradient><linearGradient x1="518.38672" y1="300.06444" x2="518.38672" y2="310.06444" gradientUnits="userSpaceOnUse" id="color-29"><stop offset="0" stop-color="#2f2f2f"/><stop offset="1" stop-color="#545454"/></linearGradient><linearGradient x1="510.13672" y1="268.06444" x2="510.13672" y2="281.06444" gradientUnits="userSpaceOnUse" id="color-30"><stop offset="0" stop-color="#2f2f2f"/><stop offset="1" stop-color="#545454"/></linearGradient><linearGradient x1="429.88672" y1="272.06444" x2="429.88672" y2="274.06444" gradientUnits="userSpaceOnUse" id="color-31"><stop offset="0" stop-color="#2f2f2f"/><stop offset="1" stop-color="#545454"/></linearGradient><linearGradient x1="388.38672" y1="235.06444" x2="388.38672" y2="276.56444" gradientUnits="userSpaceOnUse" id="color-32"><stop offset="0" stop-color="#2f2f2f"/><stop offset="1" stop-color="#545454"/></linearGradient><linearGradient x1="454.38672" y1="175.06445" x2="454.38672" y2="200.56445" gradientUnits="userSpaceOnUse" id="color-33"><stop offset="0" stop-color="#2f2f2f"/><stop offset="1" stop-color="#545454"/></linearGradient><linearGradient x1="414.63672" y1="139.81445" x2="414.63672" y2="141.81445" gradientUnits="userSpaceOnUse" id="color-34"><stop offset="0" stop-color="#2f2f2f"/><stop offset="1" stop-color="#545454"/></linearGradient><linearGradient x1="517.63672" y1="140.56445" x2="517.63672" y2="177.56445" gradientUnits="userSpaceOnUse" id="color-35"><stop offset="0" stop-color="#2f2f2f"/><stop offset="1" stop-color="#545454"/></linearGradient><linearGradient x1="515.38672" y1="205.56445" x2="515.38672" y2="233.56445" gradientUnits="userSpaceOnUse" id="color-36"><stop offset="0" stop-color="#2f2f2f"/><stop offset="1" stop-color="#545454"/></linearGradient><linearGradient x1="452.13672" y1="155.06445" x2="452.13672" y2="157.06445" gradientUnits="userSpaceOnUse" id="color-37"><stop offset="0" stop-color="#2f2f2f"/><stop offset="1" stop-color="#545454"/></linearGradient><linearGradient x1="489.13672" y1="92.56445" x2="489.13672" y2="113.06445" gradientUnits="userSpaceOnUse" id="color-38"><stop offset="0" stop-color="#2f2f2f"/><stop offset="1" stop-color="#545454"/></linearGradient><linearGradient x1="439.63672" y1="76.06445" x2="439.63672" y2="79.06445" gradientUnits="userSpaceOnUse" id="color-39"><stop offset="0" stop-color="#2f2f2f"/><stop offset="1" stop-color="#545454"/></linearGradient><linearGradient x1="301.88672" y1="100.06445" x2="301.88672" y2="130.56445" gradientUnits="userSpaceOnUse" id="color-40"><stop offset="0" stop-color="#2f2f2f"/><stop offset="1" stop-color="#545454"/></linearGradient></defs><g transform="translate(-270.38672,-71.45942)"><g data-paper-data="{&quot;isPaintingLayer&quot;:true}" fill-rule="nonzero" stroke="#4a4a4a" stroke-linejoin="miter" stroke-miterlimit="10" stroke-dasharray="" stroke-dashoffset="0" style="mix-blend-mode: normal"><path d="M447.69381,213.71196v-47.30496h15.42553v47.30496z" fill="url(#color-1)" stroke-width="2.5" stroke-linecap="butt"/><path d="M397.6033,287.56344v-21.16788h67.73723v21.16788z" fill="url(#color-2)" stroke-width="2.5" stroke-linecap="butt"/><path d="M380.66899,287.56344v-75.14599h15.87591v75.14599z" fill="url(#color-3)" stroke-width="2.5" stroke-linecap="butt"/><path d="M326.69089,235.70213v-23.28467h51.86131v23.28467z" fill="url(#color-4)" stroke-width="2.5" stroke-linecap="butt"/><path d="M326.69089,209.24228v-81.49635h20.10949v81.49635z" fill="url(#color-5)" stroke-width="2.5" stroke-linecap="butt"/><path d="M347.85877,152.0306v-24.34307h115.36496v24.34307z" fill="url(#color-6)" stroke-width="2.5" stroke-linecap="butt"/><path d="M444.17264,166.90651v-20.10949h19.05109v20.10949z" fill="url(#color-7)" stroke-width="2.5" stroke-linecap="butt"/><path d="M507.42775,343.98315v-146.38321h16.12445v146.38321z" fill="url(#color-8)" stroke-width="2.5" stroke-linecap="butt"/><path d="M466.3989,123.66355v-37.19499h38.10219v37.19499z" fill="url(#color-9)" stroke-width="3.5" stroke-linecap="butt"/><path d="M392.3113,344.71673v-16.93431h116.42336v16.93431z" fill="url(#color-10)" stroke-width="2.5" stroke-linecap="butt"/><path d="M272.71276,271.68753v-131.24088h16.93431v131.24088z" fill="url(#color-11)" stroke-width="2.5" stroke-linecap="butt"/><path d="M288.58867,152.08899v-15.87591h37.0438v15.87591z" fill="url(#color-12)" stroke-width="2.5" stroke-linecap="butt"/><path d="M346.80035,344.71673v-16.93431h44.45255v16.93431z" fill="url(#color-13)" stroke-width="2.5" stroke-linecap="butt"/><path d="M289.20546,135.15468v-48.68613h15.87591v48.68613z" fill="url(#color-14)" stroke-width="2.5" stroke-linecap="butt"/><path d="M402.89524,87.52694v-14.81752h61.38686v14.81752z" fill="url(#color-15)" stroke-width="2.5" stroke-linecap="butt"/><path d="M507.67627,198.65833v-74.08759h15.87591v74.08759z" fill="url(#color-16)" stroke-width="2.5" stroke-linecap="butt"/><path d="M284.38672,272.56444l-2,-120l5,-5" fill="url(#color-17)" stroke-width="2" stroke-linecap="round"/><path d="M296.38672,142.56445l17.5,0.5" fill="url(#color-18)" stroke-width="2" stroke-linecap="round"/><path d="M335.88672,142.56445l4,52.5" fill="url(#color-19)" stroke-width="2" stroke-linecap="round"/><path d="M346.88672,218.06445l22.5,3" fill="url(#color-20)" stroke-width="2" stroke-linecap="round"/><path d="M273.14766,344.89862v-71.1527h71.1527v71.1527z" fill="url(#color-21)" stroke-width="2.5" stroke-linecap="butt"/><path d="M292.04759,329.33395v-33.35282h31.12931v33.35282z" fill="url(#color-22)" stroke-width="2.5" stroke-linecap="butt"/><path d="M287.14306,284.58472l51.99591,4.7269l-5.25211,47.26901" fill="url(#color-23)" stroke-width="2" stroke-linecap="round"/><path d="M320.75657,335.00499l-45.16816,0.52521" fill="url(#color-24)" stroke-width="2" stroke-linecap="round"/><path d="M271.38672,319.24866l10.50422,-24.15971" fill="url(#color-25)" stroke-width="2" stroke-linecap="round"/><path d="M384.38672,335.06444l-13,9" fill="url(#color-26)" stroke-width="2" stroke-linecap="round"/><path d="M432.88672,329.56445l22.5,10" fill="url(#color-27)" stroke-width="2" stroke-linecap="round"/><path d="M488.88672,336.56445l-14,7" fill="url(#color-28)" stroke-width="2" stroke-linecap="round"/><path d="M513.38672,300.06444l10,10" fill="url(#color-29)" stroke-width="2" stroke-linecap="round"/><path d="M506.38672,281.06444l7.5,-13" fill="url(#color-30)" stroke-width="2" stroke-linecap="round"/><path d="M445.88672,273.56444l-32,-1" fill="url(#color-31)" stroke-width="2" stroke-linecap="round"/><path d="M390.88672,276.56444l-5,-41.5" fill="url(#color-32)" stroke-width="2" stroke-linecap="round"/><path d="M454.38672,175.06445v25.5" fill="url(#color-33)" stroke-width="2" stroke-linecap="round"/><path d="M382.38672,140.56445l64.5,0.5" fill="url(#color-34)" stroke-width="2" stroke-linecap="round"/><path d="M516.38672,140.56445l2.5,37" fill="url(#color-35)" stroke-width="2" stroke-linecap="round"/><path d="M513.38672,205.56445l4,28" fill="url(#color-36)" stroke-width="2" stroke-linecap="round"/><path d="M449.38672,155.56445l5.5,1" fill="url(#color-37)" stroke-width="2" stroke-linecap="round"/><path d="M494.88672,98.06445l-1.5,15l-10,-4l3.5,-16.5" fill="url(#color-38)" stroke-width="2" stroke-linecap="round"/><path d="M425.88672,76.06445l27.5,3" fill="url(#color-39)" stroke-width="2" stroke-linecap="round"/><path d="M304.38672,100.06445l-5,30.5" fill="url(#color-40)" stroke-width="2" stroke-linecap="round"/></g></g></svg>