<svg version="1.1" xmlns="http://www.w3.org/2000/svg" xmlns:xlink="http://www.w3.org/1999/xlink" width="442" height="298.50158" viewBox="0,0,442,298.50158"><defs><linearGradient x1="298.83527" y1="161.01199" x2="298.83527" y2="204.40616" gradientUnits="userSpaceOnUse" id="color-1"><stop offset="0" stop-color="#000000"/><stop offset="1" stop-color="#717171"/></linearGradient><linearGradient x1="292.67993" y1="252.06224" x2="292.67993" y2="264.2788" gradientUnits="userSpaceOnUse" id="color-2"><stop offset="0" stop-color="#a9a9a9"/><stop offset="1" stop-color="#ffffff"/></linearGradient><linearGradient x1="346.52056" y1="157.38099" x2="346.52056" y2="302.38097" gradientUnits="userSpaceOnUse" id="color-3"><stop offset="0" stop-color="#000000"/><stop offset="1" stop-color="#717171"/></linearGradient><linearGradient x1="254.70182" y1="289.68026" x2="254.70182" y2="303.43935" gradientUnits="userSpaceOnUse" id="color-4"><stop offset="0" stop-color="#a9a9a9"/><stop offset="1" stop-color="#ffffff"/></linearGradient><linearGradient x1="233.40985" y1="251.57809" x2="233.40985" y2="264.2788" gradientUnits="userSpaceOnUse" id="color-5"><stop offset="0" stop-color="#000000"/><stop offset="1" stop-color="#717171"/></linearGradient><linearGradient x1="199.01204" y1="130.92116" x2="199.01204" y2="250.51968" gradientUnits="userSpaceOnUse" id="color-6"><stop offset="0" stop-color="#000000"/><stop offset="1" stop-color="#717171"/></linearGradient><linearGradient x1="240.76873" y1="130.92118" x2="240.76873" y2="146.79708" gradientUnits="userSpaceOnUse" id="color-7"><stop offset="0" stop-color="#000000"/><stop offset="1" stop-color="#717171"/></linearGradient><linearGradient x1="298.96825" y1="132.52941" x2="298.96825" y2="160.04767" gradientUnits="userSpaceOnUse" id="color-8"><stop offset="0" stop-color="#a9a9a9"/><stop offset="1" stop-color="#ffffff"/></linearGradient><linearGradient x1="159.98657" y1="103.10268" x2="159.98657" y2="287.71946" gradientUnits="userSpaceOnUse" id="color-9"><stop offset="0" stop-color="#000000"/><stop offset="1" stop-color="#717171"/></linearGradient><linearGradient x1="270.77043" y1="93.87736" x2="270.77043" y2="102.3445" gradientUnits="userSpaceOnUse" id="color-10"><stop offset="0" stop-color="#a9a9a9"/><stop offset="1" stop-color="#ffffff"/></linearGradient><linearGradient x1="299.20547" y1="103.51973" x2="299.20547" y2="131.97956" gradientUnits="userSpaceOnUse" id="color-11"><stop offset="0" stop-color="#000000"/><stop offset="1" stop-color="#717171"/></linearGradient><linearGradient x1="323.25231" y1="188.74037" x2="323.25231" y2="204.68008" gradientUnits="userSpaceOnUse" id="color-12"><stop offset="0" stop-color="#a9a9a9"/><stop offset="1" stop-color="#ffffff"/></linearGradient><linearGradient x1="391.69203" y1="93.94887" x2="391.69203" y2="290.71058" gradientUnits="userSpaceOnUse" id="color-13"><stop offset="0" stop-color="#000000"/><stop offset="1" stop-color="#717171"/></linearGradient><linearGradient x1="70.77344" y1="251.12892" x2="70.77344" y2="380.12894" gradientUnits="userSpaceOnUse" id="color-14"><stop offset="0" stop-color="#000000"/><stop offset="1" stop-color="#ffffff"/></linearGradient><linearGradient x1="162.77344" y1="321.12892" x2="162.77344" y2="385.12894" gradientUnits="userSpaceOnUse" id="color-15"><stop offset="0" stop-color="#000000"/><stop offset="1" stop-color="#ffffff"/></linearGradient><linearGradient x1="290.27344" y1="323.12892" x2="290.27344" y2="383.12894" gradientUnits="userSpaceOnUse" id="color-16"><stop offset="0" stop-color="#000000"/><stop offset="1" stop-color="#ffffff"/></linearGradient><linearGradient x1="445.77344" y1="273.12892" x2="445.77344" y2="383.12894" gradientUnits="userSpaceOnUse" id="color-17"><stop offset="0" stop-color="#000000"/><stop offset="1" stop-color="#ffffff"/></linearGradient><linearGradient x1="23.77344" y1="308.12892" x2="23.77344" y2="377.12894" gradientUnits="userSpaceOnUse" id="color-18"><stop offset="0" stop-color="#a9a9a9"/><stop offset="1" stop-color="#ffffff"/></linearGradient><linearGradient x1="126.27344" y1="301.12892" x2="126.27344" y2="381.12894" gradientUnits="userSpaceOnUse" id="color-19"><stop offset="0" stop-color="#a9a9a9"/><stop offset="1" stop-color="#ffffff"/></linearGradient><linearGradient x1="215.77344" y1="333.12892" x2="215.77344" y2="390.12894" gradientUnits="userSpaceOnUse" id="color-20"><stop offset="0" stop-color="#a9a9a9"/><stop offset="1" stop-color="#ffffff"/></linearGradient><linearGradient x1="369.27344" y1="332.12892" x2="369.27344" y2="388.12894" gradientUnits="userSpaceOnUse" id="color-21"><stop offset="0" stop-color="#a9a9a9"/><stop offset="1" stop-color="#ffffff"/></linearGradient></defs><g transform="translate(-13.77344,-92.62735)"><g data-paper-data="{&quot;isPaintingLayer&quot;:true}" fill-rule="nonzero" stroke="#000000" stroke-linecap="butt" stroke-linejoin="miter" stroke-miterlimit="10" stroke-dasharray="" stroke-dashoffset="0" style="mix-blend-mode: normal"><path d="M291.06643,204.40616v-43.39416h15.53769v43.39416z" fill="url(#color-1)" stroke-width="2.5"/><path d="M270.45365,264.2788v-12.21658h44.45256v12.21658z" fill="url(#color-2)" stroke-width="2.5"/><path d="M339.641,302.38097v-145h13.75912v145z" fill="url(#color-3)" stroke-width="2.5"/><path d="M155.33686,303.43935v-13.75912h198.72992v13.75912z" fill="url(#color-4)" stroke-width="2.5"/><path d="M192.13248,264.2788v-12.70073h82.55473v12.70073z" fill="url(#color-5)" stroke-width="2.5"/><path d="M192.13248,250.51968v-119.59854h13.75912v119.59854z" fill="url(#color-6)" stroke-width="2.5"/><path d="M192.13248,146.79708v-15.87591h97.27251v15.87591z" fill="url(#color-7)" stroke-width="2.5"/><path d="M291.03029,160.04767v-27.51825h15.87592v27.51825z" fill="url(#color-8)" stroke-width="2.5"/><path d="M155.75299,287.71946v-184.61679h8.46716v184.61679z" fill="url(#color-9)" stroke-width="2.5"/><path d="M155.72226,102.3445v-8.46715h230.09635v8.46715z" fill="url(#color-10)" stroke-width="2.5"/><path d="M291.50474,131.97956v-28.45985h15.40146v28.45985z" fill="url(#color-11)" stroke-width="2.5"/><path d="M308.21153,204.68008v-15.93972h30.08156v15.93972z" fill="url(#color-12)" stroke-width="2.5"/><path d="M385.77891,290.71058v-196.7617h11.82624v196.7617z" fill="url(#color-13)" stroke-width="2.5"/><path d="M61.77344,380.12894v-129h18v129z" fill="url(#color-14)" stroke-width="2"/><path d="M154.77344,385.12894v-64h16v64z" fill="url(#color-15)" stroke-width="2"/><path d="M282.77344,383.12894v-60h15v60z" fill="url(#color-16)" stroke-width="2"/><path d="M436.77344,383.12894v-110h18v110z" fill="url(#color-17)" stroke-width="2"/><path d="M14.77344,377.12894v-69h18v69z" fill="url(#color-18)" stroke-width="2"/><path d="M115.77344,381.12894v-80h21v80z" fill="url(#color-19)" stroke-width="2"/><path d="M205.77344,390.12894v-57h20v57z" fill="url(#color-20)" stroke-width="2"/><path d="M360.77344,388.12894v-56h17v56z" fill="url(#color-21)" stroke-width="2"/></g></g></svg>