<svg version="1.1" xmlns="http://www.w3.org/2000/svg" xmlns:xlink="http://www.w3.org/1999/xlink" width="40.78167" height="40.78167" viewBox="0,0,40.78167,40.78167"><defs><radialGradient cx="258.02768" cy="179.61293" r="18.62317" gradientUnits="userSpaceOnUse" id="color-1"><stop offset="0" stop-color="#ffffff"/><stop offset="1" stop-color="#1a1a1a"/></radialGradient><radialGradient cx="250.63128" cy="179.63627" r="10.90746" gradientUnits="userSpaceOnUse" id="color-2"><stop offset="0" stop-color="#ffffff"/><stop offset="1" stop-color="#1a1a1a"/></radialGradient></defs><g transform="translate(-219.60916,-159.60916)"><g data-paper-data="{&quot;isPaintingLayer&quot;:true}" fill-rule="nonzero" stroke-linecap="butt" stroke-linejoin="miter" stroke-miterlimit="10" stroke-dasharray="" stroke-dashoffset="0" style="mix-blend-mode: normal"><path d="M239.94125,161.37692l18.68183,18.56433l-18.56433,18.68183l-18.68183,-18.56433z" fill="#000000" stroke="url(#color-1)" stroke-width="2.5"/><path d="M239.96559,169.09259l10.94181,10.873l-10.873,10.94181l-10.94181,-10.873z" fill="none" stroke="url(#color-2)" stroke-width="2.5"/><path d="M227.53125,184.05826c-1.50803,0.00476 -4.23204,-4.29314 -2.17183,-5.47904c0.43255,-0.73822 1.23309,-1.23506 2.15064,-1.23796c0.34636,-0.00109 0.6765,0.06831 0.97682,0.19469c0.6357,-1.29583 2.07869,-1.41106 3.25408,-1.98474l0.09546,-0.14416l0.00406,0.00269l0.00473,-0.0158c0.52392,-0.73957 0.81213,-1.7243 1.57175,-2.21869c0.07236,-0.0471 0.1465,-0.09021 0.22218,-0.12982l-0.02229,-0.03321l1.18415,-0.79484c0.17827,-0.12347 0.38688,-0.20629 0.61246,-0.23502c0.00014,-0.07665 -0.00052,-0.15353 -0.00166,-0.23055c-0.12845,-0.19415 -0.21419,-0.45236 -0.21527,-0.79574c-0.00438,-1.38856 1.38418,-1.39294 1.38418,-1.39294l0.72589,0.63031c-0.06918,-0.35367 -0.15452,-0.70894 -0.25874,-1.06623c0,0 -0.38568,-1.33394 0.94826,-1.71962c1.33394,-0.38568 1.71962,0.94826 1.71962,0.94826c0.95166,3.31729 0.66798,6.41531 0.27425,9.76908c-0.47127,4.01426 0.6593,8.00378 0.63658,12.01388l0.35541,1.22924c0.04086,0.13013 0.06309,0.26854 0.06354,0.41211c0.00242,0.76689 -0.61731,1.39052 -1.38418,1.39294c-0.34145,0.00108 -0.65451,-0.12118 -0.89698,-0.32485l-1.19859,-0.99243l0.0259,-0.03128c-0.05746,-0.03429 -0.11423,-0.06987 -0.17024,-0.1069c-0.83278,-0.55057 -1.21795,-1.54932 -1.67339,-2.47197l-0.03491,-0.04856l0.00798,-0.00574c-0.0239,-0.04793 -0.04801,-0.09563 -0.07242,-0.14302l-0.04357,-0.02788c0.00625,-0.00666 0.01251,-0.01332 0.01876,-0.01997c-0.03037,-0.05821 -0.06124,-0.11593 -0.09272,-0.17299l-0.00658,0.00222l-0.01206,-0.0358c-0.04543,-0.08133 -0.09218,-0.16126 -0.14067,-0.2394l0.00519,-0.03822c-0.3329,-0.22734 -0.6371,-0.6764 -0.90696,-1.17075c-0.23031,-0.02394 -0.45589,-0.07227 -0.67029,-0.147l0.00001,0.00001c-1.1634,-0.40545 -3.74752,-2.24025 -4.86891,-3.26827c-0.01882,-0.01599 -0.0374,-0.03225 -0.05573,-0.04877c-0.36514,0.11229 -0.80957,0.17503 -1.34391,0.17672zM237.29378,183.71585c0.04906,0.06848 0.09424,0.13642 0.13568,0.20381c-0.11205,-1.36944 -0.20092,-2.7461 -0.20103,-4.15201c-0.00012,-1.70057 0.19074,-3.34997 0.28603,-4.99332l-0.00001,0.00001c-0.62361,1.58244 -1.74087,2.9161 -3.56401,3.56761c-0.02242,0.00801 -0.04489,0.01586 -0.0674,0.02356l0.00747,0.01299l-1.37918,0.79388c-0.11945,0.07174 -0.25059,0.12601 -0.38992,0.15931c0.25701,0.18724 0.49268,0.39509 0.65539,0.66179c0.01663,0.02725 0.03307,0.05459 0.04934,0.08201l0.01573,-0.01407l0.45366,0.50714c1.59532,0.80522 3.12467,1.92793 3.99824,3.14726zM237.55976,186.1718l0.08613,0.25569c-0.01451,-0.17142 -0.02928,-0.34272 -0.04419,-0.51398c-0.02542,0.04924 -0.05307,0.09749 -0.0828,0.14468c0.01521,0.03709 0.02886,0.07499 0.04087,0.11361z" fill="#000000" stroke="none" stroke-width="0.5"/></g></g></svg>