<svg version="1.1" xmlns="http://www.w3.org/2000/svg" xmlns:xlink="http://www.w3.org/1999/xlink" width="237.10835" height="211.94112" viewBox="0,0,237.10835,211.94112"><defs><linearGradient x1="320.00001" y1="76.52944" x2="320.00001" y2="283.47056" gradientUnits="userSpaceOnUse" id="color-1"><stop offset="0" stop-color="#000000"/><stop offset="1" stop-color="#292929"/></linearGradient></defs><g transform="translate(-201.44583,-74.02944)"><g data-paper-data="{&quot;isPaintingLayer&quot;:true}" fill-rule="nonzero" stroke-linecap="butt" stroke-linejoin="miter" stroke-miterlimit="10" stroke-dasharray="" stroke-dashoffset="0" style="mix-blend-mode: normal"><path d="M203.94584,283.47056v-206.94112h232.10835v206.94112z" fill="url(#color-1)" stroke-opacity="0.40392" stroke="#ffffff" stroke-width="5"/><text transform="translate(213.19238,230.32429) scale(1.06306,1.06306)" font-size="40" xml:space="preserve" fill-opacity="0.37255" fill="#ffffff" fill-rule="nonzero" stroke="none" stroke-width="1" stroke-linecap="butt" stroke-linejoin="miter" stroke-miterlimit="10" stroke-dasharray="" stroke-dashoffset="0" font-family="&quot;OpenSans-Light&quot;, Sans Serif" font-weight="normal" text-anchor="start" style="mix-blend-mode: normal"><tspan x="0" dy="0">touch</tspan></text><g fill-opacity="0.37255" fill="#ffffff" stroke="none" stroke-width="0"><path d="M346.11364,246.59518l-46.02586,-130.0985l72.05661,-25.49198l46.02586,130.0985z"/><path d="M344.77956,242.8242l-4.66929,-13.1984l72.05661,-25.49198l4.66929,13.1984z"/><path d="M301.36628,120.11052l-1.6676,-4.71372l72.05661,-25.49198l1.6676,4.71372z"/></g><text transform="translate(213.19238,266.32429) scale(1.06306,1.06306)" font-size="40" xml:space="preserve" fill-opacity="0.37255" fill="#ffffff" fill-rule="nonzero" stroke="none" stroke-width="1" stroke-linecap="butt" stroke-linejoin="miter" stroke-miterlimit="10" stroke-dasharray="" stroke-dashoffset="0" font-family="&quot;OpenSans-Medium&quot;, Sans Serif" font-weight="normal" text-anchor="start" style="mix-blend-mode: normal"><tspan x="0" dy="0">&amp; click</tspan></text><path d="M253.51463,121.04167c0,5.13165 -1.27347,9.29167 -2.84438,9.29167c-1.57091,0 -2.84439,-4.16003 -2.84439,-9.29167c0,-5.13165 1.27348,-9.29166 2.84439,-9.29166c1.57091,0 2.84438,4.16002 2.84438,9.29166z" fill-opacity="0.37255" fill="#ffffff" stroke="none" stroke-width="0"/><g fill-opacity="0.37255" fill="#ffffff" stroke="none" stroke-width="0"><path d="M230.95085,179v-68h40.04541v68z"/><path d="M231.20085,140.25v-29h17.75l-5,22.75z"/><path d="M255.95085,133.25l-3,-22h17.75v29z"/></g><path d="M310.84661,111.10624c-0.10624,1.24548 -1.35172,1.13924 -1.35172,1.13924l-1.50922,-0.13622c-3.38621,-1.05065 -6.74626,-2.04143 -9.6121,-4.25034c-4.30985,-3.32192 -7.30248,-8.87923 -12.08187,-11.58235c-1.36666,-0.77295 -2.91924,-1.15714 -4.37564,-1.74373c-2.76116,-0.51756 -5.595,-1.33854 -8.38688,-1.61823c-11.97596,-1.19976 -16.75933,9.80032 -21.49177,18.67364c0,0 -0.58824,1.10294 -1.69118,0.51471c-1.10294,-0.58824 -0.51471,-1.69118 -0.51471,-1.69118c5.25025,-9.84421 10.68572,-21.2223 23.84157,-19.99303c2.9737,0.27786 6.01337,1.13911 8.94645,1.7151c0.18034,0.07168 4.76636,1.88843 4.90912,1.97018c4.91789,2.81584 7.9391,8.35873 12.3711,11.77481c2.54927,1.96491 5.56395,2.82543 8.56882,3.77751l1.23879,0.09819c0,0 1.24548,0.10624 1.13924,1.35172z" fill-opacity="0.37255" fill="#ffffff" stroke="none" stroke-width="0.5"/><path d="M388.2678,174.33333c0,8.28427 -6.56649,15 -14.66667,15c-8.10018,0 -14.66667,-6.71573 -14.66667,-15c0,-8.28427 6.56649,-15 14.66667,-15c8.10018,0 14.66667,6.71573 14.66667,15z" fill-opacity="0.37255" fill="#ffffff" stroke-opacity="0.40392" stroke="#ffffff" stroke-width="5"/><path d="M380.93447,174.33333c0,4.32623 -3.28325,7.83333 -7.33333,7.83333c-4.05009,0 -7.33333,-3.5071 -7.33333,-7.83333c0,-4.32623 3.28325,-7.83333 7.33333,-7.83333c4.05009,0 7.33333,3.5071 7.33333,7.83333z" fill-opacity="0.37255" fill="#ffffff" stroke-opacity="0.40392" stroke="#ffffff" stroke-width="5"/><path d="M347.93447,138c0,8.28427 -6.5665,15 -14.66667,15c-8.10017,0 -14.66667,-6.71573 -14.66667,-15c0,-8.28427 6.56649,-15 14.66667,-15c8.10017,0 14.66667,6.71573 14.66667,15z" fill-opacity="0.37255" fill="#ffffff" stroke-opacity="0.40392" stroke="#ffffff" stroke-width="5"/><path d="M340.60113,138c0,4.32623 -3.28324,7.83333 -7.33333,7.83333c-4.05009,0 -7.33333,-3.5071 -7.33333,-7.83333c0,-4.32623 3.28324,-7.83334 7.33333,-7.83334c4.05009,0 7.33333,3.5071 7.33333,7.83334z" fill-opacity="0.37255" fill="#ffffff" stroke-opacity="0.40392" stroke="#ffffff" stroke-width="5"/><path d="M363.60113,201c0,8.28427 -6.5665,15 -14.66667,15c-8.10017,0 -14.66666,-6.71573 -14.66666,-15c0,-8.28427 6.56649,-15 14.66666,-15c8.10017,0 14.66667,6.71573 14.66667,15z" fill-opacity="0.37255" fill="#ffffff" stroke-opacity="0.40392" stroke="#ffffff" stroke-width="5"/><path d="M356.2678,201c0,4.32623 -3.28325,7.83333 -7.33334,7.83333c-4.05009,0 -7.33333,-3.5071 -7.33333,-7.83333c0,-4.32623 3.28324,-7.83334 7.33333,-7.83334c4.05009,0 7.33334,3.5071 7.33334,7.83334z" fill-opacity="0.37255" fill="#ffffff" stroke-opacity="0.40392" stroke="#ffffff" stroke-width="5"/></g></g></svg>