<svg version="1.1" xmlns="http://www.w3.org/2000/svg" xmlns:xlink="http://www.w3.org/1999/xlink" width="94.5476" height="85.31263" viewBox="0,0,94.5476,85.31263"><g transform="translate(-467.7278,-197.77202)"><g data-paper-data="{&quot;isPaintingLayer&quot;:true}" fill-rule="nonzero" stroke-linecap="butt" stroke-linejoin="miter" stroke-miterlimit="10" stroke-dasharray="" stroke-dashoffset="0" style="mix-blend-mode: normal"><path d="M475.04394,283.08465v-76.35409h87.23146v76.35409z" fill="#272727" stroke="none" stroke-width="0"/><path d="M467.7278,274.12611v-76.35409h87.23147v76.35409z" fill="#000000" stroke="none" stroke-width="0"/><text transform="translate(487.89593,259.20508) scale(0.44972,0.45337)" font-size="40" xml:space="preserve" fill="#ffffff" fill-rule="nonzero" stroke="none" stroke-width="1" stroke-linecap="butt" stroke-linejoin="miter" stroke-miterlimit="10" stroke-dasharray="" stroke-dashoffset="0" font-family="&quot;OpenSans-Bold&quot;, Sans Serif" font-weight="normal" text-anchor="start" style="mix-blend-mode: normal"><tspan x="0" dy="0">More</tspan></text><path d="M498.75361,219.78177c0,-6.95322 5.63671,-12.58992 12.58992,-12.58992c6.95322,0 12.58992,5.6367 12.58992,12.58992c0,6.95322 -5.63671,12.58992 -12.58992,12.58992c-6.95322,0 -12.58992,-5.63671 -12.58992,-12.58992z" fill="#ffffff" stroke="none" stroke-width="0"/><g fill="#000000" stroke="#000000" stroke-width="1.5"><path d="M503.43505,219.61528c0,-0.91952 0.74542,-1.66494 1.66494,-1.66494c0.91952,0 1.66494,0.74542 1.66494,1.66494c0,0.91952 -0.74542,1.66494 -1.66494,1.66494c-0.91952,0 -1.66494,-0.74542 -1.66494,-1.66494z"/><path d="M509.76184,219.78177c0,-0.91952 0.74542,-1.66494 1.66494,-1.66494c0.91952,0 1.66494,0.74542 1.66494,1.66494c0,0.91952 -0.74542,1.66494 -1.66494,1.66494c-0.91952,0 -1.66494,-0.74542 -1.66494,-1.66494z"/><path d="M515.92213,219.94827c0,-0.91952 0.74542,-1.66494 1.66494,-1.66494c0.91952,0 1.66494,0.74542 1.66494,1.66494c0,0.91952 -0.74542,1.66494 -1.66494,1.66494c-0.91952,0 -1.66494,-0.74542 -1.66494,-1.66494z"/></g></g></g></svg>