<svg version="1.1" xmlns="http://www.w3.org/2000/svg" xmlns:xlink="http://www.w3.org/1999/xlink" width="585.00496" height="396.3964" viewBox="0,0,585.00496,396.3964"><defs><linearGradient x1="65.07363" y1="26.68479" x2="386.68219" y2="26.68479" gradientUnits="userSpaceOnUse" id="color-1"><stop offset="0" stop-color="#212121"/><stop offset="1" stop-color="#000000"/></linearGradient><linearGradient x1="212.35734" y1="189.68171" x2="643.28826" y2="189.68171" gradientUnits="userSpaceOnUse" id="color-2"><stop offset="0" stop-color="#000000" stop-opacity="0"/><stop offset="1" stop-color="#000000"/></linearGradient><linearGradient x1="212.35734" y1="189.68171" x2="643.28826" y2="189.68171" gradientUnits="userSpaceOnUse" id="color-3"><stop offset="0" stop-color="#000000" stop-opacity="0"/><stop offset="1" stop-color="#000000"/></linearGradient><linearGradient x1="364.36134" y1="8.85871" x2="364.36134" y2="51.85871" gradientTransform="translate(-378.30878,-44.12016) scale(1.07326,1.07326)" gradientUnits="userSpaceOnUse" id="color-4"><stop offset="0" stop-color="#ffffff"/><stop offset="1" stop-color="#000000"/></linearGradient></defs><g transform="translate(-65.07363,8.51649)"><g data-paper-data="{&quot;isPaintingLayer&quot;:true}" fill-rule="nonzero" stroke="none" stroke-linecap="butt" stroke-linejoin="miter" stroke-miterlimit="10" stroke-dasharray="" stroke-dashoffset="0" style="mix-blend-mode: normal"><path d="M501.55357,72.50009v-69h148.52502v69z" fill="#000000" stroke-width="0"/><path d="M65.07363,48.18479v-43h321.60856v43z" fill="url(#color-1)" stroke-width="0"/><path d="M109.41859,28.99753c0,0.74794 0.49094,3.17016 -0.76727,3.72359c-1.80758,0.79508 -5.66121,2.2986 -8.88474,2.2986c-3.97794,0 -7.90285,-1.52455 -9.47639,-2.6526c-0.58917,-0.42236 -0.67059,-2.87312 -0.67059,-3.36959c0,-1.82245 4.43215,-3.29983 9.8995,-3.29983c5.46734,0 9.8995,1.47738 9.8995,3.29983z" fill="#ffffff" stroke-width="0"/><path d="M100.22433,32.99237c0,1.20464 0.79071,5.10592 -1.23578,5.99728c-2.91132,1.28057 -9.11805,3.70218 -14.30994,3.70218c-6.40694,0 -12.72849,-2.45547 -15.26287,-4.27233c-0.94893,-0.68026 -1.08007,-4.62751 -1.08007,-5.42713c0,-2.93527 7.13852,-5.31477 15.94433,-5.31477c8.80581,0 15.94433,2.3795 15.94433,5.31477z" fill="#ffffff" stroke-width="0"/><path d="M93.33409,20.62457c0,0.58908 0.38667,2.49685 -0.60431,2.93274c-1.42367,0.62621 -4.45883,1.8104 -6.99772,1.8104c-3.13307,0 -6.22437,-1.20075 -7.46371,-2.08921c-0.46404,-0.33266 -0.52816,-2.2629 -0.52816,-2.65393c0,-1.43538 3.49081,-2.59898 7.79695,-2.59898c4.30614,0 7.79695,1.1636 7.79695,2.59898z" fill="#ffffff" stroke-width="0"/><path d="M104.78203,11.93185c0,0.46994 0.30846,1.99186 -0.48209,2.3396c-1.13573,0.49956 -3.55703,1.44425 -5.58244,1.44425c-2.49941,0 -4.96551,-0.9579 -5.95419,-1.66667c-0.37019,-0.26537 -0.42135,-1.80524 -0.42135,-2.11718c0,-1.14508 2.78481,-2.07335 6.22004,-2.07335c3.43523,0 6.22003,0.92827 6.22003,2.07335z" fill="#ffffff" stroke-width="0"/><path d="M212.35734,387.87991v-396.3964h430.93093v396.3964z" fill="url(#color-2)" stroke-width="0"/><path d="M212.35734,387.87991v-396.3964h430.93094v396.3964z" fill="url(#color-3)" stroke-width="0"/><text transform="translate(352.48706,41.10871) scale(0.93174,0.93174)" font-size="40" xml:space="preserve" fill="url(#color-4)" fill-rule="nonzero" stroke="none" stroke-width="1" stroke-linecap="butt" stroke-linejoin="miter" stroke-miterlimit="10" stroke-dasharray="" stroke-dashoffset="0" font-family="&quot;OpenSans-Bold&quot;, Sans Serif" font-weight="normal" text-anchor="start" style="mix-blend-mode: normal"><tspan x="0" dy="0">C</tspan></text></g></g></svg>