<svg version="1.1" xmlns="http://www.w3.org/2000/svg" xmlns:xlink="http://www.w3.org/1999/xlink" width="32.58386" height="50.89216" viewBox="0,0,32.58386,50.89216"><defs><linearGradient x1="200.50278" y1="115.43545" x2="226.28403" y2="115.43545" gradientUnits="userSpaceOnUse" id="color-1"><stop offset="0" stop-color="#ff0000"/><stop offset="1" stop-color="#000000"/></linearGradient></defs><g transform="translate(-197.10145,-85.83002)"><g data-paper-data="{&quot;isPaintingLayer&quot;:true}" fill-rule="nonzero" stroke-linecap="butt" stroke-linejoin="miter" stroke-miterlimit="10" stroke-dasharray="" stroke-dashoffset="0" style="mix-blend-mode: normal"><path d="M200.50278,127.93545c-3.71549,-3.6005 0,-8.62411 0,-12.84699c0,-4.10724 -3.42117,-8.86814 0,-12.15301c3.42117,-3.28487 8.4,0 12.65729,0c4.33506,0 9.40858,-3.52544 13.12396,0c3.71538,3.52544 0,8.2942 0,12.45301c0,4.17447 3.45925,9.08137 0,12.54699c-3.45925,3.46562 -8.28992,0 -12.52396,0c-4.35623,0 -9.5418,3.6005 -13.25729,0z" fill="url(#color-1)" stroke="#ffffff" stroke-width="3.5"/><text transform="translate(207.49005,125.39961) scale(0.91667,0.91667)" font-size="40" xml:space="preserve" fill="#ffffff" fill-rule="nonzero" stroke="none" stroke-width="1" stroke-linecap="butt" stroke-linejoin="miter" stroke-miterlimit="10" stroke-dasharray="" stroke-dashoffset="0" font-family="Sans Serif" font-weight="normal" text-anchor="start" style="mix-blend-mode: normal"><tspan x="0" dy="0">-</tspan></text></g></g></svg>