<svg version="1.1" xmlns="http://www.w3.org/2000/svg" xmlns:xlink="http://www.w3.org/1999/xlink" width="757.5" height="360.5" viewBox="0,0,757.5,360.5"><defs><radialGradient cx="324.73106" cy="165.63845" r="378.5" gradientUnits="userSpaceOnUse" id="color-1"><stop offset="0" stop-color="#ffffff"/><stop offset="1" stop-color="#565656"/></radialGradient><radialGradient cx="92.71923" cy="126.69672" r="24" gradientUnits="userSpaceOnUse" id="color-2"><stop offset="0" stop-color="#565656"/><stop offset="1" stop-color="#ffffff"/></radialGradient><radialGradient cx="188.81533" cy="189.75978" r="23.5" gradientUnits="userSpaceOnUse" id="color-3"><stop offset="0" stop-color="#565656"/><stop offset="1" stop-color="#ffffff"/></radialGradient><radialGradient cx="250.37691" cy="63.63365" r="23" gradientUnits="userSpaceOnUse" id="color-4"><stop offset="0" stop-color="#565656"/><stop offset="1" stop-color="#ffffff"/></radialGradient><radialGradient cx="512.77346" cy="43.12893" r="22.5" gradientUnits="userSpaceOnUse" id="color-5"><stop offset="0" stop-color="#565656"/><stop offset="1" stop-color="#ffffff"/></radialGradient><radialGradient cx="601.72826" cy="150.72073" r="26" gradientUnits="userSpaceOnUse" id="color-6"><stop offset="0" stop-color="#565656"/><stop offset="1" stop-color="#ffffff"/></radialGradient><radialGradient cx="432.05857" cy="134.20421" r="23.5" gradientUnits="userSpaceOnUse" id="color-7"><stop offset="0" stop-color="#565656"/><stop offset="1" stop-color="#ffffff"/></radialGradient><radialGradient cx="334.46097" cy="239.30933" r="27.5" gradientUnits="userSpaceOnUse" id="color-8"><stop offset="0" stop-color="#565656"/><stop offset="1" stop-color="#ffffff"/></radialGradient><radialGradient cx="475.60213" cy="282.85285" r="19" gradientUnits="userSpaceOnUse" id="color-9"><stop offset="0" stop-color="#565656"/><stop offset="1" stop-color="#ffffff"/></radialGradient><radialGradient cx="562.6892" cy="315.8859" r="21" gradientUnits="userSpaceOnUse" id="color-10"><stop offset="0" stop-color="#565656"/><stop offset="1" stop-color="#ffffff"/></radialGradient><radialGradient cx="377.77345" cy="331.12892" r="17.5" gradientUnits="userSpaceOnUse" id="color-11"><stop offset="0" stop-color="#565656"/><stop offset="1" stop-color="#ffffff"/></radialGradient><radialGradient cx="202.27346" cy="330.62892" r="27" gradientUnits="userSpaceOnUse" id="color-12"><stop offset="0" stop-color="#565656"/><stop offset="1" stop-color="#ffffff"/></radialGradient><radialGradient cx="317.77344" cy="148.12892" r="12.5" gradientUnits="userSpaceOnUse" id="color-13"><stop offset="0" stop-color="#565656"/><stop offset="1" stop-color="#ffffff"/></radialGradient><radialGradient cx="397.77346" cy="38.12893" r="12.5" gradientUnits="userSpaceOnUse" id="color-14"><stop offset="0" stop-color="#565656"/><stop offset="1" stop-color="#ffffff"/></radialGradient><radialGradient cx="522.14867" cy="210.7808" r="20.5" gradientUnits="userSpaceOnUse" id="color-15"><stop offset="0" stop-color="#565656"/><stop offset="1" stop-color="#ffffff"/></radialGradient><radialGradient cx="601.77347" cy="41.12893" r="17.5" gradientUnits="userSpaceOnUse" id="color-16"><stop offset="0" stop-color="#565656"/><stop offset="1" stop-color="#ffffff"/></radialGradient><radialGradient cx="165.77345" cy="10.12892" r="7.5" gradientUnits="userSpaceOnUse" id="color-17"><stop offset="0" stop-color="#565656"/><stop offset="1" stop-color="#ffffff"/></radialGradient><radialGradient cx="185.81233" cy="105.6757" r="18" gradientUnits="userSpaceOnUse" id="color-18"><stop offset="0" stop-color="#565656"/><stop offset="1" stop-color="#ffffff"/></radialGradient><radialGradient cx="264.77347" cy="246.1289" r="9.5" gradientUnits="userSpaceOnUse" id="color-19"><stop offset="0" stop-color="#565656"/><stop offset="1" stop-color="#ffffff"/></radialGradient><radialGradient cx="366.27345" cy="85.62893" r="13" gradientUnits="userSpaceOnUse" id="color-20"><stop offset="0" stop-color="#565656"/><stop offset="1" stop-color="#ffffff"/></radialGradient><radialGradient cx="433.77346" cy="218.12892" r="9.5" gradientUnits="userSpaceOnUse" id="color-21"><stop offset="0" stop-color="#565656"/><stop offset="1" stop-color="#ffffff"/></radialGradient><radialGradient cx="624.25078" cy="255.82585" r="23" gradientUnits="userSpaceOnUse" id="color-22"><stop offset="0" stop-color="#565656"/><stop offset="1" stop-color="#ffffff"/></radialGradient><radialGradient cx="215.50001" cy="249.1289" r="10" gradientUnits="userSpaceOnUse" id="color-23"><stop offset="0" stop-color="#565656"/><stop offset="1" stop-color="#ffffff"/></radialGradient><radialGradient cx="245.50003" cy="278.62892" r="5.5" gradientUnits="userSpaceOnUse" id="color-24"><stop offset="0" stop-color="#565656"/><stop offset="1" stop-color="#ffffff"/></radialGradient><radialGradient cx="246.50003" cy="175.62892" r="8.5" gradientUnits="userSpaceOnUse" id="color-25"><stop offset="0" stop-color="#565656"/><stop offset="1" stop-color="#ffffff"/></radialGradient><radialGradient cx="254.00003" cy="122.62893" r="2.5" gradientUnits="userSpaceOnUse" id="color-26"><stop offset="0" stop-color="#565656"/><stop offset="1" stop-color="#ffffff"/></radialGradient><radialGradient cx="264.00003" cy="119.12893" r="5" gradientUnits="userSpaceOnUse" id="color-27"><stop offset="0" stop-color="#565656"/><stop offset="1" stop-color="#ffffff"/></radialGradient><radialGradient cx="299.50003" cy="72.62892" r="0.5" gradientUnits="userSpaceOnUse" id="color-28"><stop offset="0" stop-color="#565656"/><stop offset="1" stop-color="#ffffff"/></radialGradient><radialGradient cx="311.50001" cy="56.62893" r="8.5" gradientUnits="userSpaceOnUse" id="color-29"><stop offset="0" stop-color="#565656"/><stop offset="1" stop-color="#ffffff"/></radialGradient><radialGradient cx="222.50003" cy="101.62893" r="6.5" gradientUnits="userSpaceOnUse" id="color-30"><stop offset="0" stop-color="#565656"/><stop offset="1" stop-color="#ffffff"/></radialGradient><radialGradient cx="191.50001" cy="36.12893" r="6" gradientUnits="userSpaceOnUse" id="color-31"><stop offset="0" stop-color="#565656"/><stop offset="1" stop-color="#ffffff"/></radialGradient><radialGradient cx="356.00001" cy="138.12892" r="5" gradientUnits="userSpaceOnUse" id="color-32"><stop offset="0" stop-color="#565656"/><stop offset="1" stop-color="#ffffff"/></radialGradient><radialGradient cx="328.50001" cy="182.62892" r="4.5" gradientUnits="userSpaceOnUse" id="color-33"><stop offset="0" stop-color="#565656"/><stop offset="1" stop-color="#ffffff"/></radialGradient><radialGradient cx="297.50003" cy="192.62892" r="2.5" gradientUnits="userSpaceOnUse" id="color-34"><stop offset="0" stop-color="#565656"/><stop offset="1" stop-color="#ffffff"/></radialGradient><radialGradient cx="306.50003" cy="290.62892" r="11.5" gradientUnits="userSpaceOnUse" id="color-35"><stop offset="0" stop-color="#565656"/><stop offset="1" stop-color="#ffffff"/></radialGradient><radialGradient cx="265.00003" cy="331.12892" r="9" gradientUnits="userSpaceOnUse" id="color-36"><stop offset="0" stop-color="#565656"/><stop offset="1" stop-color="#ffffff"/></radialGradient><radialGradient cx="344.50001" cy="320.62892" r="6.5" gradientUnits="userSpaceOnUse" id="color-37"><stop offset="0" stop-color="#565656"/><stop offset="1" stop-color="#ffffff"/></radialGradient><radialGradient cx="403.50001" cy="270.62892" r="6.5" gradientUnits="userSpaceOnUse" id="color-38"><stop offset="0" stop-color="#565656"/><stop offset="1" stop-color="#ffffff"/></radialGradient><radialGradient cx="389.50001" cy="167.62892" r="3.5" gradientUnits="userSpaceOnUse" id="color-39"><stop offset="0" stop-color="#565656"/><stop offset="1" stop-color="#ffffff"/></radialGradient><radialGradient cx="397.50001" cy="212.62892" r="10.5" gradientUnits="userSpaceOnUse" id="color-40"><stop offset="0" stop-color="#565656"/><stop offset="1" stop-color="#ffffff"/></radialGradient><radialGradient cx="435.50001" cy="172.62892" r="3.5" gradientUnits="userSpaceOnUse" id="color-41"><stop offset="0" stop-color="#565656"/><stop offset="1" stop-color="#ffffff"/></radialGradient><radialGradient cx="472.00001" cy="207.62892" r="11" gradientUnits="userSpaceOnUse" id="color-42"><stop offset="0" stop-color="#565656"/><stop offset="1" stop-color="#ffffff"/></radialGradient><radialGradient cx="461.00001" cy="246.6289" r="4" gradientUnits="userSpaceOnUse" id="color-43"><stop offset="0" stop-color="#565656"/><stop offset="1" stop-color="#ffffff"/></radialGradient><radialGradient cx="491.50001" cy="119.62893" r="1.5" gradientUnits="userSpaceOnUse" id="color-44"><stop offset="0" stop-color="#565656"/><stop offset="1" stop-color="#ffffff"/></radialGradient><radialGradient cx="457.58411" cy="69.63966" r="11.5" gradientUnits="userSpaceOnUse" id="color-45"><stop offset="0" stop-color="#565656"/><stop offset="1" stop-color="#ffffff"/></radialGradient><radialGradient cx="423.04958" cy="84.65467" r="6" gradientUnits="userSpaceOnUse" id="color-46"><stop offset="0" stop-color="#565656"/><stop offset="1" stop-color="#ffffff"/></radialGradient><radialGradient cx="345.50001" cy="18.62893" r="9.5" gradientUnits="userSpaceOnUse" id="color-47"><stop offset="0" stop-color="#565656"/><stop offset="1" stop-color="#ffffff"/></radialGradient><radialGradient cx="271.50003" cy="20.12893" r="4.5" gradientUnits="userSpaceOnUse" id="color-48"><stop offset="0" stop-color="#565656"/><stop offset="1" stop-color="#ffffff"/></radialGradient><radialGradient cx="466.00001" cy="20.62893" r="6.5" gradientUnits="userSpaceOnUse" id="color-49"><stop offset="0" stop-color="#565656"/><stop offset="1" stop-color="#ffffff"/></radialGradient><radialGradient cx="514.64117" cy="90.66068" r="17" gradientUnits="userSpaceOnUse" id="color-50"><stop offset="0" stop-color="#565656"/><stop offset="1" stop-color="#ffffff"/></radialGradient><radialGradient cx="477.10362" cy="129.69972" r="6.5" gradientUnits="userSpaceOnUse" id="color-51"><stop offset="0" stop-color="#565656"/><stop offset="1" stop-color="#ffffff"/></radialGradient><radialGradient cx="529.65617" cy="152.22224" r="10.5" gradientUnits="userSpaceOnUse" id="color-52"><stop offset="0" stop-color="#565656"/><stop offset="1" stop-color="#ffffff"/></radialGradient><radialGradient cx="495.50001" cy="163.62892" r="6.5" gradientUnits="userSpaceOnUse" id="color-53"><stop offset="0" stop-color="#565656"/><stop offset="1" stop-color="#ffffff"/></radialGradient><radialGradient cx="563.50003" cy="104.62893" r="6.5" gradientUnits="userSpaceOnUse" id="color-54"><stop offset="0" stop-color="#565656"/><stop offset="1" stop-color="#ffffff"/></radialGradient><radialGradient cx="562.50003" cy="25.12893" r="5" gradientUnits="userSpaceOnUse" id="color-55"><stop offset="0" stop-color="#565656"/><stop offset="1" stop-color="#ffffff"/></radialGradient><radialGradient cx="167.00001" cy="262.12892" r="8" gradientUnits="userSpaceOnUse" id="color-56"><stop offset="0" stop-color="#565656"/><stop offset="1" stop-color="#ffffff"/></radialGradient><radialGradient cx="434.00001" cy="318.12892" r="6" gradientUnits="userSpaceOnUse" id="color-57"><stop offset="0" stop-color="#565656"/><stop offset="1" stop-color="#ffffff"/></radialGradient><radialGradient cx="487.00001" cy="322.62892" r="8" gradientUnits="userSpaceOnUse" id="color-58"><stop offset="0" stop-color="#565656"/><stop offset="1" stop-color="#ffffff"/></radialGradient><radialGradient cx="529.00001" cy="263.62892" r="3" gradientUnits="userSpaceOnUse" id="color-59"><stop offset="0" stop-color="#565656"/><stop offset="1" stop-color="#ffffff"/></radialGradient><radialGradient cx="514.50001" cy="250.6289" r="3.5" gradientUnits="userSpaceOnUse" id="color-60"><stop offset="0" stop-color="#565656"/><stop offset="1" stop-color="#ffffff"/></radialGradient><radialGradient cx="569.00001" cy="246.6289" r="5" gradientUnits="userSpaceOnUse" id="color-61"><stop offset="0" stop-color="#565656"/><stop offset="1" stop-color="#ffffff"/></radialGradient><radialGradient cx="558.50003" cy="190.62892" r="7.5" gradientUnits="userSpaceOnUse" id="color-62"><stop offset="0" stop-color="#565656"/><stop offset="1" stop-color="#ffffff"/></radialGradient><radialGradient cx="126.61428" cy="179.10339" r="8.25826" gradientUnits="userSpaceOnUse" id="color-63"><stop offset="0" stop-color="#565656"/><stop offset="1" stop-color="#ffffff"/></radialGradient><radialGradient cx="123.61128" cy="79.25355" r="7.50751" gradientUnits="userSpaceOnUse" id="color-64"><stop offset="0" stop-color="#565656"/><stop offset="1" stop-color="#ffffff"/></radialGradient><radialGradient cx="107.09477" cy="27.45174" r="12.76276" gradientUnits="userSpaceOnUse" id="color-65"><stop offset="0" stop-color="#565656"/><stop offset="1" stop-color="#ffffff"/></radialGradient><radialGradient cx="68.05573" cy="173.84814" r="7.30176" gradientUnits="userSpaceOnUse" id="color-66"><stop offset="0" stop-color="#565656"/><stop offset="1" stop-color="#ffffff"/></radialGradient><radialGradient cx="88.32601" cy="214.38869" r="15.01501" gradientUnits="userSpaceOnUse" id="color-67"><stop offset="0" stop-color="#565656"/><stop offset="1" stop-color="#ffffff"/></radialGradient><radialGradient cx="101.72824" cy="305.37539" r="27.02703" gradientUnits="userSpaceOnUse" id="color-68"><stop offset="0" stop-color="#565656"/><stop offset="1" stop-color="#ffffff"/></radialGradient></defs><g transform="translate(5.25,0.25)"><g data-paper-data="{&quot;isPaintingLayer&quot;:true}" fill-rule="nonzero" stroke-linecap="butt" stroke-linejoin="miter" stroke-miterlimit="10" stroke-dasharray="" stroke-dashoffset="0" style="mix-blend-mode: normal"><path d="M-5,360v-360h757v360z" fill="url(#color-1)" stroke="#6c6c6c" stroke-width="0.5"/><path d="M70.27344,148.62892v-45h48v45z" fill="url(#color-2)" stroke="#6c6c6c" stroke-width="0.5"/><path d="M165.27345,212.62892v-47h46v47z" fill="url(#color-3)" stroke="#6c6c6c" stroke-width="0.5"/><path d="M230.27347,84.62893v-46h46v46z" fill="url(#color-4)" stroke="#6c6c6c" stroke-width="0.5"/><path d="M490.27346,65.62892v-45h45v45z" fill="url(#color-5)" stroke="#6c6c6c" stroke-width="0.5"/><path d="M581.27347,175.62892v-52h52v52z" fill="url(#color-6)" stroke="#6c6c6c" stroke-width="0.5"/><path d="M408.27346,158.62892v-47h47v47z" fill="url(#color-7)" stroke="#6c6c6c" stroke-width="0.5"/><path d="M308.27345,266.62892v-55h55v55z" fill="url(#color-8)" stroke="#6c6c6c" stroke-width="0.5"/><path d="M454.27346,296.62892v-38h38v38z" fill="url(#color-9)" stroke="#6c6c6c" stroke-width="0.5"/><path d="M539.27346,330.62892v-42h42v42z" fill="url(#color-10)" stroke="#6c6c6c" stroke-width="0.5"/><path d="M360.27345,348.62893v-35h35v35z" fill="url(#color-11)" stroke="#6c6c6c" stroke-width="0.5"/><path d="M175.27346,357.62893v-54h54v54z" fill="url(#color-12)" stroke="#6c6c6c" stroke-width="0.5"/><path d="M305.27345,160.62892v-25h25v25z" fill="url(#color-13)" stroke="#6c6c6c" stroke-width="0.5"/><path d="M385.27345,50.62893v-25h25v25z" fill="url(#color-14)" stroke="#6c6c6c" stroke-width="0.5"/><path d="M513.27346,233.62892v-41h27v41z" fill="url(#color-15)" stroke="#6c6c6c" stroke-width="0.5"/><path d="M584.27347,58.62893v-35h35v35z" fill="url(#color-16)" stroke="#6c6c6c" stroke-width="0.5"/><path d="M158.27345,17.62893v-15h15v15z" fill="url(#color-17)" stroke="#6c6c6c" stroke-width="0.5"/><path d="M168.27346,121.62893v-36h36v36z" fill="url(#color-18)" stroke="#6c6c6c" stroke-width="0.5"/><path d="M255.27347,255.6289v-19h19v19z" fill="url(#color-19)" stroke="#6c6c6c" stroke-width="0.5"/><path d="M353.27345,98.62893v-26h26v26z" fill="url(#color-20)" stroke="#6c6c6c" stroke-width="0.5"/><path d="M424.27346,227.62892v-19h19v19z" fill="url(#color-21)" stroke="#6c6c6c" stroke-width="0.5"/><path d="M600.27347,276.62892v-46h46v46z" fill="url(#color-22)" stroke="#6c6c6c" stroke-width="0.5"/><path d="M206.00001,259.12892v-20h19v20z" fill="url(#color-23)" stroke="none" stroke-width="0"/><path d="M240.00003,284.12892v-11h11v11z" fill="url(#color-24)" stroke="none" stroke-width="0"/><path d="M240.00003,184.12892v-17h13v17z" fill="url(#color-25)" stroke="none" stroke-width="0"/><path d="M253.00003,125.12893v-5h2v5z" fill="url(#color-26)" stroke="none" stroke-width="0"/><path d="M261.00003,124.12893v-10h6v10z" fill="url(#color-27)" stroke="none" stroke-width="0"/><path d="M299.00003,73.12892v-1h1v1z" fill="url(#color-28)" stroke="none" stroke-width="0"/><path d="M306.00003,65.12892v-17h11v17z" fill="url(#color-29)" stroke="none" stroke-width="0"/><path d="M216.00001,107.12893v-11h13v11z" fill="url(#color-30)" stroke="none" stroke-width="0"/><path d="M187.00001,42.12893v-12h9v12z" fill="url(#color-31)" stroke="none" stroke-width="0"/><path d="M351.00001,143.12892v-10h10v10z" fill="url(#color-32)" stroke="none" stroke-width="0"/><path d="M325.00001,187.12892v-9h7v9z" fill="url(#color-33)" stroke="none" stroke-width="0"/><path d="M295.00003,193.12892v-1h5v1z" fill="url(#color-34)" stroke="none" stroke-width="0"/><path d="M299.00003,302.12892v-23h15v23z" fill="url(#color-35)" stroke="none" stroke-width="0"/><path d="M257.00003,340.12893v-18h16v18z" fill="url(#color-36)" stroke="none" stroke-width="0"/><path d="M343.00001,327.12892v-13h3v13z" fill="url(#color-37)" stroke="none" stroke-width="0"/><path d="M398.00001,277.12892v-13h11v13z" fill="url(#color-38)" stroke="none" stroke-width="0"/><path d="M386.00001,171.12892v-7h7v7z" fill="url(#color-39)" stroke="none" stroke-width="0"/><path d="M390.00001,223.12892v-21h15v21z" fill="url(#color-40)" stroke="none" stroke-width="0"/><path d="M432.00001,176.12892v-7h7v7z" fill="url(#color-41)" stroke="none" stroke-width="0"/><path d="M461.00001,218.12892v-21h22v21z" fill="url(#color-42)" stroke="none" stroke-width="0"/><path d="M457.00001,248.1289v-3h8v3z" fill="url(#color-43)" stroke="none" stroke-width="0"/><path d="M491.00001,121.12893v-3h1v3z" fill="url(#color-44)" stroke="none" stroke-width="0"/><path d="M443.00001,76.12892v-15h23v15z" fill="url(#color-45)" stroke="none" stroke-width="0"/><path d="M413.00001,88.12893v-8h12v8z" fill="url(#color-46)" stroke="none" stroke-width="0"/><path d="M336.00001,28.12893v-19h19v19z" fill="url(#color-47)" stroke="none" stroke-width="0"/><path d="M267.00003,23.12893v-6h9v6z" fill="url(#color-48)" stroke="none" stroke-width="0"/><path d="M460.00001,27.12893v-13h12v13z" fill="url(#color-49)" stroke="none" stroke-width="0"/><path d="M501.00001,103.12893v-21h34v21z" fill="url(#color-50)" stroke="none" stroke-width="0"/><path d="M470.00001,135.12892v-12h13v12z" fill="url(#color-51)" stroke="none" stroke-width="0"/><path d="M518.00001,163.12892v-19h21v19z" fill="url(#color-52)" stroke="none" stroke-width="0"/><path d="M492.00001,170.12892v-13h7v13z" fill="url(#color-53)" stroke="none" stroke-width="0"/><path d="M560.00003,111.12893v-13h7v13z" fill="url(#color-54)" stroke="none" stroke-width="0"/><path d="M559.00003,30.12893v-10h7v10z" fill="url(#color-55)" stroke="none" stroke-width="0"/><path d="M159.00001,270.12892v-16h16v16z" fill="url(#color-56)" stroke="none" stroke-width="0"/><path d="M428.00001,324.12892v-12h12v12z" fill="url(#color-57)" stroke="none" stroke-width="0"/><path d="M479.00001,327.12892v-9h16v9z" fill="url(#color-58)" stroke="none" stroke-width="0"/><path d="M526.00001,266.12892v-5h6v5z" fill="url(#color-59)" stroke="none" stroke-width="0"/><path d="M511.00001,252.1289v-3h7v3z" fill="url(#color-60)" stroke="none" stroke-width="0"/><path d="M564.00003,250.1289v-7h10v7z" fill="url(#color-61)" stroke="none" stroke-width="0"/><path d="M551.00003,197.12892v-13h15v13z" fill="url(#color-62)" stroke="none" stroke-width="0"/><path d="M118.35604,185.86016v-13.51351h16.51652v13.51351z" fill="url(#color-63)" stroke="none" stroke-width="0"/><path d="M116.85453,86.76106v-15.01502h13.51351v15.01502z" fill="url(#color-64)" stroke="none" stroke-width="0"/><path d="M95.83351,40.21451v-25.52553h22.52252v25.52553z" fill="url(#color-65)" stroke="none" stroke-width="0"/><path d="M64.02717,180.04834l-3.2732,-5.0357l11.33032,-7.36471l3.2732,5.0357z" fill="url(#color-66)" stroke="none" stroke-width="0"/><path d="M73.31098,224.8992v-21.02102h30.03003v21.02102z" fill="url(#color-67)" stroke="none" stroke-width="0"/><path d="M82.31999,333.0073v-54.05405h43.54354v54.05405z" fill="url(#color-68)" stroke="none" stroke-width="0"/></g></g></svg>