<svg version="1.1" xmlns="http://www.w3.org/2000/svg" xmlns:xlink="http://www.w3.org/1999/xlink" width="946.44444" height="572.57057" viewBox="0,0,946.44444,572.57057"><defs><linearGradient x1="-55.71553" y1="191.45484" x2="80.92109" y2="191.45484" gradientUnits="userSpaceOnUse" id="color-1"><stop offset="0" stop-color="#4e0000"/><stop offset="1" stop-color="#000000"/></linearGradient><linearGradient x1="546.89409" y1="194.45785" x2="689.53673" y2="194.45785" gradientUnits="userSpaceOnUse" id="color-2"><stop offset="0" stop-color="#4e0000"/><stop offset="1" stop-color="#000000"/></linearGradient><linearGradient x1="-155.31913" y1="385.41279" x2="789.12532" y2="385.41279" gradientUnits="userSpaceOnUse" id="color-3"><stop offset="0" stop-color="#4e0000"/><stop offset="1" stop-color="#000000"/></linearGradient><linearGradient x1="-102.76658" y1="-40.98829" x2="763.59979" y2="-40.98829" gradientUnits="userSpaceOnUse" id="color-4"><stop offset="0" stop-color="#4e0000"/><stop offset="1" stop-color="#000000"/></linearGradient><linearGradient x1="46.38657" y1="178.69209" x2="89.93012" y2="178.69209" gradientUnits="userSpaceOnUse" id="color-5"><stop offset="0" stop-color="#4e0000"/><stop offset="1" stop-color="#000000"/></linearGradient><linearGradient x1="586.93012" y1="178.69209" x2="543.38654" y2="178.69209" gradientUnits="userSpaceOnUse" id="color-6"><stop offset="0" stop-color="#4e0000"/><stop offset="1" stop-color="#000000"/></linearGradient><linearGradient x1="95.22071" y1="0.48538" x2="105.17688" y2="10.44155" gradientUnits="userSpaceOnUse" id="color-7"><stop offset="0" stop-color="#000000"/><stop offset="1" stop-color="#ff0000"/></linearGradient><linearGradient x1="113.25" y1="0.48538" x2="123.20617" y2="10.44155" gradientUnits="userSpaceOnUse" id="color-8"><stop offset="0" stop-color="#000000"/><stop offset="1" stop-color="#ff0000"/></linearGradient><linearGradient x1="221.67595" y1="0.48538" x2="231.63212" y2="10.44155" gradientUnits="userSpaceOnUse" id="color-9"><stop offset="0" stop-color="#000000"/><stop offset="1" stop-color="#ff0000"/></linearGradient><linearGradient x1="90.33656" y1="52.36215" x2="100.29272" y2="42.40598" gradientUnits="userSpaceOnUse" id="color-10"><stop offset="0" stop-color="#000000"/><stop offset="1" stop-color="#ff0000"/></linearGradient><linearGradient x1="90.33656" y1="29.09807" x2="100.29272" y2="19.14191" gradientUnits="userSpaceOnUse" id="color-11"><stop offset="0" stop-color="#000000"/><stop offset="1" stop-color="#ff0000"/></linearGradient><linearGradient x1="238.93851" y1="0.48538" x2="248.89468" y2="10.44155" gradientUnits="userSpaceOnUse" id="color-12"><stop offset="0" stop-color="#000000"/><stop offset="1" stop-color="#ff0000"/></linearGradient><linearGradient x1="257.72071" y1="0.48538" x2="267.67688" y2="10.44155" gradientUnits="userSpaceOnUse" id="color-13"><stop offset="0" stop-color="#000000"/><stop offset="1" stop-color="#ff0000"/></linearGradient><linearGradient x1="275.75" y1="0.48538" x2="285.70617" y2="10.44155" gradientUnits="userSpaceOnUse" id="color-14"><stop offset="0" stop-color="#000000"/><stop offset="1" stop-color="#ff0000"/></linearGradient><linearGradient x1="294.41189" y1="0.48538" x2="304.36805" y2="10.44155" gradientUnits="userSpaceOnUse" id="color-15"><stop offset="0" stop-color="#000000"/><stop offset="1" stop-color="#ff0000"/></linearGradient><linearGradient x1="311.17595" y1="0.48538" x2="321.13212" y2="10.44155" gradientUnits="userSpaceOnUse" id="color-16"><stop offset="0" stop-color="#000000"/><stop offset="1" stop-color="#ff0000"/></linearGradient><linearGradient x1="436.93851" y1="0.48538" x2="446.89468" y2="10.44155" gradientUnits="userSpaceOnUse" id="color-17"><stop offset="0" stop-color="#000000"/><stop offset="1" stop-color="#ff0000"/></linearGradient><linearGradient x1="309.25221" y1="22.81097" x2="299.29604" y2="32.76713" gradientUnits="userSpaceOnUse" id="color-18"><stop offset="0" stop-color="#000000"/><stop offset="1" stop-color="#ff0000"/></linearGradient><linearGradient x1="309.25221" y1="41.47286" x2="299.29604" y2="51.42901" gradientUnits="userSpaceOnUse" id="color-19"><stop offset="0" stop-color="#000000"/><stop offset="1" stop-color="#ff0000"/></linearGradient><linearGradient x1="456.43851" y1="0.48538" x2="466.39468" y2="10.44155" gradientUnits="userSpaceOnUse" id="color-20"><stop offset="0" stop-color="#000000"/><stop offset="1" stop-color="#ff0000"/></linearGradient><linearGradient x1="162.52771" y1="115.42903" x2="172.48388" y2="105.47285" gradientUnits="userSpaceOnUse" id="color-21"><stop offset="0" stop-color="#000000"/><stop offset="1" stop-color="#ff0000"/></linearGradient><linearGradient x1="162.52771" y1="96.76713" x2="172.48388" y2="86.81097" gradientUnits="userSpaceOnUse" id="color-22"><stop offset="0" stop-color="#000000"/><stop offset="1" stop-color="#ff0000"/></linearGradient><linearGradient x1="304.29179" y1="135.25997" x2="314.24796" y2="125.3038" gradientUnits="userSpaceOnUse" id="color-23"><stop offset="0" stop-color="#000000"/><stop offset="1" stop-color="#ff0000"/></linearGradient><linearGradient x1="304.29179" y1="116.59809" x2="314.24796" y2="106.64191" gradientUnits="userSpaceOnUse" id="color-24"><stop offset="0" stop-color="#000000"/><stop offset="1" stop-color="#ff0000"/></linearGradient><linearGradient x1="352.79179" y1="135.92903" x2="362.74796" y2="125.97285" gradientUnits="userSpaceOnUse" id="color-25"><stop offset="0" stop-color="#000000"/><stop offset="1" stop-color="#ff0000"/></linearGradient><linearGradient x1="352.79179" y1="117.26714" x2="362.74796" y2="107.31097" gradientUnits="userSpaceOnUse" id="color-26"><stop offset="0" stop-color="#000000"/><stop offset="1" stop-color="#ff0000"/></linearGradient><linearGradient x1="345.77884" y1="184.35289" x2="335.82267" y2="194.30905" gradientUnits="userSpaceOnUse" id="color-27"><stop offset="0" stop-color="#000000"/><stop offset="1" stop-color="#ff0000"/></linearGradient></defs><g transform="translate(156.31913,94.83044)"><g data-paper-data="{&quot;isPaintingLayer&quot;:true}" fill-rule="nonzero" stroke="#ff0000" stroke-width="2" stroke-linejoin="miter" stroke-miterlimit="10" stroke-dasharray="" stroke-dashoffset="0" style="mix-blend-mode: normal"><path d="M-55.71553,476.74013v-570.57057h136.63664v570.57057z" fill="url(#color-1)" stroke-linecap="butt"/><path d="M546.89409,461.72512v-534.53453h142.64264v534.53453z" fill="url(#color-2)" stroke-linecap="butt"/><path d="M-155.31913,434.21161v-97.5976h944.44444v97.5976z" fill="url(#color-3)" stroke-linecap="butt"/><path d="M-102.76658,3.77616v-89.5289h866.36636v89.5289z" fill="url(#color-4)" stroke-linecap="butt"/><path d="M46.38657,388.15155v-418.91892h43.54354v418.91892z" fill="url(#color-5)" stroke-linecap="butt"/><path d="M543.38654,388.15155v-418.91892h43.54354v418.91892z" data-paper-data="{&quot;index&quot;:null}" fill="url(#color-6)" stroke-linecap="butt"/><path d="M110.06104,5.55738l-9.76832,9.76832l-9.95616,-9.95616" fill="url(#color-7)" stroke-linecap="round"/><path d="M128.09032,5.55738l-9.76831,9.76832l-9.95617,-9.95616" fill="url(#color-8)" stroke-linecap="round"/><path d="M236.51628,5.55738l-9.76832,9.76832l-9.95616,-9.95616" fill="url(#color-9)" stroke-linecap="round"/><path d="M95.40856,37.52182l9.76831,9.76832l-9.95616,9.95617" fill="url(#color-10)" stroke-linecap="round"/><path d="M95.40856,14.25776l9.76831,9.76832l-9.95616,9.95616" fill="url(#color-11)" stroke-linecap="round"/><path d="M253.77884,5.55738l-9.76832,9.76832l-9.95616,-9.95616" fill="url(#color-12)" stroke-linecap="round"/><path d="M272.56104,5.55738l-9.76832,9.76832l-9.95616,-9.95616" fill="url(#color-13)" stroke-linecap="round"/><path d="M290.59031,5.55738l-9.76831,9.76832l-9.95617,-9.95616" fill="url(#color-14)" stroke-linecap="round"/><path d="M309.25221,5.55738l-9.76832,9.76832l-9.95617,-9.95616" fill="url(#color-15)" stroke-linecap="round"/><path d="M326.01628,5.55738l-9.76832,9.76832l-9.95616,-9.95616" fill="url(#color-16)" stroke-linecap="round"/><path d="M451.77884,5.55738l-9.76832,9.76832l-9.95616,-9.95616" fill="url(#color-17)" stroke-linecap="round"/><path d="M304.1802,37.65129l-9.76832,-9.76831l9.95616,-9.95617" fill="url(#color-18)" stroke-linecap="round"/><path d="M304.1802,56.31318l-9.76832,-9.76832l9.95616,-9.95617" fill="url(#color-19)" stroke-linecap="round"/><path d="M471.27884,5.55738l-9.76832,9.76832l-9.95616,-9.95616" fill="url(#color-20)" stroke-linecap="round"/><path d="M167.59972,100.5887l9.76832,9.76831l-9.95616,9.95617" fill="url(#color-21)" stroke-linecap="round"/><path d="M167.59972,81.92681l9.76832,9.76832l-9.95616,9.95617" fill="url(#color-22)" stroke-linecap="round"/><path d="M309.3638,120.41965l9.76832,9.76831l-9.95616,9.95617" fill="url(#color-23)" stroke-linecap="round"/><path d="M309.3638,101.75776l9.76832,9.76832l-9.95616,9.95617" fill="url(#color-24)" stroke-linecap="round"/><path d="M357.8638,121.08871l9.76832,9.76831l-9.95616,9.95617" fill="url(#color-25)" stroke-linecap="round"/><path d="M357.8638,102.42682l9.76832,9.76832l-9.95616,9.95617" fill="url(#color-26)" stroke-linecap="round"/><path d="M340.70683,199.1932l-9.76832,-9.76832l9.95616,-9.95617" fill="url(#color-27)" stroke-linecap="round"/></g></g></svg>