<svg version="1.1" xmlns="http://www.w3.org/2000/svg" xmlns:xlink="http://www.w3.org/1999/xlink" width="136.3962" height="39.5" viewBox="0,0,136.3962,39.5"><defs><linearGradient x1="336.45937" y1="161.25" x2="336.45937" y2="198.75" gradientUnits="userSpaceOnUse" id="color-1"><stop offset="0" stop-color="#000000"/><stop offset="1" stop-color="#5d5d5d"/></linearGradient><linearGradient x1="285.04544" y1="169.95007" x2="285.04544" y2="182.5028" gradientUnits="userSpaceOnUse" id="color-2"><stop offset="0" stop-color="#ffffff"/><stop offset="1" stop-color="#04ff00"/></linearGradient><linearGradient x1="285.23404" y1="178.9821" x2="285.23404" y2="183.63445" gradientUnits="userSpaceOnUse" id="color-3"><stop offset="0" stop-color="#ffffff"/><stop offset="1" stop-color="#04ff00"/></linearGradient></defs><g transform="translate(-267.70937,-160.25)"><g data-paper-data="{&quot;isPaintingLayer&quot;:true}" fill-rule="nonzero" stroke-linecap="butt" stroke-linejoin="miter" stroke-miterlimit="10" stroke-dasharray="" stroke-dashoffset="0" style="mix-blend-mode: normal"><path d="M273.84809,192.03014c0,0 -5.13872,-6.41356 -5.13872,-12.78411c0,-6.11934 6.32458,-12.46203 6.32458,-12.46203c0,0 4.73744,-5.534 14.45469,-5.534c16.32487,0 67.95207,0 96.05445,0c11.20216,0 13.52756,5.13871 13.52756,5.13871c0,0 4.03492,7.13697 4.03492,12.86772c0,6.63601 -2.45377,13.56428 -2.45377,13.56428c0,0 -3.55675,5.92928 -14.31814,5.92928c-27.91377,0 -80.36584,0 -96.84502,0c-9.71726,0 -15.64055,-6.71986 -15.64055,-6.71986z" fill="url(#color-1)" stroke="#000000" stroke-width="2"/><path d="M282.84501,182.5028v-12.55273h4.40086c0,0 0,9.44461 0,11.31801c0,0.61877 0,1.23472 0,1.23472z" fill="url(#color-2)" stroke="#000000" stroke-width="2"/><path d="M277.94119,179.20215v-0.22004h14.58571v0.12574l-7.4186,10.56207z" fill="url(#color-3)" stroke="#000000" stroke-width="2"/><text transform="translate(294.69621,184.92996) scale(0.41083,0.41083)" font-size="40" xml:space="preserve" fill="#ffffff" fill-rule="nonzero" stroke="none" stroke-width="1" stroke-linecap="butt" stroke-linejoin="miter" stroke-miterlimit="10" stroke-dasharray="" stroke-dashoffset="0" font-family="&quot;OpenSans-Bold&quot;, Sans Serif" font-weight="normal" text-anchor="start" style="mix-blend-mode: normal"><tspan x="0" dy="0">Autosaving..</tspan></text></g></g></svg>