<svg version="1.1" xmlns="http://www.w3.org/2000/svg" xmlns:xlink="http://www.w3.org/1999/xlink" width="45.23178" height="45.23178" viewBox="0,0,45.23178,45.23178"><g transform="translate(-185.23015,-131.51645)"><g data-paper-data="{&quot;isPaintingLayer&quot;:true}" fill-rule="nonzero" stroke-linejoin="miter" stroke-miterlimit="10" stroke-dasharray="" stroke-dashoffset="0" style="mix-blend-mode: normal"><path d="M188.23015,154.13234c0,-10.83356 8.78234,-19.61589 19.61589,-19.61589c10.83356,0 19.61589,8.78234 19.61589,19.61589c0,10.83356 -8.78234,19.61589 -19.61589,19.61589c-10.83356,0 -19.61589,-8.78234 -19.61589,-19.61589z" fill="#000000" stroke="#ffffff" stroke-width="6" stroke-linecap="butt"/><path d="M200.89295,164.0292l-14.38866,-10.05905l13.92356,-9.91423" fill="#ffffff" stroke="#ffffff" stroke-width="0.5" stroke-linecap="round"/><path d="M214.90531,143.59499l13.92356,9.91422l-14.38865,10.05906" data-paper-data="{&quot;index&quot;:null}" fill="#ffffff" stroke="#ffffff" stroke-width="0.5" stroke-linecap="round"/><path d="M198.01212,147.60335l9.60914,-14.13585l10.36954,14.16654" data-paper-data="{&quot;index&quot;:null}" fill="#ffffff" stroke="#ffffff" stroke-width="0.5" stroke-linecap="round"/><path d="M217.51661,160.07831l-9.90126,14.49769l-10.06574,-13.81443" data-paper-data="{&quot;index&quot;:null}" fill="#ffffff" stroke="#ffffff" stroke-width="0.5" stroke-linecap="round"/><path d="M197.98805,152.16647l9.60914,-14.13585l10.36954,14.16653" data-paper-data="{&quot;index&quot;:null}" fill="#000000" stroke="#ffffff" stroke-width="0.5" stroke-linecap="round"/><path d="M218.1611,156.13687l-10.36954,14.16654l-9.60914,-14.13585" data-paper-data="{&quot;index&quot;:null}" fill="#000000" stroke="#ffffff" stroke-width="0.5" stroke-linecap="round"/><path d="M208.98344,143.57093l13.92356,9.91422l-14.38865,10.05906" data-paper-data="{&quot;index&quot;:null}" fill="#000000" stroke="none" stroke-width="0" stroke-linecap="round"/><path d="M205.18951,164.17546l-14.38865,-10.05906l13.92356,-9.91422" data-paper-data="{&quot;index&quot;:null}" fill="#000000" stroke="none" stroke-width="0" stroke-linecap="round"/><path d="M192.12491,159.53958c-0.10433,-0.02087 -0.20378,-0.04609 -0.29851,-0.0755c1.38757,-4.97731 2.91679,-9.66611 4.7683,-14.34949c1.477,-0.52942 2.86374,-0.93659 4.44426,-1.07225c0.25329,0.40243 0.77202,0.29868 0.77202,0.29868c2.42451,-0.49575 5.00283,0.36741 7.44261,0.34917c0.06345,0.02815 0.12682,0.05663 0.19013,0.08544c0.04014,0.00036 0.08018,0.00072 0.12013,0.00106c0.0434,-0.04582 0.07766,-0.07896 0.09824,-0.09824c0.41181,-0.02107 0.81916,-0.07121 1.22059,-0.16143c0.29183,-0.06558 0.56757,-0.18731 0.83391,-0.33897c0.15016,0.07168 0.2854,0.08397 0.2854,0.08397c2.0683,0.18795 4.13134,0.25379 6.20441,0.27011c0.58616,0.31404 1.16286,0.64067 1.73504,0.97685c0.01403,0.05861 0.02835,0.0944 0.02835,0.0944c1.17121,2.92256 2.09691,6.18626 3.27254,9.19287c-0.00066,0.00463 -0.00134,0.00927 -0.00204,0.01392c0.60836,3.95501 0.18034,9.75006 -5.59928,8.89208c-0.75053,-0.11142 -2.05299,-4.17194 -3.06926,-5.20414c-1.53208,-1.55609 -6.81317,-0.65898 -8.84538,-0.59119c-0.66924,-0.1091 -1.33672,-0.22702 -1.99955,-0.37459c0,0 -0.40189,-0.08931 -0.67633,0.16217c-0.49407,-0.10572 -0.77096,0.37884 -0.77096,0.37884c-0.48873,0.85528 -0.92396,1.7351 -1.34358,2.62142c-0.70179,0.86873 -1.33883,1.78932 -1.94725,2.73921c-0.49907,0.11899 -0.99709,0.24325 -1.49754,0.36928c-1.08171,-0.54611 -2.08483,-1.18218 -2.91585,-1.84758c-0.63768,-0.45162 -1.24678,-0.94014 -1.84566,-1.44119c-0.18828,-0.3082 -0.33837,-0.62401 -0.4514,-0.94879c-0.05049,-0.00707 -0.10159,-0.01576 -0.15333,-0.0261zM198.49685,150.14674c0.41421,0 0.75,-0.33579 0.75,-0.75c0,-0.41421 -0.33579,-0.75 -0.75,-0.75c-0.41421,0 -0.75,0.33579 -0.75,0.75c0,0.41421 0.33579,0.75 0.75,0.75zM214.78449,151.50404c0.41421,0 0.75,-0.33579 0.75,-0.75c0,-0.41421 -0.33579,-0.75 -0.75,-0.75c-0.41421,0 -0.75,0.33579 -0.75,0.75c0,0.41421 0.33579,0.75 0.75,0.75zM199.58269,152.04697c0.41421,0 0.75,-0.33579 0.75,-0.75c0,-0.41421 -0.33579,-0.75 -0.75,-0.75c-0.41421,0 -0.75,0.33579 -0.75,0.75c0,0.41421 0.33579,0.75 0.75,0.75zM217.95153,151.7755c0.41421,0 0.75,-0.33579 0.75,-0.75c0,-0.41421 -0.33579,-0.75 -0.75,-0.75c-0.41421,0 -0.75,0.33579 -0.75,0.75c0,0.41421 0.33579,0.75 0.75,0.75zM200.03513,148.15603c0.41421,0 0.75,-0.33579 0.75,-0.75c0,-0.41421 -0.33579,-0.75 -0.75,-0.75c-0.41421,0 -0.75,0.33579 -0.75,0.75c0,0.41421 0.33579,0.75 0.75,0.75zM216.1418,149.15138c0.41421,0 0.75,-0.33579 0.75,-0.75c0,-0.41421 -0.33579,-0.75 -0.75,-0.75c-0.41421,0 -0.75,0.33579 -0.75,0.75c0,0.41421 0.33579,0.75 0.75,0.75zM201.21146,150.14674c0.41421,0 0.75,-0.33579 0.75,-0.75c0,-0.41421 -0.33579,-0.75 -0.75,-0.75c-0.41421,0 -0.75,0.33579 -0.75,0.75c0,0.41421 0.33579,0.75 0.75,0.75z" fill="#ffffff" stroke="none" stroke-width="0.5" stroke-linecap="butt"/></g></g></svg>