<svg version="1.1" xmlns="http://www.w3.org/2000/svg" xmlns:xlink="http://www.w3.org/1999/xlink" width="489.10021" height="345.66767" viewBox="0,0,489.10021,345.66767"><g transform="translate(-129.43621,-12.41992)"><g data-paper-data="{&quot;isPaintingLayer&quot;:true}" fill-rule="nonzero" stroke="none" stroke-linecap="butt" stroke-linejoin="miter" stroke-miterlimit="10" stroke-dasharray="" stroke-dashoffset="0" style="mix-blend-mode: normal"><path d="M129.46358,329.55906v-299.11811h489.07284v299.11811z" fill="#000000" stroke-width="0"/><text transform="translate(146.24024,116.97273) scale(0.35093,0.35093)" font-size="40" xml:space="preserve" fill="#ffffff" fill-rule="nonzero" stroke="none" stroke-width="1" stroke-linecap="butt" stroke-linejoin="miter" stroke-miterlimit="10" stroke-dasharray="" stroke-dashoffset="0" font-family="&quot;OpenSans-Light&quot;, Sans Serif" font-weight="normal" text-anchor="start" style="mix-blend-mode: normal"><tspan x="0" dy="0">Current name</tspan></text><text transform="translate(146.33874,87.40153) scale(0.76454,0.76454)" font-size="40" xml:space="preserve" fill="#ffffff" fill-rule="nonzero" stroke="none" stroke-width="1" stroke-linecap="butt" stroke-linejoin="miter" stroke-miterlimit="10" stroke-dasharray="" stroke-dashoffset="0" font-family="&quot;OpenSans-Light&quot;, Sans Serif" font-weight="normal" text-anchor="start" style="mix-blend-mode: normal"><tspan x="0" dy="0">Change name</tspan></text><path d="M519.0727,48.46196c0,0 -6,-6.98178 -6,-13.76761c0,-7.20325 6,-15.27443 6,-15.27443c0,0 4.99742,-7 13.56081,-7c10.48439,0 34.36768,0 52,0c9.91354,0 13.06081,6.5 13.06081,6.5c0,0 6.5,6.48734 6.5,13.27444c0,7.20226 -4,14.76761 -4,14.76761c0,0 -4.11598,7.5 -15.06081,7.5c-17.73919,0 -42.90958,0 -53,0c-8.39144,0 -13.06081,-6 -13.06081,-6z" fill="#1b1b1b" stroke-width="0"/><path d="M508.93621,353.42045v-57.05706h108.32655v57.05706z" fill="#000000" stroke-width="0"/><path d="M129.43621,358.08759v-57.05706h108.32655v57.05706z" fill="#000000" stroke-width="0"/></g></g></svg>