<svg version="1.1" xmlns="http://www.w3.org/2000/svg" xmlns:xlink="http://www.w3.org/1999/xlink" width="363.7193" height="229.82685" viewBox="0,0,363.7193,229.82685"><g transform="translate(-274.5,-132.45776)"><g data-paper-data="{&quot;isPaintingLayer&quot;:true}" fill-rule="nonzero" stroke-linecap="butt" stroke-linejoin="miter" stroke-miterlimit="10" stroke-dasharray="" stroke-dashoffset="0" style="mix-blend-mode: normal"><text transform="translate(613.82733,356.10869) scale(0.5,0.5)" font-size="40" xml:space="preserve" fill-opacity="0.5098" fill="#000000" fill-rule="nonzero" stroke="none" stroke-width="1" stroke-linecap="butt" stroke-linejoin="miter" stroke-miterlimit="10" stroke-dasharray="" stroke-dashoffset="0" font-family="Sans Serif" font-weight="normal" text-anchor="start" style="mix-blend-mode: normal"><tspan x="0" dy="0">KS</tspan></text><path d="M277,180c0,-23.74825 19.25175,-43 43,-43c23.74825,0 43,19.25175 43,43c0,23.74825 -19.25175,43 -43,43c-23.74825,0 -43,-19.25175 -43,-43z" fill="#4a4a4a" stroke="#d4d4d4" stroke-width="5"/><text transform="translate(312.62992,170.16537) scale(0.87755,0.87755)" font-size="40" xml:space="preserve" fill="none" fill-rule="nonzero" stroke="none" stroke-width="1" stroke-linecap="butt" stroke-linejoin="miter" stroke-miterlimit="10" stroke-dasharray="" stroke-dashoffset="0" font-family="Sans Serif" font-weight="normal" text-anchor="start" style="mix-blend-mode: normal"><tspan x="0" dy="0">II</tspan></text><path d="M291.30154,163.78881c0,-4.40689 3.57249,-7.97938 7.9794,-7.97938c4.4069,0 7.97938,3.57249 7.97938,7.97938c0,4.4069 -3.57248,7.97938 -7.97938,7.97938c-4.4069,0 -7.9794,-3.57248 -7.9794,-7.97938z" fill="#d4d4d4" stroke="none" stroke-width="0"/><path d="M291.30154,181.20865c0,-4.40689 3.57249,-7.97938 7.9794,-7.97938c4.4069,0 7.97938,3.57249 7.97938,7.97938c0,4.4069 -3.57248,7.97938 -7.97938,7.97938c-4.4069,0 -7.9794,-3.57248 -7.9794,-7.97938z" fill="#d4d4d4" stroke="none" stroke-width="0"/><path d="M291.30154,198.29601c0,-4.4069 3.57249,-7.97938 7.9794,-7.97938c4.4069,0 7.97938,3.57249 7.97938,7.97938c0,4.40689 -3.57248,7.97938 -7.97938,7.97938c-4.4069,0 -7.9794,-3.57249 -7.9794,-7.97938z" fill="#d4d4d4" stroke="none" stroke-width="0"/><path d="M307.92525,169.44087v-11.30412h42.22423v11.30412z" fill="#d4d4d4" stroke="none" stroke-width="0"/><path d="M307.92525,187.39447v-11.30412h41.55927v11.30412z" fill="#d4d4d4" stroke="none" stroke-width="0"/><path d="M307.92525,204.81432v-11.30412h41.55929v11.30412z" fill="#d4d4d4" stroke="none" stroke-width="0"/></g></g></svg>