<svg version="1.1" xmlns="http://www.w3.org/2000/svg" xmlns:xlink="http://www.w3.org/1999/xlink" width="899.93513" height="630.35964" viewBox="0,0,899.93513,630.35964"><defs><linearGradient x1="320" y1="-70.75075" x2="320" y2="430.75075" gradientUnits="userSpaceOnUse" id="color-1"><stop offset="0" stop-color="#00844d"/><stop offset="1" stop-color="#000000"/></linearGradient><linearGradient x1="361.67029" y1="150.91668" x2="361.67029" y2="227.14047" gradientUnits="userSpaceOnUse" id="color-2"><stop offset="0" stop-color="#000000"/><stop offset="1" stop-color="#000000" stop-opacity="0"/></linearGradient><linearGradient x1="361.41778" y1="208.45713" x2="361.41778" y2="436.95713" gradientUnits="userSpaceOnUse" id="color-3"><stop offset="0" stop-color="#000000"/><stop offset="1" stop-color="#000000" stop-opacity="0"/></linearGradient><linearGradient x1="495.89562" y1="423.43582" x2="690.74851" y2="-155.77843" gradientUnits="userSpaceOnUse" id="color-4"><stop offset="0" stop-color="#ffffff" stop-opacity="0"/><stop offset="1" stop-color="#ffffff" stop-opacity="0.29412"/></linearGradient><linearGradient x1="377.13855" y1="384.18579" x2="692.01256" y2="-139.56143" gradientUnits="userSpaceOnUse" id="color-5"><stop offset="0" stop-color="#ffffff" stop-opacity="0"/><stop offset="1" stop-color="#ffffff" stop-opacity="0.29412"/></linearGradient><linearGradient x1="273.17091" y1="284.10892" x2="723.88327" y2="-128.58366" gradientUnits="userSpaceOnUse" id="color-6"><stop offset="0" stop-color="#ffffff" stop-opacity="0"/><stop offset="1" stop-color="#ffffff" stop-opacity="0.29412"/></linearGradient><linearGradient x1="183.35452" y1="151.3396" x2="744.39583" y2="-90.91944" gradientUnits="userSpaceOnUse" id="color-7"><stop offset="0" stop-color="#ffffff" stop-opacity="0"/><stop offset="1" stop-color="#ffffff" stop-opacity="0.29412"/></linearGradient><linearGradient x1="132.83018" y1="13.16709" x2="740.74712" y2="-49.23316" gradientUnits="userSpaceOnUse" id="color-8"><stop offset="0" stop-color="#ffffff" stop-opacity="0"/><stop offset="1" stop-color="#ffffff" stop-opacity="0.29412"/></linearGradient><linearGradient x1="418.72989" y1="135.02177" x2="-126.93579" y2="-140.12501" gradientUnits="userSpaceOnUse" id="color-9"><stop offset="0" stop-color="#ffffff" stop-opacity="0"/><stop offset="1" stop-color="#ffffff" stop-opacity="0.29412"/></linearGradient><linearGradient x1="363.01" y1="246.99989" x2="-110.70367" y2="-139.07284" gradientUnits="userSpaceOnUse" id="color-10"><stop offset="0" stop-color="#ffffff" stop-opacity="0"/><stop offset="1" stop-color="#ffffff" stop-opacity="0.29412"/></linearGradient><linearGradient x1="249.18059" y1="335.69891" x2="-95.3104" y2="-169.06119" gradientUnits="userSpaceOnUse" id="color-11"><stop offset="0" stop-color="#ffffff" stop-opacity="0"/><stop offset="1" stop-color="#ffffff" stop-opacity="0.29412"/></linearGradient><linearGradient x1="105.00017" y1="405.74663" x2="-55.11452" y2="-184.0161" gradientUnits="userSpaceOnUse" id="color-12"><stop offset="0" stop-color="#ffffff" stop-opacity="0"/><stop offset="1" stop-color="#ffffff" stop-opacity="0.29412"/></linearGradient><linearGradient x1="-38.94775" y1="436.13323" x2="-14.36912" y2="-174.48341" gradientUnits="userSpaceOnUse" id="color-13"><stop offset="0" stop-color="#ffffff" stop-opacity="0"/><stop offset="1" stop-color="#ffffff" stop-opacity="0.29412"/></linearGradient></defs><g transform="translate(142.14661,192.86764)"><g data-paper-data="{&quot;isPaintingLayer&quot;:true}" fill-rule="nonzero" stroke-linejoin="miter" stroke-miterlimit="10" stroke-dasharray="" stroke-dashoffset="0" style="mix-blend-mode: normal"><path d="M-22.34234,430.75075v-501.5015h684.68468v501.5015z" fill="url(#color-1)" stroke="none" stroke-width="NaN" stroke-linecap="butt"/><path d="M383.18506,219.14927l-13.52357,7.9912l-29.50598,-19.05595l3.68825,-38.1119l16.59712,-19.05594z" fill="url(#color-2)" stroke="#ffffff" stroke-width="1.5" stroke-linecap="round"/><path d="M384.44429,430.29081c-6.65047,1.81376 -34.27651,-117.33368 -34.27651,-117.33368l-10.5,-104.5l29.5,19.5l14,-7.5l5.5,82c0,0 1.91895,126.15847 -4.22349,127.83368z" fill="url(#color-3)" stroke="none" stroke-width="0" stroke-linecap="round"/><g fill-opacity="0.3098" fill="#ffffff" stroke="none" stroke-width="0" stroke-linecap="butt"><path d="M532.15527,182.98853c0,16.2924 -13.87918,29.5 -31,29.5c-17.12083,0 -31,-13.2076 -31,-29.5c0,-16.2924 13.87917,-29.5 31,-29.5c17.12082,0 31,13.2076 31,29.5z"/><path d="M549.15527,165.98853c0,9.1127 -10.29745,16.5 -23,16.5c-12.70255,0 -23,-7.3873 -23,-16.5c0,-9.1127 10.29745,-16.5 23,-16.5c12.70255,0 23,7.3873 23,16.5z"/><path d="M548.15527,208.98853c0,12.4264 -8.9543,22.5 -20,22.5c-11.0457,0 -20,-10.0736 -20,-22.5c0,-12.4264 8.9543,-22.5 20,-22.5c11.0457,0 20,10.0736 20,22.5z"/><path d="M491.15527,196.98853c0,8.56042 -8.50659,15.5 -19,15.5c-10.49341,0 -19,-6.93958 -19,-15.5c0,-8.56042 8.50659,-15.5 19,-15.5c10.49341,0 19,6.93958 19,15.5z"/><path d="M537.15527,192.48853c0,8.28427 -6.49187,15 -14.5,15c-8.00813,0 -14.5,-6.71573 -14.5,-15c0,-8.28427 6.49187,-15 14.5,-15c8.00813,0 14.5,6.71573 14.5,15z"/><path d="M568.15527,194.48853c0,10.49341 -9.17817,19 -20.5,19c-11.32183,0 -20.5,-8.50659 -20.5,-19c0,-10.49341 9.17817,-19 20.5,-19c11.32183,0 20.5,8.50659 20.5,19z"/><path d="M569.15527,176.48853c0,7.1797 -9.84974,13 -22,13c-12.15026,0 -22,-5.8203 -22,-13c0,-7.1797 9.84974,-13 22,-13c12.15026,0 22,5.8203 22,13z"/><path d="M495.15527,183.48853c0,7.73199 -8.50659,14 -19,14c-10.49341,0 -19,-6.26801 -19,-14c0,-7.73199 8.50659,-14 19,-14c10.49341,0 19,6.26801 19,14z"/><path d="M529.15527,180.48853c0,8.28427 -7.16345,15 -16,15c-8.83655,0 -16,-6.71573 -16,-15c0,-8.28427 7.16345,-15 16,-15c8.83655,0 16,6.71573 16,15z"/><path d="M464.15527,199.98853c0,4.83249 -6.04415,8.75 -13.5,8.75c-7.45585,0 -13.5,-3.91751 -13.5,-8.75c0,-4.83249 6.04415,-8.75 13.5,-8.75c7.45585,0 13.5,3.91751 13.5,8.75z"/><path d="M598.15527,188.98853c0,4.69442 -10.52131,8.5 -23.5,8.5c-12.97869,0 -23.5,-3.80558 -23.5,-8.5c0,-4.69442 10.52131,-8.5 23.5,-8.5c12.97869,0 23.5,3.80558 23.5,8.5z"/><path d="M520.15527,212.48853c0,6.62742 -9.62588,12 -21.5,12c-11.87412,0 -21.5,-5.37258 -21.5,-12c0,-6.62742 9.62588,-12 21.5,-12c11.87412,0 21.5,5.37258 21.5,12z"/><path d="M479.15527,186.48853c0,7.1797 -8.50659,13 -19,13c-10.49341,0 -19,-5.8203 -19,-13c0,-7.1797 8.50659,-13 19,-13c10.49341,0 19,5.8203 19,13z"/><path d="M472.15527,177.98853c0,5.79899 -9.84974,10.5 -22,10.5c-12.15026,0 -22,-4.70101 -22,-10.5c0,-5.79899 9.84974,-10.5 22,-10.5c12.15026,0 22,4.70101 22,10.5z"/><path d="M520.15527,203.48853c0,11.04569 -9.17816,20 -20.5,20c-11.32184,0 -20.5,-8.95431 -20.5,-20c0,-11.04569 9.17816,-20 20.5,-20c11.32184,0 20.5,8.95431 20.5,20z"/><path d="M530.15527,173.48853c0,8.83656 -8.28273,16 -18.5,16c-10.21727,0 -18.5,-7.16344 -18.5,-16c0,-8.83656 8.28273,-16 18.5,-16c10.21727,0 18.5,7.16344 18.5,16z"/><path d="M489.15527,178.48853c0,7.1797 -4.92487,13 -11,13c-6.07513,0 -11,-5.8203 -11,-13c0,-7.1797 4.92487,-13 11,-13c6.07513,0 11,5.8203 11,13z"/><path d="M459.15527,196.48853c0,8.28427 -10.74516,15 -24,15c-13.25484,0 -24,-6.71573 -24,-15c0,-8.28427 10.74516,-15 24,-15c13.25484,0 24,6.71573 24,15z"/><path d="M476.15527,206.98853c0,6.90356 -9.62588,12.5 -21.5,12.5c-11.87412,0 -21.5,-5.59644 -21.5,-12.5c0,-6.90356 9.62588,-12.5 21.5,-12.5c11.87412,0 21.5,5.59644 21.5,12.5z"/><path d="M573.15527,201.98853c0,8.56042 -9.84974,15.5 -22,15.5c-12.15026,0 -22,-6.93958 -22,-15.5c0,-8.56042 9.84974,-15.5 22,-15.5c12.15026,0 22,6.93958 22,15.5z"/><path d="M586.15527,202.98853c0,5.79899 -8.50659,10.5 -19,10.5c-10.49341,0 -19,-4.70101 -19,-10.5c0,-5.79899 8.50659,-10.5 19,-10.5c10.49341,0 19,4.70101 19,10.5z"/><path d="M455.15527,190.98853c0,5.2467 -5.8203,9.5 -13,9.5c-7.1797,0 -13,-4.2533 -13,-9.5c0,-5.2467 5.8203,-9.5 13,-9.5c7.1797,0 13,4.2533 13,9.5z"/></g><g fill-opacity="0.15686" fill="#ffffff" stroke="none" stroke-width="0" stroke-linecap="butt"><path d="M223.8962,292.62056c0,22.63449 -19.28188,40.98337 -43.06727,40.98337c-23.78539,0 -43.06727,-18.34888 -43.06727,-40.98337c0,-22.63449 19.28188,-40.98337 43.06727,-40.98337c23.78539,0 43.06727,18.34888 43.06727,40.98337z"/><path d="M247.51373,269.00302c0,12.65997 -14.3059,22.9229 -31.95314,22.9229c-17.64723,0 -31.95314,-10.26293 -31.95314,-22.9229c0,-12.65997 14.30591,-22.9229 31.95314,-22.9229c17.64723,0 31.95314,10.26293 31.95314,22.9229z"/><path d="M246.12447,328.7415c0,17.26359 -12.43992,31.25851 -27.78534,31.25851c-15.34542,0 -27.78534,-13.99491 -27.78534,-31.25851c0,-17.26359 12.43992,-31.2585 27.78534,-31.2585c15.34542,0 27.78534,13.99491 27.78534,31.2585z"/><path d="M166.93625,312.0703c0,11.8927 -11.81792,21.53364 -26.39607,21.53364c-14.57815,0 -26.39607,-9.64094 -26.39607,-21.53364c0,-11.8927 11.81793,-21.53364 26.39607,-21.53364c14.57815,0 26.39607,9.64094 26.39607,21.53364z"/><path d="M230.84253,305.8186c0,11.50906 -9.01894,20.839 -20.14437,20.839c-11.12543,0 -20.14437,-9.32994 -20.14437,-20.839c0,-11.50906 9.01894,-20.83901 20.14437,-20.83901c11.12543,0 20.14437,9.32995 20.14437,20.83901z"/><path d="M273.9098,308.59713c0,14.57815 -12.75092,26.39607 -28.47997,26.39607c-15.72905,0 -28.47997,-11.81792 -28.47997,-26.39607c0,-14.57815 12.75092,-26.39607 28.47997,-26.39607c15.72905,0 28.47997,11.81793 28.47997,26.39607z"/><path d="M275.29907,283.59033c0,9.97452 -13.68391,18.06047 -30.56387,18.06047c-16.87996,0 -30.56387,-8.08595 -30.56387,-18.06047c0,-9.97452 13.68391,-18.06047 30.56387,-18.06047c16.87996,0 30.56387,8.08595 30.56387,18.06047z"/><path d="M172.49332,293.3152c0,10.74179 -11.81793,19.44973 -26.39607,19.44973c-14.57815,0 -26.39607,-8.70794 -26.39607,-19.44973c0,-10.74179 11.81792,-19.44974 26.39607,-19.44974c14.57815,0 26.39607,8.70795 26.39607,19.44974z"/><path d="M219.7284,289.1474c0,11.50906 -9.95194,20.839 -22.22827,20.839c-12.27633,0 -22.22827,-9.32994 -22.22827,-20.839c0,-11.50906 9.95194,-20.83901 22.22827,-20.83901c12.27633,0 22.22827,9.32995 22.22827,20.83901z"/><path d="M129.42605,316.2381c0,6.71362 -8.39694,12.15609 -18.7551,12.15609c-10.35816,0 -18.7551,-5.44247 -18.7551,-12.15609c0,-6.71362 8.39695,-12.15608 18.75511,-12.15608c10.35816,0 18.7551,5.44246 18.7551,12.15608z"/><path d="M315.58781,300.95616c0,6.5218 -14.6169,11.80877 -32.64777,11.80877c-18.03087,0 -32.64777,-5.28697 -32.64777,-11.80877c0,-6.5218 14.61691,-11.80876 32.64777,-11.80876c18.03087,0 32.64777,5.28697 32.64777,11.80876z"/><path d="M207.22499,333.60393c0,9.20725 -13.37292,16.6712 -29.86924,16.6712c-16.49632,0 -29.86923,-7.46395 -29.86923,-16.6712c0,-9.20725 13.37291,-16.6712 29.86923,-16.6712c16.49632,0 29.86924,7.46395 29.86924,16.6712z"/><path d="M150.26505,297.483c0,9.97452 -11.81793,18.06046 -26.39607,18.06046c-14.57814,0 -26.39607,-8.08594 -26.39607,-18.06046c0,-9.97452 11.81793,-18.06047 26.39607,-18.06047c14.57814,0 26.39607,8.08595 26.39607,18.06047z"/><path d="M140.54019,285.67422c0,8.05635 -13.68391,14.5873 -30.56387,14.5873c-16.87996,0 -30.56387,-6.53096 -30.56387,-14.5873c0,-8.05635 13.68391,-14.5873 30.56387,-14.5873c16.87996,0 30.56387,6.53095 30.56387,14.5873z"/><path d="M207.22499,321.10053c0,15.34542 -12.75092,27.78534 -28.47997,27.78534c-15.72905,0 -28.47997,-12.43992 -28.47997,-27.78534c0,-15.34542 12.75092,-27.78533 28.47997,-27.78533c15.72905,0 28.47997,12.43992 28.47997,27.78533z"/><path d="M221.11766,279.42253c0,12.27634 -11.50692,22.22827 -25.70144,22.22827c-14.19451,0 -25.70144,-9.95193 -25.70144,-22.22827c0,-12.27634 11.50692,-22.22827 25.70144,-22.22827c14.19451,0 25.70144,9.95193 25.70144,22.22827z"/><path d="M164.15772,286.36886c0,9.97452 -6.84196,18.06047 -15.28194,18.06047c-8.43998,0 -15.28194,-8.08595 -15.28194,-18.06047c0,-9.97452 6.84196,-18.06047 15.28194,-18.06047c8.43998,0 15.28194,8.08595 15.28194,18.06047z"/><path d="M122.47972,311.37566c0,11.50906 -14.9279,20.83901 -33.3424,20.83901c-18.4145,0 -33.3424,-9.32995 -33.3424,-20.83901c0,-11.50906 14.9279,-20.839 33.34241,-20.839c18.4145,0 33.3424,9.32994 33.3424,20.839z"/><path d="M146.09725,325.96297c0,9.59089 -13.37292,17.36584 -29.86924,17.36584c-16.49632,0 -29.86924,-7.77495 -29.86924,-17.36584c0,-9.59089 13.37292,-17.36584 29.86924,-17.36584c16.49632,0 29.86924,7.77495 29.86924,17.36584z"/><path d="M280.85614,319.01663c0,11.8927 -13.68391,21.53364 -30.56387,21.53364c-16.87996,0 -30.56387,-9.64094 -30.56387,-21.53364c0,-11.8927 13.68391,-21.53364 30.56387,-21.53364c16.87996,0 30.56387,9.64094 30.56387,21.53364z"/><path d="M298.9166,320.4059c0,8.05635 -11.81793,14.5873 -26.39607,14.5873c-14.57815,0 -26.39607,-6.53096 -26.39607,-14.5873c0,-8.05635 11.81792,-14.5873 26.39607,-14.5873c14.57815,0 26.39607,6.53095 26.39607,14.5873z"/><path d="M116.92265,303.7347c0,7.28908 -8.08595,13.19804 -18.06047,13.19804c-9.97452,0 -18.06047,-5.90896 -18.06047,-13.19804c0,-7.28908 8.08595,-13.19804 18.06047,-13.19804c9.97452,0 18.06047,5.90896 18.06047,13.19804z"/></g><g fill-opacity="0.05882" fill="#ffffff" stroke="none" stroke-width="0" stroke-linecap="butt"><path d="M128.60632,183.51684c0,15.14473 -12.90151,27.42198 -28.81631,27.42198c-15.91481,0 -28.81631,-12.27724 -28.81631,-27.42198c0,-15.14473 12.90151,-27.42197 28.81631,-27.42197c15.91481,0 28.81631,12.27724 28.81631,27.42197z"/><path d="M144.40881,167.71435c0,8.47079 -9.57208,15.33771 -21.37984,15.33771c-11.80776,0 -21.37985,-6.86693 -21.37985,-15.33771c0,-8.47079 9.57209,-15.33772 21.37985,-15.33772c11.80776,0 21.37984,6.86693 21.37984,15.33772z"/><path d="M143.47926,207.68536c0,11.55107 -8.32355,20.91506 -18.59117,20.91506c-10.26761,0 -18.59117,-9.36399 -18.59117,-20.91506c0,-11.55107 8.32356,-20.91506 18.59117,-20.91506c10.26761,0 18.59117,9.36399 18.59117,20.91506z"/><path d="M90.49443,196.53066c0,7.9574 -7.90738,14.40815 -17.66161,14.40815c-9.75424,0 -17.66161,-6.45075 -17.66161,-14.40815c0,-7.9574 7.90737,-14.40816 17.66161,-14.40816c9.75423,0 17.66161,6.45075 17.66161,14.40816z"/><path d="M133.25411,192.34765c0,7.70071 -6.03457,13.94338 -13.47859,13.94338c-7.44402,0 -13.4786,-6.24267 -13.4786,-13.94338c0,-7.70071 6.03458,-13.94338 13.4786,-13.94338c7.44402,0 13.47859,6.24267 13.47859,13.94338z"/><path d="M162.07042,194.20677c0,9.75423 -8.53164,17.66161 -19.05595,17.66161c-10.5243,0 -19.05595,-7.90737 -19.05595,-17.66161c0,-9.75423 8.53165,-17.66161 19.05595,-17.66161c10.5243,0 19.05595,7.90738 19.05595,17.66161z"/><path d="M162.99998,177.47471c0,6.67395 -9.1559,12.08426 -20.45028,12.08426c-11.29438,0 -20.45029,-5.41031 -20.45029,-12.08426c0,-6.67395 9.15591,-12.08426 20.45029,-12.08426c11.29438,0 20.45028,5.41031 20.45028,12.08426z"/><path d="M94.21266,183.98162c0,7.18733 -7.90738,13.01382 -17.66161,13.01382c-9.75423,0 -17.66161,-5.82649 -17.66161,-13.01382c0,-7.18733 7.90737,-13.01381 17.66161,-13.01381c9.75423,0 17.66161,5.82648 17.66161,13.01381z"/><path d="M125.81765,181.19295c0,7.70071 -6.65884,13.94338 -14.87293,13.94338c-8.21409,0 -14.87293,-6.24267 -14.87293,-13.94338c0,-7.70071 6.65884,-13.94338 14.87293,-13.94338c8.2141,0 14.87293,6.24267 14.87293,13.94338z"/><path d="M65.39635,199.31934c0,4.49209 -5.61839,8.13363 -12.54903,8.13363c-6.93064,0 -12.54904,-3.64155 -12.54904,-8.13363c0,-4.49209 5.6184,-8.13363 12.54904,-8.13363c6.93064,0 12.54903,3.64155 12.54903,8.13363z"/><path d="M189.95718,189.09419c0,4.36373 -9.78018,7.90125 -21.84463,7.90125c-12.06445,0 -21.84462,-3.53752 -21.84462,-7.90125c0,-4.36373 9.78017,-7.90124 21.84462,-7.90124c12.06445,0 21.84463,3.53751 21.84463,7.90124z"/><path d="M117.45162,210.93882c0,6.16057 -8.94782,11.1547 -19.98551,11.1547c-11.03768,0 -19.98551,-4.99413 -19.98551,-11.1547c0,-6.16057 8.94782,-11.1547 19.98551,-11.1547c11.03768,0 19.98551,4.99413 19.98551,11.1547z"/><path d="M79.33973,186.7703c0,6.67395 -7.90738,12.08426 -17.66161,12.08426c-9.75424,0 -17.66161,-5.41031 -17.66161,-12.08426c0,-6.67395 7.90737,-12.08426 17.66161,-12.08426c9.75424,0 17.66161,5.41031 17.66161,12.08426z"/><path d="M72.83282,178.86905c0,5.3905 -9.1559,9.76036 -20.45028,9.76036c-11.29438,0 -20.45028,-4.36986 -20.45028,-9.76036c0,-5.3905 9.1559,-9.76036 20.45029,-9.76036c11.29438,0 20.45028,4.36986 20.45028,9.76036z"/><path d="M117.45162,202.57279c0,10.26762 -8.53164,18.59116 -19.05595,18.59116c-10.5243,0 -19.05594,-8.32355 -19.05594,-18.59116c0,-10.26762 8.53164,-18.59117 19.05594,-18.59117c10.5243,0 19.05595,8.32355 19.05595,18.59117z"/><path d="M126.7472,174.68604c0,8.21409 -7.69928,14.87293 -17.19683,14.87293c-9.49755,0 -17.19683,-6.65884 -17.19683,-14.87293c0,-8.21409 7.69928,-14.87294 17.19683,-14.87294c9.49755,0 17.19683,6.65884 17.19683,14.87294z"/><path d="M88.63531,179.33383c0,6.67395 -4.57795,12.08426 -10.22514,12.08426c-5.64719,0 -10.22515,-5.41031 -10.22515,-12.08426c0,-6.67395 4.57796,-12.08426 10.22515,-12.08426c5.64719,0 10.22514,5.41031 10.22514,12.08426z"/><path d="M60.74856,196.06588c0,7.70071 -9.98826,13.94338 -22.3094,13.94338c-12.32114,0 -22.3094,-6.24267 -22.3094,-13.94338c0,-7.70071 9.98826,-13.94338 22.30941,-13.94338c12.32114,0 22.3094,6.24267 22.3094,13.94338z"/><path d="M76.55105,205.82625c0,6.41726 -8.94782,11.61948 -19.98551,11.61948c-11.03768,0 -19.9855,-5.20222 -19.9855,-11.61948c0,-6.41726 8.94782,-11.61948 19.9855,-11.61948c11.03768,0 19.98551,5.20222 19.98551,11.61948z"/><path d="M166.71821,201.17845c0,7.9574 -9.1559,14.40815 -20.45028,14.40815c-11.29438,0 -20.45029,-6.45075 -20.45029,-14.40815c0,-7.9574 9.15591,-14.40815 20.45029,-14.40815c11.29438,0 20.45028,6.45075 20.45028,14.40815z"/><path d="M178.80247,202.10801c0,5.3905 -7.90738,9.76036 -17.66161,9.76036c-9.75423,0 -17.66161,-4.36986 -17.66161,-9.76036c0,-5.3905 7.90737,-9.76037 17.66161,-9.76037c9.75423,0 17.66161,4.36987 17.66161,9.76037z"/><path d="M57.03032,190.95331c0,4.87712 -5.41031,8.83081 -12.08426,8.83081c-6.67395,0 -12.08426,-3.95369 -12.08426,-8.83081c0,-4.87712 5.41031,-8.8308 12.08426,-8.8308c6.67395,0 12.08426,3.95369 12.08426,8.8308z"/></g><g fill-opacity="0.05882" fill="#ffffff" stroke="none" stroke-width="0" stroke-linecap="butt"><path d="M285.99041,92.16439c0,9.17813 -7.81868,16.61849 -17.4635,16.61849c-9.64482,0 -17.46349,-7.44036 -17.46349,-16.61849c0,-9.17813 7.81867,-16.61848 17.46349,-16.61848c9.64482,0 17.4635,7.44035 17.4635,16.61848z"/><path d="M295.56717,82.58764c0,5.13353 -5.80095,9.29509 -12.95678,9.29509c-7.15584,0 -12.95679,-4.16155 -12.95679,-9.29508c0,-5.13353 5.80095,-9.29508 12.95679,-9.29508c7.15584,0 12.95678,4.16155 12.95678,9.29509z"/><path d="M295.00383,106.8112c0,7.00028 -5.04431,12.67512 -11.26677,12.67512c-6.22246,0 -11.26677,-5.67484 -11.26677,-12.67512c0,-7.00028 5.04431,-12.67512 11.26677,-12.67512c6.22247,0 11.26677,5.67484 11.26677,12.67512z"/><path d="M262.89353,100.05113c0,4.82241 -4.79209,8.73175 -10.70343,8.73175c-5.91134,0 -10.70344,-3.90934 -10.70344,-8.73175c0,-4.82241 4.7921,-8.73175 10.70344,-8.73175c5.91134,0 10.70343,3.90933 10.70343,8.73175z"/><path d="M288.8071,97.51611c0,4.66684 -3.65712,8.45008 -8.16841,8.45008c-4.51129,0 -8.16841,-3.78324 -8.16841,-8.45008c0,-4.66684 3.65712,-8.45007 8.16841,-8.45007c4.51129,0 8.16841,3.78323 8.16841,8.45007z"/><path d="M306.2706,98.64279c0,5.91134 -5.17041,10.70343 -11.54844,10.70343c-6.37802,0 -11.54844,-4.79209 -11.54844,-10.70343c0,-5.91134 5.17042,-10.70343 11.54844,-10.70343c6.37802,0 11.54844,4.79209 11.54844,10.70343z"/><path d="M306.83394,88.50269c0,4.0446 -5.54873,7.3234 -12.39344,7.3234c-6.84471,0 -12.39345,-3.2788 -12.39345,-7.3234c0,-4.0446 5.54874,-7.3234 12.39345,-7.3234c6.84471,0 12.39344,3.2788 12.39344,7.3234z"/><path d="M265.14689,92.44606c0,4.35572 -4.79209,7.88674 -10.70343,7.88674c-5.91134,0 -10.70343,-3.53102 -10.70343,-7.88674c0,-4.35572 4.79209,-7.88674 10.70343,-7.88674c5.91134,0 10.70343,3.53101 10.70343,7.88674z"/><path d="M284.30039,90.75605c0,4.66684 -4.03544,8.45007 -9.01341,8.45007c-4.97798,0 -9.01342,-3.78323 -9.01342,-8.45007c0,-4.66684 4.03545,-8.45007 9.01342,-8.45007c4.97798,0 9.01341,3.78323 9.01341,8.45007z"/><path d="M247.68339,101.74115c0,2.72233 -3.40491,4.92921 -7.60507,4.92921c-4.20016,0 -7.60507,-2.20688 -7.60507,-4.92921c0,-2.72233 3.4049,-4.92921 7.60507,-4.92921c4.20016,0 7.60507,2.20688 7.60507,4.92921z"/><path d="M323.17076,95.54442c0,2.64454 -5.92706,4.78838 -13.23846,4.78838c-7.3114,0 -13.23845,-2.14384 -13.23845,-4.78838c0,-2.64454 5.92705,-4.78838 13.23845,-4.78838c7.3114,0 13.23846,2.14383 13.23846,4.78838z"/><path d="M279.23035,108.78288c0,3.73348 -5.42263,6.76006 -12.11178,6.76006c-6.68914,0 -12.11178,-3.02658 -12.11178,-6.76006c0,-3.73348 5.42263,-6.76007 12.11178,-6.76007c6.68914,0 12.11178,3.02659 12.11178,6.76007z"/><path d="M256.13347,94.13608c0,4.0446 -4.79209,7.3234 -10.70343,7.3234c-5.91134,0 -10.70343,-3.2788 -10.70343,-7.3234c0,-4.0446 4.79209,-7.3234 10.70343,-7.3234c5.91134,0 10.70343,3.2788 10.70343,7.3234z"/><path d="M252.1901,89.3477c0,3.2668 -5.54874,5.91505 -12.39345,5.91505c-6.84471,0 -12.39344,-2.64825 -12.39344,-5.91505c0,-3.2668 5.54873,-5.91506 12.39344,-5.91506c6.84471,0 12.39345,2.64826 12.39345,5.91506z"/><path d="M279.23035,103.71283c0,6.22247 -5.17042,11.26677 -11.54844,11.26677c-6.37802,0 -11.54843,-5.04431 -11.54843,-11.26677c0,-6.22246 5.17041,-11.26677 11.54843,-11.26677c6.37802,0 11.54844,5.0443 11.54844,11.26677z"/><path d="M284.86373,86.81268c0,4.97798 -4.66598,9.01341 -10.42176,9.01341c-5.75578,0 -10.42177,-4.03544 -10.42177,-9.01341c0,-4.97798 4.66599,-9.01341 10.42177,-9.01341c5.75578,0 10.42176,4.03544 10.42176,9.01341z"/><path d="M261.76685,89.62937c0,4.0446 -2.77436,7.3234 -6.19672,7.3234c-3.42236,0 -6.19673,-3.2788 -6.19673,-7.3234c0,-4.0446 2.77437,-7.3234 6.19673,-7.3234c3.42235,0 6.19672,3.2788 6.19672,7.3234z"/><path d="M244.8667,99.76946c0,4.66684 -6.05316,8.45008 -13.52012,8.45008c-7.46696,0 -13.52013,-3.78324 -13.52013,-8.45008c0,-4.66684 6.05317,-8.45007 13.52013,-8.45007c7.46696,0 13.52012,3.78323 13.52012,8.45007z"/><path d="M254.44345,105.68452c0,3.88904 -5.42264,7.04173 -12.11178,7.04173c-6.68914,0 -12.11177,-3.15269 -12.11177,-7.04173c0,-3.88904 5.42263,-7.04173 12.11177,-7.04173c6.68914,0 12.11178,3.15269 12.11178,7.04173z"/><path d="M309.08729,102.86783c0,4.82241 -5.54873,8.73175 -12.39344,8.73175c-6.84471,0 -12.39345,-3.90933 -12.39345,-8.73175c0,-4.82241 5.54874,-8.73175 12.39345,-8.73175c6.84471,0 12.39344,3.90934 12.39344,8.73175z"/><path d="M316.41069,103.43116c0,3.2668 -4.7921,5.91505 -10.70344,5.91505c-5.91134,0 -10.70343,-2.64826 -10.70343,-5.91505c0,-3.2668 4.79209,-5.91506 10.70343,-5.91506c5.91134,0 10.70344,2.64826 10.70344,5.91506z"/><path d="M242.61334,96.6711c0,2.95567 -3.2788,5.35171 -7.3234,5.35171c-4.0446,0 -7.3234,-2.39605 -7.3234,-5.35171c0,-2.95567 3.2788,-5.35171 7.3234,-5.35171c4.0446,0 7.3234,2.39605 7.3234,5.35171z"/></g><g fill-opacity="0.05882" fill="#ffffff" stroke="none" stroke-width="0" stroke-linecap="butt"><path d="M480.1796,227.26349c0,9.17813 -7.81867,16.61849 -17.46349,16.61849c-9.64482,0 -17.4635,-7.44036 -17.4635,-16.61849c0,-9.17813 7.81868,-16.61848 17.4635,-16.61848c9.64482,0 17.46349,7.44035 17.46349,16.61848z"/><path d="M489.75636,217.68674c0,5.13353 -5.80095,9.29509 -12.95678,9.29509c-7.15584,0 -12.95679,-4.16155 -12.95679,-9.29508c0,-5.13353 5.80095,-9.29508 12.95679,-9.29508c7.15584,0 12.95678,4.16155 12.95678,9.29509z"/><path d="M489.19302,241.9103c0,7.00027 -5.04431,12.67512 -11.26677,12.67512c-6.22246,0 -11.26677,-5.67484 -11.26677,-12.67512c0,-7.00027 5.04431,-12.67512 11.26677,-12.67512c6.22247,0 11.26677,5.67485 11.26677,12.67512z"/><path d="M457.08272,235.15023c0,4.82241 -4.79209,8.73175 -10.70343,8.73175c-5.91134,0 -10.70344,-3.90934 -10.70344,-8.73175c0,-4.82241 4.7921,-8.73174 10.70344,-8.73174c5.91134,0 10.70343,3.90933 10.70343,8.73174z"/><path d="M482.99629,232.61521c0,4.66684 -3.65712,8.45008 -8.16841,8.45008c-4.51129,0 -8.16841,-3.78323 -8.16841,-8.45008c0,-4.66684 3.65712,-8.45007 8.16841,-8.45007c4.51129,0 8.16841,3.78323 8.16841,8.45007z"/><path d="M500.45979,233.74189c0,5.91134 -5.17041,10.70343 -11.54843,10.70343c-6.37802,0 -11.54845,-4.79209 -11.54845,-10.70343c0,-5.91134 5.17042,-10.70343 11.54845,-10.70343c6.37802,0 11.54843,4.79209 11.54843,10.70343z"/><path d="M501.02313,223.60179c0,4.0446 -5.54873,7.3234 -12.39344,7.3234c-6.84471,0 -12.39345,-3.2788 -12.39345,-7.3234c0,-4.0446 5.54874,-7.3234 12.39345,-7.3234c6.84471,0 12.39344,3.2788 12.39344,7.3234z"/><path d="M459.33608,227.54516c0,4.35573 -4.7921,7.88674 -10.70344,7.88674c-5.91134,0 -10.70343,-3.53101 -10.70343,-7.88674c0,-4.35573 4.79209,-7.88674 10.70343,-7.88674c5.91134,0 10.70344,3.53101 10.70344,7.88674z"/><path d="M478.48959,225.85515c0,4.66684 -4.03544,8.45007 -9.01341,8.45007c-4.97798,0 -9.01342,-3.78323 -9.01342,-8.45007c0,-4.66684 4.03544,-8.45007 9.01342,-8.45007c4.97798,0 9.01341,3.78323 9.01341,8.45007z"/><path d="M441.87258,236.84025c0,2.72233 -3.4049,4.92921 -7.60507,4.92921c-4.20017,0 -7.60507,-2.20688 -7.60507,-4.92921c0,-2.72233 3.4049,-4.92921 7.60507,-4.92921c4.20017,0 7.60507,2.20688 7.60507,4.92921z"/><path d="M517.35995,230.64352c0,2.64454 -5.92707,4.78838 -13.23846,4.78838c-7.3114,0 -13.23845,-2.14384 -13.23845,-4.78838c0,-2.64454 5.92705,-4.78838 13.23845,-4.78838c7.3114,0 13.23846,2.14383 13.23846,4.78838z"/><path d="M473.41954,243.88198c0,3.73348 -5.42263,6.76006 -12.11178,6.76006c-6.68914,0 -12.11178,-3.02658 -12.11178,-6.76006c0,-3.73348 5.42263,-6.76006 12.11178,-6.76006c6.68914,0 12.11178,3.02659 12.11178,6.76006z"/><path d="M450.32266,229.23518c0,4.0446 -4.7921,7.3234 -10.70344,7.3234c-5.91134,0 -10.70343,-3.2788 -10.70343,-7.3234c0,-4.0446 4.79209,-7.3234 10.70343,-7.3234c5.91134,0 10.70344,3.2788 10.70344,7.3234z"/><path d="M446.37929,224.4468c0,3.2668 -5.54874,5.91505 -12.39345,5.91505c-6.84471,0 -12.39344,-2.64826 -12.39344,-5.91505c0,-3.2668 5.54873,-5.91505 12.39344,-5.91505c6.84471,0 12.39345,2.64826 12.39345,5.91505z"/><path d="M473.41954,238.81193c0,6.22247 -5.17041,11.26677 -11.54844,11.26677c-6.37802,0 -11.54844,-5.04431 -11.54844,-11.26677c0,-6.22246 5.17041,-11.26677 11.54844,-11.26677c6.37802,0 11.54844,5.0443 11.54844,11.26677z"/><path d="M479.05292,221.91178c0,4.97797 -4.66598,9.01341 -10.42176,9.01341c-5.75578,0 -10.42177,-4.03544 -10.42177,-9.01341c0,-4.97797 4.66599,-9.01342 10.42177,-9.01342c5.75578,0 10.42176,4.03544 10.42176,9.01342z"/><path d="M455.95604,224.72847c0,4.0446 -2.77436,7.3234 -6.19672,7.3234c-3.42235,0 -6.19673,-3.2788 -6.19673,-7.3234c0,-4.0446 2.77437,-7.3234 6.19673,-7.3234c3.42235,0 6.19672,3.2788 6.19672,7.3234z"/><path d="M439.05589,234.86856c0,4.66684 -6.05316,8.45008 -13.52012,8.45008c-7.46695,0 -13.52013,-3.78323 -13.52013,-8.45008c0,-4.66684 6.05318,-8.45007 13.52013,-8.45007c7.46695,0 13.52012,3.78323 13.52012,8.45007z"/><path d="M448.63264,240.78362c0,3.88904 -5.42263,7.04173 -12.11178,7.04173c-6.68914,0 -12.11178,-3.15269 -12.11178,-7.04173c0,-3.88904 5.42263,-7.04173 12.11178,-7.04173c6.68914,0 12.11178,3.15269 12.11178,7.04173z"/><path d="M503.27648,237.96693c0,4.82241 -5.54873,8.73174 -12.39344,8.73174c-6.84471,0 -12.39345,-3.90933 -12.39345,-8.73174c0,-4.82241 5.54874,-8.73175 12.39345,-8.73175c6.84471,0 12.39344,3.90934 12.39344,8.73175z"/><path d="M510.59988,238.53026c0,3.2668 -4.79209,5.91505 -10.70343,5.91505c-5.91134,0 -10.70343,-2.64826 -10.70343,-5.91505c0,-3.2668 4.79209,-5.91505 10.70343,-5.91505c5.91134,0 10.70343,2.64826 10.70343,5.91505z"/><path d="M436.80253,231.7702c0,2.95567 -3.2788,5.35172 -7.3234,5.35172c-4.0446,0 -7.3234,-2.39605 -7.3234,-5.35172c0,-2.95567 3.2788,-5.35171 7.3234,-5.35171c4.0446,0 7.3234,2.39604 7.3234,5.35171z"/></g><g fill-opacity="0.05882" fill="#ffffff" stroke="none" stroke-width="0" stroke-linecap="butt"><path d="M655.49181,314.84608c0,9.17813 -7.81867,16.61849 -17.46349,16.61849c-9.64482,0 -17.46349,-7.44036 -17.46349,-16.61849c0,-9.17813 7.81867,-16.61848 17.46349,-16.61848c9.64482,0 17.46349,7.44035 17.46349,16.61848z"/><path d="M665.06857,305.26932c0,5.13353 -5.80095,9.29509 -12.95679,9.29509c-7.15584,0 -12.95678,-4.16155 -12.95678,-9.29509c0,-5.13353 5.80095,-9.29508 12.95678,-9.29508c7.15584,0 12.95679,4.16155 12.95679,9.29508z"/><path d="M664.50523,329.49288c0,7.00027 -5.04431,12.67512 -11.26677,12.67512c-6.22246,0 -11.26677,-5.67484 -11.26677,-12.67512c0,-7.00027 5.04431,-12.67512 11.26677,-12.67512c6.22246,0 11.26677,5.67485 11.26677,12.67512z"/><path d="M632.39493,322.73282c0,4.82241 -4.79209,8.73175 -10.70343,8.73175c-5.91134,0 -10.70344,-3.90934 -10.70344,-8.73175c0,-4.82241 4.7921,-8.73174 10.70344,-8.73174c5.91134,0 10.70343,3.90933 10.70343,8.73174z"/><path d="M658.3085,320.19779c0,4.66685 -3.65711,8.45008 -8.16841,8.45008c-4.51129,0 -8.16841,-3.78323 -8.16841,-8.45008c0,-4.66685 3.65712,-8.45007 8.16841,-8.45007c4.51129,0 8.16841,3.78323 8.16841,8.45007z"/><path d="M675.772,321.32447c0,5.91134 -5.17041,10.70343 -11.54843,10.70343c-6.37802,0 -11.54845,-4.79209 -11.54845,-10.70343c0,-5.91134 5.17042,-10.70343 11.54845,-10.70343c6.37802,0 11.54843,4.79209 11.54843,10.70343z"/><path d="M676.33534,311.18438c0,4.0446 -5.54874,7.3234 -12.39345,7.3234c-6.84471,0 -12.39345,-3.2788 -12.39345,-7.3234c0,-4.0446 5.54874,-7.3234 12.39345,-7.3234c6.84471,0 12.39345,3.2788 12.39345,7.3234z"/><path d="M634.64829,315.12775c0,4.35573 -4.7921,7.88674 -10.70344,7.88674c-5.91134,0 -10.70343,-3.53101 -10.70343,-7.88674c0,-4.35573 4.79209,-7.88673 10.70343,-7.88673c5.91134,0 10.70344,3.53101 10.70344,7.88673z"/><path d="M653.8018,313.43773c0,4.66685 -4.03544,8.45008 -9.01342,8.45008c-4.97798,0 -9.01342,-3.78323 -9.01342,-8.45008c0,-4.66685 4.03544,-8.45007 9.01342,-8.45007c4.97798,0 9.01342,3.78323 9.01342,8.45007z"/><path d="M617.18479,324.42283c0,2.72233 -3.40491,4.92921 -7.60507,4.92921c-4.20016,0 -7.60507,-2.20688 -7.60507,-4.92921c0,-2.72233 3.4049,-4.92921 7.60507,-4.92921c4.20016,0 7.60507,2.20688 7.60507,4.92921z"/><path d="M692.67216,318.22611c0,2.64454 -5.92707,4.78838 -13.23846,4.78838c-7.31139,0 -13.23845,-2.14383 -13.23845,-4.78838c0,-2.64454 5.92705,-4.78838 13.23845,-4.78838c7.31139,0 13.23846,2.14383 13.23846,4.78838z"/><path d="M648.73175,331.46457c0,3.73348 -5.42263,6.76006 -12.11178,6.76006c-6.68915,0 -12.11178,-3.02658 -12.11178,-6.76006c0,-3.73348 5.42263,-6.76006 12.11178,-6.76006c6.68915,0 12.11178,3.02659 12.11178,6.76006z"/><path d="M625.63487,316.81776c0,4.0446 -4.7921,7.3234 -10.70344,7.3234c-5.91134,0 -10.70343,-3.2788 -10.70343,-7.3234c0,-4.0446 4.79209,-7.3234 10.70343,-7.3234c5.91134,0 10.70344,3.2788 10.70344,7.3234z"/><path d="M621.6915,312.02939c0,3.2668 -5.54874,5.91505 -12.39345,5.91505c-6.84471,0 -12.39345,-2.64826 -12.39345,-5.91505c0,-3.2668 5.54874,-5.91505 12.39345,-5.91505c6.84471,0 12.39345,2.64826 12.39345,5.91505z"/><path d="M648.73175,326.39452c0,6.22247 -5.17042,11.26677 -11.54844,11.26677c-6.37802,0 -11.54844,-5.04431 -11.54844,-11.26677c0,-6.22246 5.17041,-11.26677 11.54844,-11.26677c6.37802,0 11.54844,5.04431 11.54844,11.26677z"/><path d="M654.36513,309.49436c0,4.97798 -4.66598,9.01342 -10.42176,9.01342c-5.75578,0 -10.42176,-4.03544 -10.42176,-9.01342c0,-4.97798 4.66598,-9.01341 10.42176,-9.01341c5.75578,0 10.42176,4.03544 10.42176,9.01341z"/><path d="M631.26825,312.31106c0,4.0446 -2.77436,7.3234 -6.19672,7.3234c-3.42236,0 -6.19673,-3.2788 -6.19673,-7.3234c0,-4.0446 2.77437,-7.3234 6.19673,-7.3234c3.42236,0 6.19672,3.2788 6.19672,7.3234z"/><path d="M614.3681,322.45115c0,4.66685 -6.05317,8.45008 -13.52012,8.45008c-7.46695,0 -13.52013,-3.78323 -13.52013,-8.45008c0,-4.66685 6.05318,-8.45007 13.52013,-8.45007c7.46695,0 13.52012,3.78323 13.52012,8.45007z"/><path d="M623.94485,328.3662c0,3.88904 -5.42263,7.04174 -12.11178,7.04174c-6.68915,0 -12.11177,-3.15269 -12.11177,-7.04174c0,-3.88904 5.42263,-7.04173 12.11177,-7.04173c6.68915,0 12.11178,3.15269 12.11178,7.04173z"/><path d="M678.58869,325.54951c0,4.82241 -5.54874,8.73174 -12.39345,8.73174c-6.84471,0 -12.39345,-3.90933 -12.39345,-8.73174c0,-4.82241 5.54874,-8.73175 12.39345,-8.73175c6.84471,0 12.39345,3.90934 12.39345,8.73175z"/><path d="M685.91209,326.11285c0,3.2668 -4.7921,5.91505 -10.70344,5.91505c-5.91134,0 -10.70343,-2.64826 -10.70343,-5.91505c0,-3.2668 4.79209,-5.91505 10.70343,-5.91505c5.91134,0 10.70344,2.64826 10.70344,5.91505z"/><path d="M612.11474,319.35279c0,2.95567 -3.2788,5.35172 -7.3234,5.35172c-4.0446,0 -7.3234,-2.39605 -7.3234,-5.35172c0,-2.95567 3.2788,-5.35171 7.3234,-5.35171c4.0446,0 7.3234,2.39604 7.3234,5.35171z"/></g><g fill-opacity="0.05882" fill="#ffffff" stroke="none" stroke-width="0" stroke-linecap="butt"><path d="M544.52829,15.80118c0,5.89651 -5.02311,10.67658 -11.21944,10.67658c-6.19633,0 -11.21945,-4.78007 -11.21945,-10.67657c0,-5.89651 5.02312,-10.67656 11.21945,-10.67656c6.19633,0 11.21944,4.78006 11.21944,10.67657z"/><path d="M550.68089,9.64858c0,3.29805 -3.72683,5.97164 -8.32411,5.97164c-4.59727,0 -8.3241,-2.67359 -8.3241,-5.97164c0,-3.29804 3.72683,-5.97164 8.3241,-5.97164c4.59727,0 8.32411,2.6736 8.32411,5.97164z"/><path d="M550.31897,25.21104c0,4.49733 -3.24072,8.14315 -7.23835,8.14315c-3.99763,0 -7.23835,-3.64581 -7.23835,-8.14314c0,-4.49733 3.24072,-8.14314 7.23835,-8.14314c3.99763,0 7.23835,3.64581 7.23835,8.14315z"/><path d="M529.68967,20.86803c0,3.09816 -3.07869,5.60973 -6.87644,5.60973c-3.79775,0 -6.87644,-2.51156 -6.87644,-5.60973c0,-3.09816 3.07869,-5.60972 6.87644,-5.60972c3.79775,0 6.87644,2.51156 6.87644,5.60972z"/><path d="M546.33787,19.23939c0,2.99822 -2.34951,5.42877 -5.2478,5.42877c-2.89828,0 -5.24781,-2.43055 -5.24781,-5.42877c0,-2.99822 2.34952,-5.42876 5.24781,-5.42876c2.89828,0 5.2478,2.43054 5.2478,5.42876z"/><path d="M557.55732,19.96323c0,3.79775 -3.32173,6.87644 -7.41931,6.87644c-4.09757,0 -7.41931,-3.07868 -7.41931,-6.87644c0,-3.79775 3.32174,-6.87643 7.41931,-6.87643c4.09757,0 7.41931,3.07868 7.41931,6.87643z"/><path d="M557.91923,13.44872c0,2.59846 -3.56479,4.70492 -7.96218,4.70492c-4.39739,0 -7.96219,-2.10646 -7.96219,-4.70492c0,-2.59846 3.5648,-4.70493 7.96219,-4.70493c4.39739,0 7.96218,2.10647 7.96218,4.70493z"/><path d="M531.13734,15.98214c0,2.79834 -3.07869,5.06685 -6.87644,5.06685c-3.79775,0 -6.87644,-2.26851 -6.87644,-5.06685c0,-2.79834 3.07869,-5.06684 6.87644,-5.06684c3.79775,0 6.87644,2.2685 6.87644,5.06684z"/><path d="M543.44253,14.89639c0,2.99822 -2.59258,5.42876 -5.79068,5.42876c-3.19811,0 -5.79068,-2.43054 -5.79068,-5.42876c0,-2.99822 2.59257,-5.42876 5.79068,-5.42876c3.19811,0 5.79068,2.43055 5.79068,5.42877z"/><path d="M519.91789,21.95378c0,1.74896 -2.18749,3.16678 -4.88589,3.16678c-2.6984,0 -4.88589,-1.41782 -4.88589,-3.16678c0,-1.74896 2.18749,-3.16678 4.88589,-3.16678c2.6984,0 4.88589,1.41781 4.88589,3.16678z"/><path d="M568.41485,17.97268c0,1.69899 -3.80786,3.0763 -8.50507,3.0763c-4.69722,0 -8.50506,-1.37731 -8.50506,-3.0763c0,-1.69899 3.80784,-3.07629 8.50506,-3.07629c4.69722,0 8.50507,1.37731 8.50507,3.0763z"/><path d="M540.18527,26.47775c0,2.39858 -3.48377,4.34301 -7.78122,4.34301c-4.29745,0 -7.78123,-1.94443 -7.78123,-4.34301c0,-2.39858 3.48378,-4.34302 7.78123,-4.34302c4.29745,0 7.78122,1.94444 7.78122,4.34302z"/><path d="M525.34666,17.06789c0,2.59846 -3.07869,4.70493 -6.87644,4.70493c-3.79775,0 -6.87643,-2.10647 -6.87643,-4.70493c0,-2.59846 3.07868,-4.70493 6.87643,-4.70493c3.79775,0 6.87644,2.10647 6.87644,4.70493z"/><path d="M522.81323,13.99159c0,2.09875 -3.5648,3.80013 -7.96219,3.80013c-4.3974,0 -7.96219,-1.70138 -7.96219,-3.80013c0,-2.09876 3.56479,-3.80014 7.96219,-3.80014c4.39739,0 7.96219,1.70138 7.96219,3.80014z"/><path d="M540.18527,23.22049c0,3.99763 -3.32174,7.23835 -7.41931,7.23835c-4.09757,0 -7.4193,-3.24072 -7.4193,-7.23835c0,-3.99763 3.32173,-7.23836 7.4193,-7.23836c4.09757,0 7.41931,3.24073 7.41931,7.23836z"/><path d="M543.80445,12.36296c0,3.19811 -2.99766,5.79068 -6.69547,5.79068c-3.69781,0 -6.69548,-2.59257 -6.69548,-5.79068c0,-3.1981 2.99767,-5.79068 6.69548,-5.79068c3.69781,0 6.69547,2.59257 6.69547,5.79068z"/><path d="M528.96583,14.17255c0,2.59846 -1.78239,4.70493 -3.98109,4.70493c-2.1987,0 -3.98109,-2.10647 -3.98109,-4.70493c0,-2.59846 1.7824,-4.70493 3.98109,-4.70493c2.1987,0 3.98109,2.10647 3.98109,4.70493z"/><path d="M518.1083,20.68707c0,2.99822 -3.88887,5.42876 -8.68602,5.42876c-4.79715,0 -8.68602,-2.43054 -8.68602,-5.42876c0,-2.99822 3.88887,-5.42876 8.68602,-5.42876c4.79715,0 8.68602,2.43055 8.68602,5.42877z"/><path d="M524.2609,24.4872c0,2.49852 -3.48378,4.52397 -7.78123,4.52397c-4.29745,0 -7.78123,-2.02545 -7.78123,-4.52397c0,-2.49852 3.48378,-4.52397 7.78123,-4.52397c4.29745,0 7.78123,2.02545 7.78123,4.52397z"/><path d="M559.36691,22.67762c0,3.09816 -3.56479,5.60972 -7.96218,5.60972c-4.39739,0 -7.96219,-2.51156 -7.96219,-5.60972c0,-3.09816 3.5648,-5.60973 7.96219,-5.60973c4.39739,0 7.96218,2.51156 7.96218,5.60973z"/><path d="M564.07184,23.03953c0,2.09876 -3.07869,3.80014 -6.87644,3.80014c-3.79775,0 -6.87643,-1.70138 -6.87643,-3.80014c0,-2.09876 3.07868,-3.80014 6.87643,-3.80014c3.79775,0 6.87644,1.70138 6.87644,3.80014z"/><path d="M516.66063,18.69652c0,1.89888 -2.10647,3.43821 -4.70493,3.43821c-2.59846,0 -4.70493,-1.53934 -4.70493,-3.43821c0,-1.89888 2.10647,-3.43822 4.70493,-3.43822c2.59846,0 4.70493,1.53934 4.70493,3.43822z"/></g><g fill-opacity="0.05882" fill="#ffffff" stroke="none" stroke-width="0" stroke-linecap="butt"><path d="M112.9962,10.29067c0,5.89651 -5.02311,10.67658 -11.21944,10.67658c-6.19633,0 -11.21945,-4.78007 -11.21945,-10.67657c0,-5.8965 5.02312,-10.67656 11.21945,-10.67656c6.19633,0 11.21944,4.78006 11.21944,10.67657z"/><path d="M119.1488,4.13807c0,3.29805 -3.72683,5.97164 -8.32411,5.97164c-4.59727,0 -8.32411,-2.67359 -8.32411,-5.97164c0,-3.29804 3.72683,-5.97164 8.32411,-5.97164c4.59727,0 8.32411,2.6736 8.32411,5.97164z"/><path d="M118.78688,19.70053c0,4.49733 -3.24072,8.14315 -7.23835,8.14315c-3.99763,0 -7.23835,-3.64581 -7.23835,-8.14314c0,-4.49733 3.24072,-8.14314 7.23835,-8.14314c3.99763,0 7.23835,3.64581 7.23835,8.14314z"/><path d="M98.15758,15.35752c0,3.09817 -3.07869,5.60973 -6.87644,5.60973c-3.79775,0 -6.87643,-2.51156 -6.87643,-5.60973c0,-3.09816 3.07868,-5.60972 6.87643,-5.60972c3.79775,0 6.87644,2.51156 6.87644,5.60972z"/><path d="M114.80578,13.72889c0,2.99822 -2.34951,5.42877 -5.2478,5.42877c-2.89829,0 -5.24781,-2.43054 -5.24781,-5.42876c0,-2.99822 2.34953,-5.42876 5.24781,-5.42876c2.89829,0 5.2478,2.43055 5.2478,5.42877z"/><path d="M126.02523,14.45272c0,3.79775 -3.32174,6.87644 -7.41931,6.87644c-4.09757,0 -7.41931,-3.07868 -7.41931,-6.87644c0,-3.79775 3.32174,-6.87643 7.41931,-6.87643c4.09757,0 7.41931,3.07868 7.41931,6.87643z"/><path d="M126.38715,7.93821c0,2.59846 -3.56479,4.70492 -7.96219,4.70492c-4.3974,0 -7.96219,-2.10646 -7.96219,-4.70492c0,-2.59846 3.56479,-4.70493 7.96219,-4.70493c4.3974,0 7.96219,2.10647 7.96219,4.70493z"/><path d="M99.60525,10.47163c0,2.79834 -3.07869,5.06685 -6.87644,5.06685c-3.79775,0 -6.87644,-2.26851 -6.87644,-5.06685c0,-2.79834 3.07869,-5.06684 6.87644,-5.06684c3.79775,0 6.87644,2.2685 6.87644,5.06684z"/><path d="M111.91044,9.38588c0,2.99822 -2.59257,5.42876 -5.79068,5.42876c-3.1981,0 -5.79068,-2.43054 -5.79068,-5.42876c0,-2.99822 2.59257,-5.42876 5.79068,-5.42876c3.1981,0 5.79068,2.43055 5.79068,5.42877z"/><path d="M88.3858,16.44327c0,1.74897 -2.18749,3.16678 -4.88589,3.16678c-2.6984,0 -4.88589,-1.41781 -4.88589,-3.16678c0,-1.74896 2.18748,-3.16677 4.88589,-3.16677c2.6984,0 4.88589,1.41781 4.88589,3.16677z"/><path d="M136.88276,12.46217c0,1.69899 -3.80785,3.0763 -8.50507,3.0763c-4.69721,0 -8.50506,-1.37731 -8.50506,-3.0763c0,-1.69899 3.80785,-3.07629 8.50506,-3.07629c4.69722,0 8.50507,1.3773 8.50507,3.0763z"/><path d="M108.65318,20.96724c0,2.39858 -3.48378,4.34301 -7.78123,4.34301c-4.29745,0 -7.78123,-1.94443 -7.78123,-4.34301c0,-2.39858 3.48378,-4.34302 7.78123,-4.34302c4.29745,0 7.78123,1.94444 7.78123,4.34302z"/><path d="M93.81457,11.55738c0,2.59846 -3.07869,4.70493 -6.87644,4.70493c-3.79775,0 -6.87643,-2.10646 -6.87643,-4.70493c0,-2.59846 3.07868,-4.70493 6.87643,-4.70493c3.79775,0 6.87644,2.10647 6.87644,4.70493z"/><path d="M91.28114,8.48108c0,2.09876 -3.56479,3.80013 -7.96219,3.80013c-4.3974,0 -7.96219,-1.70137 -7.96219,-3.80013c0,-2.09876 3.56479,-3.80013 7.96219,-3.80013c4.3974,0 7.96219,1.70138 7.96219,3.80014z"/><path d="M108.65318,17.70998c0,3.99763 -3.32174,7.23835 -7.41931,7.23835c-4.09757,0 -7.4193,-3.24072 -7.4193,-7.23835c0,-3.99763 3.32173,-7.23836 7.4193,-7.23836c4.09757,0 7.41931,3.24073 7.41931,7.23836z"/><path d="M112.27236,6.85245c0,3.1981 -2.99766,5.79068 -6.69548,5.79068c-3.69781,0 -6.69548,-2.59257 -6.69548,-5.79068c0,-3.1981 2.99767,-5.79068 6.69548,-5.79068c3.69781,0 6.69548,2.59258 6.69548,5.79068z"/><path d="M97.43374,8.66204c0,2.59846 -1.78239,4.70493 -3.98109,4.70493c-2.1987,0 -3.9811,-2.10647 -3.9811,-4.70493c0,-2.59846 1.7824,-4.70493 3.9811,-4.70493c2.1987,0 3.98109,2.10647 3.98109,4.70493z"/><path d="M86.57621,15.17656c0,2.99822 -3.88886,5.42876 -8.68602,5.42876c-4.79716,0 -8.68603,-2.43054 -8.68603,-5.42876c0,-2.99822 3.88887,-5.42876 8.68603,-5.42876c4.79716,0 8.68602,2.43055 8.68602,5.42877z"/><path d="M92.72881,18.97669c0,2.49852 -3.48378,4.52397 -7.78123,4.52397c-4.29745,0 -7.78123,-2.02545 -7.78123,-4.52397c0,-2.49852 3.48378,-4.52397 7.78123,-4.52397c4.29745,0 7.78123,2.02545 7.78123,4.52397z"/><path d="M127.83482,17.16711c0,3.09817 -3.56479,5.60972 -7.96219,5.60972c-4.3974,0 -7.96219,-2.51155 -7.96219,-5.60972c0,-3.09816 3.5648,-5.60972 7.96219,-5.60972c4.3974,0 7.96219,2.51156 7.96219,5.60972z"/><path d="M132.53975,17.52902c0,2.09876 -3.07869,3.80014 -6.87644,3.80014c-3.79775,0 -6.87644,-1.70138 -6.87644,-3.80014c0,-2.09876 3.07869,-3.80013 6.87644,-3.80013c3.79775,0 6.87644,1.70138 6.87644,3.80013z"/><path d="M85.12854,13.18601c0,1.89888 -2.10647,3.43821 -4.70493,3.43821c-2.59846,0 -4.70493,-1.53934 -4.70493,-3.43821c0,-1.89888 2.10647,-3.43822 4.70493,-3.43822c2.59846,0 4.70493,1.53934 4.70493,3.43822z"/></g><g data-paper-data="{&quot;index&quot;:null}" fill-opacity="0.2549" fill="#ffffff" stroke="none" stroke-width="0" stroke-linecap="butt"><path d="M60.65734,304.68524c23.7854,0 43.06728,18.34888 43.06728,40.98337c0,22.63449 -19.28188,40.98337 -43.06727,40.98337c-23.78539,0 -43.06727,-18.34888 -43.06727,-40.98337c0,-22.63449 19.28187,-40.98337 43.06727,-40.98337z"/><path d="M25.92567,299.12817c17.64723,0 31.95314,10.26294 31.95314,22.92291c0,12.65997 -14.30591,22.9229 -31.95314,22.9229c-17.64723,0 -31.95313,-10.26293 -31.95313,-22.9229c0,-12.65997 14.30591,-22.92291 31.95314,-22.92291z"/><path d="M23.14714,350.53105c15.34541,0 27.78533,13.99491 27.78533,31.2585c0,17.26359 -12.43992,31.25851 -27.78533,31.25851c-15.34541,0 -27.78534,-13.99491 -27.78534,-31.25851c0,-17.26359 12.43993,-31.2585 27.78534,-31.2585z"/><path d="M100.94608,343.58471c14.57815,0 26.39607,9.64094 26.39607,21.53364c0,11.8927 -11.81793,21.53364 -26.39607,21.53364c-14.57815,0 -26.39607,-9.64094 -26.39607,-21.53364c0,-11.8927 11.81792,-21.53364 26.39607,-21.53364z"/><path d="M30.78811,338.02764c11.12543,0 20.14437,9.32995 20.14437,20.839c0,11.50906 -9.01894,20.839 -20.14437,20.839c-11.12543,0 -20.14437,-9.32994 -20.14437,-20.839c0,-11.50906 9.01894,-20.839 20.14437,-20.839z"/><path d="M-3.94356,335.24911c15.72905,0 28.47997,11.81793 28.47997,26.39607c0,14.57815 -12.75092,26.39607 -28.47997,26.39607c-15.72905,0 -28.47997,-11.81792 -28.47997,-26.39607c0,-14.57815 12.75092,-26.39607 28.47997,-26.39607z"/><path d="M-3.24893,318.57791c16.87996,0 30.56387,8.08595 30.56387,18.06047c0,9.97452 -13.68391,18.06047 -30.56387,18.06047c-16.87996,0 -30.56387,-8.08595 -30.56387,-18.06047c0,-9.97452 13.68391,-18.06047 30.56387,-18.06047z"/><path d="M95.38902,326.91351c14.57815,0 26.39606,8.70795 26.39606,19.44974c0,10.74179 -11.81792,19.44973 -26.39606,19.44973c-14.57815,0 -26.39607,-8.70794 -26.39607,-19.44973c0,-10.74179 11.81792,-19.44974 26.39607,-19.44974z"/><path d="M43.98614,321.35644c12.27633,0 22.22827,9.32995 22.22827,20.839c0,11.50906 -9.95194,20.839 -22.22827,20.839c-12.27633,0 -22.22827,-9.32994 -22.22827,-20.839c0,-11.50906 9.95193,-20.839 22.22827,-20.839z"/><path d="M130.81532,357.13006c10.35816,0 18.75511,5.44246 18.75511,12.15608c0,6.71362 -8.39695,12.15609 -18.75511,12.15609c-10.35816,0 -18.7551,-5.44247 -18.7551,-12.15609c0,-6.71362 8.39694,-12.15608 18.7551,-12.15608z"/><path d="M-41.45377,342.19545c18.03086,0 32.64777,5.28697 32.64777,11.80876c0,6.5218 -14.6169,11.80877 -32.64777,11.80877c-18.03086,0 -32.64777,-5.28697 -32.64777,-11.80877c0,-6.5218 14.61691,-11.80876 32.64777,-11.80876z"/><path d="M64.13051,369.98078c16.49632,0 29.86924,7.46395 29.86924,16.6712c0,9.20725 -13.37292,16.6712 -29.86924,16.6712c-16.49632,0 -29.86924,-7.46395 -29.86924,-16.6712c0,-9.20725 13.37292,-16.6712 29.86924,-16.6712z"/><path d="M117.61728,332.47058c14.57815,0 26.39607,8.08595 26.39607,18.06047c0,9.97452 -11.81793,18.06047 -26.39607,18.06047c-14.57815,0 -26.39607,-8.08595 -26.39607,-18.06047c0,-9.97452 11.81792,-18.06047 26.39607,-18.06047z"/><path d="M131.50995,324.13498c16.87996,0 30.56387,6.53096 30.56387,14.5873c0,8.05635 -13.68391,14.5873 -30.56387,14.5873c-16.87996,0 -30.56387,-6.53095 -30.56387,-14.5873c0,-8.05635 13.68391,-14.5873 30.56387,-14.5873z"/><path d="M62.74125,346.36325c15.72905,0 28.47997,12.43992 28.47997,27.78533c0,15.34542 -12.75092,27.78534 -28.47996,27.78534c-15.72905,0 -28.47997,-12.43992 -28.47997,-27.78534c0,-15.34542 12.75092,-27.78533 28.47997,-27.78533z"/><path d="M46.07004,310.24231c14.19452,0 25.70143,9.95193 25.70143,22.22827c0,12.27634 -11.50692,22.22827 -25.70143,22.22827c-14.19452,0 -25.70143,-9.95193 -25.70143,-22.22827c0,-12.27634 11.50692,-22.22827 25.70144,-22.22827z"/><path d="M92.61048,321.35644c8.43998,0 15.28194,8.08595 15.28194,18.06047c0,9.97452 -6.84196,18.06047 -15.28194,18.06047c-8.43998,0 -15.28193,-8.08595 -15.28193,-18.06047c0,-9.97452 6.84196,-18.06047 15.28193,-18.06047z"/><path d="M152.34895,343.58471c18.4145,0 33.3424,9.32994 33.3424,20.839c0,11.50906 -14.9279,20.839 -33.3424,20.839c-18.4145,0 -33.3424,-9.32995 -33.3424,-20.839c0,-11.50906 14.9279,-20.839 33.3424,-20.839z"/><path d="M125.25825,361.64518c16.49632,0 29.86924,7.77495 29.86924,17.36584c0,9.59089 -13.37292,17.36584 -29.86924,17.36584c-16.49632,0 -29.86924,-7.77495 -29.86924,-17.36584c0,-9.59089 13.37292,-17.36584 29.86924,-17.36584z"/><path d="M-8.806,350.53105c16.87996,0 30.56387,9.64094 30.56387,21.53364c0,11.8927 -13.68391,21.53364 -30.56387,21.53364c-16.87996,0 -30.56387,-9.64094 -30.56387,-21.53364c0,-11.8927 13.68391,-21.53364 30.56387,-21.53364z"/><path d="M-31.03426,358.86665c14.57815,0 26.39607,6.53095 26.39607,14.5873c0,8.05635 -11.81792,14.5873 -26.39606,14.5873c-14.57814,0 -26.39607,-6.53096 -26.39607,-14.5873c0,-8.05635 11.81793,-14.5873 26.39607,-14.5873z"/><path d="M142.62409,343.58471c9.97452,0 18.06047,5.90896 18.06047,13.19804c0,7.28908 -8.08595,13.19804 -18.06047,13.19804c-9.97452,0 -18.06047,-5.90896 -18.06047,-13.19804c0,-7.28908 8.08595,-13.19804 18.06047,-13.19804z"/></g><g data-paper-data="{&quot;index&quot;:null}" fill-opacity="0.15686" fill="#ffffff" stroke="none" stroke-width="0" stroke-linecap="butt"><path d="M255.63218,411.40287c-23.78539,0 -43.06727,-18.34888 -43.06727,-40.98337c0,-22.63449 19.28188,-40.98337 43.06727,-40.98337c23.7854,0 43.06727,18.34888 43.06727,40.98337c0,22.63449 -19.28188,40.98337 -43.06727,40.98337z"/><path d="M290.36385,416.95994c-17.64723,0 -31.95314,-10.26294 -31.95314,-22.92291c0,-12.65997 14.30591,-22.9229 31.95314,-22.9229c17.64723,0 31.95313,10.26293 31.95313,22.9229c0,12.65997 -14.3059,22.92291 -31.95313,22.92291z"/><path d="M293.14238,365.55707c-15.34542,0 -27.78534,-13.99491 -27.78534,-31.2585c0,-17.26359 12.43992,-31.25851 27.78534,-31.25851c15.34542,0 27.78534,13.99491 27.78534,31.25851c0,17.26359 -12.43992,31.2585 -27.78534,31.2585z"/><path d="M215.34344,372.5034c-14.57815,0 -26.39607,-9.64094 -26.39607,-21.53364c0,-11.8927 11.81793,-21.53364 26.39607,-21.53364c14.57815,0 26.39607,9.64094 26.39607,21.53364c0,11.8927 -11.81793,21.53364 -26.39607,21.53364z"/><path d="M285.50141,378.06047c-11.12543,0 -20.14437,-9.32995 -20.14437,-20.839c0,-11.50906 9.01894,-20.839 20.14437,-20.839c11.12543,0 20.14437,9.32994 20.14437,20.839c0,11.50906 -9.01894,20.839 -20.14437,20.839z"/><path d="M320.23308,380.839c-15.72905,0 -28.47997,-11.81793 -28.47997,-26.39607c0,-14.57815 12.75092,-26.39606 28.47997,-26.39606c15.72905,0 28.47997,11.81792 28.47997,26.39606c0,14.57815 -12.75092,26.39607 -28.47997,26.39607z"/><path d="M319.53845,397.51021c-16.87996,0 -30.56387,-8.08595 -30.56387,-18.06047c0,-9.97452 13.68391,-18.06047 30.56387,-18.06047c16.87996,0 30.56387,8.08595 30.56387,18.06047c0,9.97452 -13.68391,18.06047 -30.56387,18.06047z"/><path d="M220.9005,389.1746c-14.57815,0 -26.39606,-8.70794 -26.39606,-19.44973c0,-10.74179 11.81792,-19.44974 26.39606,-19.44974c14.57815,0 26.39607,8.70795 26.39607,19.44974c0,10.74179 -11.81793,19.44973 -26.39607,19.44973z"/><path d="M272.30338,394.73167c-12.27634,0 -22.22827,-9.32995 -22.22827,-20.839c0,-11.50906 9.95193,-20.839 22.22827,-20.839c12.27634,0 22.22827,9.32994 22.22827,20.839c0,11.50906 -9.95193,20.839 -22.22827,20.839z"/><path d="M185.4742,358.95805c-10.35816,0 -18.7551,-5.44247 -18.7551,-12.15609c0,-6.71362 8.39694,-12.15609 18.7551,-12.15609c10.35816,0 18.7551,5.44247 18.7551,12.15609c0,6.71362 -8.39694,12.15609 -18.7551,12.15609z"/><path d="M357.74329,373.89267c-18.03087,0 -32.64777,-5.28697 -32.64777,-11.80876c0,-6.5218 14.61691,-11.80877 32.64777,-11.80877c18.03087,0 32.64777,5.28697 32.64777,11.80877c0,6.5218 -14.6169,11.80876 -32.64777,11.80876z"/><path d="M252.15901,346.10733c-16.49632,0 -29.86924,-7.46395 -29.86924,-16.6712c0,-9.20725 13.37292,-16.6712 29.86924,-16.6712c16.49632,0 29.86923,7.46395 29.86923,16.6712c0,9.20725 -13.37291,16.6712 -29.86923,16.6712z"/><path d="M198.67224,383.61754c-14.57815,0 -26.39607,-8.08595 -26.39607,-18.06047c0,-9.97452 11.81793,-18.06047 26.39607,-18.06047c14.57815,0 26.39607,8.08595 26.39607,18.06047c0,9.97452 -11.81793,18.06047 -26.39607,18.06047z"/><path d="M184.77957,391.95314c-16.87996,0 -30.56387,-6.53095 -30.56387,-14.5873c0,-8.05635 13.68391,-14.5873 30.56387,-14.5873c16.87996,0 30.56387,6.53096 30.56387,14.5873c0,8.05635 -13.68391,14.5873 -30.56387,14.5873z"/><path d="M253.54827,369.72487c-15.72905,0 -28.47996,-12.43992 -28.47996,-27.78534c0,-15.34542 12.75091,-27.78533 28.47996,-27.78533c15.72905,0 28.47997,12.43992 28.47997,27.78533c0,15.34542 -12.75092,27.78534 -28.47997,27.78534z"/><path d="M270.21948,405.84581c-14.19452,0 -25.70143,-9.95193 -25.70143,-22.22827c0,-12.27634 11.50692,-22.22827 25.70143,-22.22827c14.19452,0 25.70144,9.95193 25.70144,22.22827c0,12.27634 -11.50692,22.22827 -25.70144,22.22827z"/><path d="M223.67904,394.73167c-8.43998,0 -15.28194,-8.08595 -15.28194,-18.06047c0,-9.97452 6.84196,-18.06047 15.28194,-18.06047c8.43998,0 15.28194,8.08595 15.28194,18.06047c0,9.97452 -6.84196,18.06047 -15.28194,18.06047z"/><path d="M163.94057,372.5034c-18.4145,0 -33.3424,-9.32994 -33.3424,-20.839c0,-11.50906 14.9279,-20.839 33.3424,-20.839c18.4145,0 33.3424,9.32995 33.3424,20.839c0,11.50906 -14.9279,20.839 -33.3424,20.839z"/><path d="M191.03127,354.44293c-16.49632,0 -29.86924,-7.77495 -29.86924,-17.36584c0,-9.59089 13.37292,-17.36584 29.86924,-17.36584c16.49632,0 29.86924,7.77495 29.86924,17.36584c0,9.59089 -13.37292,17.36584 -29.86924,17.36584z"/><path d="M325.09551,365.55707c-16.87996,0 -30.56387,-9.64094 -30.56387,-21.53364c0,-11.8927 13.68391,-21.53364 30.56387,-21.53364c16.87996,0 30.56387,9.64094 30.56387,21.53364c0,11.8927 -13.68391,21.53364 -30.56387,21.53364z"/><path d="M347.32378,357.22147c-14.57815,0 -26.39607,-6.53096 -26.39607,-14.5873c0,-8.05635 11.81792,-14.5873 26.39607,-14.5873c14.57815,0 26.39607,6.53095 26.39607,14.5873c0,8.05635 -11.81793,14.5873 -26.39607,14.5873z"/><path d="M173.66543,372.5034c-9.97452,0 -18.06047,-5.90896 -18.06047,-13.19804c0,-7.28908 8.08595,-13.19804 18.06047,-13.19804c9.97452,0 18.06047,5.90896 18.06047,13.19804c0,7.28908 -8.08595,13.19804 -18.06047,13.19804z"/></g><g fill-opacity="0.3098" fill="#ffffff" stroke="none" stroke-width="0" stroke-linecap="butt"><path d="M391.80967,-43.2427c0,16.2924 -13.87917,29.5 -31,29.5c-17.12083,0 -31,-13.2076 -31,-29.5c0,-16.2924 13.87917,-29.5 31,-29.5c17.12083,0 31,13.2076 31,29.5z"/><path d="M408.80967,-60.2427c0,9.1127 -10.29745,16.5 -23,16.5c-12.70255,0 -23,-7.3873 -23,-16.5c0,-9.1127 10.29745,-16.5 23,-16.5c12.70255,0 23,7.3873 23,16.5z"/><path d="M407.80967,-17.2427c0,12.42641 -8.9543,22.5 -20,22.5c-11.0457,0 -20,-10.07359 -20,-22.5c0,-12.42641 8.9543,-22.5 20,-22.5c11.0457,0 20,10.07359 20,22.5z"/><path d="M350.80967,-29.2427c0,8.56041 -8.50659,15.5 -19,15.5c-10.49341,0 -19,-6.93959 -19,-15.5c0,-8.56041 8.50659,-15.5 19,-15.5c10.49341,0 19,6.93959 19,15.5z"/><path d="M396.80967,-33.7427c0,8.28427 -6.49187,15 -14.5,15c-8.00813,0 -14.5,-6.71573 -14.5,-15c0,-8.28427 6.49187,-15 14.5,-15c8.00813,0 14.5,6.71573 14.5,15z"/><path d="M427.80967,-31.7427c0,10.49341 -9.17816,19 -20.5,19c-11.32184,0 -20.5,-8.50659 -20.5,-19c0,-10.49341 9.17816,-19 20.5,-19c11.32184,0 20.5,8.50659 20.5,19z"/><path d="M428.80967,-49.7427c0,7.1797 -9.84974,13 -22,13c-12.15026,0 -22,-5.8203 -22,-13c0,-7.1797 9.84974,-13 22,-13c12.15026,0 22,5.8203 22,13z"/><path d="M354.80967,-42.7427c0,7.73199 -8.50659,14 -19,14c-10.49341,0 -19,-6.26801 -19,-14c0,-7.73199 8.50659,-14 19,-14c10.49341,0 19,6.26801 19,14z"/><path d="M388.80967,-45.7427c0,8.28427 -7.16345,15 -16,15c-8.83655,0 -16,-6.71573 -16,-15c0,-8.28427 7.16345,-15 16,-15c8.83655,0 16,6.71573 16,15z"/><path d="M323.80967,-26.2427c0,4.83249 -6.04415,8.75 -13.5,8.75c-7.45585,0 -13.5,-3.91751 -13.5,-8.75c0,-4.83249 6.04415,-8.75 13.5,-8.75c7.45585,0 13.5,3.91751 13.5,8.75z"/><path d="M457.80967,-37.2427c0,4.69442 -10.52131,8.5 -23.5,8.5c-12.97869,0 -23.5,-3.80558 -23.5,-8.5c0,-4.69442 10.52131,-8.5 23.5,-8.5c12.97869,0 23.5,3.80558 23.5,8.5z"/><path d="M379.80967,-13.7427c0,6.62742 -9.62588,12 -21.5,12c-11.87412,0 -21.5,-5.37258 -21.5,-12c0,-6.62741 9.62588,-12 21.5,-12c11.87412,0 21.5,5.37259 21.5,12z"/><path d="M338.80967,-39.7427c0,7.1797 -8.50659,13 -19,13c-10.49341,0 -19,-5.8203 -19,-13c0,-7.1797 8.50659,-13 19,-13c10.49341,0 19,5.8203 19,13z"/><path d="M331.80967,-48.2427c0,5.79899 -9.84974,10.5 -22,10.5c-12.15026,0 -22,-4.70101 -22,-10.5c0,-5.79899 9.84974,-10.5 22,-10.5c12.15026,0 22,4.70101 22,10.5z"/><path d="M379.80967,-22.7427c0,11.0457 -9.17816,20 -20.5,20c-11.32184,0 -20.5,-8.9543 -20.5,-20c0,-11.0457 9.17816,-20 20.5,-20c11.32184,0 20.5,8.9543 20.5,20z"/><path d="M389.80967,-52.7427c0,8.83656 -8.28273,16 -18.5,16c-10.21727,0 -18.5,-7.16344 -18.5,-16c0,-8.83656 8.28273,-16 18.5,-16c10.21727,0 18.5,7.16344 18.5,16z"/><path d="M348.80967,-47.7427c0,7.1797 -4.92487,13 -11,13c-6.07513,0 -11,-5.8203 -11,-13c0,-7.1797 4.92487,-13 11,-13c6.07513,0 11,5.8203 11,13z"/><path d="M318.80967,-29.7427c0,8.28427 -10.74516,15 -24,15c-13.25484,0 -24,-6.71573 -24,-15c0,-8.28427 10.74516,-15 24,-15c13.25484,0 24,6.71573 24,15z"/><path d="M335.80967,-19.2427c0,6.90356 -9.62588,12.5 -21.5,12.5c-11.87412,0 -21.5,-5.59644 -21.5,-12.5c0,-6.90356 9.62588,-12.5 21.5,-12.5c11.87412,0 21.5,5.59644 21.5,12.5z"/><path d="M432.80967,-24.2427c0,8.56042 -9.84974,15.5 -22,15.5c-12.15026,0 -22,-6.93958 -22,-15.5c0,-8.56041 9.84974,-15.5 22,-15.5c12.15026,0 22,6.93959 22,15.5z"/><path d="M445.80967,-23.2427c0,5.79899 -8.50659,10.5 -19,10.5c-10.49341,0 -19,-4.70101 -19,-10.5c0,-5.79899 8.50659,-10.5 19,-10.5c10.49341,0 19,4.70101 19,10.5z"/><path d="M314.80967,-35.2427c0,5.2467 -5.8203,9.5 -13,9.5c-7.1797,0 -13,-4.2533 -13,-9.5c0,-5.2467 5.8203,-9.5 13,-9.5c7.1797,0 13,4.2533 13,9.5z"/></g><g fill-opacity="0.3098" fill="#ffffff" stroke="none" stroke-width="0" stroke-linecap="butt"><path d="M28.9418,-59.26372c0,16.2924 -13.87917,29.5 -31,29.5c-17.12082,0 -31,-13.2076 -31,-29.5c0,-16.2924 13.87918,-29.5 31,-29.5c17.12083,0 31,13.2076 31,29.5z"/><path d="M45.9418,-76.26372c0,9.1127 -10.29745,16.5 -23,16.5c-12.70255,0 -23,-7.3873 -23,-16.5c0,-9.1127 10.29745,-16.5 23,-16.5c12.70255,0 23,7.3873 23,16.5z"/><path d="M44.9418,-33.26372c0,12.42641 -8.9543,22.5 -20,22.5c-11.04569,0 -20,-10.07359 -20,-22.5c0,-12.42641 8.9543,-22.5 20,-22.5c11.0457,0 20,10.07359 20,22.5z"/><path d="M-12.0582,-45.26372c0,8.56041 -8.50659,15.5 -19,15.5c-10.49341,0 -19,-6.93959 -19,-15.5c0,-8.56041 8.50659,-15.5 19,-15.5c10.49341,0 19,6.93959 19,15.5z"/><path d="M33.9418,-49.76372c0,8.28427 -6.49187,15 -14.5,15c-8.00813,0 -14.5,-6.71573 -14.5,-15c0,-8.28427 6.49187,-15 14.5,-15c8.00813,0 14.5,6.71573 14.5,15z"/><path d="M64.9418,-47.76372c0,10.49341 -9.17816,19 -20.5,19c-11.32183,0 -20.5,-8.50659 -20.5,-19c0,-10.49341 9.17817,-19 20.5,-19c11.32184,0 20.5,8.50659 20.5,19z"/><path d="M65.9418,-65.76372c0,7.1797 -9.84974,13 -22,13c-12.15026,0 -22,-5.8203 -22,-13c0,-7.1797 9.84974,-13 22,-13c12.15026,0 22,5.8203 22,13z"/><path d="M-8.0582,-58.76372c0,7.73199 -8.50659,14 -19,14c-10.49341,0 -19,-6.26801 -19,-14c0,-7.73199 8.50659,-14 19,-14c10.49341,0 19,6.26802 19,14z"/><path d="M25.9418,-61.76372c0,8.28427 -7.16344,15 -16,15c-8.83656,0 -16,-6.71573 -16,-15c0,-8.28427 7.16345,-15 16,-15c8.83656,0 16,6.71573 16,15z"/><path d="M-39.0582,-42.26372c0,4.83249 -6.04416,8.75 -13.5,8.75c-7.45584,0 -13.5,-3.91751 -13.5,-8.75c0,-4.83249 6.04416,-8.75 13.5,-8.75c7.45584,0 13.5,3.91751 13.5,8.75z"/><path d="M94.9418,-53.26372c0,4.69442 -10.52131,8.5 -23.5,8.5c-12.97869,0 -23.5,-3.80558 -23.5,-8.5c0,-4.69442 10.52131,-8.5 23.5,-8.5c12.97869,0 23.5,3.80558 23.5,8.5z"/><path d="M16.9418,-29.76372c0,6.62741 -9.62588,12 -21.5,12c-11.87412,0 -21.5,-5.37259 -21.5,-12c0,-6.62741 9.62588,-12 21.5,-12c11.87412,0 21.5,5.37259 21.5,12z"/><path d="M-24.0582,-55.76372c0,7.1797 -8.50659,13 -19,13c-10.49341,0 -19,-5.8203 -19,-13c0,-7.1797 8.50659,-13 19,-13c10.49341,0 19,5.8203 19,13z"/><path d="M-31.0582,-64.26372c0,5.79899 -9.84974,10.5 -22,10.5c-12.15027,0 -22,-4.70101 -22,-10.5c0,-5.79899 9.84973,-10.5 22,-10.5c12.15026,0 22,4.70101 22,10.5z"/><path d="M16.9418,-38.76372c0,11.0457 -9.17816,20 -20.5,20c-11.32183,0 -20.5,-8.9543 -20.5,-20c0,-11.0457 9.17817,-20 20.5,-20c11.32184,0 20.5,8.9543 20.5,20z"/><path d="M26.9418,-68.76372c0,8.83656 -8.28273,16 -18.5,16c-10.21727,0 -18.5,-7.16345 -18.5,-16c0,-8.83656 8.28273,-16 18.5,-16c10.21727,0 18.5,7.16344 18.5,16z"/><path d="M-14.0582,-63.76372c0,7.1797 -4.92487,13 -11,13c-6.07513,0 -11,-5.8203 -11,-13c0,-7.1797 4.92487,-13 11,-13c6.07513,0 11,5.8203 11,13z"/><path d="M-44.0582,-45.76372c0,8.28427 -10.74516,15 -24,15c-13.25483,0 -24,-6.71573 -24,-15c0,-8.28427 10.74517,-15 24,-15c13.25484,0 24,6.71573 24,15z"/><path d="M-27.0582,-35.26372c0,6.90356 -9.62588,12.5 -21.5,12.5c-11.87412,0 -21.5,-5.59644 -21.5,-12.5c0,-6.90356 9.62588,-12.5 21.5,-12.5c11.87412,0 21.5,5.59644 21.5,12.5z"/><path d="M69.9418,-40.26372c0,8.56041 -9.84974,15.5 -22,15.5c-12.15026,0 -22,-6.93959 -22,-15.5c0,-8.56041 9.84974,-15.5 22,-15.5c12.15026,0 22,6.93959 22,15.5z"/><path d="M82.9418,-39.26372c0,5.79899 -8.50659,10.5 -19,10.5c-10.49341,0 -19,-4.70101 -19,-10.5c0,-5.79899 8.50659,-10.5 19,-10.5c10.49341,0 19,4.70101 19,10.5z"/><path d="M-48.0582,-51.26372c0,5.2467 -5.8203,9.5 -13,9.5c-7.1797,0 -13,-4.2533 -13,-9.5c0,-5.2467 5.8203,-9.5 13,-9.5c7.1797,0 13,4.2533 13,9.5z"/></g><g fill-opacity="0.05882" fill="#ffffff" stroke="none" stroke-width="0" stroke-linecap="butt"><path d="M35.41361,66.34171c0,5.89651 -5.02311,10.67658 -11.21944,10.67658c-6.19633,0 -11.21945,-4.78007 -11.21945,-10.67657c0,-5.8965 5.02312,-10.67656 11.21945,-10.67656c6.19633,0 11.21944,4.78006 11.21944,10.67656z"/><path d="M41.56621,60.18912c0,3.29805 -3.72683,5.97164 -8.3241,5.97164c-4.59727,0 -8.32411,-2.67359 -8.32411,-5.97164c0,-3.29805 3.72683,-5.97164 8.32411,-5.97164c4.59728,0 8.3241,2.67359 8.3241,5.97164z"/><path d="M41.20429,75.75158c0,4.49733 -3.24072,8.14315 -7.23835,8.14315c-3.99763,0 -7.23836,-3.64581 -7.23836,-8.14315c0,-4.49733 3.24073,-8.14315 7.23836,-8.14315c3.99763,0 7.23835,3.64581 7.23835,8.14315z"/><path d="M20.57499,71.40857c0,3.09816 -3.07868,5.60972 -6.87643,5.60972c-3.79775,0 -6.87644,-2.51156 -6.87644,-5.60972c0,-3.09816 3.07869,-5.60972 6.87644,-5.60972c3.79775,0 6.87643,2.51156 6.87643,5.60972z"/><path d="M37.22319,69.77993c0,2.99822 -2.34951,5.42876 -5.2478,5.42876c-2.89829,0 -5.24781,-2.43054 -5.24781,-5.42876c0,-2.99822 2.34952,-5.42876 5.24781,-5.42876c2.89829,0 5.2478,2.43054 5.2478,5.42876z"/><path d="M48.44264,70.50377c0,3.79775 -3.32173,6.87644 -7.4193,6.87644c-4.09757,0 -7.41932,-3.07869 -7.41932,-6.87644c0,-3.79775 3.32175,-6.87644 7.41932,-6.87644c4.09757,0 7.4193,3.07869 7.4193,6.87644z"/><path d="M48.80456,63.98926c0,2.59846 -3.56479,4.70493 -7.96219,4.70493c-4.3974,0 -7.96219,-2.10646 -7.96219,-4.70493c0,-2.59846 3.56479,-4.70493 7.96219,-4.70493c4.3974,0 7.96219,2.10647 7.96219,4.70493z"/><path d="M22.02266,66.52268c0,2.79834 -3.07868,5.06685 -6.87643,5.06685c-3.79775,0 -6.87643,-2.26851 -6.87643,-5.06685c0,-2.79834 3.07868,-5.06684 6.87643,-5.06684c3.79775,0 6.87643,2.2685 6.87643,5.06684z"/><path d="M34.32786,65.43693c0,2.99822 -2.59257,5.42876 -5.79068,5.42876c-3.19811,0 -5.79068,-2.43054 -5.79068,-5.42876c0,-2.99822 2.59258,-5.42877 5.79068,-5.42877c3.19811,0 5.79068,2.43055 5.79068,5.42877z"/><path d="M10.80322,72.49432c0,1.74896 -2.18749,3.16678 -4.88589,3.16678c-2.6984,0 -4.88588,-1.41782 -4.88588,-3.16678c0,-1.74896 2.18749,-3.16678 4.88589,-3.16678c2.6984,0 4.88589,1.41781 4.88589,3.16678z"/><path d="M59.30018,68.51322c0,1.69899 -3.80786,3.0763 -8.50507,3.0763c-4.69721,0 -8.50506,-1.37731 -8.50506,-3.0763c0,-1.69899 3.80785,-3.0763 8.50506,-3.0763c4.69722,0 8.50507,1.37731 8.50507,3.0763z"/><path d="M31.0706,77.01829c0,2.39858 -3.48377,4.34301 -7.78122,4.34301c-4.29745,0 -7.78123,-1.94443 -7.78123,-4.34301c0,-2.39858 3.48378,-4.34301 7.78123,-4.34301c4.29745,0 7.78122,1.94443 7.78122,4.34301z"/><path d="M16.23198,67.60843c0,2.59846 -3.07869,4.70493 -6.87644,4.70493c-3.79775,0 -6.87643,-2.10646 -6.87643,-4.70493c0,-2.59846 3.07868,-4.70493 6.87643,-4.70493c3.79775,0 6.87644,2.10647 6.87644,4.70493z"/><path d="M13.69856,64.53213c0,2.09875 -3.56479,3.80013 -7.96219,3.80013c-4.3974,0 -7.96218,-1.70138 -7.96218,-3.80013c0,-2.09875 3.56479,-3.80013 7.96219,-3.80013c4.3974,0 7.96219,1.70138 7.96219,3.80013z"/><path d="M31.0706,73.76103c0,3.99763 -3.32174,7.23835 -7.41931,7.23835c-4.09757,0 -7.41931,-3.24072 -7.41931,-7.23835c0,-3.99763 3.32174,-7.23835 7.41931,-7.23835c4.09757,0 7.41931,3.24072 7.41931,7.23835z"/><path d="M34.68977,62.9035c0,3.19811 -2.99766,5.79068 -6.69547,5.79068c-3.69781,0 -6.69548,-2.59257 -6.69548,-5.79068c0,-3.1981 2.99767,-5.79068 6.69548,-5.79068c3.69781,0 6.69547,2.59258 6.69547,5.79068z"/><path d="M19.85115,64.71309c0,2.59846 -1.7824,4.70493 -3.98109,4.70493c-2.19869,0 -3.98109,-2.10647 -3.98109,-4.70493c0,-2.59846 1.7824,-4.70493 3.9811,-4.70493c2.19869,0 3.98109,2.10647 3.98109,4.70493z"/><path d="M8.99363,71.22761c0,2.99822 -3.88886,5.42876 -8.68602,5.42876c-4.79715,0 -8.68603,-2.43054 -8.68603,-5.42876c0,-2.99822 3.88887,-5.42876 8.68603,-5.42876c4.79716,0 8.68602,2.43054 8.68602,5.42876z"/><path d="M15.14623,75.02774c0,2.49852 -3.48378,4.52397 -7.78123,4.52397c-4.29745,0 -7.78123,-2.02545 -7.78123,-4.52397c0,-2.49852 3.48378,-4.52397 7.78123,-4.52397c4.29745,0 7.78123,2.02545 7.78123,4.52397z"/><path d="M50.25223,73.21816c0,3.09816 -3.56479,5.60972 -7.96218,5.60972c-4.3974,0 -7.96219,-2.51156 -7.96219,-5.60972c0,-3.09816 3.56479,-5.60972 7.96219,-5.60972c4.3974,0 7.96218,2.51156 7.96218,5.60972z"/><path d="M54.95716,73.58007c0,2.09875 -3.07868,3.80013 -6.87644,3.80013c-3.79775,0 -6.87644,-1.70138 -6.87644,-3.80013c0,-2.09875 3.07869,-3.80014 6.87644,-3.80014c3.79775,0 6.87644,1.70138 6.87644,3.80014z"/><path d="M7.54596,69.23706c0,1.89888 -2.10647,3.43821 -4.70493,3.43821c-2.59846,0 -4.70493,-1.53934 -4.70493,-3.43821c0,-1.89888 2.10647,-3.43822 4.70493,-3.43822c2.59846,0 4.70493,1.53934 4.70493,3.43822z"/></g><g fill-opacity="0.05882" fill="#ffffff" stroke="none" stroke-width="0" stroke-linecap="butt"><path d="M238.61181,-2.71438c0,5.89651 -5.02311,10.67658 -11.21944,10.67658c-6.19633,0 -11.21945,-4.78007 -11.21945,-10.67657c0,-5.89651 5.02312,-10.67656 11.21945,-10.67656c6.19633,0 11.21944,4.78006 11.21944,10.67657z"/><path d="M244.76441,-8.86698c0,3.29805 -3.72683,5.97164 -8.32411,5.97164c-4.59727,0 -8.32411,-2.67359 -8.32411,-5.97164c0,-3.29804 3.72683,-5.97164 8.32411,-5.97164c4.59727,0 8.32411,2.6736 8.32411,5.97164z"/><path d="M244.40249,6.69548c0,4.49733 -3.24072,8.14315 -7.23835,8.14315c-3.99763,0 -7.23836,-3.64581 -7.23836,-8.14314c0,-4.49733 3.24073,-8.14314 7.23836,-8.14314c3.99763,0 7.23835,3.64581 7.23835,8.14315z"/><path d="M223.77319,2.35247c0,3.09817 -3.07868,5.60972 -6.87643,5.60972c-3.79775,0 -6.87644,-2.51156 -6.87644,-5.60972c0,-3.09816 3.07869,-5.60972 6.87644,-5.60972c3.79775,0 6.87643,2.51156 6.87643,5.60973z"/><path d="M240.4214,0.72384c0,2.99822 -2.34951,5.42876 -5.2478,5.42876c-2.89828,0 -5.24781,-2.43054 -5.24781,-5.42876c0,-2.99822 2.34953,-5.42876 5.24781,-5.42876c2.89828,0 5.2478,2.43055 5.2478,5.42877z"/><path d="M251.64084,1.44767c0,3.79775 -3.32174,6.87643 -7.41931,6.87643c-4.09757,0 -7.41931,-3.07868 -7.41931,-6.87643c0,-3.79775 3.32174,-6.87644 7.41931,-6.87644c4.09757,0 7.41931,3.07869 7.41931,6.87644z"/><path d="M252.00276,-5.06684c0,2.59846 -3.56479,4.70492 -7.96219,4.70492c-4.39739,0 -7.96219,-2.10646 -7.96219,-4.70492c0,-2.59846 3.5648,-4.70493 7.96219,-4.70493c4.39739,0 7.96219,2.10647 7.96219,4.70493z"/><path d="M225.22086,-2.53342c0,2.79834 -3.07868,5.06685 -6.87643,5.06685c-3.79775,0 -6.87644,-2.26851 -6.87644,-5.06685c0,-2.79834 3.07869,-5.06684 6.87644,-5.06684c3.79775,0 6.87643,2.2685 6.87643,5.06684z"/><path d="M237.52606,-3.61917c0,2.99822 -2.59258,5.42876 -5.79068,5.42876c-3.1981,0 -5.79068,-2.43054 -5.79068,-5.42876c0,-2.99822 2.59258,-5.42876 5.79068,-5.42876c3.1981,0 5.79068,2.43055 5.79068,5.42877z"/><path d="M214.00142,3.43822c0,1.74896 -2.18749,3.16678 -4.88589,3.16678c-2.6984,0 -4.88589,-1.41781 -4.88589,-3.16678c0,-1.74896 2.18749,-3.16677 4.88589,-3.16677c2.6984,0 4.88589,1.41781 4.88589,3.16678z"/><path d="M262.49838,-0.54288c0,1.69899 -3.80786,3.0763 -8.50507,3.0763c-4.69721,0 -8.50506,-1.37731 -8.50506,-3.0763c0,-1.69899 3.80784,-3.07629 8.50506,-3.07629c4.69722,0 8.50507,1.3773 8.50507,3.0763z"/><path d="M234.2688,7.96219c0,2.39858 -3.48378,4.34301 -7.78123,4.34301c-4.29745,0 -7.78123,-1.94443 -7.78123,-4.34301c0,-2.39858 3.48378,-4.34301 7.78123,-4.34301c4.29745,0 7.78123,1.94444 7.78123,4.34301z"/><path d="M219.43018,-1.44767c0,2.59846 -3.07869,4.70492 -6.87644,4.70492c-3.79775,0 -6.87643,-2.10646 -6.87643,-4.70492c0,-2.59846 3.07868,-4.70493 6.87643,-4.70493c3.79775,0 6.87644,2.10647 6.87644,4.70493z"/><path d="M216.89676,-4.52397c0,2.09876 -3.5648,3.80013 -7.96219,3.80013c-4.39739,0 -7.96219,-1.70137 -7.96219,-3.80013c0,-2.09876 3.56479,-3.80013 7.96219,-3.80013c4.39739,0 7.96219,1.70138 7.96219,3.80013z"/><path d="M234.2688,4.70493c0,3.99763 -3.32174,7.23835 -7.41931,7.23835c-4.09757,0 -7.4193,-3.24072 -7.4193,-7.23835c0,-3.99763 3.32173,-7.23835 7.4193,-7.23835c4.09757,0 7.41931,3.24073 7.41931,7.23836z"/><path d="M237.88798,-6.1526c0,3.19811 -2.99767,5.79068 -6.69548,5.79068c-3.69781,0 -6.69548,-2.59257 -6.69548,-5.79068c0,-3.1981 2.99767,-5.79068 6.69548,-5.79068c3.69781,0 6.69548,2.59258 6.69548,5.79068z"/><path d="M223.04935,-4.34301c0,2.59846 -1.7824,4.70493 -3.98109,4.70493c-2.19869,0 -3.9811,-2.10647 -3.9811,-4.70493c0,-2.59846 1.7824,-4.70493 3.9811,-4.70493c2.19869,0 3.98109,2.10647 3.98109,4.70493z"/><path d="M212.19183,2.1715c0,2.99822 -3.88886,5.42877 -8.68602,5.42877c-4.79716,0 -8.68603,-2.43055 -8.68603,-5.42876c0,-2.99822 3.88887,-5.42876 8.68603,-5.42876c4.79716,0 8.68602,2.43055 8.68602,5.42877z"/><path d="M218.34443,5.97164c0,2.49852 -3.48378,4.52397 -7.78123,4.52397c-4.29745,0 -7.78123,-2.02545 -7.78123,-4.52397c0,-2.49852 3.48378,-4.52397 7.78123,-4.52397c4.29745,0 7.78123,2.02545 7.78123,4.52397z"/><path d="M253.45043,4.16205c0,3.09817 -3.56479,5.60972 -7.96219,5.60972c-4.39739,0 -7.96219,-2.51156 -7.96219,-5.60972c0,-3.09816 3.5648,-5.60972 7.96219,-5.60972c4.39739,0 7.96219,2.51156 7.96219,5.60972z"/><path d="M258.15536,4.52397c0,2.09876 -3.07868,3.80013 -6.87643,3.80013c-3.79775,0 -6.87643,-1.70138 -6.87643,-3.80013c0,-2.09876 3.07868,-3.80013 6.87643,-3.80013c3.79775,0 6.87643,1.70138 6.87643,3.80014z"/><path d="M210.74416,0.18096c0,1.89888 -2.10647,3.43821 -4.70493,3.43821c-2.59846,0 -4.70493,-1.53934 -4.70493,-3.43821c0,-1.89887 2.10647,-3.43822 4.70493,-3.43822c2.59846,0 4.70493,1.53935 4.70493,3.43822z"/></g><g fill-opacity="0.05882" fill="#ffffff" stroke="none" stroke-width="0" stroke-linecap="butt"><path d="M180.54875,44.32766c0,5.8965 -5.02312,10.67658 -11.21945,10.67658c-6.19633,0 -11.21944,-4.78007 -11.21944,-10.67657c0,-5.8965 5.02311,-10.67656 11.21944,-10.67656c6.19633,0 11.21945,4.78006 11.21945,10.67656z"/><path d="M186.70135,38.17506c0,3.29805 -3.72683,5.97164 -8.32411,5.97164c-4.59727,0 -8.32411,-2.67359 -8.32411,-5.97164c0,-3.29805 3.72683,-5.97164 8.32411,-5.97164c4.59727,0 8.32411,2.67359 8.32411,5.97164z"/><path d="M186.33943,53.73752c0,4.49733 -3.24072,8.14314 -7.23835,8.14314c-3.99763,0 -7.23836,-3.64581 -7.23836,-8.14314c0,-4.49733 3.24073,-8.14315 7.23836,-8.14315c3.99763,0 7.23835,3.64581 7.23835,8.14315z"/><path d="M165.71013,49.39451c0,3.09817 -3.07869,5.60972 -6.87644,5.60972c-3.79775,0 -6.87643,-2.51156 -6.87643,-5.60972c0,-3.09817 3.07868,-5.60973 6.87643,-5.60973c3.79775,0 6.87644,2.51156 6.87644,5.60973z"/><path d="M182.35833,47.76588c0,2.99822 -2.34951,5.42876 -5.2478,5.42876c-2.89828,0 -5.24781,-2.43055 -5.24781,-5.42876c0,-2.99822 2.34953,-5.42876 5.24781,-5.42876c2.89828,0 5.2478,2.43055 5.2478,5.42876z"/><path d="M193.57778,48.48971c0,3.79775 -3.32174,6.87644 -7.41931,6.87644c-4.09757,0 -7.41931,-3.07868 -7.41931,-6.87644c0,-3.79775 3.32174,-6.87644 7.41931,-6.87644c4.09757,0 7.41931,3.07869 7.41931,6.87644z"/><path d="M193.9397,41.9752c0,2.59846 -3.56479,4.70493 -7.96219,4.70493c-4.39739,0 -7.96219,-2.10646 -7.96219,-4.70493c0,-2.59846 3.5648,-4.70493 7.96219,-4.70493c4.39739,0 7.96219,2.10647 7.96219,4.70493z"/><path d="M167.1578,44.50862c0,2.79834 -3.07868,5.06685 -6.87643,5.06685c-3.79775,0 -6.87644,-2.26851 -6.87644,-5.06685c0,-2.79834 3.07869,-5.06684 6.87644,-5.06684c3.79775,0 6.87643,2.2685 6.87643,5.06684z"/><path d="M179.46299,43.42287c0,2.99822 -2.59257,5.42876 -5.79068,5.42876c-3.1981,0 -5.79068,-2.43054 -5.79068,-5.42876c0,-2.99822 2.59258,-5.42876 5.79068,-5.42876c3.1981,0 5.79068,2.43054 5.79068,5.42876z"/><path d="M155.93835,50.48026c0,1.74896 -2.18749,3.16678 -4.88589,3.16678c-2.6984,0 -4.88589,-1.41782 -4.88589,-3.16678c0,-1.74896 2.18749,-3.16678 4.88589,-3.16678c2.6984,0 4.88589,1.41781 4.88589,3.16678z"/><path d="M204.43531,46.49916c0,1.69899 -3.80785,3.0763 -8.50507,3.0763c-4.69721,0 -8.50506,-1.37731 -8.50506,-3.0763c0,-1.69899 3.80784,-3.0763 8.50506,-3.0763c4.69722,0 8.50507,1.3773 8.50507,3.0763z"/><path d="M176.20573,55.00423c0,2.39858 -3.48377,4.34301 -7.78122,4.34301c-4.29745,0 -7.78123,-1.94443 -7.78123,-4.34301c0,-2.39858 3.48378,-4.34302 7.78123,-4.34302c4.29745,0 7.78122,1.94443 7.78122,4.34302z"/><path d="M161.36712,45.59437c0,2.59846 -3.07869,4.70493 -6.87644,4.70493c-3.79775,0 -6.87643,-2.10646 -6.87643,-4.70493c0,-2.59846 3.07868,-4.70493 6.87643,-4.70493c3.79775,0 6.87644,2.10647 6.87644,4.70493z"/><path d="M158.83369,42.51807c0,2.09875 -3.5648,3.80013 -7.96219,3.80013c-4.39739,0 -7.96219,-1.70137 -7.96219,-3.80013c0,-2.09875 3.56479,-3.80014 7.96219,-3.80014c4.39739,0 7.96219,1.70138 7.96219,3.80014z"/><path d="M176.20573,51.74697c0,3.99763 -3.32174,7.23835 -7.41931,7.23835c-4.09757,0 -7.4193,-3.24072 -7.4193,-7.23835c0,-3.99763 3.32173,-7.23835 7.4193,-7.23835c4.09757,0 7.41931,3.24072 7.41931,7.23835z"/><path d="M179.82491,40.88944c0,3.1981 -2.99766,5.79068 -6.69547,5.79068c-3.69781,0 -6.69548,-2.59258 -6.69548,-5.79068c0,-3.1981 2.99767,-5.79068 6.69548,-5.79068c3.69781,0 6.69547,2.59258 6.69547,5.79068z"/><path d="M164.98629,42.69903c0,2.59846 -1.7824,4.70493 -3.98109,4.70493c-2.19869,0 -3.98109,-2.10647 -3.98109,-4.70493c0,-2.59846 1.7824,-4.70493 3.98109,-4.70493c2.19869,0 3.98109,2.10647 3.98109,4.70493z"/><path d="M154.12876,49.21355c0,2.99822 -3.88887,5.42876 -8.68602,5.42876c-4.79716,0 -8.68602,-2.43055 -8.68602,-5.42876c0,-2.99822 3.88887,-5.42877 8.68602,-5.42877c4.79716,0 8.68602,2.43055 8.68602,5.42877z"/><path d="M160.28136,53.01368c0,2.49852 -3.48378,4.52397 -7.78123,4.52397c-4.29745,0 -7.78123,-2.02545 -7.78123,-4.52397c0,-2.49852 3.48378,-4.52397 7.78123,-4.52397c4.29745,0 7.78123,2.02545 7.78123,4.52397z"/><path d="M195.38737,51.2041c0,3.09817 -3.56479,5.60972 -7.96218,5.60972c-4.39739,0 -7.96219,-2.51155 -7.96219,-5.60972c0,-3.09817 3.5648,-5.60973 7.96219,-5.60973c4.39739,0 7.96218,2.51156 7.96218,5.60973z"/><path d="M200.0923,51.56601c0,2.09875 -3.07869,3.80014 -6.87644,3.80014c-3.79775,0 -6.87643,-1.70138 -6.87643,-3.80014c0,-2.09875 3.07868,-3.80013 6.87643,-3.80013c3.79775,0 6.87644,1.70138 6.87644,3.80013z"/><path d="M152.68109,47.223c0,1.89887 -2.10647,3.43821 -4.70493,3.43821c-2.59846,0 -4.70493,-1.53934 -4.70493,-3.43821c0,-1.89887 2.10647,-3.43822 4.70493,-3.43822c2.59846,0 4.70493,1.53935 4.70493,3.43822z"/></g><g fill-opacity="0.05882" fill="#ffffff" stroke="none" stroke-width="0" stroke-linecap="butt"><path d="M474.64052,85.36369c0,5.89651 -5.02312,10.67658 -11.21945,10.67658c-6.19633,0 -11.21944,-4.78007 -11.21944,-10.67657c0,-5.89651 5.02311,-10.67657 11.21944,-10.67657c6.19633,0 11.21945,4.78006 11.21945,10.67657z"/><path d="M480.79312,79.2111c0,3.29805 -3.72683,5.97164 -8.3241,5.97164c-4.59728,0 -8.32411,-2.67359 -8.32411,-5.97164c0,-3.29805 3.72683,-5.97164 8.32411,-5.97164c4.59728,0 8.3241,2.67359 8.3241,5.97164z"/><path d="M480.4312,94.77355c0,4.49733 -3.24072,8.14315 -7.23835,8.14315c-3.99763,0 -7.23836,-3.64581 -7.23836,-8.14315c0,-4.49733 3.24072,-8.14315 7.23836,-8.14315c3.99763,0 7.23835,3.64581 7.23835,8.14315z"/><path d="M459.8019,90.43054c0,3.09816 -3.07869,5.60973 -6.87644,5.60973c-3.79775,0 -6.87643,-2.51156 -6.87643,-5.60973c0,-3.09816 3.07868,-5.60972 6.87643,-5.60972c3.79775,0 6.87644,2.51156 6.87644,5.60972z"/><path d="M476.45011,88.80191c0,2.99822 -2.34951,5.42876 -5.2478,5.42876c-2.89828,0 -5.24781,-2.43054 -5.24781,-5.42876c0,-2.99822 2.34953,-5.42877 5.24781,-5.42877c2.89828,0 5.2478,2.43055 5.2478,5.42877z"/><path d="M487.66955,89.52575c0,3.79775 -3.32173,6.87644 -7.41931,6.87644c-4.09757,0 -7.41931,-3.07869 -7.41931,-6.87644c0,-3.79775 3.32174,-6.87644 7.41931,-6.87644c4.09757,0 7.41931,3.07869 7.41931,6.87644z"/><path d="M488.03147,83.01123c0,2.59846 -3.56479,4.70493 -7.96219,4.70493c-4.3974,0 -7.96219,-2.10646 -7.96219,-4.70493c0,-2.59846 3.56479,-4.70493 7.96219,-4.70493c4.3974,0 7.96219,2.10647 7.96219,4.70493z"/><path d="M461.24957,85.54465c0,2.79834 -3.07869,5.06685 -6.87644,5.06685c-3.79775,0 -6.87644,-2.26851 -6.87644,-5.06685c0,-2.79834 3.07869,-5.06684 6.87644,-5.06684c3.79775,0 6.87644,2.2685 6.87644,5.06684z"/><path d="M473.55477,84.4589c0,2.99822 -2.59257,5.42876 -5.79068,5.42876c-3.1981,0 -5.79068,-2.43054 -5.79068,-5.42876c0,-2.99822 2.59258,-5.42876 5.79068,-5.42876c3.1981,0 5.79068,2.43054 5.79068,5.42876z"/><path d="M450.03013,91.51629c0,1.74896 -2.18749,3.16678 -4.88589,3.16678c-2.6984,0 -4.88588,-1.41782 -4.88588,-3.16678c0,-1.74896 2.18748,-3.16678 4.88588,-3.16678c2.6984,0 4.88589,1.41781 4.88589,3.16678z"/><path d="M498.52709,87.5352c0,1.69899 -3.80785,3.07631 -8.50507,3.07631c-4.69722,0 -8.50506,-1.37732 -8.50506,-3.07631c0,-1.69899 3.80784,-3.0763 8.50506,-3.0763c4.69722,0 8.50507,1.37731 8.50507,3.0763z"/><path d="M470.29751,96.04027c0,2.39858 -3.48377,4.34301 -7.78123,4.34301c-4.29745,0 -7.78123,-1.94443 -7.78123,-4.34301c0,-2.39858 3.48378,-4.34302 7.78123,-4.34302c4.29745,0 7.78123,1.94444 7.78123,4.34302z"/><path d="M455.45889,86.63041c0,2.59846 -3.07869,4.70493 -6.87644,4.70493c-3.79775,0 -6.87643,-2.10646 -6.87643,-4.70493c0,-2.59846 3.07868,-4.70493 6.87643,-4.70493c3.79775,0 6.87644,2.10647 6.87644,4.70493z"/><path d="M452.92547,83.55411c0,2.09875 -3.56479,3.80013 -7.96219,3.80013c-4.3974,0 -7.96219,-1.70137 -7.96219,-3.80013c0,-2.09875 3.56479,-3.80014 7.96219,-3.80014c4.3974,0 7.96219,1.70138 7.96219,3.80014z"/><path d="M470.29751,92.78301c0,3.99763 -3.32174,7.23835 -7.41931,7.23835c-4.09757,0 -7.41931,-3.24072 -7.41931,-7.23835c0,-3.99763 3.32173,-7.23835 7.41931,-7.23835c4.09757,0 7.41931,3.24072 7.41931,7.23835z"/><path d="M473.91669,81.92548c0,3.1981 -2.99766,5.79068 -6.69547,5.79068c-3.69781,0 -6.69548,-2.59257 -6.69548,-5.79068c0,-3.1981 2.99767,-5.79068 6.69548,-5.79068c3.69781,0 6.69547,2.59258 6.69547,5.79068z"/><path d="M459.07806,83.73507c0,2.59846 -1.7824,4.70493 -3.98109,4.70493c-2.19869,0 -3.98109,-2.10647 -3.98109,-4.70493c0,-2.59846 1.7824,-4.70493 3.98109,-4.70493c2.19869,0 3.98109,2.10647 3.98109,4.70493z"/><path d="M448.22054,90.24958c0,2.99822 -3.88887,5.42876 -8.68602,5.42876c-4.79715,0 -8.68602,-2.43054 -8.68602,-5.42876c0,-2.99822 3.88887,-5.42876 8.68602,-5.42876c4.79715,0 8.68602,2.43054 8.68602,5.42876z"/><path d="M454.37314,94.04972c0,2.49852 -3.48378,4.52397 -7.78123,4.52397c-4.29745,0 -7.78123,-2.02545 -7.78123,-4.52397c0,-2.49852 3.48378,-4.52397 7.78123,-4.52397c4.29745,0 7.78123,2.02545 7.78123,4.52397z"/><path d="M489.47914,92.24013c0,3.09816 -3.56479,5.60972 -7.96218,5.60972c-4.3974,0 -7.96219,-2.51156 -7.96219,-5.60972c0,-3.09816 3.5648,-5.60972 7.96219,-5.60972c4.3974,0 7.96218,2.51156 7.96218,5.60972z"/><path d="M494.18407,92.60205c0,2.09875 -3.07869,3.80013 -6.87644,3.80013c-3.79775,0 -6.87644,-1.70138 -6.87644,-3.80013c0,-2.09875 3.07869,-3.80013 6.87644,-3.80013c3.79775,0 6.87644,1.70138 6.87644,3.80013z"/><path d="M446.77287,88.25904c0,1.89888 -2.10647,3.43821 -4.70493,3.43821c-2.59846,0 -4.70493,-1.53934 -4.70493,-3.43821c0,-1.89888 2.10647,-3.43822 4.70493,-3.43822c2.59846,0 4.70493,1.53934 4.70493,3.43822z"/></g><g fill-opacity="0.05882" fill="#ffffff" stroke="none" stroke-width="0" stroke-linecap="butt"><path d="M632.79368,-20.74742c0,5.89651 -5.02312,10.67658 -11.21945,10.67658c-6.19633,0 -11.21944,-4.78007 -11.21944,-10.67658c0,-5.89651 5.02311,-10.67656 11.21944,-10.67656c6.19633,0 11.21945,4.78006 11.21945,10.67656z"/><path d="M638.94628,-26.90001c0,3.29804 -3.72683,5.97164 -8.32411,5.97164c-4.59727,0 -8.32411,-2.6736 -8.32411,-5.97164c0,-3.29804 3.72683,-5.97164 8.32411,-5.97164c4.59727,0 8.32411,2.67359 8.32411,5.97164z"/><path d="M638.58435,-11.33756c0,4.49733 -3.24072,8.14315 -7.23835,8.14315c-3.99763,0 -7.23835,-3.64581 -7.23835,-8.14314c0,-4.49733 3.24072,-8.14314 7.23835,-8.14314c3.99763,0 7.23835,3.64581 7.23835,8.14315z"/><path d="M617.95506,-15.68057c0,3.09817 -3.07869,5.60972 -6.87644,5.60972c-3.79775,0 -6.87644,-2.51156 -6.87644,-5.60972c0,-3.09816 3.07869,-5.60973 6.87644,-5.60973c3.79775,0 6.87644,2.51156 6.87644,5.60973z"/><path d="M634.60326,-17.3092c0,2.99822 -2.34951,5.42877 -5.2478,5.42877c-2.89828,0 -5.24781,-2.43055 -5.24781,-5.42876c0,-2.99822 2.34952,-5.42876 5.24781,-5.42876c2.89828,0 5.2478,2.43054 5.2478,5.42876z"/><path d="M645.82271,-16.58536c0,3.79775 -3.32173,6.87643 -7.41931,6.87643c-4.09757,0 -7.41931,-3.07868 -7.41931,-6.87643c0,-3.79775 3.32174,-6.87644 7.41931,-6.87644c4.09757,0 7.41931,3.07869 7.41931,6.87644z"/><path d="M646.18463,-23.09988c0,2.59846 -3.56479,4.70492 -7.96218,4.70492c-4.39739,0 -7.96219,-2.10646 -7.96219,-4.70492c0,-2.59846 3.5648,-4.70493 7.96219,-4.70493c4.39739,0 7.96218,2.10647 7.96218,4.70493z"/><path d="M619.40273,-20.56646c0,2.79834 -3.07869,5.06685 -6.87644,5.06685c-3.79775,0 -6.87644,-2.26851 -6.87644,-5.06685c0,-2.79834 3.07869,-5.06684 6.87644,-5.06684c3.79775,0 6.87644,2.2685 6.87644,5.06684z"/><path d="M631.70792,-21.65221c0,2.99822 -2.59257,5.42876 -5.79068,5.42876c-3.19811,0 -5.79068,-2.43054 -5.79068,-5.42876c0,-2.99822 2.59257,-5.42876 5.79068,-5.42876c3.19811,0 5.79068,2.43054 5.79068,5.42876z"/><path d="M608.18328,-14.59482c0,1.74897 -2.18749,3.16678 -4.88589,3.16678c-2.6984,0 -4.88588,-1.41782 -4.88588,-3.16678c0,-1.74896 2.18748,-3.16677 4.88588,-3.16677c2.6984,0 4.88589,1.41781 4.88589,3.16677z"/><path d="M656.68024,-18.57591c0,1.69899 -3.80786,3.0763 -8.50507,3.0763c-4.69722,0 -8.50506,-1.37731 -8.50506,-3.0763c0,-1.69899 3.80784,-3.0763 8.50506,-3.0763c4.69722,0 8.50507,1.37731 8.50507,3.0763z"/><path d="M628.45066,-10.07084c0,2.39858 -3.48377,4.34301 -7.78122,4.34301c-4.29745,0 -7.78123,-1.94443 -7.78123,-4.34301c0,-2.39858 3.48378,-4.34301 7.78123,-4.34301c4.29745,0 7.78122,1.94443 7.78122,4.34301z"/><path d="M613.61205,-19.4807c0,2.59846 -3.07869,4.70493 -6.87644,4.70493c-3.79775,0 -6.87643,-2.10647 -6.87643,-4.70493c0,-2.59846 3.07868,-4.70493 6.87643,-4.70493c3.79775,0 6.87644,2.10647 6.87644,4.70493z"/><path d="M611.07862,-22.557c0,2.09876 -3.5648,3.80013 -7.96219,3.80013c-4.39739,0 -7.96219,-1.70137 -7.96219,-3.80013c0,-2.09876 3.56479,-3.80014 7.96219,-3.80014c4.39739,0 7.96219,1.70138 7.96219,3.80014z"/><path d="M628.45066,-13.3281c0,3.99763 -3.32174,7.23835 -7.41931,7.23835c-4.09757,0 -7.41931,-3.24072 -7.41931,-7.23835c0,-3.99763 3.32173,-7.23835 7.41931,-7.23835c4.09757,0 7.41931,3.24072 7.41931,7.23835z"/><path d="M632.06984,-24.18563c0,3.19811 -2.99766,5.79068 -6.69547,5.79068c-3.69781,0 -6.69548,-2.59257 -6.69548,-5.79068c0,-3.19811 2.99767,-5.79068 6.69548,-5.79068c3.69781,0 6.69547,2.59257 6.69547,5.79068z"/><path d="M617.23122,-22.37604c0,2.59846 -1.78239,4.70493 -3.98109,4.70493c-2.1987,0 -3.98109,-2.10647 -3.98109,-4.70493c0,-2.59846 1.7824,-4.70493 3.98109,-4.70493c2.1987,0 3.98109,2.10647 3.98109,4.70493z"/><path d="M606.37369,-15.86153c0,2.99822 -3.88887,5.42877 -8.68602,5.42877c-4.79715,0 -8.68602,-2.43055 -8.68602,-5.42876c0,-2.99822 3.88887,-5.42876 8.68602,-5.42876c4.79715,0 8.68602,2.43055 8.68602,5.42877z"/><path d="M612.52629,-12.06139c0,2.49852 -3.48378,4.52397 -7.78123,4.52397c-4.29745,0 -7.78123,-2.02545 -7.78123,-4.52397c0,-2.49852 3.48378,-4.52397 7.78123,-4.52397c4.29745,0 7.78123,2.02545 7.78123,4.52397z"/><path d="M647.6323,-13.87098c0,3.09817 -3.56479,5.60972 -7.96218,5.60972c-4.39739,0 -7.96219,-2.51155 -7.96219,-5.60972c0,-3.09816 3.5648,-5.60973 7.96219,-5.60973c4.39739,0 7.96218,2.51156 7.96218,5.60973z"/><path d="M652.33723,-13.50906c0,2.09876 -3.07869,3.80013 -6.87644,3.80013c-3.79775,0 -6.87644,-1.70138 -6.87644,-3.80013c0,-2.09876 3.07869,-3.80014 6.87644,-3.80014c3.79775,0 6.87644,1.70138 6.87644,3.80014z"/><path d="M604.92602,-17.85207c0,1.89888 -2.10647,3.43821 -4.70493,3.43821c-2.59846,0 -4.70493,-1.53934 -4.70493,-3.43821c0,-1.89888 2.10647,-3.43822 4.70493,-3.43822c2.59846,0 4.70493,1.53935 4.70493,3.43822z"/></g><path d="M722.76895,-145.00646l-194.85288,579.21425l-64.04089,-21.54393l194.85289,-579.21424z" data-paper-data="{&quot;index&quot;:null}" fill="url(#color-4)" stroke="none" stroke-width="0" stroke-linecap="butt"/><path d="M720.96664,-122.15439l-314.87399,523.74722l-57.90818,-34.81408l314.874,-523.74723z" data-paper-data="{&quot;index&quot;:null}" fill="url(#color-5)" stroke="none" stroke-width="0" stroke-linecap="butt"/><path d="M746.69797,-103.66713l-450.71235,412.69258l-45.6294,-49.83306l450.71236,-412.69258z" data-paper-data="{&quot;index&quot;:null}" fill="url(#color-6)" stroke="none" stroke-width="0" stroke-linecap="butt"/><path d="M757.78852,-59.90365l-561.0413,242.25904l-26.7854,-62.03159l561.04131,-242.25904z" data-paper-data="{&quot;index&quot;:null}" fill="url(#color-7)" stroke="none" stroke-width="0" stroke-linecap="butt"/><path d="M744.19676,-15.62596l-607.91693,62.40025l-6.89929,-67.2144l607.91694,-62.40025z" data-paper-data="{&quot;index&quot;:null}" fill="url(#color-8)" stroke="none" stroke-width="0" stroke-linecap="butt"/><path d="M-111.72498,-170.2908l545.66568,275.14678l-30.42163,60.33159l-545.66568,-275.14678z" data-paper-data="{&quot;index&quot;:null}" fill="url(#color-9)" stroke="none" stroke-width="0" stroke-linecap="butt"/><path d="M-89.36059,-165.26094l473.71367,386.07272l-42.68617,52.37622l-473.71367,-386.07272z" data-paper-data="{&quot;index&quot;:null}" fill="url(#color-10)" stroke="none" stroke-width="0" stroke-linecap="butt"/><path d="M-67.40598,-188.10553l344.49099,504.76009l-55.80886,38.08869l-344.49099,-504.76009z" data-paper-data="{&quot;index&quot;:null}" fill="url(#color-11)" stroke="none" stroke-width="0" stroke-linecap="butt"/><path d="M-22.51093,-192.86764l160.11469,589.76272l-65.20718,17.7031l-160.11469,-589.76273z" data-paper-data="{&quot;index&quot;:null}" fill="url(#color-12)" stroke="none" stroke-width="0" stroke-linecap="butt"/><path d="M19.38732,-173.12464l-24.57863,610.61664l-67.51289,-2.71753l24.57863,-610.61664z" data-paper-data="{&quot;index&quot;:null}" fill="url(#color-13)" stroke="none" stroke-width="0" stroke-linecap="butt"/></g></g></svg>