<svg version="1.1" xmlns="http://www.w3.org/2000/svg" xmlns:xlink="http://www.w3.org/1999/xlink" width="188.01223" height="87.63089" viewBox="0,0,188.01223,87.63089"><defs><linearGradient x1="368.37496" y1="212.52562" x2="368.37496" y2="242.10342" gradientUnits="userSpaceOnUse" id="color-1"><stop offset="0" stop-color="#ffffff"/><stop offset="1" stop-color="#1a1a1a"/></linearGradient><linearGradient x1="338.89241" y1="239.55361" x2="397.79302" y2="239.55361" gradientUnits="userSpaceOnUse" id="color-2"><stop offset="0" stop-color="#ff0000"/><stop offset="1" stop-color="#33ff00"/></linearGradient></defs><g transform="translate(-276.86884,-198.71708)"><g data-paper-data="{&quot;isPaintingLayer&quot;:true}" fill-rule="nonzero" stroke-linejoin="miter" stroke-miterlimit="10" stroke-dasharray="" stroke-dashoffset="0" style="mix-blend-mode: normal"><path d="M281.86884,286.34797v-77.53584h183.01223v77.53584z" fill="#272727" stroke="none" stroke-width="0" stroke-linecap="butt"/><path d="M276.86884,276.25292v-77.53584h183.01223v77.53584z" fill="#000000" stroke="none" stroke-width="0" stroke-linecap="butt"/><path d="M432.42585,209.76512l6.70309,6.70309l2.85238,2.85238l-9.34154,9.34154" fill="none" stroke="#ffffff" stroke-width="1.5" stroke-linecap="round"/><path d="M421.72943,218.89273c0,-7.71909 6.25756,-13.97665 13.97665,-13.97665c7.71909,0 13.97666,6.25757 13.97666,13.97665c0,7.71909 -6.25756,13.97666 -13.97666,13.97666c-7.71909,0 -13.97665,-6.25757 -13.97665,-13.97666z" fill="none" stroke="#ffffff" stroke-width="1.5" stroke-linecap="butt"/><text transform="translate(333.94022,262.89896) scale(0.47128,0.47511)" font-size="40" xml:space="preserve" fill="#ffffff" fill-rule="nonzero" stroke="none" stroke-width="1" stroke-linecap="butt" stroke-linejoin="miter" stroke-miterlimit="10" stroke-dasharray="" stroke-dashoffset="0" font-family="&quot;OpenSans-Bold&quot;, Sans Serif" font-weight="normal" text-anchor="start" style="mix-blend-mode: normal"><tspan x="0" dy="0">Display</tspan></text><path d="M358.64896,223.11686c0,-5.37152 4.35448,-9.726 9.726,-9.726c5.37152,0 9.726,4.35448 9.726,9.726c0,5.37152 -4.35448,9.726 -9.726,9.726c-5.37152,0 -9.726,-4.35448 -9.726,-9.726z" fill="#000000" stroke="none" stroke-width="0" stroke-linecap="butt"/><path d="M338.79716,242.10342v-29.5778h59.15559v29.5778z" fill="url(#color-1)" stroke="none" stroke-width="0" stroke-linecap="butt"/><path d="M338.89241,242.10342v-5.09962h58.90061v5.09962z" fill="url(#color-2)" stroke="none" stroke-width="0" stroke-linecap="butt"/></g></g></svg>