<svg version="1.1" xmlns="http://www.w3.org/2000/svg" xmlns:xlink="http://www.w3.org/1999/xlink" width="188.01223" height="87.63089" viewBox="0,0,188.01223,87.63089"><g transform="translate(-80.18446,-102.45621)"><g data-paper-data="{&quot;isPaintingLayer&quot;:true}" fill-rule="nonzero" stroke-linejoin="miter" stroke-miterlimit="10" stroke-dasharray="" stroke-dashoffset="0" style="mix-blend-mode: normal"><path d="M85.18446,190.0871v-77.53584h183.01223v77.53584z" fill="#272727" stroke="none" stroke-width="0" stroke-linecap="butt"/><path d="M80.18446,179.99205v-77.53584h183.01223v77.53584z" fill="#000000" stroke="none" stroke-width="0" stroke-linecap="butt"/><text transform="translate(85.37822,167.15842) scale(0.47128,0.47511)" font-size="40" xml:space="preserve" fill="#ffffff" fill-rule="nonzero" stroke="none" stroke-width="1" stroke-linecap="butt" stroke-linejoin="miter" stroke-miterlimit="10" stroke-dasharray="" stroke-dashoffset="0" font-family="&quot;OpenSans-Bold&quot;, Sans Serif" font-weight="normal" text-anchor="start" style="mix-blend-mode: normal"><tspan x="0" dy="0">Sound &amp; Gamepad</tspan></text><path d="M235.74147,113.50425l6.70309,6.70309l2.85238,2.85238l-9.34154,9.34154" fill="none" stroke="#ffffff" stroke-width="1.5" stroke-linecap="round"/><path d="M225.04505,122.63186c0,-7.71909 6.25756,-13.97665 13.97665,-13.97665c7.71909,0 13.97666,6.25757 13.97666,13.97665c0,7.71909 -6.25756,13.97666 -13.97666,13.97666c-7.71909,0 -13.97665,-6.25757 -13.97665,-13.97666z" fill="none" stroke="#ffffff" stroke-width="1.5" stroke-linecap="butt"/><g><text transform="translate(127.42518,134.21338) scale(0.39369,0.39369)" font-size="40" xml:space="preserve" fill-opacity="0.02353" fill="#000000" fill-rule="nonzero" stroke="none" stroke-width="1" stroke-linecap="butt" stroke-linejoin="miter" stroke-miterlimit="10" stroke-dasharray="" stroke-dashoffset="0" font-family="&quot;OpenSans-Bold&quot;, Sans Serif" font-weight="normal" text-anchor="start" style="mix-blend-mode: normal"><tspan x="0" dy="0">KS</tspan></text><path d="M129.97869,134.5031c0,-1.03813 0.84158,-1.87972 1.87971,-1.87972c1.03813,0 1.87972,0.84158 1.87972,1.87972c0,1.03813 -0.84158,1.87972 -1.87972,1.87972c-1.03813,0 -1.87971,-0.84158 -1.87971,-1.87972z" fill="#ffffff" stroke="none" stroke-width="0" stroke-linecap="butt"/><path d="M130.48573,129.67123l4.75865,0.31554l1.74612,4.50281" fill="none" stroke="#ffffff" stroke-width="2" stroke-linecap="round"/><path d="M130.14872,125.67179l7.8998,0.52382l2.89871,7.47508" fill="none" stroke="#ffffff" stroke-width="2" stroke-linecap="round"/><path d="M129.21536,121.22952l11.56802,0.76704l4.2447,10.94609" fill="none" stroke="#ffffff" stroke-width="2" stroke-linecap="round"/></g><path d="M156.00468,136.97954c-0.13913,-0.02783 -0.27176,-0.06146 -0.39809,-0.10069c1.85043,-6.63763 3.88976,-12.8905 6.35889,-19.13615c1.96969,-0.70602 3.81902,-1.24901 5.92676,-1.42993c0.33778,0.53667 1.02955,0.39831 1.02955,0.39831c3.23327,-0.66112 6.67166,0.48997 9.92529,0.46565c0.08462,0.03754 0.16912,0.07552 0.25355,0.11394c0.05353,0.00048 0.10693,0.00096 0.1602,0.00141c0.05788,-0.0611 0.10357,-0.1053 0.13101,-0.13101c0.54918,-0.0281 1.09241,-0.09496 1.62775,-0.21528c0.38918,-0.08746 0.7569,-0.24979 1.11208,-0.45204c0.20025,0.09559 0.3806,0.11198 0.3806,0.11198c2.75824,0.25065 5.50946,0.33845 8.27406,0.36021c0.78169,0.4188 1.55076,0.85438 2.31381,1.3027c0.01871,0.07816 0.03781,0.12589 0.03781,0.12589c1.5619,3.89746 2.79639,8.24985 4.36418,12.2594c-0.00088,0.00617 -0.00179,0.01236 -0.00272,0.01856c0.81129,5.27431 0.2405,13.00245 -7.46707,11.85827c-1.00089,-0.14859 -2.73782,-5.5636 -4.09309,-6.94012c-2.04315,-2.07517 -9.08589,-0.8788 -11.79599,-0.7884c-0.89248,-0.14549 -1.78262,-0.30275 -2.66655,-0.49954c0,0 -0.53595,-0.1191 -0.90194,0.21627c-0.65888,-0.14099 -1.02813,0.50521 -1.02813,0.50521c-0.65176,1.14058 -1.23217,2.31389 -1.79177,3.49586c-0.93589,1.15852 -1.78543,2.3862 -2.59681,3.65295c-0.66555,0.15868 -1.3297,0.32439 -1.99708,0.49246c-1.44254,-0.72828 -2.78028,-1.57653 -3.88851,-2.46389c-0.8504,-0.60227 -1.66268,-1.25375 -2.46133,-1.92194c-0.25109,-0.41101 -0.45124,-0.83217 -0.60198,-1.26528c-0.06733,-0.00943 -0.13548,-0.02102 -0.20448,-0.03481zM164.50215,124.45347c0.55238,0 1.00018,-0.4478 1.00018,-1.00018c0,-0.55238 -0.4478,-1.00018 -1.00018,-1.00018c-0.55238,0 -1.00018,0.4478 -1.00018,1.00018c0,0.55238 0.4478,1.00018 1.00018,1.00018zM186.22297,126.26353c0.55238,0 1.00018,-0.4478 1.00018,-1.00018c0,-0.55238 -0.4478,-1.00018 -1.00018,-1.00018c-0.55238,0 -1.00018,0.4478 -1.00018,1.00018c0,0.55238 0.4478,1.00018 1.00018,1.00018zM165.9502,126.98757c0.55238,0 1.00018,-0.4478 1.00018,-1.00018c0,-0.55238 -0.4478,-1.00018 -1.00018,-1.00018c-0.55238,0 -1.00018,0.4478 -1.00018,1.00018c0,0.55238 0.4478,1.00018 1.00018,1.00018zM190.44648,126.62555c0.55238,0 1.00018,-0.4478 1.00018,-1.00018c0,-0.55238 -0.4478,-1.00018 -1.00018,-1.00018c-0.55238,0 -1.00018,0.4478 -1.00018,1.00018c0,0.55238 0.4478,1.00018 1.00018,1.00018zM166.55357,121.79871c0.55238,0 1.00018,-0.4478 1.00018,-1.00018c0,-0.55238 -0.4478,-1.00018 -1.00018,-1.00018c-0.55238,0 -1.00018,0.4478 -1.00018,1.00018c0,0.55238 0.4478,1.00018 1.00018,1.00018zM188.03305,123.12608c0.55238,0 1.00018,-0.4478 1.00018,-1.00018c0,-0.55238 -0.4478,-1.00018 -1.00018,-1.00018c-0.55238,0 -1.00018,0.4478 -1.00018,1.00018c0,0.55238 0.4478,1.00018 1.00018,1.00018zM168.12231,124.45347c0.55238,0 1.00018,-0.4478 1.00018,-1.00018c0,-0.55238 -0.4478,-1.00018 -1.00018,-1.00018c-0.55238,0 -1.00018,0.4478 -1.00018,1.00018c0,0.55238 0.4478,1.00018 1.00018,1.00018z" fill="#ffffff" stroke="none" stroke-width="0.5" stroke-linecap="butt"/></g></g></svg>