<svg version="1.1" xmlns="http://www.w3.org/2000/svg" xmlns:xlink="http://www.w3.org/1999/xlink" width="552.027" height="351.70355" viewBox="0,0,552.027,351.70355"><defs><linearGradient x1="373.5" y1="10.58107" x2="373.5" y2="349.41892" gradientUnits="userSpaceOnUse" id="color-1"><stop offset="0" stop-color="#000000" stop-opacity="0.81961"/><stop offset="1" stop-color="#000000" stop-opacity="0.54902"/></linearGradient></defs><g transform="translate(-139.69847,-10.58108)"><g data-paper-data="{&quot;isPaintingLayer&quot;:true}" fill-rule="nonzero" stroke="none" stroke-linecap="butt" stroke-linejoin="miter" stroke-miterlimit="10" stroke-dasharray="" stroke-dashoffset="0" style="mix-blend-mode: normal"><text transform="translate(667.32733,356.1087) scale(0.5,0.5)" font-size="40" xml:space="preserve" fill-opacity="0.5098" fill="#000000" fill-rule="nonzero" stroke="none" stroke-width="1" stroke-linecap="butt" stroke-linejoin="miter" stroke-miterlimit="10" stroke-dasharray="" stroke-dashoffset="0" font-family="Sans Serif" font-weight="normal" text-anchor="start" style="mix-blend-mode: normal"><tspan x="0" dy="0">KS</tspan></text><path d="M147.37962,341.2294c0,0 -7.68115,-6.81948 -7.68115,-28.79948c0,-72.46133 0,-227.63848 0,-265.61092c0,-15.82357 7.29709,-27.50243 7.29709,-27.50243c0,0 3.399,-8.73549 16.07156,-8.73549c45.11761,0 312.75991,0 409.43031,0c21.71586,0 27.12295,14.19517 27.12295,14.19517c0,0 7.68115,7.12726 7.68115,38.44311c0,72.57599 0,198.82694 0,237.73376c0,22.49604 -8.0652,36.45451 -8.0652,36.45451c0,0 -7.26729,10.91936 -24.81168,10.91936c-89.7657,0 -359.68877,1.09194 -406.74767,1.09194c-13.23452,0 -20.29734,-8.18952 -20.29734,-8.18952z" fill="url(#color-1)" stroke-width="NaN"/></g></g></svg>