<svg version="1.1" xmlns="http://www.w3.org/2000/svg" xmlns:xlink="http://www.w3.org/1999/xlink" width="773.10805" height="515.57264" viewBox="0,0,773.10805,515.57264"><g transform="translate(65.58411,100.41845)"><g data-paper-data="{&quot;isPaintingLayer&quot;:true}" fill-rule="nonzero" stroke="none" stroke-linecap="butt" stroke-linejoin="miter" stroke-miterlimit="10" stroke-dasharray="" stroke-dashoffset="0" style="mix-blend-mode: normal"><path d="M1.06953,368.36169v-379h641.50751v379z" fill="#444444" stroke-width="NaN"/><path d="M-17.15791,373.60764l-48.4262,-85.76688l687.6398,-388.25921l48.4262,85.76688z" fill="#565656" stroke-width="0"/><path d="M19.88414,415.15419l-48.4262,-85.76688l687.6398,-388.25921l48.4262,85.76688z" fill="#a7a7a7" stroke-width="0"/><path d="M17.84616,380.65569l-44.88712,-79.4989l637.38589,-359.88455l44.88712,79.4989z" fill="#000000" stroke-width="0"/><path d="M112.5,120.5v-39h40v39z" fill="#ffffff" stroke-width="0"/><path d="M161.5,109.5v-12h6v12z" fill="#ffffff" stroke-width="0"/><path d="M129.5,168.5v-35h70v35z" fill="#ffffff" stroke-width="0"/><path d="M219.5,151.5v-10h6v10z" fill="#ffffff" stroke-width="0"/><path d="M198.5,125.5v-23h17v23z" fill="#ffffff" stroke-width="0"/><path d="M246.5,102.5v-6h2v6z" fill="#ffffff" stroke-width="0"/><path d="M88.5,235.5v-41h29v41z" fill="#ffffff" stroke-width="0"/><path d="M130.5,213.5v-23h16v23z" fill="#ffffff" stroke-width="0"/><path d="M347.5,357.5v-52h63v52z" fill="#ffffff" stroke-width="0"/><path d="M429.5,323.5v-47h17v47z" fill="#ffffff" stroke-width="0"/><path d="M438.5,268.5v-32h44v32z" fill="#ffffff" stroke-width="0"/><path d="M477.5,218.5v-47h30v47z" fill="#ffffff" stroke-width="0"/><path d="M514.5,270.5v-6h3v6z" fill="#ffffff" stroke-width="0"/><path d="M455.5,285.5v-9h8v9z" fill="#ffffff" stroke-width="0"/><path d="M393.5,293.5v-12h22v12z" fill="#ffffff" stroke-width="0"/><path d="M429.5,349.5v-10h25v10z" fill="#ffffff" stroke-width="0"/><path d="M489.5,238.5v-6h10v6z" fill="#ffffff" stroke-width="0"/><path d="M515.5,184.5v-13h13v13z" fill="#ffffff" stroke-width="0"/><text transform="translate(548.33633,105.5) scale(0.5,0.5)" font-size="40" xml:space="preserve" fill="#ffffff" fill-rule="nonzero" stroke="none" stroke-width="1" stroke-linecap="butt" stroke-linejoin="miter" stroke-miterlimit="10" stroke-dasharray="" stroke-dashoffset="0" font-family="&quot;OpenSans-Light&quot;, Sans Serif" font-weight="normal" text-anchor="start" style="mix-blend-mode: normal"><tspan x="0" dy="0">Tap!Dash</tspan></text><g stroke-width="0"><path d="M501.55356,72.50008v-69h148.52502v69z" fill="#000000"/><path d="M65.07362,48.18478v-43h181.60856v43z" fill="#000000"/><path d="M109.41858,28.99752c0,0.74794 0.49094,3.17016 -0.76727,3.72359c-1.80758,0.79508 -5.66121,2.2986 -8.88474,2.2986c-3.97794,0 -7.90285,-1.52455 -9.47639,-2.6526c-0.58917,-0.42236 -0.67059,-2.87312 -0.67059,-3.36959c0,-1.82245 4.43215,-3.29983 9.8995,-3.29983c5.46734,0 9.8995,1.47738 9.8995,3.29983z" fill="#ffffff"/><path d="M100.22432,32.99236c0,1.20464 0.79071,5.10592 -1.23578,5.99728c-2.91132,1.28057 -9.11805,3.70218 -14.30994,3.70218c-6.40694,0 -12.72849,-2.45547 -15.26287,-4.27233c-0.94893,-0.68026 -1.08007,-4.62751 -1.08007,-5.42713c0,-2.93527 7.13852,-5.31477 15.94433,-5.31477c8.80581,0 15.94433,2.3795 15.94433,5.31477z" fill="#ffffff"/><path d="M93.33408,20.62456c0,0.58908 0.38667,2.49685 -0.60431,2.93274c-1.42367,0.62621 -4.45883,1.8104 -6.99772,1.8104c-3.13307,0 -6.22437,-1.20075 -7.46371,-2.08921c-0.46404,-0.33266 -0.52816,-2.2629 -0.52816,-2.65393c0,-1.43538 3.49081,-2.59898 7.79695,-2.59898c4.30614,0 7.79695,1.1636 7.79695,2.59898z" fill="#ffffff"/><path d="M104.78202,11.93184c0,0.46994 0.30846,1.99186 -0.48209,2.3396c-1.13573,0.49956 -3.55703,1.44425 -5.58244,1.44425c-2.49941,0 -4.96551,-0.9579 -5.95419,-1.66667c-0.37019,-0.26537 -0.42135,-1.80524 -0.42135,-2.11718c0,-1.14508 2.78481,-2.07335 6.22004,-2.07335c3.43523,0 6.22003,0.92827 6.22003,2.07335z" fill="#ffffff"/></g></g></g></svg>