<svg version="1.1" xmlns="http://www.w3.org/2000/svg" xmlns:xlink="http://www.w3.org/1999/xlink" width="164.9258" height="153.01101" viewBox="0,0,164.9258,153.01101"><g transform="translate(-237.5371,-103.49449)"><g data-paper-data="{&quot;isPaintingLayer&quot;:true}" fill-rule="nonzero" stroke-linecap="butt" stroke-linejoin="miter" stroke-miterlimit="10" stroke-dasharray="" stroke-dashoffset="0" style="mix-blend-mode: normal"><path d="M237.5371,256.5055v-153.01101h164.9258v153.01101z" fill-opacity="0.0549" fill="#000000" stroke="none" stroke-width="0"/><g fill-opacity="0.37255" fill="#0090ff" stroke="none" stroke-width="0"><path d="M340.37308,248.41841l-33.69271,-95.23714l52.74823,-18.66112l33.69271,95.23714z"/><path d="M339.39649,245.65791l-3.4181,-9.66174l52.74823,-18.66112l3.4181,9.66174z"/><path d="M307.61628,155.82674l-1.22075,-3.45063l52.74823,-18.66112l1.22075,3.45063z"/></g><path d="M272.58702,144.59358c0,3.75657 -0.93223,6.80186 -2.0822,6.80186c-1.14997,0 -2.0822,-3.0453 -2.0822,-6.80186c0,-3.75657 0.93224,-6.80186 2.0822,-6.80186c1.14997,0 2.0822,3.0453 2.0822,6.80186z" fill-opacity="0.37255" fill="#0090ff" stroke="none" stroke-width="0"/><g fill-opacity="0.37255" fill="#0090ff" stroke="none" stroke-width="0"><path d="M256.06946,198.93612v-49.77864h29.31479v49.77864z"/><path d="M256.25247,170.56962v-21.22912h12.99369l-3.66019,16.65388z"/><path d="M274.37043,165.44535l-2.19612,-16.10485h12.99369v21.22912z"/></g><path d="M314.55625,149.23526c-0.07777,0.91174 -0.98951,0.83397 -0.98951,0.83397l-1.10481,-0.09972c-2.47884,-0.76912 -4.93852,-1.49441 -7.03643,-3.11141c-3.15498,-2.43177 -5.3457,-6.49994 -8.8444,-8.47873c-1.00045,-0.56583 -2.137,-0.84707 -3.20314,-1.27648c-2.02128,-0.37887 -4.09576,-0.97986 -6.13952,-1.18461c-8.76687,-0.87827 -12.26848,7.17421 -15.73281,13.66983c0,0 -0.43061,0.80739 -1.23801,0.37679c-0.80739,-0.43061 -0.37679,-1.23801 -0.37679,-1.23801c3.84339,-7.20634 7.82236,-15.53555 17.45295,-14.63567c2.17686,0.2034 4.40202,0.83387 6.54915,1.25552c0.13202,0.05247 3.48916,1.3824 3.59367,1.44225c3.60009,2.0613 5.81173,6.11891 9.05612,8.61962c1.86616,1.43839 4.07303,2.06832 6.27271,2.76528l0.90684,0.07188c0,0 0.91174,0.07777 0.83397,0.98951z" fill-opacity="0.37255" fill="#0090ff" stroke="none" stroke-width="0.5"/><path d="M371.23156,195.51994c0,6.06441 -4.80693,10.98058 -10.73657,10.98058c-5.92965,0 -10.73657,-4.91617 -10.73657,-10.98058c0,-6.06441 4.80693,-10.98058 10.73657,-10.98058c5.92965,0 10.73657,4.91617 10.73657,10.98058z" fill-opacity="0.37255" fill="#0090ff" stroke-opacity="0.40392" stroke="#00a9ff" stroke-width="5"/><path d="M365.86328,195.51994c0,3.16697 -2.40347,5.7343 -5.36828,5.7343c-2.96482,0 -5.36828,-2.56733 -5.36828,-5.7343c0,-3.16697 2.40347,-5.7343 5.36828,-5.7343c2.96482,0 5.36828,2.56733 5.36828,5.7343z" fill-opacity="0.37255" fill="#0090ff" stroke-opacity="0.40392" stroke="#00a9ff" stroke-width="5"/><path d="M341.706,168.92253c0,6.06441 -4.80693,10.98058 -10.73657,10.98058c-5.92964,0 -10.73657,-4.91617 -10.73657,-10.98058c0,-6.06441 4.80693,-10.98058 10.73657,-10.98058c5.92964,0 10.73657,4.91617 10.73657,10.98058z" fill-opacity="0.37255" fill="#0090ff" stroke-opacity="0.40392" stroke="#00a9ff" stroke-width="5"/><path d="M336.33771,168.92253c0,3.16697 -2.40346,5.7343 -5.36828,5.7343c-2.96482,0 -5.36828,-2.56733 -5.36828,-5.7343c0,-3.16697 2.40346,-5.73431 5.36828,-5.73431c2.96482,0 5.36828,2.56733 5.36828,5.73431z" fill-opacity="0.37255" fill="#0090ff" stroke-opacity="0.40392" stroke="#00a9ff" stroke-width="5"/><path d="M353.17461,215.04097c0,6.06441 -4.80693,10.98058 -10.73657,10.98058c-5.92964,0 -10.73656,-4.91617 -10.73656,-10.98058c0,-6.06441 4.80693,-10.98058 10.73656,-10.98058c5.92964,0 10.73657,4.91617 10.73657,10.98058z" fill-opacity="0.37255" fill="#0090ff" stroke-opacity="0.40392" stroke="#00a9ff" stroke-width="5"/><path d="M347.80632,215.04097c0,3.16697 -2.40347,5.7343 -5.36829,5.7343c-2.96482,0 -5.36828,-2.56733 -5.36828,-5.7343c0,-3.16697 2.40346,-5.73431 5.36828,-5.73431c2.96482,0 5.36829,2.56733 5.36829,5.73431z" fill-opacity="0.37255" fill="#0090ff" stroke-opacity="0.40392" stroke="#00a9ff" stroke-width="5"/><text transform="translate(254.93265,123.6187) scale(0.33651,0.33651)" font-size="40" xml:space="preserve" fill-opacity="0.7451" fill="#0091ff" fill-rule="nonzero" stroke="none" stroke-width="1" stroke-linecap="butt" stroke-linejoin="miter" stroke-miterlimit="10" stroke-dasharray="" stroke-dashoffset="0" font-family="&quot;OpenSans-Medium&quot;, Sans Serif" font-weight="normal" text-anchor="start" style="mix-blend-mode: normal"><tspan x="0" dy="0">Touch and click</tspan></text></g></g></svg>