<svg version="1.1" xmlns="http://www.w3.org/2000/svg" xmlns:xlink="http://www.w3.org/1999/xlink" width="917.73341" height="443.68517" viewBox="0,0,917.73341,443.68517"><defs><linearGradient x1="373.5" y1="-36" x2="373.5" y2="396" gradientUnits="userSpaceOnUse" id="color-1"><stop offset="0" stop-color="#9d9d9d"/><stop offset="1" stop-color="#1f1f1f"/></linearGradient><linearGradient x1="668.15549" y1="151.33763" x2="668.15549" y2="155.84213" gradientUnits="userSpaceOnUse" id="color-2"><stop offset="0" stop-color="#9d9d9d"/><stop offset="1" stop-color="#1f1f1f"/></linearGradient></defs><g transform="translate(60,36.25)"><g data-paper-data="{&quot;isPaintingLayer&quot;:true}" fill-rule="nonzero" stroke-linecap="butt" stroke-linejoin="miter" stroke-miterlimit="10" stroke-dasharray="" stroke-dashoffset="0" style="mix-blend-mode: normal"><path d="M0,396v-432h747v432z" fill="url(#color-1)" stroke="#6c6c6c" stroke-width="0.5"/><path d="M665.90324,155.84213v-4.5045h4.5045v4.5045z" fill="url(#color-2)" stroke="#6c6c6c" stroke-width="0.5"/><path d="M274.73341,222.43517h-86v-79h86z" fill-opacity="0.40392" fill="#000000" stroke="none" stroke-width="0"/><path d="M293.73341,239.43517h-86v-79h86z" fill-opacity="0.40392" fill="#000000" stroke="none" stroke-width="0"/><path d="M320.73341,263.43517h-86v-79h86z" fill-opacity="0.40392" fill="#000000" stroke="none" stroke-width="0"/><path d="M346.73341,285.43517h-86v-79h86z" fill-opacity="0.40392" fill="#000000" stroke="none" stroke-width="0"/><path d="M370.73341,308.43517h-86v-79h86z" fill-opacity="0.40392" fill="#000000" stroke="none" stroke-width="0"/><path d="M389.73341,325.43517h-86v-79h86z" fill-opacity="0.40392" fill="#000000" stroke="none" stroke-width="0"/><path d="M416.73341,349.43517h-86v-79h86z" fill-opacity="0.40392" fill="#000000" stroke="none" stroke-width="0"/><path d="M442.73341,371.43517h-86v-79h86z" fill-opacity="0.40392" fill="#000000" stroke="none" stroke-width="0"/><path d="M464.73341,407.43517h-86v-79h86z" fill-opacity="0.40392" fill="#000000" stroke="none" stroke-width="0"/><path d="M318.73341,47.43517h-86v-79h86z" fill-opacity="0.40392" fill="#000000" stroke="none" stroke-width="0"/><path d="M337.73341,64.43517h-86v-79h86z" fill-opacity="0.40392" fill="#000000" stroke="none" stroke-width="0"/><path d="M364.73341,88.43517h-86v-79h86z" fill-opacity="0.40392" fill="#000000" stroke="none" stroke-width="0"/><path d="M390.73341,110.43517h-86v-79h86z" fill-opacity="0.40392" fill="#000000" stroke="none" stroke-width="0"/><path d="M414.73341,133.43517h-86v-79h86z" fill-opacity="0.40392" fill="#000000" stroke="none" stroke-width="0"/><path d="M433.73341,150.43517h-86v-79h86z" fill-opacity="0.40392" fill="#000000" stroke="none" stroke-width="0"/><path d="M460.73341,174.43517h-86v-79h86z" fill-opacity="0.40392" fill="#000000" stroke="none" stroke-width="0"/><path d="M486.73341,196.43517h-86v-79h86z" fill-opacity="0.40392" fill="#000000" stroke="none" stroke-width="0"/><path d="M508.73341,232.43517h-86v-79h86z" fill-opacity="0.40392" fill="#000000" stroke="none" stroke-width="0"/><path d="M527.73341,249.43517h-86v-79h86z" fill-opacity="0.40392" fill="#000000" stroke="none" stroke-width="0"/><path d="M554.73341,273.43517h-86v-79h86z" fill-opacity="0.40392" fill="#000000" stroke="none" stroke-width="0"/><path d="M580.73341,295.43517h-86v-79h86z" fill-opacity="0.40392" fill="#000000" stroke="none" stroke-width="0"/><path d="M595.73341,76.5h-86v-79h86z" fill-opacity="0.40392" fill="#000000" stroke="none" stroke-width="0"/><path d="M614.73341,93.5h-86v-79h86z" fill-opacity="0.40392" fill="#000000" stroke="none" stroke-width="0"/><path d="M641.73341,117.5h-86v-79h86z" fill-opacity="0.40392" fill="#000000" stroke="none" stroke-width="0"/><path d="M667.73341,139.5h-86v-79h86z" fill-opacity="0.40392" fill="#000000" stroke="none" stroke-width="0"/><path d="M691.73341,162.5h-86v-79h86z" fill-opacity="0.40392" fill="#000000" stroke="none" stroke-width="0"/><path d="M710.73341,179.5h-86v-79h86z" fill-opacity="0.40392" fill="#000000" stroke="none" stroke-width="0"/><path d="M737.73341,203.5h-86v-79h86z" fill-opacity="0.40392" fill="#000000" stroke="none" stroke-width="0"/><path d="M763.73341,225.5h-86v-79h86z" fill-opacity="0.40392" fill="#000000" stroke="none" stroke-width="0"/><path d="M785.73341,261.5h-86v-79h86z" fill-opacity="0.40392" fill="#000000" stroke="none" stroke-width="0"/><path d="M804.73341,278.5h-86v-79h86z" fill-opacity="0.40392" fill="#000000" stroke="none" stroke-width="0"/><path d="M831.73341,302.5h-86v-79h86z" fill-opacity="0.40392" fill="#000000" stroke="none" stroke-width="0"/><path d="M857.73341,324.5h-86v-79h86z" fill-opacity="0.40392" fill="#000000" stroke="none" stroke-width="0"/><path d="M100.73341,273.5h-86v-79h86z" fill-opacity="0.40392" fill="#000000" stroke="none" stroke-width="0"/><path d="M119.73341,290.5h-86v-79h86z" fill-opacity="0.40392" fill="#000000" stroke="none" stroke-width="0"/><path d="M146.73341,314.5h-86v-79h86z" fill-opacity="0.40392" fill="#000000" stroke="none" stroke-width="0"/><path d="M172.73341,336.5h-86v-79h86z" fill-opacity="0.40392" fill="#000000" stroke="none" stroke-width="0"/><path d="M196.73341,359.5h-86v-79h86z" fill-opacity="0.40392" fill="#000000" stroke="none" stroke-width="0"/><path d="M215.73341,376.5h-86v-79h86z" fill-opacity="0.40392" fill="#000000" stroke="none" stroke-width="0"/><path d="M242.73341,400.5h-86v-79h86z" fill-opacity="0.40392" fill="#000000" stroke="none" stroke-width="0"/><path d="M26,205h-86v-79h86z" fill-opacity="0.40392" fill="#000000" stroke="none" stroke-width="0"/><path d="M53,229h-86v-79h86z" fill-opacity="0.40392" fill="#000000" stroke="none" stroke-width="0"/><path d="M79,251h-86v-79h86z" fill-opacity="0.40392" fill="#000000" stroke="none" stroke-width="0"/></g></g></svg>