<svg version="1.1" xmlns="http://www.w3.org/2000/svg" xmlns:xlink="http://www.w3.org/1999/xlink" width="734.60304" height="351.70354" viewBox="0,0,734.60304,351.70354"><defs><linearGradient x1="373.50001" y1="10.58107" x2="373.50001" y2="349.41892" gradientUnits="userSpaceOnUse" id="color-1"><stop offset="0" stop-color="#000000" stop-opacity="0.81961"/><stop offset="1" stop-color="#000000" stop-opacity="0.54902"/></linearGradient></defs><g transform="translate(-6.19848,-10.58107)"><g data-paper-data="{&quot;isPaintingLayer&quot;:true}" fill-rule="nonzero" stroke="none" stroke-linecap="butt" stroke-linejoin="miter" stroke-miterlimit="10" stroke-dasharray="" stroke-dashoffset="0" style="mix-blend-mode: normal"><text transform="translate(667.32733,356.10869) scale(0.5,0.5)" font-size="40" xml:space="preserve" fill-opacity="0.5098" fill="#000000" fill-rule="nonzero" stroke="none" stroke-width="1" stroke-linecap="butt" stroke-linejoin="miter" stroke-miterlimit="10" stroke-dasharray="" stroke-dashoffset="0" font-family="Sans Serif" font-weight="normal" text-anchor="start" style="mix-blend-mode: normal"><tspan x="0" dy="0">KS</tspan></text><path d="M18.26554,341.2294c0,0 -12.06706,-6.81948 -12.06706,-28.79948c0,-72.46133 0,-227.63848 0,-265.61092c0,-15.82357 11.4637,-27.50243 11.4637,-27.50243c0,0 5.33982,-8.73549 25.24838,-8.73549c70.87963,0 491.34492,0 643.21384,0c34.11556,0 42.61007,14.19517 42.61007,14.19517c0,0 12.06706,7.12726 12.06706,38.44311c0,72.57599 0,198.82694 0,237.73376c0,22.49604 -12.6704,36.45451 -12.6704,36.45451c0,0 -11.41689,10.91936 -38.97908,10.91936c-141.02165,0 -565.07003,1.09194 -638.99943,1.09194c-20.79139,0 -31.88706,-8.18952 -31.88706,-8.18952z" fill="url(#color-1)" stroke-width="NaN"/></g></g></svg>