<svg version="1.1" xmlns="http://www.w3.org/2000/svg" xmlns:xlink="http://www.w3.org/1999/xlink" width="451.28159" height="271.3855" viewBox="0,0,451.28159,271.3855"><defs><linearGradient x1="83.39372" y1="16.15722" x2="83.39372" y2="58.84686" gradientUnits="userSpaceOnUse" id="color-1"><stop offset="0" stop-color="#000000"/><stop offset="1" stop-color="#000000" stop-opacity="0"/></linearGradient><linearGradient x1="210.74064" y1="16.15722" x2="210.74064" y2="58.84686" gradientUnits="userSpaceOnUse" id="color-2"><stop offset="0" stop-color="#000000"/><stop offset="1" stop-color="#000000" stop-opacity="0"/></linearGradient><linearGradient x1="123.83337" y1="68.77468" x2="123.83337" y2="79.69529" gradientUnits="userSpaceOnUse" id="color-3"><stop offset="0" stop-color="#000000"/><stop offset="1" stop-color="#000000" stop-opacity="0"/></linearGradient><linearGradient x1="154.90522" y1="82.67363" x2="154.90522" y2="125.36327" gradientUnits="userSpaceOnUse" id="color-4"><stop offset="0" stop-color="#000000"/><stop offset="1" stop-color="#000000" stop-opacity="0"/></linearGradient><linearGradient x1="176.04113" y1="129.4496" x2="176.04113" y2="142.08565" gradientUnits="userSpaceOnUse" id="color-5"><stop offset="0" stop-color="#000000"/><stop offset="1" stop-color="#000000" stop-opacity="0"/></linearGradient><linearGradient x1="286.73659" y1="70.25971" x2="286.73659" y2="143.74829" gradientUnits="userSpaceOnUse" id="color-6"><stop offset="0" stop-color="#000000"/><stop offset="1" stop-color="#000000" stop-opacity="0"/></linearGradient><linearGradient x1="300.60955" y1="2.66079" x2="300.60955" y2="68.83376" gradientUnits="userSpaceOnUse" id="color-7"><stop offset="0" stop-color="#000000"/><stop offset="1" stop-color="#000000" stop-opacity="0"/></linearGradient><linearGradient x1="233.99511" y1="203.05024" x2="233.99511" y2="220.6742" gradientUnits="userSpaceOnUse" id="color-8"><stop offset="0" stop-color="#000000"/><stop offset="1" stop-color="#000000" stop-opacity="0"/></linearGradient><linearGradient x1="343.78243" y1="149.67959" x2="343.78243" y2="202.73248" gradientUnits="userSpaceOnUse" id="color-9"><stop offset="0" stop-color="#000000"/><stop offset="1" stop-color="#000000" stop-opacity="0"/></linearGradient><linearGradient x1="358.85955" y1="197.34651" x2="358.85955" y2="209.58078" gradientUnits="userSpaceOnUse" id="color-10"><stop offset="0" stop-color="#000000"/><stop offset="1" stop-color="#000000" stop-opacity="0"/></linearGradient><linearGradient x1="320.00001" y1="20.39427" x2="320.00001" y2="34.89427" gradientUnits="userSpaceOnUse" id="color-11"><stop offset="0" stop-color="#000000"/><stop offset="1" stop-color="#000000" stop-opacity="0"/></linearGradient><linearGradient x1="384.47223" y1="44.79614" x2="384.47223" y2="63.79614" gradientUnits="userSpaceOnUse" id="color-12"><stop offset="0" stop-color="#000000"/><stop offset="1" stop-color="#000000" stop-opacity="0"/></linearGradient><linearGradient x1="402.97223" y1="81.7963" x2="402.97223" y2="87.7963" gradientUnits="userSpaceOnUse" id="color-13"><stop offset="0" stop-color="#000000"/><stop offset="1" stop-color="#000000" stop-opacity="0"/></linearGradient><linearGradient x1="418.97223" y1="14.40245" x2="418.97223" y2="57.09209" gradientUnits="userSpaceOnUse" id="color-14"><stop offset="0" stop-color="#000000"/><stop offset="1" stop-color="#000000" stop-opacity="0"/></linearGradient><linearGradient x1="374.97223" y1="12.7963" x2="374.97223" y2="18.7963" gradientUnits="userSpaceOnUse" id="color-15"><stop offset="0" stop-color="#000000"/><stop offset="1" stop-color="#000000" stop-opacity="0"/></linearGradient><linearGradient x1="484.72223" y1="3.2963" x2="484.72223" y2="105.29599" gradientUnits="userSpaceOnUse" id="color-16"><stop offset="0" stop-color="#000000"/><stop offset="1" stop-color="#000000" stop-opacity="0"/></linearGradient><linearGradient x1="484.22223" y1="107.09176" x2="484.22223" y2="179.28169" gradientUnits="userSpaceOnUse" id="color-17"><stop offset="0" stop-color="#000000"/><stop offset="1" stop-color="#000000" stop-opacity="0"/></linearGradient><linearGradient x1="460.22223" y1="172.09861" x2="460.22223" y2="180" gradientUnits="userSpaceOnUse" id="color-18"><stop offset="0" stop-color="#000000"/><stop offset="1" stop-color="#000000" stop-opacity="0"/></linearGradient><linearGradient x1="430.34981" y1="256.2963" x2="430.34981" y2="270.7963" gradientUnits="userSpaceOnUse" id="color-19"><stop offset="0" stop-color="#000000"/><stop offset="1" stop-color="#000000" stop-opacity="0"/></linearGradient><linearGradient x1="123.83335" y1="229.5463" x2="123.83335" y2="271.54629" gradientUnits="userSpaceOnUse" id="color-20"><stop offset="0" stop-color="#000000"/><stop offset="1" stop-color="#000000" stop-opacity="0"/></linearGradient><linearGradient x1="519.97223" y1="213.7963" x2="519.97223" y2="255.7963" gradientUnits="userSpaceOnUse" id="color-21"><stop offset="0" stop-color="#000000"/><stop offset="1" stop-color="#000000" stop-opacity="0"/></linearGradient></defs><g transform="translate(-75.69064,-1.41079)"><g data-paper-data="{&quot;isPaintingLayer&quot;:true}" fill-rule="nonzero" stroke-linecap="butt" stroke-linejoin="miter" stroke-miterlimit="10" stroke-dasharray="" stroke-dashoffset="0" style="mix-blend-mode: normal"><path d="" fill="#cecece" stroke="#000000" stroke-width="2"/><path d="M76.94064,58.84686v-42.68964h12.90617v42.68964z" fill="url(#color-1)" stroke="#ffffff" stroke-width="2.5"/><path d="M204.28756,58.84686v-42.68964h12.90617v42.68964z" fill="url(#color-2)" stroke="#ffffff" stroke-width="2.5"/><path d="M87.21946,79.69529v-10.9206h73.22779v10.9206z" fill="url(#color-3)" stroke="#ffffff" stroke-width="2.5"/><path d="M148.45214,125.36327v-42.68964h12.90617v42.68964z" fill="url(#color-4)" stroke="#ffffff" stroke-width="2.5"/><path d="M148.45214,142.08565v-12.63604h55.17796v12.63604z" fill="url(#color-5)" stroke="#ffffff" stroke-width="2.5"/><path d="M270.609,143.74829v-73.48857h32.25517v73.48857z" fill="url(#color-6)" stroke="#ffffff" stroke-width="2.5"/><path d="M297.78306,68.83376v-66.17297h5.65297v66.17297z" fill="url(#color-7)" stroke="#ffffff" stroke-width="2.5"/><path d="M197.38121,220.6742v-17.62396h73.22779v17.62396z" fill="url(#color-8)" stroke="#ffffff" stroke-width="2.5"/><path d="M337.32935,202.73248v-53.05289h12.90617v53.05289z" fill="url(#color-9)" stroke="#ffffff" stroke-width="2.5"/><path d="M351.10956,209.58078v-12.23427h15.5v12.23427z" fill="url(#color-10)" stroke="#ffffff" stroke-width="2.5"/><path d="M303.87244,34.89427v-14.5h32.25517v14.5z" fill="url(#color-11)" stroke="#ffffff" stroke-width="2.5"/><path d="M381.22223,63.79614v-19h6.5v19z" fill="url(#color-12)" stroke="#ffffff" stroke-width="2.5"/><path d="M395.22223,87.7963v-6h15.5v6z" fill="url(#color-13)" stroke="#ffffff" stroke-width="2.5"/><path d="M413.72223,57.09209v-42.68964h10.5v42.68964z" fill="url(#color-14)" stroke="#ffffff" stroke-width="2.5"/><path d="M338.35834,18.7963v-6h73.22779v6z" fill="url(#color-15)" stroke="#ffffff" stroke-width="2.5"/><path d="M480.72223,105.29599v-101.9997h8v101.9997z" fill="url(#color-16)" stroke="#ffffff" stroke-width="2.5"/><path d="M480.22223,179.28169v-72.18993h8v72.18993z" fill="url(#color-17)" stroke="#ffffff" stroke-width="2.5"/><path d="M442.22223,180v-7.90139h36v7.90139z" fill="url(#color-18)" stroke="#ffffff" stroke-width="2.5"/><path d="M414.22223,270.7963v-14.5h32.25517v14.5z" fill="url(#color-19)" stroke="#ffffff" stroke-width="2.5"/><path d="M116.08335,271.54629v-42h15.5v42z" fill="url(#color-20)" stroke="#ffffff" stroke-width="2.5"/><path d="M514.22223,255.7963v-42h11.5v42z" fill="url(#color-21)" stroke="#ffffff" stroke-width="2.5"/></g></g></svg>