<svg version="1.1" xmlns="http://www.w3.org/2000/svg" xmlns:xlink="http://www.w3.org/1999/xlink" width="44.64578" height="43.22165" viewBox="0,0,44.64578,43.22165"><g transform="translate(-298.85465,-159.47225)"><g data-paper-data="{&quot;isPaintingLayer&quot;:true}" fill-rule="nonzero" stroke-linejoin="miter" stroke-miterlimit="10" stroke-dasharray="" stroke-dashoffset="0" style="mix-blend-mode: normal"><path d="M343.25043,182.16615c0,11.19908 -9.35517,20.27775 -20.89535,20.27775c-11.54019,0 -20.89535,-9.07865 -20.89535,-20.27775c0,-11.19908 9.35517,-20.27776 20.89535,-20.27776c11.54019,0 20.89535,9.07865 20.89535,20.27776z" fill="#565656" stroke="#565656" stroke-width="0.5" stroke-linecap="butt"/><path d="M340.89535,180c0,11.19908 -9.35517,20.27775 -20.89535,20.27775c-11.54018,0 -20.89535,-9.07865 -20.89535,-20.27775c0,-11.19908 9.35516,-20.27776 20.89535,-20.27776c11.54018,0 20.89535,9.07865 20.89535,20.27776z" fill="#000000" stroke="#000000" stroke-width="0.5" stroke-linecap="butt"/><path d="M333.6629,173.74607h-22.61564" fill="none" stroke="#565656" stroke-width="4" stroke-linecap="round"/><path d="M312.94857,182.16614h18.81301" fill="none" stroke="#565656" stroke-width="4" stroke-linecap="round"/><path d="M311.2474,190.58623h22.21536" fill="none" stroke="#565656" stroke-width="4" stroke-linecap="round"/><path d="M331.30782,171.57992h-22.61564" fill="none" stroke="#ffffff" stroke-width="4" stroke-linecap="round"/><path d="M310.5935,179.99999h18.81301" fill="none" stroke="#ffffff" stroke-width="4" stroke-linecap="round"/><path d="M308.89232,188.42008h22.21536" fill="none" stroke="#ffffff" stroke-width="4" stroke-linecap="round"/></g></g></svg>