<svg version="1.1" xmlns="http://www.w3.org/2000/svg" xmlns:xlink="http://www.w3.org/1999/xlink" width="831.52507" height="500.16772" viewBox="0,0,831.52507,500.16772"><defs><linearGradient x1="185.44704" y1="-27.26873" x2="185.44704" y2="138.53002" gradientUnits="userSpaceOnUse" id="color-1"><stop offset="0" stop-color="#ff0000"/><stop offset="1" stop-color="#b00000"/></linearGradient><linearGradient x1="290.0048" y1="57.12433" x2="396.05625" y2="57.12433" gradientUnits="userSpaceOnUse" id="color-2"><stop offset="0" stop-color="#ff0000"/><stop offset="1" stop-color="#b00000"/></linearGradient><radialGradient cx="507.91878" cy="-27.13706" r="87.38042" gradientUnits="userSpaceOnUse" id="color-3"><stop offset="0" stop-color="#ff0000"/><stop offset="1" stop-color="#b00000"/></radialGradient><linearGradient x1="409.49939" y1="92.97271" x2="554.38658" y2="92.97271" gradientUnits="userSpaceOnUse" id="color-4"><stop offset="0" stop-color="#ff0000"/><stop offset="1" stop-color="#b00000"/></linearGradient><linearGradient x1="448.33513" y1="75.79536" x2="448.33513" y2="93.71955" gradientUnits="userSpaceOnUse" id="color-5"><stop offset="0" stop-color="#ff0000"/><stop offset="1" stop-color="#b00000"/></linearGradient><radialGradient cx="239.05596" cy="59.49652" r="93.35515" gradientUnits="userSpaceOnUse" id="color-6"><stop offset="0" stop-color="#ff0000"/><stop offset="1" stop-color="#b00000"/></radialGradient><linearGradient x1="224.28277" y1="-1.87611" x2="367.67628" y2="-1.87611" gradientUnits="userSpaceOnUse" id="color-7"><stop offset="0" stop-color="#ff0000"/><stop offset="1" stop-color="#b00000"/></linearGradient><linearGradient x1="401.28414" y1="38.4533" x2="401.28414" y2="117.61846" gradientUnits="userSpaceOnUse" id="color-8"><stop offset="0" stop-color="#ff0000"/><stop offset="1" stop-color="#b00000"/></linearGradient><radialGradient cx="113.58664" cy="146.13009" r="71.69675" gradientUnits="userSpaceOnUse" id="color-9"><stop offset="0" stop-color="#ff0000"/><stop offset="1" stop-color="#b00000"/></radialGradient><linearGradient x1="142.13025" y1="104.92217" x2="212.33332" y2="104.92217" gradientUnits="userSpaceOnUse" id="color-10"><stop offset="0" stop-color="#ff0000"/><stop offset="1" stop-color="#b00000"/></linearGradient><radialGradient cx="265.94224" cy="159.57323" r="45.55731" gradientUnits="userSpaceOnUse" id="color-11"><stop offset="0" stop-color="#ff0000"/><stop offset="1" stop-color="#b00000"/></radialGradient><linearGradient x1="115.00924" y1="160.93525" x2="115.00924" y2="247.56882" gradientUnits="userSpaceOnUse" id="color-12"><stop offset="0" stop-color="#ff0000"/><stop offset="1" stop-color="#b00000"/></linearGradient><radialGradient cx="180.80235" cy="170.02902" r="20.16471" gradientUnits="userSpaceOnUse" id="color-13"><stop offset="0" stop-color="#ff0000"/><stop offset="1" stop-color="#b00000"/></radialGradient><linearGradient x1="79.3956" y1="296.86034" x2="170.51021" y2="296.86034" gradientUnits="userSpaceOnUse" id="color-14"><stop offset="0" stop-color="#ff0000"/><stop offset="1" stop-color="#b00000"/></linearGradient><linearGradient x1="189.18123" y1="316.27821" x2="189.18123" y2="404.40547" gradientUnits="userSpaceOnUse" id="color-15"><stop offset="0" stop-color="#ff0000"/><stop offset="1" stop-color="#b00000"/></linearGradient><linearGradient x1="245.19433" y1="300.59456" x2="369.16996" y2="300.59456" gradientUnits="userSpaceOnUse" id="color-16"><stop offset="0" stop-color="#ff0000"/><stop offset="1" stop-color="#b00000"/></linearGradient><linearGradient x1="381.11942" y1="244.58146" x2="381.11942" y2="317.77189" gradientUnits="userSpaceOnUse" id="color-17"><stop offset="0" stop-color="#ff0000"/><stop offset="1" stop-color="#b00000"/></linearGradient><linearGradient x1="530.97733" y1="198.27731" x2="530.97733" y2="367.06341" gradientUnits="userSpaceOnUse" id="color-18"><stop offset="0" stop-color="#ff0000"/><stop offset="1" stop-color="#b00000"/></linearGradient><linearGradient x1="356.47366" y1="317.77189" x2="356.47366" y2="384.9876" gradientUnits="userSpaceOnUse" id="color-19"><stop offset="0" stop-color="#ff0000"/><stop offset="1" stop-color="#b00000"/></linearGradient><linearGradient x1="385.60047" y1="354.36712" x2="488.66454" y2="354.36712" gradientUnits="userSpaceOnUse" id="color-20"><stop offset="0" stop-color="#ff0000"/><stop offset="1" stop-color="#b00000"/></linearGradient><linearGradient x1="505.66397" y1="126.95923" x2="692.37427" y2="126.95923" gradientUnits="userSpaceOnUse" id="color-21"><stop offset="0" stop-color="#ff0000"/><stop offset="1" stop-color="#b00000"/></linearGradient><linearGradient x1="497.36941" y1="15.44911" x2="642.2566" y2="15.44911" gradientUnits="userSpaceOnUse" id="color-22"><stop offset="0" stop-color="#ff0000"/><stop offset="1" stop-color="#b00000"/></linearGradient><linearGradient x1="86.88985" y1="-86.07175" x2="86.88985" y2="79.72699" gradientUnits="userSpaceOnUse" id="color-23"><stop offset="0" stop-color="#ff0000"/><stop offset="1" stop-color="#b00000"/></linearGradient><linearGradient x1="16.09847" y1="-10.70449" x2="16.09847" y2="155.09425" gradientUnits="userSpaceOnUse" id="color-24"><stop offset="0" stop-color="#ff0000"/><stop offset="1" stop-color="#b00000"/></linearGradient><linearGradient x1="-15.37357" y1="104.41692" x2="-15.37357" y2="270.21567" gradientUnits="userSpaceOnUse" id="color-25"><stop offset="0" stop-color="#ff0000"/><stop offset="1" stop-color="#b00000"/></linearGradient><linearGradient x1="45.97129" y1="210.52998" x2="45.97129" y2="376.32873" gradientUnits="userSpaceOnUse" id="color-26"><stop offset="0" stop-color="#ff0000"/><stop offset="1" stop-color="#b00000"/></linearGradient><linearGradient x1="600.58706" y1="179.46274" x2="600.58706" y2="345.26148" gradientUnits="userSpaceOnUse" id="color-27"><stop offset="0" stop-color="#ff0000"/><stop offset="1" stop-color="#b00000"/></linearGradient><linearGradient x1="456.94315" y1="197.27504" x2="625.72925" y2="197.27504" gradientUnits="userSpaceOnUse" id="color-28"><stop offset="0" stop-color="#ff0000"/><stop offset="1" stop-color="#b00000"/></linearGradient><linearGradient x1="641.6231" y1="241.51979" x2="641.6231" y2="407.31854" gradientUnits="userSpaceOnUse" id="color-29"><stop offset="0" stop-color="#ff0000"/><stop offset="1" stop-color="#b00000"/></linearGradient><linearGradient x1="-53.5" y1="256.07053" x2="-53.5" y2="377.0588" gradientUnits="userSpaceOnUse" id="color-30"><stop offset="0" stop-color="#ff0000"/><stop offset="1" stop-color="#b00000"/></linearGradient></defs><g transform="translate(121.70098,92.09917)"><g data-paper-data="{&quot;isPaintingLayer&quot;:true}" fill-rule="nonzero" stroke="#000000" stroke-width="1.5" stroke-linecap="butt" stroke-linejoin="miter" stroke-miterlimit="10" stroke-dasharray="" stroke-dashoffset="0" style="mix-blend-mode: normal"><path d="M82.38295,138.53002v-165.79874h206.12817v165.79874z" fill="url(#color-1)"/><path d="M290.0048,141.51738v-168.7861h106.05145v168.7861z" fill="url(#color-2)"/><path d="M397.54993,141.51738v-174.76084h143.3935v174.76084z" fill="url(#color-3)"/><path d="M409.49939,199.77099v-213.59657h144.88719v213.59657z" fill="url(#color-4)"/><path d="M405.01834,-9.34454v-13.44313h5.97474v13.44313z" fill="#ff0000"/><path d="M379.62574,93.71955v-17.92419h137.41878v17.92419z" fill="url(#color-5)"/><path d="M139.14288,74.30168v-47.79784h186.7103v47.79784z" fill="url(#color-6)"/><path d="M224.28277,54.88381v-113.51985h143.3935v113.51985z" fill="url(#color-7)"/><path d="M352.73946,117.61846v-79.16516h97.08935v79.16516z" fill="url(#color-8)"/><path d="M49.52194,174.3784v-56.75994h143.3935v56.75994z" fill="url(#color-9)"/><path d="M142.13025,160.93525v-112.02617h70.20307v112.02617z" fill="url(#color-10)"/><path d="M198.89018,181.84681v-47.79784h91.11462v47.79784z" fill="url(#color-11)"/><path d="M52.5093,247.56882v-86.63358h124.99988v86.63358z" fill="url(#color-12)"/><path d="M163.0418,181.84681v-40.32943h37.34206v40.32943z" fill="url(#color-13)"/><path d="M79.3956,344.65819v-95.59567h91.11462v95.59567z" fill="url(#color-14)"/><path d="M62.96509,404.40547v-88.12726h252.43231v88.12726z" fill="url(#color-15)"/><path d="M245.19433,361.0887v-120.98827h123.97563v120.98827z" fill="url(#color-16)"/><path d="M351.24578,317.77189v-73.19043h59.74729v73.19043z" fill="url(#color-17)"/><path d="M476.45793,367.06341v-168.7861h109.03882v168.7861z" fill="url(#color-18)"/><path d="M297.47321,384.9876v-67.21571h118.00091v67.21571z" fill="url(#color-19)"/><path d="M385.60047,376.02551v-43.31679h103.06408v43.31679z" fill="url(#color-20)"/><path d="M505.66397,233.75752v-213.59657h186.7103v213.59658z" fill="url(#color-21)"/><path d="M497.36941,122.2474v-213.59657h144.88719v213.59658z" fill="url(#color-22)"/><path d="M-16.17423,79.72699v-165.79874h206.12817v165.79874z" fill="url(#color-23)"/><path d="M-86.96561,155.09425v-165.79874h206.12817v165.79874z" fill="url(#color-24)"/><path d="M-82.82455,270.21567v-165.79874h134.90197v165.79874z" fill="url(#color-25)"/><path d="M-21.47969,376.32873v-165.79874h134.90197v165.79874z" fill="url(#color-26)"/><path d="M533.13608,345.26148v-165.79874h134.90197v165.79874z" fill="url(#color-27)"/><path d="M625.72925,251.79443h-168.7861v-109.03882h168.7861z" fill="url(#color-28)"/><path d="M574.17212,407.31854v-165.79874h134.90197v165.79875z" fill="url(#color-29)"/><path d="M-120.95098,377.0588v-120.98827h134.90197v120.98827z" fill="url(#color-30)"/></g></g></svg>