<svg version="1.1" xmlns="http://www.w3.org/2000/svg" xmlns:xlink="http://www.w3.org/1999/xlink" width="1222.86" height="777.78704" viewBox="0,0,1222.86,777.78704"><defs><linearGradient x1="373.50001" y1="-10.63819" x2="373.50001" y2="368.36182" gradientUnits="userSpaceOnUse" id="color-1"><stop offset="0" stop-color="#000000"/><stop offset="1" stop-color="#423000"/></linearGradient></defs><g transform="translate(214.64626,270.84942)"><g data-paper-data="{&quot;isPaintingLayer&quot;:true}" fill-rule="nonzero" stroke="none" stroke-linecap="butt" stroke-linejoin="miter" stroke-miterlimit="10" stroke-dasharray="" stroke-dashoffset="0" style="mix-blend-mode: normal"><path d="M0,368.36182v-379h747v379z" fill="url(#color-1)" stroke-width="NaN"/><path d="M383.66188,463.03709l373.84485,-680.32795l152.36948,36.77891l-373.84485,680.32797z" fill-opacity="0.03529" fill="#ffffff" stroke-width="0"/><path d="M409.90559,-226.94889l-373.84485,680.32795l-152.36949,-36.77891l373.84485,-680.32797z" data-paper-data="{&quot;index&quot;:null}" fill-opacity="0.03529" fill="#ffffff" stroke-width="0"/><path d="M11.84752,387.56607l157.14121,-431.47247l64.04669,23.32565l-157.14121,431.47248z" fill-opacity="0.09804" fill="#ffffff" stroke-width="0"/><path d="M97.62966,406.53617l152.99592,-432.94718l23.74484,8.87214l-152.99592,432.94719z" fill-opacity="0.09804" fill="#ffffff" stroke-width="0"/><path d="M347.17787,460.59188l247.77376,-680.32795l100.98617,36.77891l-247.77376,680.32797z" fill-opacity="0.03529" fill="#ffffff" stroke-width="0"/><path d="M482.43559,490.50317l241.23765,-682.65321l37.43988,13.98922l-241.23764,682.65323z" fill-opacity="0.03529" fill="#ffffff" stroke-width="0"/><path d="M169.45531,22.30629v-7h9v7z" fill-opacity="0.78039" fill="#ffffff" stroke-width="0"/><path d="M171.45531,45.30628v-3h13v3z" fill-opacity="0.78039" fill="#ffffff" stroke-width="0"/><path d="M118.57361,48.18477v-43h181.60856v43z" fill="#000000" stroke-width="0"/><path d="M162.91857,28.99751c0,0.74794 0.49094,3.17016 -0.76727,3.72359c-1.80758,0.79508 -5.66121,2.2986 -8.88474,2.2986c-3.97794,0 -7.90285,-1.52455 -9.47639,-2.6526c-0.58917,-0.42236 -0.67059,-2.87312 -0.67059,-3.36959c0,-1.82245 4.43215,-3.29983 9.8995,-3.29983c5.46734,0 9.8995,1.47738 9.8995,3.29983z" fill="#ffffff" stroke-width="0"/><path d="M153.72431,32.99235c0,1.20464 0.79071,5.10592 -1.23578,5.99728c-2.91132,1.28057 -9.11805,3.70218 -14.30994,3.70218c-6.40694,0 -12.72849,-2.45547 -15.26287,-4.27233c-0.94893,-0.68026 -1.08007,-4.62751 -1.08007,-5.42713c0,-2.93527 7.13852,-5.31477 15.94433,-5.31477c8.80581,0 15.94433,2.3795 15.94433,5.31477z" fill="#ffffff" stroke-width="0"/><path d="M146.83407,20.62455c0,0.58908 0.38667,2.49685 -0.60431,2.93274c-1.42367,0.62621 -4.45883,1.8104 -6.99772,1.8104c-3.13307,0 -6.22437,-1.20075 -7.46371,-2.08921c-0.46404,-0.33266 -0.52816,-2.2629 -0.52816,-2.65393c0,-1.43538 3.49081,-2.59898 7.79695,-2.59898c4.30614,0 7.79695,1.1636 7.79695,2.59898z" fill="#ffffff" stroke-width="0"/><path d="M158.28201,11.93183c0,0.46994 0.30846,1.99186 -0.48209,2.3396c-1.13573,0.49956 -3.55703,1.44425 -5.58244,1.44425c-2.49941,0 -4.96551,-0.9579 -5.95419,-1.66667c-0.37019,-0.26537 -0.42135,-1.80524 -0.42135,-2.11718c0,-1.14508 2.78481,-2.07335 6.22004,-2.07335c3.43523,0 6.22003,0.92827 6.22003,2.07335z" fill="#ffffff" stroke-width="0"/><path d="M587.7408,492.94838l363.98307,-682.65321l56.48987,13.98922l-363.98305,682.65323z" fill-opacity="0.03529" fill="#ffffff" stroke-width="0"/><path d="M205.82667,-256.86018l-363.98306,682.65321l-56.48987,-13.98922l363.98305,-682.65323z" data-paper-data="{&quot;index&quot;:null}" fill-opacity="0.03529" fill="#ffffff" stroke-width="0"/><path d="M670.61452,75.69072c-33.00239,0 -73.62744,1 -92.29686,1c-14.79291,0 -28.2776,-24.65995 -28.2776,-36.46913c0,-11.15333 12.50141,-33.53087 27.03006,-33.53087c18.64589,0 60.29168,0 93.5444,0c19.33695,0 27.46858,23.30414 27.46858,34.86419c0,11.43866 -8.14091,34.13581 -27.46858,34.13581z" data-paper-data="{&quot;index&quot;:null}" fill="#000000" stroke-width="0"/></g></g></svg>