<svg version="1.1" xmlns="http://www.w3.org/2000/svg" xmlns:xlink="http://www.w3.org/1999/xlink" width="946.44444" height="572.57057" viewBox="0,0,946.44444,572.57057"><defs><linearGradient x1="-55.71554" y1="191.45482" x2="80.92109" y2="191.45482" gradientUnits="userSpaceOnUse" id="color-1"><stop offset="0" stop-color="#4e0000"/><stop offset="1" stop-color="#000000"/></linearGradient><linearGradient x1="546.89408" y1="194.45782" x2="689.53672" y2="194.45782" gradientUnits="userSpaceOnUse" id="color-2"><stop offset="0" stop-color="#4e0000"/><stop offset="1" stop-color="#000000"/></linearGradient><linearGradient x1="-155.31914" y1="385.41278" x2="789.12531" y2="385.41278" gradientUnits="userSpaceOnUse" id="color-3"><stop offset="0" stop-color="#4e0000"/><stop offset="1" stop-color="#000000"/></linearGradient><linearGradient x1="-102.76659" y1="-40.98831" x2="763.59978" y2="-40.98831" gradientUnits="userSpaceOnUse" id="color-4"><stop offset="0" stop-color="#4e0000"/><stop offset="1" stop-color="#000000"/></linearGradient><linearGradient x1="46.38656" y1="178.69206" x2="89.93011" y2="178.69206" gradientUnits="userSpaceOnUse" id="color-5"><stop offset="0" stop-color="#4e0000"/><stop offset="1" stop-color="#000000"/></linearGradient><linearGradient x1="586.93011" y1="178.69206" x2="543.38654" y2="178.69206" gradientUnits="userSpaceOnUse" id="color-6"><stop offset="0" stop-color="#4e0000"/><stop offset="1" stop-color="#000000"/></linearGradient><linearGradient x1="95.2207" y1="0.48536" x2="105.17687" y2="10.44153" gradientUnits="userSpaceOnUse" id="color-7"><stop offset="0" stop-color="#000000"/><stop offset="1" stop-color="#ff0000"/></linearGradient><linearGradient x1="113.24999" y1="0.48536" x2="123.20616" y2="10.44153" gradientUnits="userSpaceOnUse" id="color-8"><stop offset="0" stop-color="#000000"/><stop offset="1" stop-color="#ff0000"/></linearGradient><linearGradient x1="131.91188" y1="0.48536" x2="141.86804" y2="10.44153" gradientUnits="userSpaceOnUse" id="color-9"><stop offset="0" stop-color="#000000"/><stop offset="1" stop-color="#ff0000"/></linearGradient><linearGradient x1="148.67594" y1="0.48536" x2="158.63211" y2="10.44153" gradientUnits="userSpaceOnUse" id="color-10"><stop offset="0" stop-color="#000000"/><stop offset="1" stop-color="#ff0000"/></linearGradient><linearGradient x1="168.2207" y1="0.48536" x2="178.17687" y2="10.44153" gradientUnits="userSpaceOnUse" id="color-11"><stop offset="0" stop-color="#000000"/><stop offset="1" stop-color="#ff0000"/></linearGradient><linearGradient x1="186.24999" y1="0.48536" x2="196.20616" y2="10.44153" gradientUnits="userSpaceOnUse" id="color-12"><stop offset="0" stop-color="#000000"/><stop offset="1" stop-color="#ff0000"/></linearGradient><linearGradient x1="204.91188" y1="0.48536" x2="214.86804" y2="10.44153" gradientUnits="userSpaceOnUse" id="color-13"><stop offset="0" stop-color="#000000"/><stop offset="1" stop-color="#ff0000"/></linearGradient><linearGradient x1="221.67594" y1="0.48536" x2="231.63211" y2="10.44153" gradientUnits="userSpaceOnUse" id="color-14"><stop offset="0" stop-color="#000000"/><stop offset="1" stop-color="#ff0000"/></linearGradient><linearGradient x1="90.33655" y1="52.36213" x2="100.29271" y2="42.40596" gradientUnits="userSpaceOnUse" id="color-15"><stop offset="0" stop-color="#000000"/><stop offset="1" stop-color="#ff0000"/></linearGradient><linearGradient x1="90.33655" y1="29.09806" x2="100.29271" y2="19.14189" gradientUnits="userSpaceOnUse" id="color-16"><stop offset="0" stop-color="#000000"/><stop offset="1" stop-color="#ff0000"/></linearGradient></defs><g transform="translate(156.31915,94.83047)"><g data-paper-data="{&quot;isPaintingLayer&quot;:true}" fill-rule="nonzero" stroke="#ff0000" stroke-width="2" stroke-linejoin="miter" stroke-miterlimit="10" stroke-dasharray="" stroke-dashoffset="0" style="mix-blend-mode: normal"><path d="M-55.71554,476.74011v-570.57057h136.63664v570.57057z" fill="url(#color-1)" stroke-linecap="butt"/><path d="M546.89408,461.72509v-534.53453h142.64264v534.53453z" fill="url(#color-2)" stroke-linecap="butt"/><path d="M-155.31914,434.21158v-97.5976h944.44444v97.5976z" fill="url(#color-3)" stroke-linecap="butt"/><path d="M-102.76659,3.77614v-89.5289h866.36636v89.5289z" fill="url(#color-4)" stroke-linecap="butt"/><path d="M46.38656,388.15152v-418.91892h43.54354v418.91892z" fill="url(#color-5)" stroke-linecap="butt"/><path d="M543.38654,388.15152v-418.91892h43.54354v418.91892z" data-paper-data="{&quot;index&quot;:null}" fill="url(#color-6)" stroke-linecap="butt"/><path d="M110.06103,5.55737l-9.76832,9.76832l-9.95616,-9.95616" fill="url(#color-7)" stroke-linecap="round"/><path d="M128.09031,5.55737l-9.76831,9.76832l-9.95617,-9.95616" fill="url(#color-8)" stroke-linecap="round"/><path d="M146.7522,5.55737l-9.76832,9.76832l-9.95617,-9.95616" fill="url(#color-9)" stroke-linecap="round"/><path d="M163.51627,5.55737l-9.76832,9.76832l-9.95616,-9.95616" fill="url(#color-10)" stroke-linecap="round"/><path d="M183.06103,5.55737l-9.76832,9.76832l-9.95616,-9.95616" fill="url(#color-11)" stroke-linecap="round"/><path d="M201.09031,5.55737l-9.76831,9.76832l-9.95617,-9.95616" fill="url(#color-12)" stroke-linecap="round"/><path d="M219.7522,5.55737l-9.76832,9.76832l-9.95617,-9.95616" fill="url(#color-13)" stroke-linecap="round"/><path d="M236.51627,5.55737l-9.76832,9.76832l-9.95616,-9.95616" fill="url(#color-14)" stroke-linecap="round"/><path d="M95.40855,37.5218l9.76831,9.76832l-9.95616,9.95617" fill="url(#color-15)" stroke-linecap="round"/><path d="M95.40855,14.25774l9.76831,9.76832l-9.95616,9.95616" fill="url(#color-16)" stroke-linecap="round"/></g></g></svg>