<svg version="1.1" xmlns="http://www.w3.org/2000/svg" xmlns:xlink="http://www.w3.org/1999/xlink" width="773.10805" height="515.57264" viewBox="0,0,773.10805,515.57264"><defs><linearGradient x1="249.90196" y1="18.13831" x2="249.90196" y2="61.13833" gradientUnits="userSpaceOnUse" id="color-1"><stop offset="0" stop-color="#212121"/><stop offset="1" stop-color="#000000"/></linearGradient><linearGradient x1="113.64365" y1="43.31225" x2="133.53696" y2="43.31225" gradientUnits="userSpaceOnUse" id="color-2"><stop offset="0" stop-color="#ffffff"/><stop offset="1" stop-color="#b8b8b8"/></linearGradient><linearGradient x1="92.35972" y1="48.13826" x2="124.40029" y2="48.13826" gradientUnits="userSpaceOnUse" id="color-3"><stop offset="0" stop-color="#ffffff"/><stop offset="1" stop-color="#b8b8b8"/></linearGradient><linearGradient x1="101.76422" y1="34.65019" x2="117.4324" y2="34.65019" gradientUnits="userSpaceOnUse" id="color-4"><stop offset="0" stop-color="#ffffff"/><stop offset="1" stop-color="#b8b8b8"/></linearGradient><linearGradient x1="116.36601" y1="25.74064" x2="128.86534" y2="25.74064" gradientUnits="userSpaceOnUse" id="color-5"><stop offset="0" stop-color="#ffffff"/><stop offset="1" stop-color="#b8b8b8"/></linearGradient><linearGradient x1="388.38568" y1="21.81239" x2="388.38568" y2="64.81224" gradientTransform="translate(-404.09461,-58.02289) scale(1.07326,1.07326)" gradientUnits="userSpaceOnUse" id="color-6"><stop offset="0" stop-color="#ffffff"/><stop offset="1" stop-color="#000000"/></linearGradient></defs><g transform="translate(65.58411,100.41845)"><g data-paper-data="{&quot;isPaintingLayer&quot;:true}" fill-rule="nonzero" stroke="none" stroke-linecap="butt" stroke-linejoin="miter" stroke-miterlimit="10" stroke-dasharray="" stroke-dashoffset="0" style="mix-blend-mode: normal"><path d="M1.06953,368.36169v-379h641.50751v379z" fill="#444444" stroke-width="NaN"/><path d="M-17.15791,373.60764l-48.4262,-85.76688l687.6398,-388.25921l48.4262,85.76688z" fill="#565656" stroke-width="0"/><path d="M19.88414,415.15419l-48.4262,-85.76688l687.6398,-388.25921l48.4262,85.76688z" fill="#a7a7a7" stroke-width="0"/><path d="M17.84616,380.65569l-44.88712,-79.4989l637.38589,-359.88455l44.88712,79.4989z" fill="#000000" stroke-width="0"/><path d="M112.5,120.5v-39h40v39z" fill="#ffffff" stroke-width="0"/><path d="M161.5,109.5v-12h6v12z" fill="#ffffff" stroke-width="0"/><path d="M129.5,168.5v-35h70v35z" fill="#ffffff" stroke-width="0"/><path d="M219.5,151.5v-10h6v10z" fill="#ffffff" stroke-width="0"/><path d="M198.5,125.5v-23h17v23z" fill="#ffffff" stroke-width="0"/><path d="M246.5,102.5v-6h2v6z" fill="#ffffff" stroke-width="0"/><path d="M88.5,235.5v-41h29v41z" fill="#ffffff" stroke-width="0"/><path d="M130.5,213.5v-23h16v23z" fill="#ffffff" stroke-width="0"/><path d="M347.5,357.5v-52h63v52z" fill="#ffffff" stroke-width="0"/><path d="M429.5,323.5v-47h17v47z" fill="#ffffff" stroke-width="0"/><path d="M438.5,268.5v-32h44v32z" fill="#ffffff" stroke-width="0"/><path d="M477.5,218.5v-47h30v47z" fill="#ffffff" stroke-width="0"/><path d="M514.5,270.5v-6h3v6z" fill="#ffffff" stroke-width="0"/><path d="M455.5,285.5v-9h8v9z" fill="#ffffff" stroke-width="0"/><path d="M393.5,293.5v-12h22v12z" fill="#ffffff" stroke-width="0"/><path d="M429.5,349.5v-10h25v10z" fill="#ffffff" stroke-width="0"/><path d="M489.5,238.5v-6h10v6z" fill="#ffffff" stroke-width="0"/><path d="M515.5,184.5v-13h13v13z" fill="#ffffff" stroke-width="0"/><text transform="translate(462.16259,88.98349) scale(0.5,0.5)" font-size="40" xml:space="preserve" fill="#ffffff" fill-rule="nonzero" stroke="none" stroke-width="1" stroke-linecap="butt" stroke-linejoin="miter" stroke-miterlimit="10" stroke-dasharray="" stroke-dashoffset="0" font-family="&quot;OpenSans-Light&quot;, Sans Serif" font-weight="normal" text-anchor="start" style="mix-blend-mode: normal"><tspan x="0" dy="0">Tap!Dash</tspan></text><path d="M-62.32625,398.75225v-441.44144h70.57057v441.44144z" fill="#000000" stroke-width="0"/><path d="M635.1966,381.18459v-441.44144h70.57057v441.44144z" fill="#000000" stroke-width="0"/><path d="M535.43808,64.66691c-22.30202,0 -49.75522,0.67577 -62.37145,0.67577c-9.9966,0 -19.10915,-16.66445 -19.10915,-24.64474c0,-7.53709 8.44808,-22.65915 18.2661,-22.65915c12.60033,0 40.74331,0 63.2145,0c13.06733,0 18.56244,15.74824 18.56244,23.56017c0,7.7299 -5.50138,23.06796 -18.56244,23.06796z" data-paper-data="{&quot;index&quot;:null}" fill="#1f1f1f" stroke-width="0"/><g><path d="M94.09768,53.13833c0,0 -5,-5.89312 -5,-12.96914c0,-7.25294 5.33334,-15.69752 5.33334,-15.69752c0,0 5.19276,-6.33333 16.78942,-6.33333c35.0611,0 214.72146,0 277.66667,0c13.65654,0 18.81914,8.33333 18.81914,8.33333c0,0 3,4.73004 3,11.69753c0,7.34583 -4.33334,14.96914 -4.33334,14.96914c0,0 -3.96402,8 -17.81914,8c-62.8954,0 -240.32048,0 -276,0c-12.21209,0 -18.45609,-8 -18.45609,-8z" fill="url(#color-1)" stroke-width="0"/><path d="M133.44264,41.95107c0,0.74794 0.49094,3.17016 -0.76727,3.72359c-1.80758,0.79508 -5.66121,2.2986 -8.88474,2.2986c-3.97794,0 -7.90285,-1.52455 -9.47639,-2.6526c-0.58917,-0.42236 -0.67059,-2.87312 -0.67059,-3.36959c0,-1.82245 4.43215,-3.29983 9.8995,-3.29983c5.46734,0 9.8995,1.47738 9.8995,3.29983z" fill="url(#color-2)" stroke-width="0"/><path d="M124.24838,45.94591c0,1.20464 0.79071,5.10592 -1.23578,5.99728c-2.91132,1.28057 -9.11805,3.70218 -14.30994,3.70218c-6.40694,0 -12.72849,-2.45547 -15.26287,-4.27233c-0.94893,-0.68026 -1.08007,-4.62751 -1.08007,-5.42713c0,-2.93527 7.13852,-5.31477 15.94433,-5.31477c8.80581,0 15.94433,2.3795 15.94433,5.31477z" fill="url(#color-3)" stroke-width="0"/><path d="M117.35812,33.57809c0,0.58908 0.38667,2.49685 -0.60431,2.93274c-1.42367,0.62621 -4.45883,1.8104 -6.99772,1.8104c-3.13307,0 -6.22437,-1.20075 -7.46371,-2.08921c-0.46404,-0.33266 -0.52816,-2.2629 -0.52816,-2.65393c0,-1.43538 3.49081,-2.59898 7.79695,-2.59898c4.30614,0 7.79695,1.1636 7.79695,2.59898z" fill="url(#color-4)" stroke-width="0"/><path d="M128.80608,24.88539c0,0.46994 0.30846,1.99186 -0.48209,2.3396c-1.13573,0.49956 -3.55703,1.44425 -5.58244,1.44425c-2.49941,0 -4.96551,-0.9579 -5.95419,-1.66667c-0.37019,-0.26537 -0.42135,-1.80524 -0.42135,-2.11718c0,-1.14508 2.78481,-2.07335 6.22004,-2.07335c3.43523,0 6.22003,0.92827 6.22003,2.07335z" fill="url(#color-5)" stroke-width="0"/><text transform="translate(376.51111,54.06225) scale(0.93174,0.93174)" font-size="40" xml:space="preserve" fill="url(#color-6)" fill-rule="nonzero" stroke="none" stroke-width="1" stroke-linecap="butt" stroke-linejoin="miter" stroke-miterlimit="10" stroke-dasharray="" stroke-dashoffset="0" font-family="&quot;OpenSans-Bold&quot;, Sans Serif" font-weight="normal" text-anchor="start" style="mix-blend-mode: normal"><tspan x="0" dy="0">C</tspan></text></g></g></g></svg>