<svg version="1.1" xmlns="http://www.w3.org/2000/svg" xmlns:xlink="http://www.w3.org/1999/xlink" width="265.38673" height="48.84419" viewBox="0,0,265.38673,48.84419"><g transform="translate(-193.24958,-257.11089)"><g data-paper-data="{&quot;isPaintingLayer&quot;:true}" fill="#ffffff" fill-rule="nonzero" stroke="none" stroke-width="0" stroke-linecap="butt" stroke-linejoin="miter" stroke-miterlimit="10" stroke-dasharray="" stroke-dashoffset="0" style="mix-blend-mode: normal"><path d="M193.24958,264.63908l5.5282,-5.5282l21.82183,21.82183l-5.5282,5.5282z"/><path d="M193.24958,299.55402l22.98566,-22.98566l6.40107,6.40107l-22.98566,22.98566z"/><path d="M220.24958,264.63908l5.5282,-5.52819l21.82182,21.82182l-5.52819,5.5282z"/><path d="M220.24958,299.55402l22.98566,-22.98566l6.40107,6.40107l-22.98566,22.98566z"/><path d="M246.24958,264.63908l5.5282,-5.52819l21.82182,21.82182l-5.52819,5.5282z"/><path d="M246.24958,299.55402l22.98566,-22.98566l6.40107,6.40107l-22.98566,22.98566z"/><path d="M273.24958,264.63908l5.5282,-5.52819l21.82182,21.82182l-5.52819,5.5282z"/><path d="M273.24958,299.55402l22.98566,-22.98566l6.40107,6.40107l-22.98566,22.98566z"/><path d="M349.24958,262.63908l5.5282,-5.52819l21.82182,21.82182l-5.52819,5.5282z"/><path d="M349.24958,297.55402l22.98566,-22.98566l6.40107,6.40107l-22.98566,22.98566z"/><path d="M376.24958,262.63908l5.5282,-5.52819l21.82182,21.82182l-5.52819,5.5282z"/><path d="M376.24958,297.55402l22.98566,-22.98566l6.40107,6.40107l-22.98566,22.98566z"/><path d="M402.24958,262.63908l5.5282,-5.52819l21.82182,21.82182l-5.52819,5.5282z"/><path d="M402.24958,297.55402l22.98566,-22.98566l6.40107,6.40107l-22.98566,22.98566z"/><path d="M429.24958,262.63908l5.5282,-5.52819l21.82182,21.82182l-5.52819,5.5282z"/><path d="M429.24958,297.55402l22.98566,-22.98566l6.40107,6.40107l-22.98566,22.98566z"/></g></g></svg>