<svg version="1.1" xmlns="http://www.w3.org/2000/svg" xmlns:xlink="http://www.w3.org/1999/xlink" width="775.90073" height="851.97532" viewBox="0,0,775.90073,851.97532"><defs><radialGradient cx="373.49999" cy="188.43759" r="373.49999" gradientUnits="userSpaceOnUse" id="color-1"><stop offset="0" stop-color="#000000"/><stop offset="1" stop-color="#001c35"/></radialGradient><radialGradient cx="212.27043" cy="388.62827" r="241.17118" gradientUnits="userSpaceOnUse" id="color-2"><stop offset="0" stop-color="#090909"/><stop offset="1" stop-color="#090909" stop-opacity="0"/></radialGradient><radialGradient cx="363.42659" cy="18.9953" r="241.17118" gradientUnits="userSpaceOnUse" id="color-3"><stop offset="0" stop-color="#000000" stop-opacity="0.66667"/><stop offset="1" stop-color="#000000" stop-opacity="0"/></radialGradient><radialGradient cx="71.38672" cy="146.31446" r="0.00125" gradientUnits="userSpaceOnUse" id="color-4"><stop offset="0" stop-color="#727272"/><stop offset="1" stop-color="#0e0e0e"/></radialGradient><radialGradient cx="193.51067" cy="281.51783" r="204.38439" gradientUnits="userSpaceOnUse" id="color-5"><stop offset="0" stop-color="#000000" stop-opacity="0.49804"/><stop offset="1" stop-color="#000000" stop-opacity="0"/></radialGradient><radialGradient cx="100.91909" cy="176.90821" r="115.7958" gradientUnits="userSpaceOnUse" id="color-6"><stop offset="0" stop-color="#ffffff" stop-opacity="0.26667"/><stop offset="1" stop-color="#ffffff" stop-opacity="0"/></radialGradient><radialGradient cx="539.85301" cy="367.86251" r="174.35436" gradientUnits="userSpaceOnUse" id="color-7"><stop offset="0" stop-color="#ffffff" stop-opacity="0.58039"/><stop offset="1" stop-color="#ffffff" stop-opacity="0"/></radialGradient><radialGradient cx="366.92509" cy="139.61092" r="53.48349" gradientUnits="userSpaceOnUse" id="color-8"><stop offset="0" stop-color="#ffffff" stop-opacity="0.07451"/><stop offset="1" stop-color="#ffffff" stop-opacity="0"/></radialGradient><radialGradient cx="537.09026" cy="81.54785" r="53.48349" gradientUnits="userSpaceOnUse" id="color-9"><stop offset="0" stop-color="#ffffff" stop-opacity="0.76471"/><stop offset="1" stop-color="#ffffff" stop-opacity="0"/></radialGradient><radialGradient cx="163.71188" cy="59.52083" r="74.5045" gradientUnits="userSpaceOnUse" id="color-10"><stop offset="0" stop-color="#ffffff" stop-opacity="0.26667"/><stop offset="1" stop-color="#ffffff" stop-opacity="0"/></radialGradient><radialGradient cx="264.56774" cy="160.37669" r="33.21322" gradientUnits="userSpaceOnUse" id="color-11"><stop offset="0" stop-color="#ffffff" stop-opacity="0.07451"/><stop offset="1" stop-color="#ffffff" stop-opacity="0"/></radialGradient><radialGradient cx="251.54972" cy="294.50582" r="33.21322" gradientUnits="userSpaceOnUse" id="color-12"><stop offset="0" stop-color="#ffffff" stop-opacity="0.07451"/><stop offset="1" stop-color="#ffffff" stop-opacity="0"/></radialGradient><radialGradient cx="454.74792" cy="50.25658" r="33.21321" gradientUnits="userSpaceOnUse" id="color-13"><stop offset="0" stop-color="#ffffff" stop-opacity="0.07451"/><stop offset="1" stop-color="#ffffff" stop-opacity="0"/></radialGradient></defs><g transform="translate(28.90073,222.17588)"><g data-paper-data="{&quot;isPaintingLayer&quot;:true}" fill-rule="nonzero" stroke="none" stroke-width="0" stroke-linecap="butt" stroke-linejoin="miter" stroke-miterlimit="10" stroke-dasharray="" stroke-dashoffset="0" style="mix-blend-mode: normal"><path d="M0,376.87517v-376.87517h747v376.87517z" fill="url(#color-1)"/><path d="M-28.90073,388.62827c0,-133.19514 107.97602,-241.17118 241.17117,-241.17118c133.19514,0 241.17118,107.97603 241.17118,241.17118c0,133.19514 -107.97604,241.17117 -241.17118,241.17117c-133.19514,0 -241.17117,-107.97603 -241.17117,-241.17117z" fill="url(#color-2)"/><path d="M122.25543,18.9953c0,-133.19514 107.97602,-241.17118 241.17117,-241.17118c133.19514,0 241.17118,107.97604 241.17118,241.17118c0,133.19515 -107.97604,241.17117 -241.17118,241.17117c-133.19514,0 -241.17117,-107.97602 -241.17117,-241.17117z" fill="url(#color-3)"/><path d="M9.27344,292.62892z" fill="url(#color-4)"/><path d="M-10.87371,281.51783c0,-112.87836 91.50602,-204.38439 204.38438,-204.38439c112.87837,0 204.38439,91.50603 204.38439,204.38439c0,112.87836 -91.50602,204.38438 -204.38439,204.38438c-112.87836,0 -204.38438,-91.50602 -204.38438,-204.38438z" fill="url(#color-5)"/><path d="M-14.87671,176.90821c0,-63.95224 51.84355,-115.7958 115.7958,-115.7958c63.95225,0 115.7958,51.84356 115.7958,115.7958c0,63.95224 -51.84356,115.79579 -115.7958,115.79579c-63.95225,0 -115.79579,-51.84355 -115.79579,-115.79579z" fill="url(#color-6)"/><path d="M365.49866,367.86251c0,-96.29324 78.06111,-174.35436 174.35435,-174.35436c96.29324,0 174.35436,78.06112 174.35436,174.35436c0,96.29324 -78.06112,174.35435 -174.35436,174.35435c-96.29324,0 -174.35435,-78.06111 -174.35435,-174.35435z" fill="url(#color-7)"/><path d="M313.44161,139.61092c0,-29.53811 23.94537,-53.48348 53.48348,-53.48348c29.53811,0 53.48349,23.94538 53.48349,53.48349c0,29.53811 -23.94538,53.48349 -53.48348,53.48349c-29.53811,0 -53.48348,-23.94538 -53.48348,-53.48348z" fill="url(#color-8)"/><path d="M483.60677,81.54785c0,-29.53811 23.94538,-53.48348 53.48349,-53.48348c29.53811,0 53.48349,23.94538 53.48349,53.48349c0,29.53811 -23.94538,53.48348 -53.48348,53.48348c-29.53811,0 -53.48348,-23.94537 -53.48348,-53.48348z" fill="url(#color-9)"/><path d="M89.20738,59.52083c0,-41.1477 33.35681,-74.50451 74.5045,-74.50451c41.1477,0 74.5045,33.35681 74.5045,74.50451c0,41.1477 -33.3568,74.50451 -74.5045,74.50451c-41.1477,0 -74.5045,-33.35681 -74.5045,-74.50451z" fill="url(#color-10)"/><path d="M231.35453,160.37669c0,-18.34315 14.87006,-33.21321 33.21321,-33.21321c18.34315,0 33.21322,14.87007 33.21322,33.21322c0,18.34315 -14.87007,33.21322 -33.21321,33.21322c-18.34315,0 -33.21321,-14.87007 -33.21321,-33.21321z" fill="url(#color-11)"/><path d="M218.33651,294.50582c0,-18.34315 14.87006,-33.21322 33.21321,-33.21322c18.34315,0 33.21322,14.87007 33.21322,33.21322c0,18.34315 -14.87007,33.21321 -33.21321,33.21321c-18.34315,0 -33.21321,-14.87006 -33.21321,-33.21321z" fill="url(#color-12)"/><path d="M421.53471,50.25658c0,-18.34315 14.87006,-33.21321 33.21321,-33.21321c18.34315,0 33.21321,14.87007 33.21321,33.21322c0,18.34315 -14.87007,33.21321 -33.21321,33.21321c-18.34315,0 -33.21321,-14.87007 -33.21321,-33.21321z" fill="url(#color-13)"/></g></g></svg>