<svg version="1.1" xmlns="http://www.w3.org/2000/svg" xmlns:xlink="http://www.w3.org/1999/xlink" width="398.78214" height="345.76161" viewBox="0,0,398.78214,345.76161"><defs><linearGradient x1="461.68288" y1="157.2502" x2="461.68288" y2="211.09361" gradientUnits="userSpaceOnUse" id="color-1"><stop offset="0" stop-color="#ff6200"/><stop offset="1" stop-color="#490000"/></linearGradient><linearGradient x1="434.81247" y1="271.96812" x2="434.81247" y2="287.93402" gradientUnits="userSpaceOnUse" id="color-2"><stop offset="0" stop-color="#ff6200"/><stop offset="1" stop-color="#490000"/></linearGradient><linearGradient x1="436.94946" y1="75.76641" x2="436.94946" y2="90.54965" gradientUnits="userSpaceOnUse" id="color-3"><stop offset="0" stop-color="#ff6200"/><stop offset="1" stop-color="#490000"/></linearGradient><linearGradient x1="533.63186" y1="87.59299" x2="533.63186" y2="132.53404" gradientUnits="userSpaceOnUse" id="color-4"><stop offset="0" stop-color="#ff6200"/><stop offset="1" stop-color="#490000"/></linearGradient><linearGradient x1="499.33474" y1="201.12827" x2="499.33474" y2="211.18087" gradientUnits="userSpaceOnUse" id="color-5"><stop offset="0" stop-color="#ff6200"/><stop offset="1" stop-color="#490000"/></linearGradient><linearGradient x1="326.07518" y1="220.23348" x2="326.07518" y2="283.32308" gradientUnits="userSpaceOnUse" id="color-6"><stop offset="0" stop-color="#ff6200"/><stop offset="1" stop-color="#490000"/></linearGradient><linearGradient x1="382.54716" y1="339.05773" x2="382.54716" y2="352.65831" gradientUnits="userSpaceOnUse" id="color-7"><stop offset="0" stop-color="#ff6200"/><stop offset="1" stop-color="#490000"/></linearGradient><linearGradient x1="257.4376" y1="292.07333" x2="257.4376" y2="338.19703" gradientUnits="userSpaceOnUse" id="color-8"><stop offset="0" stop-color="#ff6200"/><stop offset="1" stop-color="#490000"/></linearGradient><linearGradient x1="254.48053" y1="220.36378" x2="254.48053" y2="238.10367" gradientUnits="userSpaceOnUse" id="color-9"><stop offset="0" stop-color="#ff6200"/><stop offset="1" stop-color="#490000"/></linearGradient><linearGradient x1="206.33096" y1="220.38777" x2="206.33096" y2="284.97737" gradientUnits="userSpaceOnUse" id="color-10"><stop offset="0" stop-color="#ff6200"/><stop offset="1" stop-color="#490000"/></linearGradient><linearGradient x1="171.14683" y1="330.66806" x2="171.14683" y2="344.85997" gradientUnits="userSpaceOnUse" id="color-11"><stop offset="0" stop-color="#ff6200"/><stop offset="1" stop-color="#490000"/></linearGradient><linearGradient x1="279.06447" y1="338.35534" x2="279.06447" y2="353.13858" gradientUnits="userSpaceOnUse" id="color-12"><stop offset="0" stop-color="#ff6200"/><stop offset="1" stop-color="#490000"/></linearGradient><linearGradient x1="411.22663" y1="288.86631" x2="411.22663" y2="352.81661" gradientUnits="userSpaceOnUse" id="color-13"><stop offset="0" stop-color="#ff6200"/><stop offset="1" stop-color="#490000"/></linearGradient><linearGradient x1="381.36448" y1="11.94143" x2="381.36448" y2="30.86398" gradientUnits="userSpaceOnUse" id="color-14"><stop offset="0" stop-color="#ff6200"/><stop offset="1" stop-color="#490000"/></linearGradient><linearGradient x1="418.32257" y1="13.12409" x2="418.32257" y2="74.03103" gradientUnits="userSpaceOnUse" id="color-15"><stop offset="0" stop-color="#ff6200"/><stop offset="1" stop-color="#490000"/></linearGradient><linearGradient x1="148.67631" y1="219.65641" x2="148.67631" y2="281.74601" gradientUnits="userSpaceOnUse" id="color-16"><stop offset="0" stop-color="#ff6200"/><stop offset="1" stop-color="#490000"/></linearGradient><linearGradient x1="523.79745" y1="156.99954" x2="523.79745" y2="176.3866" gradientUnits="userSpaceOnUse" id="color-17"><stop offset="0" stop-color="#f0ff00"/><stop offset="1" stop-color="#4a4400"/></linearGradient><linearGradient x1="511.27539" y1="161.90674" x2="511.27539" y2="172.88955" gradientUnits="userSpaceOnUse" id="color-18"><stop offset="0" stop-color="#f0ff00"/><stop offset="1" stop-color="#4a4400"/></linearGradient><linearGradient x1="517.8136" y1="168.97207" x2="517.8136" y2="187.68281" gradientUnits="userSpaceOnUse" id="color-19"><stop offset="0" stop-color="#ff6200"/><stop offset="1" stop-color="#490000"/></linearGradient><linearGradient x1="510.0529" y1="188.5333" x2="510.0529" y2="196.61293" gradientUnits="userSpaceOnUse" id="color-20"><stop offset="0" stop-color="#ff6200"/><stop offset="1" stop-color="#490000"/></linearGradient><linearGradient x1="527.80684" y1="188.32067" x2="527.80684" y2="196.61293" gradientUnits="userSpaceOnUse" id="color-21"><stop offset="0" stop-color="#ff6200"/><stop offset="1" stop-color="#490000"/></linearGradient></defs><g transform="translate(-141.76301,-10.94143)"><g data-paper-data="{&quot;isPaintingLayer&quot;:true}" fill-rule="nonzero" stroke-linejoin="miter" stroke-miterlimit="10" stroke-dasharray="" stroke-dashoffset="0" style="mix-blend-mode: normal"><path d="M424.55542,295.18379l2.33089,-2.33089l13.57744,13.57744l-2.33089,2.33089z" fill="#3c4700" stroke="#000000" stroke-width="1" stroke-linecap="butt"/><path d="M436.90915,305.20663c1.19077,-1.19077 3.12138,-1.19077 4.31215,0c1.19077,1.19077 1.19077,3.12138 0,4.31215c-1.19077,1.19077 -3.12138,1.19077 -4.31215,0c-1.19077,-1.19077 -1.19077,-3.12138 0,-4.31215z" fill="#feff00" stroke="#000000" stroke-width="1" stroke-linecap="butt"/><path d="M455.47392,211.09361v-53.84341h12.41792v53.84341z" fill="url(#color-1)" stroke="#000000" stroke-width="2.5" stroke-linecap="butt"/><path d="M402.81334,287.93402v-15.9659h63.99827v15.9659z" fill="url(#color-2)" stroke="#000000" stroke-width="2" stroke-linecap="butt"/><path d="M409.45264,90.54965v-14.78324h54.99365v14.78324z" fill="url(#color-3)" stroke="#000000" stroke-width="2" stroke-linecap="butt"/><path d="M527.71857,132.53404v-44.94105h11.82659v44.94105z" fill="url(#color-4)" stroke="#000000" stroke-width="2" stroke-linecap="butt"/><path d="M466.81162,211.18087v-10.0526h65.04625v10.0526z" fill="url(#color-5)" stroke="#000000" stroke-width="2" stroke-linecap="butt"/><path d="M294.14339,283.32308v-63.0896h63.86359v63.0896z" fill="url(#color-6)" stroke="#000000" stroke-width="2" stroke-linecap="butt"/><path d="M360.3723,352.65831v-13.60058h44.34972v13.60058z" fill="url(#color-7)" stroke="#000000" stroke-width="2" stroke-linecap="butt"/><path d="M248.56766,338.19703v-46.1237h17.73989v46.1237z" fill="url(#color-8)" stroke="#000000" stroke-width="2" stroke-linecap="butt"/><path d="M215.75033,238.10367v-17.73989h77.46041v17.73989z" fill="url(#color-9)" stroke="#000000" stroke-width="2" stroke-linecap="butt"/><path d="M198.34801,284.97737v-64.5896h15.9659v64.5896z" fill="url(#color-10)" stroke="#000000" stroke-width="2" stroke-linecap="butt"/><path d="M144.53699,344.85997v-14.19191h53.21966v14.19191z" fill="url(#color-11)" stroke="#000000" stroke-width="2" stroke-linecap="butt"/><path d="M248.611,353.13858v-14.78324h60.90694v14.78324z" fill="url(#color-12)" stroke="#000000" stroke-width="2" stroke-linecap="butt"/><path d="M402.94802,352.81661v-63.9503h16.55723v63.9503z" fill="url(#color-13)" stroke="#000000" stroke-width="2" stroke-linecap="butt"/><path d="M355.05032,30.86398v-18.92255h52.62833v18.92255z" fill="url(#color-14)" stroke="#000000" stroke-width="2" stroke-linecap="butt"/><path d="M410.63529,74.03103v-60.90694h15.37457v60.90694z" fill="url(#color-15)" stroke="#000000" stroke-width="2" stroke-linecap="butt"/><path d="M142.76302,281.74601v-62.0896h11.82659v62.0896z" fill="url(#color-16)" stroke="#000000" stroke-width="2" stroke-linecap="butt"/><path d="M149.88673,221.50589l-6,42" fill="none" stroke="#000000" stroke-width="2" stroke-linecap="round"/><path d="M150.88673,263.00588l-5,18" fill="none" stroke="#000000" stroke-width="2" stroke-linecap="round"/><path d="M205.03734,223.75589l1.39961,59.25" fill="none" stroke="#000000" stroke-width="2" stroke-linecap="round"/><path d="M235.38674,237.50589l-1,-17" fill="none" stroke="#000000" stroke-width="2" stroke-linecap="round"/><path d="M228.63674,234.25589l-2.5,-12.5" fill="none" stroke="#000000" stroke-width="2" stroke-linecap="round"/><path d="M240.88674,224.50589l1.5,7" fill="none" stroke="#000000" stroke-width="2" stroke-linecap="round"/><path d="M267.88676,226.50589l2,5" fill="none" stroke="#000000" stroke-width="2" stroke-linecap="round"/><path d="M278.13676,223.25589l4,13" fill="none" stroke="#000000" stroke-width="2" stroke-linecap="round"/><path d="M273.71281,236.75589l-1.34783,-15.5" fill="none" stroke="#000000" stroke-width="2" stroke-linecap="round"/><path d="M314.88676,275.50589l-6,-52" fill="none" stroke="#000000" stroke-width="2" stroke-linecap="round"/><path d="M329.88676,231.00589l3,41" fill="none" stroke="#000000" stroke-width="2" stroke-linecap="round"/><path d="M348.88675,253.50589l-0.5,-28" fill="none" stroke="#000000" stroke-width="2" stroke-linecap="round"/><path d="M255.38676,296.20304l1.5,28.5" fill="none" stroke="#000000" stroke-width="2" stroke-linecap="round"/><path d="M166.38673,340.20304l-0.5,-4.5" fill="none" stroke="#000000" stroke-width="2" stroke-linecap="round"/><path d="M185.38674,335.20304l1,5" fill="none" stroke="#000000" stroke-width="2" stroke-linecap="round"/><path d="M148.38673,332.70304l1.5,11" fill="none" stroke="#000000" stroke-width="2" stroke-linecap="round"/><path d="M262.38676,345.70304l0.5,4" fill="none" stroke="#000000" stroke-width="2" stroke-linecap="round"/><path d="M279.88676,338.20304l0.5,6.5" fill="none" stroke="#000000" stroke-width="2" stroke-linecap="round"/><path d="M288.88676,343.70304v12" fill="none" stroke="#000000" stroke-width="2" stroke-linecap="round"/><path d="M382.88675,353.70304l-3,-8.5" fill="none" stroke="#000000" stroke-width="2" stroke-linecap="round"/><path d="M411.38676,324.70304l1.5,28" fill="none" stroke="#000000" stroke-width="2" stroke-linecap="round"/><path d="M418.88676,272.20304v10" fill="none" stroke="#000000" stroke-width="2" stroke-linecap="round"/><path d="M432.88676,281.20304l0.5,6.5" fill="none" stroke="#000000" stroke-width="2" stroke-linecap="round"/><path d="M447.38676,273.70304v8.5" fill="none" stroke="#000000" stroke-width="2" stroke-linecap="round"/><path d="M460.38676,195.70304l3,-18.5" fill="none" stroke="#000000" stroke-width="2" stroke-linecap="round"/><path d="M501.38676,202.20304l1.5,6.5" fill="none" stroke="#000000" stroke-width="2" stroke-linecap="round"/><path d="M488.88676,206.20304l-0.5,3.5" fill="none" stroke="#000000" stroke-width="2" stroke-linecap="round"/><path d="M413.88676,31.00589l1,28.5" fill="none" stroke="#000000" stroke-width="2" stroke-linecap="round"/><path d="M375.88675,14.50589v6" fill="none" stroke="#000000" stroke-width="2" stroke-linecap="round"/><path d="M383.88675,22.00589l2,5" fill="none" stroke="#000000" stroke-width="2" stroke-linecap="round"/><path d="M446.38676,78.00589l1,7.5" fill="none" stroke="#000000" stroke-width="2" stroke-linecap="round"/><path d="M435.38676,89.50589l-2.5,-6.5" fill="none" stroke="#000000" stroke-width="2" stroke-linecap="round"/><path d="M530.88676,124.00589l0.5,-21" fill="none" stroke="#000000" stroke-width="2" stroke-linecap="round"/><path d="M530.63676,198.50589h-63.5" fill="none" stroke="#757575" stroke-width="2" stroke-linecap="round"/><path d="M254.85681,237.28484l-0.1358,-15.5579" fill="none" stroke="#000000" stroke-width="2" stroke-linecap="round"/><path d="M435.38725,288.72193h-15.02272v14.23206c0,0 9.30137,-0.71975 11.72394,-3.01483c2.57562,-2.44006 3.29878,-11.21723 3.29878,-11.21723z" fill="#484848" stroke="#000000" stroke-width="1" stroke-linecap="round"/><path d="M515.05895,176.3866v-19.38706h17.477v19.38706z" fill="url(#color-17)" stroke="none" stroke-width="0" stroke-linecap="butt"/><path d="M504.01718,172.88955v-10.98282h14.51642v10.98282z" fill="url(#color-18)" stroke="none" stroke-width="0" stroke-linecap="butt"/><path d="M530.67724,187.68281l4.25244,-18.71074h-34.23215l5.52817,18.71074z" fill="url(#color-19)" stroke="#000000" stroke-width="2" stroke-linecap="round"/><path d="M506.01308,192.57312c0,-2.23113 1.80869,-4.03982 4.03982,-4.03982c2.23113,0 4.03982,1.80869 4.03982,4.03982c0,2.23113 -1.80869,4.03982 -4.03982,4.03982c-2.23113,0 -4.03982,-1.80869 -4.03982,-4.03982z" fill="url(#color-20)" stroke="#000000" stroke-width="1" stroke-linecap="butt"/><path d="M523.66071,192.4668c0,-2.28984 1.85629,-4.14613 4.14613,-4.14613c2.28984,0 4.14613,1.85629 4.14613,4.14613c0,2.28984 -1.85629,4.14613 -4.14613,4.14613c-2.28984,0 -4.14613,-1.85629 -4.14613,-4.14613z" fill="url(#color-21)" stroke="#000000" stroke-width="1" stroke-linecap="butt"/></g></g></svg>