<svg version="1.1" xmlns="http://www.w3.org/2000/svg" xmlns:xlink="http://www.w3.org/1999/xlink" width="82.5" height="61.5" viewBox="0,0,82.5,61.5"><g transform="translate(-199.5,-149.5)"><g data-paper-data="{&quot;isPaintingLayer&quot;:true}" fill-rule="nonzero" stroke="#a7a7a7" stroke-linejoin="miter" stroke-miterlimit="10" stroke-dasharray="" stroke-dashoffset="0" style="mix-blend-mode: normal"><path d="M202.75,170.5h74.5" fill="none" stroke-width="5" stroke-linecap="round"/><path d="M202,208.5v-56.5h77.5v56.5z" fill="none" stroke-width="5" stroke-linecap="butt"/><path d="M203,189h75.5" fill="none" stroke-width="5" stroke-linecap="round"/><path d="M220,153.5v55" fill="none" stroke-width="5" stroke-linecap="round"/><path d="M257.5,155v50" fill="none" stroke-width="5" stroke-linecap="round"/><path d="M236.5,153.5v51" fill="none" stroke-width="5" stroke-linecap="round"/><path d="M201,161.5c0,-5.52284 4.47715,-10 10,-10c0.25229,0 0.5024,0.00934 0.75,0.0277c0.2476,-0.01836 0.49771,-0.0277 0.75,-0.0277c5.52285,0 10,4.47716 10,10c0,5.52284 -4.47715,10 -10,10c-0.25229,0 -0.5024,-0.00934 -0.75,-0.0277c-0.2476,0.01836 -0.49771,0.0277 -0.75,0.0277c-5.52285,0 -10,-4.47716 -10,-10z" fill="#a7a7a7" stroke-width="0.5" stroke-linecap="butt"/><path d="M218.5,179.5c0,-5.52284 4.47715,-10 10,-10c5.52285,0 10,4.47716 10,10c0,5.52284 -4.47715,10 -10,10c-5.52285,0 -10,-4.47716 -10,-10z" fill="#a7a7a7" stroke-width="0.5" stroke-linecap="butt"/><path d="M237,198.5c0,-5.52284 4.47715,-10 10,-10c5.52285,0 10,4.47716 10,10c0,5.52284 -4.47715,10 -10,10c-5.52285,0 -10,-4.47716 -10,-10z" fill="#a7a7a7" stroke-width="0.5" stroke-linecap="butt"/><path d="M200.5,198c0,-5.52284 4.47715,-10 10,-10c5.52285,0 10,4.47716 10,10c0,5.52284 -4.47715,10 -10,10c-5.52285,0 -10,-4.47716 -10,-10z" fill="#a7a7a7" stroke-width="0.5" stroke-linecap="butt"/><path d="M237,161.5c0,-5.52284 4.47715,-10 10,-10c5.52285,0 10,4.47716 10,10c0,5.52284 -4.47715,10 -10,10c-5.52285,0 -10,-4.47716 -10,-10z" fill="#a7a7a7" stroke-width="0.5" stroke-linecap="butt"/><path d="M258.5,179c0,-5.52284 4.47715,-10 10,-10c5.52285,0 10,4.47716 10,10c0,5.52284 -4.47715,10 -10,10c-5.52285,0 -10,-4.47716 -10,-10z" fill="#a7a7a7" stroke-width="0.5" stroke-linecap="butt"/></g></g></svg>