<svg version="1.1" xmlns="http://www.w3.org/2000/svg" xmlns:xlink="http://www.w3.org/1999/xlink" width="44.68382" height="41.79694" viewBox="0,0,44.68382,41.79694"><defs><linearGradient x1="318.13829" y1="191.86867" x2="318.13829" y2="212.17553" gradientTransform="translate(-710.79392,-489.52622) scale(2.36373,2.36373)" gradientUnits="userSpaceOnUse" id="color-1"><stop offset="0" stop-color="#1a1a1a"/><stop offset="1" stop-color="#ffffff"/></linearGradient><linearGradient x1="331.77536" y1="190.48474" x2="331.77536" y2="213.55974" gradientTransform="translate(-650.47073,-415.58199) scale(2,2)" gradientUnits="userSpaceOnUse" id="color-2"><stop offset="0" stop-color="#1a1a1a"/><stop offset="1" stop-color="#ffffff"/></linearGradient></defs><g transform="translate(-294.80154,-172.24405)"><g data-paper-data="{&quot;isPaintingLayer&quot;:true}" fill-rule="nonzero" stroke="none" stroke-linecap="butt" stroke-linejoin="miter" stroke-miterlimit="10" stroke-dasharray="" stroke-dashoffset="0" style="mix-blend-mode: normal"><path d="M294.80154,208.92161v-36.67756h43.67526v36.67756z" fill="#2b2b2b" stroke-width="NaN"/><path d="M295.82459,188.27059v-5.74402h16.923v5.74402z" fill="#000000" stroke-width="0"/><path d="M295.81732,200.68186v-5.74402h9.47943v5.74402z" fill="#000000" stroke-width="0"/><path d="M301.83391,181.11296v-5.74402h14.80526v5.74402z" fill="#000000" stroke-width="0"/><path d="M329.04913,181.11296v-5.74402h9.47943v5.74402z" fill="#000000" stroke-width="0"/><path d="M296.02022,181.11296v-5.74402h5.0577v5.74402z" fill="#000000" stroke-width="0"/><path d="M295.81732,193.45484v-5.74402h9.47943v5.74402z" fill="#000000" stroke-width="0"/><path d="M295.94936,207.96645v-5.74402h5.0577v5.74402z" fill="#000000" stroke-width="0"/><path d="M301.75723,207.94037v-5.74402h5.0577v5.74402z" fill="#000000" stroke-width="0"/><path d="M327.03565,197.45736v-5.74402h9.47943v5.74402z" fill="#000000" stroke-width="0"/><path d="M327.03565,204.89425v-5.74402h9.47943v5.74402z" fill="#000000" stroke-width="0"/><text transform="translate(300.70848,207.09896) scale(0.42306,0.42306)" font-size="40" xml:space="preserve" fill="url(#color-1)" fill-rule="nonzero" stroke="none" stroke-width="1" stroke-linecap="butt" stroke-linejoin="miter" stroke-miterlimit="10" stroke-dasharray="" stroke-dashoffset="0" font-family="Sans Serif" font-weight="normal" text-anchor="start" style="mix-blend-mode: normal"><tspan x="0" dy="0">v21</tspan></text><text transform="translate(325.23537,207.79099) scale(0.5,0.5)" font-size="40" xml:space="preserve" fill="url(#color-2)" fill-rule="nonzero" stroke="none" stroke-width="1" stroke-linecap="butt" stroke-linejoin="miter" stroke-miterlimit="10" stroke-dasharray="" stroke-dashoffset="0" font-family="Sans Serif" font-weight="normal" text-anchor="start" style="mix-blend-mode: normal"><tspan x="0" dy="0">A</tspan></text></g></g></svg>