<svg version="1.1" xmlns="http://www.w3.org/2000/svg" xmlns:xlink="http://www.w3.org/1999/xlink" width="171.70937" height="50" viewBox="0,0,171.70937,50"><defs><linearGradient x1="336.45937" y1="161.25" x2="336.45937" y2="198.75" gradientUnits="userSpaceOnUse" id="color-1"><stop offset="0" stop-color="#000000"/><stop offset="1" stop-color="#ff0000"/></linearGradient><linearGradient x1="258.5" y1="156" x2="258.5" y2="204" gradientUnits="userSpaceOnUse" id="color-2"><stop offset="0" stop-color="#000000"/><stop offset="1" stop-color="#ff0000"/></linearGradient><linearGradient x1="258.28642" y1="161.92222" x2="258.28642" y2="188.58889" gradientUnits="userSpaceOnUse" id="color-3"><stop offset="0" stop-color="#ffffff"/><stop offset="1" stop-color="#ff0000"/></linearGradient><linearGradient x1="258.58271" y1="183.05802" x2="258.58271" y2="190.36667" gradientUnits="userSpaceOnUse" id="color-4"><stop offset="0" stop-color="#ffffff"/><stop offset="1" stop-color="#ff0000"/></linearGradient></defs><g transform="translate(-233.5,-155)"><g data-paper-data="{&quot;isPaintingLayer&quot;:true}" fill-rule="nonzero" stroke-linecap="butt" stroke-linejoin="miter" stroke-miterlimit="10" stroke-dasharray="" stroke-dashoffset="0" style="mix-blend-mode: normal"><path d="M268.70937,198.75v-37.5h135.5v37.5z" fill="url(#color-1)" stroke="#000000" stroke-width="2"/><path d="M234.5,180c0,-13.25483 10.74517,-24 24,-24c13.25483,0 24,10.74517 24,24c0,13.25483 -10.74517,24 -24,24c-13.25483,0 -24,-10.74517 -24,-24z" fill="url(#color-2)" stroke="#000000" stroke-width="2"/><path d="M254.82963,188.58889v-26.66667h6.91358v26.66667z" fill="url(#color-3)" stroke="#000000" stroke-width="2"/><path d="M247.12592,183.4037v-0.34568h22.91358v0.19753l-11.65432,16.59259z" fill="url(#color-4)" stroke="#000000" stroke-width="2"/><text transform="translate(292.70937,184.73995) scale(0.41083,0.41083)" font-size="40" xml:space="preserve" fill="#ffffff" fill-rule="nonzero" stroke="none" stroke-width="1" stroke-linecap="butt" stroke-linejoin="miter" stroke-miterlimit="10" stroke-dasharray="" stroke-dashoffset="0" font-family="&quot;OpenSans-Bold&quot;, Sans Serif" font-weight="normal" text-anchor="start" style="mix-blend-mode: normal"><tspan x="0" dy="0">Autosaving..</tspan></text></g></g></svg>