<svg version="1.1" xmlns="http://www.w3.org/2000/svg" xmlns:xlink="http://www.w3.org/1999/xlink" width="747" height="407.4461" viewBox="0,0,747,407.4461"><defs><linearGradient x1="-50.61762" y1="180.8447" x2="696.38238" y2="180.8447" gradientUnits="userSpaceOnUse" id="color-1"><stop offset="0" stop-color="#00bdb1"/><stop offset="1" stop-color="#0079b1"/></linearGradient></defs><g transform="translate(50.61762,8.08881)"><g data-paper-data="{&quot;isPaintingLayer&quot;:true}" fill-rule="nonzero" stroke="none" stroke-width="0" stroke-linecap="butt" stroke-linejoin="miter" stroke-miterlimit="10" stroke-dasharray="" stroke-dashoffset="0" style="mix-blend-mode: normal"><path d="M-50.61762,369.77821v-377.86702h747v377.86702z" fill="url(#color-1)"/><path d="M525.91893,78.05099c0,0 -226.52247,-32.60974 -186.83428,-46.69212c36.79399,-13.05544 192.19941,-34.64555 192.19941,-34.64555l49.47846,0.30927c0,0 -193.84508,26.13875 -194.81885,39.34929c-1.01186,13.72752 188.85758,41.52447 188.85758,41.52447z" fill-opacity="0.36471" fill="#00ffee"/><path d="M414.89526,49.54594c0,0 10.26711,1.40225 27.00994,5.00181c9.98942,2.14764 18.15167,4.88582 33.97918,7.37003c30.62257,4.80638 68.79437,10.02869 93.44394,15.37794c30.24792,6.56416 45.82822,14.17809 32.40121,18.94233c-36.79399,13.05544 -186.83428,32.92542 -186.83428,32.92542l-41.72882,-0.80074c0,0 180.73032,-23.92715 181.70408,-37.1377c0.83551,-11.33502 -130.74905,-28.67716 -171.76287,-37.88547c-8.67858,-1.94849 -9.9412,-4.86767 -9.9412,-4.86767z" data-paper-data="{&quot;index&quot;:null}" fill-opacity="0.36471" fill="#00ffee"/><path d="M513.00723,183.65159c0,0 -226.52247,-32.60974 -186.83428,-46.69211c36.79399,-13.05543 192.19941,-34.64555 192.19941,-34.64555l49.47846,0.30927c0,0 -193.84508,26.13875 -194.81885,39.34929c-1.01186,13.72752 188.85758,41.52447 188.85758,41.52447z" fill-opacity="0.36471" fill="#00ffee"/><path d="M401.98356,155.14655c0,0 10.26711,1.40226 27.00994,5.00181c9.98942,2.14764 18.15167,4.88582 33.97918,7.37003c30.62257,4.80638 68.79437,10.02869 93.44394,15.37794c30.24792,6.56416 45.82822,14.17809 32.40121,18.94233c-36.79399,13.05543 -186.83428,32.92542 -186.83428,32.92542l-41.72882,-0.80074c0,0 180.73032,-23.92715 181.70408,-37.1377c0.83551,-11.33502 -130.74905,-28.67716 -171.76287,-37.88547c-8.67858,-1.94849 -9.9412,-4.86767 -9.9412,-4.86767z" data-paper-data="{&quot;index&quot;:null}" fill-opacity="0.36471" fill="#00ffee"/><path d="M500.09552,295.2582c0,0 -226.52247,-32.60974 -186.83428,-46.69211c36.79399,-13.05543 192.19941,-34.64555 192.19941,-34.64555l49.47846,0.30927c0,0 -193.84508,26.13875 -194.81885,39.34929c-1.01186,13.72752 188.85758,41.52447 188.85758,41.52447z" fill-opacity="0.36471" fill="#00ffee"/><path d="M389.07185,266.75315c0,0 10.26711,1.40226 27.00994,5.00181c9.98942,2.14763 18.15167,4.88582 33.97918,7.37003c30.62257,4.80638 68.79437,10.02869 93.44394,15.37794c30.24792,6.56415 45.82822,14.17809 32.40121,18.94233c-36.79399,13.05543 -186.83428,32.92543 -186.83428,32.92543l-41.72882,-0.80074c0,0 180.73032,-23.92715 181.70408,-37.1377c0.83551,-11.33502 -130.74905,-28.67716 -171.76287,-37.88547c-8.67858,-1.94849 -9.9412,-4.86767 -9.9412,-4.86767z" data-paper-data="{&quot;index&quot;:null}" fill-opacity="0.36471" fill="#00ffee"/><path d="M500.09552,399.35729c0,0 -226.52247,-32.60974 -186.83428,-46.69211c36.79399,-13.05543 192.19941,-34.64555 192.19941,-34.64555l49.47846,0.30927c0,0 -193.84508,26.13875 -194.81885,39.34929c-1.01186,13.72753 188.85758,41.52447 188.85758,41.52447z" fill-opacity="0.36471" fill="#00ffee"/></g></g></svg>