<svg version="1.1" xmlns="http://www.w3.org/2000/svg" xmlns:xlink="http://www.w3.org/1999/xlink" width="170.6582" height="63.88718" viewBox="0,0,170.6582,63.88718"><defs><linearGradient x1="320" y1="150.55641" x2="320" y2="209.44359" gradientUnits="userSpaceOnUse" id="color-1"><stop offset="0" stop-color="#000000"/><stop offset="1" stop-color="#292929"/></linearGradient></defs><g transform="translate(-234.6709,-148.05641)"><g data-paper-data="{&quot;isPaintingLayer&quot;:true}" fill-rule="nonzero" stroke-linejoin="miter" stroke-miterlimit="10" stroke-dasharray="" stroke-dashoffset="0" style="mix-blend-mode: normal"><path d="M237.1709,209.44359v-58.88718h165.6582v58.88718z" fill="url(#color-1)" stroke-opacity="0.40392" stroke="#ffffff" stroke-width="5" stroke-linecap="butt"/><text transform="translate(248.21658,190.10392) scale(0.73372,0.73372)" font-size="40" xml:space="preserve" fill="#ffffff" fill-rule="nonzero" stroke="none" stroke-width="1" stroke-linecap="butt" stroke-linejoin="miter" stroke-miterlimit="10" stroke-dasharray="" stroke-dashoffset="0" font-family="&quot;OpenSans-Medium&quot;, Sans Serif" font-weight="normal" text-anchor="start" style="mix-blend-mode: normal"><tspan x="0" dy="0">LOAD</tspan></text><g fill="none" stroke="#00e6ff" stroke-width="4"><path d="M349.83265,198.51849v-37.03698h29.00487v37.03698z" stroke-linecap="butt"/><path d="M378.60576,175.04415l-12.38765,-12.38765" stroke-linecap="round"/></g><path d="M369.05974,194.37909c0,-5.40012 4.37766,-9.77778 9.77777,-9.77778c5.40011,0 9.77777,4.37767 9.77777,9.77778c0,5.40012 -4.37766,9.77777 -9.77777,9.77777c-5.40011,0 -9.77777,-4.37766 -9.77777,-9.77777z" fill="#00e6ff" stroke="#000000" stroke-width="0" stroke-linecap="butt"/><path d="M382.70776,190.40183l-1.41164,2.28491l-3.55998,5.6696l-2.76887,-3.55998" fill="none" stroke="#000000" stroke-width="3.5" stroke-linecap="round"/></g></g></svg>