<svg version="1.1" xmlns="http://www.w3.org/2000/svg" xmlns:xlink="http://www.w3.org/1999/xlink" width="96.46982" height="96.46982" viewBox="0,0,96.46982,96.46982"><defs><linearGradient x1="320" y1="131.76509" x2="320" y2="228.23491" gradientUnits="userSpaceOnUse" id="color-1"><stop offset="0" stop-color="#000000"/><stop offset="1" stop-color="#000000" stop-opacity="0"/></linearGradient><radialGradient cx="320" cy="180" r="42.11336" gradientUnits="userSpaceOnUse" id="color-2"><stop offset="0" stop-color="#00ff3a" stop-opacity="0.04706"/><stop offset="1" stop-color="#000000"/></radialGradient><radialGradient cx="305.20088" cy="196.96888" r="23.73399" gradientUnits="userSpaceOnUse" id="color-3"><stop offset="0" stop-color="#999999"/><stop offset="1" stop-color="#ffffff"/></radialGradient></defs><g transform="translate(-271.76509,-131.76509)"><g data-paper-data="{&quot;isPaintingLayer&quot;:true}" fill-rule="nonzero" stroke="none" stroke-linejoin="miter" stroke-miterlimit="10" stroke-dasharray="" stroke-dashoffset="0" style="mix-blend-mode: normal"><path d="M271.76509,180c0,-26.63941 21.59551,-48.23491 48.23491,-48.23491c26.63941,0 48.23491,21.59551 48.23491,48.23491c0,26.63941 -21.59551,48.23491 -48.23491,48.23491c-26.63941,0 -48.23491,-21.59551 -48.23491,-48.23491z" fill="url(#color-1)" stroke-width="0" stroke-linecap="butt"/><path d="M277.88664,180c0,-23.25857 18.8548,-42.11336 42.11336,-42.11336c23.25856,0 42.11336,18.85479 42.11336,42.11336c0,23.25857 -18.8548,42.11336 -42.11336,42.11336c-23.25856,0 -42.11336,-18.85479 -42.11336,-42.11336z" fill="url(#color-2)" stroke-width="0" stroke-linecap="butt"/><path d="M301.48227,203.73399v-47.46797l37.03546,20.86503z" fill="url(#color-3)" stroke-width="0" stroke-linecap="round"/><text transform="translate(323.57385,202.15947) scale(0.24142,0.24142)" font-size="40" xml:space="preserve" fill="#ffffff" fill-rule="nonzero" stroke="none" stroke-width="1" stroke-linecap="butt" stroke-linejoin="miter" stroke-miterlimit="10" stroke-dasharray="" stroke-dashoffset="0" font-family="&quot;OpenSans-Bold&quot;, Sans Serif" font-weight="normal" text-anchor="start" style="mix-blend-mode: normal"><tspan x="0" dy="0">Play</tspan></text></g></g></svg>