<svg version="1.1" xmlns="http://www.w3.org/2000/svg" xmlns:xlink="http://www.w3.org/1999/xlink" width="80.36875" height="95.63049" viewBox="0,0,80.36875,95.63049"><defs><linearGradient x1="320.46343" y1="201.12891" x2="320.46343" y2="225.12891" gradientTransform="translate(-561.54687,-438.25781) scale(2,2)" gradientUnits="userSpaceOnUse" id="color-1"><stop offset="0" stop-color="#ca00ff"/><stop offset="1" stop-color="#e2ff00"/></linearGradient></defs><g transform="translate(-280.52344,-150.39761)"><g data-paper-data="{&quot;isPaintingLayer&quot;:true}" fill-rule="nonzero" stroke-linejoin="miter" stroke-miterlimit="10" stroke-dasharray="" stroke-dashoffset="0" style="mix-blend-mode: normal"><path d="M298.69104,201.30896v-42.61792h42.61792v42.61792z" fill="#ff00ee" stroke="#000000" stroke-width="3" stroke-linecap="butt"/><path d="M341.96534,195.92385l2.08098,6.24295l-46.22763,-0.29728l0.29728,-8.1753z" fill="#ff0000" stroke="#000000" stroke-width="3" stroke-linecap="round"/><path d="M308.5952,191.4048v-22.80959h22.80959v22.80959z" fill="#d22be0" stroke="#000000" stroke-width="3" stroke-linecap="butt"/><path d="M330.81718,165.45226l-19.76937,1.48642l-2.67556,-10.9995l6.83753,4.01333l2.52691,-5.49975l4.75654,5.05383l3.56741,-5.79704z" fill="#e8ff00" stroke="#000000" stroke-width="3" stroke-linecap="round"/><path d="M322.13002,200.83339c2.59106,0.33405 4.23952,1.57384 6.94686,0.1553c1.05055,-0.56973 2.18806,-1.07772 3.3762,-1.20644c1.03055,-0.11165 2.16756,0.48061 3.10938,0.04762c0.88175,-0.40537 0.36298,-2.35301 0.51301,-2.72192c0.35615,-0.87572 0.90859,-1.7269 1.6617,-2.29835c0.72084,-0.54697 2.32295,0.27558 2.6549,-0.5662c0.66035,-1.67453 -1.53527,-5.3543 -3.46778,-5.17589c-0.86399,0.07976 -1.16607,3.10447 -1.64431,3.45189c-0.92297,0.67048 -3.6998,0.24565 -4.94414,0.41636c-1.94978,1.85643 -3.0316,1.06749 -5.40265,1.87269c-0.66365,0.22538 -1.23191,0.79136 -1.93169,0.83042c-1.54647,0.08631 -2.87513,-0.77965 -4.6174,-0.48606c-0.99876,0.1683 -1.31845,1.87279 -2.32815,1.95253c-1.4159,0.11181 -2.39293,-1.71284 -3.79555,-1.93631c-1.46417,-0.23327 -2.82651,0.46885 -4.26071,-0.36642c-0.55796,-0.32495 -0.635,-1.13607 -1.0638,-1.61883c-1.10405,-1.243 -2.63247,-1.97339 -4.19088,-2.52695c-0.07961,0.02817 -0.12978,0.03974 -0.12978,0.03974c-0.41238,0.09515 -3.7905,0.52097 -4.09831,0.93417c-0.87595,1.17587 3.83267,2.1382 3.89639,2.18551c1.01259,0.75167 1.37197,2.17238 2.35806,2.95849c0.99567,0.79375 1.65709,-0.08029 2.88294,0.45873c0.55795,0.24534 0.77078,0.96499 1.26809,1.3174c1.08703,0.77029 3.2097,0.61298 4.48878,0.99008l0.51446,2.11932c2.77337,0.57698 5.39431,-1.18913 8.20439,-0.82685zM301.82722,187.20672c2.64652,0.81672 5.50539,1.84022 7.38684,4.02511c0.24755,0.28748 0.11729,0.83158 0.42262,1.05673c0.85102,0.62756 2.1352,-0.27975 3.17139,-0.06914c0.85333,0.17344 1.72608,0.4362 2.43858,0.9368c0.28304,0.19887 -0.03973,0.98384 0.30611,0.99159c0.32814,0.00735 -0.24093,-0.76546 0.00336,-0.98466c1.03459,-0.9283 2.7536,-1.0641 4.04495,-1.11604c1.10885,-0.0446 2.1669,0.63864 3.27576,0.59432c0.40986,-0.01639 0.65478,-0.51823 1.04115,-0.656c2.46568,-0.87923 3.21958,0.19232 5.00229,-1.69472c1.61401,-0.3687 2.20603,-0.66091 3.82926,-0.47477c0.2639,0.03026 0.51674,0.441 0.73967,0.29656c0.20151,-0.13057 -0.14885,-0.47991 -0.09542,-0.714c0.42056,-1.84223 0.79477,-2.77903 2.91037,-3.26621c4.37166,-1.00671 8.7413,5.94907 6.63987,9.6883c-0.63604,1.13175 -2.41406,0.96056 -3.58805,1.51477c-0.77743,0.36701 -0.31519,2.20755 -0.41425,2.44191c-0.42046,0.99473 -0.9624,2.06066 -1.87029,2.64547c-1.79538,1.15648 -4.56772,0.05791 -6.59492,1.21944c-3.31359,1.60327 -5.56053,0.83738 -8.80918,0.1553c-0.8364,-0.17561 -1.61651,0.57708 -2.45664,0.73387c-2.7149,0.50668 -5.62615,0.44554 -8.09047,-0.72564l-1.26539,-1.85995c0,0 -0.00703,-0.01407 -0.01822,-0.04004c-0.90234,-0.14873 -1.78723,-0.35919 -2.60904,-0.8795c-0.37641,-0.23832 -0.40689,-0.87749 -0.81289,-1.06088c-1.04455,-0.47182 -2.42344,-0.06971 -3.36003,-0.7304c-1.04348,-0.73609 -1.40443,-2.1856 -2.39847,-2.98719c-0.82593,-0.66602 -2.21841,-0.21616 -3.06639,-0.85388c-0.76316,-0.57393 -1.49517,-1.33258 -1.78109,-2.24366c-1.08216,-3.44822 1.5685,-4.38943 4.14597,-4.95815c0.4437,-1.42502 1.87257,-0.98536 1.87257,-0.98536z" fill="#000000" stroke="none" stroke-width="0.5" stroke-linecap="butt"/><path d="M313.89246,201.69766l-0.5226,-2.12857c-1.27909,-0.3771 -3.40837,-0.23371 -4.49539,-1.004c-0.49731,-0.35241 -0.71162,-1.0787 -1.26958,-1.32405c-1.22584,-0.53903 -1.88764,0.33201 -2.88331,-0.46174c-0.98609,-0.78611 -1.34546,-2.2161 -2.35805,-2.96777c-0.06372,-0.0473 -4.77175,-1.01385 -3.8958,-2.18972c0.30781,-0.4132 3.68698,-0.84362 4.09936,-0.93877c0,0 0.14641,0.01563 0.22602,-0.01254c1.5584,0.55356 3.08796,1.27904 4.19201,2.52204c0.4288,0.48275 0.50654,1.28777 1.0645,1.61272c1.43419,0.83527 2.79658,0.13221 4.26075,0.36548c1.40262,0.22347 2.37449,2.02418 3.79039,1.91237c1.0097,-0.07973 1.23605,-1.77406 2.23481,-1.94235c1.74227,-0.29359 3.06956,0.5813 4.61604,0.49499c0.69978,-0.03905 1.26826,-0.5964 1.93191,-0.82178c2.37105,-0.8052 3.45381,-0.01068 5.40359,-1.86711c1.24434,-0.1707 4.02074,0.25201 4.94371,-0.41847c0.47824,-0.34742 0.87649,-3.39823 1.74048,-3.47799c1.93251,-0.1784 4.13106,3.51565 3.47071,5.19018c-0.33195,0.84178 -1.93401,0.02038 -2.65485,0.56734c-0.75311,0.57145 -1.30578,1.42934 -1.66192,2.30507c-0.15003,0.36891 0.36721,2.3247 -0.51453,2.73007c-0.94181,0.433 -2.07965,-0.15655 -3.1102,-0.04491c-1.18814,0.12871 -2.32978,0.64585 -3.38032,1.21558c-2.70734,1.41854 -4.37696,0.19853 -6.96802,-0.13551c-2.81008,-0.36228 -5.4863,1.3964 -8.25967,0.81942z" data-paper-data="{&quot;noHover&quot;:false,&quot;origItem&quot;:[&quot;Path&quot;,{&quot;applyMatrix&quot;:true,&quot;segments&quot;:[[[484.26004,401.66678],[-5.62016,-0.72456],[5.18213,0.66809]],[[498.15376,401.97738],[-5.41468,2.83709],[2.1011,-1.13946]],[[504.90615,399.5645],[-2.37628,0.25743],[2.0611,-0.22329]],[[511.1249,399.65973],[-1.88363,0.86599],[1.76349,-0.81075]],[[512.15092,394.21589],[-0.30006,0.73782],[0.71229,-1.75145]],[[515.47432,389.6192],[-1.50623,1.1429],[1.44169,-1.09393]],[[520.78413,388.48679],[-0.66391,1.68356],[1.3207,-3.34907]],[[513.84858,378.135],[3.86502,-0.3568],[-1.72799,0.15952]],[[510.55996,385.03877],[0.95649,-0.69483],[-1.84594,1.34096]],[[500.67167,385.87148],[2.48868,-0.34141],[-3.89956,3.71285]],[[489.86638,389.61686],[4.74209,-1.6104],[-1.3273,0.45075]],[[486.003,391.27769],[1.39957,-0.07811],[-3.09295,0.17262]],[[476.76819,390.30556],[3.48454,-0.58717],[-1.99752,0.33659]],[[472.11189,394.21062],[2.0194,-0.15947],[-2.8318,0.22362]],[[464.52079,390.33801],[2.80524,0.44693],[-2.92834,-0.46655]],[[455.99938,389.60516],[2.86839,1.67055],[-1.11592,-0.64991]],[[453.87178,386.36751],[0.85759,0.96551],[-2.2081,-2.48599]],[[445.49003,381.3136],[3.11681,1.10713],[-0.15922,0.05633]],[[445.23046,381.39309],[0,0],[-0.82476,0.1903]],[[437.03384,383.26142],[0.61561,-0.82639],[-1.7519,2.35174]],[[444.82661,387.63243],[-0.12743,-0.0946],[2.02518,1.50334]],[[449.54274,393.54942],[-1.97218,-1.57223],[1.99133,1.58749]],[[455.30861,394.46689],[-2.45169,-1.07805],[1.11591,0.49069]],[[457.84478,397.10168],[-0.99462,-0.70481],[2.17405,1.54057]],[[466.82235,399.08185],[-2.55817,-0.7542],[0,0]],[[467.85127,403.32049],[0,0],[5.54675,1.15396]]],&quot;closed&quot;:true}]}" fill="#feff00" stroke="none" stroke-width="0.5" stroke-linecap="butt"/><path d="M323.38509,163.22263c0,1.80604 -1.66373,3.27012 -3.71605,3.27012c-2.05231,0 -3.71605,-1.46408 -3.71605,-3.27012c0,-1.80604 1.66374,-3.27013 3.71605,-3.27013c2.05231,0 3.71605,1.46409 3.71605,3.27013z" fill="#ff0000" stroke="#000000" stroke-width="2.5" stroke-linecap="butt"/><path d="M298.11597,184.7757l-4.75654,4.90518l3.86469,-26.75554z" fill="#feff00" stroke="#000000" stroke-width="0.5" stroke-linecap="round"/><path d="M342.55989,161.58757l3.71605,25.26912l-4.75654,-2.97284z" fill="#feff00" stroke="#000000" stroke-width="0.5" stroke-linecap="round"/><text transform="translate(280.77344,219.12891) scale(0.5,0.5)" font-size="40" xml:space="preserve" fill="url(#color-1)" fill-rule="nonzero" stroke="none" stroke-width="1" stroke-linecap="butt" stroke-linejoin="miter" stroke-miterlimit="10" stroke-dasharray="" stroke-dashoffset="0" font-family="Sans Serif" font-weight="normal" text-anchor="start" style="mix-blend-mode: normal"><tspan x="0" dy="0">Princess</tspan></text><path d="M294.18091,246.02811v-16.67139h54.03828v16.67139z" fill="#ff6f00" stroke="none" stroke-width="0" stroke-linecap="butt"/><text transform="translate(309.22768,241.72631) scale(0.33616,0.33616)" font-size="40" xml:space="preserve" fill="#ffffff" fill-rule="nonzero" stroke="none" stroke-width="1" stroke-linecap="butt" stroke-linejoin="miter" stroke-miterlimit="10" stroke-dasharray="" stroke-dashoffset="0" font-family="&quot;OpenSans-Bold&quot;, Sans Serif" font-weight="normal" text-anchor="start" style="mix-blend-mode: normal"><tspan x="0" dy="0">50C</tspan></text></g></g></svg>