<svg version="1.1" xmlns="http://www.w3.org/2000/svg" xmlns:xlink="http://www.w3.org/1999/xlink" width="51.48325" height="51.48324" viewBox="0,0,51.48325,51.48324"><g transform="translate(-294.25837,-154.25838)"><g data-paper-data="{&quot;isPaintingLayer&quot;:true}" fill-rule="nonzero" stroke-linejoin="miter" stroke-miterlimit="10" stroke-dasharray="" stroke-dashoffset="0" style="mix-blend-mode: normal"><path d="M297.25838,180c0,-12.55985 10.18178,-22.74162 22.74162,-22.74162c12.55986,0 22.74163,10.18177 22.74163,22.74162c0,12.55986 -10.18178,22.74162 -22.74162,22.74162c-12.55985,0 -22.74162,-10.18178 -22.74162,-22.74162z" fill="#000000" stroke="#000000" stroke-width="6" stroke-linecap="butt"/><path d="M300.59367,180.20955c0,-10.83356 8.78234,-19.61589 19.61589,-19.61589c10.83356,0 19.61589,8.78234 19.61589,19.61589c0,10.83356 -8.78234,19.61589 -19.61589,19.61589c-10.83356,0 -19.61589,-8.78234 -19.61589,-19.61589z" fill="#000000" stroke="#ff0000" stroke-width="6" stroke-linecap="butt"/><path d="M304.4884,185.61679c-0.10433,-0.02087 -0.20378,-0.04609 -0.29851,-0.0755c1.38757,-4.97731 2.91679,-9.66611 4.7683,-14.34949c1.477,-0.52942 2.86374,-0.93659 4.44426,-1.07225c0.25329,0.40243 0.77202,0.29868 0.77202,0.29868c2.42451,-0.49575 5.00283,0.36741 7.44261,0.34917c0.06345,0.02815 0.12682,0.05663 0.19013,0.08544c0.04014,0.00036 0.08018,0.00072 0.12013,0.00106c0.0434,-0.04582 0.07766,-0.07896 0.09824,-0.09824c0.41181,-0.02107 0.81916,-0.07121 1.22059,-0.16143c0.29183,-0.06558 0.56757,-0.18731 0.83391,-0.33897c0.15016,0.07168 0.2854,0.08397 0.2854,0.08397c2.0683,0.18795 4.13134,0.25379 6.20441,0.27011c0.58616,0.31404 1.16286,0.64067 1.73504,0.97685c0.01403,0.05861 0.02835,0.0944 0.02835,0.0944c1.17121,2.92256 2.09691,6.18626 3.27254,9.19287c-0.00066,0.00463 -0.00134,0.00927 -0.00204,0.01392c0.60836,3.95501 0.18034,9.75006 -5.59928,8.89208c-0.75053,-0.11142 -2.05299,-4.17194 -3.06926,-5.20414c-1.53208,-1.55609 -6.81317,-0.65898 -8.84538,-0.59119c-0.66924,-0.1091 -1.33672,-0.22702 -1.99955,-0.37459c0,0 -0.40189,-0.08931 -0.67633,0.16217c-0.49407,-0.10572 -0.77096,0.37884 -0.77096,0.37884c-0.48873,0.85528 -0.92396,1.7351 -1.34358,2.62142c-0.70179,0.86873 -1.33883,1.78932 -1.94725,2.73921c-0.49907,0.11899 -0.99709,0.24325 -1.49754,0.36928c-1.08171,-0.54611 -2.08483,-1.18218 -2.91585,-1.84758c-0.63768,-0.45162 -1.24678,-0.94014 -1.84566,-1.44119c-0.18828,-0.3082 -0.33837,-0.62401 -0.4514,-0.94879c-0.05049,-0.00707 -0.10159,-0.01576 -0.15333,-0.0261zM310.86034,176.22395c0.41421,0 0.75,-0.33579 0.75,-0.75c0,-0.41421 -0.33579,-0.75 -0.75,-0.75c-0.41421,0 -0.75,0.33579 -0.75,0.75c0,0.41421 0.33579,0.75 0.75,0.75zM327.14798,177.58125c0.41421,0 0.75,-0.33579 0.75,-0.75c0,-0.41421 -0.33579,-0.75 -0.75,-0.75c-0.41421,0 -0.75,0.33579 -0.75,0.75c0,0.41421 0.33579,0.75 0.75,0.75zM311.94618,178.12418c0.41421,0 0.75,-0.33579 0.75,-0.75c0,-0.41421 -0.33579,-0.75 -0.75,-0.75c-0.41421,0 -0.75,0.33579 -0.75,0.75c0,0.41421 0.33579,0.75 0.75,0.75zM330.31503,177.85271c0.41421,0 0.75,-0.33579 0.75,-0.75c0,-0.41421 -0.33579,-0.75 -0.75,-0.75c-0.41421,0 -0.75,0.33579 -0.75,0.75c0,0.41421 0.33579,0.75 0.75,0.75zM312.39862,174.23324c0.41421,0 0.75,-0.33579 0.75,-0.75c0,-0.41421 -0.33579,-0.75 -0.75,-0.75c-0.41421,0 -0.75,0.33579 -0.75,0.75c0,0.41421 0.33579,0.75 0.75,0.75zM328.50529,175.22859c0.41421,0 0.75,-0.33579 0.75,-0.75c0,-0.41421 -0.33579,-0.75 -0.75,-0.75c-0.41421,0 -0.75,0.33579 -0.75,0.75c0,0.41421 0.33579,0.75 0.75,0.75zM313.57496,176.22395c0.41421,0 0.75,-0.33579 0.75,-0.75c0,-0.41421 -0.33579,-0.75 -0.75,-0.75c-0.41421,0 -0.75,0.33579 -0.75,0.75c0,0.41421 0.33579,0.75 0.75,0.75z" fill="#ffffff" stroke="none" stroke-width="0.5" stroke-linecap="butt"/><path d="M303.00923,189.77608l30.597,-18.25084" fill="none" stroke="#ff0000" stroke-width="6" stroke-linecap="round"/><path d="" fill="#ffffff" stroke="none" stroke-width="0.5" stroke-linecap="butt"/><path d="" fill="#ffffff" stroke="none" stroke-width="0.5" stroke-linecap="butt"/><path d="" fill="#ffffff" stroke="none" stroke-width="0.5" stroke-linecap="butt"/><path d="" fill="#ffffff" stroke="none" stroke-width="0.5" stroke-linecap="butt"/><path d="" fill="#ffffff" stroke="none" stroke-width="0.5" stroke-linecap="butt"/><path d="" fill="#ffffff" stroke="none" stroke-width="0.5" stroke-linecap="butt"/><path d="" fill="#ffffff" stroke="none" stroke-width="0.5" stroke-linecap="butt"/><path d="" fill="#ffffff" stroke="none" stroke-width="0.5" stroke-linecap="butt"/></g></g></svg>