<svg version="1.1" xmlns="http://www.w3.org/2000/svg" xmlns:xlink="http://www.w3.org/1999/xlink" width="46.06044" height="45.61792" viewBox="0,0,46.06044,45.61792"><defs><linearGradient x1="319.55748" y1="158.69104" x2="319.55748" y2="201.30896" gradientUnits="userSpaceOnUse" id="color-1"><stop offset="0" stop-color="#8eff00"/><stop offset="1" stop-color="#00ff12"/></linearGradient></defs><g transform="translate(-296.74852,-157.19104)"><g data-paper-data="{&quot;isPaintingLayer&quot;:true}" fill-rule="nonzero" stroke-linejoin="miter" stroke-miterlimit="10" stroke-dasharray="" stroke-dashoffset="0" style="mix-blend-mode: normal"><path d="M298.69104,201.30896v-42.61792h42.61792v42.61792z" fill="#ff0000" stroke="#000000" stroke-width="3" stroke-linecap="butt"/><path d="M298.24852,201.30896v-42.61792h42.61792v42.61792z" fill="url(#color-1)" stroke="#000000" stroke-width="3" stroke-linecap="butt"/><path d="M341.09805,187.50499c0.79991,1.81592 -0.93324,2.65404 -0.93324,2.65404l-1.74241,0.83868c-0.58828,0.38064 -1.17656,0.76129 -1.76485,1.14194c-2.40782,1.45915 -4.48954,2.72007 -7.37332,1.6242c-2.7862,-1.05879 -3.87524,-3.44133 -7.15515,-3.42216c-2.26952,0.01326 -2.95207,2.28162 -5.23701,2.90168c-1.13715,0.30859 -2.35167,0.14975 -3.52349,0.06399c-1.35791,-0.09939 -3.79152,-0.72118 -4.97763,-1.50356c-2.50592,-1.65295 -3.80973,-4.16448 -6.29839,-0.68239c0,0 -1.23299,1.52678 -2.69018,0.23489c-1.45718,-1.29189 -0.22418,-2.81866 -0.22418,-2.81866c0.68262,-0.78769 1.17415,-1.82085 2.04784,-2.36307c6.02378,-3.7383 8.84487,4.75807 14.64696,3.21394c0.84972,-0.22614 2.82581,-2.31513 3.43051,-2.57932c1.30435,-0.56984 3.88406,-0.56905 5.24996,-0.27987c2.31777,0.49069 3.06498,1.14604 4.9787,2.55092c0.85271,0.62598 1.13537,1.32466 2.26402,1.13765c0.87078,-0.14429 2.21157,-1.08484 2.89898,-1.50936c0.64123,-0.41211 1.28245,-0.82422 1.92368,-1.23633l1.94611,-0.94502c0,0 1.73315,-0.83812 2.53306,0.9778z" fill="#000000" stroke="none" stroke-width="0.5" stroke-linecap="butt"/><path d="M333.97398,189.97817l-1.13493,-5.79703l3.40479,4.45925" fill="none" stroke="#000000" stroke-width="3" stroke-linecap="round"/><path d="M313.40337,192.05915l-2.69547,3.27012l-0.42561,-4.45925" fill="none" stroke="#000000" stroke-width="3" stroke-linecap="round"/><path d="M330.42732,191.61323l-1.41867,5.20247l-1.70239,-5.20247" fill="none" stroke="#000000" stroke-width="3" stroke-linecap="round"/><path d="M319.63833,171.56703c0,1.05452 1.61904,3.37024 0.7507,4.17531c-1.39625,1.29449 -5.84965,0.80419 -8.48241,0.80419c-4.27011,0 -7.73171,-2.2294 -7.73171,-4.9795c0,-1.17794 -1.20919,-5.67911 -0.14753,-6.53172c1.41697,-1.13796 4.44506,3.33592 6.88617,3.33592c0.9067,0 1.50202,0.34739 2.01569,1.11534c0.59326,0.88693 2.07074,0.45189 2.80025,0.8645c1.61356,0.91262 3.90885,-0.27577 3.90885,1.21596z" fill="#ff0000" stroke="#350000" stroke-width="2" stroke-linecap="butt"/><path d="M327.63378,169.85529c0.5347,-0.30243 2.55345,-0.9641 2.98829,-1.61418c0.28442,-0.4252 1.0189,-0.66032 1.44419,-0.27023c0.1377,0.12631 1.43041,-1.52781 1.59296,-1.52781c1.78922,0 2.44895,-0.55545 3.48753,0.27862c0.77816,0.62493 -0.10812,3.92409 -0.10812,4.78747c0,2.01571 -2.5372,3.64976 -5.66701,3.64976c-1.9297,0 -5.19385,0.35936 -6.21724,-0.58944c-0.63646,-0.59008 0.55022,-2.28741 0.55022,-3.06032c0,-1.09337 0.74652,-0.98497 1.92919,-1.65388z" data-paper-data="{&quot;index&quot;:null}" fill="#ff0000" stroke="#000000" stroke-width="3" stroke-linecap="butt"/><path d="M301.832,186.70805l4.75654,-2.8242l0.14864,2.8242" fill="none" stroke="#000000" stroke-width="3" stroke-linecap="round"/></g></g></svg>