<svg version="1.1" xmlns="http://www.w3.org/2000/svg" xmlns:xlink="http://www.w3.org/1999/xlink" width="100.87112" height="104.2238" viewBox="0,0,100.87112,104.2238"><defs><linearGradient x1="320" y1="127.8881" x2="320" y2="232.1119" gradientUnits="userSpaceOnUse" id="color-1"><stop offset="0" stop-color="#000000"/><stop offset="1" stop-color="#000000" stop-opacity="0"/></linearGradient><radialGradient cx="320" cy="180" r="45.20693" gradientUnits="userSpaceOnUse" id="color-2"><stop offset="0" stop-color="#b100ff" stop-opacity="0.04706"/><stop offset="1" stop-color="#000000"/></radialGradient></defs><g transform="translate(-269.56444,-127.8881)"><g data-paper-data="{&quot;isPaintingLayer&quot;:true}" fill-rule="nonzero" stroke-linejoin="miter" stroke-miterlimit="10" stroke-dasharray="" stroke-dashoffset="0" style="mix-blend-mode: normal"><path d="M269.56444,232.1119v-104.2238h100.87112v104.2238z" fill="url(#color-1)" stroke="none" stroke-width="NaN" stroke-linecap="butt"/><path d="M274.79307,226.70948v-93.41899h90.41387v93.41899z" fill="url(#color-2)" stroke="none" stroke-width="NaN" stroke-linecap="butt"/><path d="M301.53942,191.89083l-6.01042,-23.78169h48.94202l-7.29837,23.78169z" fill="#ffffff" stroke="none" stroke-width="0" stroke-linecap="butt"/><path d="M334.69561,169.00203l2.56319,-11.0217" fill="none" stroke="#ffffff" stroke-width="2" stroke-linecap="round"/><path d="M337.206,171.85794l3.06036,-10.60923" fill="none" stroke="#ffffff" stroke-width="2" stroke-linecap="round"/><path d="M343.441,160.48976l-8.43207,-2.42198l0.4506,-1.56876l8.43207,2.42198z" fill="none" stroke="#ffffff" stroke-width="2" stroke-linecap="butt"/><path d="M304.15416,195.83072c0,-2.87332 2.32928,-5.2026 5.2026,-5.2026c2.87332,0 5.2026,2.32928 5.2026,5.2026c0,2.87332 -2.32928,5.2026 -5.2026,5.2026c-2.87332,0 -5.2026,-2.32928 -5.2026,-5.2026z" fill="#ffffff" stroke="#ffffff" stroke-width="2" stroke-linecap="butt"/><path d="M324.86399,195.83072c0,-2.87332 2.32928,-5.2026 5.2026,-5.2026c2.87332,0 5.20261,2.32928 5.20261,5.2026c0,2.87332 -2.32929,5.2026 -5.20261,5.2026c-2.87332,0 -5.2026,-2.32928 -5.2026,-5.2026z" fill="#ffffff" stroke="#ffffff" stroke-width="2" stroke-linecap="butt"/><text transform="translate(302.11393,189.19995) scale(0.5,0.5)" font-size="40" xml:space="preserve" fill="#000000" fill-rule="nonzero" stroke="none" stroke-width="1" stroke-linecap="butt" stroke-linejoin="miter" stroke-miterlimit="10" stroke-dasharray="" stroke-dashoffset="0" font-family="&quot;OpenSans-Bold&quot;, Sans Serif" font-weight="normal" text-anchor="start" style="mix-blend-mode: normal"><tspan x="0" dy="0">KS</tspan></text></g></g></svg>