<svg version="1.1" xmlns="http://www.w3.org/2000/svg" xmlns:xlink="http://www.w3.org/1999/xlink" width="791.27344" height="396.96918" viewBox="0,0,791.27344,396.96918"><defs><linearGradient x1="372.70541" y1="-0.00001" x2="372.70541" y2="360.53121" gradientUnits="userSpaceOnUse" id="color-1"><stop offset="0" stop-color="#3a3a3a"/><stop offset="1" stop-color="#000000"/></linearGradient><linearGradient x1="317.08922" y1="127.74247" x2="317.08922" y2="141.72311" gradientUnits="userSpaceOnUse" id="color-2"><stop offset="0" stop-color="#b56900"/><stop offset="1" stop-color="#480000"/></linearGradient><linearGradient x1="256.67192" y1="213.83378" x2="256.67192" y2="225.60693" gradientUnits="userSpaceOnUse" id="color-3"><stop offset="0" stop-color="#b56900"/><stop offset="1" stop-color="#480000"/></linearGradient><linearGradient x1="614.09863" y1="278.58619" x2="614.09863" y2="291.83103" gradientUnits="userSpaceOnUse" id="color-4"><stop offset="0" stop-color="#b56900"/><stop offset="1" stop-color="#480000"/></linearGradient><linearGradient x1="104.83388" y1="152.29734" x2="104.83388" y2="180.7315" gradientUnits="userSpaceOnUse" id="color-5"><stop offset="0" stop-color="#f0ff00"/><stop offset="1" stop-color="#4a4400"/></linearGradient><linearGradient x1="79.48989" y1="159.49451" x2="79.48989" y2="175.60252" gradientUnits="userSpaceOnUse" id="color-6"><stop offset="0" stop-color="#f0ff00"/><stop offset="1" stop-color="#4a4400"/></linearGradient><linearGradient x1="92.72289" y1="169.85693" x2="92.72289" y2="197.29914" gradientUnits="userSpaceOnUse" id="color-7"><stop offset="0" stop-color="#ff6200"/><stop offset="1" stop-color="#490000"/></linearGradient><linearGradient x1="77.01564" y1="198.54653" x2="77.01564" y2="210.39657" gradientUnits="userSpaceOnUse" id="color-8"><stop offset="0" stop-color="#ff6200"/><stop offset="1" stop-color="#490000"/></linearGradient><linearGradient x1="112.94868" y1="198.23466" x2="112.94868" y2="210.39657" gradientUnits="userSpaceOnUse" id="color-9"><stop offset="0" stop-color="#ff6200"/><stop offset="1" stop-color="#490000"/></linearGradient><linearGradient x1="316.93794" y1="86.80908" x2="316.93794" y2="103.05398" gradientUnits="userSpaceOnUse" id="color-10"><stop offset="0" stop-color="#f0ff00"/><stop offset="1" stop-color="#4a4400"/></linearGradient><linearGradient x1="331.41738" y1="90.92095" x2="331.41738" y2="100.12371" gradientUnits="userSpaceOnUse" id="color-11"><stop offset="0" stop-color="#f0ff00"/><stop offset="1" stop-color="#4a4400"/></linearGradient><linearGradient x1="323.85715" y1="96.84116" x2="323.85715" y2="112.51936" gradientUnits="userSpaceOnUse" id="color-12"><stop offset="0" stop-color="#ff6200"/><stop offset="1" stop-color="#490000"/></linearGradient><linearGradient x1="332.83096" y1="113.232" x2="332.83096" y2="120.00212" gradientUnits="userSpaceOnUse" id="color-13"><stop offset="0" stop-color="#ff6200"/><stop offset="1" stop-color="#490000"/></linearGradient><linearGradient x1="312.30182" y1="113.05383" x2="312.30182" y2="120.00212" gradientUnits="userSpaceOnUse" id="color-14"><stop offset="0" stop-color="#ff6200"/><stop offset="1" stop-color="#490000"/></linearGradient><linearGradient x1="637.46553" y1="192.03179" x2="637.46553" y2="231.30081" gradientUnits="userSpaceOnUse" id="color-15"><stop offset="0" stop-color="#f0ff00"/><stop offset="1" stop-color="#4a4400"/></linearGradient><linearGradient x1="602.46416" y1="201.97146" x2="602.46416" y2="224.21746" gradientUnits="userSpaceOnUse" id="color-16"><stop offset="0" stop-color="#f0ff00"/><stop offset="1" stop-color="#4a4400"/></linearGradient><linearGradient x1="620.73962" y1="216.28249" x2="620.73962" y2="254.18162" gradientUnits="userSpaceOnUse" id="color-17"><stop offset="0" stop-color="#ff6200"/><stop offset="1" stop-color="#490000"/></linearGradient><linearGradient x1="599.04708" y1="255.9043" x2="599.04708" y2="272.26982" gradientUnits="userSpaceOnUse" id="color-18"><stop offset="0" stop-color="#ff6200"/><stop offset="1" stop-color="#490000"/></linearGradient><linearGradient x1="648.67248" y1="255.47362" x2="648.67248" y2="272.26982" gradientUnits="userSpaceOnUse" id="color-19"><stop offset="0" stop-color="#ff6200"/><stop offset="1" stop-color="#490000"/></linearGradient><linearGradient x1="206.40879" y1="74.76322" x2="206.40879" y2="93.9682" gradientUnits="userSpaceOnUse" id="color-20"><stop offset="0" stop-color="#b56900"/><stop offset="1" stop-color="#480000"/></linearGradient><linearGradient x1="286.6511" y1="38.24475" x2="286.6511" y2="52.5102" gradientUnits="userSpaceOnUse" id="color-21"><stop offset="0" stop-color="#f0ff00"/><stop offset="1" stop-color="#4a4400"/></linearGradient><linearGradient x1="273.93599" y1="41.85559" x2="273.93599" y2="49.93699" gradientUnits="userSpaceOnUse" id="color-22"><stop offset="0" stop-color="#f0ff00"/><stop offset="1" stop-color="#4a4400"/></linearGradient><linearGradient x1="280.575" y1="47.05442" x2="280.575" y2="60.82222" gradientUnits="userSpaceOnUse" id="color-23"><stop offset="0" stop-color="#ff6200"/><stop offset="1" stop-color="#490000"/></linearGradient><linearGradient x1="272.69466" y1="61.44803" x2="272.69466" y2="67.3932" gradientUnits="userSpaceOnUse" id="color-24"><stop offset="0" stop-color="#ff6200"/><stop offset="1" stop-color="#490000"/></linearGradient><linearGradient x1="290.72231" y1="61.29156" x2="290.72231" y2="67.3932" gradientUnits="userSpaceOnUse" id="color-25"><stop offset="0" stop-color="#ff6200"/><stop offset="1" stop-color="#490000"/></linearGradient></defs><g transform=""><g data-paper-data="{&quot;isPaintingLayer&quot;:true}" fill-rule="nonzero" stroke-linejoin="miter" stroke-miterlimit="10" stroke-dasharray="" stroke-dashoffset="0" style="mix-blend-mode: normal"><path d="M0,360.53121v-360.53121h745.41081v360.53121z" fill="url(#color-1)" stroke="none" stroke-width="2" stroke-linecap="butt"/><g fill="none" stroke="#4e0600" stroke-width="2.5" stroke-linecap="round"><path d="M555.30899,323.82166l114.23439,12.72555"/><path d="M669.54338,324.17513l-114.23439,12.54881"/><path d="M553.78587,310.38912l114.23439,12.72555"/><path d="M553.78587,323.29142l114.23439,-12.54881"/><path d="M667.51255,310.12401l-114.23439,-12.72555"/><path d="M667.51255,297.75194l-114.23439,12.54881"/><path d="M555.57547,359.64093l-2.03083,-75.11612l112.9525,9.869"/><path d="M553.27816,295.01241l113.48545,-10.57597l2.03083,75.11612"/></g><g fill="none" stroke="#4e0600" stroke-width="2.5" stroke-linecap="round"><path d="M326.10838,256.94067l114.23439,38.71201"/><path d="M440.34277,258.01602l-114.23439,38.17433"/><path d="M324.58526,216.07802l114.23439,38.71201"/><path d="M324.58526,255.32768l114.23439,-38.17433"/><path d="M324.07755,176.55951l114.23439,38.712"/><path d="M438.31194,177.63484l-114.23439,38.17433"/><path d="M326.37486,365.90536l-2.03083,-228.50834l112.9525,30.02216"/><path d="M324.07755,169.30101l113.48545,-32.17283l2.03083,228.50834"/></g><path d="M262.98026,299.57496l-114.23439,-52.97926" fill="none" stroke="#4e0600" stroke-width="2.5" stroke-linecap="round"/><path d="M148.74587,300.31079l114.23439,-52.24344" fill="none" stroke="#4e0600" stroke-width="2.5" stroke-linecap="round"/><path d="M261.45713,243.65241l-114.23439,-52.97926" fill="none" stroke="#4e0600" stroke-width="2.5" stroke-linecap="round"/><path d="M147.22274,244.38823l114.23439,-52.24344" fill="none" stroke="#4e0600" stroke-width="2.5" stroke-linecap="round"/><path d="M146.71503,136.59014l114.23439,52.97926" fill="none" stroke="#4e0600" stroke-width="2.5" stroke-linecap="round"/><path d="M146.71503,190.30523l114.23439,-52.24344" fill="none" stroke="#4e0600" stroke-width="2.5" stroke-linecap="round"/><path d="M149.01234,395.71918l-2.03083,-312.72481l112.9525,41.08679" fill="none" stroke="#4e0600" stroke-width="2.5" stroke-linecap="round"/><path d="M146.71502,126.65654l113.48546,-44.03009l2.03083,312.72481" fill="none" stroke="#4e0600" stroke-width="2.5" stroke-linecap="round"/><path d="M45.97293,141.72311v-13.98064h542.23256v13.98064z" fill="url(#color-2)" stroke="#3d3d3d" stroke-width="2" stroke-linecap="butt"/><path d="M22.61835,225.60693v-11.77317h468.10714v11.77317z" fill="url(#color-3)" stroke="#3d3d3d" stroke-width="2" stroke-linecap="butt"/><path d="M437.92381,291.83103v-13.24482h352.34963v13.24482z" fill="url(#color-4)" stroke="#3d3d3d" stroke-width="2" stroke-linecap="butt"/><path d="M583.12842,121.12006l-538.1709,2.20747" fill="none" stroke="#878787" stroke-width="5" stroke-linecap="round"/><path d="M22.61835,209.41884l467.09172,0.73582" fill="none" stroke="#878787" stroke-width="5" stroke-linecap="round"/><path d="M437.92381,270.49213l307.67129,1.47165" fill="none" stroke="#878787" stroke-width="5" stroke-linecap="round"/><path d="M87.14762,180.7315v-28.43415h35.37253v28.43415z" fill="url(#color-5)" stroke="none" stroke-width="0" stroke-linecap="butt"/><path d="M64.79965,175.60252v-16.10802h29.38047v16.10802z" fill="url(#color-6)" stroke="none" stroke-width="0" stroke-linecap="butt"/><path d="M69.26958,197.29914l-11.18873,-27.44222h69.28407l-8.60671,27.44222z" fill="url(#color-7)" stroke="#000000" stroke-width="2" stroke-linecap="round"/><path d="M68.83926,204.47155c0,-3.2723 3.66069,-5.92502 8.17638,-5.92502c4.51569,0 8.17638,2.65272 8.17638,5.92502c0,3.2723 -3.66069,5.92502 -8.17638,5.92502c-4.51569,0 -8.17638,-2.65272 -8.17638,-5.92502z" fill="url(#color-8)" stroke="#000000" stroke-width="1" stroke-linecap="butt"/><path d="M104.55713,204.31561c0,-3.35841 3.75703,-6.08094 8.39155,-6.08094c4.63451,0 8.39155,2.72254 8.39155,6.08094c0,3.35841 -3.75703,6.08094 -8.39155,6.08094c-4.63451,0 -8.39155,-2.72254 -8.39155,-6.08094z" fill="url(#color-9)" stroke="#000000" stroke-width="1" stroke-linecap="butt"/><path d="M306.83349,103.05398v-16.2449h20.20891v16.2449z" data-paper-data="{&quot;index&quot;:null}" fill="url(#color-10)" stroke="none" stroke-width="0" stroke-linecap="butt"/><path d="M323.0246,100.12371v-9.20278h16.78555v9.20278z" data-paper-data="{&quot;index&quot;:null}" fill="url(#color-11)" stroke="none" stroke-width="0" stroke-linecap="butt"/><path d="M308.98274,112.51936l-4.91716,-15.67819h39.58313l-6.3923,15.67819z" data-paper-data="{&quot;index&quot;:null}" fill="url(#color-12)" stroke="#000000" stroke-width="2" stroke-linecap="round"/><path d="M332.83096,120.00213c-2.57989,0 -4.6713,-1.51555 -4.6713,-3.38507c0,-1.86952 2.09141,-3.38507 4.6713,-3.38507c2.57989,0 4.6713,1.51555 4.6713,3.38507c0,1.86952 -2.09141,3.38507 -4.6713,3.38507z" data-paper-data="{&quot;index&quot;:null}" fill="url(#color-13)" stroke="#000000" stroke-width="1" stroke-linecap="butt"/><path d="M312.30182,120.00212c-2.64777,0 -4.79423,-1.55543 -4.79423,-3.47414c0,-1.91871 2.14646,-3.47414 4.79423,-3.47414c2.64777,0 4.79423,1.55543 4.79423,3.47414c0,1.91871 -2.14646,3.47414 -4.79423,3.47414z" data-paper-data="{&quot;index&quot;:null}" fill="url(#color-14)" stroke="#000000" stroke-width="1" stroke-linecap="butt"/><path d="M613.03988,231.30081v-39.26904h48.85131v39.26904z" fill="url(#color-15)" stroke="none" stroke-width="0" stroke-linecap="butt"/><path d="M582.17618,224.21746v-22.24601h40.57596v22.24601z" fill="url(#color-16)" stroke="none" stroke-width="0" stroke-linecap="butt"/><path d="M588.34938,254.18162l-15.45221,-37.89913h95.68491l-11.88632,37.89913z" fill="url(#color-17)" stroke="#000000" stroke-width="2" stroke-linecap="round"/><path d="M587.75507,264.08707c0,-4.51921 5.05561,-8.18276 11.29201,-8.18276c6.2364,0 11.292,3.66355 11.292,8.18277c0,4.51921 -5.05561,8.18277 -11.292,8.18277c-6.2364,0 -11.29201,-3.66356 -11.29201,-8.18277z" fill="url(#color-18)" stroke="#000000" stroke-width="1" stroke-linecap="butt"/><path d="M637.08332,263.87172c0,-4.63814 5.18866,-8.3981 11.58917,-8.3981c6.40051,0 11.58917,3.75997 11.58917,8.3981c0,4.63814 -5.18866,8.3981 -11.58917,8.3981c-6.40051,0 -11.58917,-3.75997 -11.58917,-8.3981z" fill="url(#color-19)" stroke="#000000" stroke-width="1" stroke-linecap="butt"/><g><path d="M112.99044,93.9682v-19.20498h186.83669v19.20498z" fill="url(#color-20)" stroke="#3d3d3d" stroke-width="2" stroke-linecap="butt"/><path d="M114.00586,68.14081h177.69794" fill="none" stroke="#878787" stroke-width="2" stroke-linecap="round"/><path d="M277.77788,52.5102v-14.26545h17.74644v14.26545z" fill="url(#color-21)" stroke="none" stroke-width="0" stroke-linecap="butt"/><path d="M266.56589,49.93699v-8.08141h14.74022v8.08141z" fill="url(#color-22)" stroke="none" stroke-width="0" stroke-linecap="butt"/><path d="M268.80845,60.82222l-5.6134,-13.76779h34.7599l-4.318,13.76779z" fill="url(#color-23)" stroke="#000000" stroke-width="2" stroke-linecap="round"/><path d="M268.59256,64.42062c0,-1.64172 1.83657,-2.97259 4.1021,-2.97259c2.26553,0 4.1021,1.33088 4.1021,2.97259c0,1.64172 -1.83657,2.97259 -4.1021,2.97259c-2.26553,0 -4.1021,-1.33088 -4.1021,-2.97259z" fill="url(#color-24)" stroke="#000000" stroke-width="1" stroke-linecap="butt"/><path d="M286.51226,64.34238c0,-1.68492 1.88491,-3.05082 4.21005,-3.05082c2.32514,0 4.21005,1.3659 4.21005,3.05082c0,1.68492 -1.88491,3.05082 -4.21005,3.05082c-2.32514,0 -4.21005,-1.3659 -4.21005,-3.05082z" fill="url(#color-25)" stroke="#000000" stroke-width="1" stroke-linecap="butt"/></g></g></g></svg>