<svg version="1.1" xmlns="http://www.w3.org/2000/svg" xmlns:xlink="http://www.w3.org/1999/xlink" width="649.00215" height="385.97736" viewBox="0,0,649.00215,385.97736"><defs><linearGradient x1="300.71539" y1="221.32866" x2="282.04872" y2="221.32866" gradientUnits="userSpaceOnUse" id="color-1"><stop offset="0" stop-color="#000000"/><stop offset="1" stop-color="#000000" stop-opacity="0"/></linearGradient><linearGradient x1="484.98142" y1="194.97944" x2="484.98142" y2="367.5377" gradientUnits="userSpaceOnUse" id="color-2"><stop offset="0" stop-color="#000000"/><stop offset="1" stop-color="#000000" stop-opacity="0"/></linearGradient><linearGradient x1="300.72638" y1="241.18581" x2="282.05971" y2="241.18581" gradientUnits="userSpaceOnUse" id="color-3"><stop offset="0" stop-color="#000000"/><stop offset="1" stop-color="#000000" stop-opacity="0"/></linearGradient><linearGradient x1="300.72937" y1="261.33771" x2="282.0627" y2="261.33771" gradientUnits="userSpaceOnUse" id="color-4"><stop offset="0" stop-color="#000000"/><stop offset="1" stop-color="#000000" stop-opacity="0"/></linearGradient><linearGradient x1="504.05841" y1="270.48188" x2="504.05841" y2="289.14854" gradientUnits="userSpaceOnUse" id="color-5"><stop offset="0" stop-color="#000000"/><stop offset="1" stop-color="#000000" stop-opacity="0"/></linearGradient><linearGradient x1="408.80668" y1="-16.90206" x2="408.80668" y2="125.93729" gradientUnits="userSpaceOnUse" id="color-6"><stop offset="0" stop-color="#000000"/><stop offset="1" stop-color="#000000" stop-opacity="0"/></linearGradient><linearGradient x1="561.93299" y1="-0.83549" x2="561.93299" y2="174.27866" gradientUnits="userSpaceOnUse" id="color-7"><stop offset="0" stop-color="#000000"/><stop offset="1" stop-color="#000000" stop-opacity="0"/></linearGradient><linearGradient x1="533.81607" y1="68.22361" x2="533.81607" y2="159.48028" gradientUnits="userSpaceOnUse" id="color-8"><stop offset="0" stop-color="#000000"/><stop offset="1" stop-color="#000000" stop-opacity="0"/></linearGradient><linearGradient x1="599.66886" y1="12.46609" x2="599.66886" y2="122.97762" gradientUnits="userSpaceOnUse" id="color-9"><stop offset="0" stop-color="#000000"/><stop offset="1" stop-color="#000000" stop-opacity="0"/></linearGradient><linearGradient x1="580.92425" y1="115.06819" x2="580.92425" y2="172.78187" gradientUnits="userSpaceOnUse" id="color-10"><stop offset="0" stop-color="#000000"/><stop offset="1" stop-color="#000000" stop-opacity="0"/></linearGradient><linearGradient x1="538.00894" y1="0.13411" x2="538.00894" y2="75.60585" gradientUnits="userSpaceOnUse" id="color-11"><stop offset="0" stop-color="#000000"/><stop offset="1" stop-color="#000000" stop-opacity="0"/></linearGradient><linearGradient x1="566.37251" y1="0.62739" x2="566.37251" y2="102.24293" gradientUnits="userSpaceOnUse" id="color-12"><stop offset="0" stop-color="#000000"/><stop offset="1" stop-color="#000000" stop-opacity="0"/></linearGradient><linearGradient x1="554.5338" y1="77.57896" x2="554.5338" y2="122.46738" gradientUnits="userSpaceOnUse" id="color-13"><stop offset="0" stop-color="#000000"/><stop offset="1" stop-color="#000000" stop-opacity="0"/></linearGradient><linearGradient x1="443.88453" y1="270.50684" x2="443.88453" y2="289.17351" gradientUnits="userSpaceOnUse" id="color-14"><stop offset="0" stop-color="#000000"/><stop offset="1" stop-color="#000000" stop-opacity="0"/></linearGradient><linearGradient x1="463.74167" y1="270.49585" x2="463.74167" y2="289.16252" gradientUnits="userSpaceOnUse" id="color-15"><stop offset="0" stop-color="#000000"/><stop offset="1" stop-color="#000000" stop-opacity="0"/></linearGradient><linearGradient x1="483.89358" y1="270.49286" x2="483.89358" y2="289.15953" gradientUnits="userSpaceOnUse" id="color-16"><stop offset="0" stop-color="#000000"/><stop offset="1" stop-color="#000000" stop-opacity="0"/></linearGradient><linearGradient x1="126.64562" y1="61.94567" x2="126.64562" y2="360" gradientUnits="userSpaceOnUse" id="color-17"><stop offset="0" stop-color="#000000"/><stop offset="1" stop-color="#000000" stop-opacity="0"/></linearGradient><linearGradient x1="122.11977" y1="86.68757" x2="122.11977" y2="166.59882" gradientUnits="userSpaceOnUse" id="color-18"><stop offset="0" stop-color="#000000"/><stop offset="1" stop-color="#000000" stop-opacity="0"/></linearGradient><linearGradient x1="257.77159" y1="179.91736" x2="257.77159" y2="248.97647" gradientUnits="userSpaceOnUse" id="color-19"><stop offset="0" stop-color="#000000"/><stop offset="1" stop-color="#000000" stop-opacity="0"/></linearGradient><linearGradient x1="188.46584" y1="214.94019" x2="188.46584" y2="300.27752" gradientUnits="userSpaceOnUse" id="color-20"><stop offset="0" stop-color="#000000"/><stop offset="1" stop-color="#000000" stop-opacity="0"/></linearGradient><linearGradient x1="58.2401" y1="238.12432" x2="58.2401" y2="358.97775" gradientUnits="userSpaceOnUse" id="color-21"><stop offset="0" stop-color="#000000"/><stop offset="1" stop-color="#000000" stop-opacity="0"/></linearGradient><linearGradient x1="31.35638" y1="75.34215" x2="31.35638" y2="187.80983" gradientUnits="userSpaceOnUse" id="color-22"><stop offset="0" stop-color="#000000"/><stop offset="1" stop-color="#000000" stop-opacity="0"/></linearGradient><linearGradient x1="150.48333" y1="146.37437" x2="150.48333" y2="213.95364" gradientUnits="userSpaceOnUse" id="color-23"><stop offset="0" stop-color="#000000"/><stop offset="1" stop-color="#000000" stop-opacity="0"/></linearGradient><linearGradient x1="453.9773" y1="147.02149" x2="429.79176" y2="219.30652" gradientUnits="userSpaceOnUse" id="color-24"><stop offset="0" stop-color="#000000"/><stop offset="1" stop-color="#000000" stop-opacity="0"/></linearGradient></defs><g transform="translate(29.6774,17.65584)"><g data-paper-data="{&quot;isPaintingLayer&quot;:true}" fill-rule="nonzero" stroke="#ffffff" stroke-width="1.5" stroke-linejoin="miter" stroke-miterlimit="10" stroke-dasharray="" stroke-dashoffset="0" style="mix-blend-mode: normal"><path d="M282.04872,211.99533h18.66667v18.66667h-18.66667z" fill="url(#color-1)" stroke-linecap="butt"/><path d="M505.94579,268.97134l13.31854,-55.24728l12.82527,-18.74461l32.06316,24.66396l36.00939,115.92064l12.33198,31.97365l-255.0254,-7.71827l12.33199,-50.80777l63.63303,-29.10348z" fill="url(#color-2)" stroke-linecap="round"/><path d="M282.05971,231.85247h18.66667v18.66667h-18.66667z" fill="url(#color-3)" stroke-linecap="butt"/><path d="M282.0627,252.00437h18.66667v18.66667h-18.66667z" fill="url(#color-4)" stroke-linecap="butt"/><path d="M494.72508,289.14854v-18.66667h18.66667v18.66667z" fill="url(#color-5)" stroke-linecap="butt"/><path d="M487.48473,-16.3307l-35.02283,90.27447l-74.97845,51.99353l-47.35482,-142.83935z" fill="url(#color-6)" stroke-linecap="round"/><path d="M618.41349,-0.83548l-23.67741,121.34671l-23.67741,53.76744l-27.62365,-14.3051l-27.13036,-89.28356l-10.85215,-71.03222z" fill="url(#color-7)" stroke-linecap="round"/><path d="M516.30466,68.22361l35.02283,39.95563l-7.89247,51.30104z" fill="url(#color-8)" stroke-linecap="round"/><path d="M593.74951,122.97762l-9.86559,-87.80372l31.56988,-22.7078z" fill="url(#color-9)" stroke-linecap="round"/><path d="M569.08554,172.78187l7.89247,-57.71368l15.78494,10.35887z" fill="url(#color-10)" stroke-linecap="round"/><path d="M505.4525,0.13411l65.11287,0.49328l-46.86153,74.97846z" fill="url(#color-11)" stroke-linecap="round"/><path d="M576.48473,0.62739l13.81182,101.61554l-47.84809,-56.72712z" fill="url(#color-12)" stroke-linecap="round"/><path d="M534.06271,86.95127l32.55643,-9.37231l8.38575,44.88842z" fill="url(#color-13)" stroke-linecap="round"/><path d="M434.55119,289.17351v-18.66667h18.66667v18.66667z" fill="url(#color-14)" stroke-linecap="butt"/><path d="M454.40833,289.16252v-18.66667h18.66667v18.66667z" fill="url(#color-15)" stroke-linecap="butt"/><path d="M474.56024,289.15953v-18.66667h18.66667v18.66667z" fill="url(#color-16)" stroke-linecap="butt"/><path d="M282.12263,266.82671l-111.23979,13.02422l-77.09176,46.58665l-122.62247,33.56241l27.4219,-298.05433l95.54098,41.07639l93.13099,26.54937l94.16577,78.64627z" fill="url(#color-17)" stroke-linecap="round"/><path d="M101.1554,111.35153l89.77684,25.15725l-86.32388,30.09004l-51.30105,-79.91125z" fill="url(#color-18)" stroke-linecap="round"/><path d="M278.73596,214.44692l-41.92874,34.52955l2.95968,-69.0591z" fill="url(#color-19)" stroke-linecap="round"/><path d="M143.08415,300.27752l59.6868,-85.33732l26.1438,20.22445l4.93279,35.51611l-57.71368,6.90591z" fill="url(#color-20)" stroke-linecap="round"/><path d="M0.03314,238.12432l128.25262,17.26478l-11.8387,27.13036l-67.57927,46.86153l-60.67336,29.59676z" fill="url(#color-21)" stroke-linecap="round"/><path d="M12.85841,75.34215l44.39514,75.96501l-51.79433,36.50267z" fill="url(#color-22)" stroke-linecap="round"/><path d="M214.60964,163.63915l-128.25262,50.31449l111.48113,-67.57927z" fill="url(#color-23)" stroke-linecap="round"/><path d="M452.73036,218.55482l-15.36034,3.28729l-21.93491,-27.4334l15.59043,-34.97225l21.78587,-12.80504z" fill="url(#color-24)" stroke-linecap="round"/></g></g></svg>