<svg version="1.1" xmlns="http://www.w3.org/2000/svg" xmlns:xlink="http://www.w3.org/1999/xlink" width="693.6937" height="416.32822" viewBox="0,0,693.6937,416.32822"><defs><linearGradient x1="320.14393" y1="270.22911" x2="320.14393" y2="369.32822" gradientUnits="userSpaceOnUse" id="color-1"><stop offset="0" stop-color="#000000" stop-opacity="0"/><stop offset="1" stop-color="#000000"/></linearGradient><radialGradient cx="60.13138" cy="267.47912" r="24.875" gradientUnits="userSpaceOnUse" id="color-2"><stop offset="0" stop-color="#000000"/><stop offset="1" stop-color="#000000" stop-opacity="0"/></radialGradient><radialGradient cx="64.88138" cy="267.47912" r="24.875" gradientUnits="userSpaceOnUse" id="color-3"><stop offset="0" stop-color="#000000"/><stop offset="1" stop-color="#000000" stop-opacity="0"/></radialGradient><radialGradient cx="64.88138" cy="272.97911" r="24.875" gradientUnits="userSpaceOnUse" id="color-4"><stop offset="0" stop-color="#000000"/><stop offset="1" stop-color="#000000" stop-opacity="0"/></radialGradient><radialGradient cx="60.13138" cy="272.97911" r="24.875" gradientUnits="userSpaceOnUse" id="color-5"><stop offset="0" stop-color="#000000"/><stop offset="1" stop-color="#000000" stop-opacity="0"/></radialGradient><radialGradient cx="37.38138" cy="159.8665" r="24.875" gradientUnits="userSpaceOnUse" id="color-6"><stop offset="0" stop-color="#000000"/><stop offset="1" stop-color="#000000" stop-opacity="0"/></radialGradient><radialGradient cx="42.13138" cy="159.8665" r="24.875" gradientUnits="userSpaceOnUse" id="color-7"><stop offset="0" stop-color="#000000"/><stop offset="1" stop-color="#000000" stop-opacity="0"/></radialGradient><radialGradient cx="42.13138" cy="165.3665" r="24.875" gradientUnits="userSpaceOnUse" id="color-8"><stop offset="0" stop-color="#000000"/><stop offset="1" stop-color="#000000" stop-opacity="0"/></radialGradient><radialGradient cx="37.38138" cy="165.3665" r="24.875" gradientUnits="userSpaceOnUse" id="color-9"><stop offset="0" stop-color="#000000"/><stop offset="1" stop-color="#000000" stop-opacity="0"/></radialGradient><radialGradient cx="82.88138" cy="79.28091" r="24.875" gradientUnits="userSpaceOnUse" id="color-10"><stop offset="0" stop-color="#000000"/><stop offset="1" stop-color="#000000" stop-opacity="0"/></radialGradient><radialGradient cx="87.63138" cy="79.28091" r="24.875" gradientUnits="userSpaceOnUse" id="color-11"><stop offset="0" stop-color="#000000"/><stop offset="1" stop-color="#000000" stop-opacity="0"/></radialGradient><radialGradient cx="87.63138" cy="84.78091" r="24.875" gradientUnits="userSpaceOnUse" id="color-12"><stop offset="0" stop-color="#000000"/><stop offset="1" stop-color="#000000" stop-opacity="0"/></radialGradient><radialGradient cx="82.88138" cy="84.78091" r="24.875" gradientUnits="userSpaceOnUse" id="color-13"><stop offset="0" stop-color="#000000"/><stop offset="1" stop-color="#000000" stop-opacity="0"/></radialGradient><radialGradient cx="158.45195" cy="-2.75" r="24.875" gradientUnits="userSpaceOnUse" id="color-14"><stop offset="0" stop-color="#000000"/><stop offset="1" stop-color="#000000" stop-opacity="0"/></radialGradient><radialGradient cx="163.20195" cy="-2.75" r="24.875" gradientUnits="userSpaceOnUse" id="color-15"><stop offset="0" stop-color="#000000"/><stop offset="1" stop-color="#000000" stop-opacity="0"/></radialGradient><radialGradient cx="163.20195" cy="2.75" r="24.875" gradientUnits="userSpaceOnUse" id="color-16"><stop offset="0" stop-color="#000000"/><stop offset="1" stop-color="#000000" stop-opacity="0"/></radialGradient><radialGradient cx="158.45195" cy="2.75" r="24.875" gradientUnits="userSpaceOnUse" id="color-17"><stop offset="0" stop-color="#000000"/><stop offset="1" stop-color="#000000" stop-opacity="0"/></radialGradient><radialGradient cx="507.29579" cy="57.15591" r="24.875" gradientUnits="userSpaceOnUse" id="color-18"><stop offset="0" stop-color="#000000"/><stop offset="1" stop-color="#000000" stop-opacity="0"/></radialGradient><radialGradient cx="512.04579" cy="57.15591" r="24.875" gradientUnits="userSpaceOnUse" id="color-19"><stop offset="0" stop-color="#000000"/><stop offset="1" stop-color="#000000" stop-opacity="0"/></radialGradient><radialGradient cx="512.04579" cy="62.65591" r="24.875" gradientUnits="userSpaceOnUse" id="color-20"><stop offset="0" stop-color="#000000"/><stop offset="1" stop-color="#000000" stop-opacity="0"/></radialGradient><radialGradient cx="507.29579" cy="62.65591" r="24.875" gradientUnits="userSpaceOnUse" id="color-21"><stop offset="0" stop-color="#000000"/><stop offset="1" stop-color="#000000" stop-opacity="0"/></radialGradient></defs><g transform="translate(26.70292,47)"><g data-paper-data="{&quot;isPaintingLayer&quot;:true}" fill-rule="nonzero" stroke="none" stroke-width="0" stroke-linecap="butt" stroke-linejoin="miter" stroke-miterlimit="10" stroke-dasharray="" stroke-dashoffset="0" style="mix-blend-mode: normal"><path d="M-26.70292,369.32822v-99.0991h693.6937v99.0991z" fill="url(#color-1)"/><path d="M14.88138,272.97912v-49.75h49.75v49.75z" fill="url(#color-2)"/><path d="M60.38138,272.97912v-49.75h49.75v49.75z" data-paper-data="{&quot;index&quot;:null}" fill="url(#color-3)"/><path d="M110.13138,267.47911l0,49.75l-49.75,0l0,-49.75z" fill="url(#color-4)"/><path d="M64.63138,267.47911l0,49.75l-49.75,0l0,-49.75z" data-paper-data="{&quot;index&quot;:null}" fill="url(#color-5)"/><path d="M-7.86862,165.3665v-49.75h49.75v49.75z" fill="url(#color-6)"/><path d="M37.63138,165.3665v-49.75h49.75v49.75z" data-paper-data="{&quot;index&quot;:null}" fill="url(#color-7)"/><path d="M87.38138,159.8665v49.75h-49.75v-49.75z" fill="url(#color-8)"/><path d="M41.88138,159.8665v49.75h-49.75v-49.75z" data-paper-data="{&quot;index&quot;:null}" fill="url(#color-9)"/><path d="M37.63138,84.78091v-49.75h49.75v49.75z" fill="url(#color-10)"/><path d="M83.13138,84.78091v-49.75h49.75v49.75z" data-paper-data="{&quot;index&quot;:null}" fill="url(#color-11)"/><path d="M132.88138,79.28091v49.75h-49.75v-49.75z" fill="url(#color-12)"/><path d="M87.38138,79.28091v49.75h-49.75v-49.75z" data-paper-data="{&quot;index&quot;:null}" fill="url(#color-13)"/><path d="M113.20195,2.75v-49.75h49.75v49.75z" fill="url(#color-14)"/><path d="M158.70195,2.75v-49.75h49.75v49.75z" data-paper-data="{&quot;index&quot;:null}" fill="url(#color-15)"/><path d="M208.45195,-2.75v49.75h-49.75v-49.75z" fill="url(#color-16)"/><path d="M162.95195,-2.75v49.75h-49.75v-49.75z" data-paper-data="{&quot;index&quot;:null}" fill="url(#color-17)"/><path d="M462.04579,62.65591v-49.75h49.75v49.75z" fill="url(#color-18)"/><path d="M507.54579,62.65591v-49.75h49.75v49.75z" data-paper-data="{&quot;index&quot;:null}" fill="url(#color-19)"/><path d="M557.29579,57.15591v49.75h-49.75v-49.75z" fill="url(#color-20)"/><path d="M511.79579,57.15591v49.75h-49.75v-49.75z" data-paper-data="{&quot;index&quot;:null}" fill="url(#color-21)"/></g></g></svg>