<svg version="1.1" xmlns="http://www.w3.org/2000/svg" xmlns:xlink="http://www.w3.org/1999/xlink" width="831.52507" height="500.1677" viewBox="0,0,831.52507,500.1677"><defs><linearGradient x1="238.94704" y1="-27.26873" x2="238.94704" y2="138.53002" gradientUnits="userSpaceOnUse" id="color-1"><stop offset="0" stop-color="#ff0000"/><stop offset="1" stop-color="#b00000"/></linearGradient><linearGradient x1="343.5048" y1="57.12433" x2="449.55625" y2="57.12433" gradientUnits="userSpaceOnUse" id="color-2"><stop offset="0" stop-color="#ff0000"/><stop offset="1" stop-color="#b00000"/></linearGradient><radialGradient cx="561.41878" cy="-27.13706" r="87.38042" gradientUnits="userSpaceOnUse" id="color-3"><stop offset="0" stop-color="#ff0000"/><stop offset="1" stop-color="#b00000"/></radialGradient><linearGradient x1="462.99939" y1="92.97271" x2="607.88658" y2="92.97271" gradientUnits="userSpaceOnUse" id="color-4"><stop offset="0" stop-color="#ff0000"/><stop offset="1" stop-color="#b00000"/></linearGradient><linearGradient x1="501.83513" y1="75.79536" x2="501.83513" y2="93.71955" gradientUnits="userSpaceOnUse" id="color-5"><stop offset="0" stop-color="#ff0000"/><stop offset="1" stop-color="#b00000"/></linearGradient><radialGradient cx="292.55596" cy="59.49652" r="93.35515" gradientUnits="userSpaceOnUse" id="color-6"><stop offset="0" stop-color="#ff0000"/><stop offset="1" stop-color="#b00000"/></radialGradient><linearGradient x1="277.78277" y1="-1.87611" x2="421.17628" y2="-1.87611" gradientUnits="userSpaceOnUse" id="color-7"><stop offset="0" stop-color="#ff0000"/><stop offset="1" stop-color="#b00000"/></linearGradient><linearGradient x1="454.78414" y1="38.4533" x2="454.78414" y2="117.61846" gradientUnits="userSpaceOnUse" id="color-8"><stop offset="0" stop-color="#ff0000"/><stop offset="1" stop-color="#b00000"/></linearGradient><radialGradient cx="167.08664" cy="146.13009" r="71.69675" gradientUnits="userSpaceOnUse" id="color-9"><stop offset="0" stop-color="#ff0000"/><stop offset="1" stop-color="#b00000"/></radialGradient><linearGradient x1="195.63025" y1="104.92217" x2="265.83332" y2="104.92217" gradientUnits="userSpaceOnUse" id="color-10"><stop offset="0" stop-color="#ff0000"/><stop offset="1" stop-color="#b00000"/></linearGradient><radialGradient cx="319.44224" cy="159.57323" r="45.55731" gradientUnits="userSpaceOnUse" id="color-11"><stop offset="0" stop-color="#ff0000"/><stop offset="1" stop-color="#b00000"/></radialGradient><linearGradient x1="168.50924" y1="160.93525" x2="168.50924" y2="247.56882" gradientUnits="userSpaceOnUse" id="color-12"><stop offset="0" stop-color="#ff0000"/><stop offset="1" stop-color="#b00000"/></linearGradient><radialGradient cx="234.30235" cy="170.02902" r="20.16471" gradientUnits="userSpaceOnUse" id="color-13"><stop offset="0" stop-color="#ff0000"/><stop offset="1" stop-color="#b00000"/></radialGradient><linearGradient x1="132.8956" y1="296.86034" x2="224.01021" y2="296.86034" gradientUnits="userSpaceOnUse" id="color-14"><stop offset="0" stop-color="#ff0000"/><stop offset="1" stop-color="#b00000"/></linearGradient><linearGradient x1="242.68123" y1="316.27821" x2="242.68123" y2="404.40547" gradientUnits="userSpaceOnUse" id="color-15"><stop offset="0" stop-color="#ff0000"/><stop offset="1" stop-color="#b00000"/></linearGradient><linearGradient x1="298.69433" y1="300.59456" x2="422.66996" y2="300.59456" gradientUnits="userSpaceOnUse" id="color-16"><stop offset="0" stop-color="#ff0000"/><stop offset="1" stop-color="#b00000"/></linearGradient><linearGradient x1="434.61942" y1="244.58146" x2="434.61942" y2="317.77189" gradientUnits="userSpaceOnUse" id="color-17"><stop offset="0" stop-color="#ff0000"/><stop offset="1" stop-color="#b00000"/></linearGradient><linearGradient x1="584.47733" y1="198.27731" x2="584.47733" y2="367.06341" gradientUnits="userSpaceOnUse" id="color-18"><stop offset="0" stop-color="#ff0000"/><stop offset="1" stop-color="#b00000"/></linearGradient><linearGradient x1="409.97366" y1="317.77189" x2="409.97366" y2="384.9876" gradientUnits="userSpaceOnUse" id="color-19"><stop offset="0" stop-color="#ff0000"/><stop offset="1" stop-color="#b00000"/></linearGradient><linearGradient x1="439.10047" y1="354.36712" x2="542.16454" y2="354.36712" gradientUnits="userSpaceOnUse" id="color-20"><stop offset="0" stop-color="#ff0000"/><stop offset="1" stop-color="#b00000"/></linearGradient><linearGradient x1="559.16397" y1="126.95923" x2="745.87427" y2="126.95923" gradientUnits="userSpaceOnUse" id="color-21"><stop offset="0" stop-color="#ff0000"/><stop offset="1" stop-color="#b00000"/></linearGradient><linearGradient x1="550.86941" y1="15.44911" x2="695.7566" y2="15.44911" gradientUnits="userSpaceOnUse" id="color-22"><stop offset="0" stop-color="#ff0000"/><stop offset="1" stop-color="#b00000"/></linearGradient><linearGradient x1="140.38985" y1="-86.07175" x2="140.38985" y2="79.72699" gradientUnits="userSpaceOnUse" id="color-23"><stop offset="0" stop-color="#ff0000"/><stop offset="1" stop-color="#b00000"/></linearGradient><linearGradient x1="69.59847" y1="-10.70449" x2="69.59847" y2="155.09425" gradientUnits="userSpaceOnUse" id="color-24"><stop offset="0" stop-color="#ff0000"/><stop offset="1" stop-color="#b00000"/></linearGradient><linearGradient x1="38.12643" y1="104.41692" x2="38.12643" y2="270.21567" gradientUnits="userSpaceOnUse" id="color-25"><stop offset="0" stop-color="#ff0000"/><stop offset="1" stop-color="#b00000"/></linearGradient><linearGradient x1="99.47129" y1="210.52998" x2="99.47129" y2="376.32873" gradientUnits="userSpaceOnUse" id="color-26"><stop offset="0" stop-color="#ff0000"/><stop offset="1" stop-color="#b00000"/></linearGradient><linearGradient x1="654.08706" y1="179.46274" x2="654.08706" y2="345.26148" gradientUnits="userSpaceOnUse" id="color-27"><stop offset="0" stop-color="#ff0000"/><stop offset="1" stop-color="#b00000"/></linearGradient><linearGradient x1="510.44315" y1="197.27504" x2="679.22925" y2="197.27504" gradientUnits="userSpaceOnUse" id="color-28"><stop offset="0" stop-color="#ff0000"/><stop offset="1" stop-color="#b00000"/></linearGradient><linearGradient x1="695.1231" y1="241.51979" x2="695.1231" y2="407.31854" gradientUnits="userSpaceOnUse" id="color-29"><stop offset="0" stop-color="#ff0000"/><stop offset="1" stop-color="#b00000"/></linearGradient><linearGradient x1="0" y1="256.07053" x2="0" y2="377.0588" gradientUnits="userSpaceOnUse" id="color-30"><stop offset="0" stop-color="#ff0000"/><stop offset="1" stop-color="#b00000"/></linearGradient></defs><g transform="translate(68.20098,92.09917)"><g data-paper-data="{&quot;isPaintingLayer&quot;:true}" fill-rule="nonzero" stroke-linecap="butt" stroke-linejoin="miter" stroke-miterlimit="10" stroke-dasharray="" stroke-dashoffset="0" style="mix-blend-mode: normal"><path d="M135.88295,138.53002v-165.79874h206.12817v165.79874z" fill="url(#color-1)" stroke="#000000" stroke-width="1.5"/><path d="M343.5048,141.51738v-168.7861h106.05145v168.7861z" fill="url(#color-2)" stroke="#000000" stroke-width="1.5"/><path d="M451.04993,141.51738v-174.76084h143.3935v174.76084z" fill="url(#color-3)" stroke="#000000" stroke-width="1.5"/><path d="M462.99939,199.77099v-213.59657h144.88719v213.59657z" fill="url(#color-4)" stroke="#000000" stroke-width="1.5"/><path d="M458.51834,-9.34454v-13.44313h5.97474v13.44313z" fill="#ff0000" stroke="#000000" stroke-width="1.5"/><path d="M433.12574,93.71955v-17.92419h137.41878v17.92419z" fill="url(#color-5)" stroke="#000000" stroke-width="1.5"/><path d="M192.64288,74.30168v-47.79784h186.7103v47.79784z" fill="url(#color-6)" stroke="#000000" stroke-width="1.5"/><path d="M277.78277,54.88381v-113.51985h143.3935v113.51985z" fill="url(#color-7)" stroke="#000000" stroke-width="1.5"/><path d="M406.23946,117.61846v-79.16516h97.08935v79.16516z" fill="url(#color-8)" stroke="#000000" stroke-width="1.5"/><path d="M462.99939,332.70872v-149.36823h70.93934v149.36823z" fill="#b2b2b2" stroke="none" stroke-width="0"/><path d="M103.02194,174.3784v-56.75994h143.3935v56.75994z" fill="url(#color-9)" stroke="#000000" stroke-width="1.5"/><path d="M195.63025,160.93525v-112.02617h70.20307v112.02617z" fill="url(#color-10)" stroke="#000000" stroke-width="1.5"/><path d="M252.39018,181.84681v-47.79784h91.11462v47.79784z" fill="url(#color-11)" stroke="#000000" stroke-width="1.5"/><path d="M106.0093,247.56882v-86.63358h124.99988v86.63358z" fill="url(#color-12)" stroke="#000000" stroke-width="1.5"/><path d="M216.5418,181.84681v-40.32943h37.34206v40.32943z" fill="url(#color-13)" stroke="#000000" stroke-width="1.5"/><path d="M132.8956,344.65819v-95.59567h91.11462v95.59567z" fill="url(#color-14)" stroke="#000000" stroke-width="1.5"/><path d="M116.46509,404.40547v-88.12726h252.43231v88.12726z" fill="url(#color-15)" stroke="#000000" stroke-width="1.5"/><path d="M298.69433,361.0887v-120.98827h123.97563v120.98827z" fill="url(#color-16)" stroke="#000000" stroke-width="1.5"/><path d="M404.74578,317.77189v-73.19043h59.74729v73.19043z" fill="url(#color-17)" stroke="#000000" stroke-width="1.5"/><path d="M529.95793,367.06341v-168.7861h109.03882v168.7861z" fill="url(#color-18)" stroke="#000000" stroke-width="1.5"/><path d="M350.97321,384.9876v-67.21571h118.00091v67.21571z" fill="url(#color-19)" stroke="#000000" stroke-width="1.5"/><path d="M439.10047,376.02551v-43.31679h103.06408v43.31679z" fill="url(#color-20)" stroke="#000000" stroke-width="1.5"/><path d="M222.51653,314.78453v-129.95036h73.19043v129.95036z" fill="#b2b2b2" stroke="none" stroke-width="0"/><path d="M342.01112,247.56882v-106.05145h120.98827v106.05145z" fill="#b2b2b2" stroke="none" stroke-width="0"/><path d="M231.47862,241.59411v-58.25362h285.29333v58.25362z" fill="#b2b2b2" stroke="none" stroke-width="0"/><path d="M559.16397,233.75752v-213.59657h186.7103v213.59658z" fill="url(#color-21)" stroke="#000000" stroke-width="1.5"/><path d="M550.86941,122.2474v-213.59657h144.88719v213.59658z" fill="url(#color-22)" stroke="#000000" stroke-width="1.5"/><path d="M37.32577,79.72699v-165.79874h206.12817v165.79874z" fill="url(#color-23)" stroke="#000000" stroke-width="1.5"/><path d="M-33.46561,155.09425v-165.79874h206.12817v165.79874z" fill="url(#color-24)" stroke="#000000" stroke-width="1.5"/><path d="M-29.32455,270.21567v-165.79874h134.90197v165.79874z" fill="url(#color-25)" stroke="#000000" stroke-width="1.5"/><path d="M32.02031,376.32873v-165.79874h134.90197v165.79874z" fill="url(#color-26)" stroke="#000000" stroke-width="1.5"/><path d="M586.63608,345.26148v-165.79874h134.90197v165.79874z" fill="url(#color-27)" stroke="#000000" stroke-width="1.5"/><path d="M679.22925,251.79443h-168.7861v-109.03882h168.7861z" fill="url(#color-28)" stroke="#000000" stroke-width="1.5"/><path d="M627.67212,407.31854v-165.79874h134.90197v165.79875z" fill="url(#color-29)" stroke="#000000" stroke-width="1.5"/><path d="M-67.45098,377.0588v-120.98827h134.90197v120.98827z" fill="url(#color-30)" stroke="#000000" stroke-width="1.5"/></g></g></svg>