<svg version="1.1" xmlns="http://www.w3.org/2000/svg" xmlns:xlink="http://www.w3.org/1999/xlink" width="45.68971" height="45.61792" viewBox="0,0,45.68971,45.61792"><g transform="translate(-297.11925,-157.19104)"><g data-paper-data="{&quot;isPaintingLayer&quot;:true}" fill-rule="nonzero" stroke-linejoin="miter" stroke-miterlimit="10" stroke-dasharray="" stroke-dashoffset="0" style="mix-blend-mode: normal"><path d="M298.69104,201.30896v-42.61792h42.61792v42.61792z" fill="#00ff68" stroke="#000000" stroke-width="3" stroke-linecap="butt"/><path d="M318.77719,173.4046c0,1.05451 1.69636,3.37025 0.78654,4.17531c-1.46293,1.29449 -6.12903,0.8042 -8.88753,0.8042c-4.47405,0 -8.10098,-2.2294 -8.10098,-4.9795c0,-1.17794 -1.26694,-5.67911 -0.15457,-6.53172c1.48465,-1.13795 4.65735,3.33592 7.21505,3.33592c0.95001,0 1.57375,0.34739 2.11196,1.11534c0.6216,0.88694 2.16963,0.4519 2.93398,0.8645c1.69063,0.91262 4.09554,-0.27577 4.09554,1.21596z" fill="#ff0000" stroke="#000000" stroke-width="3" stroke-linecap="butt"/><path d="M325.64013,170.94568c0.76435,-0.41261 3.65015,-1.31535 4.27176,-2.20228c0.40657,-0.58012 1.45651,-0.9009 2.06446,-0.36868c0.19685,0.17233 2.04476,-2.08444 2.27713,-2.08444c2.5577,0 3.50078,-0.75782 4.98543,0.38013c1.11237,0.85261 -0.15457,5.35378 -0.15457,6.53172c0,2.7501 -3.62693,4.97951 -8.10098,4.97951c-2.7585,0 -7.4246,0.49029 -8.88753,-0.8042c-0.90982,-0.80507 0.78654,-3.12079 0.78654,-4.17531c0,-1.49173 1.06714,-1.34383 2.75776,-2.25645z" data-paper-data="{&quot;index&quot;:null}" fill="#ff0000" stroke="#000000" stroke-width="3" stroke-linecap="butt"/><path d="M341.55161,187.50499c0.83812,1.81592 -0.9778,2.65404 -0.9778,2.65404l-1.82563,0.83868c-0.61638,0.38065 -1.23276,0.76129 -1.84914,1.14194c-2.52281,1.45915 -4.70396,2.72007 -7.72548,1.6242c-2.91928,-1.05879 -4.06031,-3.44133 -7.49687,-3.42216c-2.37791,0.01327 -3.09304,2.28162 -5.48712,2.90169c-1.19147,0.30859 -2.464,0.14975 -3.69179,0.06399c-1.42277,-0.09939 -3.9726,-0.72119 -5.21536,-1.50357c-2.62561,-1.65295 -3.99168,-4.16447 -6.5992,-0.68238c0,0 -1.29188,1.52677 -2.81866,0.23489c-1.52677,-1.29188 -0.23489,-2.81866 -0.23489,-2.81866c0.71522,-0.78769 1.23023,-1.82086 2.14565,-2.36307c6.31147,-3.7383 9.2673,4.75807 15.3465,3.21394c0.89031,-0.22614 2.96077,-2.31513 3.59435,-2.57931c1.36664,-0.56984 4.06956,-0.56905 5.50071,-0.27987c2.42847,0.49069 3.21137,1.14604 5.21648,2.55092c0.89344,0.62599 1.1896,1.32467 2.37215,1.13765c0.91238,-0.14429 2.3172,-1.08484 3.03744,-1.50936c0.67185,-0.41211 1.3437,-0.82422 2.01555,-1.23633l2.03906,-0.94502c0,0 1.81592,-0.83812 2.65404,0.9778z" fill="#000000" stroke="none" stroke-width="0.5" stroke-linecap="butt"/><path d="M301.83201,186.70805l4.75654,-2.8242l0.14864,2.8242" fill="none" stroke="#000000" stroke-width="3" stroke-linecap="round"/><path d="M334.0873,189.97817l-1.18914,-5.79703l3.56741,4.45926" fill="none" stroke="#000000" stroke-width="3" stroke-linecap="round"/><path d="M312.53424,192.05916l-2.8242,3.27012l-0.44593,-4.45926" fill="none" stroke="#000000" stroke-width="3" stroke-linecap="round"/><path d="M330.37126,191.61323l-1.48642,5.20247l-1.7837,-5.20247" fill="none" stroke="#000000" stroke-width="3" stroke-linecap="round"/></g></g></svg>