<svg version="1.1" xmlns="http://www.w3.org/2000/svg" xmlns:xlink="http://www.w3.org/1999/xlink" width="678" height="391" viewBox="0,0,678,391"><defs><linearGradient x1="362.15196" y1="164.68656" x2="362.15196" y2="333.79454" gradientUnits="userSpaceOnUse" id="color-1"><stop offset="0" stop-color="#00ffff"/><stop offset="1" stop-color="#001367"/></linearGradient><linearGradient x1="377.03928" y1="232.93617" x2="377.03928" y2="237.93617" gradientUnits="userSpaceOnUse" id="color-2"><stop offset="0" stop-color="#00ffff"/><stop offset="1" stop-color="#001367"/></linearGradient><linearGradient x1="408.91252" y1="263.02224" x2="408.91252" y2="268.02224" gradientUnits="userSpaceOnUse" id="color-3"><stop offset="0" stop-color="#00ffff"/><stop offset="1" stop-color="#001367"/></linearGradient><linearGradient x1="376.69656" y1="295.00972" x2="376.69656" y2="300.00972" gradientUnits="userSpaceOnUse" id="color-4"><stop offset="0" stop-color="#00ffff"/><stop offset="1" stop-color="#001367"/></linearGradient><linearGradient x1="222.93831" y1="213.99857" x2="222.93831" y2="309.87917" gradientUnits="userSpaceOnUse" id="color-5"><stop offset="0" stop-color="#00ffff"/><stop offset="1" stop-color="#001367"/></linearGradient><linearGradient x1="218.94328" y1="167.51101" x2="218.94328" y2="336.02842" gradientUnits="userSpaceOnUse" id="color-6"><stop offset="0" stop-color="#00ffff"/><stop offset="1" stop-color="#001367"/></linearGradient><linearGradient x1="284.31641" y1="278.64533" x2="284.31641" y2="330.94383" gradientUnits="userSpaceOnUse" id="color-7"><stop offset="0" stop-color="#00ffff"/><stop offset="1" stop-color="#001367"/></linearGradient><linearGradient x1="230.92835" y1="213.99857" x2="230.92835" y2="309.87917" gradientUnits="userSpaceOnUse" id="color-8"><stop offset="0" stop-color="#00ffff"/><stop offset="1" stop-color="#001367"/></linearGradient><linearGradient x1="251.81144" y1="237.24234" x2="251.81144" y2="282.27717" gradientUnits="userSpaceOnUse" id="color-9"><stop offset="0" stop-color="#00ffff"/><stop offset="1" stop-color="#001367"/></linearGradient><linearGradient x1="139.76915" y1="216.17767" x2="139.76915" y2="238.69509" gradientUnits="userSpaceOnUse" id="color-10"><stop offset="0" stop-color="#00ffff"/><stop offset="1" stop-color="#001367"/></linearGradient><linearGradient x1="92.55522" y1="232.56324" x2="92.55522" y2="237.56324" gradientUnits="userSpaceOnUse" id="color-11"><stop offset="0" stop-color="#00ffff"/><stop offset="1" stop-color="#001367"/></linearGradient><linearGradient x1="118.70447" y1="168.96374" x2="118.70447" y2="190.02841" gradientUnits="userSpaceOnUse" id="color-12"><stop offset="0" stop-color="#00ffff"/><stop offset="1" stop-color="#001367"/></linearGradient><linearGradient x1="214.58507" y1="134.09807" x2="214.58507" y2="165.3319" gradientUnits="userSpaceOnUse" id="color-13"><stop offset="0" stop-color="#00ffff"/><stop offset="1" stop-color="#001367"/></linearGradient><linearGradient x1="380.92338" y1="83.2523" x2="380.92338" y2="160.24731" gradientUnits="userSpaceOnUse" id="color-14"><stop offset="0" stop-color="#00ffff"/><stop offset="1" stop-color="#001367"/></linearGradient><linearGradient x1="415.06269" y1="120.29707" x2="415.06269" y2="303.34184" gradientUnits="userSpaceOnUse" id="color-15"><stop offset="0" stop-color="#00ffff"/><stop offset="1" stop-color="#001367"/></linearGradient><linearGradient x1="465.18208" y1="301.16274" x2="465.18208" y2="334.57568" gradientUnits="userSpaceOnUse" id="color-16"><stop offset="0" stop-color="#00ffff"/><stop offset="1" stop-color="#001367"/></linearGradient><linearGradient x1="445.20696" y1="333.52842" x2="445.20696" y2="338.52842" gradientUnits="userSpaceOnUse" id="color-17"><stop offset="0" stop-color="#00ffff"/><stop offset="1" stop-color="#002dff"/></linearGradient><linearGradient x1="96.44443" y1="41.09259" x2="96.44443" y2="165.09259" gradientUnits="userSpaceOnUse" id="color-18"><stop offset="0" stop-color="#00ffff"/><stop offset="1" stop-color="#001367"/></linearGradient><linearGradient x1="136.44443" y1="77.59259" x2="136.44443" y2="82.59259" gradientUnits="userSpaceOnUse" id="color-19"><stop offset="0" stop-color="#00ffff"/><stop offset="1" stop-color="#001367"/></linearGradient><linearGradient x1="550.44443" y1="66.09259" x2="550.44443" y2="279.09259" gradientUnits="userSpaceOnUse" id="color-20"><stop offset="0" stop-color="#00ffff"/><stop offset="1" stop-color="#001367"/></linearGradient><linearGradient x1="620.44443" y1="244.59259" x2="620.44443" y2="249.59259" gradientUnits="userSpaceOnUse" id="color-21"><stop offset="0" stop-color="#00ffff"/><stop offset="1" stop-color="#001367"/></linearGradient><linearGradient x1="538.44443" y1="321.59259" x2="538.44443" y2="326.59259" gradientUnits="userSpaceOnUse" id="color-22"><stop offset="0" stop-color="#00ffff"/><stop offset="1" stop-color="#001367"/></linearGradient><linearGradient x1="234.44443" y1="55.09259" x2="234.44443" y2="80.09259" gradientUnits="userSpaceOnUse" id="color-23"><stop offset="0" stop-color="#00ffff"/><stop offset="1" stop-color="#001367"/></linearGradient><linearGradient x1="415.94443" y1="16.09259" x2="415.94443" y2="79.09259" gradientUnits="userSpaceOnUse" id="color-24"><stop offset="0" stop-color="#00ffff"/><stop offset="1" stop-color="#001367"/></linearGradient><linearGradient x1="192.44443" y1="86.09259" x2="192.44443" y2="131.09259" gradientUnits="userSpaceOnUse" id="color-25"><stop offset="0" stop-color="#00ffff"/><stop offset="1" stop-color="#001367"/></linearGradient><linearGradient x1="540.94443" y1="37.59259" x2="540.94443" y2="42.59259" gradientUnits="userSpaceOnUse" id="color-26"><stop offset="0" stop-color="#00ffff"/><stop offset="1" stop-color="#001367"/></linearGradient><linearGradient x1="270.44443" y1="-8.90741" x2="270.44443" y2="53.09259" gradientUnits="userSpaceOnUse" id="color-27"><stop offset="0" stop-color="#00ffff"/><stop offset="1" stop-color="#001367"/></linearGradient><linearGradient x1="200.44443" y1="-19.90741" x2="200.44443" y2="49.09259" gradientUnits="userSpaceOnUse" id="color-28"><stop offset="0" stop-color="#00ffff"/><stop offset="1" stop-color="#001367"/></linearGradient><linearGradient x1="56.44443" y1="50.59259" x2="56.44443" y2="55.59259" gradientUnits="userSpaceOnUse" id="color-29"><stop offset="0" stop-color="#00ffff"/><stop offset="1" stop-color="#001367"/></linearGradient><linearGradient x1="91.44443" y1="270.09259" x2="91.44443" y2="366.09259" gradientUnits="userSpaceOnUse" id="color-30"><stop offset="0" stop-color="#00ffff"/><stop offset="1" stop-color="#001367"/></linearGradient></defs><g transform="translate(-14.94443,22.40741)"><g data-paper-data="{&quot;isPaintingLayer&quot;:true}" fill="none" fill-rule="nonzero" stroke-width="5" stroke-linecap="round" stroke-linejoin="miter" stroke-miterlimit="10" stroke-dasharray="" stroke-dashoffset="0" style="mix-blend-mode: normal"><path d="M400.80141,164.68656v34.50078h27.41784v123.22692v11.38028l-68.61658,-0.68544v-51.66823v-82.25352h-63.518v-34.50078h63.06104" stroke="url(#color-1)"/><path d="M360.36009,235.43617h33.35837" stroke="url(#color-2)"/><path d="M391.66212,265.52224h34.50079" stroke="url(#color-3)"/><path d="M359.67465,297.50972h34.04382" stroke="url(#color-4)"/><path d="M125.24179,213.99857h125.66169h5.08458v34.86567h64.64676v61.01493" stroke="url(#color-5)"/><path d="M359.13233,336.02842h-123.48259h-75.54229v-69.73134h-81.35323v-98.78607h113.31344v46.48756" stroke="url(#color-6)"/><path d="M284.31641,330.94383v-52.29851" stroke="url(#color-7)"/><path d="M264.70447,309.87917h-67.55224v-95.8806" stroke="url(#color-8)"/><path d="M280.68457,282.27717h-57.74626v-45.03483h9.11303" stroke="url(#color-9)"/><path d="M139.76915,238.69509v-22.51742" stroke="url(#color-10)"/><path d="M80.20696,235.06324h24.69652" stroke="url(#color-11)"/><path d="M118.70447,168.96374v21.06467" stroke="url(#color-12)"/><path d="M174.63482,165.3319v-31.23383h79.9005" stroke="url(#color-13)"/><path d="M254.53532,160.24731v-76.99502h252.77612v69.73134" stroke="url(#color-14)"/><path d="M319.18209,120.29707h146v183.04478h45.76119" stroke="url(#color-15)"/><path d="M465.18208,301.16274v33.41294" stroke="url(#color-16)"/><path d="M465.18208,336.02842h-39.95025" stroke="url(#color-17)"/><path d="M96.44443,165.09259v-124" stroke="url(#color-18)"/><path d="M95.44443,80.09259h82" stroke="url(#color-19)"/><path d="M550.44443,66.09259v213" stroke="url(#color-20)"/><path d="M550.44443,247.09259h140" stroke="url(#color-21)"/><path d="M467.44443,324.09259h142" stroke="url(#color-22)"/><path d="M161.44443,80.09259v-25h146v19" stroke="url(#color-23)"/><path d="M353.44443,79.09259v-63l125,41v15" stroke="url(#color-24)"/><path d="M223.44443,131.09259l-62,-45" stroke="url(#color-25)"/><path d="M433.44443,40.09259h215" stroke="url(#color-26)"/><path d="M270.44443,53.09259v-62" stroke="url(#color-27)"/><path d="M200.44443,49.09259v-69" stroke="url(#color-28)"/><path d="M95.44443,53.09259l-78,0" stroke="url(#color-29)"/><path d="M91.44443,270.09259v96" stroke="url(#color-30)"/></g></g></svg>