<svg version="1.1" xmlns="http://www.w3.org/2000/svg" xmlns:xlink="http://www.w3.org/1999/xlink" width="489.07284" height="341.00053" viewBox="0,0,489.07284,341.00053"><g transform="translate(-75.96358,-12.41993)"><g data-paper-data="{&quot;isPaintingLayer&quot;:true}" fill-rule="nonzero" stroke="none" stroke-linecap="butt" stroke-linejoin="miter" stroke-miterlimit="10" stroke-dasharray="" stroke-dashoffset="0" style="mix-blend-mode: normal"><path d="M75.96358,329.55906v-299.11811h489.07284v299.11811z" fill="#000000" stroke-width="0"/><text transform="translate(85.77865,77.63344) scale(0.74007,0.74007)" font-size="40" xml:space="preserve" fill="#ffffff" fill-rule="nonzero" stroke="none" stroke-width="1" stroke-linecap="butt" stroke-linejoin="miter" stroke-miterlimit="10" stroke-dasharray="" stroke-dashoffset="0" font-family="&quot;OpenSans-Light&quot;, Sans Serif" font-weight="normal" text-anchor="start" style="mix-blend-mode: normal"><tspan x="0" dy="0">More</tspan></text><path d="M465.57271,48.46197c0,0 -6,-6.98178 -6,-13.76761c0,-7.20325 6,-15.27443 6,-15.27443c0,0 4.99742,-7 13.56081,-7c10.48439,0 34.36768,0 52,0c9.91354,0 13.06081,6.5 13.06081,6.5c0,0 6.5,6.48734 6.5,13.27444c0,7.20226 -4,14.76761 -4,14.76761c0,0 -4.11598,7.5 -15.06081,7.5c-17.73919,0 -42.90958,0 -53,0c-8.39144,0 -13.06081,-6 -13.06081,-6z" fill="#1b1b1b" stroke-width="0"/><path d="M455.43623,353.42046v-57.05706h108.32655v57.05706z" fill="#000000" stroke-width="0"/><text transform="translate(87.10962,109.4382) scale(0.35093,0.35093)" font-size="40" xml:space="preserve" fill="#ffffff" fill-rule="nonzero" stroke="none" stroke-width="1" stroke-linecap="butt" stroke-linejoin="miter" stroke-miterlimit="10" stroke-dasharray="" stroke-dashoffset="0" font-family="&quot;OpenSans-Light&quot;, Sans Serif" font-weight="normal" text-anchor="start" style="mix-blend-mode: normal"><tspan x="0" dy="0">Change lobby's color (Legacy option)</tspan></text><text transform="translate(327.58493,109.49652) scale(0.35579,0.35579)" font-size="40" xml:space="preserve" fill="#ffffff" fill-rule="nonzero" stroke="none" stroke-width="1" stroke-linecap="butt" stroke-linejoin="miter" stroke-miterlimit="10" stroke-dasharray="" stroke-dashoffset="0" font-family="&quot;OpenSans-Light&quot;, Sans Serif" font-weight="normal" text-anchor="start" style="mix-blend-mode: normal"><tspan x="0" dy="0">*can be clicked more than one time</tspan></text><text transform="translate(88.10964,215.65123) scale(0.36817,0.36817)" font-size="40" xml:space="preserve" fill="#ffffff" fill-rule="nonzero" stroke="none" stroke-width="1" stroke-linecap="butt" stroke-linejoin="miter" stroke-miterlimit="10" stroke-dasharray="" stroke-dashoffset="0" font-family="&quot;OpenSans-Light&quot;, Sans Serif" font-weight="normal" text-anchor="start" style="mix-blend-mode: normal"><tspan x="0" dy="0">Coin Mod APK free no virus</tspan></text></g></g></svg>