<svg version="1.1" xmlns="http://www.w3.org/2000/svg" xmlns:xlink="http://www.w3.org/1999/xlink" width="64.56391" height="97.1041" viewBox="0,0,64.56391,97.1041"><defs><linearGradient x1="227.081" y1="118.62273" x2="227.081" y2="189.2705" gradientUnits="userSpaceOnUse" id="color-1"><stop offset="0" stop-color="#000000"/><stop offset="1" stop-color="#ffffff"/></linearGradient><radialGradient cx="229.53358" cy="148.23014" r="27.39363" gradientUnits="userSpaceOnUse" id="color-2"><stop offset="0" stop-color="#ffffff"/><stop offset="1" stop-color="#e3e3e3"/></radialGradient><linearGradient x1="226.13395" y1="133.52344" x2="226.13395" y2="136.95525" gradientUnits="userSpaceOnUse" id="color-3"><stop offset="0" stop-color="#000000"/><stop offset="1" stop-color="#ffffff"/></linearGradient><linearGradient x1="227.55672" y1="141.43088" x2="227.55672" y2="145.54932" gradientUnits="userSpaceOnUse" id="color-4"><stop offset="0" stop-color="#000000"/><stop offset="1" stop-color="#ffffff"/></linearGradient><linearGradient x1="225.86227" y1="151.03277" x2="225.86227" y2="154.46458" gradientUnits="userSpaceOnUse" id="color-5"><stop offset="0" stop-color="#000000"/><stop offset="1" stop-color="#ffffff"/></linearGradient><linearGradient x1="226.9919" y1="157.81058" x2="226.9919" y2="162.08811" gradientUnits="userSpaceOnUse" id="color-6"><stop offset="0" stop-color="#000000"/><stop offset="1" stop-color="#ffffff"/></linearGradient><linearGradient x1="227.55672" y1="167.97729" x2="227.55672" y2="171.40909" gradientUnits="userSpaceOnUse" id="color-7"><stop offset="0" stop-color="#000000"/><stop offset="1" stop-color="#ffffff"/></linearGradient><linearGradient x1="226.70949" y1="175.88472" x2="226.70949" y2="179.31653" gradientUnits="userSpaceOnUse" id="color-8"><stop offset="0" stop-color="#000000"/><stop offset="1" stop-color="#ffffff"/></linearGradient></defs><g transform="translate(-195.13356,-112.52091)"><g data-paper-data="{&quot;isPaintingLayer&quot;:true}" fill-rule="nonzero" stroke="none" stroke-linecap="butt" stroke-linejoin="miter" stroke-miterlimit="10" stroke-dasharray="" stroke-dashoffset="0" style="mix-blend-mode: normal"><path d="M196.16659,208.07549c0,0 -1.03303,-0.3546 -1.03303,-3.61558c0,-17.54096 0,-74.34125 0,-85.22435c0,-3.51768 1.03303,-4.6486 1.03303,-4.6486c0,0 1.83069,-2.06604 4.77773,-2.06604c7.24423,0 38.39942,0 52.16763,0c4.04203,0 5.03599,1.54953 5.03599,1.54953c0,0 1.54953,1.64744 1.54953,5.16512c0,10.67799 0,65.55872 0,84.19132c0,3.88837 -1.54953,4.6486 -1.54953,4.6486c0,0 -1.17022,1.54953 -4.00296,1.54953c-7.47897,0 -41.54837,0 -54.23368,0c-2.97821,0 -3.74471,-1.54953 -3.74471,-1.54953z" fill="#000000" stroke-width="NaN"/><path d="M200.08312,188.14314c0,0 -0.89249,-0.25798 -0.89249,-2.6305c0,-12.76187 0,-54.08673 0,-62.00469c0,-2.55928 0.89249,-3.38208 0.89249,-3.38208c0,0 1.58165,-1.50314 4.12778,-1.50314c6.25874,0 33.17563,0 45.07083,0c3.49216,0 4.3509,1.12736 4.3509,1.12736c0,0 1.33874,1.19859 1.33874,3.75786c0,7.76873 0,47.69703 0,61.25312c0,2.82897 -1.33874,3.38207 -1.33874,3.38207c0,0 -1.01103,1.12736 -3.4584,1.12736c-6.46154,0 -35.8962,0 -46.85582,0c-2.57306,0 -3.23528,-1.12736 -3.23528,-1.12736z" fill="url(#color-1)" stroke-width="NaN"/><text transform="translate(211.00784,203.86368) scale(0.34481,0.34481)" font-size="40" xml:space="preserve" fill="#ffffff" fill-rule="nonzero" stroke="none" stroke-width="1" stroke-linecap="butt" stroke-linejoin="miter" stroke-miterlimit="10" stroke-dasharray="" stroke-dashoffset="0" font-family="Serif" font-weight="normal" text-anchor="start" style="mix-blend-mode: normal"><tspan x="0" dy="0">Paper</tspan></text><path d="M209.90618,184.2222v-54.78726h35.01867v54.78726z" fill="url(#color-2)" stroke-width="0"/><path d="M239.41788,135.23935l0.28241,1.7159c-8.47226,0 -16.94451,0 -25.41677,0c0,0 -1.7159,0 -1.7159,-1.7159c0,-1.7159 1.7159,-1.7159 1.7159,-1.7159c8.47226,0 16.94451,0 25.41677,0z" fill="url(#color-3)" stroke-width="0.5"/><path d="M242.54583,143.14678c0,1.7159 -1.7159,1.7159 -1.7159,1.7159h-2.25927c-1.23948,-0.01384 -2.45108,0.37223 -3.67886,0.54266c-2.23668,0.31048 -4.79115,0.02216 -7.05266,0.02216c-4.51854,0 -9.03707,0 -13.5556,0c0,0 -1.7159,0 -1.7159,-1.7159c0,-1.7159 1.7159,-1.7159 1.7159,-1.7159c4.51854,0 9.03707,0 13.5556,0c2.06234,0 4.4651,0.32276 6.50295,0.02216c1.40781,-0.20767 2.80559,-0.57453 4.22858,-0.58698h2.25927c0,0 1.7159,0 1.7159,1.7159z" fill="url(#color-4)" stroke-width="0.5"/><path d="M238.5921,152.74867c0,1.02166 -0.6083,1.43501 -1.10053,1.60225c-0.19102,0.07341 -0.39849,0.11365 -0.61537,0.11365c-7.15435,0 -14.87351,0 -22.02787,0c0,0 -1.7159,0 -1.7159,-1.7159c0,-1.7159 1.7159,-1.7159 1.7159,-1.7159c7.15435,0 14.3087,0 21.46305,0h0.56481c0.21688,0 0.42435,0.04023 0.61537,0.11364c0.49223,0.16724 1.10053,0.5806 1.10053,1.60226z" fill="url(#color-5)" stroke-width="0.5"/><path d="M242.54583,159.52648c0,1.7159 -1.7159,1.7159 -1.7159,1.7159h-2.25927c-3.07131,0 -5.82734,0.18543 -8.82742,0.55196c-5.34804,0.65341 -11.19831,0.01286 -16.58935,0.01286c0,0 -1.7159,0 -1.7159,-1.7159c0,-1.7159 1.7159,-1.7159 1.7159,-1.7159c5.23268,0 10.98582,0.67695 16.17004,0.01286c3.13288,-0.40131 6.0469,-0.57768 9.24672,-0.57768h2.25927c0,0 1.7159,0 1.7159,1.7159z" fill="url(#color-6)" stroke-width="0.5"/><path d="M243.67546,169.69319c0,1.7159 -1.7159,1.7159 -1.7159,1.7159c-9.41362,0 -19.39206,0 -28.80568,0c0,0 -1.7159,0 -1.7159,-1.7159c0,-1.7159 1.7159,-1.7159 1.7159,-1.7159c9.41362,0 18.82724,0 28.24086,0h0.56482c0,0 1.7159,0 1.7159,1.7159z" fill="url(#color-7)" stroke-width="0.5"/><path d="M240.28655,177.60063c0,1.7159 -1.7159,1.7159 -1.7159,1.7159c-7.71917,0 -16.00315,0 -23.72232,0c0,0 -1.7159,0 -1.7159,-1.7159c0,-1.7159 1.7159,-1.7159 1.7159,-1.7159c7.71917,0 15.43833,0 23.15751,0h0.56481c0,0 1.7159,0 1.7159,1.7159z" fill="url(#color-8)" stroke-width="0.5"/></g></g></svg>