<svg version="1.1" xmlns="http://www.w3.org/2000/svg" xmlns:xlink="http://www.w3.org/1999/xlink" width="89.73289" height="134.95826" viewBox="0,0,89.73289,134.95826"><defs><linearGradient x1="240" y1="118.62273" x2="240" y2="221.99501" gradientUnits="userSpaceOnUse" id="color-1"><stop offset="0" stop-color="#000000"/><stop offset="1" stop-color="#ffffff"/></linearGradient><radialGradient cx="243.08594" cy="157.78129" r="39.91143" gradientUnits="userSpaceOnUse" id="color-2"><stop offset="0" stop-color="#ffffff"/><stop offset="1" stop-color="#e3e3e3"/></radialGradient><linearGradient x1="238.13282" y1="136.35422" x2="238.13282" y2="141.35422" gradientUnits="userSpaceOnUse" id="color-3"><stop offset="0" stop-color="#000000"/><stop offset="1" stop-color="#ffffff"/></linearGradient><linearGradient x1="240.20574" y1="147.87504" x2="240.20574" y2="153.87545" gradientUnits="userSpaceOnUse" id="color-4"><stop offset="0" stop-color="#000000"/><stop offset="1" stop-color="#ffffff"/></linearGradient><linearGradient x1="237.73699" y1="161.86461" x2="237.73699" y2="166.86461" gradientUnits="userSpaceOnUse" id="color-5"><stop offset="0" stop-color="#000000"/><stop offset="1" stop-color="#ffffff"/></linearGradient><linearGradient x1="239.38282" y1="171.73961" x2="239.38282" y2="177.97181" gradientUnits="userSpaceOnUse" id="color-6"><stop offset="0" stop-color="#000000"/><stop offset="1" stop-color="#ffffff"/></linearGradient><linearGradient x1="240.20574" y1="186.55211" x2="240.20574" y2="191.55211" gradientUnits="userSpaceOnUse" id="color-7"><stop offset="0" stop-color="#000000"/><stop offset="1" stop-color="#ffffff"/></linearGradient><linearGradient x1="238.97136" y1="198.07293" x2="238.97136" y2="203.07293" gradientUnits="userSpaceOnUse" id="color-8"><stop offset="0" stop-color="#000000"/><stop offset="1" stop-color="#ffffff"/></linearGradient></defs><g transform="translate(-195.13356,-112.52089)"><g data-paper-data="{&quot;isPaintingLayer&quot;:true}" fill-rule="nonzero" stroke="none" stroke-linecap="butt" stroke-linejoin="miter" stroke-miterlimit="10" stroke-dasharray="" stroke-dashoffset="0" style="mix-blend-mode: normal"><path d="M196.56929,245.32556c0,0 -1.43573,-0.49283 -1.43573,-5.02504c0,-24.37896 0,-103.32174 0,-118.4474c0,-4.88898 1.43573,-6.46077 1.43573,-6.46077c0,0 2.54435,-2.87145 6.64023,-2.87145c10.06825,0 53.36869,0 72.50417,0c5.61773,0 6.99917,2.15359 6.99917,2.15359c0,0 2.15359,2.28966 2.15359,7.17864c0,14.84059 0,91.11551 0,117.01167c0,5.40418 -2.15359,6.46077 -2.15359,6.46077c0,0 -1.62641,2.15359 -5.56344,2.15359c-10.3945,0 -57.74519,0 -75.37562,0c-4.13921,0 -5.20451,-2.15359 -5.20451,-2.15359z" fill="#000000" stroke-width="NaN"/><path d="M200.49653,220.34545c0,0 -1.3059,-0.37748 -1.3059,-3.84896c0,-18.67325 0,-79.14006 0,-90.72567c0,-3.74475 1.3059,-4.94868 1.3059,-4.94868c0,0 2.31428,-2.19941 6.03979,-2.19941c9.15783,0 48.5428,0 65.94794,0c5.10975,0 6.36626,1.64956 6.36626,1.64956c0,0 1.95885,1.75379 1.95885,5.49853c0,11.36726 0,69.7906 0,89.62596c0,4.13937 -1.95885,4.94867 -1.95885,4.94867c0,0 -1.47935,1.64956 -5.06036,1.64956c-9.45457,0 -52.52356,0 -68.55974,0c-3.76492,0 -4.73389,-1.64956 -4.73389,-1.64956z" fill="url(#color-1)" stroke-width="NaN"/><text transform="translate(217.23145,238.85502) scale(0.5,0.5)" font-size="40" xml:space="preserve" fill="#ffffff" fill-rule="nonzero" stroke="none" stroke-width="1" stroke-linecap="butt" stroke-linejoin="miter" stroke-miterlimit="10" stroke-dasharray="" stroke-dashoffset="0" font-family="Serif" font-weight="normal" text-anchor="start" style="mix-blend-mode: normal"><tspan x="0" dy="0">Paper</tspan></text><path d="M214.4896,210.2203v-79.82287h51.02081v79.82287z" fill="url(#color-2)" stroke-width="0"/><path d="M257.48697,138.85422l0.41146,2.5c-12.34375,0 -24.68748,0 -37.03123,0c0,0 -2.5,0 -2.5,-2.5c0,-2.5 2.5,-2.5 2.5,-2.5c12.34375,0 24.68748,0 37.03123,0z" fill="url(#color-3)" stroke-width="0.5"/><path d="M262.04427,150.37504c0,2.5 -2.5,2.5 -2.5,2.5h-3.29167c-1.80587,-0.02016 -3.57112,0.54232 -5.35996,0.79063c-3.25876,0.45235 -6.98052,0.03228 -10.27545,0.03228c-6.58333,0 -13.16665,0 -19.74998,0c0,0 -2.5,0 -2.5,-2.5c0,-2.5 2.5,-2.5 2.5,-2.5c6.58333,0 13.16665,0 19.74998,0c3.00475,0 6.50547,0.47025 9.47454,0.03229c2.05112,-0.30256 4.08763,-0.83707 6.16087,-0.8552h3.29167c0,0 2.5,0 2.5,2.5z" fill="url(#color-4)" stroke-width="0.5"/><path d="M256.28385,164.36461c0,1.48852 -0.88627,2.09076 -1.60343,2.33442c-0.27831,0.10695 -0.58059,0.16558 -0.89657,0.16558c-10.42361,0 -21.67012,0 -32.09373,0c0,0 -2.5,0 -2.5,-2.5c0,-2.5 2.5,-2.5 2.5,-2.5c10.42361,0 20.84721,0 31.27082,0h0.82291c0.31598,0 0.61826,0.05862 0.89657,0.16557c0.71716,0.24366 1.60343,0.84591 1.60343,2.33443z" fill="url(#color-5)" stroke-width="0.5"/><path d="M262.04427,174.23961c0,2.5 -2.5,2.5 -2.5,2.5h-3.29167c-4.47478,0 -8.49021,0.27016 -12.8612,0.80419c-7.79188,0.95199 -16.31549,0.01873 -24.17003,0.01873c0,0 -2.5,0 -2.5,-2.5c0,-2.5 2.5,-2.5 2.5,-2.5c7.62381,0 16.00591,0.98629 23.55911,0.01873c4.56448,-0.5847 8.8101,-0.84165 13.47211,-0.84165h3.29167c0,0 2.5,0 2.5,2.5z" fill="url(#color-6)" stroke-width="0.5"/><path d="M263.6901,189.05211c0,2.5 -2.5,2.5 -2.5,2.5c-13.71527,0 -28.25346,0 -41.96873,0c0,0 -2.5,0 -2.5,-2.5c0,-2.5 2.5,-2.5 2.5,-2.5c13.71527,0 27.43054,0 41.14581,0h0.82292c0,0 2.5,0 2.5,2.5z" fill="url(#color-7)" stroke-width="0.5"/><path d="M258.7526,200.57293c0,2.5 -2.5,2.5 -2.5,2.5c-11.24652,0 -23.31596,0 -34.56248,0c0,0 -2.5,0 -2.5,-2.5c0,-2.5 2.5,-2.5 2.5,-2.5c11.24652,0 22.49304,0 33.73957,0h0.82291c0,0 2.5,0 2.5,2.5z" fill="url(#color-8)" stroke-width="0.5"/></g></g></svg>