<svg version="1.1" xmlns="http://www.w3.org/2000/svg" xmlns:xlink="http://www.w3.org/1999/xlink" width="559.37605" height="465.6437" viewBox="0,0,559.37605,465.6437"><defs><radialGradient cx="246.86317" cy="186.14802" r="243" gradientUnits="userSpaceOnUse" id="color-1"><stop offset="0" stop-color="#909090"/><stop offset="1" stop-color="#1a1a1a"/></radialGradient><linearGradient x1="239.5" y1="-3" x2="239.5" y2="31" gradientUnits="userSpaceOnUse" id="color-2"><stop offset="0" stop-color="#ffffff"/><stop offset="1" stop-color="#c1c1c1"/></linearGradient></defs><g transform="translate(23.61597,40.83431)"><g data-paper-data="{&quot;isPaintingLayer&quot;:true}" fill-rule="nonzero" stroke-linecap="butt" stroke-linejoin="miter" stroke-miterlimit="10" stroke-dasharray="" stroke-dashoffset="0" style="mix-blend-mode: normal"><path d="M-3.5,366v-362h486v362z" fill="url(#color-1)" stroke="none" stroke-width="0"/><path d="M234.95132,285.71188c3.78395,6.12414 9.00081,11.37529 12.59242,17.64024c3.34193,5.82942 7.16915,11.77228 10.14731,17.7707c1.18784,2.39248 1.35995,5.20428 2.54262,7.59932c0.91589,1.85478 2.27702,3.46594 3.1988,5.3178c1.33042,2.67282 1.70502,5.75548 3.04575,8.42314c1.9185,3.81727 3.86021,7.10876 5.50135,10.8341c-0.05285,-0.55011 -0.10279,-1.1008 -0.14925,-1.6522c-1.61173,-19.12958 -2.67479,-38.24964 -4.56944,-57.3032c-10.52933,-2.98468 -19.80086,-8.54816 -29.10259,-14.36173c-1.77417,-1.10886 -3.24769,-2.65608 -5.02124,-3.76593c-0.90634,-0.56717 -1.96183,-0.90368 -2.96371,-1.31336c1.21629,3.04501 3.01499,7.95779 4.77798,10.8111zM449.45833,226.48852c5.80467,7.97736 11.64144,15.79869 17.81085,23.51516c3.63131,4.5419 5.87953,7.96114 10.7563,11.27931c4.56032,6.6717 9.30584,12.9836 13.52783,19.90731c4.86487,7.978 8.68373,16.11728 15.34429,22.77321l0.98125,0.38639c4.16122,-6.22774 7.72434,-12.89006 10.17576,-19.34217c0.81061,-2.13352 1.71137,-8.45547 2.61988,-10.30129c0.92393,-1.87712 2.81723,-3.15652 3.76593,-5.02123c1.48898,-2.92665 1.42866,-6.41397 2.33116,-9.57116c0.69235,-2.42203 2.01025,-4.67263 2.42599,-7.15713c0.74662,-4.46193 -0.04053,-10.08043 -0.04053,-14.56102c0,-2.51062 -0.25966,-5.03471 0,-7.53186c0.06963,-0.66965 0.93348,-1.35049 0.59237,-1.93095c-0.29094,-0.49509 -1.1485,0.00193 -1.72272,0.00746c-2.34298,0.02255 -4.68607,0.04053 -7.02916,0.04053c-4.00594,0 -9.4257,0.9662 -13.27412,-0.08395c-2.70871,-0.73915 -5.25946,-2.50405 -8.06615,-2.42667l-3.9141,-1.58662c0,0 -2.80696,-1.40348 -1.40348,-4.21044c1.40348,-2.80696 4.21044,-1.40348 4.21044,-1.40348l1.10714,0.924c1.49565,0.02799 3.04381,-0.30985 4.48696,0.08395c1.8053,0.49263 3.22927,1.97152 5.02124,2.51062c6.02929,1.81389 13.69794,-1.60958 19.86662,-0.04344c2.04557,0.51934 4.50243,0.8608 5.80913,2.51809c1.62512,2.06113 0.59237,10.38897 0.59237,13.13277c0,4.85142 0.76094,10.74289 -0.04052,15.56641c-0.10912,0.65672 -2.33341,6.98965 -2.59525,7.90658c-0.26051,0.91226 -2.4389,10.00349 -2.69007,10.5138c-0.92393,1.87712 -2.81723,3.15652 -3.76593,5.02124c-1.52271,2.99293 -1.21078,6.64379 -2.40135,9.78366c-4.69525,12.3827 -13.19329,25.44687 -22.3775,35.26079c0.8851,0.78794 1.81649,1.54689 2.249,2.61822c1.27193,3.15058 0.23889,10.40196 0.23889,13.75406c0,6.10931 0.93831,13.06608 -1.52359,18.84394c-1.96591,4.61381 -3.21644,4.00598 -5.90176,7.76349c-2.18339,3.05516 -3.92811,6.40473 -6.04693,9.50503c-4.52838,3.09593 -9.77283,5.65864 -14.07376,9.02402c-1.43688,1.12432 -2.4183,2.77033 -3.88469,3.85589c-5.86455,4.34145 -13.72949,6.37024 -20.18344,9.59865c-1.89224,0.94654 -3.54414,2.33344 -5.44639,3.2597c-2.35714,1.14776 -5.12411,1.2969 -7.4644,2.47862c-4.87495,2.4616 -9.88582,4.65957 -15.03262,6.49102c-0.27008,0.37869 -0.67343,0.73449 -1.26173,1.02864c-0.99226,0.49613 -1.80915,0.46611 -2.45065,0.21993c-5.64044,1.78618 -11.4401,3.11427 -17.39903,3.8538c-5.10516,0.63358 -10.86254,0.01997 -16.0029,-0.02256c-6.28715,-0.68268 -12.64265,-1.00534 -18.91224,-1.70788c-12.05075,-1.35035 -23.66798,-4.97865 -35.50655,-7.36395c-8.19322,-1.65082 -16.57652,-2.00207 -24.79843,-3.51114c-9.51753,-1.74687 -18.44004,-4.97023 -28.18367,-4.94529c0,0 -3.13828,0 -3.13828,-3.13828c0,-0.81263 0.21042,-1.41482 0.52229,-1.86109c-5.14791,0.60694 -8.77716,0.9486 -13.52576,3.398c-8.04848,4.15153 -15.71932,9.09337 -24.0825,12.66027c-4.07921,1.73978 -8.55984,2.44178 -12.76165,3.84377c-8.15651,2.72152 -15.48685,5.84946 -23.97428,7.58073c-0.24615,0.41219 -0.50198,0.82074 -0.76843,1.22532l0.52707,0.76982c0,0 0,3.13827 -3.13827,3.13827c-3.13827,0 -3.13827,-3.13827 -3.13827,-3.13827l0.52707,-4.25142c4.10046,-6.06154 5.44206,-13.55459 8.11179,-20.34665c9.56338,-24.33013 9.97132,-50.8906 14.22286,-76.42802c1.33977,-7.95146 0.14285,-15.68777 1.01267,-23.633c0.18776,-1.71501 1.06182,-3.30687 1.25531,-5.02124c0.4692,-4.15739 -0.46583,-8.39355 -0.00021,-12.55135c0.29106,-2.59911 3.50762,-13.14981 4.71617,-13.91969c1.69677,-1.08089 3.47795,2.02527 5.25502,2.96834c1.58795,0.84271 3.31115,1.43505 4.83615,2.38694c9.96518,6.22016 19.09438,13.0252 30.11294,16.69415c-0.5396,-4.8657 -1.14422,-9.72662 -1.8369,-14.5818c-2.09031,-13.04084 -6.01648,-26.21043 -6.69639,-39.41361c-0.62457,-12.12867 -0.00632,-24.45597 -0.00632,-36.60305c0,-5.71151 -0.70619,-11.8966 0,-17.57433c0.26308,-2.11517 -0.67658,-5.35621 1.24842,-6.27137c5.74554,-2.73147 15.12877,4.69379 19.74251,7.29928c23.98015,13.32221 47.39873,27.6842 71.24678,41.25546c5.04681,2.872 9.9768,6.36305 15.21249,8.87467c7.54257,3.61827 15.39619,6.50757 22.93106,10.22472c2.03765,1.01639 4.13749,2.00394 6.26711,2.98738c0.70202,-4.10765 1.55773,-8.20733 2.73519,-12.16459c1.05206,-3.53584 2.87385,-6.81928 3.84029,-10.37948c2.17143,-7.99919 2.89641,-16.40789 4.69149,-24.48604c0.68457,-3.08069 2.01181,-5.99027 2.76234,-9.05557c0.4542,-1.85504 -0.64337,-4.73487 1.04155,-5.63406c2.67323,-1.42661 6.10391,-0.30091 9.08738,0.22859c0.14328,0.02543 11.64154,4.69628 11.99454,4.83967c5.40072,2.19384 10.8773,3.53513 16.50772,5.03658c11.41167,3.05071 21.9546,8.41552 33.21398,11.87394c9.56844,2.93904 19.30507,4.68674 28.53082,8.69824l3.14654,-0.06173c0,0 3.13828,0 3.13828,3.13827c0,3.13827 -3.13828,3.13827 -3.13828,3.13827l-4.38532,-0.06173c-9.53623,-3.88407 -19.41172,-5.85679 -29.21342,-8.87609c-11.15429,-3.43595 -21.60138,-8.77689 -32.90983,-11.78456c-7.98987,-2.13064 -15.41184,-4.5225 -23.06586,-7.64381c-0.19279,-0.07862 -0.38569,-0.15698 -0.57867,-0.23516c9.14887,12.0447 18.5032,23.92297 27.40105,36.15128zM277.67118,199.16142c2.02604,3.54937 3.86352,7.214 5.48422,10.96583c1.29357,2.99454 1.67091,6.39717 3.34618,9.1961c1.06688,1.78247 2.7296,3.16919 3.7442,4.98192c2.64587,4.72723 4.07235,10.35568 6.38846,15.28248c4.37023,9.29634 9.42455,17.88799 13.23356,27.47588c5.39111,7.87582 9.87263,16.4982 15.50339,24.19957c2.45209,3.35379 5.93642,5.8492 8.48099,9.13338c2.42822,3.13402 3.81148,7.00318 6.30641,10.08435c8.16219,10.08006 18.13128,18.78841 26.35578,28.8651c6.34527,7.77425 11.44033,16.44918 16.38149,25.18522c4.68074,4.64504 8.20314,10.2943 13.30503,14.54298c2.86676,2.38734 6.43256,3.91572 9.07736,6.54683c3.22225,3.20559 1.77176,4.52859 5.64662,7.01896c1.11314,0.71542 2.63422,0.56966 3.76593,1.25531c4.05154,2.45466 6.77359,5.42207 8.51874,9.60059c9.10753,-3.19781 17.84273,-7.41102 26.47587,-11.72568c6.09476,-3.04604 13.7789,-4.90026 19.26476,-9.04903c1.37673,-1.04118 2.28506,-2.61575 3.64717,-3.67597c4.12876,-3.21372 9.12924,-5.70672 13.54305,-8.55031c1.86571,-2.89578 3.43125,-5.98744 5.43283,-8.79102c1.71489,-2.40202 4.01687,-3.80792 5.21406,-6.57852c2.04545,-4.73372 0.98703,-11.3123 0.98703,-16.30473c0,-3.93497 1.55675,-10.27751 -1.59144,-12.84462l-1.25531,-1.25531c-0.77069,-0.77069 -1.00606,-1.54136 -0.98499,-2.21909c-0.02107,-0.67773 0.2143,-1.44841 0.98499,-2.2191c1.30111,-1.30111 2.594,-2.67783 3.86867,-4.11759c-3.1796,-1.59024 -6.35802,-3.18282 -9.53541,-4.77747c-8.25555,-5.791 -17.05185,-10.63526 -25.37426,-16.25813c-9.6034,-6.48834 -18.55219,-14.21291 -28.56994,-20.12577c-3.0311,-1.78908 -7.33987,-3.25997 -10.20322,-5.12112c-0.48269,-0.31374 -8.54021,-7.34456 -8.85904,-7.58103c-5.06482,-3.75644 -10.97707,-6.74389 -16.95934,-9.52652c-0.48312,0.76343 -1.38071,1.51457 -3.01695,1.28082c-3.10674,-0.44382 -2.66291,-3.55056 -2.66291,-3.55056c0.0148,-0.10327 0.02963,-0.2066 0.04451,-0.30995c-2.74856,-1.25179 -5.45992,-2.49771 -8.05745,-3.79337c-7.52346,-3.7115 -15.36427,-6.58953 -22.89491,-10.20693c-5.35635,-2.57296 -10.39948,-6.12126 -15.56376,-9.06011c-23.83571,-13.56423 -47.24208,-27.91909 -71.2097,-41.23453c-2.94668,-1.66404 -5.87,-3.66146 -8.8214,-5.46368c3.34834,6.34627 7.00948,12.50696 10.55874,18.72482z" fill="#000000" stroke="none" stroke-width="0.5"/><path d="M347.5,68c0,-3 0,-8 0,-11c0,0 0,-2.15443 2,-2.4633c0,-1.58824 0,-3.82412 0,-4.5367c0,-7.55273 0.42234,-15.25519 0.00878,-22.79072c-0.40103,-7.30706 -2.84569,-13.64248 -5.78708,-20.18004c-0.69214,-1.53835 -1.35109,-3.05576 -2.04398,-4.5441c-0.21877,0.35424 -0.42987,0.71264 -0.63003,1.07694c-0.80627,1.46747 -1.04621,3.20408 -1.86827,4.66275c-2.89008,5.12817 -7.27985,9.5572 -9.93362,14.87357c-1.6219,3.24919 -2.4665,6.73445 -4.2958,9.97138c-4.25982,7.53771 -9.64176,13.5857 -16.36502,18.8636c-1.65537,1.2995 -2.31515,3.59188 -3.93047,4.94084c-1.26878,1.05958 -2.93312,1.52539 -4.39969,2.28808c-2.14432,1.42091 -4.56907,2.36514 -6.87149,3.51227c-1.01804,0.50722 -1.97154,1.12934 -2.91154,1.77557c0.58716,1.35676 1.63919,2.53371 1.96134,3.9755c0.38299,1.71412 -0.1492,3.52366 0.04815,5.26892c0.31342,2.77157 1.0066,5.51625 1.01873,8.30546c-0.01311,2.58558 0.69988,5.12427 0.98127,7.69454c0.42001,3.83651 -0.67057,8.10327 -0.01355,11.90501c0.57473,3.32555 1.03228,5.93016 1.03228,9.40045v1c0,0 0,1.35721 -1,2.07163c0,0.04625 0,0.09594 0,0.14876c0.25358,0.08783 0.50717,0.17567 0.76075,0.2635c1.77726,-0.07011 3.59835,0.4157 5.3388,0.04839c6.95312,-1.46742 12.69306,-4.85464 19.1951,-7.72251c9.43725,-6.27782 14.43181,-17.57804 20.04807,-27.07313c1.7318,-2.92785 4.08898,-5.43762 6.10591,-8.17687c0.60072,-0.81586 1.17443,-1.70314 1.72847,-2.62994c-0.17709,-0.50182 -0.17709,-0.92983 -0.17709,-0.92983zM292,121.5c-1.31319,0 -1.93659,-0.68979 -2.23254,-1.3447c-11.22863,1.28001 -22.52657,2.15951 -33.76724,3.35691c-1.73682,0.18501 -7.89536,-0.00483 -9.78539,0.36181c-1.56134,0.30288 -2.99345,1.082 -4.52021,1.52755c-4.72048,1.37758 -9.20356,2.08458 -13.79143,3.92958c-5.16819,1.93831 -10.78807,3.50547 -15.76344,5.89393c-2.51217,1.20598 -2.51388,1.84802 -4.43646,3.60489c-3.6551,3.34007 -7.34896,6.84544 -11.08441,10.07508c-8.75217,7.56707 -18.33897,13.72489 -28.12682,19.6888c0.00447,0.13526 0.00716,0.27064 0.00793,0.40616v2c0,0 0,2.5 -2.5,2.5c-1.68851,0 -2.23659,-1.14043 -2.4145,-1.88079c-1.8589,1.37751 -3.31344,3.32362 -5.29847,4.52405c-0.29438,0.17802 -8.66104,3.54939 -9.19384,3.76496c-10.09793,6.54215 -22.27198,7.69916 -33.76124,10.16257c-1.6881,0.36194 -3.27501,1.16848 -4.9852,1.40505c-3.19629,0.44214 -6.58217,-0.31012 -9.81401,-0.11831c-0.0638,0.44619 -0.28296,0.92821 -0.76498,1.41024c-1.76776,1.76776 -3.53553,0 -3.53553,0l-0.50248,-0.80285c-12.26176,1.5156 -26.45457,1.75626 -37.7539,-2.68431c-5.46153,-2.73873 -10.62514,-3.75832 -16.622,-4.86063c-1.29159,-0.23741 -2.57265,-0.53834 -3.85386,-0.83666v0.41669c0,0 0,2.5 -2.5,2.5c-2.5,0 -2.5,-2.5 -2.5,-2.5c0,-0.47155 0,-0.94449 0,-1.41871c-0.24824,-0.03453 -0.49701,-0.06583 -0.74635,-0.09346c-3.70995,-0.41102 -8.04647,0.01217 -11.75365,0.01217c-2.19987,0 -4.42108,-0.3384 -6.59955,-0.03228c-2.04075,0.28677 -3.86103,1.46985 -5.86043,1.96915c-1.55842,0.38917 -3.20284,0.42589 -4.72868,0.92781c-4.76082,1.56607 -8.23183,5.37696 -13.02077,7.00702c0,0 -1.29537,0.43179 -2.29057,-0.30017c0,1.64282 0,3.28564 0,4.92846l0.26777,-0.76776c0,0 1.76777,1.76776 0,3.53553c-1.76777,1.76776 -3.53553,0 -3.53553,0l-1.73223,-2.76776c0,-10.33334 0,-20.66666 0,-31c0,-8.90509 0.52672,-18.04499 -0.29774,-26.91598c-0.30791,-3.31299 -1.32952,-6.53001 -1.69009,-9.83768c-0.5029,-4.61332 -0.01216,-9.60791 -0.01216,-14.24634c0,-10.66617 0,-21.33233 0,-31.9985c-1.91542,-1.38531 -0.58012,-3.38826 -0.58012,-3.38826c0.26564,-0.39845 4.09388,-6.16012 4.26399,-6.33129c5.45195,-5.48567 13.35652,-10.8111 20.59467,-13.48492c4.3958,-1.62384 9.136,-1.62644 13.43373,-3.16969c1.58416,-0.56885 2.90919,-1.76277 4.51991,-2.2514c4.20105,-1.27443 8.93569,-0.87122 13.26385,-0.87595c2.8015,-0.00306 5.6575,-0.51796 8.40444,0.03227c0.35278,0.07066 8.72632,2.87663 9.48799,3.13092c5.38898,2.30687 9.97577,3.47651 15.65157,4.89993c1.9989,0.5013 3.81457,1.72152 5.86043,1.96916c3.94241,0.4772 7.99474,0.08304 11.97887,-0.51073c0.36638,-0.3053 0.8854,-0.52155 1.62068,-0.52155c0.3397,0 0.63325,0.04616 0.88691,0.12593c1.21275,-0.1991 2.41553,-0.40368 3.60315,-0.59427c10.5923,-1.69979 21.85426,-4.03242 31.33259,-9.23708c4.25186,-2.33475 8.00205,-5.34556 11.89628,-8.21148c5.43857,-5.28333 10.26874,-11.04875 15.60297,-16.42839c0.29075,-0.29322 6.9581,-6.99614 7.21615,-7.18269c2.17079,-1.56933 4.96834,-2.01862 7.36357,-3.21781c3.86167,-1.93338 7.30063,-3.73294 11.79292,-4.23548c6.53569,-0.73114 13.23275,0.08663 19.61092,1c1.04514,0.14967 2.14087,-0.2209 3.16731,0.02638c1.63728,0.39443 3.06379,1.44691 4.69454,1.86758c0.41652,0.10744 5.83112,0.09858 6.07904,0.09948c10.52257,2.10326 23.71791,2.19137 33.86442,-1.84867c4.16551,-1.65859 8.234,-4.13235 12.24334,-6.13563c3.82305,-1.91019 7.65147,-4.04258 11.27505,-6.46036c0.18786,-0.54148 0.61297,-1.07831 1.49304,-1.40833c0.16927,-0.06348 0.33089,-0.11012 0.48509,-0.14204c0.82065,-1.03313 1.61449,-2.09086 2.45936,-3.10211c1.81346,-2.17056 4.19221,-3.8247 6,-6c2.09193,-2.51719 3.85651,-5.87371 6.16559,-8.18279c1.84089,-1.84089 4.16239,-3.15583 6,-5c3.31518,-3.32702 5.48328,-7.7669 10.36731,-8.69995c4.37737,-0.83626 8.16131,0.92028 11.89037,2.74738c1.64785,-0.49185 3.30213,-0.95718 4.96128,-1.40562c0.02404,-1.40674 1.43077,-2.11011 1.43077,-2.11011c5.11613,-2.55806 10.53735,-4.32127 15.61865,-6.84492c1.32869,-0.6599 2.3869,-1.86342 3.7988,-2.31884c2.83759,-0.9153 8.88054,-0.10017 11.70059,-0.10017c3.11564,0 7.62333,-0.65891 10.57438,0.06688c3.13279,0.77048 5.79032,2.89561 8.8509,3.91582c4.15233,1.38414 8.42545,2.81303 12.03649,5.48919c2.81673,2.0875 4.78814,5.00031 6.88637,7.72575c2.49482,1.82979 4.58948,3.65525 6.48074,5.76212c0.57927,-0.0643 1.25908,0.09267 1.93888,0.77247c0.8999,0.89991 0.8836,1.79981 0.65069,2.46651c0.27831,0.38991 0.55382,0.79048 0.82734,1.20288l1.12592,3.30781c0,0 0.79057,2.37171 -1.58114,3.16228c-2.37171,0.79057 -3.16228,-1.58114 -3.16228,-1.58114l-0.63521,-1.95647c-3.13806,4.5112 -4.56928,10.04582 -6.68562,15.12799c-4.31547,10.36314 -9.11008,19.82092 -15.13196,29.26965c-2.10036,4.17063 -4.5143,6.33155 -7.08324,10.13663c-1.63662,2.42415 -2.48813,5.29947 -3.91177,7.85453c-2.02752,3.63886 -4.46023,7.05505 -6.52919,10.67623c-2.10459,3.68355 -4.17085,8.19987 -6.67156,11.61869c-0.98881,1.35184 -2.40006,2.35484 -3.40645,3.69364c-8.39902,11.17312 -12.18541,24.8434 -24.36793,32.97878c-6.97577,3.12072 -13.27706,6.78512 -20.8049,8.27749c-0.5636,0.11173 -1.77727,0.08251 -3.0173,0.04405l-0.03235,0.21037l0.64919,0.77786c-0.25582,0 -0.5138,0.01079 -0.77322,0.02881l-0.10875,0.70725c0,0 -1.67313,0.83657 -2.84847,-0.38486c-0.52061,0.04439 -1.03632,0.06424 -1.54143,0.03113c-0.37016,0.35502 -0.91782,0.61766 -1.72813,0.61766zM221.01067,70.49998c-6.11488,0.04451 -10.51072,1.44322 -16.04659,3.80666c-7.95755,3.39732 -15.08658,6.32497 -22.26524,11.18439c-1.5207,1.0294 -3.05295,2.07917 -4.7351,2.81576c-1.19648,0.52393 -2.67505,0.27461 -3.80774,0.92506c-1.34257,0.77097 -2.13274,2.26534 -3.36961,3.19649c-1.64545,1.23876 -3.46934,2.31952 -5.28635,3.42406c-0.00001,4.71587 -0.00003,9.43174 -0.00003,14.1476c0,8.80589 -0.74268,18.01369 -0.00852,26.7938c0.49988,5.9782 1.32549,11.91433 1.97635,17.85687c0.25564,2.334 -0.32679,4.72069 0.01344,7.04387c0.0832,0.56812 0.18234,1.13521 0.28561,1.70209c2.32388,-1.28258 4.65175,-2.56419 6.90023,-3.96553c4.20336,-2.61972 7.63885,-6.15335 11.52679,-9.17667c2.32808,-1.81035 4.96004,-3.22632 7.18721,-5.15947c5.23065,-4.54012 10.17444,-11.19123 16.47913,-14.32003c5.07452,-2.51832 10.93135,-4.11687 16.23656,-6.10607c4.73165,-1.88323 9.35105,-2.66032 14.20857,-4.07041c1.37976,-0.40054 2.69619,-1.03017 4.0752,-1.42151c-1.38084,-1.23865 -2.74688,-2.55415 -3.50719,-3.86259c-2.60586,-4.48447 -1.37338,-11.32169 -1.37338,-16.31433c0,-4.53996 0.81069,-10.09581 0.03228,-14.59955c-0.17722,-1.02538 -0.83382,-1.93125 -0.99309,-2.95956c-0.21874,-1.41232 0.18109,-2.89042 -0.12904,-4.28552c-0.35342,-1.5898 -1.38221,-2.96424 -1.83064,-4.52989c-0.21635,-0.75536 -0.35983,-1.52529 -0.46429,-2.30319c-4.92102,-0.38323 -10.21784,0.17773 -15.10456,0.17769zM82.90912,141.26964c-11.05849,-1.71686 -20.23712,-8.73629 -30.99442,-11.02094c-4.58623,-1.82623 -9.44604,-3.22339 -14.41469,-4.09901c0,6.28344 0,12.56687 0,18.85031c0,11.23304 0,22.46607 0,33.69911c1.58693,0.24228 3.17313,0.51199 4.75776,0.80325c6.37235,1.17127 11.94966,2.31684 17.76638,5.21705c8.11031,3.31463 17.28692,2.78019 25.97599,2.7806c3.12874,0.00015 5.76199,-0.16056 8.52392,-0.45744c0.12768,-8.58977 0.65936,-17.43336 -1.01189,-25.79622c-0.01494,-6.44142 -0.20459,-12.90674 -0.5335,-19.37651c-3.55594,0.08678 -7.04804,-0.1311 -10.06955,-0.60019zM-13.28624,134.85627c5.3369,-3.18506 9.54714,-7.67196 15.32953,-10.16597c9.41869,-4.06239 20.05474,-5.2851 30.45671,-4.29375c0,-20.62814 0,-41.25629 0,-61.88443c-2.45623,0.00366 -6.26048,-0.00343 -8.2879,0.6398c-1.57288,0.49902 -2.86732,1.6743 -4.42436,2.22073c-2.80848,0.98562 -5.90226,0.85648 -8.78565,1.59475c-8.36997,2.14306 -17.06961,7.67974 -23.18595,13.75064c-0.95184,0.94477 -1.64673,2.09929 -2.3162,3.27506c0.00007,0.00454 0.00007,0.0069 0.00007,0.0069c0,11.66666 0,23.33334 0,35c0,4.46838 -0.50704,9.31071 -0.01216,13.75366c0.23139,2.0774 0.71541,4.12 1.12102,6.17289c0.06527,-0.04649 0.10491,-0.07028 0.10491,-0.07028zM91.5,71l-0.03228,2.59955c0.30133,0.86996 0.60266,1.73992 0.90399,2.60988c0,0 0.79057,2.37171 -1.58114,3.16228c-0.03527,0.01175 -0.07019,0.02282 -0.10477,0.03319c1.39306,7.41347 2.92088,14.82604 3.79659,22.2989c0.97189,8.29366 1.2316,16.6804 2.00476,24.97284c0.30857,3.30946 0.60961,6.61048 0.8806,9.91025c3.09482,-0.32863 6.06844,-0.93819 8.54949,-1.8848c1.44942,-0.55301 2.64239,-1.6283 4.00001,-2.37895c10.36911,-5.73328 19.54033,-12.31373 27.94143,-20.71288c4.44396,-3.63012 10.33837,-6.31027 14.37356,-10.37801c1.17377,-1.18323 1.8186,-2.82438 3,-4c1.57806,-1.57035 3.39073,-2.8687 5.26781,-4.08206c0.00002,-8.09404 0.00003,-16.18809 -0.0001,-24.28213c-0.00016,-9.87555 0.62635,-19.98603 -0.0117,-29.83846c-0.23359,-3.60702 -0.81728,-7.25954 -1.38502,-10.87383c-1.07828,1.1719 -2.11372,2.39344 -3.23129,3.51994c-5.43828,5.48172 -10.36459,11.34879 -15.92167,16.72298c-4.17801,3.08928 -8.20621,6.29283 -12.77291,8.80674c-9.95821,5.48186 -21.75667,7.97284 -32.89443,9.763c-0.93793,0.15076 -1.88341,0.30746 -2.83459,0.46251c-0.05102,0.78062 -0.13781,1.55986 -0.25258,2.33572c0.30425,0.61941 0.30425,1.23336 0.30425,1.23336zM246.30546,67.51873c6.78124,0.95527 13.43981,2.61551 20.44819,1.99343c2.54807,-0.22617 4.86719,-1.62798 7.15943,-2.76353c3.15963,-1.56524 6.83643,-2.42235 9.98853,-3.99443c0.20597,-0.10272 0.40932,-0.21013 0.61046,-0.32147c-1.56808,-5.17208 -2.68072,-10.79631 -3.95014,-15.87972c-0.65382,-2.61827 -0.48179,-5.38608 -1.00727,-8.03309c-0.5561,-2.80124 -1.76466,-5.43543 -2.49519,-8.19633c-2.02815,-7.66501 -3.63886,-15.29122 -6.10768,-22.77023c-0.12,0.00099 -0.24351,-0.00828 -0.36971,-0.03018c-3.29648,2.03699 -6.72825,3.84387 -9.99192,5.47681c-4.15526,2.07904 -8.38027,4.62534 -12.70093,6.3365c-5.24718,2.0781 -11.2414,3.177 -17.30853,3.50177c2.86288,8.63928 5.42453,17.43227 7.2916,26.35089c0.98256,4.69349 1.80608,9.57906 2.57581,14.31219c0.13553,0.83336 0.20791,1.67846 0.26783,2.52546c1.85896,0.51626 3.68218,1.22324 5.58952,1.49192z" fill="#565656" stroke="none" stroke-width="0.5"/><path d="M-3.5,31v-34h486v34z" fill="url(#color-2)" stroke="#000000" stroke-width="0.5"/><path d="M102.67714,291.12639v-1.5c0,-4.05855 -0.20479,-8.13252 0.19859,-12.1275c-0.16326,-1.29791 -0.29878,-2.602 -0.38988,-3.91566c0.23061,0.45687 0.4811,0.89979 0.74574,1.33238c0.01295,-0.07267 0.02616,-0.14531 0.03964,-0.21791c0.27958,-3.76394 0.21751,-6.82933 -0.53087,-10.42965c-0.48861,-2.35061 -0.40039,-4.58543 -2.20466,-6.02915c-2.24002,-1.79238 -5.57383,-1.11252 -8.04917,-1.11252c-6.05068,0 -11.33873,0.95398 -17.1109,3.44314c-0.0333,3.78485 -0.16022,7.63779 0.44417,11.35111c0.31543,1.93791 1.56466,4.23215 0.70233,6.30224c-0.12965,0.31124 -0.82595,0.45942 -1.61966,0.52739c0,1.93989 0,3.87978 0,5.81966c0,2.89622 0,6.41306 0,9.30928v0.05708c0.09881,0.01575 0.19795,0.02843 0.29749,0.03751c1.8197,0.16602 3.89545,-1.08052 5.75611,-1.21137c6.84594,-0.48142 13.73387,-0.44475 20.59017,-0.44475c0.44844,0 0.89688,0 1.34531,0c-0.21441,-0.60483 -0.21441,-1.19129 -0.21441,-1.19129zM72.5796,259.16695c-0.59677,-2.37171 1.19354,-3.16228 1.19354,-3.16228c4.55479,-2.00938 8.84001,-3.0368 13.27506,-3.51517c0.84528,-0.16522 1.68642,-0.29724 2.51885,-0.3793c2.17828,-0.21475 4.47725,-0.0061 6.66245,-0.0061c0.04686,0 0.09889,-0.00111 0.1556,-0.00315c0.00243,0.01051 0.00486,0.021 0.00728,0.03147c2.13512,0.03914 4.28313,0.2954 6.16162,1.88143c4.97464,4.20013 4.95335,14.76746 4.43563,21.54121c-0.56744,2.95544 -0.62634,5.99899 -0.59693,9.05334c0.44603,2.63125 0.87126,5.26755 1.11787,7.95287c0.26797,0.20797 0.51629,0.59343 0.51629,1.30787c0,0.6079 -0.17978,0.97762 -0.39848,1.20248c0.03013,1.66204 0.07641,4.25589 0.07879,4.49206c0.00634,0.62648 0.11497,1.27183 0.00008,1.87959c-0.05371,0.28408 -0.66746,0.75405 -0.47207,0.61706c0.43605,-0.30572 0.75574,-0.87167 1.20795,-1.13298c2.73304,-1.57939 5.83569,-1.16539 8.72986,-1.64542c2.83664,-0.47049 5.61357,-1.18844 8.46539,-1.5044c0.99755,-0.11013 1.9925,-0.22072 2.98558,-0.336c-0.04712,-0.33267 -0.08864,-0.6663 -0.12531,-1.00078c0.4207,-0.11622 0.85147,-0.24725 1.29278,-0.39341c0.32588,-0.10793 0.65049,-0.22715 0.9734,-0.35726c0.05386,0.49282 0.11901,0.98269 0.19817,1.46898c2.71549,-0.34323 5.4216,-0.74638 8.13411,-1.29601c1.65278,-0.33489 1.70705,-0.44288 3.51192,-0.31558c0.42283,0.02982 0.89215,0.51372 1.25818,0.23172c0.35118,-0.27056 0.36503,-0.98467 0.41283,-1.51913c0.20782,-2.32377 -0.06684,-5.1518 -0.34733,-7.43069c-0.17369,-1.41123 -0.5755,-2.92133 -0.97575,-4.45353c1.01494,-3.2179 1.37933,-6.76085 1.26628,-10.35024c0.35935,-0.15245 0.72433,-0.29296 1.06264,-0.48251c1.51236,-0.84737 3.13247,-1.3753 4.75616,-1.69982c2.00733,-0.39213 4.06008,-0.84633 6.08814,-0.98003c1.37763,-0.09082 2.76953,0.23821 4.13798,0.00925c2.17304,-0.36358 4.30748,-1.4336 6.506,-1.73424c2.03251,-0.27794 4.24461,-0.13917 6.28606,-0.13924c2.37666,-0.00008 6.34415,-1.34451 7.64076,2.19903c0.13874,0.37917 0.07416,5.28933 0.08263,5.39524c0.29214,3.65312 1.18747,7.46938 1.85859,11.03633c0.32235,2.99096 0.31577,5.87871 0.48733,8.87607c0.2034,3.55359 0.8576,7.06031 0.93946,10.61641c0.04825,2.09598 -0.2702,4.57943 -0.01463,6.62323c0.1255,1.00358 0.58746,1.8942 0.73381,2.89281c0.15979,1.09032 0.19701,2.21339 0.17724,3.32375c-0.00665,0.37343 -0.49945,0.88115 -0.25543,1.0683c0.44784,0.34343 1.03392,-0.08103 1.55136,-0.07447c0.75492,0.00956 1.50824,0.09784 2.26296,0.12278c4.21184,0.13922 8.43191,0.05247 12.64469,0.05247c0.824,0 1.67797,0.36073 2.47149,0.06657c1.07696,-0.39923 1.20343,-1.78493 1.63424,-2.93261c0.27105,-0.7221 0.7137,-1.35749 0.84464,-2.14508c0.14868,-0.89421 -0.02643,-1.831 -0.03133,-2.74662c-0.01661,-3.10266 0,-6.20653 0,-9.30928c0,-2.50386 -0.42113,-5.02081 1.39725,-6.81859c0.72748,-0.71924 1.70524,-0.82566 2.56274,-1.22019c1.16924,-0.53795 2.30695,-1.25491 3.52497,-1.54649c0.56689,-0.13571 4.08951,-0.50759 4.73374,-0.63488c3.01005,-0.59473 5.99803,-1.63373 8.96967,-2.49331c0.12645,-0.00047 4.60953,-0.02028 4.81227,-0.00922c1.0109,0.05514 2.21916,-0.51372 3.02721,0.29286c0.85411,0.85257 0.96673,2.55679 1.20977,3.93645c0.49709,2.82183 0.12837,6.62984 0.17822,9.53732c0.07567,4.413 0.81028,8.743 0.97005,13.13398c0.1513,4.15813 0.15454,8.34718 0.11866,12.53812c0.33076,0.07427 0.98401,0.36762 0.98401,1.52637c0,1.19689 -0.69695,1.47048 -1.01559,1.53301c-0.03844,3.32282 -0.08482,6.64236 -0.08482,9.94415c0,1.58634 -0.21254,3.19543 -0.01036,4.75901c0.49027,3.79159 1.6826,7.35283 1.88042,11.25119c0.00485,0.09558 0.00386,5.19782 0.00386,5.71145c0,1.50043 0.39054,4.86834 -0.08915,6.17932c-1.09634,2.99619 -2.18791,1.96508 -4.27839,2.19513c-0.77298,0.08507 -1.53047,0.35124 -2.30339,0.43725c-2.62711,0.29236 -5.24551,0.27474 -7.86317,0.30848c0.00001,0.02413 0.00001,0.04827 0.00001,0.0724v3.10309c0,0 0,1.55155 -1.1712,1.55155c-1.1712,0 -1.1712,-1.55155 -1.1712,-1.55155c0,-0.0063 0,-3.11569 0,-3.122c-1.61044,0.05938 -3.22151,0.17898 -4.83506,0.44292c-4.58036,0.00568 -9.03626,0.95309 -13.58592,1.24124c-1.54903,0.09811 -3.10786,-0.18777 -4.6524,-0.00327c-1.5529,0.1855 -3.05004,0.91116 -4.60206,1.10931c-3.10098,0.39591 -6.36418,0.12008 -9.4796,0.12649c-4.68537,0.00964 -9.37073,0.01061 -14.0561,0.01159c-0.57575,0.00001 -1.15151,0.00002 -1.72726,0.00003c0.00014,0.2707 0.00017,0.54212 0.00017,0.81431v1.24124c0,0 0,1.55155 -1.1712,1.55155c-1.1712,0 -1.1712,-1.55155 -1.1712,-1.55155v-1.24124c0,-0.27223 0,-0.54363 -0.00008,-0.81427c-0.85512,0.00001 -1.71023,0.00003 -2.56535,0.00004h-1.87393c0,0 -0.20542,0 -0.4442,-0.11396c-0.36666,0.27929 -0.7869,0.2097 -0.7869,0.2097l-1.29162,-0.21493c-0.53456,-0.14128 -1.06912,-0.28256 -1.60368,-0.42384c0,0 -0.72812,-0.19291 -0.9089,-1.03957c-13.32742,2.04506 -26.64028,4.17319 -39.94571,6.46362c-8.17383,1.40706 -16.59193,3.572 -24.86424,3.18604c-0.38791,-0.0181 -0.78129,-0.03636 -1.17806,-0.05655c-0.0805,0.4589 -0.3342,1.18207 -1.13378,1.18207c-0.89328,0 -1.10525,-0.90256 -1.15555,-1.33091c-1.08895,-0.09224 -2.17404,-0.22365 -3.21439,-0.42969c-2.21287,-0.43824 -4.36358,-1.4188 -6.57514,-1.86511c-3.07452,-0.62045 -6.23679,-0.82291 -9.33163,-1.23689c-4.17751,-1.26601 -8.34284,-2.55886 -12.62108,-3.0963c-10.65134,-1.33803 -21.52586,-0.61307 -32.2097,-0.61307c-1.3448,0 -2.68911,-0.01637 -4.03314,-0.0438c-0.08313,0.45945 -0.33969,1.16833 -1.13134,1.16833c-0.82458,0 -1.06861,-0.76906 -1.14083,-1.22429c-6.17215,-0.17545 -12.34053,-0.52087 -18.52412,-0.52087c-2.18624,0 -4.37248,0 -6.55872,0c-0.55124,0 -3.04507,0.04382 -3.36352,-0.18359c-0.54669,-0.39039 -0.60887,-1.48513 -1.09523,-1.99679c-0.35783,-0.37645 -0.92071,-0.21742 -1.31026,-0.53382c-1.23608,-1.00397 -2.35799,-2.93497 -3.5731,-4.06595c-1.88944,-5.95542 -2.86823,-12.26224 -3.85535,-18.5644c-0.42989,-2.74462 -1.15105,-5.43216 -1.53728,-8.17732c-0.11437,-0.8129 -0.21961,-1.62876 -0.31644,-2.4472c-0.44255,0.04892 -0.88779,0.07938 -1.33833,0.0809h-0.15616c0,0 -1.1712,0 -1.1712,-1.55155c0,-1.55155 1.1712,-1.55155 1.1712,-1.55155h0.15616c0.34086,0.00133 0.67841,-0.01738 1.01401,-0.04985c-0.96721,-10.35547 -0.75042,-21.05171 -0.78706,-31.39547c-0.00001,-9.3105 -0.00001,-18.62098 -0.00001,-27.93148c0,-1.91282 -0.15422,-3.8374 0.0057,-5.73845c0.14521,-1.7262 0.68454,-3.35571 0.94603,-5.05771c0.12737,-0.82906 -0.20294,-1.87388 0.2063,-2.52342c0.93929,-1.49079 2.53729,-1.25789 3.761,-1.26496c1.23862,-0.00716 2.47734,-0.00558 3.71605,-0.00326c0.33516,-0.61735 0.96875,-0.61735 0.96875,-0.61735c5.93408,0 11.86816,0 17.80224,0c2.251,0 4.10038,0.06901 6.30436,0.79893c0.44553,0.14755 0.90552,0.23646 1.33443,0.45393c0.17058,0.08649 0.42011,0.68406 0.43417,0.44281c0.03986,-0.68357 -0.29719,-1.32308 -0.34304,-2.00598c-0.17726,-2.64003 0,-5.41322 0,-8.06804c0,-5.17182 0,-10.34365 0,-15.51546c0,-0.88274 -0.02182,-4.66494 0.11057,-5.00243c1.07906,-2.75046 3.8614,-4.02295 5.85991,-4.70283c2.75257,-0.93641 5.64459,-1.28804 8.57037,-1.38179c0.06592,-0.3996 0.2644,-0.82811 0.77165,-1.0521c1.1111,-0.49064 1.48146,0.98128 1.48146,0.98128c0.00359,0.0147 0.00716,0.0294 0.0107,0.0441c3.26166,0.01926 6.53143,0.25293 9.66445,0.25293c0.53019,0 3.13196,-0.04911 3.39874,0.2096c1.69073,1.63957 2.64085,6.06345 2.83706,8.59972c0.39767,5.14049 0.20654,10.36768 0.54409,15.49914c0.25945,3.94431 1.04525,7.86902 1.40959,11.80642c0.37147,4.0144 0.47667,7.94487 0.47742,11.98263c0.00052,2.80685 0.12608,5.46929 -0.34304,8.2126c2.28298,-1.20201 4.41738,-2.88288 6.70475,-4.06914c3.55478,-1.84356 7.27852,-2.98839 11.06262,-3.54529c2.24464,-0.33034 4.44522,-0.28743 6.70238,-0.28743c0.07422,0 0.14859,-0.00208 0.22304,-0.00549c0,-0.56593 0,-1.12169 0,-1.66276c0,0 0,-1.35567 0.95657,-1.53259c-0.63206,-4.03383 -0.50226,-8.17493 -0.47977,-12.27182c-0.18256,-0.25055 -0.34212,-0.59042 -0.45726,-1.048zM166.11579,357.86999c-0.98219,-5.70539 -2.08242,-11.38797 -3.10667,-17.08174c-0.35225,-1.95816 -0.75651,-3.7779 -0.90801,-5.72501c-0.6826,0.10632 -1.36717,0.20936 -2.05445,0.30628c-6.4332,0.90724 -13.02411,-0.61533 -19.46043,-0.61533c0,0 -0.36214,0 -0.68368,-0.26677c-1.03054,0.40939 -2.09843,0.51661 -3.38577,0.69699c-1.69059,0.23689 -3.3526,0.27281 -5.01816,0.25825c-0.12165,0.43602 -0.40787,0.94897 -1.08128,0.94897c-0.69161,0 -0.97482,-0.54104 -1.09079,-0.98413c-0.6154,-0.01104 -1.23315,-0.02008 -1.85488,-0.01966c-8.3502,0.00567 -16.85866,0.72738 -25.15267,1.98427c-3.14782,0.47616 -6.29046,0.79314 -9.45807,0.88817l-0.02336,0.00016c-0.28828,0.50139 -0.78071,0.61011 -0.78071,0.61011c-0.28656,0.0632 -0.57316,0.1248 -0.85981,0.1849c0.5707,0.40946 0.5707,1.37021 0.5707,1.37021c0,13.36276 0,26.72551 0,40.08826c0.41241,0.02104 0.82127,0.04004 1.22415,0.05933c8.13738,0.38962 16.43882,-1.7781 24.47891,-3.16214c13.94552,-2.40061 27.89921,-4.62312 41.86924,-6.75852c0,0 1.16348,-0.17784 1.29772,1.36347c0.01316,0.15104 0.01385,0.28899 0.00439,0.41496l1.17092,0.19289c0,0 0.13289,0.02201 0.30317,0.11066c0.309,-0.23036 0.63739,-0.23036 0.63739,-0.23036h1.87391c0.85195,-0.00001 1.7039,-0.00003 2.55585,-0.00004c-0.03669,-4.92787 -0.21372,-9.67399 -1.06762,-14.63416zM89.71938,339.3523c-5.62817,1.08343 -11.2733,1.65073 -16.94374,2.42752c-6.54953,0.89721 -13.21009,2.27576 -19.79514,2.28363c-3.93403,-0.00038 -7.88213,-0.37253 -11.80857,-0.8493v0.31457c0,0 0,1.55155 -1.1712,1.55155c-1.1712,0 -1.1712,-1.55155 -1.1712,-1.55155c0,-0.20295 0,-0.40619 0,-0.60968c-0.07146,-0.00927 -0.14292,-0.01855 -0.21436,-0.02785c-0.2918,1.12091 -1.2493,0.95178 -1.2493,0.95178c-5.41458,-0.9564 -10.69642,-3.2704 -16.15495,-3.66381c0.39384,4.40231 0.28485,8.83485 0.28485,13.27946c0.00001,6.54107 0,13.08213 0,19.6232c1.33076,0.02694 2.66179,0.04299 3.99328,0.04299c10.76156,0 21.71197,-0.72231 32.44052,0.62817c4.32741,0.54472 8.54573,1.83034 12.76984,3.12221c3.08993,0.40509 6.24558,0.61291 9.31456,1.23326c2.20087,0.44488 4.34108,1.42095 6.54229,1.8586c0.93015,0.18494 1.89681,0.30564 2.86909,0.39157c0,-12.92426 0,-27.23392 0,-39.93298c0,0 0,-0.61745 0.29403,-1.07334zM136.27013,332.09855c1.5683,-0.22022 3.03258,-0.14733 4.25999,-1.39971c0,0 0.95304,-0.90182 1.63379,0.36073c0.11965,0.2219 0.18882,0.43265 0.22157,0.62933c5.79344,0.23222 11.70872,1.42779 17.46797,0.58809c5.69298,-0.83004 11.20753,-2.00963 16.95692,-2.074c1.87746,0.00975 3.32746,-0.62059 5.18074,-1.10331c2.34964,-0.612 4.72476,-0.97716 7.10986,-1.19883c2.21495,-0.20586 4.44183,-0.47402 6.66928,-0.59666c0,-1.64608 0,-3.48569 0,-5.04548c-2.43605,0.01078 -4.87236,0.00567 -7.30562,-0.07809c-1.17545,-0.04046 -4.64107,-0.09307 -5.50416,-1.08698c-0.32547,-0.37482 -0.39752,-5.371 -0.47064,-5.85632c-0.15534,-1.03114 -0.62284,-1.9565 -0.74765,-2.99489c-0.26418,-2.19804 0.03308,-4.77823 -0.01463,-7.03038c-0.07424,-3.50474 -0.73433,-6.98007 -0.93446,-10.48462c-0.05023,-0.8796 -0.08291,-1.75 -0.11296,-2.61659c-0.54336,0 -1.62628,0 -1.9909,0c-1.42636,-0.0019 -2.68446,0.39679 -4.07321,0.60899c-3.30921,0.50566 -6.73125,-0.20171 -10.04073,0.21321c-1.24117,0.15561 -2.42749,0.77158 -3.66,1.02029c-2.02493,0.40862 -4.0523,0.08953 -6.08186,0.22612c-2.75749,0.18557 -5.49686,0.61307 -8.25938,0.62064c-0.10246,1.36807 -0.44415,2.65886 -1.4754,3.61879c-0.41227,0.38376 -3.56748,0.16461 -4.27427,0.2272c-2.01719,0.17866 -4.03478,0.91078 -6.04178,1.23498c-1.05997,0.17122 -2.12591,0.30445 -3.19408,0.41999c0,10.68139 0,21.36277 0,32.04416c1.55313,0.01272 3.10414,-0.02514 4.68159,-0.24665zM-2.86897,307.42452c0.31991,8.47077 0.00379,17.0699 0.00379,25.55369v0.79247c3.0971,0.16816 6.21118,0.56584 9.21366,0.77865c4.57771,0.32446 9.16187,0.52411 13.74075,0.8274c0,0 1.16974,0.07748 1.11125,1.62709c-0.00088,0.02325 -0.00201,0.04612 -0.00337,0.06865c5.0536,0.34837 9.93785,2.29672 14.92388,3.3862c0.17409,-0.63744 0.55409,-0.85123 0.85505,-0.9159c0.07509,-0.02001 0.15276,-0.03052 0.23229,-0.03052c0.07453,0 0.14743,0.00922 0.21809,0.02685l0.83541,0.18772c0.18915,0.0253 0.37838,0.05049 0.56768,0.07555c0,-12.60647 0,-26.05471 0,-38.47571c0,0 0,-0.20724 0.05717,-0.47025c-6.81076,0.39196 -13.60357,-0.67803 -20.37657,-1.21548c-0.14222,0.08332 -0.31589,0.13418 -0.52796,0.13418c-0.27897,0 -0.4915,-0.08803 -0.65339,-0.22215c-0.62549,-0.04331 -1.25081,-0.08108 -1.87596,-0.11174c-2.90678,-0.14364 -5.78638,-0.29672 -8.69566,-0.29672c-2.15818,0 -4.55886,0.30041 -6.70182,-0.01162c-1.1358,-0.16538 -2.2834,-0.43368 -3.43762,-0.71791c0.04848,0.24253 0.04862,0.42818 0.04862,0.42923c-0.00175,2.89941 0.35563,5.69252 0.46469,8.58033zM72.56007,278.79384c-0.09493,-0.00177 -0.17081,-0.00307 -0.22304,-0.00307c-2.92921,0 -5.80602,-0.02082 -8.70913,0.59963c-2.76858,0.59169 -5.58295,1.66223 -8.19337,3.01508c-1.93513,1.00287 -4.23169,3.4177 -6.27023,3.7966c-0.98046,0.18223 -1.96889,-0.27887 -2.95333,-0.41832c-0.43645,-5.344 -0.14147,-10.59791 -0.34389,-15.94504c-0.14748,-3.89591 -0.71553,-7.71565 -1.20836,-11.54429c-0.34514,0.51985 -0.91014,0.51985 -0.91014,0.51985h-1.40544c-3.37093,0 -6.84184,-0.30678 -10.20483,-0.00586c-2.83429,0.25361 -5.60591,1.59477 -8.45133,1.86382c-1.49277,0.14115 -3.01285,0.14076 -4.53358,0.10578c0,11.93652 0,23.87304 0,35.80956c6.8108,0.57236 13.63945,1.62545 20.48876,1.11117c2.28712,-0.17173 4.5416,-0.90929 6.78731,-1.45491c4.66625,-1.13371 9.26604,-2.21951 13.99211,-2.78433c3.63094,-0.43394 7.31328,-1.09084 10.96253,-0.52975c0.39646,0.06096 0.78724,0.17188 1.17599,0.29973c0,-2.61406 0,-5.55478 0,-8.03891c0,-2.00701 0,-4.21615 0,-6.39672zM-5.20758,332.97821c0,-8.43181 0.31708,-16.97996 -0.00086,-25.39864c-0.11094,-2.93772 -0.46594,-5.78429 -0.46762,-8.73539c0,0 0,-0.50416 0.21694,-0.9377c-2.03387,-0.47713 -4.07839,-0.84336 -6.10542,-0.63012c-2.80251,0.29483 -5.3843,1.57491 -8.15471,1.82567c0,2.02047 0,4.04093 -0.00001,6.0614c0.03623,10.22154 -0.1881,20.79905 0.77049,31.032c0.32303,-0.06054 0.6472,-0.12031 0.97375,-0.17365c2.71062,-0.90108 5.59851,-1.7258 8.37612,-2.08756c1.44285,-0.18792 2.91136,-0.25272 4.39131,-0.24037zM223.69689,348.60944c0.77373,6.90127 1.04755,13.9297 1.10626,20.91338c2.55637,-0.0272 5.11345,-0.00979 7.67903,-0.298c1.43438,-0.16114 2.8785,-0.14565 4.31155,-0.32623c0.14225,-0.01792 0.27919,-0.21493 0.30311,-0.40155c0.188,-1.46704 -0.08915,-3.48289 -0.08915,-4.99182c0,-1.8199 0.09406,-3.64372 0.00386,-5.45969c-0.19064,-3.83844 -1.4,-7.34953 -1.86742,-11.09107c-0.21244,-1.70051 -0.01036,-3.44726 -0.01036,-5.17089c0,-3.29089 0.04603,-6.59914 0.08423,-9.91053c-2.37261,0.04504 -4.77325,0.16049 -7.12504,-0.09021c-2.00667,-0.21391 -3.71595,-0.76189 -5.72069,-0.75335c-0.58527,-0.05538 -1.17079,-0.09982 -1.75652,-0.1349c0.21155,5.97839 2.42112,11.82795 3.08113,17.71486zM30.39509,237.93777c0.25785,5.53132 1.86389,10.67894 1.87571,16.22188v1.52847c3.32431,-0.26696 6.74677,0.02307 10.07232,0.02307h1.40544c0,0 0.31601,0 0.61973,0.21745c-0.15546,-1.35259 -0.28888,-2.70847 -0.37852,-4.07136c-0.20314,-3.08822 -0.03912,-6.18243 -0.26176,-9.283c-0.25525,-3.55459 0.00914,-7.06991 -1.2284,-10.27927c-0.26713,-0.69277 -0.30333,-1.592 -0.73313,-2.12207c-0.20317,-0.25057 -0.5407,0.18349 -0.81758,0.2096c-0.4673,0.04406 -0.93696,0 -1.40544,0c-3.02252,0 -6.119,-0.17648 -9.20867,-0.19437c0.1635,2.55012 -0.06233,5.11848 0.06033,7.7496z" fill="#000000" stroke="none" stroke-width="0.5"/></g></g></svg>