<svg version="1.1" xmlns="http://www.w3.org/2000/svg" xmlns:xlink="http://www.w3.org/1999/xlink" width="32.06113" height="64.18883" viewBox="0,0,32.06113,64.18883"><g transform="translate(-236.00356,-175.9695)"><g data-paper-data="{&quot;isPaintingLayer&quot;:true}" fill-rule="nonzero" stroke="none" stroke-width="0" stroke-linecap="butt" stroke-linejoin="miter" stroke-miterlimit="10" stroke-dasharray="" stroke-dashoffset="0" style="mix-blend-mode: normal"><path d="M236.00358,240.15833v-60.21746h32.06112v60.21746z" fill-opacity="0.01176" fill="#ffffff"/><path d="M236.00357,180.03227v-4.02863h4.02863v4.02863z" fill="none"/><path d="M239.99641,184.00369v-4.02863h4.02863v4.02863z" fill="none"/><path d="M236.00357,184.06486v-4.02863h4.02863v4.02863z" fill="none"/><path d="M239.99641,180.05975v-4.02863h4.02863v4.02863z" fill="none"/><path d="M244.00366,179.99814v-4.02863h4.02863v4.02863z" fill="none"/><path d="M247.9965,183.96951v-4.02863h4.02863v4.02863z" fill="#000000"/><path d="M244.00366,184.03074v-4.02863h4.02863v4.02863z" fill="#000000"/><path d="M247.9965,180.02557v-4.02863h4.02863v4.02863z" fill="none"/><path d="M236.017,187.99179v-4.02863h4.02863v4.02863z" fill="none"/><path d="M240.00984,192.03638v-4.02863h4.02863v4.02863z" fill="#000000"/><path d="M236.017,192.0244v-4.02863h4.02863v4.02863z" fill="none"/><path d="M240.00984,188.01928v-4.02863h4.02863v4.02863z" fill="#000000"/><path d="M244.01702,187.95768v-4.02863h4.02863v4.02863z" fill="#000000"/><path d="M248.00986,192.00227v-4.02863h4.02863v4.02863z" fill="#a0fff1"/><path d="M244.01702,191.99027v-4.02863h4.02863v4.02863z" fill="#5e5e5e"/><path d="M248.00986,187.98515v-4.02863h4.02863v4.02863z" fill="#5e5e5e"/><path d="M251.97304,180.06322v-4.02863h4.02863v4.02863z" fill="none"/><path d="M255.96587,184.03459v-4.02863h4.02863v4.02863z" fill="#000000"/><path d="M251.97304,184.09584v-4.02863h4.02863v4.02863z" fill="#000000"/><path d="M255.96587,180.09065v-4.02863h4.02863v4.02863z" fill="none"/><path d="M259.97308,180.02904v-4.02863h4.02863v4.02863z" fill="none"/><path d="M263.96592,184.00048v-4.02863h4.02863v4.02863z" fill="none"/><path d="M259.97308,184.0617v-4.02863h4.02863v4.02863z" fill="#ffffff"/><path d="M263.96592,180.05653v-4.02863h4.02863v4.02863z" fill="none"/><path d="M251.98638,188.02276v-4.02863h4.02863v4.02863z" fill="#5e5e5e"/><path d="M255.97923,192.06735v-4.02863h4.02863v4.02863z" fill="#a0fff1"/><path d="M251.98638,192.05537v-4.02863h4.02863v4.02863z" fill="#5e5e5e"/><path d="M255.97923,188.05019v-4.02863h4.02863v4.02863z" fill="#5e5e5e"/><path d="M259.98645,187.98858v-4.02863h4.02863v4.02863z" fill="#000000"/><path d="M263.97929,192.03317v-4.02863h4.02863v4.02863z" fill="none"/><path d="M259.98645,192.02124v-4.02863h4.02863v4.02863z" fill="#000000"/><path d="M263.97929,188.01606v-4.02863h4.02863v4.02863z" fill="none"/><path d="M236.03455,196.02725v-4.02863h4.02863v4.02863z" fill="none"/><path d="M240.02739,199.99869v-4.02863h4.02863v4.02863z" fill="#000000"/><path d="M236.03455,200.05991v-4.02863h4.02863v4.02863z" fill="none"/><path d="M240.02739,196.05474v-4.02863h4.02863v4.02863z" fill="#000000"/><path d="M244.03464,195.99314v-4.02863h4.02863v4.02863z" fill="#5e5e5e"/><path d="M248.02748,199.96456v-4.02863h4.02863v4.02863z" fill="#5e5e5e"/><path d="M244.03464,200.02573v-4.02863h4.02863v4.02863z" fill="#000000"/><path d="M248.02748,196.02062v-4.02863h4.02863v4.02863z" fill="#00ffda"/><path d="M236.04789,203.98678v-4.02863h4.02863v4.02863z" fill="none"/><path d="M240.04073,208.03137v-4.02863h4.02863v4.02863z" fill="#000000"/><path d="M236.04789,208.01945v-4.02863h4.02863v4.02863z" fill="#323232"/><path d="M240.04073,204.01427v-4.02863h4.02863v4.02863z" fill="#323232"/><path d="M244.04798,203.95266v-4.02863h4.02863v4.02863z" fill="#000000"/><path d="M248.04082,207.99725v-4.02863h4.02863v4.02863z" fill="#000000"/><path d="M244.04798,207.98527v-4.02863h4.02863v4.02863z" fill="#000000"/><path d="M248.04082,203.98015v-4.02863h4.02863v4.02863z" fill="#000000"/><path d="M252.00394,196.05822v-4.02863h4.02863v4.02863z" fill="#5e5e5e"/><path d="M255.99678,200.02964v-4.02863h4.02863v4.02863z" fill="#5e5e5e"/><path d="M252.00394,200.09083v-4.02863h4.02863v4.02863z" fill="#5e5e5e"/><path d="M255.99678,196.0857v-4.02863h4.02863v4.02863z" fill="#00ffda"/><path d="M260.00401,196.02404v-4.02863h4.02863v4.02863z" fill="#000000"/><path d="M263.99685,199.99546v-4.02863h4.02863v4.02863z" fill="none"/><path d="M260.00401,200.05671v-4.02863h4.02863v4.02863z" fill="#4c4c4c"/><path d="M263.99685,196.05152v-4.02863h4.02863v4.02863z" fill="none"/><path d="M252.01736,204.01776v-4.02863h4.02863v4.02863z" fill="#000000"/><path d="M256.01017,208.06235v-4.02863h4.02863v4.02863z" fill="#000000"/><path d="M252.01736,208.05035v-4.02863h4.02863v4.02863z" fill="#838383"/><path d="M256.01017,204.04524v-4.02863h4.02863v4.02863z" fill="#000000"/><path d="M260.01742,203.98362v-4.02863h4.02863v4.02863z" fill="#000000"/><path d="M264.01026,208.02821v-4.02863h4.02863v4.02863z" fill="none"/><path d="M260.01742,208.01624v-4.02863h4.02863v4.02863z" fill="#323232"/><path d="M264.01026,204.01106v-4.02863h4.02863v4.02863z" fill="none"/><path d="M236.02937,212.05186v-4.02863h4.02863v4.02863z" fill="#000000"/><path d="M240.02229,216.02323v-4.02863h4.02863v4.02863z" fill="none"/><path d="M236.02937,216.08447v-4.02863h4.02863v4.02863z" fill="#000000"/><path d="M240.02229,212.07929v-4.02863h4.02863v4.02863z" fill="#323232"/><path d="M244.02946,212.01768v-4.02863h4.02863v4.02863z" fill="#000000"/><path d="M248.0223,215.98911v-4.02863h4.02863v4.02863z" fill="#000000"/><path d="M244.02946,216.05034v-4.02863h4.02863v4.02863z" fill="#000000"/><path d="M248.0223,212.04516v-4.02863h4.02863v4.02863z" fill="#000000"/><path d="M236.04279,220.0114v-4.02863h4.02863v4.02863z" fill="#000000"/><path d="M240.03563,224.05599v-4.02863h4.02863v4.02863z" fill="none"/><path d="M236.04279,224.044v-4.02863h4.02863v4.02863z" fill="#323232"/><path d="M240.03563,220.03887v-4.02863h4.02863v4.02863z" fill="none"/><path d="M244.04288,219.97726v-4.02863h4.02863v4.02863z" fill="#000000"/><path d="M248.03572,224.02185v-4.02863h4.02863v4.02863z" fill="#000000"/><path d="M244.04288,224.00988v-4.02863h4.02863v4.02863z" fill="#323232"/><path d="M248.03572,220.00469v-4.02863h4.02863v4.02863z" fill="#000000"/><path d="M251.99883,212.08277v-4.02863h4.02863v4.02863z" fill="#000000"/><path d="M255.99166,216.0542v-4.02863h4.02863v4.02863z" fill="#000000"/><path d="M251.99883,216.11538v-4.02863h4.02863v4.02863z" fill="#a3a3a3"/><path d="M255.99166,212.11026v-4.02863h4.02863v4.02863z" fill="#000000"/><path d="M259.99888,212.04865v-4.02863h4.02863v4.02863z" fill="#000000"/><path d="M263.99172,216.02007v-4.02863h4.02863v4.02863z" fill="#000000"/><path d="M259.99888,216.08124v-4.02863h4.02863v4.02863z" fill="#323232"/><path d="M263.99172,212.07613v-4.02863h4.02863v4.02863z" fill="#323232"/><path d="M252.01226,220.0423v-4.02863h4.02863v4.02863z" fill="#000000"/><path d="M256.00505,224.08689v-4.02863h4.02863v4.02863z" fill="#323232"/><path d="M252.01226,224.07496v-4.02863h4.02863v4.02863z" fill="#000000"/><path d="M256.00505,220.06978v-4.02863h4.02863v4.02863z" fill="#000000"/><path d="M260.01225,220.00818v-4.02863h4.02863v4.02863z" fill="none"/><path d="M264.00509,224.05277v-4.02863h4.02863v4.02863z" fill="#000000"/><path d="M260.01225,224.04078v-4.02863h4.02863v4.02863z" fill="none"/><path d="M264.00509,220.03567v-4.02863h4.02863v4.02863z" fill="#000000"/><path d="M236.06034,228.04686v-4.02863h4.02863v4.02863z" fill="none"/><path d="M240.05318,232.01828v-4.02863h4.02863v4.02863z" fill="none"/><path d="M236.06034,232.07945v-4.02863h4.02863v4.02863z" fill="none"/><path d="M240.05318,228.07434v-4.02863h4.02863v4.02863z" fill="none"/><path d="M244.06043,228.01272v-4.02863h4.02863v4.02863z" fill="#000000"/><path d="M248.05327,231.9841v-4.02863h4.02863v4.02863z" fill="none"/><path d="M244.06043,232.04534v-4.02863h4.02863v4.02863z" fill="#323232"/><path d="M248.05327,228.04016v-4.02863h4.02863v4.02863z" fill="none"/><path d="M236.07369,236.00639v-4.02863h4.02863v4.02863z" fill="none"/><path d="M240.06654,240.05098v-4.02863h4.02863v4.02863z" fill="none"/><path d="M236.07369,240.03899v-4.02863h4.02863v4.02863z" fill="none"/><path d="M240.06654,236.03388v-4.02863h4.02863v4.02863z" fill="none"/><path d="M255.95934,235.97226v-4.02863h4.02863v4.02863z" fill="#000000"/><path d="M248.06662,240.01685v-4.02863h4.02863v4.02863z" fill="none"/><path d="M255.95934,240.00487v-4.02863h4.02863v4.02863z" fill="#323232"/><path d="M248.06662,235.99974v-4.02863h4.02863v4.02863z" fill="none"/><path d="M252.02981,228.07776v-4.02863h4.02863v4.02863z" fill="none"/><path d="M256.0226,232.04919v-4.02863h4.02863v4.02863z" fill="#000000"/><path d="M252.02981,232.11043v-4.02863h4.02863v4.02863z" fill="none"/><path d="M256.0226,228.10524v-4.02863h4.02863v4.02863z" fill="#000000"/><path d="M260.02981,228.04364v-4.02863h4.02863v4.02863z" fill="none"/><path d="M264.02265,232.01507v-4.02863h4.02863v4.02863z" fill="none"/><path d="M260.02981,232.07625v-4.02863h4.02863v4.02863z" fill="none"/><path d="M264.02265,228.07113v-4.02863h4.02863v4.02863z" fill="#323232"/><path d="M252.04315,236.0373v-4.02863h4.02863v4.02863z" fill="none"/><path d="M252.04315,240.06996v-4.02863h4.02863v4.02863z" fill="none"/><path d="M260.04322,236.00316v-4.02863h4.02863v4.02863z" fill="none"/><path d="M264.03606,240.04776v-4.02863h4.02863v4.02863z" fill="none"/><path d="M260.04322,240.03583v-4.02863h4.02863v4.02863z" fill="none"/><path d="M264.03606,236.03065v-4.02863h4.02863v4.02863z" fill="none"/><path d="M243.9965,236.12573v-4.02863h4.02863v4.02863z" fill="none"/><path d="M243.9965,240.15834v-4.02863h4.02863v4.02863z" fill="none"/></g></g></svg>