<svg version="1.1" xmlns="http://www.w3.org/2000/svg" xmlns:xlink="http://www.w3.org/1999/xlink" width="872.86787" height="522.6" viewBox="0,0,872.86787,522.6"><g transform="translate(193.18317,38.90107)"><g data-paper-data="{&quot;isPaintingLayer&quot;:true}" fill-opacity="0.08235" fill="#000000" fill-rule="nonzero" stroke="none" stroke-width="0" stroke-linecap="butt" stroke-linejoin="miter" stroke-miterlimit="10" stroke-dasharray="" stroke-dashoffset="0" style="mix-blend-mode: normal"><path d="M433.325,268.20043v-131h35.66667v131z"/><g><path d="M-193.18317,294.86491v-27.02702h867.86787v27.02702z"/><path d="M21.53154,395.46551c0,0 0,-69.50145 0,-86.18046c0,-2.41562 0,-4.92838 0,-7.16667c0,-4.08349 -11.33333,-7.0868 -11.33333,-7.0868l41.68619,-0.16666c0,0 -10.83334,3.33016 -10.83334,7.5868c0,2.30032 0,4.87123 0,7.33334c0,16.81803 0,85.68046 0,85.68046z"/><path d="M82.53154,395.46551c0,0 0,-69.50145 0,-86.18046c0,-2.41562 0,-4.92838 0,-7.16667c0,-4.08349 -11.33333,-7.0868 -11.33333,-7.0868l41.68618,-0.16666c0,0 -10.83333,3.33016 -10.83333,7.5868c0,2.30032 0,4.87123 0,7.33334c0,16.81803 0,85.68046 0,85.68046z"/><path d="M146.53154,395.46551c0,0 0,-69.50145 0,-86.18046c0,-2.41562 0,-4.92838 0,-7.16667c0,-4.08349 -11.33333,-7.0868 -11.33333,-7.0868l41.68618,-0.16666c0,0 -10.83334,3.33016 -10.83334,7.5868c0,2.30032 0,4.87123 0,7.33334c0,16.81803 0,85.68046 0,85.68046z"/><path d="M212.53154,395.46551c0,0 0,-69.50145 0,-86.18046c0,-2.41562 0,-4.92838 0,-7.16667c0,-4.08349 -11.33333,-7.0868 -11.33333,-7.0868l41.68619,-0.16666c0,0 -10.83334,3.33016 -10.83334,7.5868c0,2.30032 0,4.87123 0,7.33334c0,16.81803 0,85.68046 0,85.68046z"/><path d="M273.53154,395.46551c0,0 0,-69.50145 0,-86.18046c0,-2.41562 0,-4.92838 0,-7.16667c0,-4.08349 -11.33333,-7.0868 -11.33333,-7.0868l41.68619,-0.16666c0,0 -10.83333,3.33016 -10.83333,7.5868c0,2.30032 0,4.87123 0,7.33334c0,16.81803 0,85.68046 0,85.68046z"/><path d="M337.53154,395.46551c0,0 0,-69.50145 0,-86.18046c0,-2.41562 0,-4.92838 0,-7.16667c0,-4.08349 -11.33333,-7.0868 -11.33333,-7.0868l41.68618,-0.16666c0,0 -10.83333,3.33016 -10.83333,7.5868c0,2.30032 0,4.87123 0,7.33334c0,16.81803 0,85.68046 0,85.68046z"/><path d="M398.03154,395.46551c0,0 0,-69.50145 0,-86.18046c0,-2.41562 0,-4.92838 0,-7.16667c0,-4.08349 -11.33333,-7.0868 -11.33333,-7.0868l41.68619,-0.16666c0,0 -10.83333,3.33016 -10.83333,7.5868c0,2.30032 0,4.87123 0,7.33334c0,16.81803 0,85.68046 0,85.68046z"/><path d="M459.03154,395.46551c0,0 0,-69.50145 0,-86.18046c0,-2.41562 0,-4.92838 0,-7.16667c0,-4.08349 -11.33333,-7.0868 -11.33333,-7.0868l41.68619,-0.16666c0,0 -10.83334,3.33016 -10.83334,7.5868c0,2.30032 0,4.87123 0,7.33334c0,16.81803 0,85.68046 0,85.68046z"/><path d="M523.03153,395.46551c0,0 0,-69.50145 0,-86.18046c0,-2.41562 0,-4.92838 0,-7.16667c0,-4.08349 -11.33333,-7.0868 -11.33333,-7.0868l41.68619,-0.16666c0,0 -10.83334,3.33016 -10.83334,7.5868c0,2.30032 0,4.87123 0,7.33334c0,16.81803 0,85.68046 0,85.68046z"/></g><g><path d="M-188.18317,299.86491v-27.02702h867.86787v27.02702z"/><path d="M26.53154,400.46551c0,0 0,-69.50145 0,-86.18046c0,-2.41562 0,-4.92838 0,-7.16667c0,-4.08349 -11.33333,-7.0868 -11.33333,-7.0868l41.68619,-0.16666c0,0 -10.83334,3.33016 -10.83334,7.5868c0,2.30032 0,4.87123 0,7.33334c0,16.81803 0,85.68046 0,85.68046z"/><path d="M87.53154,400.46551c0,0 0,-69.50145 0,-86.18046c0,-2.41562 0,-4.92838 0,-7.16667c0,-4.08349 -11.33333,-7.0868 -11.33333,-7.0868l41.68618,-0.16666c0,0 -10.83333,3.33016 -10.83333,7.5868c0,2.30032 0,4.87123 0,7.33334c0,16.81803 0,85.68046 0,85.68046z"/><path d="M151.53154,400.46551c0,0 0,-69.50145 0,-86.18046c0,-2.41562 0,-4.92838 0,-7.16667c0,-4.08349 -11.33333,-7.0868 -11.33333,-7.0868l41.68618,-0.16666c0,0 -10.83334,3.33016 -10.83334,7.5868c0,2.30032 0,4.87123 0,7.33334c0,16.81803 0,85.68046 0,85.68046z"/><path d="M217.53154,400.46551c0,0 0,-69.50145 0,-86.18046c0,-2.41562 0,-4.92838 0,-7.16667c0,-4.08349 -11.33333,-7.0868 -11.33333,-7.0868l41.68618,-0.16666c0,0 -10.83334,3.33016 -10.83334,7.5868c0,2.30032 0,4.87123 0,7.33334c0,16.81803 0,85.68046 0,85.68046z"/><path d="M278.53154,400.46551c0,0 0,-69.50145 0,-86.18046c0,-2.41562 0,-4.92838 0,-7.16667c0,-4.08349 -11.33333,-7.0868 -11.33333,-7.0868l41.68619,-0.16666c0,0 -10.83334,3.33016 -10.83334,7.5868c0,2.30032 0,4.87123 0,7.33334c0,16.81803 0,85.68046 0,85.68046z"/><path d="M342.53154,400.46551c0,0 0,-69.50145 0,-86.18046c0,-2.41562 0,-4.92838 0,-7.16667c0,-4.08349 -11.33333,-7.0868 -11.33333,-7.0868l41.68619,-0.16666c0,0 -10.83334,3.33016 -10.83334,7.5868c0,2.30032 0,4.87123 0,7.33334c0,16.81803 0,85.68046 0,85.68046z"/><path d="M403.03154,400.46551c0,0 0,-69.50145 0,-86.18046c0,-2.41562 0,-4.92838 0,-7.16667c0,-4.08349 -11.33333,-7.0868 -11.33333,-7.0868l41.68619,-0.16666c0,0 -10.83334,3.33016 -10.83334,7.5868c0,2.30032 0,4.87123 0,7.33334c0,16.81803 0,85.68046 0,85.68046z"/><path d="M464.03154,400.46551c0,0 0,-69.50145 0,-86.18046c0,-2.41562 0,-4.92838 0,-7.16667c0,-4.08349 -11.33333,-7.0868 -11.33333,-7.0868l41.68619,-0.16666c0,0 -10.83334,3.33016 -10.83334,7.5868c0,2.30032 0,4.87123 0,7.33334c0,16.81803 0,85.68046 0,85.68046z"/><path d="M528.03153,400.46551c0,0 0,-69.50145 0,-86.18046c0,-2.41562 0,-4.92838 0,-7.16667c0,-4.08349 -11.33333,-7.0868 -11.33333,-7.0868l41.68618,-0.16666c0,0 -10.83333,3.33016 -10.83333,7.5868c0,2.30032 0,4.87123 0,7.33334c0,16.81803 0,85.68046 0,85.68046z"/></g><path d="M-27.02501,483.69893v-494h34v494z"/><path d="M470.2,455.09893v-494h34v494z"/><path d="M461.24375,236.47498v-20.77606h8.75v20.77606z"/><path d="M399.23721,215.69893v-12.25h70.71279v12.25z"/><path d="M432.98721,236.47498v-20.77606h6.13636v20.77606z"/><path d="M388.48721,249.19893v-12.25h81.46278v12.25z"/><path d="M432.97187,269.97497v-20.77606h6.13636v20.77606z"/><path d="M461.22187,269.97497v-20.77606h8.75v20.77606z"/><path d="M461.22954,170.47498v-20.77606h8.75v20.77606z"/><path d="M421.47301,149.69893v-12.25h48.46278v12.25z"/><path d="M432.97301,170.47498v-20.77606h6.13635v20.77606z"/><path d="M410.47301,183.19893v-12.25h59.46278v12.25z"/><path d="M432.95767,203.97498v-20.77605h6.13635v20.77605z"/><path d="M461.20767,203.97498v-20.77605h8.75v20.77605z"/><path d="M285.26744,150.17233v-36h8.75v36z"/><path d="M73.61744,268.13695c0,0 0,-149.37572 0,-176.27082c0,-7.9823 -12,-15.5271 -12,-15.5271h43.8c0,0 -12.8,7.5448 -12.8,15.5271c0,26.89511 0,176.27083 0,176.27083z"/><path d="M255.97577,134.50568v-36h8.75v36z"/><path d="M224.97577,117.33902v-36h8.75v36z"/><path d="M197.97577,139.00568v-36h8.75v36z"/><path d="M172.64243,158.00568v-36h8.75v36z"/><path d="M75.3375,272.55205v-196.5h4.5v196.5z"/><path d="M81.26744,272.55205v-196.5h2.25v196.5z"/><path d="M86.26744,272.55205v-196.5h2.25v196.5z"/></g></g></svg>