<svg version="1.1" xmlns="http://www.w3.org/2000/svg" xmlns:xlink="http://www.w3.org/1999/xlink" width="314.77863" height="337.49336" viewBox="0,0,314.77863,337.49336"><g transform="translate(-39.19636,-24.50664)"><g data-paper-data="{&quot;isPaintingLayer&quot;:true}" fill-opacity="0.16863" fill="#ffffff" fill-rule="nonzero" stroke="none" stroke-width="0" stroke-linecap="butt" stroke-linejoin="miter" stroke-miterlimit="10" stroke-dasharray="" stroke-dashoffset="0" style="mix-blend-mode: normal"><path d="M215.97499,259.07124v-27h58v27z"/><path d="M328.97499,216.57125c0,0 18,-10.47126 18,-19.91813c0,-25.50869 0,-141.58187 0,-141.58187h7v161z"/><path d="M74.97499,55.07125h7c0,0 1,11.86583 1,36.58188c0,3.30324 -1,25.16443 -1,29.5c0,31.24891 0,87.14115 0,136.37932c-0.87,-0.24707 -1.7883,-26.37932 -2.73749,-26.37932c-1.52458,0 -2.96948,26.34118 -4.26251,26.95134c0,-80.05645 0,-203.03322 0,-203.03322z"/><path d=""/><path d="M62.97499,354.40458c0,0 -26.88931,-12.38781 -23.47978,-21.83886c1.97713,-5.4805 24.4807,-8.13931 32.5896,-13.16238c1.60799,1.10384 3.5549,1.74978 5.65268,1.74978c1.59919,0 3.11071,-0.37539 4.45124,-1.04285c0.89388,6.88045 4.28625,15.95609 4.28625,20.54285c0,3.42132 -6.89356,-1.64283 -8.15934,0.79963c-3.07323,5.93014 -4.34066,12.95183 -4.34066,12.95183z"/><path d="M92.49166,350.50666v-56h15.16667v56z"/><path d="M121.49166,350.00666c0,0 28.09213,-17.12524 31.05015,-25.91936c3.19097,-9.48667 9.94985,-29.58064 9.94985,-29.58064h15.16667l17,55z"/><path d="M209.49166,360l25,-65.49334h15.16667l25.5,65.49334z"/><path d="M281.99166,360.5l20,-65.99334h15.16667l17.5,67.49334z"/><path d="M334.99166,336.00666v-27h15.16667v27z"/><path d="M102.49166,51.50665v-27h15.16667v27z"/><path d="M135.49166,51.50665v-27h15.16667v27z"/><path d="M172.49166,51.50665v-27h15.16667v27z"/><path d="M205.49166,55.07125v-30.5646h15.16667v30.5646z"/><path d="M244.49166,63.50665v-39h15.16667v39z"/><path d="M276.99166,72.50665v-48h15.16667v48z"/><path d="M311.99166,80.50665v-56h15.16667v56z"/></g></g></svg>