<svg version="1.1" xmlns="http://www.w3.org/2000/svg" xmlns:xlink="http://www.w3.org/1999/xlink" width="872.86787" height="289.12572" viewBox="0,0,872.86787,289.12572"><g transform="translate(193.18317,-111.33977)"><g data-paper-data="{&quot;isPaintingLayer&quot;:true}" fill-rule="nonzero" stroke-linejoin="miter" stroke-miterlimit="10" stroke-dasharray="" stroke-dashoffset="0" style="mix-blend-mode: normal"><path d="" fill-opacity="0.16863" fill="#ffffff" stroke="none" stroke-width="0" stroke-linecap="butt"/><g fill-opacity="0.08235" fill="#ffffff" stroke="none" stroke-width="0" stroke-linecap="butt"><path d="M-193.18317,294.86488v-27.02702h867.86787v27.02702z"/><path d="M21.53154,395.46548c0,0 0,-69.50145 0,-86.18046c0,-2.41562 0,-4.92838 0,-7.16667c0,-4.08349 -11.33333,-7.0868 -11.33333,-7.0868l41.68619,-0.16666c0,0 -10.83334,3.33016 -10.83334,7.5868c0,2.30032 0,4.87123 0,7.33334c0,16.81803 0,85.68046 0,85.68046z"/><path d="M82.53154,395.46548c0,0 0,-69.50145 0,-86.18046c0,-2.41562 0,-4.92838 0,-7.16667c0,-4.08349 -11.33333,-7.0868 -11.33333,-7.0868l41.68618,-0.16666c0,0 -10.83333,3.33016 -10.83333,7.5868c0,2.30032 0,4.87123 0,7.33334c0,16.81803 0,85.68046 0,85.68046z"/><path d="M146.53154,395.46548c0,0 0,-69.50145 0,-86.18046c0,-2.41562 0,-4.92838 0,-7.16667c0,-4.08349 -11.33333,-7.0868 -11.33333,-7.0868l41.68618,-0.16666c0,0 -10.83334,3.33016 -10.83334,7.5868c0,2.30032 0,4.87123 0,7.33334c0,16.81803 0,85.68046 0,85.68046z"/><path d="M212.53154,395.46548c0,0 0,-69.50145 0,-86.18046c0,-2.41562 0,-4.92838 0,-7.16667c0,-4.08349 -11.33333,-7.0868 -11.33333,-7.0868l41.68619,-0.16666c0,0 -10.83334,3.33016 -10.83334,7.5868c0,2.30032 0,4.87123 0,7.33334c0,16.81803 0,85.68046 0,85.68046z"/><path d="M273.53154,395.46548c0,0 0,-69.50145 0,-86.18046c0,-2.41562 0,-4.92838 0,-7.16667c0,-4.08349 -11.33333,-7.0868 -11.33333,-7.0868l41.68619,-0.16666c0,0 -10.83333,3.33016 -10.83333,7.5868c0,2.30032 0,4.87123 0,7.33334c0,16.81803 0,85.68046 0,85.68046z"/><path d="M337.53154,395.46548c0,0 0,-69.50145 0,-86.18046c0,-2.41562 0,-4.92838 0,-7.16667c0,-4.08349 -11.33333,-7.0868 -11.33333,-7.0868l41.68618,-0.16666c0,0 -10.83333,3.33016 -10.83333,7.5868c0,2.30032 0,4.87123 0,7.33334c0,16.81803 0,85.68046 0,85.68046z"/><path d="M398.03154,395.46548c0,0 0,-69.50145 0,-86.18046c0,-2.41562 0,-4.92838 0,-7.16667c0,-4.08349 -11.33333,-7.0868 -11.33333,-7.0868l41.68619,-0.16666c0,0 -10.83333,3.33016 -10.83333,7.5868c0,2.30032 0,4.87123 0,7.33334c0,16.81803 0,85.68046 0,85.68046z"/><path d="M459.03154,395.46548c0,0 0,-69.50145 0,-86.18046c0,-2.41562 0,-4.92838 0,-7.16667c0,-4.08349 -11.33333,-7.0868 -11.33333,-7.0868l41.68619,-0.16666c0,0 -10.83334,3.33016 -10.83334,7.5868c0,2.30032 0,4.87123 0,7.33334c0,16.81803 0,85.68046 0,85.68046z"/><path d="M523.03153,395.46548c0,0 0,-69.50145 0,-86.18046c0,-2.41562 0,-4.92838 0,-7.16667c0,-4.08349 -11.33333,-7.0868 -11.33333,-7.0868l41.68619,-0.16666c0,0 -10.83334,3.33016 -10.83334,7.5868c0,2.30032 0,4.87123 0,7.33334c0,16.81803 0,85.68046 0,85.68046z"/></g><g fill-opacity="0.08235" fill="#ffffff" stroke="none" stroke-width="0" stroke-linecap="butt"><path d="M-188.18317,299.86488v-27.02702h867.86787v27.02702z"/><path d="M26.53154,400.46548c0,0 0,-69.50145 0,-86.18046c0,-2.41562 0,-4.92838 0,-7.16667c0,-4.08349 -11.33333,-7.0868 -11.33333,-7.0868l41.68619,-0.16666c0,0 -10.83334,3.33016 -10.83334,7.5868c0,2.30032 0,4.87123 0,7.33334c0,16.81803 0,85.68046 0,85.68046z"/><path d="M87.53154,400.46548c0,0 0,-69.50145 0,-86.18046c0,-2.41562 0,-4.92838 0,-7.16667c0,-4.08349 -11.33333,-7.0868 -11.33333,-7.0868l41.68618,-0.16666c0,0 -10.83333,3.33016 -10.83333,7.5868c0,2.30032 0,4.87123 0,7.33334c0,16.81803 0,85.68046 0,85.68046z"/><path d="M151.53154,400.46548c0,0 0,-69.50145 0,-86.18046c0,-2.41562 0,-4.92838 0,-7.16667c0,-4.08349 -11.33333,-7.0868 -11.33333,-7.0868l41.68618,-0.16666c0,0 -10.83334,3.33016 -10.83334,7.5868c0,2.30032 0,4.87123 0,7.33334c0,16.81803 0,85.68046 0,85.68046z"/><path d="M217.53154,400.46548c0,0 0,-69.50145 0,-86.18046c0,-2.41562 0,-4.92838 0,-7.16667c0,-4.08349 -11.33333,-7.0868 -11.33333,-7.0868l41.68618,-0.16666c0,0 -10.83334,3.33016 -10.83334,7.5868c0,2.30032 0,4.87123 0,7.33334c0,16.81803 0,85.68046 0,85.68046z"/><path d="M278.53154,400.46548c0,0 0,-69.50145 0,-86.18046c0,-2.41562 0,-4.92838 0,-7.16667c0,-4.08349 -11.33333,-7.0868 -11.33333,-7.0868l41.68619,-0.16666c0,0 -10.83334,3.33016 -10.83334,7.5868c0,2.30032 0,4.87123 0,7.33334c0,16.81803 0,85.68046 0,85.68046z"/><path d="M342.53154,400.46548c0,0 0,-69.50145 0,-86.18046c0,-2.41562 0,-4.92838 0,-7.16667c0,-4.08349 -11.33333,-7.0868 -11.33333,-7.0868l41.68619,-0.16666c0,0 -10.83334,3.33016 -10.83334,7.5868c0,2.30032 0,4.87123 0,7.33334c0,16.81803 0,85.68046 0,85.68046z"/><path d="M403.03154,400.46548c0,0 0,-69.50145 0,-86.18046c0,-2.41562 0,-4.92838 0,-7.16667c0,-4.08349 -11.33333,-7.0868 -11.33333,-7.0868l41.68619,-0.16666c0,0 -10.83334,3.33016 -10.83334,7.5868c0,2.30032 0,4.87123 0,7.33334c0,16.81803 0,85.68046 0,85.68046z"/><path d="M464.03154,400.46548c0,0 0,-69.50145 0,-86.18046c0,-2.41562 0,-4.92838 0,-7.16667c0,-4.08349 -11.33333,-7.0868 -11.33333,-7.0868l41.68619,-0.16666c0,0 -10.83334,3.33016 -10.83334,7.5868c0,2.30032 0,4.87123 0,7.33334c0,16.81803 0,85.68046 0,85.68046z"/><path d="M528.03153,400.46548c0,0 0,-69.50145 0,-86.18046c0,-2.41562 0,-4.92838 0,-7.16667c0,-4.08349 -11.33333,-7.0868 -11.33333,-7.0868l41.68618,-0.16666c0,0 -10.83333,3.33016 -10.83333,7.5868c0,2.30032 0,4.87123 0,7.33334c0,16.81803 0,85.68046 0,85.68046z"/></g><text transform="translate(11.18543,253.12593) scale(0.5,0.5)" font-size="40" xml:space="preserve" fill="#ffffff" fill-rule="nonzero" stroke="none" stroke-width="1" stroke-linecap="butt" stroke-linejoin="miter" stroke-miterlimit="10" stroke-dasharray="" stroke-dashoffset="0" font-family="&quot;Source Code Pro&quot;, Sans Serif" font-weight="normal" text-anchor="start" style="mix-blend-mode: normal"><tspan x="0" dy="0">DEMO</tspan></text><path d="M80.92526,261.52284l119.42268,-75.57217" fill="none" stroke="#ffffff" stroke-width="7.5" stroke-linecap="round"/><path d="M203.14691,179.41975l20.52577,-55.97938l37.31959,130.61856l88.63402,-42.91753l49.44845,54.1134" fill="none" stroke="#ffffff" stroke-width="7.5" stroke-linecap="round"/></g></g></svg>