<svg version="1.1" xmlns="http://www.w3.org/2000/svg" xmlns:xlink="http://www.w3.org/1999/xlink" width="32.06113" height="64.18886" viewBox="0,0,32.06113,64.18886"><g transform="translate(-236.00354,-175.96942)"><g data-paper-data="{&quot;isPaintingLayer&quot;:true}" fill-rule="nonzero" stroke="none" stroke-width="0" stroke-linecap="butt" stroke-linejoin="miter" stroke-miterlimit="10" stroke-dasharray="" stroke-dashoffset="0" style="mix-blend-mode: normal"><path d="M236.00355,240.15828v-60.21746h32.06112v60.21746z" fill-opacity="0.01176" fill="#ffffff"/><path d="M236.00354,180.03219v-4.02863h4.02863v4.02863z" fill="none"/><path d="M239.99638,184.0036v-4.02863h4.02863v4.02863z" fill="none"/><path d="M236.00354,184.06481v-4.02863h4.02863v4.02863z" fill="none"/><path d="M239.99638,180.05966v-4.02863h4.02863v4.02863z" fill="none"/><path d="M244.00363,179.99805v-4.02863h4.02863v4.02863z" fill="none"/><path d="M247.99647,183.96946v-4.02863h4.02863v4.02863z" fill="#000000"/><path d="M244.00363,184.03067v-4.02863h4.02863v4.02863z" fill="#000000"/><path d="M247.99647,180.02552v-4.02863h4.02863v4.02863z" fill="none"/><path d="M236.0169,187.99173v-4.02863h4.02863v4.02863z" fill="none"/><path d="M240.00974,192.03632v-4.02863h4.02863v4.02863z" fill="#000000"/><path d="M236.0169,192.02435v-4.02863h4.02863v4.02863z" fill="none"/><path d="M240.00974,188.0192v-4.02863h4.02863v4.02863z" fill="#000000"/><path d="M244.01698,187.95759v-4.02863h4.02863v4.02863z" fill="#000000"/><path d="M248.00982,192.00218v-4.02863h4.02863v4.02863z" fill="#a0fff1"/><path d="M244.01698,191.99021v-4.02863h4.02863v4.02863z" fill="#5e5e5e"/><path d="M248.00982,187.98506v-4.02863h4.02863v4.02863z" fill="#5e5e5e"/><path d="M251.97301,180.06313v-4.02863h4.02863v4.02863z" fill="none"/><path d="M255.96584,184.03454v-4.02863h4.02863v4.02863z" fill="#000000"/><path d="M251.97301,184.09575v-4.02863h4.02863v4.02863z" fill="#000000"/><path d="M255.96584,180.0906v-4.02863h4.02863v4.02863z" fill="none"/><path d="M259.97306,180.02899v-4.02863h4.02863v4.02863z" fill="none"/><path d="M263.9659,184.0004v-4.02863h4.02863v4.02863z" fill="none"/><path d="M259.97306,184.06161v-4.02863h4.02863v4.02863z" fill="#ffffff"/><path d="M263.9659,180.05646v-4.02863h4.02863v4.02863z" fill="none"/><path d="M251.98635,188.02267v-4.02863h4.02863v4.02863z" fill="#5e5e5e"/><path d="M255.97919,192.06726v-4.02863h4.02863v4.02863z" fill="#a0fff1"/><path d="M251.98635,192.05529v-4.02863h4.02863v4.02863z" fill="#5e5e5e"/><path d="M255.97919,188.05014v-4.02863h4.02863v4.02863z" fill="#5e5e5e"/><path d="M259.98641,187.98853v-4.02863h4.02863v4.02863z" fill="#000000"/><path d="M263.97927,192.03312v-4.02863h4.02863v4.02863z" fill="none"/><path d="M259.98641,192.02115v-4.02863h4.02863v4.02863z" fill="#000000"/><path d="M263.97927,188.016v-4.02863h4.02863v4.02863z" fill="none"/><path d="M236.03452,196.02719v-4.02863h4.02863v4.02863z" fill="none"/><path d="M240.02736,199.99861v-4.02863h4.02863v4.02863z" fill="#000000"/><path d="M236.03452,200.05982v-4.02863h4.02863v4.02863z" fill="none"/><path d="M240.02736,196.05467v-4.02863h4.02863v4.02863z" fill="#000000"/><path d="M244.03454,195.99305v-4.02863h4.02863v4.02863z" fill="#5e5e5e"/><path d="M248.02738,199.96447v-4.02863h4.02863v4.02863z" fill="#5e5e5e"/><path d="M244.03454,200.02568v-4.02863h4.02863v4.02863z" fill="#000000"/><path d="M248.02738,196.02053v-4.02863h4.02863v4.02863z" fill="#00ffda"/><path d="M236.04786,203.98673v-4.02863h4.02863v4.02863z" fill="none"/><path d="M240.0407,208.03132v-4.02863h4.02863v4.02863z" fill="#000000"/><path d="M236.04786,208.01936v-4.02863h4.02863v4.02863z" fill="#323232"/><path d="M240.0407,204.01421v-4.02863h4.02863v4.02863z" fill="#323232"/><path d="M244.04795,203.95259v-4.02863h4.02863v4.02863z" fill="#000000"/><path d="M248.04079,207.99718v-4.02863h4.02863v4.02863z" fill="#000000"/><path d="M244.04795,207.98522v-4.02863h4.02863v4.02863z" fill="#000000"/><path d="M248.04079,203.98007v-4.02863h4.02863v4.02863z" fill="#000000"/><path d="M252.0039,196.05813v-4.02863h4.02863v4.02863z" fill="#5e5e5e"/><path d="M255.99674,200.02955v-4.02863h4.02863v4.02863z" fill="#5e5e5e"/><path d="M252.0039,200.09076v-4.02863h4.02863v4.02863z" fill="#5e5e5e"/><path d="M255.99674,196.08561v-4.02863h4.02863v4.02863z" fill="#00ffda"/><path d="M260.00397,196.02399v-4.02863h4.02863v4.02863z" fill="#000000"/><path d="M263.99683,199.99541v-4.02863h4.02863v4.02863z" fill="none"/><path d="M260.00397,200.05662v-4.02863h4.02863v4.02863z" fill="#4c4c4c"/><path d="M263.99683,196.05147v-4.02863h4.02863v4.02863z" fill="none"/><path d="M252.01733,204.01767v-4.02863h4.02863v4.02863z" fill="#000000"/><path d="M256.01012,208.06226v-4.02863h4.02863v4.02863z" fill="#000000"/><path d="M252.01733,208.0503v-4.02863h4.02863v4.02863z" fill="#838383"/><path d="M256.01012,204.04515v-4.02863h4.02863v4.02863z" fill="#000000"/><path d="M260.01739,203.98353v-4.02863h4.02863v4.02863z" fill="#000000"/><path d="M264.01021,208.02812v-4.02863h4.02863v4.02863z" fill="none"/><path d="M260.01739,208.01616v-4.02863h4.02863v4.02863z" fill="#323232"/><path d="M264.01021,204.01101v-4.02863h4.02863v4.02863z" fill="none"/><path d="M236.02933,212.05177v-4.02863h4.02863v4.02863z" fill="#000000"/><path d="M240.02218,216.02318v-4.02863h4.02863v4.02863z" fill="none"/><path d="M236.02933,216.08439v-4.02863h4.02863v4.02863z" fill="#000000"/><path d="M240.02218,212.07924v-4.02863h4.02863v4.02863z" fill="#323232"/><path d="M244.02942,212.01763v-4.02863h4.02863v4.02863z" fill="#000000"/><path d="M248.02226,215.98904v-4.02863h4.02863v4.02863z" fill="#000000"/><path d="M244.02942,216.05025v-4.02863h4.02863v4.02863z" fill="#000000"/><path d="M248.02226,212.0451v-4.02863h4.02863v4.02863z" fill="#000000"/><path d="M236.04276,220.01131v-4.02863h4.02863v4.02863z" fill="#000000"/><path d="M240.0356,224.0559v-4.02863h4.02863v4.02863z" fill="none"/><path d="M236.04276,224.04393v-4.02863h4.02863v4.02863z" fill="#323232"/><path d="M240.0356,220.03878v-4.02863h4.02863v4.02863z" fill="none"/><path d="M244.04285,219.97717v-4.02863h4.02863v4.02863z" fill="#000000"/><path d="M248.03569,224.02176v-4.02863h4.02863v4.02863z" fill="#000000"/><path d="M244.04285,224.00979v-4.02863h4.02863v4.02863z" fill="#323232"/><path d="M248.03569,220.00464v-4.02863h4.02863v4.02863z" fill="#000000"/><path d="M251.9988,212.08271v-4.02863h4.02863v4.02863z" fill="#000000"/><path d="M255.99163,216.05412v-4.02863h4.02863v4.02863z" fill="#000000"/><path d="M251.9988,216.11533v-4.02863h4.02863v4.02863z" fill="#a3a3a3"/><path d="M255.99163,212.11018v-4.02863h4.02863v4.02863z" fill="#000000"/><path d="M259.99886,212.04857v-4.02863h4.02863v4.02863z" fill="#000000"/><path d="M263.9917,216.01998v-4.02863h4.02863v4.02863z" fill="#000000"/><path d="M259.99886,216.08119v-4.02863h4.02863v4.02863z" fill="#323232"/><path d="M263.9917,212.07604v-4.02863h4.02863v4.02863z" fill="#323232"/><path d="M252.01215,220.04225v-4.02863h4.02863v4.02863z" fill="#000000"/><path d="M256.00503,224.08684v-4.02863h4.02863v4.02863z" fill="#323232"/><path d="M252.01215,224.07487v-4.02863h4.02863v4.02863z" fill="#000000"/><path d="M256.00503,220.06972v-4.02863h4.02863v4.02863z" fill="#000000"/><path d="M260.01223,220.00811v-4.02863h4.02863v4.02863z" fill="none"/><path d="M264.00507,224.0527v-4.02863h4.02863v4.02863z" fill="#000000"/><path d="M260.01223,224.04073v-4.02863h4.02863v4.02863z" fill="none"/><path d="M264.00507,220.03558v-4.02863h4.02863v4.02863z" fill="#000000"/><path d="M236.06031,228.04677v-4.02863h4.02863v4.02863z" fill="none"/><path d="M240.05315,232.01819v-4.02863h4.02863v4.02863z" fill="none"/><path d="M236.06031,232.0794v-4.02863h4.02863v4.02863z" fill="none"/><path d="M240.05315,228.07425v-4.02863h4.02863v4.02863z" fill="none"/><path d="M244.0604,228.01263v-4.02863h4.02863v4.02863z" fill="#000000"/><path d="M248.05324,231.98405v-4.02863h4.02863v4.02863z" fill="none"/><path d="M244.0604,232.04526v-4.02863h4.02863v4.02863z" fill="#000000"/><path d="M248.05324,228.04011v-4.02863h4.02863v4.02863z" fill="none"/><path d="M236.07365,236.00631v-4.02863h4.02863v4.02863z" fill="none"/><path d="M240.0665,240.0509v-4.02863h4.02863v4.02863z" fill="none"/><path d="M236.07365,240.03894v-4.02863h4.02863v4.02863z" fill="none"/><path d="M240.0665,236.03379v-4.02863h4.02863v4.02863z" fill="none"/><path d="M244.07374,235.97217v-4.02863h4.02863v4.02863z" fill="#000000"/><path d="M248.06658,240.01676v-4.02863h4.02863v4.02863z" fill="none"/><path d="M244.07374,240.0048v-4.02863h4.02863v4.02863z" fill="#323232"/><path d="M248.06658,235.99965v-4.02863h4.02863v4.02863z" fill="none"/><path d="M252.02978,228.07771v-4.02863h4.02863v4.02863z" fill="none"/><path d="M256.02257,232.04913v-4.02863h4.02863v4.02863z" fill="#323232"/><path d="M252.02978,232.11034v-4.02863h4.02863v4.02863z" fill="none"/><path d="M256.02257,228.10519v-4.02863h4.02863v4.02863z" fill="#000000"/><path d="M260.02979,228.04357v-4.02863h4.02863v4.02863z" fill="none"/><path d="M264.02263,232.01499v-4.02863h4.02863v4.02863z" fill="none"/><path d="M260.02979,232.0762v-4.02863h4.02863v4.02863z" fill="none"/><path d="M264.02263,228.07105v-4.02863h4.02863v4.02863z" fill="#323232"/><path d="M252.04312,236.03725v-4.02863h4.02863v4.02863z" fill="none"/><path d="M256.02257,235.92767v-4.02863h4.02863v4.02863z" fill="none"/><path d="M252.04312,240.06988v-4.02863h4.02863v4.02863z" fill="none"/><path d="M260.04317,236.00311v-4.02863h4.02863v4.02863z" fill="none"/><path d="M264.03601,240.0477v-4.02863h4.02863v4.02863z" fill="none"/><path d="M260.04317,240.03574v-4.02863h4.02863v4.02863z" fill="none"/><path d="M264.03601,236.03059v-4.02863h4.02863v4.02863z" fill="none"/></g></g></svg>