<svg version="1.1" xmlns="http://www.w3.org/2000/svg" xmlns:xlink="http://www.w3.org/1999/xlink" width="52.82193" height="123.09386" viewBox="0,0,52.82193,123.09386"><defs><linearGradient x1="41.06941" y1="164.02933" x2="41.06941" y2="185.346" gradientUnits="userSpaceOnUse" id="color-1"><stop offset="0" stop-color="#b1b1b1"/><stop offset="1" stop-color="#d3d3d3"/></linearGradient><linearGradient x1="41.06941" y1="164.02933" x2="41.06941" y2="185.346" gradientUnits="userSpaceOnUse" id="color-2"><stop offset="0" stop-color="#b1b1b1"/><stop offset="1" stop-color="#d3d3d3"/></linearGradient><linearGradient x1="40.75856" y1="167.49883" x2="40.75856" y2="181.87651" gradientUnits="userSpaceOnUse" id="color-3"><stop offset="0" stop-color="#898989"/><stop offset="1" stop-color="#bbbbbb"/></linearGradient><linearGradient x1="40.75856" y1="167.49883" x2="40.75856" y2="181.87651" gradientUnits="userSpaceOnUse" id="color-4"><stop offset="0" stop-color="#898989"/><stop offset="1" stop-color="#bbbbbb"/></linearGradient></defs><g transform="translate(-14.65844,-147.96412)"><g data-paper-data="{&quot;isPaintingLayer&quot;:true}" fill-rule="nonzero" stroke-linecap="butt" stroke-linejoin="miter" stroke-miterlimit="10" stroke-dasharray="" stroke-dashoffset="0" style="mix-blend-mode: normal"><path d="M15.40844,270.30798v-66.87401c0,0 5.26454,-5.35593 7.2363,-6.66609c1.07541,-0.71456 7.21259,-3.46397 10.10756,-4.55381c2.57229,-0.96837 5.67641,-0.84372 8.28394,-0.84372c1.42246,0 6.46777,-0.33187 9.8165,1.14239c2.70497,1.19085 5.7366,2.12563 7.86761,3.64295c2.64084,1.88033 8.01002,7.27828 8.01002,7.27828v66.87401z" fill="#474747" stroke="#000000" stroke-width="1.5"/><path d="M23.79461,222.00157c0,-0.69036 0.55964,-1.25 1.25,-1.25c0.69036,0 1.25,0.55964 1.25,1.25c0,0.69036 -0.55964,1.25 -1.25,1.25c-0.69036,0 -1.25,-0.55964 -1.25,-1.25z" fill="#cdcdcd" stroke="none" stroke-width="0.5"/><path d="M54.924,239.14013c0,1.23058 -0.90956,2.22816 -2.03156,2.22816c-1.122,0 -2.03156,-0.99758 -2.03156,-2.22816c0,-1.23058 0.90956,-2.22816 2.03156,-2.22816c1.122,0 2.03156,0.99758 2.03156,2.22816z" fill="#cdcdcd" stroke="none" stroke-width="0"/><path d="M61.06435,236.32674c0.27387,0.8216 -0.54773,1.09545 -0.54773,1.09545l-0.64531,0.13524c-3.23913,-0.36603 -3.85493,-1.83143 -3.33235,-4.82553c0.53898,-2.57857 2.4887,-3.54945 3.37498,-5.86644c1.2653,-3.30781 0.21232,-9.8822 -4.53219,-8.27113c0,0 -0.15288,0.05096 -0.34872,0.04297c-0.13609,0.25498 -0.27966,0.50216 -0.4295,0.73963c-1.03503,1.64028 -2.86746,2.82851 -2.16527,4.9107c1.29537,1.44299 2.29945,1.84959 4.28616,1.84282h0.09509c0,0 0.86603,0 0.86603,0.86603c0,0.86603 -0.86603,0.86603 -0.86603,0.86603h-0.09509c-2.64921,-0.0078 -4.13391,-0.72799 -5.79341,-2.7215c-0.41049,-1.23945 -0.70957,-1.48197 -0.36786,-2.74395c0.34773,-1.28423 1.27444,-2.1217 2.04176,-3.14245c2.01277,-2.67754 3.92588,-8.3162 -0.79487,-9.18885c-0.7828,-0.14471 -1.59983,-0.10319 -2.3882,0.00729c0,0 -0.85844,0.11446 -0.9729,-0.74398c-0.11446,-0.85844 0.74398,-0.9729 0.74398,-0.9729c0.97107,-0.12392 1.97328,-0.16561 2.93685,0.00728c4.44298,0.79724 4.90079,4.81487 3.73675,8.33019c5.49492,-0.91682 7.37116,6.37499 5.65594,10.81422c-0.84952,2.1987 -2.8384,3.1972 -3.28133,5.54439c-0.35823,2.00551 -0.5334,2.59025 1.80252,2.78169l-0.07477,-0.05494c0,0 0.82159,-0.27387 1.09546,0.54773z" fill="#cdcdcd" stroke="none" stroke-width="0.5"/><path d="M53.57622,223.19288c0,-0.4783 0.38774,-0.86603 0.86603,-0.86603c0.47829,0 0.86603,0.38773 0.86603,0.86603c0,0.4783 -0.38774,0.86603 -0.86603,0.86603c-0.47829,0 -0.86603,-0.38773 -0.86603,-0.86603z" fill="#cdcdcd" stroke="none" stroke-width="0.5"/><path d="M61.37362,232.22645c0,-0.4783 0.38774,-0.86603 0.86603,-0.86603c0.47829,0 0.86603,0.38773 0.86603,0.86603c0,0.4783 -0.38774,0.86603 -0.86603,0.86603c-0.47829,0 -0.86603,-0.38773 -0.86603,-0.86603z" fill="#cdcdcd" stroke="none" stroke-width="0.5"/><path d="M52.24496,230.51483c0,-0.4783 0.38774,-0.86603 0.86603,-0.86603c0.47829,0 0.86603,0.38773 0.86603,0.86603c0,0.4783 -0.38774,0.86603 -0.86603,0.86603c-0.47829,0 -0.86603,-0.38773 -0.86603,-0.86603z" fill="#cdcdcd" stroke="none" stroke-width="0.5"/><path d="M62.70488,247.56412c0,-0.4783 0.38773,-0.86603 0.86603,-0.86603c0.4783,0 0.86603,0.38773 0.86603,0.86603c0,0.36733 -0.2287,0.68125 -0.55148,0.80714c0.41385,0.18754 0.77879,0.49681 1.06146,0.97969c0.30446,0.52008 0.60151,1.24058 0.3285,1.77785c-0.47176,0.92839 -2.07773,0.56168 -2.78651,0.53368c-0.3185,-0.01258 -0.64183,-0.02466 -0.96817,-0.0386c-0.00377,0.37077 -0.04213,0.72957 -0.13091,1.06537c-0.15385,0.5819 -0.14133,1.46025 -0.70886,1.66072c-1.45393,0.51357 -1.81776,-0.33207 -1.94549,-1.26513c-0.38791,0.09061 -0.7979,0.08607 -1.20422,0.09736c-1.40211,2.607 -3.07363,5.19887 -4.89607,7.39318c0,0 -0.55442,0.66531 -1.21973,0.11089c-0.66531,-0.55442 -0.11089,-1.21973 -0.11089,-1.21973c1.92894,-2.30619 3.32391,-4.98572 4.79997,-7.59649c-0.2191,-0.39489 -0.36188,-0.78461 -0.40949,-1.21096c-0.74558,-0.28007 -1.81447,-0.72155 -2.04286,-1.504c-0.80196,-2.74741 1.21992,-2.269 2.94771,-1.38485c0.62628,-0.80373 1.59628,-1.53165 2.49322,-1.1136c-0.0184,-0.57857 -0.14553,-1.29699 0.31528,-1.56895c0.62921,-0.37134 1.61228,-0.16146 2.1697,0.31086c0.55758,0.47246 0.1226,2.01455 -0.01451,2.63873c-0.01256,0.0572 -0.02534,0.11608 -0.03837,0.17647c0.46796,-0.07346 0.94296,-0.11518 1.39483,-0.07824c-0.13397,-0.15248 -0.21521,-0.35243 -0.21521,-0.57136zM61.68311,249.88524c0.29106,0.01817 0.5834,0.0337 0.87781,0.04666c0.13324,0.00587 0.31486,0.00174 0.49709,0.00652c-0.03351,-0.02077 -0.06566,-0.03781 -0.09576,-0.04947c-0.3583,-0.13875 -0.8185,-0.0979 -1.27913,-0.00371z" fill="#bfbfbf" stroke="none" stroke-width="0.5"/><path d="M57.57001,256.21734c0,-0.4783 0.38773,-0.86603 0.86603,-0.86603c0.4783,0 0.86603,0.38773 0.86603,0.86603c0,0.4783 -0.38773,0.86603 -0.86603,0.86603c-0.4783,0 -0.86603,-0.38773 -0.86603,-0.86603z" fill="#cdcdcd" stroke="none" stroke-width="0.5"/><path d="M55.57312,243.47524c0,-0.4783 0.38773,-0.86603 0.86603,-0.86603c0.4783,0 0.86603,0.38773 0.86603,0.86603c0,0.4783 -0.38773,0.86603 -0.86603,0.86603c-0.4783,0 -0.86603,-0.38773 -0.86603,-0.86603z" fill="#cdcdcd" stroke="none" stroke-width="0.5"/><path d="M62.89506,242.52434c0,-0.4783 0.38773,-0.86603 0.86603,-0.86603c0.4783,0 0.86603,0.38773 0.86603,0.86603c0,0.4783 -0.38773,0.86603 -0.86603,0.86603c-0.4783,0 -0.86603,-0.38773 -0.86603,-0.86603z" fill="#cdcdcd" stroke="none" stroke-width="0.5"/><path d="M50.34315,250.79719c0,-0.4783 0.38773,-0.86603 0.86603,-0.86603c0.4783,0 0.86603,0.38773 0.86603,0.86603c0,0.4783 -0.38773,0.86603 -0.86603,0.86603c-0.4783,0 -0.86603,-0.38773 -0.86603,-0.86603z" fill="#cdcdcd" stroke="none" stroke-width="0.5"/><path d="M63.08525,256.21734c0,-0.4783 0.38773,-0.86603 0.86603,-0.86603c0.4783,0 0.86603,0.38773 0.86603,0.86603c0,0.4783 -0.38773,0.86603 -0.86603,0.86603c-0.4783,0 -0.86603,-0.38773 -0.86603,-0.86603z" fill="#cdcdcd" stroke="none" stroke-width="0.5"/><g stroke="none"><path d="M33.04722,263.8069v-60.60588l1.76808,-7.99375l0.25377,72.65995z" fill="#cdcdcd" stroke-width="0"/><path d="M31.35654,237.47734c0,1.36313 -1.00754,2.46818 -2.2504,2.46818c-1.24286,0 -2.25041,-1.10504 -2.25041,-2.46818c0,-1.36313 1.00755,-2.46818 2.25041,-2.46818c1.24286,0 2.2504,1.10504 2.2504,2.46818z" fill="#cdcdcd" stroke-width="0"/><path d="M23.84824,216.7576c0,-0.52982 0.4295,-0.95933 0.95932,-0.95933c0.52982,0 0.95932,0.42951 0.95932,0.95933c0,0.52982 -0.4295,0.95932 -0.95932,0.95932c-0.52982,0 -0.95932,-0.4295 -0.95932,-0.95932z" fill="#cdcdcd" stroke-width="0.5"/><path d="M30.16824,226.2376c0,-0.52982 0.4295,-0.95932 0.95932,-0.95932c0.52981,0 0.95933,0.4295 0.95933,0.95932c0,0.52982 -0.42951,0.95933 -0.95933,0.95933c-0.52981,0 -0.95932,-0.42951 -0.95932,-0.95933z" fill="#cdcdcd" stroke-width="0.5"/><path d="M18.89758,211.41679l0.18348,-1.30158c0.46992,-0.64043 1.25745,-1.97492 2.17142,-2.16784c1.15894,-0.24464 2.42024,0.63913 3.46683,1.39214c0.01416,-0.00855 0.02872,-0.017 0.0437,-0.02532c0.11685,-0.06492 0.22645,-0.1045 0.32858,-0.12456c0.10127,-0.18159 0.2184,-0.35328 0.36107,-0.5086c1.23356,-1.34294 3.45693,-1.15094 5.00257,-0.7111l0.77038,1.25739c0,0 0.18813,0.9407 -0.75257,1.12884c-0.80066,0.16013 -1.05614,-0.49751 -1.11445,-0.69684c-1.46005,-0.31687 -2.14894,0.24522 -2.71535,1.06877c0.21708,0.41445 0.41442,0.83787 0.47209,1.12157c0.21186,1.04215 -0.18311,2.88385 0.71479,3.76212c0.26437,0.25859 2.02768,1.28809 2.4587,1.00464c0.43441,-0.28569 0.2776,-1.00611 0.48877,-1.48123l-0.08267,0.17895c0,0 -0.00001,-0.95933 0.95932,-0.95933c0.95932,0 0.95932,0.95933 0.95932,0.95933l-0.08268,0.60028c-0.07842,0.17643 -0.24474,0.56457 -0.4333,0.97402c0.3464,-0.15401 0.69638,-0.29013 1.04396,-0.40891c0,0 0.91009,-0.30337 1.21346,0.60673c0.30337,0.9101 -0.60673,1.21346 -0.60673,1.21346c-2.92302,0.94283 -4.15788,3.72581 -5.25689,6.58833c0.05794,0.06831 0.08814,0.11867 0.08814,0.11867c0.64552,1.07613 1.36534,2.05068 1.50032,3.33822c0.06092,0.58106 0.00537,1.894 -0.09962,2.52302c-0.02379,0.14252 -0.26839,0.3257 -0.14899,0.40705c0.17375,0.11837 0.41685,-0.05505 0.62529,-0.08258l0.67105,-0.01547c0,0 0.95933,-0.00001 0.95933,0.95932c0,0.95933 -0.95933,0.95933 -0.95933,0.95933l-1.01428,-0.01547c-0.56402,-0.16797 -1.29102,-0.0732 -1.69205,-0.5039c-0.8145,-0.87477 -0.16212,-2.96223 -0.24861,-4.02193c-0.04202,-0.51492 -0.26567,-0.99568 -0.5364,-1.45276c-1.27431,3.13262 -2.88623,5.78803 -7.04431,5.46135c-0.75657,-0.05944 -2.01015,-0.69869 -2.64859,-0.98465c-1.75857,-3.35758 -1.743,-7.52486 2.67343,-8.49331l0.71481,-0.01863c0,0 0.95932,0 0.95932,0.95932c0,0.95933 -0.95932,0.95932 -0.95932,0.95932l-0.33854,-0.01863c-2.68858,0.46105 -2.69066,3.1523 -1.75057,5.20002c6.63448,2.04178 6.62794,-5.82702 8.84094,-9.88336c0.37851,-0.69379 0.893,-1.29877 1.48994,-1.82009c-1.21855,-0.18799 -2.51674,-0.90568 -3.15368,-1.55039c-0.99083,-1.0029 -1.12092,-2.47898 -1.34195,-3.90849c-0.37022,0.37095 -0.82667,0.68918 -1.42841,0.89844c-2.33681,0.81263 -5.26129,0.0358 -7.70822,0.26041c0,0 -0.95538,0.08685 -1.04224,-0.86853c-0.08685,-0.95539 0.86853,-1.04224 0.86853,-1.04224c1.21417,-0.10938 2.56329,0.04275 3.88937,0.10865c-0.75917,-0.12317 -0.75916,-0.94393 -0.75916,-0.94393zM21.62131,209.83022c-0.57257,0.05238 -0.6527,0.94682 -0.98858,1.41348l0.18349,0.17309c0,0 0.00001,0.90144 -0.87383,0.95668c1.07587,0.04207 2.12895,0.01044 3.07408,-0.28232c0.53658,-0.16621 0.87938,-0.46601 1.12928,-0.83169c-0.7526,-0.58082 -1.83047,-1.49272 -2.52445,-1.42923z" fill="#cdcdcd" stroke-width="0.5"/><path d="M24.26957,206.67679c0,-0.52982 0.4295,-0.95933 0.95932,-0.95933c0.52982,0 0.95932,0.42951 0.95932,0.95933c0,0.52982 -0.4295,0.95932 -0.95932,0.95932c-0.52982,0 -0.95932,-0.4295 -0.95932,-0.95932z" fill="#cdcdcd" stroke-width="0.5"/><path d="M19.21358,218.47411c0,-0.52982 0.4295,-0.95932 0.95932,-0.95932c0.52982,0 0.95932,0.4295 0.95932,0.95932c0,0.52982 -0.4295,0.95933 -0.95932,0.95933c-0.52982,0 -0.95932,-0.42951 -0.95932,-0.95933z" fill="#cdcdcd" stroke-width="0.5"/><path d="M29.54756,245.84944c0.95932,0 0.95932,0.95932 0.95932,0.95932v0.52667c-0.02255,1.69258 -0.29314,2.40699 -1.21445,3.79747c0,0 -0.41176,0.61765 -1.05419,0.40409l-0.01545,0.00771c-0.26402,0.14667 -0.52803,0.29335 -0.79205,0.44002c-0.12602,0.09457 -0.26644,0.14602 -0.3819,0.174c-0.1512,0.04174 -0.36026,0.06886 -0.57004,-0.0022l-0.35487,-0.03824c-0.73793,-0.31012 -1.45902,-0.72441 -2.10773,-1.22953c-0.00732,0.01139 -0.01465,0.0228 -0.02199,0.03419c0.05874,0.08177 0.1147,0.16466 0.16771,0.24843c0.94284,1.48996 1.06808,3.96391 0.74383,5.6207c-0.40877,2.08867 -3.00237,5.62775 -5.48567,3.46987c-1.31977,-1.14682 -0.74029,-3.45724 -0.47058,-4.81119c0.74528,-1.51409 1.81462,-2.85264 2.80338,-4.22831c-0.57231,-0.72586 -1.31132,-1.02749 -2.1896,-0.2362c-0.46748,0.42118 -0.31752,1.21797 -0.45696,1.83156c0,0 -0.21571,0.93475 -1.15047,0.71904c-0.93475,-0.21571 -0.71904,-1.15046 -0.71904,-1.15046c0.15862,-0.67827 0.41503,-2.28784 1.0177,-2.80311c1.43056,-1.22312 3.18832,-0.86798 4.51834,0.10793c-1.03336,-1.24678 -1.62501,-2.81615 -1.33693,-4.60299c0.27944,-1.73323 2.74977,-3.52326 4.53428,-2.44931c1.23541,0.74349 0.64138,2.35209 0.39291,3.27071c-0.33717,1.24658 -0.82162,2.3447 -1.38469,3.37335c0.44374,0.37364 0.98575,0.67613 1.63699,0.95985c0.22519,-0.12511 0.45038,-0.25021 0.67558,-0.37532l0.66887,-0.33545c0,0 0.04497,-0.02249 0.11946,-0.04686c0.4221,-0.6766 0.52826,-1.06572 0.50891,-2.14976v-0.52667c0,0 0,-0.95932 0.95932,-0.95932zM23.81272,247.61064c0.0653,-0.1787 0.1253,-0.3601 0.17943,-0.54453c0.16479,-0.56149 0.3534,-1.11573 0.52385,-1.67552c0.11829,-0.38852 0.79696,-1.19438 0.39291,-1.15329c-1.56038,0.1587 -1.6375,1.06052 -1.37107,2.39145c0.07247,0.36204 0.16368,0.68736 0.27487,0.98189zM22.63879,252.95955c-0.65498,0.98207 -1.30296,1.99338 -1.87449,3.11388c-0.08848,0.43995 -0.22784,0.87266 -0.26544,1.31984c-0.11232,1.33597 0.65991,2.11343 1.70032,0.88633c0.72915,-0.85999 0.91287,-2.07101 0.91174,-3.14951c-0.00043,-0.41206 -0.16414,-1.29004 -0.47212,-2.17054z" fill="#bfbfbf" stroke-width="0.5"/><path d="M17.42291,241.75277c0,-0.52982 0.4295,-0.95933 0.95932,-0.95933c0.52982,0 0.95932,0.42951 0.95932,0.95933c0,0.52982 -0.4295,0.95932 -0.95932,0.95932c-0.52982,0 -0.95932,-0.4295 -0.95932,-0.95932z" fill="#cdcdcd" stroke-width="0.5"/><path d="M26.37624,255.34076c0,-0.52982 0.4295,-0.95932 0.95932,-0.95932c0.52982,0 0.95932,0.4295 0.95932,0.95932c0,0.52982 -0.4295,0.95933 -0.95932,0.95933c-0.52982,0 -0.95932,-0.42951 -0.95932,-0.95933z" fill="#cdcdcd" stroke-width="0.5"/></g><path d="M45.91408,267.86723l0.25377,-72.65995l1.76809,7.99375v60.60589z" data-paper-data="{&quot;index&quot;:null}" fill="#cdcdcd" stroke="none" stroke-width="0"/><path d="M19.08868,183.73322c0,0 -0.60479,-0.70649 -0.60479,-2.57442c0,-2.60566 0,-9.76492 0,-13.95734c0,-1.88639 0.94079,-2.16414 0.94079,-2.16414c0,0 0.14065,-1.00799 1.95792,-1.00799c8.50866,0 33.14843,0 38.44613,0c1.95582,0 2.54941,0.80639 2.54941,0.80639c0,0 1.27678,0.95236 1.27678,2.49262c0,2.34477 0,9.28011 0,13.83046c0,2.43511 -1.74718,3.24641 -1.74718,3.24641c0,0 -0.62413,0.94079 -2.96721,0.94079c-5.5209,0 -28.33437,0 -37.05039,0c-2.12022,0 -2.80145,-1.61278 -2.80145,-1.61278z" fill="url(#color-1)" stroke="url(#color-2)" stroke-width="2.5"/><path d="M22.21504,181.87651v-14.37768h37.08703v14.37768z" fill="url(#color-3)" stroke="url(#color-4)" stroke-width="2.5"/><text transform="translate(22.37702,178.28206) scale(0.31154,0.31154)" font-size="40" xml:space="preserve" fill="#ffffff" fill-rule="nonzero" stroke="none" stroke-width="1" stroke-linecap="butt" stroke-linejoin="miter" stroke-miterlimit="10" stroke-dasharray="" stroke-dashoffset="0" font-family="&quot;Source Code Pro&quot;, Sans Serif" font-weight="normal" text-anchor="start" style="mix-blend-mode: normal"><tspan x="0" dy="0">Enter</tspan></text><text transform="translate(22.37702,160.61265) scale(0.31154,0.31154)" font-size="40" xml:space="preserve" fill="#ffffff" fill-rule="nonzero" stroke="#000000" stroke-width="2" stroke-linecap="butt" stroke-linejoin="miter" stroke-miterlimit="10" stroke-dasharray="" stroke-dashoffset="0" font-family="&quot;SourceCodePro-ExtraBold&quot;, Sans Serif" font-weight="normal" text-anchor="start" style="mix-blend-mode: normal"><tspan x="0" dy="0">PRESS</tspan></text></g></g></svg>