<svg version="1.1" xmlns="http://www.w3.org/2000/svg" xmlns:xlink="http://www.w3.org/1999/xlink" width="146.16403" height="1098.57354" viewBox="0,0,146.16403,1098.57354"><g transform="translate(-341.50745,47.75974)"><g data-paper-data="{&quot;isPaintingLayer&quot;:true}" fill="#ffffff" fill-rule="nonzero" stroke="none" stroke-width="0" stroke-linecap="butt" stroke-linejoin="miter" stroke-miterlimit="10" stroke-dasharray="" stroke-dashoffset="0" style="mix-blend-mode: normal"><path d="M395.86791,485.17351l80.9887,562.87147l-19.24346,2.76883l-80.9887,-562.87147z" data-paper-data="{&quot;index&quot;:null}"/><path d="M452.27213,98.73546l-46.52527,483.245l-28.84005,-94.72019l22.22321,-449.22212z" data-paper-data="{&quot;index&quot;:null}"/><path d="M432.49993,-12.08477l18.31529,109.69956l-48.81479,136.4308l-5.3214,-281.80532z" data-paper-data="{&quot;index&quot;:null}"/><path d="M385.15986,343.46423l-3.57807,-11.09201l6.44052,-18.96375l6.79833,44.72584z"/><path d="M352.95726,331.6566l-11.44981,-41.86338l20.39498,5.3671l6.79833,44.72584z"/><path d="M434.35828,330.22538l6.79833,-44.72584l6.44052,18.96375l-3.57807,11.09201z" data-paper-data="{&quot;index&quot;:null}"/><path d="M460.47817,311.97724l6.79833,-44.72584l20.39498,-5.3671l-11.44981,41.86338z" data-paper-data="{&quot;index&quot;:null}"/></g></g></svg>