<svg version="1.1" xmlns="http://www.w3.org/2000/svg" xmlns:xlink="http://www.w3.org/1999/xlink" width="52.82192" height="80.43764" viewBox="0,0,52.82192,80.43764"><g transform="translate(-14.65844,-190.62034)"><g data-paper-data="{&quot;isPaintingLayer&quot;:true}" fill-rule="nonzero" stroke-linecap="butt" stroke-linejoin="miter" stroke-miterlimit="10" stroke-dasharray="" stroke-dashoffset="0" style="mix-blend-mode: normal"><path d="M15.40844,270.30798v-66.87401c0,0 5.26454,-5.35593 7.2363,-6.66609c1.07541,-0.71456 7.21259,-3.46397 10.10756,-4.55381c2.57229,-0.96837 5.67641,-0.84372 8.28394,-0.84372c1.42246,0 6.46777,-0.33187 9.8165,1.14239c2.70497,1.19085 5.7366,2.12563 7.86761,3.64295c2.64084,1.88033 8.01002,7.27828 8.01002,7.27828v66.87401z" fill="#afafaf" stroke="#000000" stroke-width="1.5"/><path d="M39.07489,270.26821v-78.96962h2.79981v78.96962z" fill="#cdcdcd" stroke="none" stroke-width="0"/><path d="M50.0331,235.96071c0,1.77617 -1.31282,3.21604 -2.93227,3.21604c-1.61945,0 -2.93228,-1.43987 -2.93228,-3.21604c0,-1.77617 1.31283,-3.21604 2.93228,-3.21604c1.61945,0 2.93227,1.43987 2.93227,3.21604z" fill="#cdcdcd" stroke="none" stroke-width="0"/><path d="M36.87192,235.96071c0,1.77617 -1.31282,3.21604 -2.93227,3.21604c-1.61945,0 -2.93228,-1.43987 -2.93228,-3.21604c0,-1.77617 1.31283,-3.21604 2.93228,-3.21604c1.61945,0 2.93227,1.43987 2.93227,3.21604z" fill="#cdcdcd" stroke="none" stroke-width="0"/><path d="M58.89584,231.89998c0.39529,1.18586 -0.79057,1.58113 -0.79057,1.58113l-0.93142,0.1952c-4.67524,-0.52831 -5.56405,-2.64342 -4.80979,-6.96498c0.77794,-3.72181 3.59209,-5.12314 4.87132,-8.46739c1.82629,-4.77437 0.30645,-14.26358 -6.54159,-11.93822c0,0 -0.22066,0.07355 -0.50333,0.06202c-0.19642,0.36803 -0.40365,0.7248 -0.61993,1.06756c-1.49392,2.36751 -4.13878,4.08256 -3.12526,7.08791c1.86968,2.08276 3.31893,2.66962 6.18648,2.65986h0.13725c0,0 1.25,0 1.25,1.25c0,1.25 -1.25,1.25 -1.25,1.25h-0.13725c-3.82377,-0.01126 -5.96673,-1.05075 -8.36198,-3.92811c-0.59248,-1.78897 -1.02416,-2.13902 -0.53096,-3.96051c0.5019,-1.85361 1.83948,-3.06238 2.947,-4.53569c2.90516,-3.86465 5.66646,-12.00328 -1.14728,-13.26283c-1.12987,-0.20887 -2.30913,-0.14894 -3.44703,0.01052c0,0 -1.23904,0.1652 -1.40424,-1.07383c-0.16521,-1.23904 1.07383,-1.40424 1.07383,-1.40424c1.40161,-0.17886 2.84816,-0.23904 4.23893,0.01051c6.41283,1.1507 7.07361,6.94959 5.39348,12.02347c7.93116,-1.3233 10.63925,9.20141 8.16357,15.60882c-1.22617,3.17352 -4.09683,4.61471 -4.73615,8.00256c-0.51705,2.89468 -0.76989,3.73867 2.60169,4.01498l-0.10792,-0.0793c0,0 1.18585,-0.39529 1.58114,0.79057z" fill="#cdcdcd" stroke="none" stroke-width="0.5"/><path d="M48.08777,212.94308c0,-0.69036 0.55965,-1.25 1.25,-1.25c0.69035,0 1.25,0.55964 1.25,1.25c0,0.69036 -0.55965,1.25 -1.25,1.25c-0.69035,0 -1.25,-0.55964 -1.25,-1.25z" fill="#cdcdcd" stroke="none" stroke-width="0.5"/><path d="M59.34223,225.98178c0,-0.69036 0.55965,-1.25 1.25,-1.25c0.69035,0 1.25,0.55964 1.25,1.25c0,0.69036 -0.55965,1.25 -1.25,1.25c-0.69035,0 -1.25,-0.55964 -1.25,-1.25z" fill="#cdcdcd" stroke="none" stroke-width="0.5"/><path d="M46.16628,223.51129c0,-0.69036 0.55965,-1.25 1.25,-1.25c0.69035,0 1.25,0.55964 1.25,1.25c0,0.69036 -0.55965,1.25 -1.25,1.25c-0.69035,0 -1.25,-0.55964 -1.25,-1.25z" fill="#cdcdcd" stroke="none" stroke-width="0.5"/><path d="M23.79461,222.00155c0,-0.69036 0.55964,-1.25 1.25,-1.25c0.69036,0 1.25,0.55964 1.25,1.25c0,0.69036 -0.55964,1.25 -1.25,1.25c-0.69036,0 -1.25,-0.55964 -1.25,-1.25z" fill="#cdcdcd" stroke="none" stroke-width="0.5"/><path d="M27.08859,208.96284c0,-0.69036 0.55964,-1.25 1.25,-1.25c0.69036,0 1.25,0.55964 1.25,1.25c0,0.69036 -0.55964,1.25 -1.25,1.25c-0.69036,0 -1.25,-0.55964 -1.25,-1.25z" fill="#cdcdcd" stroke="none" stroke-width="0.5"/><path d="M35.32357,221.3153c0,-0.69036 0.55965,-1.25 1.25,-1.25c0.69035,0 1.25,0.55964 1.25,1.25c0,0.69036 -0.55965,1.25 -1.25,1.25c-0.69035,0 -1.25,-0.55964 -1.25,-1.25z" fill="#cdcdcd" stroke="none" stroke-width="0.5"/><path d="M20.63787,202.00375l0.23908,-1.69597c0.6123,-0.83449 1.63845,-2.57332 2.82937,-2.82471c1.5101,-0.31877 3.15357,0.83278 4.51728,1.81397c0.01845,-0.01114 0.03742,-0.02215 0.05694,-0.03299c0.15225,-0.08459 0.29507,-0.13617 0.42814,-0.16231c0.13195,-0.23662 0.28458,-0.46033 0.47047,-0.66271c1.60734,-1.74986 4.50439,-1.49967 6.51836,-0.92656l1.0038,1.63838c0,0 0.24514,1.22573 -0.98059,1.47088c-1.04326,0.20865 -1.37615,-0.64826 -1.45214,-0.90799c-1.90245,-0.41288 -2.80007,0.31952 -3.53811,1.39261c0.28285,0.54003 0.53999,1.09175 0.61514,1.4614c0.27606,1.35792 -0.23859,3.75766 0.93138,4.90206c0.34447,0.33694 2.64207,1.67839 3.20369,1.30904c0.56603,-0.37225 0.36172,-1.31097 0.63687,-1.93005l-0.10773,0.23317c0,0 0,-1.25 1.25,-1.25c1.25,0 1.25,1.25 1.25,1.25l-0.10773,0.78217c-0.10218,0.22989 -0.31889,0.73563 -0.56459,1.26914c0.45136,-0.20068 0.90738,-0.37804 1.36028,-0.5328c0,0 1.18585,-0.39529 1.58114,0.79057c0.39529,1.18586 -0.79057,1.58114 -0.79057,1.58114c-3.80871,1.22851 -5.41773,4.85473 -6.84974,8.58461c0.07549,0.08901 0.11485,0.15463 0.11485,0.15463c0.84112,1.4022 1.77904,2.67204 1.95491,4.34971c0.07937,0.75713 0.007,2.46789 -0.1298,3.28751c-0.03099,0.1857 -0.34972,0.42439 -0.19414,0.53038c0.2264,0.15423 0.54316,-0.07173 0.81475,-0.1076l0.87439,-0.02016c0,0 1.25,0 1.25,1.25c0,1.25 -1.25,1.25 -1.25,1.25l-1.32161,-0.02016c-0.73492,-0.21886 -1.6822,-0.09539 -2.20474,-0.65659c-1.06129,-1.13983 -0.21125,-3.85978 -0.32394,-5.24058c-0.05476,-0.67094 -0.34617,-1.29737 -0.69893,-1.89296c-1.66042,4.08182 -3.76077,7.54182 -9.17875,7.11615c-0.98581,-0.07745 -2.61924,-0.9104 -3.45112,-1.283c-2.29142,-4.37494 -2.27114,-9.8049 3.48348,-11.0668l0.9314,-0.02428c0,0 1.25,0 1.25,1.25c0,1.25 -1.25,1.25 -1.25,1.25l-0.44111,-0.02427c-3.50323,0.60074 -3.50594,4.10746 -2.281,6.77564c8.64474,2.66044 8.63622,-7.59262 11.51977,-12.87805c0.4932,-0.90401 1.16358,-1.6923 1.9414,-2.37158c-1.58778,-0.24495 -3.27931,-1.1801 -4.10925,-2.02016c-1.29105,-1.30678 -1.46057,-3.23012 -1.74857,-5.09278c-0.4824,0.48335 -1.07715,0.89801 -1.86122,1.17068c-3.04487,1.05886 -6.85547,0.04664 -10.04383,0.33931c0,0 -1.24487,0.11317 -1.35804,-1.1317c-0.11317,-1.24487 1.1317,-1.35804 1.1317,-1.35804c1.58207,-0.14252 3.33997,0.05571 5.06786,0.14157c-0.9892,-0.16049 -0.9892,-1.22994 -0.9892,-1.22994zM24.1869,199.93644c-0.74606,0.06825 -0.85047,1.23371 -1.28812,1.84177l0.23908,0.22554c0,0 0,1.17458 -1.1386,1.24655c1.40186,0.05481 2.77403,0.01361 4.00554,-0.36786c0.69917,-0.21658 1.14583,-0.60721 1.47146,-1.0837c-0.98064,-0.75681 -2.38511,-1.94502 -3.28937,-1.86229z" fill="#cdcdcd" stroke="none" stroke-width="0.5"/><path d="M27.63759,195.82752c0,-0.69036 0.55964,-1.25 1.25,-1.25c0.69036,0 1.25,0.55964 1.25,1.25c0,0.69036 -0.55964,1.25 -1.25,1.25c-0.69036,0 -1.25,-0.55964 -1.25,-1.25z" fill="#cdcdcd" stroke="none" stroke-width="0.5"/><path d="M21.04962,211.19946c0,-0.69036 0.55964,-1.25 1.25,-1.25c0.69036,0 1.25,0.55964 1.25,1.25c0,0.69036 -0.55964,1.25 -1.25,1.25c-0.69036,0 -1.25,-0.55964 -1.25,-1.25z" fill="#cdcdcd" stroke="none" stroke-width="0.5"/><path d="M34.51482,246.86958c1.25,0 1.25,1.25 1.25,1.25v0.68625c-0.02938,2.20543 -0.38196,3.13631 -1.58243,4.94811c0,0 -0.53653,0.8048 -1.37362,0.52654l-0.02014,0.01004c-0.34401,0.19112 -0.68802,0.38224 -1.03204,0.57335c-0.16421,0.12323 -0.34717,0.19026 -0.49762,0.22672c-0.19701,0.05439 -0.46942,0.08972 -0.74276,-0.00286l-0.4624,-0.04982c-0.96152,-0.40409 -1.90111,-0.94391 -2.74638,-1.60209c-0.00954,0.01485 -0.01909,0.0297 -0.02865,0.04454c0.07654,0.10655 0.14946,0.21456 0.21853,0.32371c1.22852,1.94142 1.39171,5.16499 0.96921,7.32379c-0.53263,2.72154 -3.91209,7.33297 -7.14784,4.52125c-1.71966,-1.49431 -0.9646,-4.50479 -0.61317,-6.269c0.97111,-1.97286 2.36445,-3.717 3.65281,-5.50949c-0.74572,-0.9458 -1.70864,-1.33883 -2.85305,-0.30777c-0.60913,0.5488 -0.41373,1.58702 -0.59542,2.38652c0,0 -0.28107,1.21799 -1.49906,0.93691c-1.21799,-0.28107 -0.93691,-1.49906 -0.93691,-1.49906c0.20668,-0.88378 0.54079,-2.98105 1.32607,-3.65245c1.86402,-1.59372 4.1544,-1.13098 5.88741,0.14063c-1.34648,-1.62455 -2.1174,-3.66945 -1.74203,-5.9977c0.36412,-2.2584 3.58296,-4.59081 5.90818,-3.19146c1.60975,0.96877 0.83572,3.06477 0.51196,4.26174c-0.43934,1.6243 -1.07057,3.05515 -1.80425,4.39549c0.57819,0.48685 1.28444,0.88099 2.13301,1.25068c0.29343,-0.16302 0.58685,-0.32603 0.88028,-0.48905l0.87153,-0.43709c0,0 0.05859,-0.0293 0.15566,-0.06106c0.55,-0.88162 0.68833,-1.38864 0.66311,-2.80114v-0.68625c0,0 0,-1.25 1.25,-1.25zM27.04231,249.16442c0.08509,-0.23284 0.16327,-0.46921 0.2338,-0.70952c0.21472,-0.73162 0.46049,-1.4538 0.68258,-2.18321c0.15414,-0.50624 1.03843,-1.55628 0.51196,-1.50274c-2.03318,0.20679 -2.13366,1.38186 -1.78651,3.11607c0.09443,0.47174 0.21328,0.89564 0.35816,1.2794zM25.51268,256.13407c-0.85344,1.27963 -1.69776,2.59738 -2.44247,4.05739c-0.11529,0.57325 -0.29688,1.13708 -0.34587,1.71975c-0.14635,1.74077 0.85986,2.7538 2.21552,1.15489c0.95009,-1.12057 1.18947,-2.69852 1.18799,-4.10381c-0.00057,-0.53691 -0.21387,-1.68093 -0.61517,-2.82822z" fill="#bfbfbf" stroke="none" stroke-width="0.5"/><path d="M18.71637,241.5316c0,-0.69036 0.55964,-1.25 1.25,-1.25c0.69036,0 1.25,0.55964 1.25,1.25c0,0.69036 -0.55964,1.25 -1.25,1.25c-0.69036,0 -1.25,-0.55964 -1.25,-1.25z" fill="#cdcdcd" stroke="none" stroke-width="0.5"/><path d="M30.38258,259.23679c0,-0.69036 0.55964,-1.25 1.25,-1.25c0.69036,0 1.25,0.55964 1.25,1.25c0,0.69036 -0.55964,1.25 -1.25,1.25c-0.69036,0 -1.25,-0.55964 -1.25,-1.25z" fill="#cdcdcd" stroke="none" stroke-width="0.5"/><path d="M61.26372,248.11958c0,-0.69036 0.55964,-1.25 1.25,-1.25c0.69036,0 1.25,0.55964 1.25,1.25c0,0.53019 -0.33009,0.98329 -0.79598,1.16499c0.59734,0.27069 1.12407,0.71708 1.53207,1.41404c0.43944,0.75067 0.8682,1.79061 0.47415,2.56608c-0.68092,1.34 -2.99891,0.81071 -4.02194,0.7703c-0.45971,-0.01816 -0.92639,-0.03559 -1.39742,-0.05571c-0.00544,0.53515 -0.06081,1.05303 -0.18895,1.53771c-0.22206,0.83989 -0.20399,2.10767 -1.02314,2.39702c-2.09855,0.74127 -2.62369,-0.47929 -2.80805,-1.82604c-0.55989,0.13079 -1.15166,0.12423 -1.73812,0.14052c-2.02375,3.76284 -4.43636,7.50384 -7.06679,10.67103c0,0 -0.80023,0.96028 -1.76051,0.16005c-0.96028,-0.80023 -0.16005,-1.76051 -0.16005,-1.76051c2.78415,-3.32867 4.7976,-7.19619 6.92809,-10.96448c-0.31624,-0.56997 -0.52232,-1.13248 -0.59104,-1.74785c-1.07614,-0.40424 -2.61893,-1.04145 -2.94859,-2.17081c-1.15752,-3.9655 1.76079,-3.27498 4.25461,-1.99884c0.90395,-1.16007 2.30401,-2.21073 3.59861,-1.60733c-0.02656,-0.83508 -0.21005,-1.87203 0.45506,-2.26456c0.90818,-0.53598 2.3271,-0.23304 3.13166,0.44869c0.80479,0.68193 0.17695,2.90772 -0.02094,3.80864c-0.01813,0.08256 -0.03657,0.16754 -0.05538,0.25471c0.67544,-0.10603 1.36103,-0.16624 2.01325,-0.11293c-0.19337,-0.22009 -0.31062,-0.50869 -0.31062,-0.82468zM59.78894,251.46979c0.42011,0.02622 0.84206,0.04864 1.26699,0.06735c0.19231,0.00847 0.45446,0.00251 0.71748,0.00941c-0.04837,-0.02998 -0.09477,-0.05458 -0.13821,-0.0714c-0.51715,-0.20027 -1.18139,-0.1413 -1.84625,-0.00536z" fill="#bfbfbf" stroke="none" stroke-width="0.5"/><path d="M53.85225,260.60929c0,-0.69036 0.55964,-1.25 1.25,-1.25c0.69036,0 1.25,0.55964 1.25,1.25c0,0.69036 -0.55964,1.25 -1.25,1.25c-0.69036,0 -1.25,-0.55964 -1.25,-1.25z" fill="#cdcdcd" stroke="none" stroke-width="0.5"/><path d="M50.97001,242.21785c0,-0.69036 0.55964,-1.25 1.25,-1.25c0.69036,0 1.25,0.55964 1.25,1.25c0,0.69036 -0.55964,1.25 -1.25,1.25c-0.69036,0 -1.25,-0.55964 -1.25,-1.25z" fill="#cdcdcd" stroke="none" stroke-width="0.5"/><path d="M61.53822,240.84536c0,-0.69036 0.55964,-1.25 1.25,-1.25c0.69036,0 1.25,0.55964 1.25,1.25c0,0.69036 -0.55964,1.25 -1.25,1.25c-0.69036,0 -1.25,-0.55964 -1.25,-1.25z" fill="#cdcdcd" stroke="none" stroke-width="0.5"/><path d="M43.42128,252.78606c0,-0.69036 0.55964,-1.25 1.25,-1.25c0.69036,0 1.25,0.55964 1.25,1.25c0,0.69036 -0.55964,1.25 -1.25,1.25c-0.69036,0 -1.25,-0.55964 -1.25,-1.25z" fill="#cdcdcd" stroke="none" stroke-width="0.5"/><path d="M61.81272,260.60929c0,-0.69036 0.55964,-1.25 1.25,-1.25c0.69036,0 1.25,0.55964 1.25,1.25c0,0.69036 -0.55964,1.25 -1.25,1.25c-0.69036,0 -1.25,-0.55964 -1.25,-1.25z" fill="#cdcdcd" stroke="none" stroke-width="0.5"/></g></g></svg>