<svg version="1.1" xmlns="http://www.w3.org/2000/svg" xmlns:xlink="http://www.w3.org/1999/xlink" width="32.06113" height="64.18885" viewBox="0,0,32.06113,64.18885"><g transform="translate(-236.00354,-175.96943)"><g data-paper-data="{&quot;isPaintingLayer&quot;:true}" fill-rule="nonzero" stroke="none" stroke-width="0" stroke-linecap="butt" stroke-linejoin="miter" stroke-miterlimit="10" stroke-dasharray="" stroke-dashoffset="0" style="mix-blend-mode: normal"><path d="M236.00355,240.15828v-60.21746h32.06112v60.21746z" fill-opacity="0.01176" fill="#ffffff"/><path d="M236.00354,180.0322v-4.02863h4.02863v4.02863z" fill="none"/><path d="M239.99638,184.00362v-4.02863h4.02863v4.02863z" fill="none"/><path d="M236.00354,184.06479v-4.02863h4.02863v4.02863z" fill="none"/><path d="M239.99638,180.05968v-4.02863h4.02863v4.02863z" fill="none"/><path d="M244.00363,179.99807v-4.02863h4.02863v4.02863z" fill="none"/><path d="M247.99647,183.96943v-4.02863h4.02863v4.02863z" fill="#000000"/><path d="M244.00363,184.03067v-4.02863h4.02863v4.02863z" fill="#000000"/><path d="M247.99647,180.02549v-4.02863h4.02863v4.02863z" fill="none"/><path d="M236.0169,187.99172v-4.02863h4.02863v4.02863z" fill="none"/><path d="M240.00974,192.03631v-4.02863h4.02863v4.02863z" fill="#000000"/><path d="M236.0169,192.02432v-4.02863h4.02863v4.02863z" fill="none"/><path d="M240.00974,188.01921v-4.02863h4.02863v4.02863z" fill="#000000"/><path d="M244.01698,187.95761v-4.02863h4.02863v4.02863z" fill="#000000"/><path d="M248.00982,192.0022v-4.02863h4.02863v4.02863z" fill="#a0fff1"/><path d="M244.01698,191.9902v-4.02863h4.02863v4.02863z" fill="#5e5e5e"/><path d="M248.00982,187.98508v-4.02863h4.02863v4.02863z" fill="#5e5e5e"/><path d="M251.97301,180.0631v-4.02863h4.02863v4.02863z" fill="none"/><path d="M255.96584,184.03452v-4.02863h4.02863v4.02863z" fill="#000000"/><path d="M251.97301,184.09577v-4.02863h4.02863v4.02863z" fill="#000000"/><path d="M255.96584,180.09058v-4.02863h4.02863v4.02863z" fill="none"/><path d="M259.97306,180.02897v-4.02863h4.02863v4.02863z" fill="none"/><path d="M263.9659,184.00041v-4.02863h4.02863v4.02863z" fill="none"/><path d="M259.97306,184.06158v-4.02863h4.02863v4.02863z" fill="#ffffff"/><path d="M263.9659,180.05646v-4.02863h4.02863v4.02863z" fill="none"/><path d="M251.98635,188.02269v-4.02863h4.02863v4.02863z" fill="#5e5e5e"/><path d="M255.97919,192.06728v-4.02863h4.02863v4.02863z" fill="#a0fff1"/><path d="M251.98635,192.0553v-4.02863h4.02863v4.02863z" fill="#5e5e5e"/><path d="M255.97919,188.05011v-4.02863h4.02863v4.02863z" fill="#5e5e5e"/><path d="M259.98641,187.9885v-4.02863h4.02863v4.02863z" fill="#000000"/><path d="M263.97927,192.03309v-4.02863h4.02863v4.02863z" fill="none"/><path d="M259.98641,192.02117v-4.02863h4.02863v4.02863z" fill="#000000"/><path d="M263.97927,188.01599v-4.02863h4.02863v4.02863z" fill="none"/><path d="M236.03452,196.02718v-4.02863h4.02863v4.02863z" fill="none"/><path d="M240.02736,199.99862v-4.02863h4.02863v4.02863z" fill="#000000"/><path d="M236.03452,200.05979v-4.02863h4.02863v4.02863z" fill="none"/><path d="M240.02736,196.05467v-4.02863h4.02863v4.02863z" fill="#000000"/><path d="M244.03454,195.99307v-4.02863h4.02863v4.02863z" fill="#5e5e5e"/><path d="M248.02738,199.96449v-4.02863h4.02863v4.02863z" fill="#5e5e5e"/><path d="M244.03454,200.02566v-4.02863h4.02863v4.02863z" fill="#000000"/><path d="M248.02738,196.02055v-4.02863h4.02863v4.02863z" fill="#00ffda"/><path d="M236.04786,203.98671v-4.02863h4.02863v4.02863z" fill="none"/><path d="M240.0407,208.0313v-4.02863h4.02863v4.02863z" fill="#000000"/><path d="M236.04786,208.01938v-4.02863h4.02863v4.02863z" fill="#323232"/><path d="M240.0407,204.0142v-4.02863h4.02863v4.02863z" fill="#323232"/><path d="M244.04795,203.95259v-4.02863h4.02863v4.02863z" fill="#000000"/><path d="M248.04079,207.99718v-4.02863h4.02863v4.02863z" fill="#000000"/><path d="M244.04795,207.98519v-4.02863h4.02863v4.02863z" fill="#000000"/><path d="M248.04079,203.98008v-4.02863h4.02863v4.02863z" fill="#000000"/><path d="M252.0039,196.05815v-4.02863h4.02863v4.02863z" fill="#5e5e5e"/><path d="M255.99674,200.02952v-4.02863h4.02863v4.02863z" fill="#5e5e5e"/><path d="M252.0039,200.09076v-4.02863h4.02863v4.02863z" fill="#5e5e5e"/><path d="M255.99674,196.08558v-4.02863h4.02863v4.02863z" fill="#00ffda"/><path d="M260.00397,196.02396v-4.02863h4.02863v4.02863z" fill="#000000"/><path d="M263.99683,199.99539v-4.02863h4.02863v4.02863z" fill="none"/><path d="M260.00397,200.05664v-4.02863h4.02863v4.02863z" fill="#4c4c4c"/><path d="M263.99683,196.05145v-4.02863h4.02863v4.02863z" fill="none"/><path d="M252.01733,204.01769v-4.02863h4.02863v4.02863z" fill="#000000"/><path d="M256.01012,208.06228v-4.02863h4.02863v4.02863z" fill="#000000"/><path d="M252.01733,208.05028v-4.02863h4.02863v4.02863z" fill="#838383"/><path d="M256.01012,204.04517v-4.02863h4.02863v4.02863z" fill="#000000"/><path d="M260.01739,203.9835v-4.02863h4.02863v4.02863z" fill="#000000"/><path d="M264.01021,208.02809v-4.02863h4.02863v4.02863z" fill="none"/><path d="M260.01739,208.01617v-4.02863h4.02863v4.02863z" fill="#323232"/><path d="M264.01021,204.01098v-4.02863h4.02863v4.02863z" fill="none"/><path d="M236.02933,212.05179v-4.02863h4.02863v4.02863z" fill="#000000"/><path d="M240.02218,216.02315v-4.02863h4.02863v4.02863z" fill="none"/><path d="M236.02933,216.0844v-4.02863h4.02863v4.02863z" fill="#000000"/><path d="M240.02218,212.07921v-4.02863h4.02863v4.02863z" fill="#323232"/><path d="M244.02942,212.0176v-4.02863h4.02863v4.02863z" fill="#000000"/><path d="M248.02226,215.98904v-4.02863h4.02863v4.02863z" fill="#000000"/><path d="M244.02942,216.05027v-4.02863h4.02863v4.02863z" fill="#000000"/><path d="M248.02226,212.04509v-4.02863h4.02863v4.02863z" fill="#000000"/><path d="M236.04276,220.01133v-4.02863h4.02863v4.02863z" fill="#000000"/><path d="M240.0356,224.05592v-4.02863h4.02863v4.02863z" fill="none"/><path d="M236.04276,224.04393v-4.02863h4.02863v4.02863z" fill="#323232"/><path d="M240.0356,220.03875v-4.02863h4.02863v4.02863z" fill="none"/><path d="M244.04285,219.97714v-4.02863h4.02863v4.02863z" fill="#000000"/><path d="M248.03569,224.02173v-4.02863h4.02863v4.02863z" fill="#000000"/><path d="M244.04285,224.00981v-4.02863h4.02863v4.02863z" fill="#323232"/><path d="M248.03569,220.00462v-4.02863h4.02863v4.02863z" fill="#000000"/><path d="M251.9988,212.0827v-4.02863h4.02863v4.02863z" fill="#000000"/><path d="M255.99163,216.05413v-4.02863h4.02863v4.02863z" fill="#000000"/><path d="M251.9988,216.1153v-4.02863h4.02863v4.02863z" fill="#a3a3a3"/><path d="M255.99163,212.11019v-4.02863h4.02863v4.02863z" fill="#000000"/><path d="M259.99886,212.04858v-4.02863h4.02863v4.02863z" fill="#000000"/><path d="M263.9917,216.02v-4.02863h4.02863v4.02863z" fill="#000000"/><path d="M259.99886,216.08117v-4.02863h4.02863v4.02863z" fill="#323232"/><path d="M263.9917,212.07606v-4.02863h4.02863v4.02863z" fill="#323232"/><path d="M252.01215,220.04222v-4.02863h4.02863v4.02863z" fill="#000000"/><path d="M256.00503,224.08682v-4.02863h4.02863v4.02863z" fill="#323232"/><path d="M252.01215,224.07489v-4.02863h4.02863v4.02863z" fill="#000000"/><path d="M256.00503,220.06971v-4.02863h4.02863v4.02863z" fill="#000000"/><path d="M260.01223,220.00811v-4.02863h4.02863v4.02863z" fill="none"/><path d="M264.00507,224.0527v-4.02863h4.02863v4.02863z" fill="#000000"/><path d="M260.01223,224.0407v-4.02863h4.02863v4.02863z" fill="none"/><path d="M264.00507,220.0356v-4.02863h4.02863v4.02863z" fill="#000000"/><path d="M236.06031,228.04679v-4.02863h4.02863v4.02863z" fill="none"/><path d="M240.05315,232.01821v-4.02863h4.02863v4.02863z" fill="none"/><path d="M236.06031,232.07938v-4.02863h4.02863v4.02863z" fill="none"/><path d="M240.05315,228.07427v-4.02863h4.02863v4.02863z" fill="none"/><path d="M244.0604,228.0126v-4.02863h4.02863v4.02863z" fill="#000000"/><path d="M248.05324,231.98402v-4.02863h4.02863v4.02863z" fill="none"/><path d="M244.0604,232.04527v-4.02863h4.02863v4.02863z" fill="#000000"/><path d="M248.05324,228.04008v-4.02863h4.02863v4.02863z" fill="none"/><path d="M236.07365,236.00632v-4.02863h4.02863v4.02863z" fill="none"/><path d="M240.0665,240.05091v-4.02863h4.02863v4.02863z" fill="none"/><path d="M236.07365,240.03891v-4.02863h4.02863v4.02863z" fill="none"/><path d="M240.0665,236.03381v-4.02863h4.02863v4.02863z" fill="none"/><path d="M244.07374,235.97219v-4.02863h4.02863v4.02863z" fill="#000000"/><path d="M248.06658,240.01678v-4.02863h4.02863v4.02863z" fill="none"/><path d="M244.07374,240.0048v-4.02863h4.02863v4.02863z" fill="#323232"/><path d="M248.06658,235.99962v-4.02863h4.02863v4.02863z" fill="none"/><path d="M252.02977,228.07768v-4.02863h4.02863v4.02863z" fill="none"/><path d="M256.02257,232.04912v-4.02863h4.02863v4.02863z" fill="#000000"/><path d="M252.02977,232.11036v-4.02863h4.02863v4.02863z" fill="none"/><path d="M256.02257,228.10517v-4.02863h4.02863v4.02863z" fill="#000000"/><path d="M260.02979,228.04357v-4.02863h4.02863v4.02863z" fill="none"/><path d="M264.02263,232.015v-4.02863h4.02863v4.02863z" fill="none"/><path d="M260.02979,232.07617v-4.02863h4.02863v4.02863z" fill="none"/><path d="M264.02263,228.07106v-4.02863h4.02863v4.02863z" fill="#323232"/><path d="M252.04312,236.03722v-4.02863h4.02863v4.02863z" fill="none"/><path d="M256.03594,240.08181v-4.02863h4.02863v4.02863z" fill="#323232"/><path d="M252.04312,240.06989v-4.02863h4.02863v4.02863z" fill="none"/><path d="M256.03594,236.0647v-4.02863h4.02863v4.02863z" fill="#000000"/><path d="M260.04317,236.00309v-4.02863h4.02863v4.02863z" fill="none"/><path d="M264.03601,240.04769v-4.02863h4.02863v4.02863z" fill="none"/><path d="M260.04317,240.03576v-4.02863h4.02863v4.02863z" fill="none"/><path d="M264.03601,236.03058v-4.02863h4.02863v4.02863z" fill="none"/></g></g></svg>