<svg version="1.1" xmlns="http://www.w3.org/2000/svg" xmlns:xlink="http://www.w3.org/1999/xlink" width="102.125" height="452.0496" viewBox="0,0,102.125,452.0496"><g transform="translate(-31.03953,46.0248)"><g data-paper-data="{&quot;isPaintingLayer&quot;:true}" fill="#ffffff" fill-rule="nonzero" stroke="none" stroke-width="0" stroke-linecap="butt" stroke-linejoin="miter" stroke-miterlimit="10" stroke-dasharray="" stroke-dashoffset="0" style="mix-blend-mode: normal"><path d="M59.24225,173.27072l33.32586,231.61474l-7.91845,1.13934l-33.32586,-231.61474z" data-paper-data="{&quot;index&quot;:null}"/><path d="M82.4519,14.25618l-19.14458,198.84942l-11.86733,-38.9762l9.14458,-184.84942z" data-paper-data="{&quot;index&quot;:null}"/><path d="M74.31588,-31.34499l7.53652,45.14003l-20.08669,56.13961l-2.18969,-115.95945z" data-paper-data="{&quot;index&quot;:null}"/><path d="M61.53953,349.75001l-2.5,-7.75l4.5,-13.25l4.75,31.25z"/><path d="M39.03953,341.50001l-8,-29.25l14.25,3.75l4.75,31.25z"/><path d="M95.91453,340.50001l4.75,-31.25l4.5,13.25l-2.5,7.75z" data-paper-data="{&quot;index&quot;:null}"/><path d="M114.16453,327.75001l4.75,-31.25l14.25,-3.75l-8,29.25z" data-paper-data="{&quot;index&quot;:null}"/></g></g></svg>