<svg version="1.1" xmlns="http://www.w3.org/2000/svg" xmlns:xlink="http://www.w3.org/1999/xlink" width="872.86787" height="132.62763" viewBox="0,0,872.86787,132.62763"><g transform="translate(193.18317,-267.83786)"><g data-paper-data="{&quot;isPaintingLayer&quot;:true}" fill-opacity="0.08235" fill="#ffffff" fill-rule="nonzero" stroke="none" stroke-width="0" stroke-linecap="butt" stroke-linejoin="miter" stroke-miterlimit="10" stroke-dasharray="" stroke-dashoffset="0" style="mix-blend-mode: normal"><g><path d="M-193.18317,294.86488v-27.02702h867.86787v27.02702z"/><path d="M21.53154,395.46548c0,0 0,-69.50145 0,-86.18046c0,-2.41562 0,-4.92838 0,-7.16667c0,-4.08349 -11.33333,-7.0868 -11.33333,-7.0868l41.68619,-0.16666c0,0 -10.83334,3.33016 -10.83334,7.5868c0,2.30032 0,4.87123 0,7.33334c0,16.81803 0,85.68046 0,85.68046z"/><path d="M82.53154,395.46548c0,0 0,-69.50145 0,-86.18046c0,-2.41562 0,-4.92838 0,-7.16667c0,-4.08349 -11.33333,-7.0868 -11.33333,-7.0868l41.68618,-0.16666c0,0 -10.83333,3.33016 -10.83333,7.5868c0,2.30032 0,4.87123 0,7.33334c0,16.81803 0,85.68046 0,85.68046z"/><path d="M146.53154,395.46548c0,0 0,-69.50145 0,-86.18046c0,-2.41562 0,-4.92838 0,-7.16667c0,-4.08349 -11.33333,-7.0868 -11.33333,-7.0868l41.68618,-0.16666c0,0 -10.83334,3.33016 -10.83334,7.5868c0,2.30032 0,4.87123 0,7.33334c0,16.81803 0,85.68046 0,85.68046z"/><path d="M212.53154,395.46548c0,0 0,-69.50145 0,-86.18046c0,-2.41562 0,-4.92838 0,-7.16667c0,-4.08349 -11.33333,-7.0868 -11.33333,-7.0868l41.68619,-0.16666c0,0 -10.83334,3.33016 -10.83334,7.5868c0,2.30032 0,4.87123 0,7.33334c0,16.81803 0,85.68046 0,85.68046z"/><path d="M273.53154,395.46548c0,0 0,-69.50145 0,-86.18046c0,-2.41562 0,-4.92838 0,-7.16667c0,-4.08349 -11.33333,-7.0868 -11.33333,-7.0868l41.68619,-0.16666c0,0 -10.83333,3.33016 -10.83333,7.5868c0,2.30032 0,4.87123 0,7.33334c0,16.81803 0,85.68046 0,85.68046z"/><path d="M337.53154,395.46548c0,0 0,-69.50145 0,-86.18046c0,-2.41562 0,-4.92838 0,-7.16667c0,-4.08349 -11.33333,-7.0868 -11.33333,-7.0868l41.68618,-0.16666c0,0 -10.83333,3.33016 -10.83333,7.5868c0,2.30032 0,4.87123 0,7.33334c0,16.81803 0,85.68046 0,85.68046z"/><path d="M398.03154,395.46548c0,0 0,-69.50145 0,-86.18046c0,-2.41562 0,-4.92838 0,-7.16667c0,-4.08349 -11.33333,-7.0868 -11.33333,-7.0868l41.68619,-0.16666c0,0 -10.83333,3.33016 -10.83333,7.5868c0,2.30032 0,4.87123 0,7.33334c0,16.81803 0,85.68046 0,85.68046z"/><path d="M459.03154,395.46548c0,0 0,-69.50145 0,-86.18046c0,-2.41562 0,-4.92838 0,-7.16667c0,-4.08349 -11.33333,-7.0868 -11.33333,-7.0868l41.68619,-0.16666c0,0 -10.83334,3.33016 -10.83334,7.5868c0,2.30032 0,4.87123 0,7.33334c0,16.81803 0,85.68046 0,85.68046z"/><path d="M523.03153,395.46548c0,0 0,-69.50145 0,-86.18046c0,-2.41562 0,-4.92838 0,-7.16667c0,-4.08349 -11.33333,-7.0868 -11.33333,-7.0868l41.68619,-0.16666c0,0 -10.83334,3.33016 -10.83334,7.5868c0,2.30032 0,4.87123 0,7.33334c0,16.81803 0,85.68046 0,85.68046z"/></g><g><path d="M-188.18317,299.86488v-27.02702h867.86787v27.02702z"/><path d="M26.53154,400.46548c0,0 0,-69.50145 0,-86.18046c0,-2.41562 0,-4.92838 0,-7.16667c0,-4.08349 -11.33333,-7.0868 -11.33333,-7.0868l41.68619,-0.16666c0,0 -10.83334,3.33016 -10.83334,7.5868c0,2.30032 0,4.87123 0,7.33334c0,16.81803 0,85.68046 0,85.68046z"/><path d="M87.53154,400.46548c0,0 0,-69.50145 0,-86.18046c0,-2.41562 0,-4.92838 0,-7.16667c0,-4.08349 -11.33333,-7.0868 -11.33333,-7.0868l41.68618,-0.16666c0,0 -10.83333,3.33016 -10.83333,7.5868c0,2.30032 0,4.87123 0,7.33334c0,16.81803 0,85.68046 0,85.68046z"/><path d="M151.53154,400.46548c0,0 0,-69.50145 0,-86.18046c0,-2.41562 0,-4.92838 0,-7.16667c0,-4.08349 -11.33333,-7.0868 -11.33333,-7.0868l41.68618,-0.16666c0,0 -10.83334,3.33016 -10.83334,7.5868c0,2.30032 0,4.87123 0,7.33334c0,16.81803 0,85.68046 0,85.68046z"/><path d="M217.53154,400.46548c0,0 0,-69.50145 0,-86.18046c0,-2.41562 0,-4.92838 0,-7.16667c0,-4.08349 -11.33333,-7.0868 -11.33333,-7.0868l41.68618,-0.16666c0,0 -10.83334,3.33016 -10.83334,7.5868c0,2.30032 0,4.87123 0,7.33334c0,16.81803 0,85.68046 0,85.68046z"/><path d="M278.53154,400.46548c0,0 0,-69.50145 0,-86.18046c0,-2.41562 0,-4.92838 0,-7.16667c0,-4.08349 -11.33333,-7.0868 -11.33333,-7.0868l41.68619,-0.16666c0,0 -10.83334,3.33016 -10.83334,7.5868c0,2.30032 0,4.87123 0,7.33334c0,16.81803 0,85.68046 0,85.68046z"/><path d="M342.53154,400.46548c0,0 0,-69.50145 0,-86.18046c0,-2.41562 0,-4.92838 0,-7.16667c0,-4.08349 -11.33333,-7.0868 -11.33333,-7.0868l41.68619,-0.16666c0,0 -10.83334,3.33016 -10.83334,7.5868c0,2.30032 0,4.87123 0,7.33334c0,16.81803 0,85.68046 0,85.68046z"/><path d="M403.03154,400.46548c0,0 0,-69.50145 0,-86.18046c0,-2.41562 0,-4.92838 0,-7.16667c0,-4.08349 -11.33333,-7.0868 -11.33333,-7.0868l41.68619,-0.16666c0,0 -10.83334,3.33016 -10.83334,7.5868c0,2.30032 0,4.87123 0,7.33334c0,16.81803 0,85.68046 0,85.68046z"/><path d="M464.03154,400.46548c0,0 0,-69.50145 0,-86.18046c0,-2.41562 0,-4.92838 0,-7.16667c0,-4.08349 -11.33333,-7.0868 -11.33333,-7.0868l41.68619,-0.16666c0,0 -10.83334,3.33016 -10.83334,7.5868c0,2.30032 0,4.87123 0,7.33334c0,16.81803 0,85.68046 0,85.68046z"/><path d="M528.03153,400.46548c0,0 0,-69.50145 0,-86.18046c0,-2.41562 0,-4.92838 0,-7.16667c0,-4.08349 -11.33333,-7.0868 -11.33333,-7.0868l41.68618,-0.16666c0,0 -10.83333,3.33016 -10.83333,7.5868c0,2.30032 0,4.87123 0,7.33334c0,16.81803 0,85.68046 0,85.68046z"/></g></g></g></svg>