<svg version="1.1" xmlns="http://www.w3.org/2000/svg" xmlns:xlink="http://www.w3.org/1999/xlink" width="425" height="88" viewBox="0,0,425,88"><defs><linearGradient x1="240.97499" y1="257.80627" x2="240.97499" y2="340.80628" gradientUnits="userSpaceOnUse" id="color-1"><stop offset="0" stop-color="#ffffff"/><stop offset="1" stop-color="#1a1a1a"/></linearGradient><linearGradient x1="48.945" y1="264.45295" x2="48.945" y2="291.86958" gradientUnits="userSpaceOnUse" id="color-2"><stop offset="0" stop-color="#ffffff" stop-opacity="0.49804"/><stop offset="1" stop-color="#00373c"/></linearGradient><linearGradient x1="48.945" y1="264.45295" x2="48.945" y2="291.86958" gradientUnits="userSpaceOnUse" id="color-3"><stop offset="0" stop-color="#ffffff"/><stop offset="1" stop-color="#1a1a1a"/></linearGradient><linearGradient x1="48.945" y1="275.66128" x2="48.945" y2="280.66128" gradientUnits="userSpaceOnUse" id="color-4"><stop offset="0" stop-color="#ffffff"/><stop offset="1" stop-color="#1a1a1a"/></linearGradient><linearGradient x1="48.945" y1="266.46128" x2="48.945" y2="271.46128" gradientUnits="userSpaceOnUse" id="color-5"><stop offset="0" stop-color="#ffffff"/><stop offset="1" stop-color="#1a1a1a"/></linearGradient><linearGradient x1="58.345" y1="275.66128" x2="58.345" y2="280.66128" gradientUnits="userSpaceOnUse" id="color-6"><stop offset="0" stop-color="#ffffff"/><stop offset="1" stop-color="#1a1a1a"/></linearGradient><linearGradient x1="48.77167" y1="289.69574" x2="49.11833" y2="284.70777" gradientUnits="userSpaceOnUse" id="color-7"><stop offset="0" stop-color="#ffffff"/><stop offset="1" stop-color="#1a1a1a"/></linearGradient><linearGradient x1="39.51643" y1="279.91839" x2="39.51643" y2="274.91839" gradientUnits="userSpaceOnUse" id="color-8"><stop offset="0" stop-color="#ffffff"/><stop offset="1" stop-color="#1a1a1a"/></linearGradient></defs><g transform="translate(-28.47499,-255.30627)"><g data-paper-data="{&quot;isPaintingLayer&quot;:true}" fill-rule="nonzero" stroke-linecap="butt" stroke-linejoin="miter" stroke-miterlimit="10" stroke-dasharray="" stroke-dashoffset="0" style="mix-blend-mode: normal"><path d="M30.97499,340.80628v-83h420v83z" fill-opacity="0.49804" fill="#000000" stroke="url(#color-1)" stroke-width="5"/><g><path d="M35.23667,278.16128c0,-7.5709 6.13743,-13.70833 13.70833,-13.70833c7.5709,0 13.70833,6.13743 13.70833,13.70833c0,7.5709 -6.13743,13.70833 -13.70833,13.70833c-7.5709,0 -13.70833,-6.13743 -13.70833,-13.70833z" fill="url(#color-2)" stroke="url(#color-3)" stroke-width="2.5"/><path d="M46.645,278.16128c0,-1.27026 1.02974,-2.3 2.3,-2.3c1.27025,0 2.3,1.02974 2.3,2.3c0,1.27026 -1.02974,2.3 -2.3,2.3c-1.27025,0 -2.3,-1.02974 -2.3,-2.3z" fill-opacity="0.49804" fill="#000000" stroke="url(#color-4)" stroke-width="5"/><path d="M48.445,268.96128c0,-0.27614 0.22386,-0.5 0.5,-0.5c0.27614,0 0.5,0.22386 0.5,0.5c0,0.27614 -0.22386,0.5 -0.5,0.5c-0.27614,0 -0.5,-0.22386 -0.5,-0.5z" fill-opacity="0.49804" fill="#000000" stroke="url(#color-5)" stroke-width="2.5"/><path d="M57.845,278.16128c0,-0.27614 0.22386,-0.5 0.5,-0.5c0.27614,0 0.5,0.22386 0.5,0.5c0,0.27614 -0.22386,0.5 -0.5,0.5c-0.27614,0 -0.5,-0.22386 -0.5,-0.5z" fill-opacity="0.49804" fill="#000000" stroke="url(#color-6)" stroke-width="2.5"/><path d="M49.4438,287.23641c-0.01915,0.27548 -0.25799,0.48328 -0.53346,0.46413c-0.27548,-0.01915 -0.48328,-0.25799 -0.46413,-0.53346c0.01915,-0.27548 0.25799,-0.48328 0.53346,-0.46413c0.27548,0.01915 0.48328,0.25799 0.46413,0.53346z" fill-opacity="0.49804" fill="#000000" stroke="url(#color-7)" stroke-width="2.5"/><path d="M40.01643,277.41839c0,0.27614 -0.22386,0.5 -0.5,0.5c-0.27614,0 -0.5,-0.22386 -0.5,-0.5c0,-0.27614 0.22386,-0.5 0.5,-0.5c0.27614,0 0.5,0.22386 0.5,0.5z" fill-opacity="0.49804" fill="#000000" stroke="url(#color-8)" stroke-width="2.5"/></g><text transform="translate(149.64431,283.93003) scale(0.5,0.5)" font-size="40" xml:space="preserve" fill="#00fff9" fill-rule="nonzero" stroke="none" stroke-width="1" stroke-linecap="butt" stroke-linejoin="miter" stroke-miterlimit="10" stroke-dasharray="" stroke-dashoffset="0" font-family="&quot;Source Code Pro&quot;, Sans Serif" font-weight="normal" text-anchor="start" style="mix-blend-mode: normal"><tspan x="0" dy="0">Move?</tspan></text><text transform="translate(69.11875,283.93003) scale(0.5,0.5)" font-size="40" xml:space="preserve" fill="#ffffff" fill-rule="nonzero" stroke="none" stroke-width="1" stroke-linecap="butt" stroke-linejoin="miter" stroke-miterlimit="10" stroke-dasharray="" stroke-dashoffset="0" font-family="&quot;Source Code Pro&quot;, Sans Serif" font-weight="normal" text-anchor="start" style="mix-blend-mode: normal"><tspan x="0" dy="0">How to</tspan></text><text transform="translate(87.50022,330.02619) scale(0.32532,0.32532)" font-size="40" xml:space="preserve" fill="#ffffff" fill-rule="nonzero" stroke="none" stroke-width="1" stroke-linecap="butt" stroke-linejoin="miter" stroke-miterlimit="10" stroke-dasharray="" stroke-dashoffset="0" font-family="&quot;Source Code Pro&quot;, Sans Serif" font-weight="normal" text-anchor="start" style="mix-blend-mode: normal"><tspan x="0" dy="0">Press any key to continue.</tspan></text><text transform="translate(297.00022,330.02619) scale(0.32532,0.32532)" font-size="40" xml:space="preserve" fill="#fbff00" fill-rule="nonzero" stroke="none" stroke-width="1" stroke-linecap="butt" stroke-linejoin="miter" stroke-miterlimit="10" stroke-dasharray="" stroke-dashoffset="0" font-family="&quot;Source Code Pro&quot;, Sans Serif" font-weight="normal" text-anchor="start" style="mix-blend-mode: normal"><tspan x="0" dy="0">Or wait a moment..</tspan></text><text transform="translate(68.80927,299.74334) scale(0.36855,0.36855)" font-size="40" xml:space="preserve" fill="#ffffff" fill-rule="nonzero" stroke="none" stroke-width="1" stroke-linecap="butt" stroke-linejoin="miter" stroke-miterlimit="10" stroke-dasharray="" stroke-dashoffset="0" font-family="&quot;Source Code Pro&quot;, Sans Serif" font-weight="normal" text-anchor="start" style="mix-blend-mode: normal"><tspan x="0" dy="0">Arrow keys, or WAD will work. Try it out!</tspan></text><text transform="translate(68.52512,312.13489) scale(0.2745,0.2745)" font-size="40" xml:space="preserve" fill="#ffffff" fill-rule="nonzero" stroke="none" stroke-width="1" stroke-linecap="butt" stroke-linejoin="miter" stroke-miterlimit="10" stroke-dasharray="" stroke-dashoffset="0" font-family="&quot;Source Code Pro&quot;, Sans Serif" font-weight="normal" text-anchor="start" style="mix-blend-mode: normal"><tspan x="0" dy="0">Spacebar also works for jumping,</tspan></text><text transform="translate(283.74548,312.13489) scale(0.2745,0.2745)" font-size="40" xml:space="preserve" fill="#4eff00" fill-rule="nonzero" stroke="none" stroke-width="1" stroke-linecap="butt" stroke-linejoin="miter" stroke-miterlimit="10" stroke-dasharray="" stroke-dashoffset="0" font-family="&quot;Source Code Pro&quot;, Sans Serif" font-weight="normal" text-anchor="start" style="mix-blend-mode: normal"><tspan x="0" dy="0">r key is for restarting</tspan></text></g></g></svg>