<svg version="1.1" xmlns="http://www.w3.org/2000/svg" xmlns:xlink="http://www.w3.org/1999/xlink" width="583.77635" height="531.7224" viewBox="0,0,583.77635,531.7224"><defs><linearGradient x1="483.60184" y1="-34.55282" x2="440.59685" y2="287.98457" gradientUnits="userSpaceOnUse" id="color-1"><stop offset="0" stop-color="#ffffff"/><stop offset="1" stop-color="#ffffff" stop-opacity="0"/></linearGradient><linearGradient x1="458.40081" y1="-63.65075" x2="415.39582" y2="258.88663" gradientUnits="userSpaceOnUse" id="color-2"><stop offset="0" stop-color="#ffffff"/><stop offset="1" stop-color="#ffffff" stop-opacity="0"/></linearGradient><linearGradient x1="398.48873" y1="-22.32254" x2="356.56825" y2="305.49656" gradientUnits="userSpaceOnUse" id="color-3"><stop offset="0" stop-color="#ffffff"/><stop offset="1" stop-color="#ffffff" stop-opacity="0"/></linearGradient><linearGradient x1="365.385" y1="-94.56828" x2="337.32147" y2="227.9691" gradientUnits="userSpaceOnUse" id="color-4"><stop offset="0" stop-color="#ffffff"/><stop offset="1" stop-color="#ffffff" stop-opacity="0"/></linearGradient><linearGradient x1="339.91889" y1="-109.56828" x2="296.91391" y2="212.96911" gradientUnits="userSpaceOnUse" id="color-5"><stop offset="0" stop-color="#ffffff"/><stop offset="1" stop-color="#ffffff" stop-opacity="0"/></linearGradient><linearGradient x1="307.98526" y1="-47.08471" x2="276.66342" y2="187.82911" gradientUnits="userSpaceOnUse" id="color-6"><stop offset="0" stop-color="#ffffff"/><stop offset="1" stop-color="#ffffff" stop-opacity="0"/></linearGradient><linearGradient x1="289.63058" y1="-68.27762" x2="258.30874" y2="166.63619" gradientUnits="userSpaceOnUse" id="color-7"><stop offset="0" stop-color="#ffffff"/><stop offset="1" stop-color="#ffffff" stop-opacity="0"/></linearGradient><linearGradient x1="245.99478" y1="-38.17703" x2="215.46282" y2="200.58363" gradientUnits="userSpaceOnUse" id="color-8"><stop offset="0" stop-color="#ffffff"/><stop offset="1" stop-color="#ffffff" stop-opacity="0"/></linearGradient><linearGradient x1="221.88433" y1="-90.7958" x2="201.4448" y2="144.11801" gradientUnits="userSpaceOnUse" id="color-9"><stop offset="0" stop-color="#ffffff"/><stop offset="1" stop-color="#ffffff" stop-opacity="0"/></linearGradient><linearGradient x1="203.33658" y1="-101.72075" x2="172.01474" y2="133.19306" gradientUnits="userSpaceOnUse" id="color-10"><stop offset="0" stop-color="#ffffff"/><stop offset="1" stop-color="#ffffff" stop-opacity="0"/></linearGradient><linearGradient x1="159.74886" y1="-55.87755" x2="103.2279" y2="368.02955" gradientUnits="userSpaceOnUse" id="color-11"><stop offset="0" stop-color="#ffffff" stop-opacity="0.5098"/><stop offset="1" stop-color="#ffffff" stop-opacity="0"/></linearGradient><linearGradient x1="126.62744" y1="-94.12063" x2="70.10648" y2="329.78646" gradientUnits="userSpaceOnUse" id="color-12"><stop offset="0" stop-color="#ffffff" stop-opacity="0.5098"/><stop offset="1" stop-color="#ffffff" stop-opacity="0"/></linearGradient><linearGradient x1="47.88569" y1="-39.80345" x2="-7.20989" y2="391.04536" gradientUnits="userSpaceOnUse" id="color-13"><stop offset="0" stop-color="#ffffff" stop-opacity="0.5098"/><stop offset="1" stop-color="#ffffff" stop-opacity="0"/></linearGradient><linearGradient x1="4.37785" y1="-134.75517" x2="-32.50572" y2="289.15192" gradientUnits="userSpaceOnUse" id="color-14"><stop offset="0" stop-color="#ffffff" stop-opacity="0.5098"/><stop offset="1" stop-color="#ffffff" stop-opacity="0"/></linearGradient><linearGradient x1="228.4518" y1="-38.51153" x2="194.87731" y2="289.00996" gradientUnits="userSpaceOnUse" id="color-15"><stop offset="0" stop-color="#ffffff"/><stop offset="1" stop-color="#ffffff" stop-opacity="0"/></linearGradient><linearGradient x1="337.60623" y1="-82.3153" x2="299.22656" y2="238.5821" gradientUnits="userSpaceOnUse" id="color-16"><stop offset="0" stop-color="#ffffff"/><stop offset="1" stop-color="#ffffff" stop-opacity="0"/></linearGradient><linearGradient x1="51.22084" y1="-24.57818" x2="12.84116" y2="296.31921" gradientUnits="userSpaceOnUse" id="color-17"><stop offset="0" stop-color="#ffffff"/><stop offset="1" stop-color="#ffffff" stop-opacity="0"/></linearGradient></defs><g transform="translate(71.20409,139.83192)"><g data-paper-data="{&quot;isPaintingLayer&quot;:true}" fill-rule="nonzero" stroke="none" stroke-linecap="butt" stroke-linejoin="miter" stroke-miterlimit="10" stroke-dasharray="" stroke-dashoffset="0" style="mix-blend-mode: normal"><path d="M-8.5,369v-378h497v378z" fill="#bbbbbb" stroke-width="0"/><g><path d="M354.55231,240.91837v-18.17308h52.20629v18.17308z" fill="#004402" stroke-width="0"/><text transform="translate(360.9602,234.6265) scale(0.23574,0.23574)" font-size="40" xml:space="preserve" fill="#ffffff" fill-rule="nonzero" stroke="none" stroke-width="1" stroke-linecap="butt" stroke-linejoin="miter" stroke-miterlimit="10" stroke-dasharray="" stroke-dashoffset="0" font-family="&quot;Source Code Pro&quot;, Sans Serif" font-weight="normal" text-anchor="start" style="mix-blend-mode: normal"><tspan x="0" dy="0">Terrace</tspan></text></g><path d="M411.62643,284.12185l43.00498,-322.53738l57.94085,7.72545l-43.00498,322.53738z" fill="url(#color-1)" stroke-width="0"/><path d="M386.4254,255.02391l43.00498,-322.53738l57.94085,7.72545l-43.00498,322.53738z" fill="url(#color-2)" stroke-width="0"/><path d="M307.87711,306.13959l41.92048,-327.81911l97.38229,-1.28606l-41.92048,327.8191z" fill="url(#color-3)" stroke-width="0"/><path d="M318.4164,224.10638l28.06353,-322.53738l37.81015,7.72545l-28.06353,322.53738z" fill="url(#color-4)" stroke-width="0"/><path d="M267.94348,209.10638l43.00498,-322.53739l57.94085,7.72545l-43.00499,322.53738z" fill="url(#color-5)" stroke-width="0"/><path d="M255.56337,185.01577l31.32184,-234.91381l42.20009,5.62668l-31.32184,234.91381z" fill="url(#color-6)" stroke-width="0"/><path d="M237.20869,163.82285l31.32184,-234.91381l42.20009,5.62668l-31.32184,234.91381z" fill="url(#color-7)" stroke-width="0"/><path d="M179.99958,201.05197l30.53196,-238.76065l70.92649,-0.93668l-30.53196,238.76065z" fill="url(#color-8)" stroke-width="0"/><path d="M187.67566,141.30467l20.43952,-234.91381l27.53828,5.62668l-20.43952,234.91381z" fill="url(#color-9)" stroke-width="0"/><path d="M150.9147,130.37972l31.32184,-234.91381l42.20009,5.62668l-31.32184,234.91381z" fill="url(#color-10)" stroke-width="0"/><path d="M65.15241,362.95281l56.52095,-423.90709l76.15097,10.15347l-56.52094,423.90709z" fill="url(#color-11)" stroke-width="0"/><path d="M32.031,324.70973l56.52094,-423.9071l76.15098,10.15348l-56.52095,423.90709z" fill="url(#color-12)" stroke-width="0"/><path d="M-71.20409,391.89048l55.09559,-430.8488l127.9884,-1.69025l-55.09559,430.8488z" fill="url(#color-13)" stroke-width="0"/><path d="M-57.35243,284.07518l36.88356,-423.9071l49.69343,10.15348l-36.88356,423.90709z" fill="url(#color-14)" stroke-width="0"/><path d="M159.40963,289.32368l33.57449,-327.52149l70.93537,-0.62744l-33.57449,327.52148z" fill="url(#color-15)" stroke-width="0"/><path d="M285.69405,233.95816l38.37967,-320.8974l27.06503,9.24789l-38.37967,320.89739z" fill="url(#color-16)" stroke-width="0"/><path d="M-0.69135,291.69527l38.37967,-320.89739l27.06503,9.24789l-38.37967,320.89739z" fill="url(#color-17)" stroke-width="0"/></g></g></svg>