<svg version="1.1" xmlns="http://www.w3.org/2000/svg" xmlns:xlink="http://www.w3.org/1999/xlink" width="197.39501" height="133.69725" viewBox="0,0,197.39501,133.69725"><g transform="translate(-41.692,-81.99998)"><g data-paper-data="{&quot;isPaintingLayer&quot;:true}" fill="#ffffff" fill-rule="nonzero" stroke="none" stroke-width="0.5" stroke-linecap="butt" stroke-linejoin="miter" stroke-miterlimit="10" stroke-dasharray="" stroke-dashoffset="0" style="mix-blend-mode: normal"><path d="M217.5982,139.28716c0.52841,1.58522 -1.05682,2.11363 -1.05682,2.11363l-0.83988,0.27996c-2.84076,0.92809 -6.63955,1.96453 -9.68541,1.01537c-1.6857,-0.52531 -3.84693,-3.88304 -4.7933,-5.20537c-1.69146,-2.36342 -2.94752,-4.87425 -4.52226,-7.25744c-0.62138,1.13635 -1.31265,2.22871 -2.09568,3.25832c-0.58016,0.76287 -1.41387,1.30208 -2.03,2.0362c-0.57413,0.68407 -0.83035,1.64252 -1.52673,2.20162c-1.95102,1.56642 -4.56467,2.10671 -6.95311,2.41217c-0.46713,0.05974 -4.60194,-0.01606 -4.81443,-0.11906c-0.98242,-0.47622 -1.63611,-1.04701 -2.02911,-1.67097c-0.18949,0.08667 -0.37757,0.17616 -0.56385,0.26926c-0.81155,0.40562 -1.41771,1.24107 -2.29886,1.4572c-3.71463,0.91115 -6.81889,-0.94834 -7.48072,-4.67355c-0.43631,-2.45583 0.20526,-4.73168 0.46784,-7.10676c0.01832,-0.16569 -0.16934,0.29437 -0.2952,0.40367c-1.02853,0.89307 -2.44566,1.45564 -3.11983,2.63924c-0.34589,0.60726 -0.28462,1.40202 -0.66493,1.98834c-1.23307,1.90102 -3.0612,3.36151 -4.33922,5.2326c-0.64803,0.94874 -0.92334,2.18681 -1.78157,2.95069c-0.05106,0.04545 -0.10284,0.08991 -0.15529,0.13344l0.01978,0.01978l-2.00516,2.00516c-0.30239,0.30239 -0.72013,0.48941 -1.18156,0.48941c-0.92285,0 -1.67097,-0.74812 -1.67097,-1.67097c0,-0.21175 0.03939,-0.4143 0.11123,-0.60073l0.8524,-2.37615l0.02759,0.0099l0.00454,-0.09249c0.06489,-0.13435 0.12711,-0.2703 0.18714,-0.40758c-0.80058,0.71556 -1.60475,1.42768 -2.48674,2.10495c-0.61426,0.47167 -1.02935,1.2327 -1.74076,1.53876c-0.22849,0.0983 -6.73928,1.44431 -7.15074,1.48619c-2.08631,0.21235 -4.2687,-0.07261 -5.9951,-1.01892c-1.46324,0.81187 -2.95715,1.58401 -4.42804,2.3619c-1.64887,0.87201 -3.29767,1.75249 -4.93763,2.65137c0.31746,2.88153 0.53168,5.834 0.14123,8.61072c-0.54396,3.86841 -2.29827,8.51991 -4.20036,11.93492c-2.70431,4.85531 -8.31479,8.88492 -13.752,10.17269c-1.31527,0.31152 -2.66468,0.90107 -3.99785,0.67829c-3.01914,-0.50453 -3.52422,-2.85819 -4.67872,-5.09728c-0.24837,-1.25638 -0.71056,-2.4889 -0.7451,-3.76913c-0.109,-4.04024 2.04872,-6.86079 4.20221,-10.00911c4.41698,-6.45747 12.58947,-10.51423 19.46497,-14.27598c-0.07244,-0.59237 -0.14344,-1.17786 -0.20739,-1.7535c-0.00586,-0.05276 -0.13544,-1.21768 -0.28499,-2.56427c-1.78444,1.93409 -3.80007,4.5446 -6.54537,4.7384c-1.15909,0.08182 -2.60208,0.32195 -3.45438,-0.46784c-0.4156,-0.38513 -0.51049,-0.95181 -0.51709,-1.55875c-0.13638,0.09625 -0.27435,0.19018 -0.41397,0.28163c-5.57186,3.64955 -16.04539,5.33514 -20.14414,-1.38187c-0.32684,0.08583 -0.66124,0.15593 -0.97884,0.2585c-2.22966,0.72004 -4.71898,1.67273 -7.13055,1.50183c-3.29118,-0.23324 -7.15638,-2.0645 -10.12343,-3.38202c-0.208,-0.12455 -5.84499,-3.49386 -5.98915,-3.60445c-2.37467,-1.82173 -3.86047,-4.57462 -6.09414,-6.51807c-0.4232,-0.36822 -0.88001,-0.71096 -1.36286,-1.02279c-1.16687,4.39091 -2.57994,8.68855 -4.57413,12.68703c-2.13184,4.15278 -6.667,7.50723 -10.84728,3.40736c-0.73495,-0.72081 -1.34782,-1.60829 -1.70911,-2.57224c-1.93772,-5.17016 -1.09649,-12.01171 3.06895,-15.85481c3.28943,-3.03488 7.76013,-3.50239 11.81004,-2.30522c0.93322,-3.97401 1.73665,-7.97648 2.67613,-11.82663c1.37844,-5.64906 3.73786,-10.83223 5.09961,-16.47016c0.07956,-0.32939 1.46791,-6.33393 1.50976,-6.46177c0.21225,-0.64838 0.54523,-1.25186 0.84115,-1.86867c-2.68578,2.33473 -5.37778,4.65203 -7.35687,7.6441c0,0 -0.92689,1.39033 -2.31722,0.46345c-1.39033,-0.92689 -0.46345,-2.31722 -0.46345,-2.31722c3.10914,-4.63194 7.66965,-7.71436 11.57138,-11.61727l1.33678,-1.33678c0.30239,-0.30239 0.72013,-0.48941 1.18156,-0.48941c0.92285,0 1.67097,0.74812 1.67097,1.67097c0,0.35112 -0.1083,0.67694 -0.29331,0.9459l-0.94284,1.41426c-0.18414,1.15062 -0.39105,2.29552 -0.71769,3.41212c-0.31769,1.08602 -0.98135,2.04622 -1.33525,3.12099c-1.24718,3.78769 -1.47599,7.92396 -2.81385,11.69183c-1.32482,3.73114 -2.77508,7.09785 -3.72396,10.9896c-0.9827,4.03047 -1.83415,8.19213 -2.82582,12.31809c0.96482,0.52331 1.87267,1.1428 2.69548,1.84264c2.20519,1.87564 3.65364,4.65193 5.97267,6.41855c1.69108,1.28826 3.65174,2.1777 5.4736,3.2732c2.58704,1.15048 5.97153,2.77965 8.83499,3.01503c2.48639,0.20439 4.6375,-0.44661 6.53739,-1.59153c-0.67203,-1.70463 -1.37981,-3.53095 -1.45833,-3.73203c-0.04964,-3.82152 0.32448,-7.72131 3.06169,-10.77928c2.00947,-2.24496 8.07882,-3.12017 10.4549,-0.74409c0.73831,0.73831 0.95058,1.89157 1.13623,2.91906c0.17033,0.94275 0.24787,1.97611 -0.08979,2.87265c-0.32956,0.87504 -1.26612,1.38355 -1.80182,2.14993c-1.31434,1.88032 -2.61463,3.80088 -4.23378,5.42613c-0.11733,0.11777 -1.78484,1.7939 -3.10018,3.09412c0.34997,0.58534 0.76051,1.0905 1.25805,1.45364c4.16289,3.03836 10.39249,1.7017 14.40899,-0.91265c1.23735,-0.80539 2.34134,-1.84726 3.38634,-2.97672c0.70159,-0.97396 1.63688,-1.86969 2.53165,-3.11548c0.52336,-0.72867 0.74084,-1.77566 1.5193,-2.22162c0.09565,-0.05479 0.19284,-0.10589 0.29139,-0.1537l-0.03672,-0.05508l1.98616,-1.3241c0.26895,-0.18502 0.59478,-0.29331 0.9459,-0.29331c0.91246,0 1.65411,0.73137 1.67069,1.63988c0.00009,-0.00167 0.00019,-0.00334 0.00028,-0.005v-1.96907c0,-0.92285 0.74812,-1.67097 1.67097,-1.67097c0.92285,0 1.67097,0.74812 1.67097,1.67097v3.34194c0.18462,0.84034 -0.05559,1.7224 -0.00256,2.58115c0.13543,2.19298 0.48781,4.36716 0.73045,6.55088c0.01381,0.12429 0.02787,0.24895 0.04215,0.37396c1.68301,-0.93499 3.77248,-2.09572 3.78462,-2.10215c1.13027,-0.59775 2.31897,-1.19556 3.51557,-1.82252c-0.31972,-0.57655 -0.55801,-1.23196 -0.69638,-1.97172c-1.03774,-5.54828 3.98054,-11.22537 9.35406,-11.9343c1.53461,-0.20246 3.3123,-0.51884 4.63496,0.28526c1.03289,0.62793 0.90822,2.24048 1.36232,3.36073c-1.44988,4.71343 -4.62827,7.85867 -8.40344,10.39378c0.66347,0.06207 1.32332,0.04247 1.8891,-0.02563c2.00707,-0.24156 4.09293,-0.35419 5.95743,-1.13544c0.51719,-0.21671 0.75216,-0.83935 1.19238,-1.18672c1.6095,-1.27002 3.05072,-2.73301 4.65484,-3.99112c0.53347,-0.4184 1.318,-0.5255 1.73661,-1.05881c0.43501,-0.55421 0.44559,-1.33678 0.66839,-2.00516l0.5309,-0.18128l-0.12985,-0.19478l1.98616,-1.3241c0.26895,-0.18502 0.59478,-0.29331 0.9459,-0.29331c0.72913,0 1.34918,0.467 1.57738,1.11821c0.07785,-0.3506 0.1586,-0.69992 0.34566,-0.99814c0.42306,-0.67448 1.0468,-1.20981 1.66086,-1.71659c1.16139,-0.95849 4.81237,-4.43537 6.95509,-1.92438c1.25477,1.47043 0.28431,6.8675 0.46784,8.93455c0.09321,1.0498 0.38037,1.7145 1.50838,2.01033c1.16934,0.30666 2.33964,-0.66717 3.41658,-1.21635c0.68581,-0.34973 1.40013,-0.6423 2.11939,-0.9243c0.50362,-1.07096 1.35077,-2.09088 2.27786,-2.89941c1.73693,-1.5148 4.23985,-2.38393 6.23617,-3.49495c1.01276,-0.56363 1.96991,-1.48059 3.12834,-1.51781c0.12903,-0.00414 0.25695,-0.00032 0.38391,0.01038v-0.05508h2.00516c0.92285,0 1.67097,0.74812 1.67097,1.67097c0,0.70102 -0.43168,1.3012 -1.04371,1.54925l-1.75835,0.75944c-2.44978,1.64377 -4.84468,3.63183 -7.36916,5.14117c-0.68188,0.40768 -1.40031,0.74401 -2.13285,1.05325c0.40389,0.07043 0.9201,-0.13504 1.27567,-0.14825c2.25495,-0.08374 5.05985,-0.00492 6.91839,-1.59004c0.54316,-0.46325 0.69198,-1.25849 1.14682,-1.80871c0.59387,-0.71839 1.41201,-1.23536 1.98033,-1.97412c1.02878,-1.33732 1.88248,-2.81116 2.62112,-4.36021c-0.478,-1.58761 -0.879,-3.67493 -0.96173,-4.47263c-0.38944,-3.75533 1.37851,-8.18384 2.87318,-11.56486c0.50156,-1.13455 0.89684,-2.39188 1.76884,-3.27413c0.05734,-0.05802 0.11565,-0.11485 0.17488,-0.17058l-0.01484,-0.01484l2.36311,-2.36311l0.46579,0.46579c0.45978,-0.26627 0.91767,-0.53484 1.35522,-0.82801l0.34763,1.54378h0.68389v2.67355h-0.08185l0.06028,0.26766c-0.78584,2.42285 -1.2261,4.75632 -1.73739,7.26418c-1.15514,3.43539 -2.21277,7.08506 -3.6822,10.51185c0.33343,0.37378 0.8358,0.61107 1.11544,1.03093c1.62717,2.44307 2.89268,4.98045 4.62018,7.40397c0.7755,1.08796 1.6523,2.10357 2.55808,3.08572c0.28417,0.30813 0.3873,0.87585 0.79467,0.97456c2.23844,0.54237 5.32371,-0.4071 7.34969,-1.09826l0.83988,-0.27996c0,0 1.58522,-0.52841 2.11363,1.05682zM118.67332,138.03998c-0.59378,0.9939 -1.50432,1.9146 -2.32461,2.87041c-0.1318,0.15358 -0.31885,0.26079 -0.50173,0.3691c-0.19503,0.21574 -0.39166,0.42951 -0.59035,0.64052c-0.06731,0.39197 0.23114,0.83135 0.16394,1.2375c-0.05213,0.31506 -0.54812,0.5097 -0.48941,0.82361c0.04452,0.23807 0.33639,-0.36559 0.55595,-0.46784c0.86839,-0.40441 1.75965,-0.85111 2.42805,-1.53733c0.83766,-0.86 3.2816,-2.49596 3.70611,-3.59338c0.15219,-0.39343 0.2558,-1.23146 0.32909,-2.11387c-0.00928,-0.27305 0.00352,-0.54236 0.05879,-0.80333c0.03546,-0.54667 0.06119,-1.06314 0.08169,-1.451c-0.0481,0.37574 -0.221,0.71245 -0.4758,0.96725l-1.33649,1.33649c-0.54811,0.54879 -1.07979,1.12817 -1.60521,1.72186zM196.84521,121.3161c0.63256,-1.88913 1.20747,-3.78105 1.81628,-5.58225c0.11407,-0.56516 0.2235,-1.12363 0.3346,-1.67737c-0.89243,1.93837 -1.74589,3.89375 -2.05376,5.9751c-0.05727,0.38716 -0.08983,0.82227 -0.09712,1.28452zM136.40584,139.12608c3.59782,-2.11959 6.88761,-4.73159 8.4238,-8.66794c0.07678,-1.95236 -4.34565,0.58382 -4.76706,0.76448c-2.54317,1.0902 -4.29941,4.1899 -3.94356,6.98852c0.04377,0.34418 0.14299,0.64784 0.28682,0.91495zM92.80624,138.51524c2.32302,-2.14338 4.24138,-4.8961 5.98013,-7.29038c0.37938,-0.52241 1.07827,-0.79193 1.37263,-1.36655c1.40704,-2.74668 -3.22725,-2.87496 -4.64006,-2.47962c-1.53651,0.42995 -1.71696,1.92232 -2.3316,3.15833c-1.2097,2.43266 -1.14463,3.05001 -1.19052,5.62061c0.27669,0.67221 0.52899,1.49907 0.80942,2.3576zM56.7715,129.49451c-2.09177,-0.64637 -4.34515,-0.70384 -6.35566,0.11963c-5.2556,2.1526 -6.22968,8.70053 -4.62473,13.59728c0.17977,0.54847 0.56387,1.02255 0.96444,1.43809c2.28968,2.3752 4.49666,-0.47325 5.4968,-2.54231c1.99809,-3.94366 3.38303,-8.23046 4.51915,-12.61268zM123.45918,149.91508c-3.92558,2.23914 -7.76655,4.62324 -11.39946,7.29255c-1.31483,0.96608 -2.86948,1.63917 -4.01221,2.80375c-0.71059,0.72418 -1.12078,1.69157 -1.68739,2.5332c-1.68241,2.499 -3.73698,4.81838 -3.62671,8.03155c0.03249,0.94672 0.37714,1.85664 0.56572,2.78495c0.33278,0.69937 0.53891,1.47459 0.99835,2.09811c1.25241,1.69968 5.12829,-0.02662 6.51414,-0.69362c4.59268,-2.21043 8.12858,-5.49588 10.07958,-10.1818c1.02473,-2.46119 2.19956,-5.66046 2.56616,-8.29026c0.28596,-2.05125 0.20338,-4.22165 0.00181,-6.37843z"/><path d="M230.20691,163.79865c0.74728,1.49456 -0.74728,2.24184 -0.74728,2.24184l-1.05305,0.48881c-3.81009,2.98423 -8.13718,5.16728 -12.4908,7.32687c-0.75599,4.29445 -1.33337,8.63624 -2.08715,12.90881c-0.99865,5.60177 -2.95483,11.2453 -5.78738,16.18249c-0.92028,1.60406 -1.51845,3.45289 -2.79093,4.79481c-3.84584,4.05568 -10.02041,6.9526 -15.50711,7.6121c-1.34637,0.16183 -2.74072,0.53105 -4.06192,0.22555c-0.9331,-0.21576 -3.70739,-3.17246 -4.26926,-3.73366l-0.48941,-2.51833c0,0 0,-1.67097 1.67097,-1.67097c1.67097,0 1.67097,1.67097 1.67097,1.67097l-0.48941,0.15522c0.64989,0.65072 1.29955,1.30167 1.94967,1.95216c0.31866,0.31884 0.51237,0.87965 0.95666,0.95584c0.86091,0.14764 1.73589,-0.20251 2.59745,-0.34633c3.20008,-0.53415 5.60572,-1.34143 8.36857,-3.00973c1.59229,-0.96146 3.7414,-2.08691 5.06619,-3.46861c1.13648,-1.18531 1.61039,-2.86237 2.43051,-4.28502c2.64339,-4.5855 4.4824,-9.88441 5.39343,-15.09765c0.60492,-3.42246 0.91226,-6.88602 1.37923,-10.32489c-3.10342,1.59224 -6.14302,3.29528 -8.93743,5.39669c0,0 -1.33678,1.00258 -2.33936,-0.33419c-1.00258,-1.33678 0.33419,-2.33936 0.33419,-2.33936c3.57123,-2.67177 7.62145,-5.10024 11.70418,-7.23545c0.65418,-2.96303 1.65467,-5.87273 2.6082,-8.75293c-3.42185,1.13423 -6.95376,1.93752 -10.38889,2.97807c-1.12164,0.33976 -2.12183,1.06516 -3.2733,1.28337c-0.07451,0.01412 -1.44788,0.02317 -2.95987,0.02815c-2.73318,4.80593 -7.66008,8.06616 -13.39744,8.02266c-0.83012,-0.0063 -1.71988,0.23973 -2.48938,-0.0717c-1.13854,-0.46079 -2.32774,-1.11588 -2.9942,-2.14759c-0.50654,-0.78416 -0.16561,-1.86064 -0.19772,-2.79362c-0.03867,-1.1238 -0.11396,-3.87229 0.38613,-5.05699c0.20052,-0.47504 0.45037,-0.92326 0.73103,-1.35443c-0.20473,-0.08039 -0.41623,-0.21618 -0.62774,-0.42768c-1.18156,-1.18156 0,-2.36311 0,-2.36311c1.29777,-1.29075 2.69715,-2.49696 4.21655,-3.5176l2.63279,-1.9746c0.28155,-0.21596 0.63383,-0.34432 1.01608,-0.34432c0.92285,0 1.67097,0.74812 1.67097,1.67097c0,0.39973 -0.14035,0.76667 -0.37448,1.05424l-2.02175,2.52718c-0.36428,0.73481 -0.78366,1.44692 -1.30195,2.12861c-1.27754,1.68031 -2.88044,2.78299 -2.99081,5.11465c-0.05393,1.13935 -0.81973,3.99152 0.82351,4.28574c4.09124,0.73254 8.51352,-1.56786 11.21303,-4.74844c-0.17751,-0.00047 -0.295,-0.00114 -0.33465,-0.00198c-0.88236,-0.01875 -1.8389,0.23297 -2.64462,-0.12719c-3.28287,-1.46747 -4.27443,-7.46969 -1.87888,-10.0776c0.59622,-0.64908 1.66892,-0.58457 2.45258,-0.98789c0.79221,-0.40773 1.39308,-1.20963 2.25509,-1.43499c1.1048,-0.28884 2.28362,-0.03341 3.42544,-0.05012c1.03204,0.44833 2.42499,0.44184 3.09612,1.345c0.64135,0.86307 0.36053,2.1397 0.29072,3.21271c-0.11122,1.70936 -0.75759,3.33537 -1.45341,4.9258c0.27615,-0.02576 0.5512,-0.06382 0.82486,-0.1175c1.0363,-0.20328 1.92259,-0.89029 2.93253,-1.19896c4.21804,-1.28919 8.60956,-2.16707 12.72763,-3.82696c1.30423,-3.55547 3.00759,-7.11029 5.52617,-9.88281c2.71924,-2.99341 6.87026,-4.89208 10.52778,-6.3632c2.04287,-0.82169 5.52922,-3.53293 6.35769,1.35968c0.20328,1.20051 -1.00238,2.23647 -1.70738,3.2292c-1.19916,1.68856 -2.80039,3.06086 -4.04318,4.71756c-0.52992,0.52609 -4.21135,4.18982 -4.38202,4.31295c-0.96581,0.69677 -2.12636,1.07357 -3.17829,1.6319c-0.17871,0.09485 -5.81309,3.20022 -5.92344,3.25231c-0.23909,0.11284 -0.47926,0.22257 -0.72044,0.3294c-0.9618,2.65785 -1.69603,5.38562 -2.3008,8.15109c0.15913,-0.07582 0.31808,-0.15116 0.47681,-0.22602c3.36974,-1.58913 6.09052,-2.83028 9.05906,-5.16028l1.6205,-0.84797c0,0 1.49456,-0.74728 2.24184,0.74728zM221.17322,156.30128c1.00215,-0.57642 1.9971,-1.16713 3.02017,-1.70394c0.91834,-0.48185 1.94276,-0.78208 2.78458,-1.38778c1.45693,-1.04829 2.53847,-2.53822 3.81694,-3.798c0.98646,-1.31555 1.9948,-2.81097 3.21721,-4.02946c-0.95991,0.47544 -2.02536,0.71625 -2.98884,1.18555c-3.10625,1.51303 -6.41649,3.83284 -8.24178,6.82578c-0.58231,0.95482 -1.11655,1.92472 -1.60827,2.90786zM196.55104,163.60241c0.70388,-1.68073 1.33327,-3.40334 1.74533,-5.17693c0.07392,-0.31819 0.49471,-0.65354 0.31668,-0.92742c-0.16609,-0.2555 -0.60947,0.00549 -0.91421,0.00823c-0.64056,-0.01671 -1.31195,-0.24719 -1.92167,-0.05012c-0.68137,0.22023 -1.10947,0.92913 -1.75524,1.23856c-0.47987,0.22993 -1.1461,0.01171 -1.55775,0.34889c-0.75933,0.62194 -0.25351,4.32988 0.79467,4.62694c0.43989,0.12467 0.90867,-0.11485 1.36571,-0.12719c0.63953,-0.01728 1.2828,0.01571 1.92648,0.05906z"/></g></g></svg>