<svg version="1.1" xmlns="http://www.w3.org/2000/svg" xmlns:xlink="http://www.w3.org/1999/xlink" width="32.06112" height="64.11242" viewBox="0,0,32.06112,64.11242"><g transform="translate(-236.00353,-175.96938)"><g data-paper-data="{&quot;isPaintingLayer&quot;:true}" fill-rule="nonzero" stroke="none" stroke-width="0" stroke-linecap="butt" stroke-linejoin="miter" stroke-miterlimit="10" stroke-dasharray="" stroke-dashoffset="0" style="mix-blend-mode: normal"><path d="M264.03602,180.03216v-4.02863h4.02863v4.02863z" data-paper-data="{&quot;index&quot;:null}" fill="none"/><path d="M260.04318,184.00357v-4.02863h4.02863v4.02863z" data-paper-data="{&quot;index&quot;:null}" fill="none"/><path d="M264.03602,184.06478v-4.02863h4.02863v4.02863z" data-paper-data="{&quot;index&quot;:null}" fill="none"/><path d="M260.04318,180.05963v-4.02863h4.02863v4.02863z" data-paper-data="{&quot;index&quot;:null}" fill="none"/><path d="M256.03594,179.99802v-4.02863h4.02863v4.02863z" data-paper-data="{&quot;index&quot;:null}" fill="none"/><path d="M252.0431,183.96943v-4.02863h4.02863v4.02863z" data-paper-data="{&quot;index&quot;:null}" fill="#000000"/><path d="M256.03594,184.03064v-4.02863h4.02863v4.02863z" data-paper-data="{&quot;index&quot;:null}" fill="#000000"/><path d="M252.0431,180.02549v-4.02863h4.02863v4.02863z" data-paper-data="{&quot;index&quot;:null}" fill="none"/><path d="M264.02264,187.9917v-4.02863h4.02863v4.02863z" data-paper-data="{&quot;index&quot;:null}" fill="none"/><path d="M260.0298,192.03629v-4.02863h4.02863v4.02863z" data-paper-data="{&quot;index&quot;:null}" fill="#000000"/><path d="M264.02264,192.02432v-4.02863h4.02863v4.02863z" data-paper-data="{&quot;index&quot;:null}" fill="none"/><path d="M260.0298,188.01917v-4.02863h4.02863v4.02863z" data-paper-data="{&quot;index&quot;:null}" fill="#000000"/><path d="M256.02256,187.95756v-4.02863h4.02863v4.02863z" data-paper-data="{&quot;index&quot;:null}" fill="#000000"/><path d="M252.02972,192.00215v-4.02863h4.02863v4.02863z" data-paper-data="{&quot;index&quot;:null}" fill="#ffffff"/><path d="M256.02256,191.99018v-4.02863h4.02863v4.02863z" data-paper-data="{&quot;index&quot;:null}" fill="#5e5e5e"/><path d="M252.02972,187.98503v-4.02863h4.02863v4.02863z" data-paper-data="{&quot;index&quot;:null}" fill="#5e5e5e"/><path d="M248.06659,180.0631v-4.02863h4.02863v4.02863z" data-paper-data="{&quot;index&quot;:null}" fill="none"/><path d="M244.07374,184.03451v-4.02863h4.02863v4.02863z" data-paper-data="{&quot;index&quot;:null}" fill="#000000"/><path d="M248.06659,184.09572v-4.02863h4.02863v4.02863z" data-paper-data="{&quot;index&quot;:null}" fill="#000000"/><path d="M244.07374,180.09057v-4.02863h4.02863v4.02863z" data-paper-data="{&quot;index&quot;:null}" fill="none"/><path d="M240.06651,180.02896v-4.02863h4.02863v4.02863z" data-paper-data="{&quot;index&quot;:null}" fill="none"/><path d="M236.07365,184.00037v-4.02863h4.02863v4.02863z" data-paper-data="{&quot;index&quot;:null}" fill="none"/><path d="M240.06651,184.06158v-4.02863h4.02863v4.02863z" data-paper-data="{&quot;index&quot;:null}" fill="#d2d2d2"/><path d="M236.07365,180.05643v-4.02863h4.02863v4.02863z" data-paper-data="{&quot;index&quot;:null}" fill="none"/><path d="M248.05321,188.02264v-4.02863h4.02863v4.02863z" data-paper-data="{&quot;index&quot;:null}" fill="#5e5e5e"/><path d="M244.06036,192.06723v-4.02863h4.02863v4.02863z" data-paper-data="{&quot;index&quot;:null}" fill="#ffffff"/><path d="M248.05321,192.05526v-4.02863h4.02863v4.02863z" data-paper-data="{&quot;index&quot;:null}" fill="#5e5e5e"/><path d="M244.06036,188.05011v-4.02863h4.02863v4.02863z" data-paper-data="{&quot;index&quot;:null}" fill="#5e5e5e"/><path d="M240.05313,187.9885v-4.02863h4.02863v4.02863z" data-paper-data="{&quot;index&quot;:null}" fill="#000000"/><path d="M236.06028,192.03309v-4.02863h4.02863v4.02863z" data-paper-data="{&quot;index&quot;:null}" fill="none"/><path d="M240.05313,192.02112v-4.02863h4.02863v4.02863z" data-paper-data="{&quot;index&quot;:null}" fill="#000000"/><path d="M236.06028,188.01597v-4.02863h4.02863v4.02863z" data-paper-data="{&quot;index&quot;:null}" fill="none"/><path d="M264.00508,196.02716v-4.02863h4.02863v4.02863z" data-paper-data="{&quot;index&quot;:null}" fill="none"/><path d="M260.01224,199.99858v-4.02863h4.02863v4.02863z" data-paper-data="{&quot;index&quot;:null}" fill="#000000"/><path d="M264.00508,200.05979v-4.02863h4.02863v4.02863z" data-paper-data="{&quot;index&quot;:null}" fill="none"/><path d="M260.01224,196.05464v-4.02863h4.02863v4.02863z" data-paper-data="{&quot;index&quot;:null}" fill="#000000"/><path d="M256.005,195.99302v-4.02863h4.02863v4.02863z" data-paper-data="{&quot;index&quot;:null}" fill="#5e5e5e"/><path d="M252.01216,199.96444v-4.02863h4.02863v4.02863z" data-paper-data="{&quot;index&quot;:null}" fill="#5e5e5e"/><path d="M256.005,200.02565v-4.02863h4.02863v4.02863z" data-paper-data="{&quot;index&quot;:null}" fill="#000000"/><path d="M252.01216,196.0205v-4.02863h4.02863v4.02863z" data-paper-data="{&quot;index&quot;:null}" fill="#5e5e5e"/><path d="M263.9917,203.9867v-4.02863h4.02863v4.02863z" data-paper-data="{&quot;index&quot;:null}" fill="none"/><path d="M259.99886,208.03129v-4.02863h4.02863v4.02863z" data-paper-data="{&quot;index&quot;:null}" fill="#000000"/><path d="M263.9917,208.01933v-4.02863h4.02863v4.02863z" data-paper-data="{&quot;index&quot;:null}" fill="#323232"/><path d="M259.99886,204.01418v-4.02863h4.02863v4.02863z" data-paper-data="{&quot;index&quot;:null}" fill="#323232"/><path d="M255.99162,203.95256v-4.02863h4.02863v4.02863z" data-paper-data="{&quot;index&quot;:null}" fill="#000000"/><path d="M251.99878,207.99715v-4.02863h4.02863v4.02863z" data-paper-data="{&quot;index&quot;:null}" fill="#000000"/><path d="M255.99162,207.98519v-4.02863h4.02863v4.02863z" data-paper-data="{&quot;index&quot;:null}" fill="#000000"/><path d="M251.99878,203.98004v-4.02863h4.02863v4.02863z" data-paper-data="{&quot;index&quot;:null}" fill="#000000"/><path d="M248.03565,196.0581v-4.02863h4.02863v4.02863z" data-paper-data="{&quot;index&quot;:null}" fill="#5e5e5e"/><path d="M244.0428,200.02952v-4.02863h4.02863v4.02863z" data-paper-data="{&quot;index&quot;:null}" fill="#5e5e5e"/><path d="M248.03565,200.09073v-4.02863h4.02863v4.02863z" data-paper-data="{&quot;index&quot;:null}" fill="#5e5e5e"/><path d="M244.0428,196.08558v-4.02863h4.02863v4.02863z" data-paper-data="{&quot;index&quot;:null}" fill="#5e5e5e"/><path d="M240.03557,196.02396v-4.02863h4.02863v4.02863z" data-paper-data="{&quot;index&quot;:null}" fill="#000000"/><path d="M236.04272,199.99538v-4.02863h4.02863v4.02863z" data-paper-data="{&quot;index&quot;:null}" fill="none"/><path d="M240.03557,200.05659v-4.02863h4.02863v4.02863z" data-paper-data="{&quot;index&quot;:null}" fill="#4c4c4c"/><path d="M236.04272,196.05144v-4.02863h4.02863v4.02863z" data-paper-data="{&quot;index&quot;:null}" fill="none"/><path d="M248.02227,204.01764v-4.02863h4.02863v4.02863z" data-paper-data="{&quot;index&quot;:null}" fill="#000000"/><path d="M244.02942,208.06223v-4.02863h4.02863v4.02863z" data-paper-data="{&quot;index&quot;:null}" fill="#000000"/><path d="M248.02227,208.05027v-4.02863h4.02863v4.02863z" data-paper-data="{&quot;index&quot;:null}" fill="#838383"/><path d="M244.02942,204.04512v-4.02863h4.02863v4.02863z" data-paper-data="{&quot;index&quot;:null}" fill="#000000"/><path d="M240.02218,203.9835v-4.02863h4.02863v4.02863z" data-paper-data="{&quot;index&quot;:null}" fill="#000000"/><path d="M236.02934,208.02809v-4.02863h4.02863v4.02863z" data-paper-data="{&quot;index&quot;:null}" fill="none"/><path d="M240.02218,208.01613v-4.02863h4.02863v4.02863z" data-paper-data="{&quot;index&quot;:null}" fill="#323232"/><path d="M236.02934,204.01098v-4.02863h4.02863v4.02863z" data-paper-data="{&quot;index&quot;:null}" fill="none"/><path d="M264.01021,212.05174v-4.02863h4.02863v4.02863z" data-paper-data="{&quot;index&quot;:null}" fill="#000000"/><path d="M260.01736,216.02315v-4.02863h4.02863v4.02863z" data-paper-data="{&quot;index&quot;:null}" fill="none"/><path d="M264.01021,216.08436v-4.02863h4.02863v4.02863z" data-paper-data="{&quot;index&quot;:null}" fill="#000000"/><path d="M260.01736,212.07921v-4.02863h4.02863v4.02863z" data-paper-data="{&quot;index&quot;:null}" fill="#323232"/><path d="M256.01013,212.0176v-4.02863h4.02863v4.02863z" data-paper-data="{&quot;index&quot;:null}" fill="#000000"/><path d="M252.01728,215.98901v-4.02863h4.02863v4.02863z" data-paper-data="{&quot;index&quot;:null}" fill="#000000"/><path d="M256.01013,216.05022v-4.02863h4.02863v4.02863z" data-paper-data="{&quot;index&quot;:null}" fill="#000000"/><path d="M252.01728,212.04507v-4.02863h4.02863v4.02863z" data-paper-data="{&quot;index&quot;:null}" fill="#000000"/><path d="M263.99683,220.01128v-4.02863h4.02863v4.02863z" data-paper-data="{&quot;index&quot;:null}" fill="#000000"/><path d="M260.00398,224.05587v-4.02863h4.02863v4.02863z" data-paper-data="{&quot;index&quot;:null}" fill="none"/><path d="M263.99683,224.0439v-4.02863h4.02863v4.02863z" data-paper-data="{&quot;index&quot;:null}" fill="#323232"/><path d="M260.00398,220.03875v-4.02863h4.02863v4.02863z" data-paper-data="{&quot;index&quot;:null}" fill="none"/><path d="M255.99675,219.97714v-4.02863h4.02863v4.02863z" data-paper-data="{&quot;index&quot;:null}" fill="#000000"/><path d="M252.0039,224.02173v-4.02863h4.02863v4.02863z" data-paper-data="{&quot;index&quot;:null}" fill="#000000"/><path d="M255.99675,224.00976v-4.02863h4.02863v4.02863z" data-paper-data="{&quot;index&quot;:null}" fill="#323232"/><path d="M252.0039,220.00461v-4.02863h4.02863v4.02863z" data-paper-data="{&quot;index&quot;:null}" fill="#000000"/><path d="M248.04077,212.08268v-4.02863h4.02863v4.02863z" data-paper-data="{&quot;index&quot;:null}" fill="#000000"/><path d="M244.04793,216.05409v-4.02863h4.02863v4.02863z" data-paper-data="{&quot;index&quot;:null}" fill="#000000"/><path d="M248.04077,216.1153v-4.02863h4.02863v4.02863z" data-paper-data="{&quot;index&quot;:null}" fill="#a3a3a3"/><path d="M244.04793,212.11015v-4.02863h4.02863v4.02863z" data-paper-data="{&quot;index&quot;:null}" fill="#000000"/><path d="M240.04069,212.04854v-4.02863h4.02863v4.02863z" data-paper-data="{&quot;index&quot;:null}" fill="#000000"/><path d="M236.04785,216.01995v-4.02863h4.02863v4.02863z" data-paper-data="{&quot;index&quot;:null}" fill="#000000"/><path d="M240.04069,216.08116v-4.02863h4.02863v4.02863z" data-paper-data="{&quot;index&quot;:null}" fill="#323232"/><path d="M236.04785,212.07601v-4.02863h4.02863v4.02863z" data-paper-data="{&quot;index&quot;:null}" fill="#323232"/><path d="M248.02739,220.04222v-4.02863h4.02863v4.02863z" data-paper-data="{&quot;index&quot;:null}" fill="#000000"/><path d="M244.03454,224.08681v-4.02863h4.02863v4.02863z" data-paper-data="{&quot;index&quot;:null}" fill="#323232"/><path d="M248.02739,224.07484v-4.02863h4.02863v4.02863z" data-paper-data="{&quot;index&quot;:null}" fill="#000000"/><path d="M244.03454,220.06969v-4.02863h4.02863v4.02863z" data-paper-data="{&quot;index&quot;:null}" fill="#000000"/><path d="M240.02731,220.00808v-4.02863h4.02863v4.02863z" data-paper-data="{&quot;index&quot;:null}" fill="none"/><path d="M236.03447,224.05267v-4.02863h4.02863v4.02863z" data-paper-data="{&quot;index&quot;:null}" fill="#000000"/><path d="M240.02731,224.0407v-4.02863h4.02863v4.02863z" data-paper-data="{&quot;index&quot;:null}" fill="none"/><path d="M236.03447,220.03555v-4.02863h4.02863v4.02863z" data-paper-data="{&quot;index&quot;:null}" fill="#000000"/><path d="M263.97927,228.04674v-4.02863h4.02863v4.02863z" data-paper-data="{&quot;index&quot;:null}" fill="none"/><path d="M259.98642,232.01816v-4.02863h4.02863v4.02863z" data-paper-data="{&quot;index&quot;:null}" fill="none"/><path d="M263.97927,232.07937v-4.02863h4.02863v4.02863z" data-paper-data="{&quot;index&quot;:null}" fill="none"/><path d="M259.98642,228.07422v-4.02863h4.02863v4.02863z" data-paper-data="{&quot;index&quot;:null}" fill="none"/><path d="M255.97919,228.0126v-4.02863h4.02863v4.02863z" data-paper-data="{&quot;index&quot;:null}" fill="#000000"/><path d="M251.98634,231.98402v-4.02863h4.02863v4.02863z" data-paper-data="{&quot;index&quot;:null}" fill="none"/><path d="M255.97919,232.04523v-4.02863h4.02863v4.02863z" data-paper-data="{&quot;index&quot;:null}" fill="#000000"/><path d="M251.98634,228.04008v-4.02863h4.02863v4.02863z" data-paper-data="{&quot;index&quot;:null}" fill="none"/><path d="M263.96589,236.00628v-4.02863h4.02863v4.02863z" data-paper-data="{&quot;index&quot;:null}" fill="none"/><path d="M259.97304,240.05087v-4.02863h4.02863v4.02863z" data-paper-data="{&quot;index&quot;:null}" fill="none"/><path d="M263.96589,240.03891v-4.02863h4.02863v4.02863z" data-paper-data="{&quot;index&quot;:null}" fill="none"/><path d="M259.97304,236.03376v-4.02863h4.02863v4.02863z" data-paper-data="{&quot;index&quot;:null}" fill="none"/><path d="M255.96581,235.97214v-4.02863h4.02863v4.02863z" data-paper-data="{&quot;index&quot;:null}" fill="#000000"/><path d="M251.97296,240.01673v-4.02863h4.02863v4.02863z" data-paper-data="{&quot;index&quot;:null}" fill="none"/><path d="M255.96581,240.00477v-4.02863h4.02863v4.02863z" data-paper-data="{&quot;index&quot;:null}" fill="#323232"/><path d="M251.97296,235.99962v-4.02863h4.02863v4.02863z" data-paper-data="{&quot;index&quot;:null}" fill="none"/><path d="M248.00983,228.07768v-4.02863h4.02863v4.02863z" data-paper-data="{&quot;index&quot;:null}" fill="none"/><path d="M244.01698,232.0491v-4.02863h4.02863v4.02863z" data-paper-data="{&quot;index&quot;:null}" fill="#000000"/><path d="M248.00983,232.11031v-4.02863h4.02863v4.02863z" data-paper-data="{&quot;index&quot;:null}" fill="none"/><path d="M244.01698,228.10516v-4.02863h4.02863v4.02863z" data-paper-data="{&quot;index&quot;:null}" fill="#000000"/><path d="M240.00975,228.04354v-4.02863h4.02863v4.02863z" data-paper-data="{&quot;index&quot;:null}" fill="none"/><path d="M236.01691,232.01496v-4.02863h4.02863v4.02863z" data-paper-data="{&quot;index&quot;:null}" fill="none"/><path d="M240.00975,232.07617v-4.02863h4.02863v4.02863z" data-paper-data="{&quot;index&quot;:null}" fill="none"/><path d="M236.01691,228.07102v-4.02863h4.02863v4.02863z" data-paper-data="{&quot;index&quot;:null}" fill="#323232"/><path d="M247.99645,236.03722v-4.02863h4.02863v4.02863z" data-paper-data="{&quot;index&quot;:null}" fill="none"/><path d="M244.00361,240.08181v-4.02863h4.02863v4.02863z" data-paper-data="{&quot;index&quot;:null}" fill="#323232"/><path d="M247.99645,240.06985v-4.02863h4.02863v4.02863z" data-paper-data="{&quot;index&quot;:null}" fill="none"/><path d="M244.00361,236.0647v-4.02863h4.02863v4.02863z" data-paper-data="{&quot;index&quot;:null}" fill="#000000"/><path d="M239.99637,236.00308v-4.02863h4.02863v4.02863z" data-paper-data="{&quot;index&quot;:null}" fill="none"/><path d="M236.00353,240.04767v-4.02863h4.02863v4.02863z" data-paper-data="{&quot;index&quot;:null}" fill="none"/><path d="M239.99637,240.03571v-4.02863h4.02863v4.02863z" data-paper-data="{&quot;index&quot;:null}" fill="none"/><path d="M236.00353,236.03056v-4.02863h4.02863v4.02863z" data-paper-data="{&quot;index&quot;:null}" fill="none"/></g></g></svg>