<svg version="1.1" xmlns="http://www.w3.org/2000/svg" xmlns:xlink="http://www.w3.org/1999/xlink" width="535.2134" height="392.62844" viewBox="0,0,535.2134,392.62844"><g transform="translate(26.0191,30.36326)"><g data-paper-data="{&quot;isPaintingLayer&quot;:true}" fill="#ff0000" fill-rule="nonzero" stroke="none" stroke-width="0" stroke-linecap="butt" stroke-linejoin="miter" stroke-miterlimit="10" stroke-dasharray="" stroke-dashoffset="0" style="mix-blend-mode: normal"><path d="M134.97499,361.8509l0.02748,-16.85631l186.36463,0.1471c-0.67916,1.87013 -1.24016,3.75403 -1.85391,5.62534c-1.07103,3.26559 -2.45553,6.97562 -2.53821,10.33232v0.49577c0,0 0,0.15067 0.05298,0.39947z" data-paper-data="{&quot;index&quot;:null}"/><path d="M486.99166,362.26518l-95.36948,-0.15183c-0.01185,-1.384 -0.08261,-2.75985 -0.16034,-4.08679c-0.1281,-2.18681 -2.69394,-3.49784 -3.62904,-5.47879c-1.97241,-4.17845 -1.88339,-9.06904 -3.34797,-13.45137c-0.62334,-1.86517 -2.2273,-3.317 -2.77734,-5.20509c-0.32957,-1.1313 0.32794,-2.35274 0.23344,-3.52728c-0.06118,-0.76037 -0.17069,-1.51479 -0.30125,-2.2666l105.37946,0.16777z" data-paper-data="{&quot;index&quot;:null}"/><path d="M134.96245,362.26518l-160.98155,-0.27567l0.01257,-16.72433l160.98155,0.27567z" data-paper-data="{&quot;index&quot;:null}"/><path d="M134.97499,273.19351v-136.00467h31v136.00467z"/><path d="M103.97501,142.18884v-36h31v36z"/><path d="M-5.5,5.63674v-36h491v36z"/><path d="M476.19431,355.68884v-374h33v374z"/><path d="M-17.02499,357.18884v-377h21v377z"/><path d="M116.97501,154.18884v-29h30v29z"/><path d="M138.64218,273.19351v-17h355.00003v17z"/></g></g></svg>