<svg version="1.1" xmlns="http://www.w3.org/2000/svg" xmlns:xlink="http://www.w3.org/1999/xlink" width="32.0611" height="64.10046" viewBox="0,0,32.0611,64.10046"><g transform="translate(-236.00354,-175.9694)"><g data-paper-data="{&quot;isPaintingLayer&quot;:true}" fill-rule="nonzero" stroke="none" stroke-width="0" stroke-linecap="butt" stroke-linejoin="miter" stroke-miterlimit="10" stroke-dasharray="" stroke-dashoffset="0" style="mix-blend-mode: normal"><path d="M236.00354,180.03217v-4.02863h4.02863v4.02863z" fill="none"/><path d="M239.99638,184.00358v-4.02863h4.02863v4.02863z" fill="none"/><path d="M236.00354,184.06479v-4.02863h4.02863v4.02863z" fill="none"/><path d="M239.99638,180.05964v-4.02863h4.02863v4.02863z" fill="none"/><path d="M244.00363,179.99803v-4.02863h4.02863v4.02863z" fill="none"/><path d="M247.99647,183.96944v-4.02863h4.02863v4.02863z" fill="#000000"/><path d="M244.00363,184.03065v-4.02863h4.02863v4.02863z" fill="#000000"/><path d="M247.99647,180.0255v-4.02863h4.02863v4.02863z" fill="none"/><path d="M236.0169,187.99171v-4.02863h4.02863v4.02863z" fill="none"/><path d="M240.00974,192.0363v-4.02863h4.02863v4.02863z" fill="#000000"/><path d="M236.0169,192.02433v-4.02863h4.02863v4.02863z" fill="none"/><path d="M240.00974,188.01918v-4.02863h4.02863v4.02863z" fill="#000000"/><path d="M244.01698,187.95757v-4.02863h4.02863v4.02863z" fill="#000000"/><path d="M248.00982,192.00216v-4.02863h4.02863v4.02863z" fill="#ffffff"/><path d="M244.01698,191.99019v-4.02863h4.02863v4.02863z" fill="#5e5e5e"/><path d="M248.00982,187.98504v-4.02863h4.02863v4.02863z" fill="#5e5e5e"/><path d="M251.97299,180.06311v-4.02863h4.02863v4.02863z" fill="none"/><path d="M255.96584,184.03452v-4.02863h4.02863v4.02863z" fill="#000000"/><path d="M251.97299,184.09573v-4.02863h4.02863v4.02863z" fill="#000000"/><path d="M255.96584,180.09058v-4.02863h4.02863v4.02863z" fill="none"/><path d="M259.97306,180.02897v-4.02863h4.02863v4.02863z" fill="none"/><path d="M263.9659,184.00038v-4.02863h4.02863v4.02863z" fill="none"/><path d="M259.97306,184.06159v-4.02863h4.02863v4.02863z" fill="#d2d2d2"/><path d="M263.9659,180.05644v-4.02863h4.02863v4.02863z" fill="none"/><path d="M251.98635,188.02265v-4.02863h4.02863v4.02863z" fill="#5e5e5e"/><path d="M255.97919,192.06724v-4.02863h4.02863v4.02863z" fill="#ffffff"/><path d="M251.98635,192.05527v-4.02863h4.02863v4.02863z" fill="#5e5e5e"/><path d="M255.97919,188.05012v-4.02863h4.02863v4.02863z" fill="#5e5e5e"/><path d="M259.98641,187.98851v-4.02863h4.02863v4.02863z" fill="#000000"/><path d="M263.97927,192.0331v-4.02863h4.02863v4.02863z" fill="none"/><path d="M259.98641,192.02113v-4.02863h4.02863v4.02863z" fill="#000000"/><path d="M263.97927,188.01598v-4.02863h4.02863v4.02863z" fill="none"/><path d="M236.0345,196.02717v-4.02863h4.02863v4.02863z" fill="none"/><path d="M240.02734,199.99859v-4.02863h4.02863v4.02863z" fill="#000000"/><path d="M236.0345,200.0598v-4.02863h4.02863v4.02863z" fill="none"/><path d="M240.02734,196.05465v-4.02863h4.02863v4.02863z" fill="#000000"/><path d="M244.03454,195.99303v-4.02863h4.02863v4.02863z" fill="#5e5e5e"/><path d="M248.02738,199.96445v-4.02863h4.02863v4.02863z" fill="#5e5e5e"/><path d="M244.03454,200.02566v-4.02863h4.02863v4.02863z" fill="#000000"/><path d="M248.02738,196.02051v-4.02863h4.02863v4.02863z" fill="#5e5e5e"/><path d="M236.04786,203.98671v-4.02863h4.02863v4.02863z" fill="none"/><path d="M240.0407,208.0313v-4.02863h4.02863v4.02863z" fill="#000000"/><path d="M236.04786,208.01934v-4.02863h4.02863v4.02863z" fill="#323232"/><path d="M240.0407,204.01419v-4.02863h4.02863v4.02863z" fill="#323232"/><path d="M244.04795,203.95257v-4.02863h4.02863v4.02863z" fill="#000000"/><path d="M248.04079,207.99716v-4.02863h4.02863v4.02863z" fill="#000000"/><path d="M244.04795,207.9852v-4.02863h4.02863v4.02863z" fill="#000000"/><path d="M248.04079,203.98005v-4.02863h4.02863v4.02863z" fill="#000000"/><path d="M252.0039,196.05811v-4.02863h4.02863v4.02863z" fill="#5e5e5e"/><path d="M255.99674,200.02953v-4.02863h4.02863v4.02863z" fill="#5e5e5e"/><path d="M252.0039,200.09074v-4.02863h4.02863v4.02863z" fill="#5e5e5e"/><path d="M255.99674,196.08559v-4.02863h4.02863v4.02863z" fill="#5e5e5e"/><path d="M260.00397,196.02397v-4.02863h4.02863v4.02863z" fill="#000000"/><path d="M263.99683,199.99539v-4.02863h4.02863v4.02863z" fill="none"/><path d="M260.00397,200.0566v-4.02863h4.02863v4.02863z" fill="#4c4c4c"/><path d="M263.99683,196.05145v-4.02863h4.02863v4.02863z" fill="none"/><path d="M252.01731,204.01765v-4.02863h4.02863v4.02863z" fill="#000000"/><path d="M256.01012,208.06224v-4.02863h4.02863v4.02863z" fill="#000000"/><path d="M252.01731,208.05028v-4.02863h4.02863v4.02863z" fill="#838383"/><path d="M256.01012,204.04513v-4.02863h4.02863v4.02863z" fill="#000000"/><path d="M260.01739,203.98351v-4.02863h4.02863v4.02863z" fill="#000000"/><path d="M264.01021,208.0281v-4.02863h4.02863v4.02863z" fill="none"/><path d="M260.01739,208.01614v-4.02863h4.02863v4.02863z" fill="#323232"/><path d="M264.01021,204.01099v-4.02863h4.02863v4.02863z" fill="none"/><path d="M236.02933,212.05175v-4.02863h4.02863v4.02863z" fill="#000000"/><path d="M240.02218,216.02316v-4.02863h4.02863v4.02863z" fill="none"/><path d="M236.02933,216.08437v-4.02863h4.02863v4.02863z" fill="#000000"/><path d="M240.02218,212.07922v-4.02863h4.02863v4.02863z" fill="#323232"/><path d="M244.02942,212.01761v-4.02863h4.02863v4.02863z" fill="#000000"/><path d="M248.02226,215.98902v-4.02863h4.02863v4.02863z" fill="#000000"/><path d="M244.02942,216.05023v-4.02863h4.02863v4.02863z" fill="#000000"/><path d="M248.02226,212.04508v-4.02863h4.02863v4.02863z" fill="#000000"/><path d="M236.04275,220.01129v-4.02863h4.02863v4.02863z" fill="#000000"/><path d="M240.0356,224.05588v-4.02863h4.02863v4.02863z" fill="none"/><path d="M236.04275,224.04391v-4.02863h4.02863v4.02863z" fill="#323232"/><path d="M240.0356,220.03876v-4.02863h4.02863v4.02863z" fill="none"/><path d="M244.04283,219.97715v-4.02863h4.02863v4.02863z" fill="#000000"/><path d="M248.03568,224.02174v-4.02863h4.02863v4.02863z" fill="#000000"/><path d="M244.04283,224.00977v-4.02863h4.02863v4.02863z" fill="#323232"/><path d="M248.03568,220.00462v-4.02863h4.02863v4.02863z" fill="#000000"/><path d="M251.9988,212.08269v-4.02863h4.02863v4.02863z" fill="#000000"/><path d="M255.99163,216.0541v-4.02863h4.02863v4.02863z" fill="#000000"/><path d="M251.9988,216.11531v-4.02863h4.02863v4.02863z" fill="#a3a3a3"/><path d="M255.99163,212.11016v-4.02863h4.02863v4.02863z" fill="#000000"/><path d="M259.99886,212.04855v-4.02863h4.02863v4.02863z" fill="#000000"/><path d="M263.9917,216.01996v-4.02863h4.02863v4.02863z" fill="#000000"/><path d="M259.99886,216.08117v-4.02863h4.02863v4.02863z" fill="#323232"/><path d="M263.9917,212.07602v-4.02863h4.02863v4.02863z" fill="#323232"/><path d="M252.01215,220.04223v-4.02863h4.02863v4.02863z" fill="#000000"/><path d="M256.00503,224.08682v-4.02863h4.02863v4.02863z" fill="#323232"/><path d="M252.01215,224.07485v-4.02863h4.02863v4.02863z" fill="#000000"/><path d="M256.00503,220.0697v-4.02863h4.02863v4.02863z" fill="#000000"/><path d="M260.01223,220.00809v-4.02863h4.02863v4.02863z" fill="none"/><path d="M264.00507,224.05268v-4.02863h4.02863v4.02863z" fill="#000000"/><path d="M260.01223,224.04071v-4.02863h4.02863v4.02863z" fill="none"/><path d="M264.00507,220.03556v-4.02863h4.02863v4.02863z" fill="#000000"/><path d="M236.06031,228.04675v-4.02863h4.02863v4.02863z" fill="none"/><path d="M240.05315,232.01817v-4.02863h4.02863v4.02863z" fill="none"/><path d="M236.06031,232.07938v-4.02863h4.02863v4.02863z" fill="none"/><path d="M240.05315,228.07423v-4.02863h4.02863v4.02863z" fill="none"/><path d="M244.06039,228.01261v-4.02863h4.02863v4.02863z" fill="#000000"/><path d="M248.05324,231.98403v-4.02863h4.02863v4.02863z" fill="none"/><path d="M244.06039,232.04524v-4.02863h4.02863v4.02863z" fill="#000000"/><path d="M248.05324,228.04009v-4.02863h4.02863v4.02863z" fill="none"/><path d="M236.07365,236.00629v-4.02863h4.02863v4.02863z" fill="none"/><path d="M240.0665,240.05088v-4.02863h4.02863v4.02863z" fill="none"/><path d="M236.07365,240.03892v-4.02863h4.02863v4.02863z" fill="none"/><path d="M240.0665,236.03377v-4.02863h4.02863v4.02863z" fill="none"/><path d="M244.07374,235.97215v-4.02863h4.02863v4.02863z" fill="#000000"/><path d="M248.06658,240.01674v-4.02863h4.02863v4.02863z" fill="none"/><path d="M244.07374,240.00478v-4.02863h4.02863v4.02863z" fill="#323232"/><path d="M248.06658,235.99963v-4.02863h4.02863v4.02863z" fill="none"/><path d="M252.02975,228.07769v-4.02863h4.02863v4.02863z" fill="none"/><path d="M256.02257,232.04911v-4.02863h4.02863v4.02863z" fill="#323232"/><path d="M252.02975,232.11032v-4.02863h4.02863v4.02863z" fill="none"/><path d="M256.02257,228.10517v-4.02863h4.02863v4.02863z" fill="#000000"/><path d="M260.02979,228.04355v-4.02863h4.02863v4.02863z" fill="none"/><path d="M264.02263,232.01497v-4.02863h4.02863v4.02863z" fill="none"/><path d="M260.02979,232.07618v-4.02863h4.02863v4.02863z" fill="none"/><path d="M264.02263,228.07103v-4.02863h4.02863v4.02863z" fill="#323232"/><path d="M252.04312,236.03723v-4.02863h4.02863v4.02863z" fill="none"/><path d="M256.02257,235.92765v-4.02863h4.02863v4.02863z" fill="none"/><path d="M252.04312,240.06986v-4.02863h4.02863v4.02863z" fill="none"/><path d="M260.04317,236.00309v-4.02863h4.02863v4.02863z" fill="none"/><path d="M264.03601,240.04768v-4.02863h4.02863v4.02863z" fill="none"/><path d="M260.04317,240.03572v-4.02863h4.02863v4.02863z" fill="none"/><path d="M264.03601,236.03057v-4.02863h4.02863v4.02863z" fill="none"/></g></g></svg>