<svg version="1.1" xmlns="http://www.w3.org/2000/svg" xmlns:xlink="http://www.w3.org/1999/xlink" width="32.06113" height="64.11242" viewBox="0,0,32.06113,64.11242"><g transform="translate(-236.00351,-175.96937)"><g data-paper-data="{&quot;isPaintingLayer&quot;:true}" fill-rule="nonzero" stroke="none" stroke-width="0" stroke-linecap="butt" stroke-linejoin="miter" stroke-miterlimit="10" stroke-dasharray="" stroke-dashoffset="0" style="mix-blend-mode: normal"><g><path d="M236.00352,180.03215v-4.02863h4.02863v4.02863z" fill="none"/><path d="M239.99636,184.00356v-4.02863h4.02863v4.02863z" fill="none"/><path d="M236.00352,184.06477v-4.02863h4.02863v4.02863z" fill="none"/><path d="M239.99636,180.05962v-4.02863h4.02863v4.02863z" fill="none"/><path d="M244.0036,179.99801v-4.02863h4.02863v4.02863z" fill="none"/><path d="M247.99644,183.96942v-4.02863h4.02863v4.02863z" fill="#000000"/><path d="M244.0036,184.03063v-4.02863h4.02863v4.02863z" fill="#000000"/><path d="M247.99644,180.02548v-4.02863h4.02863v4.02863z" fill="none"/><path d="M236.0169,187.99169v-4.02863h4.02863v4.02863z" fill="none"/><path d="M240.00974,192.03628v-4.02863h4.02863v4.02863z" fill="#000000"/><path d="M236.0169,192.02431v-4.02863h4.02863v4.02863z" fill="none"/><path d="M240.00974,188.01916v-4.02863h4.02863v4.02863z" fill="#000000"/><path d="M244.01698,187.95755v-4.02863h4.02863v4.02863z" fill="#000000"/><path d="M248.00982,192.00214v-4.02863h4.02863v4.02863z" fill="#ffffff"/><path d="M244.01698,191.99017v-4.02863h4.02863v4.02863z" fill="#5e5e5e"/><path d="M248.00982,187.98502v-4.02863h4.02863v4.02863z" fill="#5e5e5e"/><path d="M251.97295,180.06309v-4.02863h4.02863v4.02863z" fill="none"/><path d="M255.9658,184.0345v-4.02863h4.02863v4.02863z" fill="#000000"/><path d="M251.97295,184.09571v-4.02863h4.02863v4.02863z" fill="#000000"/><path d="M255.9658,180.09056v-4.02863h4.02863v4.02863z" fill="none"/><path d="M259.97303,180.02895v-4.02863h4.02863v4.02863z" fill="none"/><path d="M263.96588,184.00036v-4.02863h4.02863v4.02863z" fill="none"/><path d="M259.97303,184.06157v-4.02863h4.02863v4.02863z" fill="#d2d2d2"/><path d="M263.96588,180.05642v-4.02863h4.02863v4.02863z" fill="none"/><path d="M251.98633,188.02263v-4.02863h4.02863v4.02863z" fill="#5e5e5e"/><path d="M255.97918,192.06722v-4.02863h4.02863v4.02863z" fill="#ffffff"/><path d="M251.98633,192.05525v-4.02863h4.02863v4.02863z" fill="#5e5e5e"/><path d="M255.97918,188.0501v-4.02863h4.02863v4.02863z" fill="#5e5e5e"/><path d="M259.98641,187.98849v-4.02863h4.02863v4.02863z" fill="#000000"/><path d="M263.97926,192.03308v-4.02863h4.02863v4.02863z" fill="none"/><path d="M259.98641,192.02111v-4.02863h4.02863v4.02863z" fill="#000000"/><path d="M263.97926,188.01596v-4.02863h4.02863v4.02863z" fill="none"/><path d="M236.03446,196.02715v-4.02863h4.02863v4.02863z" fill="none"/><path d="M240.0273,199.99857v-4.02863h4.02863v4.02863z" fill="#000000"/><path d="M236.03446,200.05978v-4.02863h4.02863v4.02863z" fill="none"/><path d="M240.0273,196.05463v-4.02863h4.02863v4.02863z" fill="#000000"/><path d="M244.03454,195.99301v-4.02863h4.02863v4.02863z" fill="#5e5e5e"/><path d="M248.02738,199.96443v-4.02863h4.02863v4.02863z" fill="#5e5e5e"/><path d="M244.03454,200.02564v-4.02863h4.02863v4.02863z" fill="#000000"/><path d="M248.02738,196.02049v-4.02863h4.02863v4.02863z" fill="#5e5e5e"/><path d="M236.04784,203.98669v-4.02863h4.02863v4.02863z" fill="none"/><path d="M240.04068,208.03128v-4.02863h4.02863v4.02863z" fill="#000000"/><path d="M236.04784,208.01932v-4.02863h4.02863v4.02863z" fill="#323232"/><path d="M240.04068,204.01417v-4.02863h4.02863v4.02863z" fill="#323232"/><path d="M244.04792,203.95255v-4.02863h4.02863v4.02863z" fill="#000000"/><path d="M248.04076,207.99714v-4.02863h4.02863v4.02863z" fill="#000000"/><path d="M244.04792,207.98518v-4.02863h4.02863v4.02863z" fill="#000000"/><path d="M248.04076,203.98003v-4.02863h4.02863v4.02863z" fill="#000000"/><path d="M252.00389,196.05809v-4.02863h4.02863v4.02863z" fill="#5e5e5e"/><path d="M255.99674,200.02951v-4.02863h4.02863v4.02863z" fill="#5e5e5e"/><path d="M252.00389,200.09072v-4.02863h4.02863v4.02863z" fill="#5e5e5e"/><path d="M255.99674,196.08557v-4.02863h4.02863v4.02863z" fill="#5e5e5e"/><path d="M260.00397,196.02395v-4.02863h4.02863v4.02863z" fill="#000000"/><path d="M263.99682,199.99537v-4.02863h4.02863v4.02863z" fill="none"/><path d="M260.00397,200.05658v-4.02863h4.02863v4.02863z" fill="#4c4c4c"/><path d="M263.99682,196.05143v-4.02863h4.02863v4.02863z" fill="none"/><path d="M252.01727,204.01763v-4.02863h4.02863v4.02863z" fill="#000000"/><path d="M256.01012,208.06222v-4.02863h4.02863v4.02863z" fill="#000000"/><path d="M252.01727,208.05026v-4.02863h4.02863v4.02863z" fill="#838383"/><path d="M256.01012,204.04511v-4.02863h4.02863v4.02863z" fill="#000000"/><path d="M260.01735,203.98349v-4.02863h4.02863v4.02863z" fill="#000000"/><path d="M264.0102,208.02808v-4.02863h4.02863v4.02863z" fill="none"/><path d="M260.01735,208.01612v-4.02863h4.02863v4.02863z" fill="#323232"/><path d="M264.0102,204.01097v-4.02863h4.02863v4.02863z" fill="none"/><path d="M236.02933,212.05173v-4.02863h4.02863v4.02863z" fill="#000000"/><path d="M240.02218,216.02314v-4.02863h4.02863v4.02863z" fill="none"/><path d="M236.02933,216.08435v-4.02863h4.02863v4.02863z" fill="#000000"/><path d="M240.02218,212.0792v-4.02863h4.02863v4.02863z" fill="#323232"/><path d="M244.02941,212.01759v-4.02863h4.02863v4.02863z" fill="#000000"/><path d="M248.02226,215.989v-4.02863h4.02863v4.02863z" fill="#000000"/><path d="M244.02941,216.05021v-4.02863h4.02863v4.02863z" fill="#000000"/><path d="M248.02226,212.04506v-4.02863h4.02863v4.02863z" fill="#000000"/><path d="M236.04271,220.01127v-4.02863h4.02863v4.02863z" fill="#000000"/><path d="M240.03556,224.05586v-4.02863h4.02863v4.02863z" fill="none"/><path d="M236.04271,224.04389v-4.02863h4.02863v4.02863z" fill="#323232"/><path d="M240.03556,220.03874v-4.02863h4.02863v4.02863z" fill="none"/><path d="M244.04279,219.97713v-4.02863h4.02863v4.02863z" fill="#000000"/><path d="M248.03564,224.02172v-4.02863h4.02863v4.02863z" fill="#000000"/><path d="M244.04279,224.00975v-4.02863h4.02863v4.02863z" fill="#323232"/><path d="M248.03564,220.0046v-4.02863h4.02863v4.02863z" fill="#000000"/><path d="M251.99877,212.08267v-4.02863h4.02863v4.02863z" fill="#000000"/><path d="M255.99161,216.05408v-4.02863h4.02863v4.02863z" fill="#000000"/><path d="M251.99877,216.11529v-4.02863h4.02863v4.02863z" fill="#a3a3a3"/><path d="M255.99161,212.11014v-4.02863h4.02863v4.02863z" fill="#000000"/><path d="M259.99885,212.04853v-4.02863h4.02863v4.02863z" fill="#000000"/><path d="M263.99169,216.01994v-4.02863h4.02863v4.02863z" fill="#000000"/><path d="M259.99885,216.08115v-4.02863h4.02863v4.02863z" fill="#323232"/><path d="M263.99169,212.076v-4.02863h4.02863v4.02863z" fill="#323232"/><path d="M252.01215,220.04221v-4.02863h4.02863v4.02863z" fill="#000000"/><path d="M256.00499,224.0868v-4.02863h4.02863v4.02863z" fill="#323232"/><path d="M252.01215,224.07483v-4.02863h4.02863v4.02863z" fill="#000000"/><path d="M256.00499,220.06968v-4.02863h4.02863v4.02863z" fill="#000000"/><path d="M260.01223,220.00807v-4.02863h4.02863v4.02863z" fill="none"/><path d="M264.00507,224.05266v-4.02863h4.02863v4.02863z" fill="#000000"/><path d="M260.01223,224.04069v-4.02863h4.02863v4.02863z" fill="none"/><path d="M264.00507,220.03554v-4.02863h4.02863v4.02863z" fill="#000000"/><path d="M236.06027,228.04673v-4.02863h4.02863v4.02863z" fill="none"/><path d="M240.05312,232.01815v-4.02863h4.02863v4.02863z" fill="none"/><path d="M236.06027,232.07936v-4.02863h4.02863v4.02863z" fill="none"/><path d="M240.05312,228.07421v-4.02863h4.02863v4.02863z" fill="none"/><path d="M244.06035,228.01259v-4.02863h4.02863v4.02863z" fill="#000000"/><path d="M248.0532,231.98401v-4.02863h4.02863v4.02863z" fill="none"/><path d="M244.06035,232.04522v-4.02863h4.02863v4.02863z" fill="#000000"/><path d="M248.0532,228.04007v-4.02863h4.02863v4.02863z" fill="none"/><path d="M236.07365,236.00627v-4.02863h4.02863v4.02863z" fill="none"/><path d="M240.0665,240.05086v-4.02863h4.02863v4.02863z" fill="none"/><path d="M236.07365,240.0389v-4.02863h4.02863v4.02863z" fill="none"/><path d="M240.0665,236.03375v-4.02863h4.02863v4.02863z" fill="none"/><path d="M244.07373,235.97213v-4.02863h4.02863v4.02863z" fill="#000000"/><path d="M248.06658,240.01672v-4.02863h4.02863v4.02863z" fill="none"/><path d="M244.07373,240.00476v-4.02863h4.02863v4.02863z" fill="#323232"/><path d="M248.06658,235.99961v-4.02863h4.02863v4.02863z" fill="none"/><path d="M252.02971,228.07767v-4.02863h4.02863v4.02863z" fill="none"/><path d="M256.02255,232.04909v-4.02863h4.02863v4.02863z" fill="#000000"/><path d="M252.02971,232.1103v-4.02863h4.02863v4.02863z" fill="none"/><path d="M256.02255,228.10515v-4.02863h4.02863v4.02863z" fill="#000000"/><path d="M260.02979,228.04353v-4.02863h4.02863v4.02863z" fill="none"/><path d="M264.02263,232.01495v-4.02863h4.02863v4.02863z" fill="none"/><path d="M260.02979,232.07616v-4.02863h4.02863v4.02863z" fill="none"/><path d="M264.02263,228.07101v-4.02863h4.02863v4.02863z" fill="#323232"/><path d="M252.04309,236.03721v-4.02863h4.02863v4.02863z" fill="none"/><path d="M256.03593,240.0818v-4.02863h4.02863v4.02863z" fill="#323232"/><path d="M252.04309,240.06984v-4.02863h4.02863v4.02863z" fill="none"/><path d="M256.03593,236.06469v-4.02863h4.02863v4.02863z" fill="#000000"/><path d="M260.04317,236.00307v-4.02863h4.02863v4.02863z" fill="none"/><path d="M264.03601,240.04766v-4.02863h4.02863v4.02863z" fill="none"/><path d="M260.04317,240.0357v-4.02863h4.02863v4.02863z" fill="none"/><path d="M264.03601,236.03055v-4.02863h4.02863v4.02863z" fill="none"/></g></g></g></svg>