<svg version="1.1" xmlns="http://www.w3.org/2000/svg" xmlns:xlink="http://www.w3.org/1999/xlink" width="32.06112" height="64.18885" viewBox="0,0,32.06112,64.18885"><g transform="translate(-236.00354,-175.96942)"><g data-paper-data="{&quot;isPaintingLayer&quot;:true}" fill-rule="nonzero" stroke="none" stroke-width="0" stroke-linecap="butt" stroke-linejoin="miter" stroke-miterlimit="10" stroke-dasharray="" stroke-dashoffset="0" style="mix-blend-mode: normal"><path d="M236.00354,180.0322v-4.02863h4.02863v4.02863z" fill="none"/><path d="M239.99638,184.00361v-4.02863h4.02863v4.02863z" fill="none"/><path d="M236.00354,184.06479v-4.02863h4.02863v4.02863z" fill="none"/><path d="M239.99638,180.05967v-4.02863h4.02863v4.02863z" fill="none"/><path d="M244.00363,179.99806v-4.02863h4.02863v4.02863z" fill="none"/><path d="M247.99647,183.96944v-4.02863h4.02863v4.02863z" fill="#000000"/><path d="M244.00363,184.03067v-4.02863h4.02863v4.02863z" fill="#000000"/><path d="M247.99647,180.0255v-4.02863h4.02863v4.02863z" fill="none"/><path d="M236.01694,187.99172v-4.02863h4.02863v4.02863z" fill="none"/><path d="M240.00978,192.03631v-4.02863h4.02863v4.02863z" fill="#000000"/><path d="M236.01694,192.02433v-4.02863h4.02863v4.02863z" fill="none"/><path d="M240.00978,188.01921v-4.02863h4.02863v4.02863z" fill="#000000"/><path d="M244.01699,187.9576v-4.02863h4.02863v4.02863z" fill="#000000"/><path d="M248.00983,192.00219v-4.02863h4.02863v4.02863z" fill="#ffffff"/><path d="M244.01699,191.9902v-4.02863h4.02863v4.02863z" fill="#5e5e5e"/><path d="M248.00983,187.98507v-4.02863h4.02863v4.02863z" fill="#5e5e5e"/><path d="M251.973,180.06314v-4.02863h4.02863v4.02863z" fill="none"/><path d="M255.96584,184.03452v-4.02863h4.02863v4.02863z" fill="#000000"/><path d="M251.973,184.09576v-4.02863h4.02863v4.02863z" fill="#000000"/><path d="M255.96584,180.09058v-4.02863h4.02863v4.02863z" fill="none"/><path d="M259.97306,180.02897v-4.02863h4.02863v4.02863z" fill="none"/><path d="M263.9659,184.00041v-4.02863h4.02863v4.02863z" fill="none"/><path d="M259.97306,184.06162v-4.02863h4.02863v4.02863z" fill="#d2d2d2"/><path d="M263.9659,180.05646v-4.02863h4.02863v4.02863z" fill="none"/><path d="M251.98635,188.02268v-4.02863h4.02863v4.02863z" fill="#5e5e5e"/><path d="M255.9792,192.06727v-4.02863h4.02863v4.02863z" fill="#ffffff"/><path d="M251.98635,192.0553v-4.02863h4.02863v4.02863z" fill="#5e5e5e"/><path d="M255.9792,188.05012v-4.02863h4.02863v4.02863z" fill="#5e5e5e"/><path d="M259.98643,187.98851v-4.02863h4.02863v4.02863z" fill="#000000"/><path d="M263.97927,192.0331v-4.02863h4.02863v4.02863z" fill="none"/><path d="M259.98643,192.02116v-4.02863h4.02863v4.02863z" fill="#000000"/><path d="M263.97927,188.01599v-4.02863h4.02863v4.02863z" fill="none"/><path d="M236.03451,196.02718v-4.02863h4.02863v4.02863z" fill="none"/><path d="M240.02735,199.99862v-4.02863h4.02863v4.02863z" fill="#000000"/><path d="M236.03451,200.05983v-4.02863h4.02863v4.02863z" fill="none"/><path d="M240.02735,196.05467v-4.02863h4.02863v4.02863z" fill="#000000"/><path d="M244.03458,195.99306v-4.02863h4.02863v4.02863z" fill="#5e5e5e"/><path d="M248.02742,199.96448v-4.02863h4.02863v4.02863z" fill="#5e5e5e"/><path d="M244.03458,200.02566v-4.02863h4.02863v4.02863z" fill="#000000"/><path d="M248.02742,196.02054v-4.02863h4.02863v4.02863z" fill="#5e5e5e"/><path d="M236.04786,203.98671v-4.02863h4.02863v4.02863z" fill="none"/><path d="M240.0407,208.0313v-4.02863h4.02863v4.02863z" fill="#000000"/><path d="M236.04786,208.01937v-4.02863h4.02863v4.02863z" fill="#323232"/><path d="M240.0407,204.0142v-4.02863h4.02863v4.02863z" fill="#323232"/><path d="M244.04795,203.95259v-4.02863h4.02863v4.02863z" fill="#000000"/><path d="M248.04079,207.99718v-4.02863h4.02863v4.02863z" fill="#000000"/><path d="M244.04795,207.9852v-4.02863h4.02863v4.02863z" fill="#000000"/><path d="M248.04079,203.98008v-4.02863h4.02863v4.02863z" fill="#000000"/><path d="M252.00391,196.05814v-4.02863h4.02863v4.02863z" fill="#5e5e5e"/><path d="M255.99675,200.02956v-4.02863h4.02863v4.02863z" fill="#5e5e5e"/><path d="M252.00391,200.09076v-4.02863h4.02863v4.02863z" fill="#5e5e5e"/><path d="M255.99675,196.08562v-4.02863h4.02863v4.02863z" fill="#5e5e5e"/><path d="M260.00399,196.02397v-4.02863h4.02863v4.02863z" fill="#000000"/><path d="M263.99683,199.99539v-4.02863h4.02863v4.02863z" fill="none"/><path d="M260.00399,200.05663v-4.02863h4.02863v4.02863z" fill="#4c4c4c"/><path d="M263.99683,196.05145v-4.02863h4.02863v4.02863z" fill="none"/><path d="M252.01732,204.01768v-4.02863h4.02863v4.02863z" fill="#000000"/><path d="M256.01014,208.06227v-4.02863h4.02863v4.02863z" fill="#000000"/><path d="M252.01732,208.05028v-4.02863h4.02863v4.02863z" fill="#838383"/><path d="M256.01014,204.04516v-4.02863h4.02863v4.02863z" fill="#000000"/><path d="M260.01739,203.98354v-4.02863h4.02863v4.02863z" fill="#000000"/><path d="M264.01023,208.02813v-4.02863h4.02863v4.02863z" fill="none"/><path d="M260.01739,208.01617v-4.02863h4.02863v4.02863z" fill="#323232"/><path d="M264.01023,204.01099v-4.02863h4.02863v4.02863z" fill="none"/><path d="M236.02934,212.05178v-4.02863h4.02863v4.02863z" fill="#000000"/><path d="M240.02222,216.02316v-4.02863h4.02863v4.02863z" fill="none"/><path d="M236.02934,216.0844v-4.02863h4.02863v4.02863z" fill="#000000"/><path d="M240.02222,212.07922v-4.02863h4.02863v4.02863z" fill="#323232"/><path d="M244.02943,212.01761v-4.02863h4.02863v4.02863z" fill="#000000"/><path d="M248.02227,215.98904v-4.02863h4.02863v4.02863z" fill="#000000"/><path d="M244.02943,216.05026v-4.02863h4.02863v4.02863z" fill="#000000"/><path d="M248.02227,212.04509v-4.02863h4.02863v4.02863z" fill="#000000"/><path d="M236.04276,220.01132v-4.02863h4.02863v4.02863z" fill="#000000"/><path d="M240.0356,224.05591v-4.02863h4.02863v4.02863z" fill="none"/><path d="M236.04276,224.04393v-4.02863h4.02863v4.02863z" fill="#323232"/><path d="M240.0356,220.03879v-4.02863h4.02863v4.02863z" fill="none"/><path d="M244.04284,219.97718v-4.02863h4.02863v4.02863z" fill="#000000"/><path d="M248.03569,224.02177v-4.02863h4.02863v4.02863z" fill="#000000"/><path d="M244.04284,224.0098v-4.02863h4.02863v4.02863z" fill="#323232"/><path d="M248.03569,220.00462v-4.02863h4.02863v4.02863z" fill="#000000"/><path d="M251.9988,212.0827v-4.02863h4.02863v4.02863z" fill="#000000"/><path d="M255.99163,216.05413v-4.02863h4.02863v4.02863z" fill="#000000"/><path d="M251.9988,216.11531v-4.02863h4.02863v4.02863z" fill="#a3a3a3"/><path d="M255.99163,212.11019v-4.02863h4.02863v4.02863z" fill="#000000"/><path d="M259.99888,212.04858v-4.02863h4.02863v4.02863z" fill="#000000"/><path d="M263.99172,216.01999v-4.02863h4.02863v4.02863z" fill="#000000"/><path d="M259.99888,216.08117v-4.02863h4.02863v4.02863z" fill="#323232"/><path d="M263.99172,212.07605v-4.02863h4.02863v4.02863z" fill="#323232"/><path d="M252.01219,220.04223v-4.02863h4.02863v4.02863z" fill="#000000"/><path d="M256.00503,224.08682v-4.02863h4.02863v4.02863z" fill="#323232"/><path d="M252.01219,224.07488v-4.02863h4.02863v4.02863z" fill="#000000"/><path d="M256.00503,220.06971v-4.02863h4.02863v4.02863z" fill="#000000"/><path d="M260.01223,220.00811v-4.02863h4.02863v4.02863z" fill="none"/><path d="M264.00507,224.0527v-4.02863h4.02863v4.02863z" fill="#000000"/><path d="M260.01223,224.04071v-4.02863h4.02863v4.02863z" fill="none"/><path d="M264.00507,220.03559v-4.02863h4.02863v4.02863z" fill="#000000"/><path d="M236.06031,228.04678v-4.02863h4.02863v4.02863z" fill="none"/><path d="M240.05315,232.0182v-4.02863h4.02863v4.02863z" fill="none"/><path d="M236.06031,232.07938v-4.02863h4.02863v4.02863z" fill="none"/><path d="M240.05315,228.07426v-4.02863h4.02863v4.02863z" fill="none"/><path d="M244.0604,228.01264v-4.02863h4.02863v4.02863z" fill="#000000"/><path d="M248.05324,231.98403v-4.02863h4.02863v4.02863z" fill="none"/><path d="M244.0604,232.04527v-4.02863h4.02863v4.02863z" fill="#323232"/><path d="M248.05324,228.04009v-4.02863h4.02863v4.02863z" fill="none"/><path d="M236.07366,236.00632v-4.02863h4.02863v4.02863z" fill="none"/><path d="M240.06651,240.05091v-4.02863h4.02863v4.02863z" fill="none"/><path d="M236.07366,240.03892v-4.02863h4.02863v4.02863z" fill="none"/><path d="M240.06651,236.0338v-4.02863h4.02863v4.02863z" fill="none"/><path d="M255.9593,235.97218v-4.02863h4.02863v4.02863z" fill="#000000"/><path d="M248.06659,240.01677v-4.02863h4.02863v4.02863z" fill="none"/><path d="M255.9593,240.0048v-4.02863h4.02863v4.02863z" fill="#323232"/><path d="M248.06659,235.99966v-4.02863h4.02863v4.02863z" fill="none"/><path d="M252.02976,228.07769v-4.02863h4.02863v4.02863z" fill="none"/><path d="M256.02257,232.04912v-4.02863h4.02863v4.02863z" fill="#000000"/><path d="M252.02976,232.11035v-4.02863h4.02863v4.02863z" fill="none"/><path d="M256.02257,228.10517v-4.02863h4.02863v4.02863z" fill="#000000"/><path d="M260.02979,228.04357v-4.02863h4.02863v4.02863z" fill="none"/><path d="M264.02263,232.015v-4.02863h4.02863v4.02863z" fill="none"/><path d="M260.02979,232.07618v-4.02863h4.02863v4.02863z" fill="none"/><path d="M264.02263,228.07106v-4.02863h4.02863v4.02863z" fill="#323232"/><path d="M252.04312,236.03723v-4.02863h4.02863v4.02863z" fill="none"/><path d="M252.04312,240.06989v-4.02863h4.02863v4.02863z" fill="none"/><path d="M260.04319,236.00309v-4.02863h4.02863v4.02863z" fill="none"/><path d="M264.03603,240.04769v-4.02863h4.02863v4.02863z" fill="none"/><path d="M260.04319,240.03575v-4.02863h4.02863v4.02863z" fill="none"/><path d="M264.03603,236.03058v-4.02863h4.02863v4.02863z" fill="none"/><path d="M243.99646,236.12565v-4.02863h4.02863v4.02863z" fill="none"/><path d="M243.99646,240.15827v-4.02863h4.02863v4.02863z" fill="none"/></g></g></svg>