<svg version="1.1" xmlns="http://www.w3.org/2000/svg" xmlns:xlink="http://www.w3.org/1999/xlink" width="32.06112" height="64.10046" viewBox="0,0,32.06112,64.10046"><g transform="translate(-236.00354,-175.9694)"><g data-paper-data="{&quot;isPaintingLayer&quot;:true}" fill-rule="nonzero" stroke="none" stroke-width="0" stroke-linecap="butt" stroke-linejoin="miter" stroke-miterlimit="10" stroke-dasharray="" stroke-dashoffset="0" style="mix-blend-mode: normal"><path d="M264.03603,180.03217v-4.02863h4.02863v4.02863z" data-paper-data="{&quot;index&quot;:null}" fill="none"/><path d="M260.04319,184.00358v-4.02863h4.02863v4.02863z" data-paper-data="{&quot;index&quot;:null}" fill="none"/><path d="M264.03603,184.06479v-4.02863h4.02863v4.02863z" data-paper-data="{&quot;index&quot;:null}" fill="none"/><path d="M260.04319,180.05964v-4.02863h4.02863v4.02863z" data-paper-data="{&quot;index&quot;:null}" fill="none"/><path d="M256.03594,179.99803v-4.02863h4.02863v4.02863z" data-paper-data="{&quot;index&quot;:null}" fill="none"/><path d="M252.04312,183.96944v-4.02863h4.02863v4.02863z" data-paper-data="{&quot;index&quot;:null}" fill="#000000"/><path d="M256.03594,184.03065v-4.02863h4.02863v4.02863z" data-paper-data="{&quot;index&quot;:null}" fill="#000000"/><path d="M252.04312,180.0255v-4.02863h4.02863v4.02863z" data-paper-data="{&quot;index&quot;:null}" fill="none"/><path d="M264.02266,187.99171v-4.02863h4.02863v4.02863z" data-paper-data="{&quot;index&quot;:null}" fill="none"/><path d="M260.02982,192.0363v-4.02863h4.02863v4.02863z" data-paper-data="{&quot;index&quot;:null}" fill="#000000"/><path d="M264.02266,192.02433v-4.02863h4.02863v4.02863z" data-paper-data="{&quot;index&quot;:null}" fill="none"/><path d="M260.02982,188.01918v-4.02863h4.02863v4.02863z" data-paper-data="{&quot;index&quot;:null}" fill="#000000"/><path d="M256.02257,187.95757v-4.02863h4.02863v4.02863z" data-paper-data="{&quot;index&quot;:null}" fill="#000000"/><path d="M252.02976,192.00216v-4.02863h4.02863v4.02863z" data-paper-data="{&quot;index&quot;:null}" fill="#ffffff"/><path d="M256.02257,191.99019v-4.02863h4.02863v4.02863z" data-paper-data="{&quot;index&quot;:null}" fill="#5e5e5e"/><path d="M252.02976,187.98504v-4.02863h4.02863v4.02863z" data-paper-data="{&quot;index&quot;:null}" fill="#5e5e5e"/><path d="M248.06658,180.06311v-4.02863h4.02863v4.02863z" data-paper-data="{&quot;index&quot;:null}" fill="none"/><path d="M244.07374,184.03452v-4.02863h4.02863v4.02863z" data-paper-data="{&quot;index&quot;:null}" fill="#000000"/><path d="M248.06658,184.09573v-4.02863h4.02863v4.02863z" data-paper-data="{&quot;index&quot;:null}" fill="#000000"/><path d="M244.07374,180.09058v-4.02863h4.02863v4.02863z" data-paper-data="{&quot;index&quot;:null}" fill="none"/><path d="M240.0665,180.02897v-4.02863h4.02863v4.02863z" data-paper-data="{&quot;index&quot;:null}" fill="none"/><path d="M236.07365,184.00038v-4.02863h4.02863v4.02863z" data-paper-data="{&quot;index&quot;:null}" fill="none"/><path d="M240.0665,184.06159v-4.02863h4.02863v4.02863z" data-paper-data="{&quot;index&quot;:null}" fill="#d2d2d2"/><path d="M236.07365,180.05644v-4.02863h4.02863v4.02863z" data-paper-data="{&quot;index&quot;:null}" fill="none"/><path d="M248.05324,188.02265v-4.02863h4.02863v4.02863z" data-paper-data="{&quot;index&quot;:null}" fill="#5e5e5e"/><path d="M244.06039,192.06724v-4.02863h4.02863v4.02863z" data-paper-data="{&quot;index&quot;:null}" fill="#ffffff"/><path d="M248.05324,192.05527v-4.02863h4.02863v4.02863z" data-paper-data="{&quot;index&quot;:null}" fill="#5e5e5e"/><path d="M244.06039,188.05012v-4.02863h4.02863v4.02863z" data-paper-data="{&quot;index&quot;:null}" fill="#5e5e5e"/><path d="M240.05315,187.98851v-4.02863h4.02863v4.02863z" data-paper-data="{&quot;index&quot;:null}" fill="#000000"/><path d="M236.06031,192.0331v-4.02863h4.02863v4.02863z" data-paper-data="{&quot;index&quot;:null}" fill="none"/><path d="M240.05315,192.02113v-4.02863h4.02863v4.02863z" data-paper-data="{&quot;index&quot;:null}" fill="#000000"/><path d="M236.06031,188.01598v-4.02863h4.02863v4.02863z" data-paper-data="{&quot;index&quot;:null}" fill="none"/><path d="M264.00511,196.02717v-4.02863h4.02863v4.02863z" data-paper-data="{&quot;index&quot;:null}" fill="none"/><path d="M260.01227,199.99859v-4.02863h4.02863v4.02863z" data-paper-data="{&quot;index&quot;:null}" fill="#000000"/><path d="M264.00511,200.0598v-4.02863h4.02863v4.02863z" data-paper-data="{&quot;index&quot;:null}" fill="none"/><path d="M260.01227,196.05465v-4.02863h4.02863v4.02863z" data-paper-data="{&quot;index&quot;:null}" fill="#000000"/><path d="M256.00503,195.99303v-4.02863h4.02863v4.02863z" data-paper-data="{&quot;index&quot;:null}" fill="#5e5e5e"/><path d="M252.0122,199.96445v-4.02863h4.02863v4.02863z" data-paper-data="{&quot;index&quot;:null}" fill="#5e5e5e"/><path d="M256.00503,200.02566v-4.02863h4.02863v4.02863z" data-paper-data="{&quot;index&quot;:null}" fill="#000000"/><path d="M252.0122,196.02051v-4.02863h4.02863v4.02863z" data-paper-data="{&quot;index&quot;:null}" fill="#5e5e5e"/><path d="M263.9917,203.98671v-4.02863h4.02863v4.02863z" data-paper-data="{&quot;index&quot;:null}" fill="none"/><path d="M259.99886,208.0313v-4.02863h4.02863v4.02863z" data-paper-data="{&quot;index&quot;:null}" fill="#000000"/><path d="M263.9917,208.01934v-4.02863h4.02863v4.02863z" data-paper-data="{&quot;index&quot;:null}" fill="#323232"/><path d="M259.99886,204.01419v-4.02863h4.02863v4.02863z" data-paper-data="{&quot;index&quot;:null}" fill="#323232"/><path d="M255.99163,203.95257v-4.02863h4.02863v4.02863z" data-paper-data="{&quot;index&quot;:null}" fill="#000000"/><path d="M251.9988,207.99716v-4.02863h4.02863v4.02863z" data-paper-data="{&quot;index&quot;:null}" fill="#000000"/><path d="M255.99163,207.9852v-4.02863h4.02863v4.02863z" data-paper-data="{&quot;index&quot;:null}" fill="#000000"/><path d="M251.9988,203.98005v-4.02863h4.02863v4.02863z" data-paper-data="{&quot;index&quot;:null}" fill="#000000"/><path d="M248.03568,196.05811v-4.02863h4.02863v4.02863z" data-paper-data="{&quot;index&quot;:null}" fill="#5e5e5e"/><path d="M244.04284,200.02953v-4.02863h4.02863v4.02863z" data-paper-data="{&quot;index&quot;:null}" fill="#5e5e5e"/><path d="M248.03568,200.09074v-4.02863h4.02863v4.02863z" data-paper-data="{&quot;index&quot;:null}" fill="#5e5e5e"/><path d="M244.04284,196.08559v-4.02863h4.02863v4.02863z" data-paper-data="{&quot;index&quot;:null}" fill="#5e5e5e"/><path d="M240.0356,196.02397v-4.02863h4.02863v4.02863z" data-paper-data="{&quot;index&quot;:null}" fill="#000000"/><path d="M236.04275,199.99539v-4.02863h4.02863v4.02863z" data-paper-data="{&quot;index&quot;:null}" fill="none"/><path d="M240.0356,200.0566v-4.02863h4.02863v4.02863z" data-paper-data="{&quot;index&quot;:null}" fill="#4c4c4c"/><path d="M236.04275,196.05145v-4.02863h4.02863v4.02863z" data-paper-data="{&quot;index&quot;:null}" fill="none"/><path d="M248.02227,204.01765v-4.02863h4.02863v4.02863z" data-paper-data="{&quot;index&quot;:null}" fill="#000000"/><path d="M244.02943,208.06224v-4.02863h4.02863v4.02863z" data-paper-data="{&quot;index&quot;:null}" fill="#000000"/><path d="M248.02227,208.05028v-4.02863h4.02863v4.02863z" data-paper-data="{&quot;index&quot;:null}" fill="#838383"/><path d="M244.02943,204.04513v-4.02863h4.02863v4.02863z" data-paper-data="{&quot;index&quot;:null}" fill="#000000"/><path d="M240.02218,203.98351v-4.02863h4.02863v4.02863z" data-paper-data="{&quot;index&quot;:null}" fill="#000000"/><path d="M236.02934,208.0281v-4.02863h4.02863v4.02863z" data-paper-data="{&quot;index&quot;:null}" fill="none"/><path d="M240.02218,208.01614v-4.02863h4.02863v4.02863z" data-paper-data="{&quot;index&quot;:null}" fill="#323232"/><path d="M236.02934,204.01099v-4.02863h4.02863v4.02863z" data-paper-data="{&quot;index&quot;:null}" fill="none"/><path d="M264.01023,212.05175v-4.02863h4.02863v4.02863z" data-paper-data="{&quot;index&quot;:null}" fill="#000000"/><path d="M260.01739,216.02316v-4.02863h4.02863v4.02863z" data-paper-data="{&quot;index&quot;:null}" fill="none"/><path d="M264.01023,216.08437v-4.02863h4.02863v4.02863z" data-paper-data="{&quot;index&quot;:null}" fill="#000000"/><path d="M260.01739,212.07922v-4.02863h4.02863v4.02863z" data-paper-data="{&quot;index&quot;:null}" fill="#323232"/><path d="M256.01014,212.01761v-4.02863h4.02863v4.02863z" data-paper-data="{&quot;index&quot;:null}" fill="#000000"/><path d="M252.01732,215.98902v-4.02863h4.02863v4.02863z" data-paper-data="{&quot;index&quot;:null}" fill="#000000"/><path d="M256.01014,216.05023v-4.02863h4.02863v4.02863z" data-paper-data="{&quot;index&quot;:null}" fill="#000000"/><path d="M252.01732,212.04508v-4.02863h4.02863v4.02863z" data-paper-data="{&quot;index&quot;:null}" fill="#000000"/><path d="M263.99683,220.01129v-4.02863h4.02863v4.02863z" data-paper-data="{&quot;index&quot;:null}" fill="#000000"/><path d="M260.00397,224.05588v-4.02863h4.02863v4.02863z" data-paper-data="{&quot;index&quot;:null}" fill="none"/><path d="M263.99683,224.04391v-4.02863h4.02863v4.02863z" data-paper-data="{&quot;index&quot;:null}" fill="#323232"/><path d="M260.00397,220.03876v-4.02863h4.02863v4.02863z" data-paper-data="{&quot;index&quot;:null}" fill="none"/><path d="M255.99675,219.97715v-4.02863h4.02863v4.02863z" data-paper-data="{&quot;index&quot;:null}" fill="#000000"/><path d="M252.0039,224.02174v-4.02863h4.02863v4.02863z" data-paper-data="{&quot;index&quot;:null}" fill="#000000"/><path d="M255.99675,224.00977v-4.02863h4.02863v4.02863z" data-paper-data="{&quot;index&quot;:null}" fill="#323232"/><path d="M252.0039,220.00462v-4.02863h4.02863v4.02863z" data-paper-data="{&quot;index&quot;:null}" fill="#000000"/><path d="M248.04079,212.08269v-4.02863h4.02863v4.02863z" data-paper-data="{&quot;index&quot;:null}" fill="#000000"/><path d="M244.04795,216.0541v-4.02863h4.02863v4.02863z" data-paper-data="{&quot;index&quot;:null}" fill="#000000"/><path d="M248.04079,216.11531v-4.02863h4.02863v4.02863z" data-paper-data="{&quot;index&quot;:null}" fill="#a3a3a3"/><path d="M244.04795,212.11016v-4.02863h4.02863v4.02863z" data-paper-data="{&quot;index&quot;:null}" fill="#000000"/><path d="M240.0407,212.04855v-4.02863h4.02863v4.02863z" data-paper-data="{&quot;index&quot;:null}" fill="#000000"/><path d="M236.04786,216.01996v-4.02863h4.02863v4.02863z" data-paper-data="{&quot;index&quot;:null}" fill="#000000"/><path d="M240.0407,216.08117v-4.02863h4.02863v4.02863z" data-paper-data="{&quot;index&quot;:null}" fill="#323232"/><path d="M236.04786,212.07602v-4.02863h4.02863v4.02863z" data-paper-data="{&quot;index&quot;:null}" fill="#323232"/><path d="M248.02743,220.04223v-4.02863h4.02863v4.02863z" data-paper-data="{&quot;index&quot;:null}" fill="#000000"/><path d="M244.03454,224.08682v-4.02863h4.02863v4.02863z" data-paper-data="{&quot;index&quot;:null}" fill="#323232"/><path d="M248.02743,224.07485v-4.02863h4.02863v4.02863z" data-paper-data="{&quot;index&quot;:null}" fill="#000000"/><path d="M244.03454,220.0697v-4.02863h4.02863v4.02863z" data-paper-data="{&quot;index&quot;:null}" fill="#000000"/><path d="M240.02735,220.00809v-4.02863h4.02863v4.02863z" data-paper-data="{&quot;index&quot;:null}" fill="none"/><path d="M236.03451,224.05268v-4.02863h4.02863v4.02863z" data-paper-data="{&quot;index&quot;:null}" fill="#000000"/><path d="M240.02735,224.04071v-4.02863h4.02863v4.02863z" data-paper-data="{&quot;index&quot;:null}" fill="none"/><path d="M236.03451,220.03556v-4.02863h4.02863v4.02863z" data-paper-data="{&quot;index&quot;:null}" fill="#000000"/><path d="M263.97927,228.04675v-4.02863h4.02863v4.02863z" data-paper-data="{&quot;index&quot;:null}" fill="none"/><path d="M259.98641,232.01817v-4.02863h4.02863v4.02863z" data-paper-data="{&quot;index&quot;:null}" fill="none"/><path d="M263.97927,232.07938v-4.02863h4.02863v4.02863z" data-paper-data="{&quot;index&quot;:null}" fill="none"/><path d="M259.98641,228.07423v-4.02863h4.02863v4.02863z" data-paper-data="{&quot;index&quot;:null}" fill="none"/><path d="M255.97919,228.01261v-4.02863h4.02863v4.02863z" data-paper-data="{&quot;index&quot;:null}" fill="#000000"/><path d="M251.98635,231.98403v-4.02863h4.02863v4.02863z" data-paper-data="{&quot;index&quot;:null}" fill="none"/><path d="M255.97919,232.04524v-4.02863h4.02863v4.02863z" data-paper-data="{&quot;index&quot;:null}" fill="#000000"/><path d="M251.98635,228.04009v-4.02863h4.02863v4.02863z" data-paper-data="{&quot;index&quot;:null}" fill="none"/><path d="M263.9659,236.00629v-4.02863h4.02863v4.02863z" data-paper-data="{&quot;index&quot;:null}" fill="none"/><path d="M259.97306,240.05088v-4.02863h4.02863v4.02863z" data-paper-data="{&quot;index&quot;:null}" fill="none"/><path d="M263.9659,240.03892v-4.02863h4.02863v4.02863z" data-paper-data="{&quot;index&quot;:null}" fill="none"/><path d="M259.97306,236.03377v-4.02863h4.02863v4.02863z" data-paper-data="{&quot;index&quot;:null}" fill="none"/><path d="M255.96584,235.97215v-4.02863h4.02863v4.02863z" data-paper-data="{&quot;index&quot;:null}" fill="#000000"/><path d="M251.973,240.01674v-4.02863h4.02863v4.02863z" data-paper-data="{&quot;index&quot;:null}" fill="none"/><path d="M255.96584,240.00478v-4.02863h4.02863v4.02863z" data-paper-data="{&quot;index&quot;:null}" fill="#323232"/><path d="M251.973,235.99963v-4.02863h4.02863v4.02863z" data-paper-data="{&quot;index&quot;:null}" fill="none"/><path d="M248.00982,228.07769v-4.02863h4.02863v4.02863z" data-paper-data="{&quot;index&quot;:null}" fill="none"/><path d="M244.01698,232.04911v-4.02863h4.02863v4.02863z" data-paper-data="{&quot;index&quot;:null}" fill="#323232"/><path d="M248.00982,232.11032v-4.02863h4.02863v4.02863z" data-paper-data="{&quot;index&quot;:null}" fill="none"/><path d="M244.01698,228.10517v-4.02863h4.02863v4.02863z" data-paper-data="{&quot;index&quot;:null}" fill="#000000"/><path d="M240.00979,228.04355v-4.02863h4.02863v4.02863z" data-paper-data="{&quot;index&quot;:null}" fill="none"/><path d="M236.01695,232.01497v-4.02863h4.02863v4.02863z" data-paper-data="{&quot;index&quot;:null}" fill="none"/><path d="M240.00979,232.07618v-4.02863h4.02863v4.02863z" data-paper-data="{&quot;index&quot;:null}" fill="none"/><path d="M236.01695,228.07103v-4.02863h4.02863v4.02863z" data-paper-data="{&quot;index&quot;:null}" fill="#323232"/><path d="M247.99647,236.03723v-4.02863h4.02863v4.02863z" data-paper-data="{&quot;index&quot;:null}" fill="none"/><path d="M244.01698,235.92765v-4.02863h4.02863v4.02863z" data-paper-data="{&quot;index&quot;:null}" fill="none"/><path d="M247.99647,240.06986v-4.02863h4.02863v4.02863z" data-paper-data="{&quot;index&quot;:null}" fill="none"/><path d="M239.99638,236.00309v-4.02863h4.02863v4.02863z" data-paper-data="{&quot;index&quot;:null}" fill="none"/><path d="M236.00354,240.04768v-4.02863h4.02863v4.02863z" data-paper-data="{&quot;index&quot;:null}" fill="none"/><path d="M239.99638,240.03572v-4.02863h4.02863v4.02863z" data-paper-data="{&quot;index&quot;:null}" fill="none"/><path d="M236.00354,236.03057v-4.02863h4.02863v4.02863z" data-paper-data="{&quot;index&quot;:null}" fill="none"/></g></g></svg>