<svg version="1.1" xmlns="http://www.w3.org/2000/svg" xmlns:xlink="http://www.w3.org/1999/xlink" width="872.86789" height="507.6" viewBox="0,0,872.86789,507.6"><g transform="translate(196.43394,95.97318)"><g data-paper-data="{&quot;isPaintingLayer&quot;:true}" fill-opacity="0.08235" fill="#000000" fill-rule="nonzero" stroke="none" stroke-width="0" stroke-linecap="butt" stroke-linejoin="miter" stroke-miterlimit="10" stroke-dasharray="" stroke-dashoffset="0" style="mix-blend-mode: normal"><path d="M671.43396,77.86084v27.02702h-549.08598c-0.44917,-9.04647 -0.35765,-17.99413 0.30277,-27.02702z"/><path d="M-196.43394,104.88786v-27.02702h251.84095c-0.27201,9.06565 0.41989,18.23676 0.99152,27.02702z"/><path d="M162.8003,-22.73977c0,0 0,68.86243 0,85.68046c0,2.46211 0,5.03302 0,7.33334c0,4.25664 10.83334,7.5868 10.83334,7.5868l-41.68618,-0.16666c0,0 11.33333,-3.00331 11.33333,-7.0868c0,-2.23829 0,-4.75105 0,-7.16667c0,-16.67901 0,-86.18046 0,-86.18046z"/><path d="M228.8003,-22.73977c0,0 0,68.86243 0,85.68046c0,2.46211 0,5.03302 0,7.33334c0,4.25664 10.83334,7.5868 10.83334,7.5868l-41.68619,-0.16666c0,0 11.33333,-3.00331 11.33333,-7.0868c0,-2.23829 0,-4.75105 0,-7.16667c0,-16.67901 0,-86.18046 0,-86.18046z"/><path d="M289.8003,-22.73977c0,0 0,68.86243 0,85.68046c0,2.46211 0,5.03302 0,7.33334c0,4.25664 10.83333,7.5868 10.83333,7.5868l-41.68619,-0.16666c0,0 11.33333,-3.00331 11.33333,-7.0868c0,-2.23829 0,-4.75105 0,-7.16667c0,-16.67901 0,-86.18046 0,-86.18046z"/><path d="M353.80031,-22.73977c0,0 0,68.86243 0,85.68046c0,2.46211 0,5.03302 0,7.33334c0,4.25664 10.83333,7.5868 10.83333,7.5868l-41.68618,-0.16666c0,0 11.33333,-3.00331 11.33333,-7.0868c0,-2.23829 0,-4.75105 0,-7.16667c0,-16.67901 0,-86.18046 0,-86.18046z"/><path d="M414.30031,-22.73977c0,0 0,68.86243 0,85.68046c0,2.46211 0,5.03302 0,7.33334c0,4.25664 10.83333,7.5868 10.83333,7.5868l-41.68619,-0.16666c0,0 11.33333,-3.00331 11.33333,-7.0868c0,-2.23829 0,-4.75105 0,-7.16667c0,-16.67901 0,-86.18046 0,-86.18046z"/><path d="M475.30031,-22.73977c0,0 0,68.86243 0,85.68046c0,2.46211 0,5.03302 0,7.33334c0,4.25664 10.83334,7.5868 10.83334,7.5868l-41.68619,-0.16666c0,0 11.33333,-3.00331 11.33333,-7.0868c0,-2.23829 0,-4.75105 0,-7.16667c0,-16.67901 0,-86.18046 0,-86.18046z"/><path d="M539.3003,-22.73977c0,0 0,68.86243 0,85.68046c0,2.46211 0,5.03302 0,7.33334c0,4.25664 10.83334,7.5868 10.83334,7.5868l-41.68619,-0.16666c0,0 11.33333,-3.00331 11.33333,-7.0868c0,-2.23829 0,-4.75105 0,-7.16667c0,-16.67901 0,-86.18046 0,-86.18046z"/><path d="M676.43396,72.86084v27.02702h-554.27925c-0.23638,-8.57239 0.0207,-17.08616 0.7955,-25.69949c0.03917,-0.43545 0.0949,-0.87854 0.16037,-1.32753z"/><path d="M-191.43394,99.88786v-27.02702h247.09645c-0.6617,8.97564 -0.16855,18.14488 0.40773,27.02702z"/><path d="M167.8003,-27.73977c0,0 0,68.86243 0,85.68046c0,2.46211 0,5.03302 0,7.33334c0,4.25664 10.83334,7.5868 10.83334,7.5868l-41.68618,-0.16666c0,0 11.33333,-3.00331 11.33333,-7.0868c0,-2.23829 0,-4.75105 0,-7.16667c0,-16.67901 0,-86.18046 0,-86.18046z"/><path d="M233.8003,-27.73977c0,0 0,68.86243 0,85.68046c0,2.46211 0,5.03302 0,7.33334c0,4.25664 10.83334,7.5868 10.83334,7.5868l-41.68618,-0.16666c0,0 11.33333,-3.00331 11.33333,-7.0868c0,-2.23829 0,-4.75105 0,-7.16667c0,-16.67901 0,-86.18046 0,-86.18046z"/><path d="M294.8003,-27.73977c0,0 0,68.86243 0,85.68046c0,2.46211 0,5.03302 0,7.33334c0,4.25664 10.83334,7.5868 10.83334,7.5868l-41.68619,-0.16666c0,0 11.33333,-3.00331 11.33333,-7.0868c0,-2.23829 0,-4.75105 0,-7.16667c0,-16.67901 0,-86.18046 0,-86.18046z"/><path d="M358.80031,-27.73977c0,0 0,68.86243 0,85.68046c0,2.46211 0,5.03302 0,7.33334c0,4.25664 10.83334,7.5868 10.83334,7.5868l-41.68619,-0.16666c0,0 11.33333,-3.00331 11.33333,-7.0868c0,-2.23829 0,-4.75105 0,-7.16667c0,-16.67901 0,-86.18046 0,-86.18046z"/><path d="M419.30031,-27.73977c0,0 0,68.86243 0,85.68046c0,2.46211 0,5.03302 0,7.33334c0,4.25664 10.83334,7.5868 10.83334,7.5868l-41.68619,-0.16666c0,0 11.33333,-3.00331 11.33333,-7.0868c0,-2.23829 0,-4.75105 0,-7.16667c0,-16.67901 0,-86.18046 0,-86.18046z"/><path d="M480.30031,-27.73977c0,0 0,68.86243 0,85.68046c0,2.46211 0,5.03302 0,7.33334c0,4.25664 10.83334,7.5868 10.83334,7.5868l-41.68619,-0.16666c0,0 11.33333,-3.00331 11.33333,-7.0868c0,-2.23829 0,-4.75105 0,-7.16667c0,-16.67901 0,-86.18046 0,-86.18046z"/><path d="M544.3003,-27.73977c0,0 0,68.86243 0,85.68046c0,2.46211 0,5.03302 0,7.33334c0,4.25664 10.83333,7.5868 10.83333,7.5868l-41.68618,-0.16666c0,0 11.33333,-3.00331 11.33333,-7.0868c0,-2.23829 0,-4.75105 0,-7.16667c0,-16.67901 0,-86.18046 0,-86.18046z"/><path d="M17,-95.97318v494h-34v-494z" data-paper-data="{&quot;index&quot;:null}"/><path d="M500.94925,-82.37318v494h-34v-494z" data-paper-data="{&quot;index&quot;:null}"/><path d="M466.74301,136.25077v20.77606h-8.75v-20.77606z" data-paper-data="{&quot;index&quot;:null}"/><path d="M466.69925,157.02682v12.25h-36.96279v-12.25z" data-paper-data="{&quot;index&quot;:null}"/><path d="M435.87281,136.25077v20.77606h-6.13636v-20.77606z" data-paper-data="{&quot;index&quot;:null}"/><path d="M466.69924,123.52682v12.25h-36.96278v-12.25z" data-paper-data="{&quot;index&quot;:null}"/><path d="M435.85749,102.75077v20.77606h-6.13636v-20.77606z" data-paper-data="{&quot;index&quot;:null}"/><path d="M466.72113,102.75077v20.77606h-8.75v-20.77606z" data-paper-data="{&quot;index&quot;:null}"/><path d="M466.72879,202.25077v20.77606h-8.75v-20.77606z" data-paper-data="{&quot;index&quot;:null}"/><path d="M466.68504,223.02682v12.25h-36.96278v-12.25z" data-paper-data="{&quot;index&quot;:null}"/><path d="M435.85859,202.25077v20.77606h-6.13635v-20.77606z" data-paper-data="{&quot;index&quot;:null}"/><path d="M466.68504,189.52682v12.25h-36.96278v-12.25z" data-paper-data="{&quot;index&quot;:null}"/><path d="M435.84327,168.75077v20.77605h-6.13635v-20.77605z" data-paper-data="{&quot;index&quot;:null}"/><path d="M466.70692,168.75077v20.77605h-8.75v-20.77605z" data-paper-data="{&quot;index&quot;:null}"/><path d="M400.72422,231.68673v36h-94v-36z" data-paper-data="{&quot;index&quot;:null}"/><path d="M276.16668,246.3534v36h-8.75v-36z" data-paper-data="{&quot;index&quot;:null}"/><path d="M88.16668,238.52007v84.5h-94v-84.5z" data-paper-data="{&quot;index&quot;:null}"/><path d="M246.87501,262.02007v36h-8.75v-36z" data-paper-data="{&quot;index&quot;:null}"/><path d="M215.87501,279.18673v36h-8.75v-36z" data-paper-data="{&quot;index&quot;:null}"/><path d="M188.87501,257.52007v36h-8.75v-36z" data-paper-data="{&quot;index&quot;:null}"/><path d="M163.54166,238.52007v36h-8.75v-36z" data-paper-data="{&quot;index&quot;:null}"/></g></g></svg>