<svg version="1.1" xmlns="http://www.w3.org/2000/svg" xmlns:xlink="http://www.w3.org/1999/xlink" width="286.94737" height="105.2543" viewBox="0,0,286.94737,105.2543"><g transform="translate(-25.49843,-77.21255)"><g data-paper-data="{&quot;isPaintingLayer&quot;:true}" fill-rule="nonzero" stroke="none" stroke-width="0" stroke-linecap="butt" stroke-linejoin="miter" stroke-miterlimit="10" stroke-dasharray="" stroke-dashoffset="0" style="mix-blend-mode: normal"><path d="M292.49843,137.44899v-19.2712h19.94737v19.2712z" fill="#b1ff00"/><path d="M304.42863,131.91865v-4.15789h3.94736v4.15789z" fill="#d9d9d9"/><path d="M300.5156,127.76076v4.15789h-3.94736v-4.15789z" data-paper-data="{&quot;index&quot;:null}" fill="#e6e6e6"/><path d="M304.45718,123.70813v4.1579h-3.94736v-4.1579z" data-paper-data="{&quot;index&quot;:null}" fill="#f2f2f2"/><path d="M302.7742,129.55143v-1.76901h1.67943v1.76901z" fill="#cccccc"/><path d="M304.45217,127.80567v-1.76901h1.67943v1.76901z" fill="#ececec"/><path d="M300.51487,129.55143v-1.76901h1.67943v1.76901z" data-paper-data="{&quot;index&quot;:null}" fill="#ffffff"/><path d="M298.8369,127.80566v-1.76901h1.67943v1.76901z" data-paper-data="{&quot;index&quot;:null}" fill="#ececec"/><path d="M25.49843,182.46686v-105.2543h108.94737v105.2543z" fill="#b1ff00"/><path d="M90.65809,152.26157v-22.70932h21.55946v22.70932z" fill="#d9d9d9"/><path d="M69.28614,129.55225v22.70932h-21.55946v-22.70932z" data-paper-data="{&quot;index&quot;:null}" fill="#e6e6e6"/><path d="M90.81403,107.41784v22.70937h-21.55946v-22.70937z" data-paper-data="{&quot;index&quot;:null}" fill="#f2f2f2"/><path d="M81.62203,139.33243v-9.66187h9.17261v9.66187z" fill="#cccccc"/><path d="M90.78666,129.79754v-9.66187h9.17261v9.66187z" fill="#ececec"/><path d="M69.28215,139.33243v-9.66187h9.17261v9.66187z" data-paper-data="{&quot;index&quot;:null}" fill="#ffffff"/><path d="M60.11751,129.79749v-9.66187h9.17261v9.66187z" data-paper-data="{&quot;index&quot;:null}" fill="#ececec"/></g></g></svg>