<svg version="1.1" xmlns="http://www.w3.org/2000/svg" xmlns:xlink="http://www.w3.org/1999/xlink" width="364.80736" height="73.71471" viewBox="0,0,364.80736,73.71471"><defs><linearGradient x1="483.8546" y1="330.23238" x2="483.8546" y2="335.23238" gradientUnits="userSpaceOnUse" id="color-1"><stop offset="0" stop-color="#ff0000"/><stop offset="1" stop-color="#00ffff" stop-opacity="0.12941"/></linearGradient><linearGradient x1="288.12407" y1="268.55523" x2="311.88791" y2="269.16252" gradientUnits="userSpaceOnUse" id="color-2"><stop offset="0" stop-color="#ffde00"/><stop offset="1" stop-color="#ff0000"/></linearGradient><linearGradient x1="154.18987" y1="268.55522" x2="165.59433" y2="269.16252" gradientUnits="userSpaceOnUse" id="color-3"><stop offset="0" stop-color="#ffde00"/><stop offset="1" stop-color="#ff0000"/></linearGradient><linearGradient x1="139.33272" y1="268.55522" x2="150.73719" y2="269.16252" gradientUnits="userSpaceOnUse" id="color-4"><stop offset="0" stop-color="#ffde00"/><stop offset="1" stop-color="#ff0000"/></linearGradient></defs><g transform="translate(-138.31443,-261.51767)"><g data-paper-data="{&quot;isPaintingLayer&quot;:true}" fill-rule="nonzero" stroke-linejoin="miter" stroke-miterlimit="10" stroke-dasharray="" stroke-dashoffset="0" style="mix-blend-mode: normal"><path d="M500.62179,332.73238h-33.53438" fill="url(#color-1)" stroke-opacity="0.44706" stroke="#ff0000" stroke-width="5" stroke-linecap="round"/><g stroke-width="1.5"><path d="M288.52526,271.19136l8.40334,-7.96551l3.53921,3.60464l4.27819,4.48255z" fill="url(#color-2)" stroke-opacity="0.44706" stroke="#ff0000" stroke-linecap="butt"/><path d="M296.99287,263.16795l7.90476,8.31938" fill="none" stroke="#000000" stroke-linecap="round"/><path d="M297.11759,263.10088l-8.31938,7.90476" fill="none" stroke="#000000" stroke-linecap="round"/><path d="M289.36284,271.59988l15.63383,-0.20666" fill="none" stroke="#000000" stroke-linecap="round"/></g><g stroke-width="1.5"><path d="M154.3824,271.19136l4.03283,-7.9655l1.6985,3.60463l2.05314,4.48255z" fill="url(#color-3)" stroke-opacity="0.44706" stroke="#ff0000" stroke-linecap="butt"/><path d="M158.44608,263.16794l3.79356,8.31938" fill="none" stroke="#000000" stroke-linecap="round"/><path d="M154.51339,271.00563l3.99254,-7.90476" fill="none" stroke="#000000" stroke-linecap="round"/><path d="M154.78436,271.59987l7.5028,-0.20666" fill="none" stroke="#000000" stroke-linecap="round"/></g><g stroke-width="1.5"><path d="M139.52526,271.19136l4.03284,-7.9655l1.69849,3.60463l2.05313,4.48255z" fill="url(#color-4)" stroke-opacity="0.44706" stroke="#ff0000" stroke-linecap="butt"/><path d="M143.58893,263.16794l3.79356,8.31938" fill="none" stroke="#000000" stroke-linecap="round"/><path d="M143.64879,263.10087l-3.99254,7.90476" fill="none" stroke="#000000" stroke-linecap="round"/><path d="M139.92722,271.59987l7.5028,-0.20666" fill="none" stroke="#000000" stroke-linecap="round"/></g></g></g></svg>