<svg version="1.1" xmlns="http://www.w3.org/2000/svg" xmlns:xlink="http://www.w3.org/1999/xlink" width="32.06112" height="64.18885" viewBox="0,0,32.06112,64.18885"><g transform="translate(-236.00354,-175.96942)"><g data-paper-data="{&quot;isPaintingLayer&quot;:true}" fill-rule="nonzero" stroke="none" stroke-width="0" stroke-linecap="butt" stroke-linejoin="miter" stroke-miterlimit="10" stroke-dasharray="" stroke-dashoffset="0" style="mix-blend-mode: normal"><path d="M264.03603,180.0322v-4.02863h4.02863v4.02863z" data-paper-data="{&quot;index&quot;:null}" fill="none"/><path d="M260.04319,184.00361v-4.02863h4.02863v4.02863z" data-paper-data="{&quot;index&quot;:null}" fill="none"/><path d="M264.03603,184.06479v-4.02863h4.02863v4.02863z" data-paper-data="{&quot;index&quot;:null}" fill="none"/><path d="M260.04319,180.05967v-4.02863h4.02863v4.02863z" data-paper-data="{&quot;index&quot;:null}" fill="none"/><path d="M256.03594,179.99806v-4.02863h4.02863v4.02863z" data-paper-data="{&quot;index&quot;:null}" fill="none"/><path d="M252.04312,183.96944v-4.02863h4.02863v4.02863z" data-paper-data="{&quot;index&quot;:null}" fill="#000000"/><path d="M256.03594,184.03067v-4.02863h4.02863v4.02863z" data-paper-data="{&quot;index&quot;:null}" fill="#000000"/><path d="M252.04312,180.0255v-4.02863h4.02863v4.02863z" data-paper-data="{&quot;index&quot;:null}" fill="none"/><path d="M264.02266,187.99172v-4.02863h4.02863v4.02863z" data-paper-data="{&quot;index&quot;:null}" fill="none"/><path d="M260.02982,192.03631v-4.02863h4.02863v4.02863z" data-paper-data="{&quot;index&quot;:null}" fill="#000000"/><path d="M264.02266,192.02433v-4.02863h4.02863v4.02863z" data-paper-data="{&quot;index&quot;:null}" fill="none"/><path d="M260.02982,188.01921v-4.02863h4.02863v4.02863z" data-paper-data="{&quot;index&quot;:null}" fill="#000000"/><path d="M256.02259,187.9576v-4.02863h4.02863v4.02863z" data-paper-data="{&quot;index&quot;:null}" fill="#000000"/><path d="M252.02976,192.00219v-4.02863h4.02863v4.02863z" data-paper-data="{&quot;index&quot;:null}" fill="#ffffff"/><path d="M256.02259,191.9902v-4.02863h4.02863v4.02863z" data-paper-data="{&quot;index&quot;:null}" fill="#5e5e5e"/><path d="M252.02976,187.98507v-4.02863h4.02863v4.02863z" data-paper-data="{&quot;index&quot;:null}" fill="#5e5e5e"/><path d="M248.06659,180.06314v-4.02863h4.02863v4.02863z" data-paper-data="{&quot;index&quot;:null}" fill="none"/><path d="M244.07374,184.03452v-4.02863h4.02863v4.02863z" data-paper-data="{&quot;index&quot;:null}" fill="#000000"/><path d="M248.06659,184.09576v-4.02863h4.02863v4.02863z" data-paper-data="{&quot;index&quot;:null}" fill="#000000"/><path d="M244.07374,180.09058v-4.02863h4.02863v4.02863z" data-paper-data="{&quot;index&quot;:null}" fill="none"/><path d="M240.06651,180.02897v-4.02863h4.02863v4.02863z" data-paper-data="{&quot;index&quot;:null}" fill="none"/><path d="M236.07367,184.00041v-4.02863h4.02863v4.02863z" data-paper-data="{&quot;index&quot;:null}" fill="none"/><path d="M240.06651,184.06162v-4.02863h4.02863v4.02863z" data-paper-data="{&quot;index&quot;:null}" fill="#d2d2d2"/><path d="M236.07367,180.05646v-4.02863h4.02863v4.02863z" data-paper-data="{&quot;index&quot;:null}" fill="none"/><path d="M248.05324,188.02268v-4.02863h4.02863v4.02863z" data-paper-data="{&quot;index&quot;:null}" fill="#5e5e5e"/><path d="M244.06038,192.06727v-4.02863h4.02863v4.02863z" data-paper-data="{&quot;index&quot;:null}" fill="#ffffff"/><path d="M248.05324,192.0553v-4.02863h4.02863v4.02863z" data-paper-data="{&quot;index&quot;:null}" fill="#5e5e5e"/><path d="M244.06038,188.05012v-4.02863h4.02863v4.02863z" data-paper-data="{&quot;index&quot;:null}" fill="#5e5e5e"/><path d="M240.05315,187.98851v-4.02863h4.02863v4.02863z" data-paper-data="{&quot;index&quot;:null}" fill="#000000"/><path d="M236.06031,192.0331v-4.02863h4.02863v4.02863z" data-paper-data="{&quot;index&quot;:null}" fill="none"/><path d="M240.05315,192.02116v-4.02863h4.02863v4.02863z" data-paper-data="{&quot;index&quot;:null}" fill="#000000"/><path d="M236.06031,188.01599v-4.02863h4.02863v4.02863z" data-paper-data="{&quot;index&quot;:null}" fill="none"/><path d="M264.0051,196.02718v-4.02863h4.02863v4.02863z" data-paper-data="{&quot;index&quot;:null}" fill="none"/><path d="M260.01226,199.99862v-4.02863h4.02863v4.02863z" data-paper-data="{&quot;index&quot;:null}" fill="#000000"/><path d="M264.0051,200.05983v-4.02863h4.02863v4.02863z" data-paper-data="{&quot;index&quot;:null}" fill="none"/><path d="M260.01226,196.05467v-4.02863h4.02863v4.02863z" data-paper-data="{&quot;index&quot;:null}" fill="#000000"/><path d="M256.00502,195.99306v-4.02863h4.02863v4.02863z" data-paper-data="{&quot;index&quot;:null}" fill="#5e5e5e"/><path d="M252.01219,199.96448v-4.02863h4.02863v4.02863z" data-paper-data="{&quot;index&quot;:null}" fill="#5e5e5e"/><path d="M256.00502,200.02566v-4.02863h4.02863v4.02863z" data-paper-data="{&quot;index&quot;:null}" fill="#000000"/><path d="M252.01219,196.02054v-4.02863h4.02863v4.02863z" data-paper-data="{&quot;index&quot;:null}" fill="#5e5e5e"/><path d="M263.99172,203.98671v-4.02863h4.02863v4.02863z" data-paper-data="{&quot;index&quot;:null}" fill="none"/><path d="M259.99888,208.0313v-4.02863h4.02863v4.02863z" data-paper-data="{&quot;index&quot;:null}" fill="#000000"/><path d="M263.99172,208.01937v-4.02863h4.02863v4.02863z" data-paper-data="{&quot;index&quot;:null}" fill="#323232"/><path d="M259.99888,204.0142v-4.02863h4.02863v4.02863z" data-paper-data="{&quot;index&quot;:null}" fill="#323232"/><path d="M255.99163,203.95259v-4.02863h4.02863v4.02863z" data-paper-data="{&quot;index&quot;:null}" fill="#000000"/><path d="M251.9988,207.99718v-4.02863h4.02863v4.02863z" data-paper-data="{&quot;index&quot;:null}" fill="#000000"/><path d="M255.99163,207.9852v-4.02863h4.02863v4.02863z" data-paper-data="{&quot;index&quot;:null}" fill="#000000"/><path d="M251.9988,203.98008v-4.02863h4.02863v4.02863z" data-paper-data="{&quot;index&quot;:null}" fill="#000000"/><path d="M248.03568,196.05814v-4.02863h4.02863v4.02863z" data-paper-data="{&quot;index&quot;:null}" fill="#5e5e5e"/><path d="M244.04284,200.02956v-4.02863h4.02863v4.02863z" data-paper-data="{&quot;index&quot;:null}" fill="#5e5e5e"/><path d="M248.03568,200.09076v-4.02863h4.02863v4.02863z" data-paper-data="{&quot;index&quot;:null}" fill="#5e5e5e"/><path d="M244.04284,196.08562v-4.02863h4.02863v4.02863z" data-paper-data="{&quot;index&quot;:null}" fill="#5e5e5e"/><path d="M240.03559,196.02397v-4.02863h4.02863v4.02863z" data-paper-data="{&quot;index&quot;:null}" fill="#000000"/><path d="M236.04275,199.99539v-4.02863h4.02863v4.02863z" data-paper-data="{&quot;index&quot;:null}" fill="none"/><path d="M240.03559,200.05663v-4.02863h4.02863v4.02863z" data-paper-data="{&quot;index&quot;:null}" fill="#4c4c4c"/><path d="M236.04275,196.05145v-4.02863h4.02863v4.02863z" data-paper-data="{&quot;index&quot;:null}" fill="none"/><path d="M248.02227,204.01768v-4.02863h4.02863v4.02863z" data-paper-data="{&quot;index&quot;:null}" fill="#000000"/><path d="M244.02943,208.06227v-4.02863h4.02863v4.02863z" data-paper-data="{&quot;index&quot;:null}" fill="#000000"/><path d="M248.02227,208.05028v-4.02863h4.02863v4.02863z" data-paper-data="{&quot;index&quot;:null}" fill="#838383"/><path d="M244.02943,204.04516v-4.02863h4.02863v4.02863z" data-paper-data="{&quot;index&quot;:null}" fill="#000000"/><path d="M240.0222,203.98354v-4.02863h4.02863v4.02863z" data-paper-data="{&quot;index&quot;:null}" fill="#000000"/><path d="M236.02934,208.02813v-4.02863h4.02863v4.02863z" data-paper-data="{&quot;index&quot;:null}" fill="none"/><path d="M240.0222,208.01617v-4.02863h4.02863v4.02863z" data-paper-data="{&quot;index&quot;:null}" fill="#323232"/><path d="M236.02934,204.01099v-4.02863h4.02863v4.02863z" data-paper-data="{&quot;index&quot;:null}" fill="none"/><path d="M264.01023,212.05178v-4.02863h4.02863v4.02863z" data-paper-data="{&quot;index&quot;:null}" fill="#000000"/><path d="M260.01739,216.02316v-4.02863h4.02863v4.02863z" data-paper-data="{&quot;index&quot;:null}" fill="none"/><path d="M264.01023,216.0844v-4.02863h4.02863v4.02863z" data-paper-data="{&quot;index&quot;:null}" fill="#000000"/><path d="M260.01739,212.07922v-4.02863h4.02863v4.02863z" data-paper-data="{&quot;index&quot;:null}" fill="#323232"/><path d="M256.01014,212.01761v-4.02863h4.02863v4.02863z" data-paper-data="{&quot;index&quot;:null}" fill="#000000"/><path d="M252.01732,215.98904v-4.02863h4.02863v4.02863z" data-paper-data="{&quot;index&quot;:null}" fill="#000000"/><path d="M256.01014,216.05026v-4.02863h4.02863v4.02863z" data-paper-data="{&quot;index&quot;:null}" fill="#000000"/><path d="M252.01732,212.04509v-4.02863h4.02863v4.02863z" data-paper-data="{&quot;index&quot;:null}" fill="#000000"/><path d="M263.99683,220.01132v-4.02863h4.02863v4.02863z" data-paper-data="{&quot;index&quot;:null}" fill="#000000"/><path d="M260.00399,224.05591v-4.02863h4.02863v4.02863z" data-paper-data="{&quot;index&quot;:null}" fill="none"/><path d="M263.99683,224.04393v-4.02863h4.02863v4.02863z" data-paper-data="{&quot;index&quot;:null}" fill="#323232"/><path d="M260.00399,220.03879v-4.02863h4.02863v4.02863z" data-paper-data="{&quot;index&quot;:null}" fill="none"/><path d="M255.99675,219.97718v-4.02863h4.02863v4.02863z" data-paper-data="{&quot;index&quot;:null}" fill="#000000"/><path d="M252.0039,224.02177v-4.02863h4.02863v4.02863z" data-paper-data="{&quot;index&quot;:null}" fill="#000000"/><path d="M255.99675,224.0098v-4.02863h4.02863v4.02863z" data-paper-data="{&quot;index&quot;:null}" fill="#323232"/><path d="M252.0039,220.00462v-4.02863h4.02863v4.02863z" data-paper-data="{&quot;index&quot;:null}" fill="#000000"/><path d="M248.04079,212.0827v-4.02863h4.02863v4.02863z" data-paper-data="{&quot;index&quot;:null}" fill="#000000"/><path d="M244.04795,216.05413v-4.02863h4.02863v4.02863z" data-paper-data="{&quot;index&quot;:null}" fill="#000000"/><path d="M248.04079,216.11531v-4.02863h4.02863v4.02863z" data-paper-data="{&quot;index&quot;:null}" fill="#a3a3a3"/><path d="M244.04795,212.11019v-4.02863h4.02863v4.02863z" data-paper-data="{&quot;index&quot;:null}" fill="#000000"/><path d="M240.0407,212.04858v-4.02863h4.02863v4.02863z" data-paper-data="{&quot;index&quot;:null}" fill="#000000"/><path d="M236.04786,216.01999v-4.02863h4.02863v4.02863z" data-paper-data="{&quot;index&quot;:null}" fill="#000000"/><path d="M240.0407,216.08117v-4.02863h4.02863v4.02863z" data-paper-data="{&quot;index&quot;:null}" fill="#323232"/><path d="M236.04786,212.07605v-4.02863h4.02863v4.02863z" data-paper-data="{&quot;index&quot;:null}" fill="#323232"/><path d="M248.02742,220.04223v-4.02863h4.02863v4.02863z" data-paper-data="{&quot;index&quot;:null}" fill="#000000"/><path d="M244.03456,224.08682v-4.02863h4.02863v4.02863z" data-paper-data="{&quot;index&quot;:null}" fill="#323232"/><path d="M248.02742,224.07488v-4.02863h4.02863v4.02863z" data-paper-data="{&quot;index&quot;:null}" fill="#000000"/><path d="M244.03456,220.06971v-4.02863h4.02863v4.02863z" data-paper-data="{&quot;index&quot;:null}" fill="#000000"/><path d="M240.02735,220.00811v-4.02863h4.02863v4.02863z" data-paper-data="{&quot;index&quot;:null}" fill="none"/><path d="M236.03451,224.0527v-4.02863h4.02863v4.02863z" data-paper-data="{&quot;index&quot;:null}" fill="#000000"/><path d="M240.02735,224.04071v-4.02863h4.02863v4.02863z" data-paper-data="{&quot;index&quot;:null}" fill="none"/><path d="M236.03451,220.03559v-4.02863h4.02863v4.02863z" data-paper-data="{&quot;index&quot;:null}" fill="#000000"/><path d="M263.97927,228.04678v-4.02863h4.02863v4.02863z" data-paper-data="{&quot;index&quot;:null}" fill="none"/><path d="M259.98643,232.0182v-4.02863h4.02863v4.02863z" data-paper-data="{&quot;index&quot;:null}" fill="none"/><path d="M263.97927,232.07938v-4.02863h4.02863v4.02863z" data-paper-data="{&quot;index&quot;:null}" fill="none"/><path d="M259.98643,228.07426v-4.02863h4.02863v4.02863z" data-paper-data="{&quot;index&quot;:null}" fill="none"/><path d="M255.97919,228.01264v-4.02863h4.02863v4.02863z" data-paper-data="{&quot;index&quot;:null}" fill="#000000"/><path d="M251.98635,231.98403v-4.02863h4.02863v4.02863z" data-paper-data="{&quot;index&quot;:null}" fill="none"/><path d="M255.97919,232.04527v-4.02863h4.02863v4.02863z" data-paper-data="{&quot;index&quot;:null}" fill="#323232"/><path d="M251.98635,228.04009v-4.02863h4.02863v4.02863z" data-paper-data="{&quot;index&quot;:null}" fill="none"/><path d="M263.96592,236.00632v-4.02863h4.02863v4.02863z" data-paper-data="{&quot;index&quot;:null}" fill="none"/><path d="M259.97308,240.05091v-4.02863h4.02863v4.02863z" data-paper-data="{&quot;index&quot;:null}" fill="none"/><path d="M263.96592,240.03892v-4.02863h4.02863v4.02863z" data-paper-data="{&quot;index&quot;:null}" fill="none"/><path d="M259.97308,236.0338v-4.02863h4.02863v4.02863z" data-paper-data="{&quot;index&quot;:null}" fill="none"/><path d="M244.08029,235.97218v-4.02863h4.02863v4.02863z" data-paper-data="{&quot;index&quot;:null}" fill="#000000"/><path d="M251.973,240.01677v-4.02863h4.02863v4.02863z" data-paper-data="{&quot;index&quot;:null}" fill="none"/><path d="M244.08029,240.0048v-4.02863h4.02863v4.02863z" data-paper-data="{&quot;index&quot;:null}" fill="#323232"/><path d="M251.973,235.99966v-4.02863h4.02863v4.02863z" data-paper-data="{&quot;index&quot;:null}" fill="none"/><path d="M248.00983,228.07769v-4.02863h4.02863v4.02863z" data-paper-data="{&quot;index&quot;:null}" fill="none"/><path d="M244.01702,232.04912v-4.02863h4.02863v4.02863z" data-paper-data="{&quot;index&quot;:null}" fill="#000000"/><path d="M248.00983,232.11035v-4.02863h4.02863v4.02863z" data-paper-data="{&quot;index&quot;:null}" fill="none"/><path d="M244.01702,228.10517v-4.02863h4.02863v4.02863z" data-paper-data="{&quot;index&quot;:null}" fill="#000000"/><path d="M240.00979,228.04357v-4.02863h4.02863v4.02863z" data-paper-data="{&quot;index&quot;:null}" fill="none"/><path d="M236.01695,232.015v-4.02863h4.02863v4.02863z" data-paper-data="{&quot;index&quot;:null}" fill="none"/><path d="M240.00979,232.07618v-4.02863h4.02863v4.02863z" data-paper-data="{&quot;index&quot;:null}" fill="none"/><path d="M236.01695,228.07106v-4.02863h4.02863v4.02863z" data-paper-data="{&quot;index&quot;:null}" fill="#323232"/><path d="M247.99646,236.03723v-4.02863h4.02863v4.02863z" data-paper-data="{&quot;index&quot;:null}" fill="none"/><path d="M247.99646,240.06989v-4.02863h4.02863v4.02863z" data-paper-data="{&quot;index&quot;:null}" fill="none"/><path d="M239.99638,236.00309v-4.02863h4.02863v4.02863z" data-paper-data="{&quot;index&quot;:null}" fill="none"/><path d="M236.00354,240.04769v-4.02863h4.02863v4.02863z" data-paper-data="{&quot;index&quot;:null}" fill="none"/><path d="M239.99638,240.03575v-4.02863h4.02863v4.02863z" data-paper-data="{&quot;index&quot;:null}" fill="none"/><path d="M236.00354,236.03058v-4.02863h4.02863v4.02863z" data-paper-data="{&quot;index&quot;:null}" fill="none"/><path d="M256.04314,236.12565v-4.02863h4.02863v4.02863z" data-paper-data="{&quot;index&quot;:null}" fill="none"/><path d="M256.04314,240.15827v-4.02863h4.02863v4.02863z" data-paper-data="{&quot;index&quot;:null}" fill="none"/></g></g></svg>