<svg version="1.1" xmlns="http://www.w3.org/2000/svg" xmlns:xlink="http://www.w3.org/1999/xlink" width="497" height="378" viewBox="0,0,497,378"><g transform="translate(7.5,10)"><g data-paper-data="{&quot;isPaintingLayer&quot;:true}" fill-rule="nonzero" stroke-linejoin="miter" stroke-miterlimit="10" stroke-dasharray="" stroke-dashoffset="0" style="mix-blend-mode: normal"><path d="M-7.5,368v-378h497v378z" fill="#ffffff" stroke="none" stroke-width="0" stroke-linecap="butt"/><text transform="translate(272.07759,157.33238) scale(0.35898,0.35898)" font-size="40" xml:space="preserve" fill="#000000" fill-rule="nonzero" stroke="none" stroke-width="1" stroke-linecap="butt" stroke-linejoin="miter" stroke-miterlimit="10" stroke-dasharray="" stroke-dashoffset="0" font-family="&quot;Source Code Pro&quot;, Sans Serif" font-weight="normal" text-anchor="start" style="mix-blend-mode: normal"><tspan x="0" dy="0">Ladder</tspan></text><path d="M396.40635,238.77328c0,0 -15.7919,-4.64422 -32.31378,-11.18373c-12.48027,-4.93981 -23.82874,-14.05774 -30.6501,-19.97561c-6.92318,-6.0062 -14.34354,-16.49011 -20.39404,-26.1705c-7.32263,-11.71573 -8.61313,-17.91921 -8.61313,-17.91921" fill="none" stroke="#000000" stroke-width="1.5" stroke-linecap="round"/><path d="M393.61935,215.54826c0,0 10.06429,15.04941 15.37368,22.98868c5.7067,8.53338 -33.33436,12.31334 -33.33436,12.31334" fill="none" stroke="#000000" stroke-width="1.5" stroke-linecap="round"/><path d="M268.51394,162.59523v-22.60568h60.38504v22.60568z" fill="none" stroke="#000000" stroke-width="1.5" stroke-linecap="butt"/><text transform="translate(136.34444,186.03999) scale(0.35898,0.35898)" font-size="40" xml:space="preserve" fill="#000000" fill-rule="nonzero" stroke="none" stroke-width="1" stroke-linecap="butt" stroke-linejoin="miter" stroke-miterlimit="10" stroke-dasharray="" stroke-dashoffset="0" font-family="&quot;Source Code Pro&quot;, Sans Serif" font-weight="normal" text-anchor="start" style="mix-blend-mode: normal"><tspan x="0" dy="0">Air Block</tspan></text><path d="M132.78079,191.30284v-22.60568h91.97105v22.60568z" fill="none" stroke="#000000" stroke-width="1.5" stroke-linecap="butt"/><path d="M106.83683,103.46117c0,0 8.42844,5.16201 16.98366,11.5369c6.46242,4.81546 11.61531,11.87602 14.64424,16.37347c3.07414,4.56458 5.73623,11.8027 7.72986,18.36078c2.41279,7.93693 2.19075,11.73499 2.19075,11.73499" fill="none" stroke="#000000" stroke-width="1.5" stroke-linecap="round"/><path d="M104.82032,117.36085c0,0 -3.48081,-10.29828 -5.3171,-15.7311c-1.97371,-5.83937 21.25001,-1.92502 21.25001,-1.92502" fill="none" stroke="#000000" stroke-width="1.5" stroke-linecap="round"/><text transform="translate(196.71468,203.74587) scale(0.21643,0.21643)" font-size="40" xml:space="preserve" fill="#000000" fill-rule="nonzero" stroke="none" stroke-width="1" stroke-linecap="butt" stroke-linejoin="miter" stroke-miterlimit="10" stroke-dasharray="" stroke-dashoffset="0" font-family="&quot;Source Code Pro&quot;, Sans Serif" font-weight="normal" text-anchor="start" style="mix-blend-mode: normal"><tspan x="0" dy="0">(Sticky)</tspan></text><text transform="translate(85.19189,236.85747) scale(0.35898,0.35898)" font-size="40" xml:space="preserve" fill="#000000" fill-rule="nonzero" stroke="none" stroke-width="1" stroke-linecap="butt" stroke-linejoin="miter" stroke-miterlimit="10" stroke-dasharray="" stroke-dashoffset="0" font-family="&quot;Source Code Pro&quot;, Sans Serif" font-weight="normal" text-anchor="start" style="mix-blend-mode: normal"><tspan x="0" dy="0">Killbricks</tspan></text><path d="M81.62824,242.12032v-22.60568h91.97105v22.60568z" fill="none" stroke="#000000" stroke-width="1.5" stroke-linecap="butt"/><path d="M103.91083,244.96829c0,0 0.70194,12.27796 -7.23499,14.69075c-4.76967,1.44996 -9.89906,3.25351 -14.098,5.31201" fill="none" stroke="#000000" stroke-width="1.5" stroke-linecap="round"/><path d="M92.04798,270.21944c0,0 -10.29828,3.48081 -15.7311,5.3171c-5.83937,1.97371 -1.92502,-21.25001 -1.92502,-21.25001" fill="none" stroke="#000000" stroke-width="1.5" stroke-linecap="round"/></g></g></svg>