<svg version="1.1" xmlns="http://www.w3.org/2000/svg" xmlns:xlink="http://www.w3.org/1999/xlink" width="146.81653" height="62.26744" viewBox="0,0,146.81653,62.26744"><g transform="translate(-167.02247,-148.86628)"><g data-paper-data="{&quot;isPaintingLayer&quot;:true}" fill-rule="nonzero" stroke-linejoin="miter" stroke-miterlimit="10" stroke-dasharray="" stroke-dashoffset="0" style="mix-blend-mode: normal"><path d="M180.18225,152.61628c11.09141,0 116.50743,0 118.6144,0c1.08814,0 6.9417,4.39989 9.91474,11.64486c1.6947,4.1298 1.44083,9.69034 1.37792,14.61584c-0.07285,5.70264 0.15631,11.05464 -2.04503,15.96103c-3.13156,6.97969 -9.13432,12.54571 -10.35925,12.54571c-24.45359,0 -109.71065,0 -119.58708,0c-0.5762,0 -5.19847,-5.43828 -7.32548,-12.46953c-1.44176,-4.766 -0.79112,-9.99361 -0.60092,-15.79674c0.17341,-5.29092 -0.35374,-10.68382 1.42182,-15.21152c2.56872,-6.55024 7.771,-11.28965 8.58888,-11.28965z" fill="#7e7e7e" stroke-opacity="0.33725" stroke="#ffffff" stroke-width="7.5" stroke-linecap="butt"/><text transform="translate(223.88927,191.82751) scale(0.8842,0.8842)" font-size="40" xml:space="preserve" fill="#ffffff" fill-rule="nonzero" stroke="none" stroke-width="1" stroke-linecap="butt" stroke-linejoin="miter" stroke-miterlimit="10" stroke-dasharray="" stroke-dashoffset="0" font-family="&quot;Open Sans Variable&quot;, Sans Serif" font-weight="normal" text-anchor="start" style="mix-blend-mode: normal"><tspan x="0" dy="0">back</tspan></text><path d="M186.05892,181.00001c0,-10.21727 8.28273,-18.5 18.5,-18.5c10.21727,0 18.5,8.28273 18.5,18.5c0,10.21727 -8.28273,18.5 -18.5,18.5c-10.21727,0 -18.5,-8.28273 -18.5,-18.5z" fill="#ffffff" stroke="none" stroke-width="0" stroke-linecap="butt"/><path d="M206.93302,189.06697l-7.59846,-7.59846" data-paper-data="{&quot;index&quot;:null}" fill="none" stroke="#424242" stroke-width="7.5" stroke-linecap="round"/><path d="M206.91292,173.26096l-7.59846,7.59846" data-paper-data="{&quot;index&quot;:null}" fill="none" stroke="#424242" stroke-width="7.5" stroke-linecap="round"/></g></g></svg>