<svg version="1.1" xmlns="http://www.w3.org/2000/svg" xmlns:xlink="http://www.w3.org/1999/xlink" width="652.15616" height="360" viewBox="0,0,652.15616,360"><g transform="translate(7.88608,-1.5)"><g data-paper-data="{&quot;isPaintingLayer&quot;:true}" fill-rule="nonzero" stroke="none" stroke-linecap="butt" stroke-linejoin="miter" stroke-miterlimit="10" stroke-dasharray="" stroke-dashoffset="0" style="mix-blend-mode: normal"><path d="M-7.88607,358.5v-357h652.15616v357z" fill="#000000" stroke-width="0"/><text transform="translate(93.64955,21.69213) scale(0.26452,0.26452)" font-size="40" xml:space="preserve" fill="#ffffff" fill-rule="nonzero" stroke="none" stroke-width="1" stroke-linecap="butt" stroke-linejoin="miter" stroke-miterlimit="10" stroke-dasharray="" stroke-dashoffset="0" font-family="&quot;Open Sans Light&quot;, Sans Serif" font-weight="normal" text-anchor="start" style="mix-blend-mode: normal"><tspan x="0" dy="0">Perbandingan</tspan></text><text transform="translate(91.5,38.76411) scale(0.51373,0.51373)" font-size="40" xml:space="preserve" fill="#ffffff" fill-rule="nonzero" stroke="none" stroke-width="1" stroke-linecap="butt" stroke-linejoin="miter" stroke-miterlimit="10" stroke-dasharray="" stroke-dashoffset="0" font-family="&quot;Open Sans Light&quot;, Sans Serif" font-weight="normal" text-anchor="start" style="mix-blend-mode: normal"><tspan x="0" dy="0">Segitiga</tspan></text><path d="M14.93394,361.5c0,0 0,-167.80659 0,-207.79058c0,-16.22355 9.59717,-24.0733 9.59717,-24.0733c0,0 7.85256,-10.13613 27.59187,-10.13613c64.15928,0 414.43336,0 530.24356,0c23.36725,0 27.59186,10.13613 27.59186,10.13613c0,0 9.59717,13.3438 9.59717,32.94241c0,42.11487 0,198.92147 0,198.92147z" fill="#232323" stroke-width="0"/><text transform="translate(418.5,100.09997) scale(1.9675,1.9675)" font-size="40" xml:space="preserve" fill="#ffffff" fill-rule="nonzero" stroke="none" stroke-width="1" stroke-linecap="butt" stroke-linejoin="miter" stroke-miterlimit="10" stroke-dasharray="" stroke-dashoffset="0" font-family="&quot;Open Sans Light&quot;, Sans Serif" font-weight="normal" text-anchor="start" style="mix-blend-mode: normal"><tspan x="0" dy="0">Tan</tspan></text></g></g></svg>