<svg version="1.1" xmlns="http://www.w3.org/2000/svg" xmlns:xlink="http://www.w3.org/1999/xlink" width="140.28023" height="54.76745" viewBox="0,0,140.28023,54.76745"><g transform="translate(-169.85988,-152.61629)"><g data-paper-data="{&quot;isPaintingLayer&quot;:true}" fill-rule="nonzero" stroke-linejoin="miter" stroke-miterlimit="10" stroke-dasharray="" stroke-dashoffset="0" style="mix-blend-mode: normal"><path d="M180.18225,152.61629c11.09141,0 116.50743,0 118.6144,0c1.08814,0 6.9417,4.39988 9.91474,11.64486c1.6947,4.1298 1.44084,9.69034 1.37792,14.61585c-0.07285,5.70264 0.1563,11.05464 -2.04503,15.96103c-3.13156,6.97969 -9.13432,12.54571 -10.35925,12.54571c-24.45359,0 -109.71065,0 -119.58708,0c-0.5762,0 -5.19846,-5.43828 -7.32548,-12.46953c-1.44176,-4.766 -0.79112,-9.99362 -0.60092,-15.79674c0.17341,-5.29092 -0.35374,-10.68383 1.42182,-15.21152c2.56872,-6.55024 7.771,-11.28964 8.58888,-11.28964z" fill="#424242" stroke="none" stroke-width="0" stroke-linecap="butt"/><text transform="translate(223.88927,191.82751) scale(0.8842,0.8842)" font-size="40" xml:space="preserve" fill="#ffffff" fill-rule="nonzero" stroke="none" stroke-width="1" stroke-linecap="butt" stroke-linejoin="miter" stroke-miterlimit="10" stroke-dasharray="" stroke-dashoffset="0" font-family="&quot;Open Sans Variable&quot;, Sans Serif" font-weight="normal" text-anchor="start" style="mix-blend-mode: normal"><tspan x="0" dy="0">back</tspan></text><path d="M186.05893,181.00001c0,-10.21727 8.28273,-18.5 18.5,-18.5c10.21727,0 18.5,8.28273 18.5,18.5c0,10.21727 -8.28273,18.5 -18.5,18.5c-10.21727,0 -18.5,-8.28273 -18.5,-18.5z" fill="#ffffff" stroke="none" stroke-width="0" stroke-linecap="butt"/><path d="M206.93303,189.06697l-7.59846,-7.59846" data-paper-data="{&quot;index&quot;:null}" fill="none" stroke="#424242" stroke-width="7.5" stroke-linecap="round"/><path d="M206.91293,173.26096l-7.59846,7.59846" data-paper-data="{&quot;index&quot;:null}" fill="none" stroke="#424242" stroke-width="7.5" stroke-linecap="round"/></g></g></svg>