<svg version="1.1" xmlns="http://www.w3.org/2000/svg" xmlns:xlink="http://www.w3.org/1999/xlink" width="240.51535" height="47.02782" viewBox="0,0,240.51535,47.02782"><g transform="translate(-119.74233,-156.48609)"><g data-paper-data="{&quot;isPaintingLayer&quot;:true}" fill-rule="nonzero" stroke="none" stroke-linecap="butt" stroke-linejoin="miter" stroke-miterlimit="10" stroke-dasharray="" stroke-dashoffset="0" style="mix-blend-mode: normal"><path d="M123.57219,201.11454c0,0 -3.82986,-0.76898 -3.82986,-5.27863c0,-8.63561 0,-22.18963 0,-27.8328c0,-4.89203 3.06388,-9.11764 3.06388,-9.11764c0,0 3.95285,-2.39938 11.87258,-2.39938c25.16923,0 160.03026,0 208.3445,0c10.76585,0 13.40452,2.39938 13.40452,2.39938c0,0 3.82986,2.60906 3.82986,9.11764c0,9.61291 0,22.49825 0,27.35292c0,3.72986 -5.36181,6.23838 -5.36181,6.23838c0,0 -0.19039,1.9195 -9.57466,1.9195c-46.78584,0 -188.82059,0 -212.94033,0c-6.81964,0 -8.80868,-2.39938 -8.80868,-2.39938z" fill="#0064ff" stroke-width="NaN"/><text transform="translate(122.142,188.28643) scale(0.57459,0.57459)" font-size="40" xml:space="preserve" fill="#ffffff" fill-rule="nonzero" stroke="none" stroke-width="1" stroke-linecap="butt" stroke-linejoin="miter" stroke-miterlimit="10" stroke-dasharray="" stroke-dashoffset="0" font-family="&quot;Open Sans Variable&quot;, Sans Serif" font-weight="normal" text-anchor="start" style="mix-blend-mode: normal"><tspan x="0" dy="0">PIlih Tingkat Kesulitan</tspan></text></g></g></svg>