<svg version="1.1" xmlns="http://www.w3.org/2000/svg" xmlns:xlink="http://www.w3.org/1999/xlink" width="43.20799" height="30.12268" viewBox="0,0,43.20799,30.12268"><g transform="translate(-272.13254,-152.77966)"><g data-paper-data="{&quot;isPaintingLayer&quot;:true}" fill-rule="nonzero" stroke="none" stroke-linecap="butt" stroke-linejoin="miter" stroke-miterlimit="10" stroke-dasharray="" stroke-dashoffset="0" style="mix-blend-mode: normal"><path d="M272.82058,180.01305c0,0 -0.68803,-0.40538 -0.68803,-2.78276c0,-4.55247 0,-11.6978 0,-14.67273c0,-2.57895 0.55042,-4.80658 0.55042,-4.80658c0,0 0.71012,-1.26489 2.13288,-1.26489c4.52159,0 28.74904,0 37.42857,0c1.93406,0 2.40809,1.26489 2.40809,1.26489c0,0 0.68803,1.37543 0.68803,4.80658c0,5.06768 0,11.86049 0,14.41975c0,1.96628 -0.96324,3.28871 -0.96324,3.28871c0,0 -0.0342,1.01191 -1.72006,1.01191c-8.40496,0 -33.92115,0 -38.2542,0c-1.22513,0 -1.58246,-1.26489 -1.58246,-1.26489z" fill="#0064ff" stroke-width="NaN"/><text transform="translate(285.99106,176.17853) scale(0.53791,0.53791)" font-size="40" xml:space="preserve" fill="#ffffff" fill-rule="nonzero" stroke="none" stroke-width="1" stroke-linecap="butt" stroke-linejoin="miter" stroke-miterlimit="10" stroke-dasharray="" stroke-dashoffset="0" font-family="&quot;Open Sans Variable&quot;, Sans Serif" font-weight="normal" text-anchor="start" style="mix-blend-mode: normal"><tspan x="0" dy="0">A</tspan></text></g></g></svg>