<svg version="1.1" xmlns="http://www.w3.org/2000/svg" xmlns:xlink="http://www.w3.org/1999/xlink" width="489.98799" height="404.4024" viewBox="0,0,489.98799,404.4024"><g transform="translate(4.99399,22.2012)"><g data-paper-data="{&quot;isPaintingLayer&quot;:true}" fill-rule="nonzero" stroke-linecap="butt" stroke-linejoin="miter" stroke-miterlimit="10" stroke-dasharray="" stroke-dashoffset="0" style="mix-blend-mode: normal"><path d="M-3.99398,381.2012v-402.4024h487.98799v402.4024z" fill="#000000" stroke="#000000" stroke-width="2"/><text transform="translate(42.33973,76.1934) scale(0.38521,0.38521)" font-size="40" xml:space="preserve" fill="#ffffff" fill-rule="nonzero" stroke="none" stroke-width="1" stroke-linecap="butt" stroke-linejoin="miter" stroke-miterlimit="10" stroke-dasharray="" stroke-dashoffset="0" font-family="&quot;Open Sans Variable&quot;, Sans Serif" font-weight="normal" text-anchor="start" style="mix-blend-mode: normal"><tspan x="0" dy="0">Di program oleh Kenzie Shane S. menggunakan Turbowarp</tspan><tspan x="0" dy="48px">(Scratch) dan ekstensi-ekstensinya. Lisensi dan info lebih </tspan><tspan x="0" dy="48px">lanjut ada di Github</tspan></text><path d="M15.63732,70.68054c0,-5.52296 4.47725,-10.00021 10.00021,-10.00021c5.52296,0 10.00021,4.47725 10.00021,10.00021c0,5.52296 -4.47725,10.00021 -10.00021,10.00021c-5.52296,0 -10.00021,-4.47725 -10.00021,-10.00021z" fill="none" stroke="#ffffff" stroke-width="1.5"/><text transform="translate(23.5222,76.38209) scale(0.40207,0.40207)" font-size="40" xml:space="preserve" fill="#ffffff" fill-rule="nonzero" stroke="none" stroke-width="1" stroke-linecap="butt" stroke-linejoin="miter" stroke-miterlimit="10" stroke-dasharray="" stroke-dashoffset="0" font-family="&quot;Open Sans Variable&quot;, Sans Serif" font-weight="normal" text-anchor="start" style="mix-blend-mode: normal"><tspan x="0" dy="0">i</tspan></text><text transform="translate(41.33973,231.1934) scale(0.38521,0.38521)" font-size="40" xml:space="preserve" fill="#ffffff" fill-rule="nonzero" stroke="none" stroke-width="1" stroke-linecap="butt" stroke-linejoin="miter" stroke-miterlimit="10" stroke-dasharray="" stroke-dashoffset="0" font-family="&quot;Open Sans Variable&quot;, Sans Serif" font-weight="normal" text-anchor="start" style="mix-blend-mode: normal"><tspan x="0" dy="0">Tidak ada bit parity yang digunakan.</tspan></text><path d="M15.63732,225.68054c0,-5.52296 4.47725,-10.00022 10.00021,-10.00022c5.52296,0 10.00021,4.47725 10.00021,10.00022c0,5.52296 -4.47725,10.00021 -10.00021,10.00021c-5.52296,0 -10.00021,-4.47725 -10.00021,-10.00021z" fill="none" stroke="#ffffff" stroke-width="1.5"/><text transform="translate(23.5222,231.38209) scale(0.40207,0.40207)" font-size="40" xml:space="preserve" fill="#ffffff" fill-rule="nonzero" stroke="none" stroke-width="1" stroke-linecap="butt" stroke-linejoin="miter" stroke-miterlimit="10" stroke-dasharray="" stroke-dashoffset="0" font-family="&quot;Open Sans Variable&quot;, Sans Serif" font-weight="normal" text-anchor="start" style="mix-blend-mode: normal"><tspan x="0" dy="0">i</tspan></text></g></g></svg>