<svg version="1.1" xmlns="http://www.w3.org/2000/svg" xmlns:xlink="http://www.w3.org/1999/xlink" width="150.68102" height="47.02782" viewBox="0,0,150.68102,47.02782"><g transform="translate(-164.65949,-156.48609)"><g data-paper-data="{&quot;isPaintingLayer&quot;:true}" fill-rule="nonzero" stroke="none" stroke-linecap="butt" stroke-linejoin="miter" stroke-miterlimit="10" stroke-dasharray="" stroke-dashoffset="0" style="mix-blend-mode: normal"><path d="M167.05887,201.11454c0,0 -2.39938,-0.76898 -2.39938,-5.27863c0,-8.63561 0,-22.18963 0,-27.8328c0,-4.89203 1.9195,-9.11764 1.9195,-9.11764c0,0 2.47643,-2.39938 7.43808,-2.39938c15.76833,0 100.25773,0 130.52623,0c6.74472,0 8.39783,2.39938 8.39783,2.39938c0,0 2.39938,2.60906 2.39938,9.11764c0,9.61291 0,22.49825 0,27.35292c0,3.72986 -3.35913,6.23838 -3.35913,6.23838c0,0 -0.11928,1.9195 -5.99845,1.9195c-29.31097,0 -118.29465,0 -133.40548,0c-4.27245,0 -5.51857,-2.39938 -5.51857,-2.39938z" fill="#0064ff" stroke-width="NaN"/><text transform="translate(200.28556,189.87861) scale(0.74956,0.74956)" font-size="40" xml:space="preserve" fill="#ffffff" fill-rule="nonzero" stroke="none" stroke-width="1" stroke-linecap="butt" stroke-linejoin="miter" stroke-miterlimit="10" stroke-dasharray="" stroke-dashoffset="0" font-family="&quot;Open Sans Variable&quot;, Sans Serif" font-weight="normal" text-anchor="start" style="mix-blend-mode: normal"><tspan x="0" dy="0">Jawab</tspan></text></g></g></svg>