<svg version="1.1" xmlns="http://www.w3.org/2000/svg" xmlns:xlink="http://www.w3.org/1999/xlink" width="39.03798" height="17.5" viewBox="0,0,39.03798,17.5"><defs><linearGradient x1="229" y1="176.29167" x2="229" y2="185.04167" gradientUnits="userSpaceOnUse" id="color-1"><stop offset="0" stop-color="#8e8e8e"/><stop offset="1" stop-color="#ffffff"/></linearGradient><linearGradient x1="250.33333" y1="176.29167" x2="250.33333" y2="185.04167" gradientUnits="userSpaceOnUse" id="color-2"><stop offset="0" stop-color="#8e8e8e"/><stop offset="1" stop-color="#ffffff"/></linearGradient><linearGradient x1="240" y1="172" x2="240" y2="188" gradientUnits="userSpaceOnUse" id="color-3"><stop offset="0" stop-color="#8e8e8e"/><stop offset="1" stop-color="#ffffff"/></linearGradient></defs><g transform="translate(-220.14768,-171.25)"><g data-paper-data="{&quot;isPaintingLayer&quot;:true}" fill-rule="nonzero" stroke="#000000" stroke-width="1.5" stroke-linejoin="miter" stroke-miterlimit="10" stroke-dasharray="" stroke-dashoffset="0" style="mix-blend-mode: normal"><path d="M225.45834,178.875h11.33333v3.5h-11.16666v2.66667l-4.41666,-4.41667l4.33333,-4.33333z" data-paper-data="{&quot;index&quot;:null}" fill="url(#color-1)" stroke-linecap="round"/><path d="M253.875,178.875h-11.33333v3.5h11.16666v2.66667l4.41667,-4.41667l-4.33333,-4.33333z" fill="url(#color-2)" stroke-linecap="round"/><path d="M232,180c0,-4.41828 3.58172,-8 8,-8c4.41828,0 8,3.58172 8,8c0,4.41828 -3.58172,8 -8,8c-4.41828,0 -8,-3.58172 -8,-8z" fill="url(#color-3)" stroke-linecap="butt"/></g></g></svg>