<svg version="1.1" xmlns="http://www.w3.org/2000/svg" xmlns:xlink="http://www.w3.org/1999/xlink" width="43.20799" height="47.02782" viewBox="0,0,43.20799,47.02782"><g transform="translate(-272.1325,-156.48609)"><g data-paper-data="{&quot;isPaintingLayer&quot;:true}" fill-rule="nonzero" stroke="none" stroke-linecap="butt" stroke-linejoin="miter" stroke-miterlimit="10" stroke-dasharray="" stroke-dashoffset="0" style="mix-blend-mode: normal"><path d="M272.82054,201.11454c0,0 -0.68803,-0.76898 -0.68803,-5.27863c0,-8.63561 0,-22.18963 0,-27.8328c0,-4.89203 0.55042,-9.11764 0.55042,-9.11764c0,0 0.71012,-2.39938 2.13288,-2.39938c4.52159,0 28.74904,0 37.42857,0c1.93406,0 2.40809,2.39938 2.40809,2.39938c0,0 0.68803,2.60906 0.68803,9.11764c0,9.61291 0,22.49825 0,27.35292c0,3.72986 -0.96324,6.23838 -0.96324,6.23838c0,0 -0.0342,1.9195 -1.72006,1.9195c-8.40496,0 -33.92115,0 -38.2542,0c-1.22513,0 -1.58246,-2.39938 -1.58246,-2.39938z" fill="#0064ff" stroke-width="NaN"/><text transform="translate(285.60766,190.69901) scale(0.74956,0.74956)" font-size="40" xml:space="preserve" fill="#ffffff" fill-rule="nonzero" stroke="none" stroke-width="1" stroke-linecap="butt" stroke-linejoin="miter" stroke-miterlimit="10" stroke-dasharray="" stroke-dashoffset="0" font-family="&quot;Open Sans Variable&quot;, Sans Serif" font-weight="normal" text-anchor="start" style="mix-blend-mode: normal"><tspan x="0" dy="0">4</tspan></text></g></g></svg>