<svg version="1.1" xmlns="http://www.w3.org/2000/svg" xmlns:xlink="http://www.w3.org/1999/xlink" width="70.79504" height="122.9837" viewBox="0,0,70.79504,122.9837"><g transform="translate(-204.60248,-114.24229)"><g data-paper-data="{&quot;isPaintingLayer&quot;:true}" fill-rule="nonzero" stroke="none" stroke-linecap="butt" stroke-linejoin="miter" stroke-miterlimit="10" stroke-dasharray="" stroke-dashoffset="0" style="mix-blend-mode: normal"><path d="M206.19345,234.70695c0,0 -1.59097,-0.41405 -1.59097,-5.31485c0,-22.32482 0,-85.48189 0,-98.21579c0,-4.37115 1.98871,-6.14843 1.98871,-6.14843c0,0 1.8618,-2.25388 5.63306,-2.25388c8.32343,0 41.01201,0 55.81666,0c4.50705,0 5.50047,2.1213 5.50047,2.1213c0,0 1.85613,1.5532 1.85613,5.6181c0,12.32144 0,75.63657 0,98.48096c0,5.14039 -1.72355,5.58001 -1.72355,5.58001c0,0 -1.7476,2.65162 -5.23531,2.65162c-8.14519,0 -41.6835,0 -56.61215,0c-4.43218,0 -5.63305,-2.51904 -5.63305,-2.51904z" fill="#ff3100" stroke-width="NaN"/><text transform="translate(211.78031,207.13207) scale(2.35164,2.35164)" font-size="40" xml:space="preserve" fill="#ffffff" fill-rule="nonzero" stroke="none" stroke-width="1" stroke-linecap="butt" stroke-linejoin="miter" stroke-miterlimit="10" stroke-dasharray="" stroke-dashoffset="0" font-family="&quot;SourceCodePro-VariableFont_wght&quot;, Sans Serif" font-weight="normal" text-anchor="start" style="mix-blend-mode: normal"><tspan x="0" dy="0">0</tspan></text></g></g></svg>