<svg version="1.1" xmlns="http://www.w3.org/2000/svg" xmlns:xlink="http://www.w3.org/1999/xlink" width="639" height="463" viewBox="0,0,639,463"><defs><radialGradient cx="239" cy="182" r="258" gradientUnits="userSpaceOnUse" id="color-1"><stop offset="0" stop-color="#000000" stop-opacity="0"/><stop offset="1" stop-color="#000000"/></radialGradient></defs><g transform="translate(45.5,40.5)"><g data-paper-data="{&quot;isPaintingLayer&quot;:true}" fill-rule="nonzero" stroke-linecap="butt" stroke-linejoin="miter" stroke-miterlimit="10" stroke-dasharray="" stroke-dashoffset="0" style="mix-blend-mode: normal"><path d="M-7.5,371.5v-379h493v379z" fill="#4f4f4f" stroke="none" stroke-width="0"/><path d="M184.5,379.5v-240h299v240z" fill="#4a4a4a" stroke="none" stroke-width="0"/><path d="M-31.5,212.5v-235h322v235z" fill="#a2a2a2" stroke="none" stroke-width="0"/><path d="M-45.5,183.5v-216h313v216z" fill="#ffffff" stroke="none" stroke-width="0"/><path d="M209.5,395.5v-234h287v234z" fill="#e8e8e8" stroke="none" stroke-width="0"/><path d="M-41.5,170.5v-211h295v211z" fill="#d2d2d2" stroke="none" stroke-width="0"/><path d="M228.5,422.5v-251h365v251z" fill="#ffffff" stroke="none" stroke-width="0"/><path d="M318.5,123.5v-140h218v140z" fill="#404040" stroke="none" stroke-width="0"/><path d="M-26.5,398.5v-174h199v174z" fill="#ffffff" stroke="none" stroke-width="0"/><path d="M-19,383v-402h516v402z" fill="url(#color-1)" stroke="none" stroke-width="0"/><path d="M378.75,246.6994v-162.39881h95.5v162.39881z" fill="#009c15" stroke="none" stroke-width="0"/><path d="M468.5,89.5v149h-84v-149z" data-paper-data="{&quot;index&quot;:null}" fill="#009c15" stroke="#ffffff" stroke-width="2.5"/><text transform="translate(391.50003,112.5) scale(0.5,0.5)" font-size="40" xml:space="preserve" fill="#ffffff" fill-rule="nonzero" stroke="none" stroke-width="1" stroke-linecap="butt" stroke-linejoin="miter" stroke-miterlimit="10" stroke-dasharray="" stroke-dashoffset="0" font-family="&quot;SourceCodePro-VariableFont_wght&quot;, Sans Serif" font-weight="normal" text-anchor="start" style="mix-blend-mode: normal"><tspan x="0" dy="0">Player</tspan></text><text transform="translate(390.50005,206.11248) scale(3,3)" font-size="40" xml:space="preserve" fill="#ffffff" fill-rule="nonzero" stroke="none" stroke-width="1" stroke-linecap="butt" stroke-linejoin="miter" stroke-miterlimit="10" stroke-dasharray="" stroke-dashoffset="0" font-family="&quot;SourceCodePro-VariableFont_wght&quot;, Sans Serif" font-weight="normal" text-anchor="start" style="mix-blend-mode: normal"><tspan x="0" dy="0">2</tspan></text><text transform="translate(408.50003,224.5) scale(0.5,0.5)" font-size="40" xml:space="preserve" fill="#ffffff" fill-rule="nonzero" stroke="none" stroke-width="1" stroke-linecap="butt" stroke-linejoin="miter" stroke-miterlimit="10" stroke-dasharray="" stroke-dashoffset="0" font-family="&quot;SourceCodePro-VariableFont_wght&quot;, Sans Serif" font-weight="normal" text-anchor="start" style="mix-blend-mode: normal"><tspan x="0" dy="0">won</tspan></text></g></g></svg>