<svg version="1.1" xmlns="http://www.w3.org/2000/svg" xmlns:xlink="http://www.w3.org/1999/xlink" width="96.64407" height="77.73988" viewBox="0,0,96.64407,77.73988"><g transform="translate(-194.17796,-143.63006)"><g data-paper-data="{&quot;isPaintingLayer&quot;:true}" fill-rule="nonzero" stroke="none" stroke-linecap="butt" stroke-linejoin="miter" stroke-miterlimit="10" stroke-dasharray="" stroke-dashoffset="0" style="mix-blend-mode: normal"><path d="M197.15725,214.98763c0,0 2.02072,-1.32887 2.02072,-4.44357c0,-14.18853 0,-42.50674 0,-50.59976c0,-2.77808 2.81508,-7.97514 2.81508,-7.97514c0,0 2.1694,-3.3391 7.05129,-3.3391c10.77467,0 49.88999,-4.4 69.05459,-4.4c5.83437,0 10.32035,7.78195 10.32035,7.78195c0,0 0.96934,1.33137 1.60924,3.37849c0.55548,1.77706 0.79352,4.20309 0.79352,5.40359c0,7.83089 0,36.37667 0,50.8954c0,3.26697 -3.19389,6.97834 -3.19389,6.97834c0,0 -1.29951,2.70211 -5.81434,2.70211c-10.54393,0 -53.95924,0 -73.28436,0c-5.73745,0 -7.3722,-1.9823 -7.3722,-1.9823z" data-paper-data="{&quot;index&quot;:null}" fill="#b49153" stroke-width="NaN"/><path d="M196.15725,214.38763c0,0 -1.97928,-5.72887 -1.97928,-8.84357c0,-14.18853 0,-42.50674 0,-50.59976c0,-2.77808 2.81508,-7.97514 2.81508,-7.97514c0,0 2.1694,-3.3391 7.05129,-3.3391c10.77467,0 53.08999,0 72.25459,0c5.83437,0 7.12035,3.38195 7.12035,3.38195c0,0 0.96934,1.33137 1.60924,3.37849c0.55548,1.77706 0.79352,4.20309 0.79352,5.40359c0,7.83089 0,36.37667 0,50.8954c0,3.26697 -3.19389,6.97834 -3.19389,6.97834c0,0 -1.29951,2.70211 -5.81434,2.70211c-10.54393,0 -53.95924,0 -73.28436,0c-5.73745,0 -7.3722,-1.9823 -7.3722,-1.9823z" fill="#ff9600" stroke-width="NaN"/><text transform="translate(211.11473,186.943) scale(0.60177,0.60177)" font-size="40" xml:space="preserve" fill="#ffffff" fill-rule="nonzero" stroke="none" stroke-width="1" stroke-linecap="butt" stroke-linejoin="miter" stroke-miterlimit="10" stroke-dasharray="" stroke-dashoffset="0" font-family="&quot;SourceCodePro-VariableFont_wght&quot;, Sans Serif" font-weight="normal" text-anchor="start" style="mix-blend-mode: normal"><tspan x="0" dy="0">PLAY</tspan></text></g></g></svg>