<svg version="1.1" xmlns="http://www.w3.org/2000/svg" xmlns:xlink="http://www.w3.org/1999/xlink" width="79.01906" height="78.18778" viewBox="0,0,79.01906,78.18778"><g transform="translate(-237.75,-140.90611)"><g data-paper-data="{&quot;isPaintingLayer&quot;:true}" fill-rule="nonzero" stroke-linecap="butt" stroke-linejoin="miter" stroke-miterlimit="10" stroke-dasharray="" stroke-dashoffset="0" style="mix-blend-mode: normal"><path d="M241.5,215.34389v-70.68778h71.51906v70.68778z" fill="#7c7c7c" stroke-opacity="0.45882" stroke="#ffffff" stroke-width="7.5"/><path d="M257.78773,180c0,-10.75398 8.71782,-19.4718 19.4718,-19.4718c10.75398,0 19.4718,8.71782 19.4718,19.4718c0,10.75398 -8.71782,19.4718 -19.4718,19.4718c-10.75398,0 -19.4718,-8.71782 -19.4718,-19.4718z" fill="#ffffff" stroke="none" stroke-width="0"/><path d="M265.01312,180c0,-6.76351 5.4829,-12.24642 12.24641,-12.24642c6.76351,0 12.24642,5.48291 12.24642,12.24642c0,6.76351 -5.48291,12.24642 -12.24642,12.24642c-6.76351,0 -12.24641,-5.48291 -12.24641,-12.24642z" fill="#7c7c7c" stroke-opacity="0.45882" stroke="#ffffff" stroke-width="7.5"/></g></g></svg>