<svg version="1.1" xmlns="http://www.w3.org/2000/svg" xmlns:xlink="http://www.w3.org/1999/xlink" width="496" height="357" viewBox="0,0,496,357"><g transform="translate(6.5,-1.5)"><g data-paper-data="{&quot;isPaintingLayer&quot;:true}" fill-rule="nonzero" stroke-linecap="butt" stroke-linejoin="miter" stroke-miterlimit="10" stroke-dasharray="" stroke-dashoffset="0" style="mix-blend-mode: normal"><path d="M-6.5,358.5v-357h496v357z" fill="#000000" stroke="none" stroke-width="0"/><text transform="translate(15.5,44.75) scale(0.73835,0.73835)" font-size="40" xml:space="preserve" fill="#ffffff" fill-rule="nonzero" stroke="none" stroke-width="1" stroke-linecap="butt" stroke-linejoin="miter" stroke-miterlimit="10" stroke-dasharray="" stroke-dashoffset="0" font-family="&quot;Open Sans Light&quot;, Sans Serif" font-weight="normal" text-anchor="start" style="mix-blend-mode: normal"><tspan x="0" dy="0">derajat ke radian</tspan></text><path d="M251,282.16667v-269.66667h221v269.66667z" fill="#3f3f3f" stroke="none" stroke-width="0"/><path d="M257,28c0,-5.2467 4.25329,-9.5 9.5,-9.5c5.24671,0 9.5,4.2533 9.5,9.5c0,5.2467 -4.25329,9.5 -9.5,9.5c-5.24671,0 -9.5,-4.2533 -9.5,-9.5z" fill="none" stroke="#ffffff" stroke-width="1.5"/><text transform="translate(264.67876,32.70834) scale(0.33749,0.33749)" font-size="40" xml:space="preserve" fill="#ffffff" fill-rule="nonzero" stroke="none" stroke-width="1" stroke-linecap="butt" stroke-linejoin="miter" stroke-miterlimit="10" stroke-dasharray="" stroke-dashoffset="0" font-family="&quot;Open Sans Variable&quot;, Sans Serif" font-weight="normal" text-anchor="start" style="mix-blend-mode: normal"><tspan x="0" dy="0">i</tspan></text><text transform="translate(280.01209,29.70834) scale(0.33749,0.33749)" font-size="40" xml:space="preserve" fill="#ffffff" fill-rule="nonzero" stroke="none" stroke-width="1" stroke-linecap="butt" stroke-linejoin="miter" stroke-miterlimit="10" stroke-dasharray="" stroke-dashoffset="0" font-family="&quot;Open Sans Variable&quot;, Sans Serif" font-weight="normal" text-anchor="start" style="mix-blend-mode: normal"><tspan x="0" dy="0">Program ini hanya</tspan><tspan x="0" dy="46.150000000000006px">mendukung 4 angka </tspan><tspan x="0" dy="46.150000000000006px">dibelakang koma. </tspan><tspan x="0" dy="46.150000000000006px">(e.g. n.abcdπ)</tspan><tspan x="0" dy="46.150000000000006px"> </tspan><tspan x="0" dy="46.150000000000006px">Operasi yang mencakup</tspan><tspan x="0" dy="46.150000000000006px">nilai π tidak diganggu gugat.</tspan><tspan x="0" dy="46.150000000000006px"> </tspan><tspan x="0" dy="46.150000000000006px">(e.g. 2 * π = 2π)</tspan><tspan x="0" dy="46.150000000000006px"> </tspan><tspan x="0" dy="46.150000000000006px">untuk mengikuti standar</tspan><tspan x="0" dy="46.150000000000006px">penyelesaian soal pada biasa</tspan><tspan x="0" dy="46.150000000000006px">nya.</tspan></text><path d="M10,313c0,-5.2467 4.25329,-9.5 9.5,-9.5c5.24671,0 9.5,4.2533 9.5,9.5c0,5.2467 -4.25329,9.5 -9.5,9.5c-5.24671,0 -9.5,-4.2533 -9.5,-9.5z" fill="none" stroke="#ffffff" stroke-width="1.5"/><text transform="translate(17.67876,317.70834) scale(0.33749,0.33749)" font-size="40" xml:space="preserve" fill="#ffffff" fill-rule="nonzero" stroke="none" stroke-width="1" stroke-linecap="butt" stroke-linejoin="miter" stroke-miterlimit="10" stroke-dasharray="" stroke-dashoffset="0" font-family="&quot;Open Sans Variable&quot;, Sans Serif" font-weight="normal" text-anchor="start" style="mix-blend-mode: normal"><tspan x="0" dy="0">i</tspan></text><text transform="translate(34.5,318.86666) scale(0.3527,0.3527)" font-size="40" xml:space="preserve" fill="#ffffff" fill-rule="nonzero" stroke="none" stroke-width="1" stroke-linecap="butt" stroke-linejoin="miter" stroke-miterlimit="10" stroke-dasharray="" stroke-dashoffset="0" font-family="&quot;Open Sans Variable&quot;, Sans Serif" font-weight="normal" text-anchor="start" style="mix-blend-mode: normal"><tspan x="0" dy="0">Ini merupakan aplikasi usang, beberapa fungsi </tspan><tspan x="0" dy="48px">mungkin tidak akan bekerja kedepannya.</tspan></text></g></g></svg>