<svg version="1.1" xmlns="http://www.w3.org/2000/svg" xmlns:xlink="http://www.w3.org/1999/xlink" width="640" height="357" viewBox="0,0,640,357"><g transform="translate(0,-1.5)"><g data-paper-data="{&quot;isPaintingLayer&quot;:true}" fill-rule="nonzero" stroke-linecap="butt" stroke-linejoin="miter" stroke-miterlimit="10" stroke-dasharray="" stroke-dashoffset="0" style="mix-blend-mode: normal"><path d="M0,358.5v-357h640v357z" fill="#00286d" stroke="none" stroke-width="0"/><text transform="translate(12.37207,57.13739) scale(1.08244,1.08244)" font-size="40" xml:space="preserve" fill="#ffffff" fill-rule="nonzero" stroke="none" stroke-width="1" stroke-linecap="butt" stroke-linejoin="miter" stroke-miterlimit="10" stroke-dasharray="" stroke-dashoffset="0" font-family="&quot;Open Sans Light&quot;, Sans Serif" font-weight="normal" text-anchor="start" style="mix-blend-mode: normal"><tspan x="0" dy="0">derajat ke radian</tspan></text><path d="M406.07508,283.66817v-269.66667h221v269.66667z" fill-opacity="0.71765" fill="#000000" stroke="none" stroke-width="0"/><path d="M412.07508,29.5015c0,-5.2467 4.25329,-9.5 9.5,-9.5c5.24671,0 9.5,4.2533 9.5,9.5c0,5.2467 -4.25329,9.5 -9.5,9.5c-5.24671,0 -9.5,-4.2533 -9.5,-9.5z" fill="none" stroke="#ffffff" stroke-width="1.5"/><text transform="translate(419.75384,34.20984) scale(0.33749,0.33749)" font-size="40" xml:space="preserve" fill="#ffffff" fill-rule="nonzero" stroke="none" stroke-width="1" stroke-linecap="butt" stroke-linejoin="miter" stroke-miterlimit="10" stroke-dasharray="" stroke-dashoffset="0" font-family="&quot;Open Sans Variable&quot;, Sans Serif" font-weight="normal" text-anchor="start" style="mix-blend-mode: normal"><tspan x="0" dy="0">i</tspan></text><text transform="translate(435.08717,31.20984) scale(0.33749,0.33749)" font-size="40" xml:space="preserve" fill="#ffffff" fill-rule="nonzero" stroke="none" stroke-width="1" stroke-linecap="butt" stroke-linejoin="miter" stroke-miterlimit="10" stroke-dasharray="" stroke-dashoffset="0" font-family="&quot;Open Sans Variable&quot;, Sans Serif" font-weight="normal" text-anchor="start" style="mix-blend-mode: normal"><tspan x="0" dy="0">Program ini hanya</tspan><tspan x="0" dy="46.150000000000006px">mendukung 4 angka </tspan><tspan x="0" dy="46.150000000000006px">dibelakang koma. </tspan><tspan x="0" dy="46.150000000000006px">(e.g. n.abcdπ)</tspan><tspan x="0" dy="46.150000000000006px"> </tspan><tspan x="0" dy="46.150000000000006px">Operasi yang mencakup</tspan><tspan x="0" dy="46.150000000000006px">nilai π tidak diganggu gugat.</tspan><tspan x="0" dy="46.150000000000006px"> </tspan><tspan x="0" dy="46.150000000000006px">(e.g. 2 * π = 2π)</tspan><tspan x="0" dy="46.150000000000006px"> </tspan><tspan x="0" dy="46.150000000000006px">untuk mengikuti standar</tspan><tspan x="0" dy="46.150000000000006px">penyelesaian soal pada biasa</tspan><tspan x="0" dy="46.150000000000006px">nya.</tspan></text><path d="M9.23453,316.003c0,-5.2467 4.25329,-9.5 9.5,-9.5c5.24671,0 9.5,4.2533 9.5,9.5c0,5.2467 -4.25329,9.5 -9.5,9.5c-5.24671,0 -9.5,-4.2533 -9.5,-9.5z" fill="none" stroke="#ffffff" stroke-width="1.5"/><text transform="translate(16.91329,320.71134) scale(0.33749,0.33749)" font-size="40" xml:space="preserve" fill="#ffffff" fill-rule="nonzero" stroke="none" stroke-width="1" stroke-linecap="butt" stroke-linejoin="miter" stroke-miterlimit="10" stroke-dasharray="" stroke-dashoffset="0" font-family="&quot;Open Sans Variable&quot;, Sans Serif" font-weight="normal" text-anchor="start" style="mix-blend-mode: normal"><tspan x="0" dy="0">i</tspan></text><text transform="translate(33.73453,321.86966) scale(0.3527,0.3527)" font-size="40" xml:space="preserve" fill="#ffffff" fill-rule="nonzero" stroke="none" stroke-width="1" stroke-linecap="butt" stroke-linejoin="miter" stroke-miterlimit="10" stroke-dasharray="" stroke-dashoffset="0" font-family="&quot;Open Sans Variable&quot;, Sans Serif" font-weight="normal" text-anchor="start" style="mix-blend-mode: normal"><tspan x="0" dy="0">Ini merupakan aplikasi usang, beberapa fungsi </tspan><tspan x="0" dy="48px">mungkin tidak akan bekerja kedepannya.</tspan></text><path d="M299.16667,164.23423v-31.53153h100.6006v31.53153z" fill-opacity="0.09804" fill="#ffffff" stroke="none" stroke-width="0"/></g></g></svg>