<svg version="1.1" xmlns="http://www.w3.org/2000/svg" xmlns:xlink="http://www.w3.org/1999/xlink" width="496" height="360" viewBox="0,0,496,360"><g transform="translate(6.5,-1.5)"><g data-paper-data="{&quot;isPaintingLayer&quot;:true}" fill-rule="nonzero" stroke="none" stroke-linecap="butt" stroke-linejoin="miter" stroke-miterlimit="10" stroke-dasharray="" stroke-dashoffset="0" style="mix-blend-mode: normal"><path d="M-6.5,358.5v-357h496v357z" fill="#000000" stroke-width="0"/><text transform="translate(13.64955,21.69213) scale(0.26452,0.26452)" font-size="40" xml:space="preserve" fill="#ffffff" fill-rule="nonzero" stroke="none" stroke-width="1" stroke-linecap="butt" stroke-linejoin="miter" stroke-miterlimit="10" stroke-dasharray="" stroke-dashoffset="0" font-family="&quot;Open Sans Light&quot;, Sans Serif" font-weight="normal" text-anchor="start" style="mix-blend-mode: normal"><tspan x="0" dy="0">Perbandingan</tspan></text><text transform="translate(11.5,38.76411) scale(0.51373,0.51373)" font-size="40" xml:space="preserve" fill="#ffffff" fill-rule="nonzero" stroke="none" stroke-width="1" stroke-linecap="butt" stroke-linejoin="miter" stroke-miterlimit="10" stroke-dasharray="" stroke-dashoffset="0" font-family="&quot;Open Sans Light&quot;, Sans Serif" font-weight="normal" text-anchor="start" style="mix-blend-mode: normal"><tspan x="0" dy="0">Segitiga</tspan></text><path d="M1,361.5c0,0 0,-167.80659 0,-207.79058c0,-16.22355 7.66667,-24.0733 7.66667,-24.0733c0,0 6.27299,-10.13613 22.04167,-10.13613c51.25343,0 331.06873,0 423.58333,0c18.66685,0 22.04167,10.13613 22.04167,10.13613c0,0 7.66667,13.3438 7.66667,32.94241c0,42.11487 0,198.92147 0,198.92147z" fill="#232323" stroke-width="0"/><text transform="translate(363.5,99.09997) scale(1.9675,1.9675)" font-size="40" xml:space="preserve" fill="#ffffff" fill-rule="nonzero" stroke="none" stroke-width="1" stroke-linecap="butt" stroke-linejoin="miter" stroke-miterlimit="10" stroke-dasharray="" stroke-dashoffset="0" font-family="&quot;Open Sans Light&quot;, Sans Serif" font-weight="normal" text-anchor="start" style="mix-blend-mode: normal"><tspan x="0" dy="0">Sin</tspan></text></g></g></svg>