<svg version="1.1" xmlns="http://www.w3.org/2000/svg" xmlns:xlink="http://www.w3.org/1999/xlink" width="59.83121" height="35.51624" viewBox="0,0,59.83121,35.51624"><g transform="translate(-290.08439,-162.24188)"><g data-paper-data="{&quot;isPaintingLayer&quot;:true}" fill-rule="nonzero" stroke="none" stroke-linecap="butt" stroke-linejoin="miter" stroke-miterlimit="10" stroke-dasharray="" stroke-dashoffset="0" style="mix-blend-mode: normal"><path d="M290.08439,197.75812v-35.51624h59.83121v35.51624z" fill="#484848" stroke-width="none"/><path d="M293.25456,174.55856v-6.83005h7.10324v6.83005z" fill="#ffffff" stroke-width="0"/><path d="M309.85035,174.36772v-6.83004h7.10325v6.83004z" fill="#ffffff" stroke-width="0"/><path d="M301.53299,174.55856v-6.83005h7.10325v6.83005z" fill="#ffffff" stroke-width="0"/><path d="M318.12878,174.36772v-6.83004h7.10324v6.83004z" fill="#ffffff" stroke-width="0"/><path d="M326.47672,174.46314v-6.83005h7.10325v6.83005z" fill="#ffffff" stroke-width="0"/><path d="M334.87646,174.36772v-6.83004h7.10324v6.83004z" fill="#ffffff" stroke-width="0"/><path d="M297.31783,182.83698v-6.83005h7.10324v6.83005z" fill="#ffffff" stroke-width="0"/><path d="M313.91362,182.64615v-6.83004h7.10325v6.83004z" fill="#ffffff" stroke-width="0"/><path d="M305.59626,182.83698v-6.83005h7.10325v6.83005z" fill="#ffffff" stroke-width="0"/><path d="M322.19205,182.64615v-6.83004h7.10325v6.83004z" fill="#ffffff" stroke-width="0"/><path d="M330.53999,182.74157v-6.83005h7.10325v6.83005z" fill="#ffffff" stroke-width="0"/><path d="M338.93973,182.64615v-6.83004h7.10325v6.83004z" fill="#ffffff" stroke-width="0"/><path d="M293.17861,192.39905v-6.83005h7.10325v6.83005z" fill="#ffffff" stroke-width="0"/><path d="M301.45704,192.39905v-6.83005h7.10325v6.83005z" fill="#ffffff" stroke-width="0"/><path d="M309.85035,192.48141v-6.83005h15.38167v6.83005z" fill="#ffffff" stroke-width="0"/><path d="M326.34012,192.386v-6.83005h7.10324v6.83005z" fill="#ffffff" stroke-width="0"/><path d="M334.73985,192.29058v-6.83004h7.10325v6.83004z" fill="#ffffff" stroke-width="0"/></g></g></svg>