<svg version="1.1" xmlns="http://www.w3.org/2000/svg" xmlns:xlink="http://www.w3.org/1999/xlink" width="64.56391" height="24.62082" viewBox="0,0,64.56391,24.62082"><g transform="translate(-195.13356,-112.5209)"><g data-paper-data="{&quot;isPaintingLayer&quot;:true}" fill-rule="nonzero" stroke="none" stroke-linecap="butt" stroke-linejoin="miter" stroke-miterlimit="10" stroke-dasharray="" stroke-dashoffset="0" style="mix-blend-mode: normal"><path d="M195.92786,136.03266c0,0 -0.7943,-2.23844 -0.7943,-3.06526c0,-4.44753 0,-13.59732 0,-16.35674c0,-0.89191 1.27176,-3.32719 1.27176,-3.32719c0,0 1.59196,-0.76257 4.539,-0.76257c7.24423,0 38.39942,0 52.16763,0c4.04203,0 4.8067,0.87034 4.8067,0.87034c0,0 1.77882,3.04369 1.77882,3.9356c0,2.70741 0,11.13178 0,15.85609c0,0.9859 -1.54953,3.08846 -1.54953,3.08846c0,0 -1.17022,0.87034 -4.00296,0.87034c-7.47897,0 -41.54837,0 -54.23368,0c-2.97821,0 -3.98344,-1.10906 -3.98344,-1.10906z" fill="#000000" stroke-width="NaN"/><text transform="translate(212.63163,129.14844) scale(0.35976,0.35976)" font-size="40" xml:space="preserve" fill="#ffffff" fill-rule="nonzero" stroke="none" stroke-width="1" stroke-linecap="butt" stroke-linejoin="miter" stroke-miterlimit="10" stroke-dasharray="" stroke-dashoffset="0" font-family="Serif" font-weight="normal" text-anchor="start" style="mix-blend-mode: normal"><tspan x="0" dy="0">Back</tspan></text></g></g></svg>