<svg version="1.1" xmlns="http://www.w3.org/2000/svg" xmlns:xlink="http://www.w3.org/1999/xlink" width="64.56391" height="97.1041" viewBox="0,0,64.56391,97.1041"><defs><linearGradient x1="227.081" y1="118.62274" x2="227.081" y2="189.27051" gradientUnits="userSpaceOnUse" id="color-1"><stop offset="0" stop-color="#000000"/><stop offset="1" stop-color="#ffffff"/></linearGradient><linearGradient x1="226.8379" y1="149.41447" x2="226.8379" y2="167.81251" gradientUnits="userSpaceOnUse" id="color-2"><stop offset="0" stop-color="#000000"/><stop offset="1" stop-color="#ffffff"/></linearGradient></defs><g transform="translate(-195.13356,-112.52092)"><g data-paper-data="{&quot;isPaintingLayer&quot;:true}" fill-rule="nonzero" stroke="none" stroke-linecap="butt" stroke-linejoin="miter" stroke-miterlimit="10" stroke-dasharray="" stroke-dashoffset="0" style="mix-blend-mode: normal"><path d="M196.16659,208.0755c0,0 -1.03303,-0.3546 -1.03303,-3.61558c0,-17.54096 0,-74.34125 0,-85.22435c0,-3.51768 1.03303,-4.6486 1.03303,-4.6486c0,0 1.83069,-2.06604 4.77773,-2.06604c7.24423,0 38.39942,0 52.16763,0c4.04203,0 5.03599,1.54953 5.03599,1.54953c0,0 1.54953,1.64744 1.54953,5.16512c0,10.67799 0,65.55872 0,84.19132c0,3.88837 -1.54953,4.6486 -1.54953,4.6486c0,0 -1.17022,1.54953 -4.00296,1.54953c-7.47897,0 -41.54837,0 -54.23368,0c-2.97821,0 -3.74471,-1.54953 -3.74471,-1.54953z" fill="#000000" stroke-width="NaN"/><path d="M200.08312,188.14315c0,0 -0.89249,-0.25798 -0.89249,-2.6305c0,-12.76187 0,-54.08673 0,-62.00469c0,-2.55928 0.89249,-3.38208 0.89249,-3.38208c0,0 1.58165,-1.50314 4.12778,-1.50314c6.25874,0 33.17563,0 45.07083,0c3.49216,0 4.3509,1.12736 4.3509,1.12736c0,0 1.33874,1.19859 1.33874,3.75786c0,7.76873 0,47.69703 0,61.25312c0,2.82897 -1.33874,3.38207 -1.33874,3.38207c0,0 -1.01103,1.12736 -3.4584,1.12736c-6.46154,0 -35.8962,0 -46.85582,0c-2.57306,0 -3.23528,-1.12736 -3.23528,-1.12736z" fill="url(#color-1)" stroke-width="NaN"/><text transform="translate(212.85874,203.86369) scale(0.34481,0.34481)" font-size="40" xml:space="preserve" fill="#ffffff" fill-rule="nonzero" stroke="none" stroke-width="1" stroke-linecap="butt" stroke-linejoin="miter" stroke-miterlimit="10" stroke-dasharray="" stroke-dashoffset="0" font-family="Serif" font-weight="normal" text-anchor="start" style="mix-blend-mode: normal"><tspan x="0" dy="0">Rock</tspan></text><path d="M243.93545,156.79471c0,1.74192 2.09032,4.38994 1.92977,5.40663c-0.51968,3.29084 -3.81596,1.9736 -3.81596,1.9736h-2.48349c-3.37612,0 -6.40567,0.79753 -9.70348,2.37404c-5.87879,2.81036 -12.30966,0.05529 -18.23573,0.05529c0,0 -4.08159,3.07355 -4.08159,-4.30668c0,-7.38023 4.08159,-10.45378 4.08159,-10.45378c3.2599,0 4.94725,-4.77282 8.35669,-4.48241c2.6064,0.22201 6.94911,5.77522 9.41811,4.5377c2.91326,-1.46017 3.45896,-0.47163 6.36372,-0.67354c0.52899,-0.03677 3.2588,-1.81109 3.80068,-1.81109l1.16625,0.87816c0,0 1.31748,-1.31724 1.75026,2.99106c0.08505,0.84669 1.45317,2.29884 1.45317,3.51101z" fill="url(#color-2)" stroke-width="0.5"/></g></g></svg>