<svg version="1.1" xmlns="http://www.w3.org/2000/svg" xmlns:xlink="http://www.w3.org/1999/xlink" width="89.73289" height="134.95826" viewBox="0,0,89.73289,134.95826"><defs><linearGradient x1="240" y1="118.62273" x2="240" y2="221.99501" gradientUnits="userSpaceOnUse" id="color-1"><stop offset="0" stop-color="#000000"/><stop offset="1" stop-color="#ffffff"/></linearGradient><linearGradient x1="240.24068" y1="164.69517" x2="240.24068" y2="199.17654" gradientUnits="userSpaceOnUse" id="color-2"><stop offset="0" stop-color="#000000"/><stop offset="1" stop-color="#ffffff"/></linearGradient></defs><g transform="translate(-195.13356,-112.52089)"><g data-paper-data="{&quot;isPaintingLayer&quot;:true}" fill-rule="nonzero" stroke="none" stroke-linecap="butt" stroke-linejoin="miter" stroke-miterlimit="10" stroke-dasharray="" stroke-dashoffset="0" style="mix-blend-mode: normal"><path d="M196.56929,245.32556c0,0 -1.43573,-0.49283 -1.43573,-5.02504c0,-24.37896 0,-103.32174 0,-118.4474c0,-4.88898 1.43573,-6.46077 1.43573,-6.46077c0,0 2.54435,-2.87145 6.64023,-2.87145c10.06825,0 53.36869,0 72.50417,0c5.61773,0 6.99917,2.15359 6.99917,2.15359c0,0 2.15359,2.28966 2.15359,7.17864c0,14.84059 0,91.11551 0,117.01167c0,5.40418 -2.15359,6.46077 -2.15359,6.46077c0,0 -1.62641,2.15359 -5.56344,2.15359c-10.3945,0 -57.74519,0 -75.37562,0c-4.13921,0 -5.20451,-2.15359 -5.20451,-2.15359z" fill="#000000" stroke-width="NaN"/><path d="M200.49653,220.34545c0,0 -1.3059,-0.37748 -1.3059,-3.84896c0,-18.67325 0,-79.14006 0,-90.72567c0,-3.74475 1.3059,-4.94868 1.3059,-4.94868c0,0 2.31428,-2.19941 6.03979,-2.19941c9.15783,0 48.5428,0 65.94794,0c5.10975,0 6.36626,1.64956 6.36626,1.64956c0,0 1.95885,1.75379 1.95885,5.49853c0,11.36726 0,69.7906 0,89.62596c0,4.13937 -1.95885,4.94867 -1.95885,4.94867c0,0 -1.47935,1.64956 -5.06036,1.64956c-9.45457,0 -52.52356,0 -68.55974,0c-3.76492,0 -4.73389,-1.64956 -4.73389,-1.64956z" fill="url(#color-1)" stroke-width="NaN"/><text transform="translate(218.89161,238.85502) scale(0.5,0.5)" font-size="40" xml:space="preserve" fill="#ffffff" fill-rule="nonzero" stroke="none" stroke-width="1" stroke-linecap="butt" stroke-linejoin="miter" stroke-miterlimit="10" stroke-dasharray="" stroke-dashoffset="0" font-family="Serif" font-weight="normal" text-anchor="start" style="mix-blend-mode: normal"><tspan x="0" dy="0">Rock</tspan></text><path d="M272.28468,178.52711c0,3.26469 3.91765,8.22758 3.61675,10.13304c-0.97397,6.16765 -7.15183,3.6989 -7.15183,3.6989h-4.65452c-6.32748,0 -12.00542,1.49473 -18.18614,4.4494c-11.01796,5.26715 -23.07062,0.10363 -34.17718,0.10363c0,0 -7.64966,5.76041 -7.64966,-8.07153c0,-13.83194 7.64966,-19.59235 7.64966,-19.59235c6.10967,0 9.27208,-8.94516 15.66201,-8.40087c4.88488,0.41609 13.02394,10.82385 17.65131,8.5045c5.45999,-2.73664 6.48274,-0.88393 11.92681,-1.26234c0.99143,-0.06891 6.10761,-3.39432 7.12318,-3.39432l2.18578,1.64583c0,0 2.4692,-2.46875 3.28031,5.6058c0.1594,1.58685 2.72352,4.30846 2.72352,6.5803z" fill="url(#color-2)" stroke-width="0.5"/></g></g></svg>