<svg version="1.1" xmlns="http://www.w3.org/2000/svg" xmlns:xlink="http://www.w3.org/1999/xlink" width="111.51726" height="148.31498" viewBox="0,0,111.51726,148.31498"><g transform="translate(-187.23274,-91.05)"><g data-paper-data="{&quot;isPaintingLayer&quot;:true}" fill="none" fill-rule="nonzero" stroke="#000000" stroke-width="2.5" stroke-linejoin="miter" stroke-miterlimit="10" stroke-dasharray="" stroke-dashoffset="0" style="mix-blend-mode: normal"><path d="M190.50001,238.11498l-2,-145.81497h109" stroke-linecap="round"/><path d="M241.02501,92.30001v41.22907" stroke-linecap="round"/><path d="M256.22325,150.00926c0,8.39375 -6.80448,15.19824 -15.19824,15.19824c-8.39375,0 -15.19824,-6.80448 -15.19824,-15.19824c0,-8.39375 6.80449,-15.19824 15.19824,-15.19824c8.39375,0 15.19824,6.80449 15.19824,15.19824z" stroke-linecap="butt"/><path d="M220.86344,233.92996l20.48458,-18.50221l0.66079,-46.2555c0,0 -6.23367,7.5234 -9.39599,11.33999c-3.22415,3.89121 4.10965,-13.32236 4.10965,-13.32236" stroke-linecap="round"/><path d="M241.34802,215.42776l22.46696,13.87666" stroke-linecap="round"/></g></g></svg>