<svg version="1.1" xmlns="http://www.w3.org/2000/svg" xmlns:xlink="http://www.w3.org/1999/xlink" width="386.99999" height="76.41936" viewBox="0,0,386.99999,76.41936"><defs><linearGradient x1="50.14166" y1="171.95699" x2="50.14166" y2="188.04301" gradientUnits="userSpaceOnUse" id="color-1"><stop offset="0" stop-color="#ffffff" stop-opacity="0"/><stop offset="1" stop-color="#ffffff"/></linearGradient><linearGradient x1="105.14166" y1="171.95699" x2="105.14166" y2="188.04301" gradientUnits="userSpaceOnUse" id="color-2"><stop offset="0" stop-color="#ffffff" stop-opacity="0"/><stop offset="1" stop-color="#ffffff"/></linearGradient><linearGradient x1="161.47499" y1="171.95699" x2="161.47499" y2="188.04301" gradientUnits="userSpaceOnUse" id="color-3"><stop offset="0" stop-color="#ffffff" stop-opacity="0"/><stop offset="1" stop-color="#ffffff"/></linearGradient><linearGradient x1="218.14166" y1="171.95699" x2="218.14166" y2="188.04301" gradientUnits="userSpaceOnUse" id="color-4"><stop offset="0" stop-color="#ffffff" stop-opacity="0"/><stop offset="1" stop-color="#ffffff"/></linearGradient><linearGradient x1="275.47499" y1="171.95699" x2="275.47499" y2="188.04301" gradientUnits="userSpaceOnUse" id="color-5"><stop offset="0" stop-color="#ffffff" stop-opacity="0"/><stop offset="1" stop-color="#ffffff"/></linearGradient><linearGradient x1="332.80832" y1="171.95699" x2="332.80832" y2="188.04301" gradientUnits="userSpaceOnUse" id="color-6"><stop offset="0" stop-color="#ffffff" stop-opacity="0"/><stop offset="1" stop-color="#ffffff"/></linearGradient><linearGradient x1="391.80832" y1="171.95699" x2="391.80832" y2="188.04301" gradientUnits="userSpaceOnUse" id="color-7"><stop offset="0" stop-color="#ffffff" stop-opacity="0"/><stop offset="1" stop-color="#ffffff"/></linearGradient><linearGradient x1="50.14166" y1="232.29032" x2="50.14166" y2="248.37634" gradientUnits="userSpaceOnUse" id="color-8"><stop offset="0" stop-color="#ffffff" stop-opacity="0"/><stop offset="1" stop-color="#ffffff"/></linearGradient><linearGradient x1="105.14166" y1="232.29033" x2="105.14166" y2="248.37635" gradientUnits="userSpaceOnUse" id="color-9"><stop offset="0" stop-color="#ffffff" stop-opacity="0"/><stop offset="1" stop-color="#ffffff"/></linearGradient></defs><g transform="translate(-27.47499,-171.95699)"><g data-paper-data="{&quot;isPaintingLayer&quot;:true}" fill-rule="nonzero" stroke="none" stroke-width="0" stroke-linecap="butt" stroke-linejoin="miter" stroke-miterlimit="10" stroke-dasharray="" stroke-dashoffset="0" style="mix-blend-mode: normal"><path d="M27.47499,188.04301v-16.08602h45.33333v16.08602z" fill="url(#color-1)"/><path d="M82.47499,188.04301v-16.08602h45.33333v16.08602z" fill="url(#color-2)"/><path d="M138.80832,188.04301v-16.08602h45.33333v16.08602z" fill="url(#color-3)"/><path d="M195.47499,188.04301v-16.08602h45.33333v16.08602z" fill="url(#color-4)"/><path d="M252.80832,188.04301v-16.08602h45.33333v16.08602z" fill="url(#color-5)"/><path d="M310.14165,188.04301v-16.08602h45.33333v16.08602z" fill="url(#color-6)"/><path d="M369.14165,188.04301v-16.08602h45.33333v16.08602z" fill="url(#color-7)"/><path d="M27.47499,248.37634v-16.08602h45.33333v16.08602z" fill="url(#color-8)"/><path d="M82.47499,248.37635v-16.08602h45.33333v16.08602z" fill="url(#color-9)"/></g></g></svg>