<svg version="1.1" xmlns="http://www.w3.org/2000/svg" xmlns:xlink="http://www.w3.org/1999/xlink" width="465.02245" height="333.49524" viewBox="0,0,465.02245,333.49524"><g transform="translate(-8.31802,-19.84188)"><g data-paper-data="{&quot;isPaintingLayer&quot;:true}" fill-rule="nonzero" stroke="none" stroke-linecap="butt" stroke-linejoin="miter" stroke-miterlimit="10" stroke-dasharray="" stroke-dashoffset="0" style="mix-blend-mode: normal"><path d="M130.70765,133.50635c0,0 -4.93399,-9.01405 -4.93399,-13.91485c0,-22.32482 0,-66.88189 0,-79.61579c0,-4.37115 7.01749,-12.54843 7.01749,-12.54843c0,0 5.40795,-5.25388 17.57765,-5.25388c26.85937,0 132.34409,0 180.1181,0c14.54406,0 17.74979,5.3213 17.74979,5.3213c0,0 2.41638,2.09484 4.01154,5.31586c1.38473,2.79609 1.97812,6.61332 1.97812,8.50224c0,12.32144 0,57.23657 0,80.08096c0,5.14039 -7.96182,10.98001 -7.96182,10.98001c0,0 -3.23944,4.25162 -14.49414,4.25162c-26.2842,0 -134.51096,0 -182.68511,0c-14.30247,0 -18.37762,-3.11904 -18.37762,-3.11904z" fill="#ff3100" stroke-width="NaN"/><text transform="translate(167.9017,67.30666) scale(1.20164,1.20164)" font-size="40" xml:space="preserve" fill="#ffffff" fill-rule="nonzero" stroke="none" stroke-width="1" stroke-linecap="butt" stroke-linejoin="miter" stroke-miterlimit="10" stroke-dasharray="" stroke-dashoffset="0" font-family="&quot;SourceCodePro-VariableFont_wght&quot;, Sans Serif" font-weight="normal" text-anchor="start" style="mix-blend-mode: normal"><tspan x="0" dy="0">1-2-1</tspan></text><text transform="translate(144.00007,99.32034) scale(0.5,0.5)" font-size="40" xml:space="preserve" fill="#ffffff" fill-rule="nonzero" stroke="none" stroke-width="1" stroke-linecap="butt" stroke-linejoin="miter" stroke-miterlimit="10" stroke-dasharray="" stroke-dashoffset="0" font-family="&quot;SourceCodePro-VariableFont_wght&quot;, Sans Serif" font-weight="normal" text-anchor="start" style="mix-blend-mode: normal"><tspan x="0" dy="0">Your average 3x3</tspan><tspan x="0" dy="46.15px">Tic-Tac-Toe Game</tspan></text><path d="M383.67568,351.3548c0,0 -1.97928,-5.72887 -1.97928,-8.84357c0,-14.18852 0,-42.50674 0,-50.59976c0,-2.77808 2.81507,-7.97515 2.81507,-7.97515c0,0 2.16941,-3.3391 7.0513,-3.3391c10.77467,0 53.08999,0 72.25459,0c5.83437,0 7.12035,3.38195 7.12035,3.38195c0,0 0.96933,1.33138 1.60924,3.37849c0.55548,1.77705 0.79352,4.20309 0.79352,5.40359c0,7.83088 0,36.37666 0,50.8954c0,3.26697 -3.1939,6.97834 -3.1939,6.97834c0,0 -1.2995,2.70211 -5.81434,2.70211c-10.54394,0 -53.95924,0 -73.28435,0c-5.73745,0 -7.3722,-1.9823 -7.3722,-1.9823z" fill="#ff3100" stroke-width="NaN"/><text transform="translate(394.74786,297.27494) scale(0.34136,0.34136)" font-size="40" xml:space="preserve" fill="#ffffff" fill-rule="nonzero" stroke="none" stroke-width="1" stroke-linecap="butt" stroke-linejoin="miter" stroke-miterlimit="10" stroke-dasharray="" stroke-dashoffset="0" font-family="&quot;SourceCodePro-VariableFont_wght&quot;, Sans Serif" font-weight="normal" text-anchor="start" style="mix-blend-mode: normal"><tspan x="0" dy="0">Made by</tspan><tspan x="0" dy="46.15px">Kenzie</tspan><tspan x="0" dy="46.15px">Shane </tspan><tspan x="0" dy="46.15px">Setiawan</tspan></text><path d="M10.2973,351.35481c0,0 -1.97928,-5.72887 -1.97928,-8.84357c0,-14.18853 0,-42.50674 0,-50.59976c0,-2.77808 2.81508,-7.97514 2.81508,-7.97514c0,0 2.1694,-3.3391 7.05129,-3.3391c10.77467,0 53.08999,0 72.25459,0c5.83437,0 7.12035,3.38195 7.12035,3.38195c0,0 0.96934,1.33137 1.60924,3.37849c0.55548,1.77706 0.79352,4.20309 0.79352,5.40359c0,7.83089 0,36.37667 0,50.8954c0,3.26697 -3.19389,6.97834 -3.19389,6.97834c0,0 -1.29951,2.70211 -5.81434,2.70211c-10.54393,0 -53.95924,0 -73.28436,0c-5.73745,0 -7.3722,-1.9823 -7.3722,-1.9823z" fill="#ff3100" stroke-width="NaN"/><text transform="translate(21.36952,305.15184) scale(0.34136,0.34136)" font-size="40" xml:space="preserve" fill="#ffffff" fill-rule="nonzero" stroke="none" stroke-width="1" stroke-linecap="butt" stroke-linejoin="miter" stroke-miterlimit="10" stroke-dasharray="" stroke-dashoffset="0" font-family="&quot;SourceCodePro-VariableFont_wght&quot;, Sans Serif" font-weight="normal" text-anchor="start" style="mix-blend-mode: normal"><tspan x="0" dy="0">KSOS</tspan><tspan x="0" dy="46.15px">CLASSIC </tspan><tspan x="0" dy="46.15px">GAMES</tspan></text><text transform="translate(144.00006,155.42968) scale(0.33334,0.33334)" font-size="40" xml:space="preserve" fill="#ffffff" fill-rule="nonzero" stroke="none" stroke-width="1" stroke-linecap="butt" stroke-linejoin="miter" stroke-miterlimit="10" stroke-dasharray="" stroke-dashoffset="0" font-family="&quot;SourceCodePro-VariableFont_wght&quot;, Sans Serif" font-weight="normal" text-anchor="start" style="mix-blend-mode: normal"><tspan x="0" dy="0">Made on 17th August 2024</tspan></text></g></g></svg>