<svg version="1.1" xmlns="http://www.w3.org/2000/svg" xmlns:xlink="http://www.w3.org/1999/xlink" width="61.49043" height="63.14419" viewBox="0,0,61.49043,63.14419"><g transform="translate(-148.96199,-281.19236)"><g data-paper-data="{&quot;isPaintingLayer&quot;:true}" fill-rule="nonzero" stroke-linecap="butt" stroke-linejoin="miter" stroke-miterlimit="10" stroke-dasharray="" stroke-dashoffset="0" style="mix-blend-mode: normal"><path d="M148.96199,342.96258v-61.77022h61.49043v61.77022z" fill="#b9b9b9" stroke="none" stroke-width="0"/><path d="M152.01738,312.52464c0,-15.38262 12.47008,-27.8527 27.8527,-27.8527c15.38262,0 27.8527,12.47008 27.8527,27.8527c0,15.38262 -12.47008,27.8527 -27.8527,27.8527c-15.38262,0 -27.8527,-12.47008 -27.8527,-27.8527z" fill="none" stroke="#000000" stroke-width="2.5"/><path d="M163.07186,324.07219l26.78496,-26.78496l5.60208,5.60208l-26.78496,26.78496z" fill="#000000" stroke="#000000" stroke-width="0.5"/><path d="M190.03189,329.56766l-26.78496,-26.78496l5.60209,-5.60209l26.78496,26.78496z" fill="#000000" stroke="#000000" stroke-width="0.5"/><path d="M159.44483,343.3483v-20.5491h41.0982v20.5491z" fill-opacity="0.49804" fill="#000000" stroke="none" stroke-width="0"/><text transform="translate(163.80826,339.32743) scale(0.40074,0.40073)" font-size="40" xml:space="preserve" fill="#ffffff" fill-rule="nonzero" stroke="none" stroke-width="1" stroke-linecap="butt" stroke-linejoin="miter" stroke-miterlimit="10" stroke-dasharray="" stroke-dashoffset="0" font-family="&quot;OpenSans-Bold&quot;, Sans Serif" font-weight="normal" text-anchor="start" style="mix-blend-mode: normal"><tspan x="0" dy="0">Exit</tspan></text></g></g></svg>