<svg version="1.1" xmlns="http://www.w3.org/2000/svg" xmlns:xlink="http://www.w3.org/1999/xlink" width="151.65361" height="77.27722" viewBox="0,0,151.65361,77.27722"><g transform="translate(-104.17319,-281.22278)"><g data-paper-data="{&quot;isPaintingLayer&quot;:true}" fill-rule="nonzero" stroke-linecap="butt" stroke-linejoin="miter" stroke-miterlimit="10" stroke-dasharray="" stroke-dashoffset="0" style="mix-blend-mode: normal"><path d="M104.17319,358.5v-77h151.65361v77z" fill="#636363" stroke="none" stroke-width="0"/><text transform="translate(179.35207,329.49376) scale(1.1046,1.1046)" font-size="40" xml:space="preserve" fill="#ffffff" fill-rule="nonzero" stroke="none" stroke-width="1" stroke-linecap="butt" stroke-linejoin="miter" stroke-miterlimit="10" stroke-dasharray="" stroke-dashoffset="0" font-family="&quot;OpenSans-Medium&quot;, Sans Serif" font-weight="normal" text-anchor="start" style="mix-blend-mode: normal"><tspan x="0" dy="0">FPS</tspan></text><path d="M108.47381,327.84647c0,-13.93331 11.29518,-25.2285 25.2285,-25.2285c13.93331,0 25.2285,11.29518 25.2285,25.2285c0,13.93331 -11.29518,25.2285 -25.2285,25.2285c-13.93331,0 -25.2285,-11.29518 -25.2285,-25.2285z" fill-opacity="0.40392" fill="#bf0000" stroke="#ff0000" stroke-width="3"/><path d="M115.6062,320.40483c0,-13.93331 11.29518,-25.2285 25.2285,-25.2285c13.93331,0 25.2285,11.29518 25.2285,25.2285c0,13.93331 -11.29518,25.2285 -25.2285,25.2285c-13.93331,0 -25.2285,-11.29518 -25.2285,-25.2285z" fill-opacity="0.40392" fill="#bf6f00" stroke="#ffad00" stroke-width="3"/><path d="M123.00848,312.15353c0,-13.93331 11.29518,-25.2285 25.2285,-25.2285c13.93331,0 25.2285,11.29518 25.2285,25.2285c0,13.93331 -11.29518,25.2285 -25.2285,25.2285c-13.93331,0 -25.2285,-11.29518 -25.2285,-25.2285z" fill-opacity="0.40392" fill="#1fbf00" stroke="#10ff00" stroke-width="3"/><text transform="translate(175.66143,348.74894) scale(0.5,0.5)" font-size="40" xml:space="preserve" fill="#000000" fill-rule="nonzero" stroke="none" stroke-width="1" stroke-linecap="butt" stroke-linejoin="miter" stroke-miterlimit="10" stroke-dasharray="" stroke-dashoffset="0" font-family="&quot;OpenSans-ExtraBold&quot;, Sans Serif" font-weight="normal" text-anchor="start" style="mix-blend-mode: normal"><tspan x="0" dy="0">&amp;Speed</tspan></text></g></g></svg>