<svg version="1.1" xmlns="http://www.w3.org/2000/svg" xmlns:xlink="http://www.w3.org/1999/xlink" width="44.77958" height="44.77958" viewBox="0,0,44.77958,44.77958"><g transform="translate(-297.61021,-157.61021)"><g data-paper-data="{&quot;isPaintingLayer&quot;:true}" stroke="none" stroke-linecap="butt" stroke-linejoin="miter" stroke-miterlimit="10" stroke-dasharray="" stroke-dashoffset="0" style="mix-blend-mode: normal"><path d="M297.61021,202.38979v-44.77958h44.77958v44.77958z" fill-opacity="0.30588" fill="#000000" fill-rule="nonzero" stroke-width="0"/><path d="M303.88261,190.77614c2.75466,-1.22517 11.18917,-3.55745 11.58532,-6.92863c0.0892,-0.76081 -1.70527,-3.66239 -2.11715,-5.05284c-0.88149,-1.40357 -1.19631,-3.63353 -0.23349,-5.1158c0.38303,-0.59028 0.22037,-2.73892 0.22037,-3.54958c0,-8.07247 14.14584,-8.07509 14.14584,0c0,1.02054 -0.23611,2.89633 0.32007,3.69912c0.92871,1.34323 0.44862,3.72273 -0.33318,4.96626c-0.50109,1.46128 -2.40836,4.22644 -2.24571,5.05284c0.60603,3.07997 8.42926,5.14991 10.89272,6.2439v5.83201l-32.23479,0.00262z" fill="#ffffff" fill-rule="evenodd" stroke-width="1"/></g></g></svg>