<svg version="1.1" xmlns="http://www.w3.org/2000/svg" xmlns:xlink="http://www.w3.org/1999/xlink" width="381.03132" height="662.82206" viewBox="0,0,381.03132,662.82206"><defs><linearGradient x1="178.97499" y1="458.30624" x2="178.97499" y2="475.30624" gradientUnits="userSpaceOnUse" id="color-1"><stop offset="0" stop-color="#ffffff" stop-opacity="0.46667"/><stop offset="1" stop-color="#969696"/></linearGradient><linearGradient x1="178.97499" y1="458.30624" x2="178.97499" y2="475.30624" gradientUnits="userSpaceOnUse" id="color-2"><stop offset="0" stop-color="#ffffff"/><stop offset="1" stop-color="#ffffff" stop-opacity="0"/></linearGradient></defs><g transform="translate(10.51566,11.41103)"><g data-paper-data="{&quot;isPaintingLayer&quot;:true}" fill-rule="nonzero" stroke-linecap="butt" stroke-linejoin="miter" stroke-miterlimit="10" stroke-dasharray="" stroke-dashoffset="0" style="mix-blend-mode: normal"><path d="M-10.51566,-10.75013l379.87931,-0.6609l1.15201,662.16116l-379.87931,0.6609z" fill="#000000" stroke="none" stroke-width="NaN"/><text transform="translate(12.46399,82.2611) scale(1.66083,1.66083)" font-size="40" xml:space="preserve" fill="#ffffff" fill-rule="nonzero" stroke="none" stroke-width="1" stroke-linecap="butt" stroke-linejoin="miter" stroke-miterlimit="10" stroke-dasharray="" stroke-dashoffset="0" font-family="&quot;Open Sans Light&quot;, Sans Serif" font-weight="normal" text-anchor="start" style="mix-blend-mode: normal"><tspan x="0" dy="0">About</tspan></text><text transform="translate(47.63492,204.25956) scale(1.70224,1.70224)" font-size="40" xml:space="preserve" fill="#ffffff" fill-rule="nonzero" stroke="none" stroke-width="1" stroke-linecap="butt" stroke-linejoin="miter" stroke-miterlimit="10" stroke-dasharray="" stroke-dashoffset="0" font-family="&quot;ModernSans-Light&quot;, Sans Serif" font-weight="normal" text-anchor="start" style="mix-blend-mode: normal"><tspan x="0" dy="0">KSOS 1.0</tspan></text><text transform="translate(9.97499,273.30624) scale(0.5,0.5)" font-size="40" xml:space="preserve" fill="#ffffff" fill-rule="nonzero" stroke="none" stroke-width="1" stroke-linecap="butt" stroke-linejoin="miter" stroke-miterlimit="10" stroke-dasharray="" stroke-dashoffset="0" font-family="&quot;Open Sans Light&quot;, Sans Serif" font-weight="normal" text-anchor="start" style="mix-blend-mode: normal"><tspan x="0" dy="0">Previous version: KSOSR alpha 1.0.1</tspan><tspan x="0" dy="46.150000000000006px">Last updated on 6th July of 2024.</tspan><tspan x="0" dy="46.150000000000006px"> </tspan><tspan x="0" dy="46.150000000000006px">Version number:1.0.1-beta</tspan><tspan x="0" dy="46.150000000000006px">Based on Codename:DVORAK.</tspan><tspan x="0" dy="46.150000000000006px"> </tspan><tspan x="0" dy="46.150000000000006px">Work in progress.</tspan><tspan x="0" dy="46.150000000000006px">This is the DVORAK variant.</tspan></text><g><path d="M256.8375,63.12981c0,-18.96177 15.37156,-34.33333 34.33333,-34.33333c18.96177,0 34.33333,15.37156 34.33333,34.33333c0,18.96177 -15.37156,34.33334 -34.33333,34.33334c-18.96177,0 -34.33333,-15.37156 -34.33333,-34.33334z" fill="none" stroke="#a5a5a5" stroke-width="2"/><path d="M241.97499,95.30625v-65h14v65z" fill="#ffffff" stroke="none" stroke-width="0"/><path d="M249.8375,61.79648v-7h21.33334v7z" fill="#ffffff" stroke="none" stroke-width="0"/><path d="M270.17084,55.46315v-24.66667h11.66666v24.66667z" fill="#ffffff" stroke="none" stroke-width="0"/><path d="M270.17084,94.46315v-32.66667h19.66666v32.66667z" fill="#ffffff" stroke="none" stroke-width="0"/><path d="M302.8375,44.1298v-10.33334h37.66667v10.33334z" fill="#ffffff" stroke="none" stroke-width="0"/><path d="M296.8375,57.79648v-17.33333h8.66667v17.33333z" fill="#ffffff" stroke="none" stroke-width="0"/><path d="M302.8375,70.12981v-10h36v10z" fill="#ffffff" stroke="none" stroke-width="0"/><path d="M328.17084,92.12981v-22h14v22z" fill="#ffffff" stroke="none" stroke-width="0"/><path d="M310.17084,95.79648v-9h26.33333v9z" fill="#ffffff" stroke="none" stroke-width="0"/><path d="M326.8375,67.46314z" fill="none" stroke="#ffffff" stroke-width="2"/></g><path d="M7.97499,475.30624v-17h342v17z" fill="url(#color-1)" stroke="url(#color-2)" stroke-width="2"/><text transform="translate(6.97499,497.30624) scale(0.5,0.5)" font-size="40" xml:space="preserve" fill-opacity="0.46667" fill="#ffffff" fill-rule="nonzero" stroke="none" stroke-width="1" stroke-linecap="butt" stroke-linejoin="miter" stroke-miterlimit="10" stroke-dasharray="" stroke-dashoffset="0" font-family="&quot;OpenSans-Bold&quot;, Sans Serif" font-weight="normal" text-anchor="start" style="mix-blend-mode: normal"><tspan x="0" dy="0">Live OS - Storage Full</tspan></text></g></g></svg>