<svg version="1.1" xmlns="http://www.w3.org/2000/svg" xmlns:xlink="http://www.w3.org/1999/xlink" width="160.72752" height="105.88778" viewBox="0,0,160.72752,105.88778"><defs><radialGradient cx="186.73322" cy="327.4758" r="76.99724" gradientUnits="userSpaceOnUse" id="color-1"><stop offset="0" stop-color="#000000"/><stop offset="1" stop-color="#000000" stop-opacity="0.25882"/></radialGradient><linearGradient x1="180.00016" y1="270.79401" x2="180.00016" y2="369.206" gradientUnits="userSpaceOnUse" id="color-2"><stop offset="0" stop-color="#ffffff"/><stop offset="1" stop-color="#6f6f6f"/></linearGradient><radialGradient cx="179.74638" cy="319.1097" r="9.90318" gradientUnits="userSpaceOnUse" id="color-3"><stop offset="0" stop-color="#8e8e8e"/><stop offset="1" stop-color="#6d6d6d"/></radialGradient><radialGradient cx="179.99397" cy="298.80817" r="2.5" gradientUnits="userSpaceOnUse" id="color-4"><stop offset="0" stop-color="#8e8e8e"/><stop offset="1" stop-color="#6d6d6d"/></radialGradient><radialGradient cx="179.99397" cy="311.41054" r="27.23375" gradientUnits="userSpaceOnUse" id="color-5"><stop offset="0" stop-color="#8e8e8e"/><stop offset="1" stop-color="#6d6d6d"/></radialGradient></defs><g transform="translate(-103.00292,-270.79401)"><g data-paper-data="{&quot;isPaintingLayer&quot;:true}" fill-rule="nonzero" stroke-linejoin="miter" stroke-miterlimit="10" stroke-dasharray="" stroke-dashoffset="0" style="mix-blend-mode: normal"><path d="M109.73598,376.68179v-98.41199h153.99447v98.41199z" fill="url(#color-1)" stroke="none" stroke-width="0" stroke-linecap="butt"/><path d="M103.00293,369.206v-98.41199h153.99447v98.41199z" fill="url(#color-2)" stroke="none" stroke-width="0" stroke-linecap="butt"/><text transform="translate(154.07477,359.38137) scale(0.40074,0.40073)" font-size="40" xml:space="preserve" fill="#000000" fill-rule="nonzero" stroke="none" stroke-width="1" stroke-linecap="butt" stroke-linejoin="miter" stroke-miterlimit="10" stroke-dasharray="" stroke-dashoffset="0" font-family="&quot;OpenSans-Bold&quot;, Sans Serif" font-weight="normal" text-anchor="start" style="mix-blend-mode: normal"><tspan x="0" dy="0">Lanjut</tspan></text><path d="M179.74638,329.01289v-19.80636" data-paper-data="{&quot;index&quot;:null}" fill="none" stroke="url(#color-3)" stroke-width="5.5" stroke-linecap="round"/><path d="M179.99397,296.30817c1.38071,0 2.5,1.11929 2.5,2.5c0,1.38071 -1.11929,2.5 -2.5,2.5c-1.38071,0 -2.5,-1.11929 -2.5,-2.5c0,-1.38071 1.11929,-2.5 2.5,-2.5z" data-paper-data="{&quot;index&quot;:null}" fill="#000000" stroke="url(#color-4)" stroke-width="0.5" stroke-linecap="butt"/><path d="M152.76022,311.41054c0,-15.04079 12.19297,-27.23375 27.23375,-27.23375c15.04079,0 27.23375,12.19296 27.23375,27.23375c0,15.04079 -12.19296,27.23375 -27.23374,27.23375c-15.04078,0 -27.23375,-12.19297 -27.23375,-27.23375z" fill="none" stroke="url(#color-5)" stroke-width="5.5" stroke-linecap="butt"/></g></g></svg>