<svg version="1.1" xmlns="http://www.w3.org/2000/svg" xmlns:xlink="http://www.w3.org/1999/xlink" width="77.92387" height="81.87468" viewBox="0,0,77.92387,81.87468"><defs><radialGradient cx="154.81985" cy="285.77989" r="38.96194" gradientUnits="userSpaceOnUse" id="color-1"><stop offset="0" stop-color="#008ea1"/><stop offset="1" stop-color="#005661"/></radialGradient></defs><g transform="translate(-141.03806,-273.4379)"><g data-paper-data="{&quot;isPaintingLayer&quot;:true}" fill-rule="nonzero" stroke-linejoin="miter" stroke-miterlimit="10" stroke-dasharray="" stroke-dashoffset="0" style="mix-blend-mode: normal"><path d="M141.03806,352.91467v-75.66519h77.92387v75.66519z" fill="url(#color-1)" stroke="none" stroke-width="0" stroke-linecap="butt"/><path d="M198.1801,347.58669h-43.15059v-53.08978h53.08978v18.42385v20.65902" fill="none" stroke="#ffffff" stroke-width="2.5" stroke-linecap="round"/><path d="M158.66578,341.04137l8.48467,-19.63595h32.24174" fill="none" stroke="#ffffff" stroke-width="2.5" stroke-linecap="round"/><path d="M168.60497,321.16301v-2.42419h7.515v1.93936" fill="none" stroke="#ffffff" stroke-width="1" stroke-linecap="round"/><path d="M178.15241,320.55133v-1.45452h6.30289v1.60006" fill="none" stroke="#ffffff" stroke-width="1" stroke-linecap="round"/><path d="M165.41328,333.49767c0,-3.80675 3.08598,-6.89274 6.89273,-6.89274c3.80675,0 6.89273,3.08598 6.89273,6.89274c0,3.80675 -3.08597,6.89272 -6.89273,6.89272c-3.80675,0 -6.89273,-3.08598 -6.89273,-6.89272z" fill="none" stroke="#ffffff" stroke-width="1" stroke-linecap="butt"/><path d="M184.32255,333.57501c0,-3.80675 3.08598,-6.89273 6.89273,-6.89273c3.80675,0 6.89273,3.08598 6.89273,6.89273c0,3.80675 -3.08598,6.89273 -6.89273,6.89273c-3.80675,0 -6.89273,-3.08598 -6.89273,-6.89273z" fill="none" stroke="#ffffff" stroke-width="1" stroke-linecap="butt"/><path d="M175.937,330.23592l-4.12333,4.12333h-4.92337" fill="none" stroke="#ffffff" stroke-width="1" stroke-linecap="round"/><path d="M188.30699,334.35926h3.56945v3.81562" fill="none" stroke="#ffffff" stroke-width="1" stroke-linecap="round"/><path d="M195.81514,298.54168h-40.74094" fill="none" stroke="#ffffff" stroke-width="2.5" stroke-linecap="round"/><path d="M155.56651,303.58814h30.03261" fill="none" stroke="#ffffff" stroke-width="2.5" stroke-linecap="round"/><path d="M156.79736,309.37311h21.2936" fill="none" stroke="#ffffff" stroke-width="2.5" stroke-linecap="round"/><text transform="translate(199.8204,348.67132) scale(0.5313,0.5313)" font-size="40" xml:space="preserve" fill="#ffffff" fill-rule="nonzero" stroke="none" stroke-width="1" stroke-linecap="butt" stroke-linejoin="miter" stroke-miterlimit="10" stroke-dasharray="" stroke-dashoffset="0" font-family="Sans Serif" font-weight="normal" text-anchor="start" style="mix-blend-mode: normal"><tspan x="0" dy="0">w</tspan></text><text transform="translate(142.72541,296.44368) scale(0.50217,0.50217)" font-size="40" xml:space="preserve" fill="#000000" fill-rule="nonzero" stroke="none" stroke-width="1" stroke-linecap="butt" stroke-linejoin="miter" stroke-miterlimit="10" stroke-dasharray="" stroke-dashoffset="0" font-family="Sans Serif" font-weight="normal" text-anchor="start" style="mix-blend-mode: normal"><tspan x="0" dy="0">1</tspan><tspan x="0" dy="46.15px">0</tspan></text><text transform="translate(141.50904,295.38273) scale(0.50217,0.50217)" font-size="40" xml:space="preserve" fill="#ffffff" fill-rule="nonzero" stroke="none" stroke-width="1" stroke-linecap="butt" stroke-linejoin="miter" stroke-miterlimit="10" stroke-dasharray="" stroke-dashoffset="0" font-family="Sans Serif" font-weight="normal" text-anchor="start" style="mix-blend-mode: normal"><tspan x="0" dy="0">1</tspan><tspan x="0" dy="46.15px">0</tspan></text><path d="M146.41344,300.46896c0,-1.33125 1.0792,-2.41043 2.41043,-2.41043c1.33125,0 2.41043,1.0792 2.41043,2.41043c0,1.33125 -1.0792,2.41043 -2.41043,2.41043c-1.33125,0 -2.41043,-1.0792 -2.41043,-2.41043z" fill="#000000" stroke="none" stroke-width="0" stroke-linecap="butt"/><path d="M145.9203,299.82041c0,-1.33125 1.0792,-2.41043 2.41043,-2.41043c1.33125,0 2.41043,1.0792 2.41043,2.41043c0,1.33125 -1.0792,2.41043 -2.41043,2.41043c-1.33125,0 -2.41043,-1.0792 -2.41043,-2.41043z" fill="#ffffff" stroke="none" stroke-width="0" stroke-linecap="butt"/></g></g></svg>