<svg version="1.1" xmlns="http://www.w3.org/2000/svg" xmlns:xlink="http://www.w3.org/1999/xlink" width="78.22987" height="47.84757" viewBox="0,0,78.22987,47.84757"><defs><radialGradient cx="181.08" cy="299.84157" r="20.82519" gradientUnits="userSpaceOnUse" id="color-1"><stop offset="0" stop-color="#969696"/><stop offset="1" stop-color="#3a3a3a"/></radialGradient><linearGradient x1="180.00001" y1="302.81762" x2="180.00001" y2="337.1824" gradientUnits="userSpaceOnUse" id="color-2"><stop offset="0" stop-color="#b5b5b5"/><stop offset="1" stop-color="#ffffff"/></linearGradient><linearGradient x1="180.00001" y1="302.81762" x2="180.00001" y2="337.1824" gradientUnits="userSpaceOnUse" id="color-3"><stop offset="0" stop-color="#000000"/><stop offset="1" stop-color="#000000" stop-opacity="0"/></linearGradient><linearGradient x1="180.33824" y1="309.71763" x2="180.33824" y2="330.41767" gradientUnits="userSpaceOnUse" id="color-4"><stop offset="0" stop-color="#000000" stop-opacity="0.45098"/><stop offset="1" stop-color="#000000"/></linearGradient><linearGradient x1="180.3647" y1="305.32167" x2="180.3647" y2="334.59594" gradientUnits="userSpaceOnUse" id="color-5"><stop offset="0" stop-color="#000000" stop-opacity="0.45098"/><stop offset="1" stop-color="#000000"/></linearGradient><linearGradient x1="180.41172" y1="306.27324" x2="180.41172" y2="333.64691" gradientUnits="userSpaceOnUse" id="color-6"><stop offset="0" stop-color="#000000" stop-opacity="0.45098"/><stop offset="1" stop-color="#000000"/></linearGradient><linearGradient x1="180.39116" y1="306.50338" x2="180.39116" y2="333.19657" gradientUnits="userSpaceOnUse" id="color-7"><stop offset="0" stop-color="#000000" stop-opacity="0.45098"/><stop offset="1" stop-color="#000000"/></linearGradient></defs><g transform="translate(-126.24808,-299.17482)"><g data-paper-data="{&quot;isPaintingLayer&quot;:true}" fill-rule="nonzero" stroke-linecap="butt" stroke-linejoin="miter" stroke-miterlimit="10" stroke-dasharray="" stroke-dashoffset="0" style="mix-blend-mode: normal"><path d="M159.17482,340.8252v-41.65037h41.65037v41.65037z" fill="url(#color-1)" stroke="none" stroke-width="0"/><path d="M162.81761,320.00001c0,-9.48957 7.69282,-17.18239 17.18239,-17.18239c9.48957,0 17.18239,7.69282 17.18239,17.18239c0,9.48957 -7.69282,17.18239 -17.18239,17.18239c-9.48957,0 -17.18239,-7.69282 -17.18239,-17.18239z" fill="url(#color-2)" stroke="url(#color-3)" stroke-width="2.5"/><path d="M169.98823,330.41767v-20.70004h20.70004v20.70004z" fill="none" stroke="url(#color-4)" stroke-width="2.5"/><path d="M165.72757,319.95881l14.63714,-14.63714l14.63714,14.63714l-14.63714,14.63714z" fill="none" stroke="url(#color-5)" stroke-width="2.5"/><path d="M175.22363,333.64691l-8.49874,-18.87494l18.87494,-8.49874l8.49874,18.87494z" fill="none" stroke="url(#color-6)" stroke-width="2.5"/><path d="M167.04457,325.85949l7.33708,-19.35611l19.35611,7.33708l-7.33708,19.35611z" fill="none" stroke="url(#color-7)" stroke-width="2.5"/><text transform="translate(126.72581,342.72285) scale(0.31849,0.31849)" font-size="40" xml:space="preserve" fill="#ffffff" fill-rule="nonzero" stroke="#000000" stroke-width="3" stroke-linecap="butt" stroke-linejoin="miter" stroke-miterlimit="10" stroke-dasharray="" stroke-dashoffset="0" font-family="&quot;OpenSans-ExtraBold&quot;, Sans Serif" font-weight="normal" text-anchor="start" style="mix-blend-mode: normal"><tspan x="0" dy="0">Pengaturan</tspan></text></g></g></svg>