<svg version="1.1" xmlns="http://www.w3.org/2000/svg" xmlns:xlink="http://www.w3.org/1999/xlink" width="105.19454" height="105.19454" viewBox="0,0,105.19454,105.19454"><defs><linearGradient x1="127.40273" y1="320" x2="232.59727" y2="320" gradientUnits="userSpaceOnUse" id="color-1"><stop offset="0" stop-color="#000000" stop-opacity="0.30588"/><stop offset="1" stop-color="#000000"/></linearGradient><linearGradient x1="180.00002" y1="286.2298" x2="180.00002" y2="342.66789" gradientUnits="userSpaceOnUse" id="color-2"><stop offset="0" stop-color="#00ffff"/><stop offset="1" stop-color="#ff00e5"/></linearGradient></defs><g transform="translate(-127.40273,-267.40273)"><g data-paper-data="{&quot;isPaintingLayer&quot;:true}" fill-rule="nonzero" stroke-linejoin="miter" stroke-miterlimit="10" stroke-dasharray="" stroke-dashoffset="0" style="mix-blend-mode: normal"><path d="M127.40273,372.59727v-105.19454h105.19454v105.19454z" fill="url(#color-1)" stroke="none" stroke-width="0" stroke-linecap="butt"/><text transform="translate(131.77588,361.33841) scale(0.36775,0.36774)" font-size="40" xml:space="preserve" fill="#ffffff" fill-rule="nonzero" stroke="none" stroke-width="1" stroke-linecap="butt" stroke-linejoin="miter" stroke-miterlimit="10" stroke-dasharray="" stroke-dashoffset="0" font-family="&quot;Open Sans Light&quot;, Sans Serif" font-weight="normal" text-anchor="start" style="mix-blend-mode: normal"><tspan x="0" dy="0">Latar Belakang</tspan></text><path d="M160.50421,342.66789v-56.43808h38.99161v56.43808z" fill="url(#color-2)" stroke="none" stroke-width="0" stroke-linecap="butt"/><path d="M160.16456,342.05872l10.30928,-15.46391l9.11975,11.1023l11.1023,-4.36162l8.32673,8.72323z" fill="#ffffff" stroke="#ffffff" stroke-width="2.5" stroke-linecap="round"/><path d="M194.66099,299.03731c0,3.83227 -2.92914,6.93894 -6.54243,6.93894c-3.61328,0 -6.54243,-3.10667 -6.54243,-6.93894c0,-3.83227 2.92915,-6.93894 6.54243,-6.93894c3.61328,0 6.54243,3.10667 6.54243,6.93894z" fill="#ffffff" stroke="#ffffff" stroke-width="2.5" stroke-linecap="butt"/></g></g></svg>