<svg version="1.1" xmlns="http://www.w3.org/2000/svg" xmlns:xlink="http://www.w3.org/1999/xlink" width="153.99447" height="98.41199" viewBox="0,0,153.99447,98.41199"><defs><linearGradient x1="103.00281" y1="320.00001" x2="256.99728" y2="320.00001" gradientUnits="userSpaceOnUse" id="color-1"><stop offset="0" stop-color="#000000" stop-opacity="0.30588"/><stop offset="1" stop-color="#000000"/></linearGradient></defs><g transform="translate(-103.0028,-270.79401)"><g data-paper-data="{&quot;isPaintingLayer&quot;:true}" fill-rule="nonzero" stroke-linecap="butt" stroke-linejoin="miter" stroke-miterlimit="10" stroke-dasharray="" stroke-dashoffset="0" style="mix-blend-mode: normal"><path d="M103.00281,369.206v-98.41199h153.99447v98.41199z" fill="url(#color-1)" stroke="none" stroke-width="0"/><text transform="translate(153.64504,360.86685) scale(0.40074,0.40073)" font-size="40" xml:space="preserve" fill="#ffffff" fill-rule="nonzero" stroke="none" stroke-width="1" stroke-linecap="butt" stroke-linejoin="miter" stroke-miterlimit="10" stroke-dasharray="" stroke-dashoffset="0" font-family="&quot;Open Sans Light&quot;, Sans Serif" font-weight="normal" text-anchor="start" style="mix-blend-mode: normal"><tspan x="0" dy="0">Bahasa</tspan></text><path d="M159.85293,344.24656v-62.8852h39.86031v62.8852z" fill="none" stroke="#ffffff" stroke-width="2.5"/><path d="M163.56662,302.6532v-17.33057h18.32089v17.33057z" fill="#ffffff" stroke="#ffffff" stroke-width="2.5"/><path d="M163.56662,311.81363v-5.94191h15.10235v5.94191z" fill="#ffffff" stroke="#ffffff" stroke-width="2.5"/><path d="M175.69802,340.78045v-16.09267h20.30152v16.09267z" fill="#ffffff" stroke="#ffffff" stroke-width="2.5"/><path d="M167.28031,340.78045v-5.94191h4.95159v5.94191z" fill="#ffffff" stroke="#ffffff" stroke-width="2.5"/><path d="M191.15605,301.48238c0,-11.69816 9.48324,-21.1814 21.1814,-21.1814c11.69816,0 21.1814,9.48324 21.1814,21.1814c0,11.69816 -9.48324,21.1814 -21.1814,21.1814c-11.69816,0 -21.1814,-9.48324 -21.1814,-21.1814z" fill="none" stroke="#ffffff" stroke-width="2.5"/><path d="M231.60233,305.83972c0.70276,0.93701 -0.23425,1.63977 -0.23425,1.63977l-1.00816,0.75244c-0.06923,0.06853 -0.13837,0.13436 -0.20742,0.19776c-0.13398,1.15368 -0.39331,2.28503 -0.81353,3.37549l-0.30809,0.62522c0,0 -0.52381,1.04762 -1.57142,0.52381c-1.04761,-0.5238 -0.5238,-1.57142 -0.5238,-1.57142l0.22832,-0.44761c0.08731,-0.20779 0.16676,-0.41826 0.23879,-0.63117c-0.27364,0.18426 -0.54523,0.38634 -0.81466,0.62438c-1.4874,1.31417 -2.83136,3.05545 -4.3038,4.30158c-0.19018,0.16095 -0.40665,0.31405 -0.64505,0.45965c0.0018,0.10744 0.00267,0.21514 0.00256,0.32309c-0.09402,0.66406 -0.18805,1.3281 -0.28207,1.99216l-0.27414,1.37298c0,0 -0.2297,1.14853 -1.37822,0.91882c-1.14852,-0.22971 -0.91881,-1.37822 -0.91881,-1.37822l0.26227,-1.30908c0.04092,-0.28362 0.08185,-0.56724 0.12277,-0.85086c-2.28518,0.73835 -5.0307,1.16165 -6.75109,1.39057c0.03938,0.62763 0.07489,1.25585 0.0922,1.88859c0.24868,0.16439 0.84551,0.6683 0.4238,1.51172c-0.52381,1.04761 -1.57142,0.5238 -1.57142,0.5238l-1.18387,-1.31582c0.00223,-0.84506 -0.04348,-1.68075 -0.09755,-2.51576c-0.59602,-0.02476 -1.19078,-0.07589 -1.78485,-0.12819c0.07097,0.27795 0.13352,0.55845 0.18592,0.84217l-0.05892,-0.36745c0,0 0.82821,0.82821 0,1.65642c-0.82821,0.82821 -1.65642,0 -1.65642,0l-0.59533,-0.90386c-0.06516,-0.46059 -0.17811,-0.92255 -0.32097,-1.38402c-0.77169,-0.01031 -1.54362,0.03598 -2.31709,0.19434c0,0 -1.14852,0.22971 -1.37822,-0.91881c-0.2297,-1.14852 0.91881,-1.37823 0.91881,-1.37823c0.63535,-0.12453 1.26698,-0.17897 1.8964,-0.19121c-0.18602,-0.43885 -0.37209,-0.87437 -0.54211,-1.30491c-0.46948,-0.64333 -0.69008,-1.21562 -0.84847,-1.79692c-1.42558,0.04506 -2.88853,-0.0346 -4.29181,0.08012c-0.029,0.05975 -0.06398,0.12092 -0.10565,0.18343c-0.6497,0.97455 -1.62426,0.32485 -1.62426,0.32485l-0.20974,-0.18164c-0.2891,0.08066 -0.57317,0.17775 -0.85121,0.29458c0,0 -1.0875,0.435 -1.52249,-0.65249c-0.43499,-1.08749 0.6525,-1.52249 0.6525,-1.52249c0.09488,-0.03656 0.18998,-0.07122 0.28529,-0.10408c-1.05207,-3.08578 -1.41286,-6.31186 -1.3226,-9.56081c-0.23288,0.01434 -0.46985,0.04639 -0.71185,0.09984c0,0 -1.14852,0.22971 -1.37823,-0.91881c-0.2297,-1.14852 0.91882,-1.37823 0.91882,-1.37823c0.44809,-0.083 0.88171,-0.1008 1.30459,-0.074c0.17878,-2.02475 0.51062,-4.04778 0.9376,-6.04077c-0.25513,-0.0562 -0.51283,-0.12505 -0.77364,-0.20814c0,0 -1.11115,-0.37038 -0.74077,-1.48154c0.37038,-1.11116 1.48155,-0.74077 1.48155,-0.74077c0.18636,0.06583 0.37269,0.12136 0.55902,0.16758c0.35774,-1.43221 0.75427,-2.84275 1.16719,-4.22069c0,0 0.33656,-1.12187 1.45843,-0.7853c1.12187,0.33656 0.7853,1.45842 0.7853,1.45842c-0.3634,1.20994 -0.71685,2.45027 -1.04172,3.71143c1.12333,-0.0864 2.25058,-0.35388 3.38724,-0.58202c0.11543,-0.5414 0.24211,-1.07491 0.3798,-1.59897c0.71573,-2.72424 0.44647,-5.52058 2.69161,-7.36349c0,0 0.93701,-0.70276 1.63977,0.23425c0.70276,0.93701 -0.23425,1.63977 -0.23425,1.63977c-1.55522,0.9753 -1.36696,4.32598 -1.82995,6.07885c-0.05572,0.21095 -0.10947,0.42345 -0.16125,0.63738c1.62759,-0.18252 3.28739,-0.3682 4.93834,-0.62352c-0.13189,-2.8727 -0.26168,-5.74624 -0.26168,-8.63896c0,0 0,-1.17127 1.17127,-1.17127c1.17127,0 1.17127,1.17127 1.17127,1.17127c0,2.75365 0.11762,5.48989 0.24271,8.22471c1.38732,-0.2851 2.7543,-0.64303 4.07579,-1.11448c-0.5466,-2.21251 -1.40665,-4.6928 -2.79511,-5.258c0,0 -1.04761,-0.5238 -0.5238,-1.57142c0.52381,-1.04761 1.57142,-0.52381 1.57142,-0.52381c2.1136,1.17786 3.21043,3.8181 3.91411,6.45026c0.95009,-0.45962 1.86649,-0.99638 2.73848,-1.62759l0.26768,-0.4631c-0.06607,-0.00094 -0.13356,0.00068 -0.20252,0.00495c0,0 -1.17127,0 -1.17127,-1.17127c0,-1.17127 1.17127,-1.17127 1.17127,-1.17127c4.36259,0.15321 4.7425,4.14558 6.17534,7.42179c0.18026,0.41217 0.32354,0.81601 0.44241,1.21584c0.14846,-0.11852 0.30057,-0.23761 0.45745,-0.35719l-0.07665,-0.12321c0,0 0.52381,-1.04761 1.57142,-0.5238c1.04761,0.5238 0.5238,1.57142 0.5238,1.57142l-0.61306,0.94962c-0.4627,0.33983 -0.89319,0.68467 -1.31324,1.02903c0.13443,0.75117 0.27734,1.52047 0.5106,2.33601c0.4863,1.70031 0.97559,3.50959 1.32818,5.35492c0.3039,-0.18218 0.61419,-0.35345 0.92995,-0.51277l0.67872,-0.46335c0,0 0.97456,-0.6497 1.62426,0.32485c0.6497,0.97455 -0.32485,1.62425 -0.32485,1.62425l-0.93051,0.60948c-0.55507,0.27454 -1.0854,0.60071 -1.59387,0.95634c0.0522,0.48881 0.0906,0.97782 0.11269,1.46571c0.33156,-0.13604 0.8955,-0.22956 1.35798,0.38708zM217.90324,314.30168c0.4063,-0.14774 0.86124,-0.20456 1.30638,-0.2754c-0.16055,-1.62376 -0.49629,-3.20745 -0.79592,-4.80501c-2.1646,0.59783 -4.32998,1.17326 -6.49715,1.71135c0.06357,1.20215 0.16981,2.39525 0.33806,3.573c0.00075,0.43483 0.01248,0.86643 0.03066,1.29604c1.90936,-0.28519 3.83803,-0.85276 5.61796,-1.49999zM225.08713,309.12991c1.10247,-0.924 1.90129,-1.15635 2.87926,-1.90576c0.03018,-0.56313 0.02738,-1.1336 -0.00227,-1.70754c-0.65772,0.58391 -1.24487,1.20568 -2.03171,1.74429c-1.32384,0.9062 -3.68379,0.91573 -5.26828,1.33244c0.24979,1.41541 0.53719,2.81506 0.73543,4.23573c1.20218,-1.21958 2.3606,-2.587 3.68759,-3.69916zM209.91798,314.67168c-0.14987,-1.0491 -0.25117,-2.11025 -0.31722,-3.17911c-1.22357,0.28754 -2.44782,0.56149 -3.67294,0.81919c0.12248,0.27825 0.29345,0.57064 0.54722,0.89844c0.34834,0.86321 0.71721,1.71143 1.05096,2.5661c0.80593,0.06565 1.61158,0.13864 2.42016,0.15958c-0.01798,-0.41922 -0.02901,-0.84026 -0.02819,-1.2642zM205.35934,310.03918c1.38325,-0.30266 2.7654,-0.61956 4.1469,-0.94961c-0.04739,-2.44493 0.03537,-4.9128 0.09272,-7.35277c-1.57242,0.0518 -3.17249,-0.01273 -4.59837,0.07346c-0.47531,0.02873 -0.94035,0.12821 -1.40254,0.24901c0.24501,2.65638 0.78017,5.24343 1.62276,7.58976c0.04911,0.13675 0.09136,0.26722 0.12834,0.39238c0.0034,-0.00074 0.00679,-0.00148 0.01019,-0.00223zM224.67001,305.28763c1.06122,-0.82563 1.84892,-1.75725 2.97696,-2.50212c-0.36358,-2.11176 -0.9574,-4.18782 -1.47611,-6.03677c-0.13046,-0.46504 -0.23035,-0.91047 -0.31557,-1.34309c-0.42847,0.31748 -0.88014,0.62628 -1.37464,0.92146c-0.7952,0.28845 -1.30873,1.07811 -2.01959,1.53662c-0.32691,0.21086 -1.78406,0.50916 -2.77541,0.71199c0.18012,2.50842 0.31824,5.02269 0.61226,7.58179c0.00454,0.03946 0.00915,0.07889 0.01385,0.11829c1.33628,-0.26684 3.48957,-0.31234 4.35826,-0.98817zM217.96704,306.39104c-0.26907,-2.37409 -0.40481,-4.70477 -0.56692,-7.02758c-1.35089,0.64748 -2.70491,1.44015 -4.09697,1.86309c-0.43562,0.13236 -0.89021,0.23181 -1.35756,0.30656c-0.05371,2.31711 -0.13426,4.66069 -0.10496,6.98631c2.06319,-0.51475 4.12551,-1.0575 6.18852,-1.62467c-0.02225,-0.16746 -0.04303,-0.33534 -0.06211,-0.50371zM201.27975,302.61195c-1.59557,0.18366 -2.96401,-0.43676 -4.3651,-0.85255c-0.05506,2.97731 0.30785,5.92554 1.31061,8.73095c1.56551,-0.16964 3.16379,-0.08572 4.75027,-0.16165c-0.87065,-2.38636 -1.42741,-5.0139 -1.69577,-7.71675zM201.00023,300.28662c0.03958,-0.00662 0.07925,-0.01311 0.11902,-0.01949c-0.09547,-2.49133 0.04273,-5.00564 0.39529,-7.41719c-1.18695,0.21521 -2.3363,0.42816 -3.50646,0.4647c-0.46022,2.08157 -0.81563,4.20284 -0.98669,6.32305c1.32207,0.40656 2.60211,0.87912 3.97885,0.64892zM212.62432,298.98453c1.56179,-0.49644 3.06488,-1.45157 4.58476,-2.10818c-0.17979,-2.07355 -0.42608,-4.15096 -0.85266,-6.25752c-0.02798,-0.13817 -0.05782,-0.28762 -0.08968,-0.44657c-1.4503,0.50137 -2.94668,0.88238 -4.46481,1.18689c0.10237,2.32596 0.18742,4.65419 0.18742,6.99451c0,0.2709 -0.00126,0.54246 -0.00356,0.81461c0.21618,-0.05613 0.42916,-0.11719 0.63853,-0.18374zM221.168,295.91041c0.75631,-0.56186 1.40551,-1.31118 2.2717,-1.68185c0.7325,-0.44203 1.35072,-0.90274 1.93973,-1.37804c-0.14336,-0.63729 -0.33032,-1.27729 -0.62125,-1.94576c-0.54272,-1.247 -0.88758,-3.45042 -1.8187,-4.81012l-0.52338,0.84865c-1.24106,0.95081 -2.56277,1.71987 -3.94168,2.34943c0.06171,0.29325 0.12054,0.5804 0.1775,0.85909c0.42736,2.09103 0.67722,4.15664 0.8595,6.2185c0.60273,-0.04194 1.18881,-0.11239 1.65658,-0.4599zM209.64683,298.35366c0,-2.20258 -0.07536,-4.39465 -0.16959,-6.58434c-1.84509,0.28645 -3.70378,0.4944 -5.53374,0.70017c-0.40551,2.43908 -0.56934,5.00099 -0.47682,7.54005c2.02178,-0.14648 4.16417,-0.1676 6.17227,-0.41269c0.00499,-0.41575 0.00788,-0.83023 0.00788,-1.2432z" fill="#ffffff" stroke="none" stroke-width="0.5"/></g></g></svg>