<svg version="1.1" xmlns="http://www.w3.org/2000/svg" xmlns:xlink="http://www.w3.org/1999/xlink" width="156.79255" height="87.10828" viewBox="0,0,156.79255,87.10828"><defs><radialGradient cx="177.51734" cy="288.61368" r="78.39627" gradientUnits="userSpaceOnUse" id="color-1"><stop offset="0" stop-color="#ffea00"/><stop offset="1" stop-color="#908400"/></radialGradient></defs><g transform="translate(-105.79051,-281.17666)"><g data-paper-data="{&quot;isPaintingLayer&quot;:true}" fill-rule="nonzero" stroke-linejoin="miter" stroke-miterlimit="10" stroke-dasharray="" stroke-dashoffset="0" style="mix-blend-mode: normal"><path d="M105.79051,360.11735v-75.57222h156.79255v75.57222z" fill="url(#color-1)" stroke="none" stroke-width="0" stroke-linecap="butt"/><text transform="translate(109.00087,300.82942) scale(0.44972,0.44972)" font-size="40" xml:space="preserve" fill="#000000" fill-rule="nonzero" stroke="none" stroke-width="1" stroke-linecap="butt" stroke-linejoin="miter" stroke-miterlimit="10" stroke-dasharray="" stroke-dashoffset="0" font-family="&quot;OpenSans-Medium&quot;, Sans Serif" font-weight="normal" text-anchor="start" style="mix-blend-mode: normal"><tspan x="0" dy="0">Apolo</tspan></text><text transform="translate(111.49878,331.64093) scale(0.77581,0.77581)" font-size="40" xml:space="preserve" fill="#000000" fill-rule="nonzero" stroke="none" stroke-width="1" stroke-linecap="butt" stroke-linejoin="miter" stroke-miterlimit="10" stroke-dasharray="" stroke-dashoffset="0" font-family="&quot;OpenSans-Medium&quot;, Sans Serif" font-weight="normal" text-anchor="start" style="mix-blend-mode: normal"><tspan x="0" dy="0">Geometry</tspan></text><text transform="translate(195.75837,356.87345) scale(0.82097,0.82097)" font-size="40" xml:space="preserve" fill="#000000" fill-rule="nonzero" stroke="none" stroke-width="1" stroke-linecap="butt" stroke-linejoin="miter" stroke-miterlimit="10" stroke-dasharray="" stroke-dashoffset="0" font-family="&quot;ModernSans-Light&quot;, Sans Serif" font-weight="normal" text-anchor="start" style="mix-blend-mode: normal"><tspan x="0" dy="0">beta</tspan></text><path d="M113.76661,356.92922v-17.59612h17.59612v17.59612z" fill="#000000" stroke="none" stroke-width="0" stroke-linecap="butt"/><path d="M135.20188,348.45109c0,-4.32896 3.50931,-7.83827 7.83827,-7.83827c4.32896,0 7.83827,3.50931 7.83827,7.83827c0,4.32896 -3.50931,7.83827 -7.83827,7.83827c-4.32896,0 -7.83827,-3.50931 -7.83827,-7.83827z" fill="#000000" stroke="none" stroke-width="0" stroke-linecap="butt"/><path d="M171.05485,355.20385l0.9837,1.66995h-0.79168h-18.87603l9.69659,-16.46116l8.92086,15.14427" fill="#000000" stroke="#000000" stroke-width="0.5" stroke-linecap="round"/></g></g></svg>