<svg version="1.1" xmlns="http://www.w3.org/2000/svg" xmlns:xlink="http://www.w3.org/1999/xlink" width="153.99447" height="98.41199" viewBox="0,0,153.99447,98.41199"><defs><linearGradient x1="103.0028" y1="320.00001" x2="256.99727" y2="320.00001" gradientUnits="userSpaceOnUse" id="color-1"><stop offset="0" stop-color="#000000" stop-opacity="0.30588"/><stop offset="1" stop-color="#000000"/></linearGradient></defs><g transform="translate(-103.00279,-270.79401)"><g data-paper-data="{&quot;isPaintingLayer&quot;:true}" fill-rule="nonzero" stroke-linejoin="miter" stroke-miterlimit="10" stroke-dasharray="" stroke-dashoffset="0" style="mix-blend-mode: normal"><path d="M103.0028,369.206v-98.41199h153.99447v98.41199z" fill="url(#color-1)" stroke="none" stroke-width="0" stroke-linecap="butt"/><text transform="translate(124.44906,361.72556) scale(0.40074,0.40073)" font-size="40" xml:space="preserve" fill="#ffffff" fill-rule="nonzero" stroke="none" stroke-width="1" stroke-linecap="butt" stroke-linejoin="miter" stroke-miterlimit="10" stroke-dasharray="" stroke-dashoffset="0" font-family="&quot;Open Sans Light&quot;, Sans Serif" font-weight="normal" text-anchor="start" style="mix-blend-mode: normal"><tspan x="0" dy="0">Personalization</tspan></text><path d="M159.85292,344.24656v-62.8852h39.86031v62.8852z" fill="none" stroke="#ffffff" stroke-width="2.5" stroke-linecap="butt"/><path d="M183.62055,311.07091l27.23375,-27.23375l2.4758,2.4758" fill="none" stroke="#ffffff" stroke-width="2.5" stroke-linecap="round"/><path d="M185.84877,314.53702l27.35754,-27.35753" fill="none" stroke="#ffffff" stroke-width="2.5" stroke-linecap="round"/><path d="M186.60603,313.05154c0,0.02586 -0.00065,0.05156 -0.00195,0.07709c0.49711,0.44247 0.49711,1.16081 0.49711,1.16081l-0.07698,0.9695c-0.98908,2.68794 -1.9086,2.46225 -4.05812,3.74537c-0.34277,0.20461 -0.96046,0.88067 -1.59507,1.63256l0.20644,0.06881l-0.48422,1.45266c-0.1885,0.61294 -0.7592,1.05847 -1.43396,1.05847c-0.82843,0 -1.5,-0.67157 -1.5,-1.5c0,-0.09375 0.0086,-0.18549 0.02505,-0.27447l0.21464,-1.28785c-0.13654,-0.97983 -1.5973,-1.49643 -1.71758,-2.49579c-0.09833,-0.81699 0.82557,-1.42481 1.19602,-2.1596c1.19557,-2.37143 2.74882,-3.45853 4.80609,-5.10435c0,0 1.1713,-0.93704 2.10835,0.23426c0.26553,0.33191 0.36176,0.64501 0.36332,0.92331c0.80568,0.02594 1.45085,0.68723 1.45085,1.49921z" fill="#ffffff" stroke="none" stroke-width="0.5" stroke-linecap="butt"/><path d="M163.56661,302.6532v-17.33057h18.32089v17.33057z" fill="#ffffff" stroke="#ffffff" stroke-width="2.5" stroke-linecap="butt"/><path d="M163.56661,311.81364v-5.94191h15.10235v5.94191z" fill="#ffffff" stroke="#ffffff" stroke-width="2.5" stroke-linecap="butt"/><path d="M175.69801,340.78045v-16.09267h20.30152v16.09267z" fill="#ffffff" stroke="#ffffff" stroke-width="2.5" stroke-linecap="butt"/><path d="M167.2803,340.78045v-5.94191h4.95159v5.94191z" fill="#ffffff" stroke="#ffffff" stroke-width="2.5" stroke-linecap="butt"/></g></g></svg>