<svg version="1.1" xmlns="http://www.w3.org/2000/svg" xmlns:xlink="http://www.w3.org/1999/xlink" width="118.18833" height="160.20533" viewBox="0,0,118.18833,160.20533"><defs><radialGradient cx="183.14929" cy="363.87164" r="50.32981" gradientUnits="userSpaceOnUse" id="color-1"><stop offset="0" stop-color="#000000" stop-opacity="0.95686"/><stop offset="1" stop-color="#000000" stop-opacity="0"/></radialGradient><linearGradient x1="208.71316" y1="319.79281" x2="248.82105" y2="319.79281" gradientUnits="userSpaceOnUse" id="color-2"><stop offset="0" stop-color="#000000" stop-opacity="0.23137"/><stop offset="1" stop-color="#000000" stop-opacity="0"/></linearGradient><linearGradient x1="180.00013" y1="242.55446" x2="180.00013" y2="396.75505" gradientUnits="userSpaceOnUse" id="color-3"><stop offset="0" stop-color="#000000"/><stop offset="1" stop-color="#fdff94"/></linearGradient><linearGradient x1="163.57949" y1="350.24544" x2="195.84887" y2="350.24544" gradientUnits="userSpaceOnUse" id="color-4"><stop offset="0" stop-color="#000606"/><stop offset="1" stop-color="#1a004c"/></linearGradient><linearGradient x1="159.29052" y1="341.56539" x2="159.29052" y2="349.73485" gradientUnits="userSpaceOnUse" id="color-5"><stop offset="0" stop-color="#004c18"/><stop offset="1" stop-color="#fff49a"/></linearGradient><linearGradient x1="149.28293" y1="340.95268" x2="155.00156" y2="340.95268" gradientUnits="userSpaceOnUse" id="color-6"><stop offset="0" stop-color="#000606"/><stop offset="1" stop-color="#1a004c"/></linearGradient><linearGradient x1="199.72936" y1="342.79081" x2="199.72936" y2="350.14332" gradientUnits="userSpaceOnUse" id="color-7"><stop offset="0" stop-color="#004c18"/><stop offset="1" stop-color="#fff49a"/></linearGradient><linearGradient x1="206.97976" y1="339.11455" x2="206.97976" y2="345.44588" gradientUnits="userSpaceOnUse" id="color-8"><stop offset="0" stop-color="#004c18"/><stop offset="1" stop-color="#fff49a"/></linearGradient><linearGradient x1="159.26532" y1="340.30459" x2="159.26532" y2="342.5512" gradientUnits="userSpaceOnUse" id="color-9"><stop offset="0" stop-color="#004c18"/><stop offset="1" stop-color="#c1ff99"/></linearGradient><linearGradient x1="199.78202" y1="341.26652" x2="199.78202" y2="343.51312" gradientUnits="userSpaceOnUse" id="color-10"><stop offset="0" stop-color="#004c18"/><stop offset="1" stop-color="#c1ff99"/></linearGradient><linearGradient x1="207.16816" y1="337.18085" x2="207.16816" y2="339.42746" gradientUnits="userSpaceOnUse" id="color-11"><stop offset="0" stop-color="#004c18"/><stop offset="1" stop-color="#c1ff99"/></linearGradient><linearGradient x1="180.09191" y1="356.2866" x2="180.09191" y2="361.18828" gradientUnits="userSpaceOnUse" id="color-12"><stop offset="0" stop-color="#8600ab"/><stop offset="1" stop-color="#ff00f6"/></linearGradient></defs><g transform="translate(-130.63271,-242.55446)"><g data-paper-data="{&quot;isPaintingLayer&quot;:true}" fill-rule="nonzero" stroke-linejoin="miter" stroke-miterlimit="10" stroke-dasharray="" stroke-dashoffset="0" style="mix-blend-mode: normal"><path d="M135.15929,362.19787l100.19162,0.45833l0.468,40.10359l-100.19162,-0.45833z" fill="url(#color-1)" stroke="none" stroke-width="0" stroke-linecap="butt"/><path d="M208.71316,396.54246v-153.49931h40.10788v153.49931z" fill="url(#color-2)" stroke="none" stroke-width="0" stroke-linecap="butt"/><path d="M229.04448,396.75505l-98.41177,-0.20646l0.32307,-153.99413l98.41177,0.20646z" fill="url(#color-3)" stroke="none" stroke-width="0" stroke-linecap="butt"/><path d="M157.48854,344.07241v-22.38698h6.95353v22.38698z" fill-opacity="0.61961" fill="#000000" stroke="none" stroke-width="0" stroke-linecap="butt"/><path d="M208.1105,351.27719v-22.38698h6.95354v22.38698z" fill-opacity="0.61961" fill="#000000" stroke="none" stroke-width="0" stroke-linecap="butt"/><path d="M197.67705,344.4053v-22.38698h6.95354v22.38698z" fill-opacity="0.61961" fill="#000000" stroke="none" stroke-width="0" stroke-linecap="butt"/><path d="M177.23729,346.35253v-22.38698h6.95353v22.38698z" fill-opacity="0.61961" fill="#000000" stroke="none" stroke-width="0" stroke-linecap="butt"/><path d="M145.7046,350.2659v-22.38699h6.95353v22.38699z" fill-opacity="0.61961" fill="#000000" stroke="none" stroke-width="0" stroke-linecap="butt"/><text transform="translate(155.41002,381.22482) scale(0.18296,0.18296)" font-size="40" xml:space="preserve" fill="#000000" fill-rule="nonzero" stroke="none" stroke-width="1" stroke-linecap="butt" stroke-linejoin="miter" stroke-miterlimit="10" stroke-dasharray="" stroke-dashoffset="0" font-family="&quot;OpenSans-Bold&quot;, Sans Serif" font-weight="normal" text-anchor="start" style="mix-blend-mode: normal"><tspan x="0" dy="0">Julian Gough</tspan></text><text transform="translate(150.37277,374.84666) scale(0.14419,0.14419)" font-size="40" xml:space="preserve" fill="#000000" fill-rule="nonzero" stroke="none" stroke-width="1" stroke-linecap="butt" stroke-linejoin="miter" stroke-miterlimit="10" stroke-dasharray="" stroke-dashoffset="0" font-family="&quot;Ebbe Regular&quot;, Serif" font-weight="normal" text-anchor="start" style="mix-blend-mode: normal"><tspan x="0" dy="0">Sebuah puisi familiar dari</tspan></text><path d="M163.57949,353.81958v-7.14828h32.26937v7.14828z" fill="url(#color-4)" stroke="#ffffff" stroke-width="1" stroke-linecap="butt"/><path d="M155.20579,349.73485v-8.16947h8.16946v8.16947z" fill="url(#color-5)" stroke="#ffffff" stroke-width="1" stroke-linecap="butt"/><path d="M149.28293,343.81199v-5.71863h5.71863v5.71863z" fill="url(#color-6)" stroke="#ffffff" stroke-width="1" stroke-linecap="butt"/><path d="M196.0531,350.14332v-7.35251h7.35252v7.35251z" fill="url(#color-7)" stroke="#ffffff" stroke-width="1" stroke-linecap="butt"/><path d="M203.81409,345.44588v-6.33133h6.33133v6.33133z" fill="url(#color-8)" stroke="#ffffff" stroke-width="1" stroke-linecap="butt"/><path d="M173.41195,351.12525v-1.6081h1.6081v1.6081z" fill="none" stroke="#ffffff" stroke-width="1" stroke-linecap="butt"/><path d="M177.08762,352.15903v-0.68919h0.68919v0.68919z" fill="none" stroke="#ffffff" stroke-width="1" stroke-linecap="butt"/><path d="M180.64842,351.9293v-2.87162h2.87161v2.87162z" fill="none" stroke="#ffffff" stroke-width="1" stroke-linecap="butt"/><path d="M185.93219,352.96308v-1.03379h1.03378v1.03379z" fill="none" stroke="#ffffff" stroke-width="1" stroke-linecap="butt"/><path d="M188.68894,349.51714v-1.49324h1.49324v1.49324z" fill="none" stroke="#ffffff" stroke-width="1" stroke-linecap="butt"/><path d="M168.24304,349.40228v-2.29729h2.29729v2.29729z" fill="none" stroke="#ffffff" stroke-width="1" stroke-linecap="butt"/><path d="M156.73889,342.5512v-2.2466h5.05288v2.2466z" fill="url(#color-9)" stroke="#006b04" stroke-width="1" stroke-linecap="butt"/><path d="M197.25559,343.51312v-2.2466h5.05288v2.2466z" fill="url(#color-10)" stroke="#006b04" stroke-width="1" stroke-linecap="butt"/><path d="M205.00882,339.42746v-2.2466h4.31868v2.2466z" fill="url(#color-11)" stroke="#006b04" stroke-width="1" stroke-linecap="butt"/><path d="M169.53421,334.9381v4.77227" fill="none" stroke="#ff42f9" stroke-width="0.5" stroke-linecap="round"/><path d="M171.64502,336.59004h-4.12985" fill="none" stroke="#ff42f9" stroke-width="0.5" stroke-linecap="round"/><path d="M174.67358,338.70085v2.47791" fill="none" stroke="#ff42f9" stroke-width="0.5" stroke-linecap="round"/><path d="M173.57229,339.80215h2.4779" fill="none" stroke="#ff42f9" stroke-width="0.5" stroke-linecap="round"/><path d="M187.98087,338.05843v3.5792" fill="none" stroke="#ff42f9" stroke-width="0.5" stroke-linecap="round"/><path d="M189.6328,339.52682h-3.02855" fill="none" stroke="#ff42f9" stroke-width="0.5" stroke-linecap="round"/><path d="M195.87347,331.726v2.56968" fill="none" stroke="#ff42f9" stroke-width="0.5" stroke-linecap="round"/><path d="M194.77218,332.64374h2.56968" fill="none" stroke="#ff42f9" stroke-width="0.5" stroke-linecap="round"/><path d="M155.2174,333.28616v2.20258" fill="none" stroke="#ff42f9" stroke-width="0.5" stroke-linecap="round"/><path d="M154.20788,333.92858h1.56017" fill="none" stroke="#ff42f9" stroke-width="0.5" stroke-linecap="round"/><path d="M206.97817,333.74504v-1.74372" fill="none" stroke="#ff42f9" stroke-width="0.5" stroke-linecap="round"/><path d="M208.35478,332.36842h-2.56968" fill="none" stroke="#ff42f9" stroke-width="0.5" stroke-linecap="round"/><path d="M179.6294,330.34938v-2.01904" fill="none" stroke="#ff42f9" stroke-width="0.5" stroke-linecap="round"/><path d="M178.5281,328.97277h2.66146" fill="none" stroke="#ff42f9" stroke-width="0.5" stroke-linecap="round"/><path d="M180.45537,345.03329v-2.01904" fill="none" stroke="#ff42f9" stroke-width="0.5" stroke-linecap="round"/><path d="M179.81295,343.74845h1.37661" fill="none" stroke="#ff42f9" stroke-width="0.5" stroke-linecap="round"/><path d="M160.63209,337.32424v2.11081" fill="none" stroke="#ff42f9" stroke-width="0.5" stroke-linecap="round"/><path d="M161.36629,338.15021h-1.74372" fill="none" stroke="#ff42f9" stroke-width="0.5" stroke-linecap="round"/><path d="M206.8864,348.52072v2.29436" fill="none" stroke="#ff42f9" stroke-width="0.5" stroke-linecap="round"/><path d="M205.96865,349.43846h2.01904" fill="none" stroke="#ff42f9" stroke-width="0.5" stroke-linecap="round"/><path d="M162.65113,332.00132v-1.28485h1.00951v1.28485z" fill="#8cff00" stroke="none" stroke-width="0" stroke-linecap="butt"/><path d="M175.6831,332.73552v-0.45887h0.91774v0.45887z" fill="#8cff00" stroke="none" stroke-width="0" stroke-linecap="butt"/><path d="M170.81905,342.8307v-0.73419h0.3671v0.73419z" fill="#8cff00" stroke="none" stroke-width="0" stroke-linecap="butt"/><path d="M180.27182,341.36231v-1.83549h0.91774v1.83549z" fill="#8cff00" stroke="none" stroke-width="0" stroke-linecap="butt"/><path d="M187.1549,344.11554v-1.28484h1.83549v1.28484z" fill="#8cff00" stroke="none" stroke-width="0" stroke-linecap="butt"/><path d="M192.84491,340.44457v-1.46839h1.10129v1.46839z" fill="#8cff00" stroke="none" stroke-width="0" stroke-linecap="butt"/><path d="M196.60766,338.97618v-1.10129h1.10129v1.10129z" fill="#8cff00" stroke="none" stroke-width="0" stroke-linecap="butt"/><path d="M177.51859,335.12165v-0.82597h1.00951v0.82597z" fill="#8cff00" stroke="none" stroke-width="0" stroke-linecap="butt"/><path d="M181.74021,335.48875v-1.00952h1.19307v1.00952z" fill="#8cff00" stroke="none" stroke-width="0" stroke-linecap="butt"/><path d="M173.84761,344.20732v-1.56017h1.28485v1.56017z" fill="#8cff00" stroke="none" stroke-width="0" stroke-linecap="butt"/><path d="M166.23033,342.8307v-0.55065h0.73419v0.55065z" fill="#8cff00" stroke="none" stroke-width="0" stroke-linecap="butt"/><path d="M169.16711,345.21684v-0.82597h0.91774v0.82597z" fill="#8cff00" stroke="none" stroke-width="0" stroke-linecap="butt"/><path d="M165.40436,339.2515v-1.19306h1.28484v1.19306z" fill="#8cff00" stroke="none" stroke-width="0" stroke-linecap="butt"/><path d="M164.02775,335.58052v-0.64242h0.55065v0.64242z" fill="#8cff00" stroke="none" stroke-width="0" stroke-linecap="butt"/><path d="M165.86323,333.28616v-1.19307h1.4684v1.19307z" fill="#8cff00" stroke="none" stroke-width="0" stroke-linecap="butt"/><path d="M170.91083,331.81777v-0.3671h0.55065v0.3671z" fill="#8cff00" stroke="none" stroke-width="0" stroke-linecap="butt"/><path d="M159.62257,335.12165v-1.28485h1.65194v1.28485z" fill="#8cff00" stroke="none" stroke-width="0" stroke-linecap="butt"/><path d="M156.3187,332.18487v-0.64243h0.82597v0.64243z" fill="#8cff00" stroke="none" stroke-width="0" stroke-linecap="butt"/><path d="M150.44513,336.0394v-1.74372h1.74371v1.74372z" fill="#8cff00" stroke="none" stroke-width="0" stroke-linecap="butt"/><path d="M180.18004,332.27664v-0.82597h1.1013v0.82597z" fill="#8cff00" stroke="none" stroke-width="0" stroke-linecap="butt"/><path d="M183.39215,330.6247v-1.28484h1.56017v1.28484z" fill="#8cff00" stroke="none" stroke-width="0" stroke-linecap="butt"/><path d="M185.13586,335.02987v-0.55064h1.00952v0.55064z" fill="#8cff00" stroke="none" stroke-width="0" stroke-linecap="butt"/><path d="M188.16442,333.37794v-0.82597h0.82597v0.82597z" fill="#8cff00" stroke="none" stroke-width="0" stroke-linecap="butt"/><path d="M182.65795,337.78311v-0.73419h0.73419v0.73419z" fill="#8cff00" stroke="none" stroke-width="0" stroke-linecap="butt"/><path d="M191.83539,336.68182v-1.19307h1.92727v1.19307z" fill="#8cff00" stroke="none" stroke-width="0" stroke-linecap="butt"/><path d="M198.44315,334.38746v-0.73419h0.73419v0.73419z" fill="#8cff00" stroke="none" stroke-width="0" stroke-linecap="butt"/><path d="M200.46219,332.09309v-1.56016h1.19307v1.56016z" fill="#8cff00" stroke="none" stroke-width="0" stroke-linecap="butt"/><path d="M201.93058,336.40649v-1.65194h2.20259v1.65194z" fill="#8cff00" stroke="none" stroke-width="0" stroke-linecap="butt"/><path d="M199.54444,339.2515v-1.46839h1.28484v1.46839z" fill="#8cff00" stroke="none" stroke-width="0" stroke-linecap="butt"/><path d="M209.45608,334.9381v-0.91774h1.37662v0.91774z" fill="#8cff00" stroke="none" stroke-width="0" stroke-linecap="butt"/><path d="M212.20931,332.00132v-0.55065h0.82597v0.55065z" fill="#8cff00" stroke="none" stroke-width="0" stroke-linecap="butt"/><path d="M208.90543,348.70426v-1.56016h1.83549v1.56016z" fill="#8cff00" stroke="none" stroke-width="0" stroke-linecap="butt"/><path d="M203.67429,352.19169v-0.91775h1.56016v0.91775z" fill="#8cff00" stroke="none" stroke-width="0" stroke-linecap="butt"/><path d="M201.01284,353.66008v-1.56017h0.55065v1.56017z" fill="#8cff00" stroke="none" stroke-width="0" stroke-linecap="butt"/><path d="M212.57641,341.45409v-0.82597h1.00951v0.82597z" fill="#8cff00" stroke="none" stroke-width="0" stroke-linecap="butt"/><path d="M211.84222,346.13458v-0.3671h0.55065v0.3671z" fill="#8cff00" stroke="none" stroke-width="0" stroke-linecap="butt"/><path d="M209.27253,350.90685v-0.55065h0.45887v0.55065z" fill="#8cff00" stroke="none" stroke-width="0" stroke-linecap="butt"/><path d="M142.6145,361.18828v-4.90168h74.95482v4.90168z" fill="url(#color-12)" stroke="#ffffff" stroke-width="1" stroke-linecap="butt"/><path d="M152.04079,356.62392v4.15904" fill="none" stroke="#ffffff" stroke-width="1" stroke-linecap="round"/><path d="M162.15737,360.67055v-4.15904" fill="none" stroke="#ffffff" stroke-width="1" stroke-linecap="round"/><path d="M169.91342,356.51151v4.27145" fill="none" stroke="#ffffff" stroke-width="1" stroke-linecap="round"/><path d="M177.10744,356.73632v4.04663" fill="none" stroke="#ffffff" stroke-width="1" stroke-linecap="round"/><path d="M183.96423,360.22092v-3.70941" fill="none" stroke="#ffffff" stroke-width="1" stroke-linecap="round"/><path d="M190.70862,356.62392v4.38385" fill="none" stroke="#ffffff" stroke-width="1" stroke-linecap="round"/><path d="M197.79023,356.2867v4.49626" fill="none" stroke="#ffffff" stroke-width="1" stroke-linecap="round"/><path d="M204.1974,356.17429v4.49626" fill="none" stroke="#ffffff" stroke-width="1" stroke-linecap="round"/><path d="M210.26735,356.51151v4.27145" fill="none" stroke="#ffffff" stroke-width="1" stroke-linecap="round"/><path d="M165.47814,282.15068c0,-1.33468 1.08199,-2.41667 2.41666,-2.41667c1.33468,0 2.41666,1.082 2.41666,2.41667c0,1.33468 -1.08199,2.41666 -2.41666,2.41666c-1.33468,0 -2.41666,-1.08199 -2.41666,-2.41666z" fill="#ffffff" stroke="none" stroke-width="0.5" stroke-linecap="butt"/><path d="M168.93961,297.97749c-0.4871,0.11284 -0.59994,-0.37427 -0.59994,-0.37427l-0.13828,-0.5969c-0.83734,-3.61464 -1.88827,-7.24625 -2.73401,-10.89713c0,0 -0.11284,-0.4871 0.37426,-0.59994c0.4871,-0.11284 0.59994,0.37426 0.59994,0.37426c0.84591,3.65161 1.89642,7.28145 2.734,10.89713l0.13828,0.5969c0,0 0.11283,0.4871 -0.37427,0.59994z" fill="#ffffff" stroke="none" stroke-width="0.5" stroke-linecap="butt"/><g><path d="M176.32441,286.87988v28.2906" fill="none" stroke="#ffffff" stroke-width="1" stroke-linecap="round"/><path d="M212.0531,310.89123c0.4709,0.47091 0,0.94181 0,0.94181l-0.27203,0.27202c-3.02974,2.74399 -6.29447,-0.79154 -5.89457,-3.34295c-0.51031,0.1755 -1.08817,0.18304 -1.84197,-0.02689c-0.69906,-0.19468 -2.00281,-1.95342 -1.77122,-1.26572c0.62193,1.84683 -0.97493,4.79473 -2.73925,5.34609c-1.45469,0.45459 -2.60758,-1.53792 -3.02722,-3.50744c-0.53466,1.34908 -1.34511,2.70343 -2.35142,2.94127c-3.58089,0.84633 -0.48541,-4.39479 -2.23442,-5.48761c-1.58868,-0.99264 -2.76927,2.52119 -3.47866,3.37678c0.08669,0.71389 0.13964,1.39754 0.13964,2.03962v0.81607c0,0 0,0.66596 -0.66595,0.66596c-0.66595,0 -0.66595,-0.66596 -0.66595,-0.66596v-0.81607c0,-0.66188 -0.0461,-1.34968 -0.12221,-2.05666c-0.87975,1.41321 -1.93353,2.60944 -3.14419,3.44324l-0.04863,0.07294l0.09949,0.09948l-0.54405,0.54406c-0.12051,0.12051 -0.287,0.19505 -0.4709,0.19505c-0.3678,0 -0.66596,-0.29816 -0.66596,-0.66595c0,-0.13993 0.04316,-0.26978 0.11689,-0.37697l0.539,-0.80851l0.02177,0.01452l0.01733,-0.06732c0.71619,-0.6079 0.39658,-1.50871 0.40838,-2.42825c-0.39194,-0.80208 -0.55376,-1.83563 -1.47393,-2.23365c-1.21402,-0.52513 -5.99167,1.29346 -5.88278,-1.23809c0.05155,-1.19846 1.14655,-0.61306 1.44071,-1.37973c0.80077,-2.08699 2.09237,-4.49697 2.09237,-6.7154c0,0 0,-0.66595 0.66595,-0.66595c0.66595,0 0.66596,0.66595 0.66596,0.66595c0,1.26927 -1.51342,7.17318 -3.08405,8.10438c0.27483,-0.03355 0.58656,-0.06158 0.75772,-0.06554c0,0 1.75915,0 1.93239,0c2.52463,0 3.20539,0.99794 4.187,3.24439c0.00362,0.34976 0.02377,0.67655 0.0376,0.9866c0.64462,-0.8882 1.3723,-1.94782 2.00107,-3.07126c-0.73549,-4.459 -1.93023,-9.34989 -0.07229,-13.20156c0.86866,-1.24203 2.16711,-2.26923 2.89466,-0.06022c1.0592,3.21603 0.70155,7.99744 -0.80981,12.11449c0.15842,-0.27568 0.34098,-0.50859 0.56989,-0.66183c3.46725,-2.32101 5.44262,2.64624 4.17593,5.19683c-0.31373,0.63171 0.74756,-1.19653 1.1388,-1.78339c0.54823,-0.82235 1.04923,-1.73828 1.18725,-2.71693l0.01095,-0.02065l-0.00666,-0.00141l0.27421,-1.29031c0.05886,-0.30759 0.32932,-0.54004 0.65407,-0.54004c0.35549,0 0.64592,0.27855 0.66496,0.62928l0.07853,1.25635l-0.26596,0.01662c0.40744,1.96486 0.99034,4.70441 1.4883,4.85015c2.12174,0.62097 2.12394,-4.67267 3.02621,-5.34071c0.96019,-0.71093 2.96576,2.26365 4.48575,0.85352v-0.61007c0,-0.3678 0.29816,-0.66595 0.66595,-0.66595c0.3678,0 0.66596,0.29816 0.66596,0.66595v1.0881h-0.06789c-0.06508,0.06493 -0.12917,0.12797 -0.19251,0.18902c0.16244,2.08423 -0.30622,3.70029 2.3147,3.76945c0.40404,0.01066 0.90484,-0.03655 1.16125,-0.349l0.27203,-0.27203c0,0 0.4709,-0.47091 0.9418,0zM187.72238,305.86206c0.32839,-0.82416 0.55602,-1.65034 0.61778,-2.44006c0.14447,-1.84707 -0.24345,-9.66116 -0.42413,-8.25237c-1.53537,2.93174 -0.89243,6.91404 -0.19365,10.69243z" fill="#ffffff" stroke="none" stroke-width="0.5" stroke-linecap="butt"/><path d="M196.49892,300.20911c0,-0.3678 0.29816,-0.66595 0.66595,-0.66595c0.3678,0 0.66595,0.29816 0.66595,0.66595c0,0.3678 -0.29816,0.66595 -0.66595,0.66595c-0.3678,0 -0.66595,-0.29816 -0.66595,-0.66595z" fill="#ffffff" stroke="none" stroke-width="0.5" stroke-linecap="butt"/><path d="M176.00233,310.7435c0.63419,0.42065 0.31709,1.26196 0.31709,1.26196l-0.51463,1.31444c-0.30217,0.32369 -2.15205,2.33874 -2.3659,2.4028c-1.4563,0.43624 -2.18339,-1.02716 -2.4404,-3.03003c-0.2316,0.55858 -0.50192,1.10625 -0.8253,1.64157c-2.98326,3.29194 -8.18132,0.83641 -7.76234,-5.03618c0.50477,-7.07513 6.29529,-7.7783 10.40847,-7.7783c0,0 0.70905,0 0.70905,0.94061c0,0.35078 -0.09861,0.57074 -0.22229,0.70868c0.05048,0.12933 0.07899,0.27618 0.07899,0.43187c0,0.1117 -0.01468,0.21888 -0.04162,0.31828l-0.28136,1.11973l-0.06931,-0.03065l-0.08623,0.26693c-0.04547,0.18062 -0.08919,0.36082 -0.13153,0.54058c-0.44939,4.29663 -1.4158,9.67891 1.93088,6.31504l0.34513,-0.96667c0,0 0.31709,-0.8413 0.95128,-0.42065zM163.82032,309.50532c-0.40128,3.98691 3.36607,5.69966 5.34018,3.51207c1.49884,-2.49104 1.69019,-5.49654 2.42291,-8.4201l0.02166,-0.03021l-0.01062,-0.00603l0.37294,-1.1544c-3.37437,0.05479 -7.59539,0.61734 -8.14708,6.09868z" fill="#ffffff" stroke="none" stroke-width="0.5" stroke-linecap="butt"/></g><g><path d="M153.48557,274.77623l-7.86555,34.23678" fill="none" stroke="#ffffff" stroke-width="1" stroke-linecap="round"/><path d="M145.53439,308.43963c-0.17709,-0.46759 0.2905,-0.64468 0.2905,-0.64468l0.36998,-0.11605c1.69678,-2.58405 4.92792,-3.78578 7.30633,-5.74308c1.50943,-1.23991 3.40464,-2.15435 4.81131,-3.50077c3.37887,-3.23416 4.23628,-9.15764 4.65767,-13.59141c0.25763,-2.71069 -0.0775,-5.91259 -2.36595,-7.81112c-1.476,-1.22451 -5.52462,-1.37706 -7.42966,-1.81472c0,0 -0.48731,-0.11196 -0.37535,-0.59926c0.11195,-0.4873 0.59926,-0.37535 0.59926,-0.37535c2.13873,0.49135 6.13859,0.64969 7.83706,2.0138c2.56403,2.05927 3.01507,5.68354 2.73015,8.68127c-0.44745,4.70792 -1.40483,10.77644 -4.95952,14.21711c-1.41938,1.37385 -3.34274,2.29408 -4.86959,3.55266c-2.43848,2.00617 -5.47382,3.19656 -7.32603,5.75887l-0.63148,0.26323c0,0 -0.46759,0.17709 -0.64468,-0.2905z" fill="#ffffff" stroke="none" stroke-width="0.5" stroke-linecap="butt"/></g><text transform="translate(143.22362,273.55411) scale(0.5,0.5)" font-size="40" xml:space="preserve" fill="#f9bdff" fill-rule="nonzero" stroke="none" stroke-width="1" stroke-linecap="butt" stroke-linejoin="miter" stroke-miterlimit="10" stroke-dasharray="" stroke-dashoffset="0" font-family="&quot;Ebbe Regular&quot;, Serif" font-weight="normal" text-anchor="start" style="mix-blend-mode: normal"><tspan x="0" dy="0">Puisi</tspan></text></g></g></svg>