<svg version="1.1" xmlns="http://www.w3.org/2000/svg" xmlns:xlink="http://www.w3.org/1999/xlink" width="77.28777" height="81.87976" viewBox="0,0,77.28777,81.87976"><defs><linearGradient x1="182.1" y1="282.52866" x2="182.1" y2="357.51666" gradientUnits="userSpaceOnUse" id="color-1"><stop offset="0" stop-color="#087b00"/><stop offset="1" stop-color="#febb00"/></linearGradient><radialGradient cx="180" cy="320" r="42.99267" gradientUnits="userSpaceOnUse" id="color-2"><stop offset="0" stop-color="#000000" stop-opacity="0.3451"/><stop offset="1" stop-color="#000000" stop-opacity="0"/></radialGradient><linearGradient x1="168.30915" y1="317.80071" x2="201.04278" y2="317.80071" gradientUnits="userSpaceOnUse" id="color-3"><stop offset="0" stop-color="#0cb800"/><stop offset="1" stop-color="#ffd256"/></linearGradient><linearGradient x1="179.10676" y1="291.54312" x2="179.10676" y2="349.41362" gradientUnits="userSpaceOnUse" id="color-4"><stop offset="0" stop-color="#0cb800"/><stop offset="1" stop-color="#ffd256"/></linearGradient><radialGradient cx="182.03869" cy="319.96135" r="38.61323" gradientUnits="userSpaceOnUse" id="color-5"><stop offset="0" stop-color="#000000" stop-opacity="0"/><stop offset="1" stop-color="#000000" stop-opacity="0.45882"/></radialGradient></defs><g transform="translate(-143.42546,-279.3881)"><g data-paper-data="{&quot;isPaintingLayer&quot;:true}" fill-rule="nonzero" stroke-linejoin="miter" stroke-miterlimit="10" stroke-dasharray="" stroke-dashoffset="0" style="mix-blend-mode: normal"><path d="M143.48677,357.51666v-74.988h77.22646v74.988z" fill="url(#color-1)" stroke="none" stroke-width="0" stroke-linecap="butt"/><path d="M209.24912,320c0,16.05716 -13.09527,29.07407 -29.24911,29.07407c-16.15384,0 -29.24911,-13.01691 -29.24911,-29.07407c0,-16.05716 13.09527,-29.07407 29.24911,-29.07407c16.15384,0 29.24911,13.01691 29.24911,29.07407z" fill="url(#color-2)" stroke="none" stroke-width="0" stroke-linecap="butt"/><g><path d="M166.89188,348.15044l-1.38216,1.32972l-1.02646,-1.06694l1.38217,-1.32972z" fill="#ffffff" stroke="none" stroke-width="0" stroke-linecap="butt"/><path d="M167.63878,346.27813l0.02781,2.75603l-1.48042,0.02045l-0.02781,-2.75603z" fill="#ffffff" stroke="none" stroke-width="0" stroke-linecap="butt"/><path d="M196.4832,346.34377l1.39776,-1.31332l1.0138,1.07898l-1.39777,1.31332z" fill="#ffffff" stroke="none" stroke-width="0" stroke-linecap="butt"/><path d="M195.74985,348.03929v-2.35538h1.48053v2.35538z" fill="#ffffff" stroke="none" stroke-width="0" stroke-linecap="butt"/><path d="M167.2909,348.78969v-3.58766h29.01324v3.58766z" fill="#ffffff" stroke="none" stroke-width="0" stroke-linecap="butt"/><path d="M168.30915,345.04772v-54.49403h32.73362v54.49403z" fill="url(#color-3)" stroke="none" stroke-width="0" stroke-linecap="butt"/><path d="M169.70007,303.63061h29.10392" fill="none" stroke="#000000" stroke-width="0.5" stroke-linecap="round"/><path d="M198.8875,306.84835h-29.10392" fill="none" stroke="#000000" stroke-width="0.5" stroke-linecap="round"/><path d="M169.78358,309.8635h29.10392" fill="none" stroke="#000000" stroke-width="0.5" stroke-linecap="round"/><path d="M198.97094,313.08124h-29.10392" fill="none" stroke="#000000" stroke-width="0.5" stroke-linecap="round"/><path d="M198.95441,315.94084h-29.10392" fill="none" stroke="#000000" stroke-width="0.5" stroke-linecap="round"/><path d="M169.93394,319.15855h29.10392" fill="none" stroke="#000000" stroke-width="0.5" stroke-linecap="round"/><path d="M169.93395,322.17372h29.10392" fill="none" stroke="#000000" stroke-width="0.5" stroke-linecap="round"/><path d="M170.01739,325.39144h29.10392" fill="none" stroke="#000000" stroke-width="0.5" stroke-linecap="round"/><path d="M163.15727,349.41362v-53.12574l4.644,-4.74477l-0.30452,53.82578l-3.80656,3.88914h31.36604" fill="url(#color-4)" stroke="#000000" stroke-width="1.5" stroke-linecap="round"/><path d="M167.60286,345.35802h32.28893l-4.79765,4.13361" fill="none" stroke="#000000" stroke-width="1.5" stroke-linecap="round"/><path d="M197.35394,346.62749h-30.09562" fill="none" stroke="#d2d2d2" stroke-width="0.5" stroke-linecap="round"/><path d="M196.24518,347.26108h-29.77882" fill="none" stroke="#d2d2d2" stroke-width="0.5" stroke-linecap="round"/><path d="M195.45316,347.89466h-29.22443" fill="none" stroke="#d2d2d2" stroke-width="0.5" stroke-linecap="round"/><path d="M165.51596,348.48865h28.59084" fill="none" stroke="#d2d2d2" stroke-width="0.5" stroke-linecap="round"/><path d="M167.89193,345.99388h29.77882" fill="none" stroke="#d2d2d2" stroke-width="0.5" stroke-linecap="round"/></g><path d="M143.42546,357.45535v-74.988h77.22646v74.988z" fill="url(#color-5)" stroke="none" stroke-width="0" stroke-linecap="butt"/><text transform="translate(180.09524,352.63924) scale(0.69029,0.69029)" font-size="40" xml:space="preserve" fill="#ffffff" fill-rule="nonzero" stroke="none" stroke-width="1" stroke-linecap="butt" stroke-linejoin="miter" stroke-miterlimit="10" stroke-dasharray="" stroke-dashoffset="0" font-family="Sans Serif" font-weight="normal" text-anchor="start" style="mix-blend-mode: normal"><tspan x="0" dy="0">AB</tspan></text><text transform="translate(145.56842,302.49492) scale(0.52876,0.52876)" font-size="40" xml:space="preserve" fill="#ffffff" fill-rule="nonzero" stroke="none" stroke-width="1" stroke-linecap="butt" stroke-linejoin="miter" stroke-miterlimit="10" stroke-dasharray="" stroke-dashoffset="0" font-family="Sans Serif" font-weight="normal" text-anchor="start" style="mix-blend-mode: normal"><tspan x="0" dy="0">1</tspan><tspan x="0" dy="46.15px">1</tspan></text><path d="M149.58697,307.35947c0,-1.40171 1.13632,-2.53803 2.53803,-2.53803c1.40171,0 2.53803,1.13632 2.53803,2.53803c0,1.40171 -1.13632,2.53803 -2.53803,2.53803c-1.40171,0 -2.53803,-1.13632 -2.53803,-2.53803z" fill="#ffffff" stroke="none" stroke-width="0" stroke-linecap="butt"/></g></g></svg>