<svg version="1.1" xmlns="http://www.w3.org/2000/svg" xmlns:xlink="http://www.w3.org/1999/xlink" width="155.24376" height="155.75456" viewBox="0,0,155.24376,155.75456"><defs><radialGradient cx="103.80577" cy="273.43029" r="77.62188" gradientUnits="userSpaceOnUse" id="color-1"><stop offset="0" stop-color="#ff3b00"/><stop offset="1" stop-color="#982400"/></radialGradient><radialGradient cx="145.64646" cy="371.65679" r="27.99092" gradientUnits="userSpaceOnUse" id="color-2"><stop offset="0" stop-color="#ff4e19"/><stop offset="1" stop-color="#ff7248"/></radialGradient><radialGradient cx="207.27351" cy="310.02972" r="27.99092" gradientUnits="userSpaceOnUse" id="color-3"><stop offset="0" stop-color="#ff4e19"/><stop offset="1" stop-color="#ff7248"/></radialGradient><radialGradient cx="201.62829" cy="369.30461" r="27.99092" gradientUnits="userSpaceOnUse" id="color-4"><stop offset="0" stop-color="#ff7248"/><stop offset="1" stop-color="#ff7248"/></radialGradient><radialGradient cx="115.06815" cy="398.47162" r="12.46654" gradientUnits="userSpaceOnUse" id="color-5"><stop offset="0" stop-color="#ff3b00"/><stop offset="1" stop-color="#ff4e19"/></radialGradient><radialGradient cx="235.02923" cy="281.80358" r="12.46654" gradientUnits="userSpaceOnUse" id="color-6"><stop offset="0" stop-color="#ff3b00"/><stop offset="1" stop-color="#ff4e19"/></radialGradient></defs><g transform="translate(-102.36637,-269.53189)"><g data-paper-data="{&quot;isPaintingLayer&quot;:true}" fill-rule="nonzero" stroke="none" stroke-linecap="butt" stroke-linejoin="miter" stroke-miterlimit="10" stroke-dasharray="" stroke-dashoffset="0" style="mix-blend-mode: normal"><path d="M102.36638,425.28645v-155.24376h155.24376v155.24376z" fill="url(#color-1)" stroke-width="0"/><path d="M171.04999,363.18895v-24.93309h24.93309v24.93309z" fill="#ff4e19" stroke-width="0"/><path d="M140.12209,421.64382v-55.98184h55.98184v55.98184z" fill="url(#color-2)" stroke-width="0"/><path d="M199.10132,362.54372v-55.98184h55.98184v55.98184z" fill="url(#color-3)" stroke-width="0"/><path d="M198.80569,421.52297v-55.98184h55.98184v55.98184z" fill="url(#color-4)" stroke-width="0"/><text transform="translate(107.59848,293.50615) scale(0.54861,0.54861)" font-size="40" xml:space="preserve" fill="#ffffff" fill-rule="nonzero" stroke="none" stroke-width="1" stroke-linecap="butt" stroke-linejoin="miter" stroke-miterlimit="10" stroke-dasharray="" stroke-dashoffset="0" font-family="&quot;Open Sans Light&quot;, Sans Serif" font-weight="normal" text-anchor="start" style="mix-blend-mode: normal"><tspan x="0" dy="0">Fractals</tspan></text><text transform="translate(106.88361,318.1078) scale(0.77032,0.77032)" font-size="40" xml:space="preserve" fill="#ffffff" fill-rule="nonzero" stroke="none" stroke-width="1" stroke-linecap="butt" stroke-linejoin="miter" stroke-miterlimit="10" stroke-dasharray="" stroke-dashoffset="0" font-family="&quot;Open Sans Light&quot;, Sans Serif" font-weight="normal" text-anchor="start" style="mix-blend-mode: normal"><tspan x="0" dy="0">1.0</tspan></text><path d="M113.48205,421.81861v-24.93309h24.93308v24.93309z" fill="url(#color-5)" stroke-width="0"/><path d="M230.44573,304.50534v-24.93309h24.93309v24.93309z" fill="url(#color-6)" stroke-width="0"/><path d="M134.13054,382.68489l1.45317,14.01292l32.42584,-40.75612c-2.89453,-1.65094 -5.30301,-3.9608 -7.07998,-6.68291c-0.14027,-0.22676 -0.28953,-0.45541 -0.42792,-0.69119zM176.85257,305.43977c0.45934,-2.18655 1.76792,-3.98798 3.51004,-5.12524c1.75114,-1.13537 3.92687,-1.60841 6.11341,-1.14909c2.18655,0.45934 3.988,1.76792 5.12525,3.51006c1.13726,1.74216 1.61029,3.91788 1.15094,6.10441l-2.53111,12.04849c2.20501,1.53428 4.07066,3.47642 5.52064,5.69763c2.9071,4.45339 4.11561,10.01556 2.93607,15.63039c-0.79771,3.79721 -2.59005,7.1412 -5.0466,9.80073l0.77416,3.11273l21.84649,-36.14827c0.30239,-0.50018 0.77436,-0.82381 1.3004,-0.95758c0.52604,-0.13376 1.09338,-0.06155 1.60257,0.24271l25.89342,15.65224c0.50018,0.30239 0.82381,0.77436 0.95758,1.3004c0.12667,0.51518 0.06158,1.09341 -0.24081,1.59357l-41.54889,68.754c-0.30239,0.50018 -0.78526,0.83093 -1.3004,0.95758c-0.52604,0.13376 -1.09338,0.06155 -1.60257,-0.24271l-1.11834,-0.71409l-5.38769,9.4566c-0.53375,0.93073 -1.71984,1.25467 -2.65246,0.72991c-0.50396,-0.2844 -0.8257,-0.76534 -0.9415,-1.28762l-4.48796,-17.00868l-11.30924,-6.81035l0.00188,-0.00899l-0.00899,-0.00188c-0.49121,-0.30047 -0.8257,-0.76537 -0.95047,-1.28953c-0.13378,-0.52604 -0.05966,-1.10239 0.24271,-1.60257l6.58088,-10.88767l-4.80102,-18.20186c-0.80173,-0.07449 -1.60302,-0.19583 -2.41286,-0.36594c-0.81884,-0.17202 -1.61921,-0.38712 -2.39026,-0.65246l-35.95799,45.18148c-0.31614,0.43153 -0.80234,0.73338 -1.38003,0.79992c-1.06684,0.11411 -2.03131,-0.6616 -2.13452,-1.73556l-2.01904,-19.45891c-0.06367,-0.50192 0.05498,-1.02194 0.38912,-1.44969l28.08581,-36.33138c-1.1697,-3.42131 -1.45971,-7.18397 -0.66389,-10.97216c1.17957,-5.61482 4.52411,-10.22053 8.97746,-13.12762c2.21936,-1.44101 4.7088,-2.46822 7.34477,-2.98553zM188.93706,307.97844c0.23816,-1.13378 -0.01236,-2.26685 -0.60231,-3.17058c-0.58995,-0.90373 -1.52645,-1.58901 -2.66019,-1.82721c-1.13376,-0.23819 -2.26685,0.01236 -3.17058,0.60231c-0.90373,0.58995 -1.58903,1.52642 -1.82721,2.66019l-2.2816,10.86073c1.39031,0.00082 2.80629,0.14795 4.219,0.44473c1.4127,0.29678 2.75729,0.73896 4.04129,1.29055zM189.69659,355.30207c-2.733,1.78406 -5.87634,2.9276 -9.19951,3.27234l3.58866,13.59719l0.01466,-0.0251l2.30516,8.70507l-0.03412,-0.01655l3.71911,14.09435l0.05022,0.02934l1.43007,5.40202l-0.05731,-0.04023l2.27005,8.60376l6.96908,-12.24359l-2.53785,-10.19145l-0.03455,0.03032l-0.71866,-2.88499l0.0412,0.02746l-3.7963,-15.24739l-0.0161,-0.01278l-2.13654,-8.61329l0.00188,-0.00899l-1.21296,-4.91484c-0.21066,0.15305 -0.42841,0.29521 -0.64619,0.43735zM185.23257,333.39414c1.15146,1.76392 1.62786,3.96853 1.16096,6.19106c-0.46691,2.22252 -1.79014,4.04909 -3.55408,5.20054c-1.76392,1.15147 -3.96853,1.62786 -6.19106,1.16096c-2.22255,-0.46691 -4.04909,-1.79014 -5.20056,-3.55408c-1.15146,-1.76392 -1.62786,-3.96853 -1.16096,-6.19106c0.46691,-2.22252 1.79014,-4.04907 3.55408,-5.20054c1.76392,-1.15147 3.96853,-1.62786 6.19109,-1.16096c2.22255,0.46691 4.04909,1.79014 5.20054,3.55408zM179.22153,333.65335c-1.16975,-0.24573 -2.33173,0.00811 -3.25723,0.61228c-0.92552,0.60417 -1.62549,1.56575 -1.87122,2.73553c-0.24574,1.16975 0.00811,2.33173 0.61228,3.25723c0.60417,0.92553 1.56575,1.62547 2.7355,1.8712c1.16975,0.24573 2.33173,-0.00811 3.25723,-0.61228c0.92552,-0.60417 1.62547,-1.56575 1.87122,-2.7355c0.24574,-1.16975 -0.00811,-2.33173 -0.61228,-3.25723c-0.60417,-0.92553 -1.56575,-1.62549 -2.7355,-1.87122zM181.81077,321.37282c-4.56205,-0.95838 -9.07971,0.0186 -12.69655,2.38738c-3.61497,2.35978 -6.3362,6.10054 -7.29458,10.66259c-0.95838,4.56205 0.02757,9.08158 2.38737,12.69653c2.35978,3.61494 6.10054,6.33623 10.66259,7.2946c4.56205,0.95838 9.08158,-0.0276 12.69655,-2.38738c0.83842,-0.54731 1.63606,-1.16893 2.36408,-1.86155c0.115,-0.14496 0.24613,-0.27713 0.40043,-0.38564c2.21617,-2.23085 3.83444,-5.10406 4.53006,-8.41538c0.95838,-4.56205 -0.02757,-9.08158 -2.38737,-12.69655c-2.35978,-3.61494 -6.10054,-6.33623 -10.66259,-7.2946zM197.29569,366.66951l1.63319,0.99137c0.91798,0.54988 1.27881,1.64974 0.80418,2.43319c-0.28769,0.47508 -0.82223,0.73859 -1.39568,0.74027l6.39154,25.65757c0.05028,0.20784 0.06458,0.40817 0.05187,0.60279l36.76385,-60.82435l-22.88893,-13.80906l-3.85947,6.38598l11.75543,7.10139c0.91607,0.55887 1.27171,1.63884 0.79518,2.4313c-0.47463,0.78344 -1.60538,0.97809 -2.52146,0.41922l-11.75543,-7.10139l-5.46649,9.02666l5.56842,3.36829c0.91798,0.54988 1.27881,1.64974 0.80418,2.43319c-0.47463,0.78344 -1.61435,0.97619 -2.53233,0.42633l-5.5703,-3.35928l-5.53084,9.15405l11.75543,7.10139c0.91607,0.55887 1.27881,1.64974 0.80418,2.43319c-0.47463,0.78344 -1.61435,0.97619 -2.53233,0.42633l-11.75545,-7.10139l-2.88275,4.77787zM182.65609,382.01811c-3.58644,5.93597 2.12044,-3.51932 -3.71845,6.16193l6.36086,3.84479z" fill="#ffffff" stroke-width="1"/></g></g></svg>