<svg version="1.1" xmlns="http://www.w3.org/2000/svg" xmlns:xlink="http://www.w3.org/1999/xlink" width="52.88242" height="52.88242" viewBox="0,0,52.88242,52.88242"><g transform="translate(-153.55879,-293.55879)"><g data-paper-data="{&quot;isPaintingLayer&quot;:true}" fill-rule="nonzero" stroke-linejoin="miter" stroke-miterlimit="10" stroke-dasharray="" stroke-dashoffset="0" style="mix-blend-mode: normal"><path d="M155.05879,320c0,-13.77465 11.16656,-24.94121 24.9412,-24.94121c13.77464,0 24.94122,11.16656 24.94122,24.94121c0,13.77465 -11.16657,24.94121 -24.94121,24.94121c-13.77464,0 -24.9412,-11.16656 -24.9412,-24.94121z" fill="none" stroke="#ffffff" stroke-width="3" stroke-linecap="butt"/><path d="M158.1184,320.01002c0,-12.09041 9.80122,-21.89162 21.89163,-21.89162c12.09041,0 21.89164,9.80121 21.89164,21.89162c0,12.09041 -9.80123,21.89163 -21.89164,21.89163c-12.09041,0 -21.89163,-9.80122 -21.89163,-21.89163z" fill="none" stroke="#ffffff" stroke-width="3" stroke-linecap="butt"/><path d="M156.60363,320.12896c0,-12.99268 10.53265,-23.52533 23.52533,-23.52533c12.99268,0 23.52534,10.53265 23.52534,23.52533c0,12.99268 -10.53266,23.52533 -23.52534,23.52533c-12.99268,0 -23.52533,-10.53265 -23.52533,-23.52533z" fill-opacity="0.00392" fill="#ffffff" stroke="#000000" stroke-width="3" stroke-linecap="butt"/><path d="M183.16852,336.456l-15.46573,-15.46573l15.90138,-15.90138" fill="none" stroke="#000000" stroke-width="2.5" stroke-linecap="round"/><path d="M181.00028,336.03035l-15.46573,-15.46573l15.90138,-15.90138" fill="none" stroke="#ffffff" stroke-width="2.5" stroke-linecap="round"/><path d="M189.04985,336.02034l-15.46573,-15.46573l15.90139,-15.90138" fill="#000000" stroke="#ffffff" stroke-width="2.5" stroke-linecap="round"/></g></g></svg>