<svg version="1.1" xmlns="http://www.w3.org/2000/svg" xmlns:xlink="http://www.w3.org/1999/xlink" width="183" height="77" viewBox="0,0,183,77"><defs><linearGradient x1="107.48617" y1="320.96192" x2="156.49537" y2="320.96192" gradientUnits="userSpaceOnUse" id="color-1"><stop offset="0" stop-color="#ffffff"/><stop offset="1" stop-color="#1a1a1a"/></linearGradient></defs><g transform="translate(-103.41125,-281.5)"><g data-paper-data="{&quot;isPaintingLayer&quot;:true}" fill-rule="nonzero" stroke-linecap="butt" stroke-linejoin="miter" stroke-miterlimit="10" stroke-dasharray="" stroke-dashoffset="0" style="mix-blend-mode: normal"><path d="M103.41125,358.5v-77h183v77z" fill="#353535" stroke="none" stroke-width="0"/><text transform="translate(152.35016,309.09139) scale(0.58667,0.58667)" font-size="40" xml:space="preserve" fill="#ffffff" fill-rule="nonzero" stroke="none" stroke-width="1" stroke-linecap="butt" stroke-linejoin="miter" stroke-miterlimit="10" stroke-dasharray="" stroke-dashoffset="0" font-family="&quot;OpenSans-ExtraBold&quot;, Sans Serif" font-weight="normal" text-anchor="start" style="mix-blend-mode: normal"><tspan x="0" dy="0">Resolution</tspan></text><path d="M155.98005,324.87027c-0.00033,0.00258 -0.00065,0.00519 -0.00099,0.00782c-0.05207,1.62175 -0.27977,2.80978 -1.14401,4.42885l-0.6475,1.13335c0,0 -0.79142,1.38497 -2.17639,0.59356c-1.38498,-0.79141 -0.59356,-2.17639 -0.59356,-2.17639l0.62863,-1.09986c0.67278,-1.14278 0.75329,-1.88927 0.75847,-3.00012c-0.00212,-0.0343 -0.00212,-0.05357 -0.00212,-0.05357l0.00235,-0.01546c0.00049,-0.24084 -0.00198,-0.49907 -0.00235,-0.78211c0,0 -0.00001,-0.78425 0.5499,-1.25296c0.1247,-0.47912 0.21218,-0.96768 0.25559,-1.458c0,0 0.15872,-1.58723 1.74595,-1.42851c1.58723,0.15872 1.42851,1.74595 1.42851,1.74595c-0.12426,1.14328 -0.40355,2.27712 -0.80248,3.35745z" fill="#1d1d1d" stroke="none" stroke-width="0.5"/><path d="M152.16451,305.40262c-1.24023,0 -1.51618,-0.96428 -1.57758,-1.39338c-0.33417,-0.47306 -0.85757,-1.16151 -1.16006,-1.24071c-1.25911,-0.32969 -2.48297,-0.33955 -3.76124,-0.6428c-0.16292,0.05612 -0.33778,0.0866 -0.51977,0.0866c-0.87314,0 -1.58242,-0.70151 -1.59498,-1.57166c-0.05201,-0.26095 -0.0316,-0.57114 0.11392,-0.93494c0.59243,-1.48106 2.07348,-0.88863 2.07348,-0.88863c1.56955,0.63557 3.2343,0.3854 4.69745,0.92485c1.53446,0.56574 2.10281,1.60843 3.00489,2.7894l0.31903,1.27612c0,0 0,1.59515 -1.59515,1.59515z" fill="#484848" stroke="none" stroke-width="0.5"/><path d="M154.27062,327.16261l-0.19789,0.0439c-0.56121,0.12449 -1.12242,0.24898 -1.68364,0.37348c-0.14812,0.07227 -0.30907,0.09537 -0.47353,0.10504c-0.19692,0.04368 -0.39384,0.08737 -0.59076,0.13105c-0.38987,0.11787 -0.77973,0.23571 -1.16962,0.35348c-0.21987,0.06641 -1.18412,0.38867 -1.42528,0.33621l-0.70889,0.12119c-0.19059,0.03476 -0.40353,-0.2667 -0.47996,-0.68405c-0.07365,-0.40222 0.00584,-0.76818 0.17797,-0.849l0.35595,-0.17824c0.72692,-0.364 1.45225,-0.73393 2.17652,-1.10846c-0.03579,0.0021 -0.0716,0.00407 -0.10744,0.00591c-0.48224,0.02485 -0.94618,0.23824 -1.44671,0.07453l-0.71964,0.03707c-0.186,0.01416 -0.38848,-0.28157 -0.46259,-0.68629c-0.02546,-0.13908 -0.03263,-0.27384 -0.02397,-0.39396c-0.10476,-0.01341 -0.2069,-0.03777 -0.30522,-0.07621c-0.00548,-0.00214 -0.01096,-0.00434 -0.01645,-0.00657l0.00063,0.00576l-0.73074,-0.06987c-0.17938,-0.01063 -0.36842,-0.29847 -0.43947,-0.68647c-0.07796,-0.42574 0.01566,-0.81086 0.20911,-0.86019l0.17415,-0.04442c-0.12151,-0.11276 -0.229,-0.3352 -0.27871,-0.60669c-0.07509,-0.41011 0.00902,-0.78254 0.18821,-0.85342l0.4127,-0.17219c0.32567,-0.13588 0.65078,-0.26788 0.97605,-0.39512c-0.00221,-0.0021 -0.00442,-0.00423 -0.00662,-0.0064l-0.06715,0.00866c-0.18906,0.02748 -0.39836,-0.27202 -0.47399,-0.68503c-0.01334,-0.07282 -0.02165,-0.14446 -0.02531,-0.21344c-0.13512,-0.10053 -0.25829,-0.33852 -0.31259,-0.63499c-0.03257,-0.17787 -0.03519,-0.34866 -0.01309,-0.49083l-0.58997,0.13982c-0.15961,0.03824 -0.33679,-0.16363 -0.43715,-0.4747l-0.50167,0.02194c-0.18568,0.01283 -0.38746,-0.28251 -0.46142,-0.68637c-0.07796,-0.42574 0.01566,-0.81086 0.2091,-0.86019v0l0.42032,-0.10719c0.20925,-0.05336 0.41786,-0.10826 0.62593,-0.1648c0.02164,-0.23489 0.10522,-0.40895 0.23101,-0.44103c0.01023,-0.00261 0.02053,-0.00423 0.03089,-0.00489l0.71601,-0.06083c0.33657,-0.17927 0.71651,-0.13301 1.09033,-0.11853c0.42465,-0.14218 0.84813,-0.29293 1.27116,-0.45323c0.06318,-0.02394 0.1256,-0.05315 0.18756,-0.08545c-0.03232,-0.0131 -0.06463,-0.02601 -0.0969,-0.0387c-0.4793,0.07955 -0.95931,0.15548 -1.44023,0.22716c-0.19366,0.02887 -0.38732,0.05773 -0.58099,0.08659c-0.57781,0.1368 -1.15562,0.27359 -1.73343,0.41041c-0.18406,0.08374 -0.36306,0.21456 -0.5648,0.13376c-0.04907,0.01163 -0.09816,0.02324 -0.14723,0.03487l-0.55997,0.14127c-0.00002,0.00001 -0.00003,0.00001 -0.00005,0.00001c-0.19334,0.04879 -0.4131,-0.25622 -0.49101,-0.68166c-0.07796,-0.42574 0.01566,-0.81086 0.20911,-0.86019l0.07943,-0.02026c0.03618,-0.16805 0.11019,-0.2863 0.21165,-0.31218c0.00169,-0.00043 0.00338,-0.00084 0.00507,-0.00121l0.15724,-0.03564c-0.01422,-0.04992 -0.02649,-0.10229 -0.03644,-0.15662c-0.07796,-0.42574 0.01566,-0.81086 0.20911,-0.86019c0.00315,-0.0008 0.0063,-0.00151 0.00947,-0.00212c-0.0142,-0.03782 -0.02726,-0.0776 -0.03895,-0.11905l-0.32952,0.08362c-0.00001,0 -0.00001,0.00001 -0.00002,0.00001c-0.1934,0.04909 -0.4133,-0.25599 -0.49124,-0.68159c-0.0179,-0.09778 -0.02676,-0.19341 -0.02744,-0.28333l-0.01129,0.00272c-0.1589,0.03857 -0.33533,-0.1611 -0.43607,-0.46973c-0.11816,0.03006 -0.24621,-0.0721 -0.34575,-0.2532c-0.11522,-0.11674 -0.21588,-0.33184 -0.26351,-0.59194c-0.07796,-0.42574 0.01566,-0.81086 0.20911,-0.8602l0.70053,-0.17865c0.21055,-0.15908 0.46702,-0.1191 0.70053,-0.17865c0.03615,-0.00922 0.07228,-0.01841 0.10839,-0.02757l-0.00488,0.00093c-0.17007,0.0341 -0.35863,-0.20106 -0.45237,-0.54836l-0.43463,0.06406c-0.18974,0.03068 -0.40066,-0.26969 -0.47664,-0.68462c-0.07796,-0.42574 0.01566,-0.81086 0.20911,-0.86019l0.70052,-0.17865l0.00121,0.00658l0.00775,-0.0086c1.26499,-0.17787 2.53014,-0.3547 3.79524,-0.53185c1.14876,-0.23143 2.29006,-0.51111 3.43349,-0.77081c0.14396,-0.06989 0.28746,-0.14417 0.44351,-0.09956c0.04107,-0.00909 0.08214,-0.01816 0.12321,-0.02717l0.62421,-0.13704c0.19229,-0.04318 0.40934,0.26042 0.48666,0.68268c0.07796,0.42574 -0.01566,0.81086 -0.20911,0.86019l-0.24239,0.06182c-0.01237,0.09959 -0.03749,0.17365 -0.06724,0.22868c0.1717,0.03416 0.34684,0.31313 0.41462,0.68325c0.07029,0.38385 0.0011,0.73469 -0.15498,0.83616l-0.36861,0.2583c-0.1908,0.13265 -0.38626,0.24706 -0.58536,0.34693c0.06018,0.11332 0.10929,0.25583 0.13848,0.41525c0.0143,0.07808 0.02282,0.15479 0.02602,0.22831l0.38902,-0.03755c0.18781,-0.0219 0.39428,0.27606 0.46928,0.68565c0.07796,0.42574 -0.01566,0.81086 -0.20911,0.86019c-0.00502,0.00128 -0.01007,0.00232 -0.01513,0.00313l-0.70842,0.12112c-0.21609,0.13933 -0.47391,0.08189 -0.71108,0.12156c-0.05221,0.00874 -0.10447,0.01727 -0.15676,0.02566c0.06637,0.01619 0.13297,0.03322 0.1998,0.05115l0.30259,0.08114c0.10171,-0.01709 0.20477,-0.0213 0.31164,0.01045l0.71542,-0.07182c0.13398,-0.01609 0.27754,0.13079 0.37614,0.36497c0.22816,-0.02632 0.44852,-0.12972 0.68701,-0.05394l0.71726,-0.05695c0.18713,-0.01895 0.39209,0.27817 0.46676,0.68591c0.07796,0.42574 -0.01566,0.81086 -0.2091,0.8602c-0.00176,0.00045 -0.00353,0.00087 -0.0053,0.00126l-0.39447,0.08893l-0.0003,-0.0017l-0.0014,0.00207c-0.80253,0.16335 -1.60527,0.32202 -2.40913,0.47315c0.01356,0.02429 0.0266,0.05004 0.03904,0.07712c0.39976,-0.15323 0.80238,-0.24923 1.18565,-0.17184l0.70053,-0.17865c0.19344,-0.04933 0.41346,0.2558 0.49142,0.68155c0.07751,0.42324 -0.01457,0.80634 -0.20571,0.85929l-0.41808,0.11736c-0.03509,0.00985 -0.07018,0.01968 -0.10528,0.02951c0.09706,0.12294 0.17927,0.316 0.22093,0.5435c0.07796,0.42574 -0.01566,0.81086 -0.20911,0.8602c-0.01427,0.00364 -0.02868,0.00535 -0.04317,0.00523l-0.48078,0.00908c0.02032,0.06361 0.03742,0.13173 0.05052,0.20325c0.0769,0.41995 -0.01314,0.80038 -0.20127,0.858l-0.05297,0.01667c0.01233,0.04505 0.02306,0.09201 0.03194,0.14053c0.0002,0.0011 0.00041,0.00219 0.00061,0.0033c0.13683,-0.00285 0.27366,-0.0057 0.41048,-0.00856l0.00485,0.00385l-0.00045,-0.00376l0.4915,0.01488c0.18245,-0.00027 0.37753,0.29119 0.44997,0.68677c0.07796,0.42574 -0.01566,0.81086 -0.2091,0.86019c-0.0017,0.00043 -0.00341,0.00085 -0.00512,0.00123l-0.70327,0.1592c-0.21373,0.14746 -0.46933,0.10624 -0.704,0.15936c-0.68378,0.15479 -1.38058,0.26588 -2.06515,0.43006c0.69076,-0.07687 1.3798,-0.16376 2.06734,-0.26459c0.17161,-0.07069 0.34613,-0.11446 0.52913,-0.08047c0.10058,-0.01585 0.20112,-0.03202 0.30164,-0.04854l0.55294,-0.09081c0.19035,-0.03359 0.40271,0.26756 0.47901,0.68422c0.07796,0.42574 -0.01566,0.81086 -0.2091,0.86019l-0.42969,0.10958c0.03087,0.08226 0.05628,0.17372 0.0742,0.27155c0.00234,0.01277 0.00452,0.02549 0.00655,0.03818c0.03263,0.08489 0.05944,0.17989 0.0781,0.28181c0.01495,0.08163 0.02358,0.16177 0.02642,0.23833c0.0743,-0.0149 0.14862,-0.02984 0.22298,-0.04478l0.40848,-0.08961c0.19227,-0.04315 0.40932,0.26046 0.48663,0.68269c0.07315,0.39951 -0.00477,0.76325 -0.1745,0.84732l-0.66004,0.34963c-0.07044,0.07492 -0.1457,0.14266 -0.2247,0.20452c0.06484,-0.00507 0.35484,0.01195 0.47533,0.69562c0.13607,0.77208 -0.21621,0.85023 -0.21621,0.85023z" data-paper-data="{&quot;index&quot;:null}" fill="#484848" stroke="none" stroke-width="0.5"/><path d="M139.12616,331.37486c-0.1063,-0.89324 0.30474,-1.05418 0.40028,-1.07932c-0.1392,-0.03738 -0.27542,-0.08375 -0.40763,-0.14122l-1.09453,-0.10805c-0.27907,-0.02066 -0.54035,-0.42726 -0.59851,-0.95057c-0.06146,-0.55307 0.12706,-1.02879 0.42187,-1.069l0.62547,-0.08795c0.1133,-0.01769 0.22655,-0.03537 0.33973,-0.05307c-0.02726,-0.09489 -0.04762,-0.19694 -0.05951,-0.30386c-0.01483,-0.1335 -0.01511,-0.26249 -0.00283,-0.38194c-0.00227,-0.01647 -0.00433,-0.03308 -0.00619,-0.04979c-0.01424,-0.12815 -0.01506,-0.25214 -0.00425,-0.36752l-0.66422,0.07382c-0.29903,0.03323 -0.59168,-0.39191 -0.65365,-0.94957c-0.06065,-0.54578 0.12212,-1.01622 0.41025,-1.06718l0.83419,-0.15631c0.15164,-0.02841 0.30319,-0.05725 0.45466,-0.0865c0.24984,-0.12995 0.51934,-0.16084 0.79563,-0.15742c1.03232,-0.2091 2.06106,-0.43597 3.08819,-0.6759c-1.05395,0.13029 -2.10381,0.33135 -3.15279,0.47274c-0.36,0.04852 -0.71153,0.22239 -1.07999,0.14557l-1.07887,0.14542c-0.00262,0.00036 -0.00524,0.00069 -0.00788,0.00098c-0.29903,0.03323 -0.59168,-0.39191 -0.65365,-0.94957c-0.05758,-0.51816 0.10426,-0.96842 0.36735,-1.05627l0.70235,-0.25569l0.00088,0.00482l0.00542,-0.00704c0.19839,-0.06264 0.39678,-0.12528 0.59517,-0.18792c-0.00017,-0.00144 -0.00033,-0.00288 -0.00048,-0.00432c-0.00706,-0.06356 -0.01082,-0.12611 -0.0115,-0.18709l-0.08318,0.00524c-0.29475,0.02055 -0.58033,-0.40059 -0.64145,-0.95067c-0.01041,-0.09369 -0.01365,-0.18516 -0.01042,-0.27266l-0.6967,0.22125c-0.02083,0.00715 -0.0423,0.01203 -0.06437,0.01448c-0.29903,0.03323 -0.59168,-0.39191 -0.65365,-0.94957c-0.03312,-0.29799 0.00634,-0.57353 0.09589,-0.77058c-0.05461,0.00496 -0.10922,0.0099 -0.16383,0.01483l-0.65067,0.05869c-0.2972,0.0277 -0.58678,-0.39572 -0.64839,-0.95011c-0.06197,-0.55766 0.1302,-1.03667 0.42924,-1.0699l1.08288,-0.12034c0.52075,-0.27974 1.14039,-0.35706 1.77935,-0.3631c0.00684,-0.03907 0.0151,-0.07684 0.0247,-0.11306c-1.22058,0.20389 -2.4426,0.39803 -3.66625,0.58635l-0.00286,-0.00186l0.00026,0.00223l-0.605,0.08202c-0.00271,0.00038 -0.00542,0.00072 -0.00814,0.00102c-0.29903,0.03323 -0.59168,-0.39191 -0.65365,-0.94957c-0.05935,-0.53409 0.1144,-0.99604 0.3919,-1.06333l1.05717,-0.27706c0.31273,-0.20781 0.67269,-0.18802 1.01233,-0.26613c0.04622,-0.33367 0.19301,-0.58243 0.39271,-0.62753l1.06061,-0.25802c0.14104,-0.09043 0.29133,-0.13509 0.44492,-0.16336l0.40292,-0.24534c0.08899,-0.05419 0.17801,-0.10717 0.26704,-0.15902c-0.07881,0.01503 -0.15762,0.02985 -0.23645,0.04442c-0.3581,0.06617 -0.7062,0.26091 -1.07472,0.19517l-1.07071,0.19443c-0.00762,0.00145 -0.01532,0.00262 -0.02309,0.00349c-0.29903,0.03323 -0.59168,-0.39191 -0.65365,-0.94957c-0.05962,-0.53649 0.11597,-1.0002 0.39565,-1.06422l0.57611,-0.14213c-0.0255,-0.09135 -0.04462,-0.18916 -0.05598,-0.29143c-0.02321,-0.20882 -0.01078,-0.4066 0.02955,-0.57409c-0.32787,-0.02576 -0.65645,-0.07104 -0.98579,-0.14085l-0.63708,-0.13734c-0.26652,-0.04851 -0.50991,-0.44359 -0.56579,-0.94638c-0.05387,-0.48481 0.08432,-0.91017 0.31782,-1.03487c-0.06541,-0.05282 -0.13196,-0.13115 -0.19056,-0.24681l-0.37469,0.04164c-0.29903,0.03323 -0.59168,-0.39191 -0.65365,-0.94957c-0.06146,-0.5531 0.12707,-1.02882 0.4219,-1.069l0.95584,-0.13427c0.06289,-0.00884 0.12581,-0.01762 0.18872,-0.02635c0.20667,-0.12991 0.44392,-0.10852 0.68004,-0.09274c1.75448,-0.23538 3.51405,-0.44534 5.26463,-0.71783c1.89604,-0.39501 3.79203,-0.79043 5.6882,-1.18451l0.01469,0.00676l-0.00096,-0.00861l1.08288,-0.12034c0.29903,-0.03323 0.59168,0.39191 0.65365,0.94957c0.0604,0.5435 -0.12061,1.0123 -0.40665,1.06652l-0.6527,0.1318c0.0071,0.46949 -0.16838,0.84783 -0.42749,0.88837l-0.00741,0.00121c0.05581,-0.00627 0.11165,-0.01251 0.16752,-0.01871c0.36096,-0.04011 0.71426,-0.21288 1.08288,-0.12034l1.08288,-0.12034c0.29903,-0.03323 0.59168,0.39191 0.65365,0.94957c0.03786,0.3407 -0.01914,0.65206 -0.13741,0.85032c-0.06931,0.2693 -0.21207,0.45596 -0.39468,0.47635c-0.01881,0.42563 -0.19135,0.75477 -0.43618,0.78445l-0.01738,0.00214c0.03585,0.11014 0.06224,0.23123 0.07648,0.35931c0.06195,0.55748 -0.13007,1.03637 -0.42894,1.06988c-0.00001,0 -0.00002,0.00001 -0.00004,0.00001l-0.50921,0.0571c0.00011,0.05627 -0.00241,0.11116 -0.0074,0.16423c0.00481,-0.00078 0.00965,-0.00144 0.01452,-0.00198c0.29903,-0.03323 0.59168,0.39191 0.65365,0.94957c0.00791,0.07117 0.01168,0.14106 0.01161,0.20891l0.24125,-0.03246c0.0026,-0.00036 0.0052,-0.00068 0.00782,-0.00098c0.15684,-0.01743 0.31193,0.09125 0.4329,0.279l0.12279,-0.01365c0.29903,-0.03323 0.59168,0.3919 0.65365,0.94957c0.06192,0.55727 -0.12992,1.036 -0.42858,1.06984c-0.00003,0 -0.00006,0.00001 -0.00008,0.00001l-0.86498,0.09806c-0.0755,0.00952 -0.151,0.01904 -0.2265,0.02856c-0.25768,0.19618 -0.56926,0.12291 -0.86886,0.10958c-0.88887,0.11212 -1.77773,0.22429 -2.6666,0.33644c-0.29096,0.05834 -0.58192,0.11667 -0.87289,0.17501c-0.72254,0.14486 -1.44551,0.28411 -2.16894,0.41857c-0.04132,0.0311 -0.08259,0.06248 -0.12382,0.0941c0.10254,0.00949 0.20447,0.01501 0.30534,0.01372c0.67538,-0.00865 1.34751,-0.02917 2.01782,-0.06074c0.53289,-0.19833 1.06159,-0.43844 1.62013,-0.38214l1.05696,-0.27172c0.01519,-0.0042 0.03071,-0.0072 0.04653,-0.00896c0.19444,-0.0216 0.38619,0.1506 0.51357,0.42703c0.32306,-0.03149 0.64623,-0.06525 0.96969,-0.1012l0.64974,-0.0722v0c0.29903,-0.03323 0.59168,0.39191 0.65365,0.94957c0.05878,0.52901 -0.11112,0.98725 -0.38401,1.06131l-0.73209,0.21564c-0.01727,0.42844 -0.18999,0.76063 -0.43571,0.79105l-0.90764,0.11434c0.09007,0.16296 0.15623,0.37282 0.18212,0.60582c0.04315,0.38834 -0.03693,0.73854 -0.19052,0.92662c0.02298,0.086 0.04033,0.17752 0.05092,0.27291c0.06012,0.54098 -0.11893,1.00794 -0.40269,1.06574l-0.10033,0.02187c-0.00229,0.00371 -0.00459,0.00739 -0.00693,0.01102c0.52094,-0.00177 1.04361,0.00233 1.56866,0.0109l0.66537,0.01086c0.28731,-0.00002 0.56106,0.4142 0.62076,0.9514c0.03952,0.35561 -0.02431,0.67924 -0.15329,0.87569l0.2692,-0.02991c0.29903,-0.03323 0.59168,0.3919 0.65365,0.94957c0.05648,0.50824 -0.09813,0.95115 -0.35233,1.05083l-1.02467,0.43849l-0.00147,-0.00734c-0.00699,0.00537 -0.01399,0.0107 -0.02102,0.01596c-0.12598,0.09446 -0.26322,0.17358 -0.40873,0.24058c0.06166,0.14254 0.10653,0.31058 0.12678,0.49276c0.05891,0.53013 -0.11185,0.98918 -0.38574,1.06177l-1.05247,0.3025c-0.65443,0.44184 -1.41053,0.40541 -2.11579,0.60811c-0.05242,0.01507 -0.10485,0.02996 -0.15728,0.0447c1.19731,0.10742 2.3943,0.20872 3.59112,0.30201l0.58605,0.04569c0.28119,0.01552 0.54563,0.42408 0.60418,0.95093c0.06075,0.54668 -0.12273,1.01778 -0.41168,1.06743l-1.07142,0.19456c-0.32613,0.18063 -1.84795,0.25301 -2.19206,0.27815c-0.6102,0.04457 -1.22041,0.08905 -1.83062,0.13349c-0.30173,0.04181 -0.60345,0.08362 -0.90518,0.12543c-0.24101,0.06767 -0.48246,0.11723 -0.72555,0.10055c-0.85991,0.11916 -1.71981,0.23832 -2.57972,0.35748l-0.30321,0.04202c0,0 -0.53976,0.0748 -0.6598,-0.93396z" fill="#484848" stroke="none" stroke-width="0.5"/><path d="M153.58813,328.01847l-0.26409,0.0552c-0.74898,0.15655 -1.49796,0.31309 -2.24693,0.46964c-0.19768,0.09088 -0.41247,0.11993 -0.63195,0.13208c-0.2628,0.05493 -0.5256,0.10986 -0.7884,0.16479c-0.5203,0.14821 -1.0406,0.2964 -1.56093,0.44449c-0.29343,0.08351 -1.58029,0.48874 -1.90214,0.42277l-0.94607,0.15239c-0.25436,0.04371 -0.53855,-0.33536 -0.64053,-0.86017c-0.09829,-0.50577 0.0078,-0.96595 0.23751,-1.06757l0.47504,-0.22412c0.97011,-0.45771 1.93814,-0.9229 2.90471,-1.39384c-0.04776,0.00264 -0.09555,0.00511 -0.14338,0.00743c-0.64358,0.03124 -1.26274,0.29957 -1.93073,0.09372l-0.96041,0.04662c-0.24822,0.01781 -0.51845,-0.35407 -0.61736,-0.86298c-0.03399,-0.1749 -0.04354,-0.34434 -0.03199,-0.4954c-0.13981,-0.01686 -0.27613,-0.0475 -0.40734,-0.09583c-0.00732,-0.00269 -0.01463,-0.00545 -0.02195,-0.00826l0.00083,0.00725l-0.97523,-0.08787c-0.2394,-0.01337 -0.49168,-0.37531 -0.5865,-0.86321c-0.10404,-0.53535 0.0209,-1.01962 0.27907,-1.08166l0.23241,-0.05584c-0.16217,-0.14179 -0.30561,-0.42151 -0.37196,-0.76289c-0.10022,-0.5157 0.01203,-0.98401 0.25118,-1.07314l0.55078,-0.21652c0.43462,-0.17086 0.86851,-0.33684 1.3026,-0.49685c-0.00295,-0.00264 -0.0059,-0.00532 -0.00884,-0.00805l-0.08962,0.01089c-0.25231,0.03456 -0.53164,-0.34206 -0.63257,-0.86139c-0.0178,-0.09157 -0.02889,-0.18165 -0.03377,-0.26838c-0.18033,-0.12641 -0.34471,-0.42567 -0.41717,-0.79847c-0.04347,-0.22367 -0.04697,-0.43843 -0.01747,-0.6172l-0.78736,0.17582c-0.21301,0.04809 -0.44947,-0.20576 -0.5834,-0.59692l-0.66951,0.0276c-0.2478,0.01614 -0.5171,-0.35524 -0.61579,-0.86309c-0.10404,-0.53535 0.0209,-1.01962 0.27906,-1.08166v0l0.56094,-0.13479c0.27925,-0.0671 0.55766,-0.13614 0.83534,-0.20724c0.02888,-0.29536 0.14042,-0.51423 0.3083,-0.55458c0.01365,-0.00328 0.0274,-0.00532 0.04122,-0.00614l0.95557,-0.0765c0.44917,-0.22543 0.95623,-0.16725 1.45512,-0.14905c0.56674,-0.17878 1.13189,-0.36835 1.69645,-0.56991c0.08432,-0.0301 0.16762,-0.06684 0.25032,-0.10745c-0.04314,-0.01647 -0.08625,-0.03271 -0.12932,-0.04867c-0.63965,0.10004 -1.28026,0.19551 -1.92208,0.28564c-0.25846,0.03629 -0.51691,0.07259 -0.77537,0.10888c-0.77113,0.17201 -1.54226,0.34402 -2.31338,0.51607c-0.24564,0.1053 -0.48453,0.2698 -0.75375,0.1682c-0.0655,0.01462 -0.13099,0.02923 -0.19649,0.04385l-0.74732,0.17765c-0.00003,0.00001 -0.00004,0.00001 -0.00007,0.00001c-0.25803,0.06135 -0.55131,-0.32218 -0.65527,-0.85715c-0.10404,-0.53535 0.0209,-1.01962 0.27907,-1.08166l0.10601,-0.02547c0.04829,-0.21131 0.14705,-0.36001 0.28246,-0.39255c0.00225,-0.00054 0.00451,-0.00105 0.00678,-0.00152l0.20986,-0.04481c-0.01899,-0.06278 -0.03535,-0.12863 -0.04863,-0.19695c-0.10404,-0.53535 0.0209,-1.01962 0.27907,-1.08166c0.0042,-0.00101 0.00842,-0.0019 0.01264,-0.00267c-0.01896,-0.04757 -0.03638,-0.09758 -0.05199,-0.1497l-0.43976,0.10516c-0.00001,0.00001 -0.00002,0.00001 -0.00003,0.00001c-0.25811,0.06173 -0.55157,-0.32189 -0.65558,-0.85707c-0.0239,-0.12295 -0.03571,-0.24321 -0.03661,-0.35627l-0.01506,0.00341c-0.21207,0.04851 -0.44752,-0.20258 -0.58195,-0.59066c-0.15769,0.0378 -0.32859,-0.09066 -0.46144,-0.31839c-0.15377,-0.1468 -0.28811,-0.41726 -0.35167,-0.74433c-0.10404,-0.53535 0.0209,-1.01963 0.27907,-1.08166l0.9349,-0.22465c0.28099,-0.20003 0.62327,-0.14976 0.9349,-0.22464c0.04824,-0.01159 0.09646,-0.02315 0.14466,-0.03467l-0.00651,0.00118c-0.22698,0.04288 -0.47861,-0.25282 -0.60372,-0.68954l-0.58004,0.08055c-0.25322,0.03858 -0.5347,-0.33913 -0.6361,-0.86088c-0.10404,-0.53535 0.0209,-1.01962 0.27907,-1.08166l0.9349,-0.22464l0.00161,0.00827l0.01034,-0.01082c1.68821,-0.22366 3.37664,-0.44602 5.065,-0.66878c1.5331,-0.29102 3.05624,-0.64269 4.58223,-0.96926c0.19213,-0.08788 0.38363,-0.18129 0.5919,-0.12519c0.0548,-0.01144 0.10961,-0.02283 0.16443,-0.03417l0.83305,-0.17233c0.25661,-0.05431 0.54629,0.32748 0.64948,0.85844c0.10404,0.53535 -0.0209,1.01962 -0.27907,1.08166l-0.32349,0.07773c-0.01651,0.12523 -0.05004,0.21836 -0.08974,0.28755c0.22915,0.04296 0.46288,0.39375 0.55333,0.85916c0.09381,0.48268 0.00147,0.92384 -0.20683,1.05144l-0.49194,0.3248c-0.25464,0.16681 -0.51548,0.31067 -0.78119,0.43625c0.08031,0.14249 0.14585,0.32169 0.18481,0.52216c0.01908,0.09818 0.03046,0.19464 0.03473,0.28709l0.51918,-0.04722c0.25064,-0.02753 0.5262,0.34714 0.62629,0.86217c0.10404,0.53535 -0.0209,1.01962 -0.27907,1.08166c-0.00671,0.00161 -0.01344,0.00293 -0.02019,0.00394l-0.94544,0.15229c-0.28839,0.1752 -0.63247,0.10298 -0.94899,0.15286c-0.06968,0.01098 -0.13942,0.02172 -0.2092,0.03227c0.08858,0.02035 0.17745,0.04177 0.26664,0.06432l0.40383,0.10204c0.13573,-0.0215 0.27327,-0.0268 0.41591,0.01313l0.95478,-0.09031c0.1788,-0.02022 0.37041,0.16447 0.50199,0.45893c0.30449,-0.0331 0.59858,-0.16311 0.91686,-0.06782l0.95724,-0.07162c0.24974,-0.02383 0.52327,0.34979 0.62292,0.86251c0.10404,0.53535 -0.0209,1.01962 -0.27906,1.08166c-0.00235,0.00056 -0.00471,0.00109 -0.00706,0.00158l-0.52645,0.11183l-0.0004,-0.00214l-0.00186,0.00261c-1.07104,0.2054 -2.14233,0.40493 -3.21515,0.59496c0.0181,0.03054 0.03551,0.06292 0.05211,0.09697c0.53351,-0.19268 1.07083,-0.31339 1.58233,-0.21607l0.9349,-0.22464c0.25817,-0.06203 0.55179,0.32166 0.65583,0.85701c0.10343,0.53221 -0.01944,1.01395 -0.27453,1.08053l-0.55795,0.14758c-0.04683,0.01238 -0.09367,0.02475 -0.1405,0.03711c0.12953,0.15459 0.23925,0.39736 0.29485,0.68343c0.10404,0.53535 -0.0209,1.01962 -0.27907,1.08166c-0.01905,0.00457 -0.03828,0.00673 -0.05762,0.00657l-0.64163,0.01142c0.02711,0.07999 0.04994,0.16565 0.06742,0.25558c0.10263,0.52807 -0.01754,1.00645 -0.2686,1.07889l-0.0707,0.02096c0.01645,0.05664 0.03077,0.1157 0.04264,0.17672c0.00027,0.00138 0.00053,0.00276 0.0008,0.00415c0.18261,-0.00359 0.36521,-0.00717 0.54782,-0.01076l0.00647,0.00484l-0.00061,-0.00473l0.65594,0.01871c0.2435,-0.00034 0.50384,0.36616 0.60052,0.86359c0.10404,0.53535 -0.0209,1.01962 -0.27907,1.08166c-0.00228,0.00055 -0.00455,0.00107 -0.00683,0.00154l-0.93855,0.20018c-0.28524,0.18543 -0.62636,0.1336 -0.93954,0.2004c-0.91255,0.19464 -1.84248,0.33433 -2.75608,0.54078c0.92186,-0.09666 1.84143,-0.20591 2.75901,-0.33271c0.22902,-0.08889 0.46195,-0.14393 0.70616,-0.1012c0.13423,-0.01993 0.26841,-0.04027 0.40256,-0.06103l0.73793,-0.11419c0.25404,-0.04224 0.53744,0.33644 0.63927,0.86038c0.10404,0.53535 -0.0209,1.01962 -0.27906,1.08166l-0.57345,0.1378c0.0412,0.10344 0.07512,0.21844 0.09903,0.34146c0.00312,0.01605 0.00604,0.03206 0.00875,0.04801c0.04355,0.10674 0.07932,0.22621 0.10423,0.35437c0.01995,0.10265 0.03148,0.20342 0.03527,0.2997c0.09915,-0.01874 0.19835,-0.03752 0.29758,-0.05631l0.54514,-0.11269c0.2566,-0.05427 0.54626,0.32752 0.64945,0.85846c0.09763,0.50236 -0.00637,0.95975 -0.23289,1.06546l-0.88086,0.43964c-0.09401,0.09421 -0.19445,0.17939 -0.29988,0.25718c0.08653,-0.00637 0.47357,0.01503 0.63436,0.87471c0.18159,0.97086 -0.28854,1.06912 -0.28854,1.06912z" data-paper-data="{&quot;index&quot;:null}" fill="#484848" stroke="none" stroke-width="0.5"/><path d="M131.08365,334.09835c-0.00886,-1.03822 0.53178,-1.17044 0.65572,-1.18711c-0.17022,-0.06063 -0.33543,-0.13118 -0.49402,-0.21395l-1.36449,-0.26349c-0.34886,-0.05928 -0.62124,-0.55902 -0.62124,-1.16674c0,-0.64229 0.30425,-1.16397 0.68149,-1.17252l0.80071,-0.02116c0.14529,-0.00585 0.29051,-0.01169 0.43566,-0.01757c-0.02108,-0.11232 -0.03245,-0.23199 -0.03245,-0.35616c0,-0.15504 0.01773,-0.30304 0.04993,-0.4385c-0.00055,-0.01919 -0.00082,-0.0385 -0.00082,-0.05792c0,-0.14881 0.01633,-0.29116 0.04613,-0.42214h-0.84757c-0.38157,0 -0.69089,-0.525 -0.69089,-1.17262c0,-0.63381 0.29628,-1.15018 0.66659,-1.17191l1.07336,-0.07296c0.19512,-0.01326 0.39018,-0.02702 0.58519,-0.04126c0.33312,-0.11722 0.67713,-0.1183 1.02491,-0.07916c1.33049,-0.10827 2.65895,-0.23738 3.98722,-0.38167c-1.34673,0.01511 -2.69819,0.11191 -4.0402,0.14038c-0.46056,0.00977 -0.92801,0.16441 -1.38168,0.02932l-1.38024,0.02928c-0.00335,0.00008 -0.00671,0.00012 -0.01007,0.00012c-0.38157,0 -0.6909,-0.525 -0.6909,-1.17262c0,-0.60175 0.26706,-1.09763 0.61099,-1.16486l0.92111,-0.20378l0.00043,0.00564l0.00781,-0.00738c0.25884,-0.04657 0.51768,-0.09313 0.77651,-0.1397c-0.00001,-0.00167 -0.00001,-0.00334 -0.00001,-0.00502c0,-0.07382 0.00402,-0.14604 0.0117,-0.21607l-0.10557,-0.00459c-0.3744,-0.01401 -0.67537,-0.53351 -0.67537,-1.17233c0,-0.1088 0.00874,-0.21413 0.02506,-0.3141l-0.90916,0.16498c-0.02726,0.00555 -0.05501,0.00841 -0.08316,0.00841c-0.38157,0 -0.6909,-0.525 -0.6909,-1.17262c0,-0.34606 0.08832,-0.65712 0.2288,-0.87175c-0.06952,-0.00128 -0.13906,-0.00256 -0.20858,-0.00387l-0.82837,-0.01562c-0.37848,-0.00611 -0.68418,-0.52875 -0.68418,-1.17257c0,-0.64762 0.30933,-1.17262 0.6909,-1.17262h1.38179c0.69557,-0.25452 1.48744,-0.26423 2.29366,-0.1897c0.01409,-0.04396 0.0298,-0.08621 0.04697,-0.12654c-1.56705,0.0783 -3.13456,0.14521 -4.70331,0.20525l-0.00335,-0.0025l0.00002,0.00258l-0.77407,0.01697c-0.00346,0.00009 -0.00694,0.00013 -0.01041,0.00013c-0.38157,0 -0.6909,-0.525 -0.6909,-1.17262c0,-0.62024 0.28373,-1.12802 0.64291,-1.16984l1.37135,-0.18306c0.42329,-0.19852 0.87423,-0.12993 1.31329,-0.17624c0.105,-0.37688 0.32486,-0.64352 0.58289,-0.66981l1.37299,-0.16078c0.19045,-0.08576 0.38613,-0.11783 0.58368,-0.13068l0.54224,-0.23007c0.11976,-0.05082 0.23938,-0.10026 0.35886,-0.14838c-0.10143,0.00718 -0.20285,0.01414 -0.30426,0.0208c-0.46063,0.03026 -0.92669,0.20927 -1.38199,0.08688l-1.37682,0.08655c-0.00981,0.0007 -0.01968,0.00106 -0.02959,0.00106c-0.38157,0 -0.6909,-0.525 -0.6909,-1.17262c0,-0.62304 0.28628,-1.13259 0.64777,-1.17037l0.74608,-0.0896c-0.01935,-0.10804 -0.02975,-0.22268 -0.02975,-0.34145c0,-0.2425 0.04337,-0.46781 0.11766,-0.6548c-0.40967,-0.07135 -0.81748,-0.16517 -1.22282,-0.28725l-0.78378,-0.23877c-0.32914,-0.08963 -0.58059,-0.57386 -0.58059,-1.15776c0,-0.56301 0.23377,-1.03335 0.54557,-1.14664c-0.07504,-0.06894 -0.14795,-0.16727 -0.20562,-0.30742h-0.47812c-0.38157,0 -0.6909,-0.525 -0.6909,-1.17262c0,-0.64231 0.30428,-1.16401 0.68153,-1.17252l1.22362,-0.03218c0.08052,-0.00211 0.16104,-0.00417 0.24156,-0.00618c0.27869,-0.12267 0.57474,-0.0679 0.87016,-0.01968c2.24442,-0.04635 4.49171,-0.0629 6.73642,-0.15231c2.44522,-0.21142 4.89042,-0.42333 7.33568,-0.63366l0.01758,0.00962v-0.01h1.38179c0.38157,0 0.69089,0.525 0.69089,1.17262c0,0.63117 -0.29381,1.14588 -0.66197,1.17162l-0.84117,0.06798c-0.05681,0.53948 -0.33099,0.95112 -0.66327,0.96459l-0.00951,0.00045c0.07123,-0.00008 0.14248,-0.00011 0.21378,-0.00011c0.4606,0 0.93012,-0.15315 1.38179,0h1.38179c0.38157,0 0.6909,0.525 0.6909,1.17262c0,0.39567 -0.11546,0.74556 -0.29231,0.95792c-0.12509,0.30009 -0.33117,0.49602 -0.56421,0.49612c-0.08332,0.48586 -0.3469,0.84143 -0.65967,0.84427l-0.02221,0.00024c0.02976,0.13092 0.04607,0.27319 0.04607,0.42192c0,0.64741 -0.30912,1.17229 -0.69053,1.17262c-0.00001,0 -0.00003,0 -0.00004,0l-0.64984,0.00059c-0.00775,0.06457 -0.01861,0.12721 -0.03232,0.18744c0.00618,-0.00027 0.01237,-0.00041 0.01858,-0.00041c0.38157,0 0.6909,0.525 0.6909,1.17262c0,0.08265 -0.00504,0.1633 -0.01462,0.24113l0.30864,-0.00649c0.00332,-0.00008 0.00665,-0.00012 0.00999,-0.00012c0.20014,0 0.3804,0.14443 0.50657,0.37524h0.15668c0.38157,0 0.69089,0.525 0.69089,1.17262c0,0.64716 -0.30888,1.17187 -0.69007,1.17262c-0.00004,0 -0.00007,0 -0.00011,0l-1.10402,0.00223c-0.09649,0.0013 -0.19299,0.00259 -0.28949,0.00389c-0.35229,0.1922 -0.73476,0.06843 -1.11052,0.01494c-1.1361,0.0153 -2.27219,0.03066 -3.40828,0.046c-0.37492,0.02982 -0.74984,0.05965 -1.12476,0.08948c-0.93103,0.07407 -1.86181,0.14164 -2.7925,0.20366c-0.05644,0.03041 -0.11285,0.06115 -0.16925,0.09217c0.12792,0.02397 0.25563,0.04329 0.38296,0.05466c0.8525,0.07618 1.70257,0.13832 2.5519,0.18755c0.69948,-0.15958 1.39951,-0.36762 2.09563,-0.23183l1.37032,-0.17697c0.01974,-0.00288 0.03972,-0.00435 0.05991,-0.00435c0.24812,0 0.46568,0.22199 0.58752,0.55533c0.41161,0.00506 0.8237,0.00753 1.23644,0.00753h0.82907v0c0.38157,0 0.6909,0.525 0.6909,1.17262c0,0.61435 -0.27836,1.11835 -0.63269,1.16852l-0.95297,0.15404c-0.08177,0.48928 -0.34602,0.84833 -0.66,0.85191l-1.16006,0.01546c0.0907,0.19842 0.1447,0.4476 0.1447,0.71818c0,0.45099 -0.15,0.84251 -0.36995,1.03868c0.01691,0.10159 0.02596,0.20879 0.02596,0.31956c0,0.62825 -0.2911,1.1411 -0.65685,1.17122l-0.12953,0.0123c-0.00341,0.00397 -0.00683,0.00789 -0.01027,0.01176c0.65688,0.06437 1.3151,0.13572 1.97571,0.21249l0.83715,0.09728c0.36215,0.03661 0.64918,0.54668 0.64918,1.17053c0,0.41298 -0.12579,0.77608 -0.31587,0.985h0.34351c0.38157,0 0.69089,0.525 0.69089,1.17262c0,0.59022 -0.25692,1.07859 -0.5913,1.16053l-1.35297,0.37238l-0.00082,-0.00861c-0.00956,0.00527 -0.01914,0.01049 -0.02873,0.01564c-0.17203,0.0923 -0.3561,0.16557 -0.54889,0.22388c0.05776,0.17137 0.09078,0.36986 0.09078,0.58143c0,0.61564 -0.27953,1.12048 -0.63493,1.16883l-1.36897,0.21284c-0.88677,0.42342 -1.8347,0.28524 -2.75205,0.42787c-0.06818,0.0106 -0.13635,0.021 -0.20452,0.03123c1.49412,0.27586 2.98869,0.54467 4.48417,0.80425l0.7323,0.12711c0.35226,0.05365 0.62834,0.55604 0.62834,1.16788c0,0.63487 -0.29727,1.15189 -0.66844,1.17201l-1.37774,0.0866c-0.43637,0.16563 -2.36471,0.05466 -2.80197,0.03964c-0.77538,-0.02665 -1.55075,-0.05342 -2.32613,-0.08023c-0.38617,0.0095 -0.77234,0.019 -1.15851,0.0285c-0.31326,0.0469 -0.62454,0.07297 -0.92861,0.02284c-1.10057,0.02707 -2.20114,0.05414 -3.30171,0.08121l-0.38807,0.00955c0,0 -0.69082,0.01699 -0.70083,-1.15551z" fill="#484848" stroke="none" stroke-width="0.5"/><path d="M154.86023,327.80077l-0.16204,1.13357c-0.16584,0.86637 -0.10211,1.8106 -0.49753,2.59912c-0.31947,0.63707 -1.05048,0.9646 -1.54628,1.47656c-3.66158,3.78091 -8.70865,5.97586 -13.22889,8.61893c-4.25474,1.43287 -8.87797,2.55366 -13.39565,1.71101c-2.9874,-0.55722 -5.50492,-2.45472 -8.41862,-3.21861c-2.39656,-0.6283 -4.86932,-1.10194 -7.16087,-2.11947c-0.92264,-0.40969 -2.07174,-0.60249 -2.68207,-1.40661c-0.33658,-0.44344 -0.28943,-4.5075 -0.26484,-4.97153c0.26133,-4.9309 2.36055,-9.76634 3.9419,-14.37762c3.63583,-7.66241 10.76505,-16.60954 19.50727,-18.51159c3.9735,-0.86452 8.70415,-0.19102 12.75763,-0.19102c0,0 0.99033,0 1.41036,0.78031c2.29738,0.51134 4.48007,1.39306 6.65263,2.8374c0,0 0.19673,0.13116 0.38822,0.36822c1.24842,-0.18973 1.67587,1.09265 1.67587,1.09265c2.14451,6.46489 4.25844,15.78797 0.90588,22.0509c0.51333,0.63382 0.30006,1.3061 0.11246,1.66963c0.03246,0.26294 0.00458,0.45815 0.00458,0.45815zM151.44879,325.4756l0.43791,-1.22733c1.76213,-3.13791 1.29706,-6.28091 0.92444,-9.74762c-0.34183,-3.18034 -0.8624,-6.29718 -1.83011,-9.34752c-0.42714,0.2495 -0.89021,0.2495 -0.89021,0.2495c-2.88944,0 -5.96056,-0.16461 -8.82478,0.29643c-3.09469,0.49815 -6.30999,1.64383 -9.28978,2.63702l-1.10833,0.44386c1.67945,2.48384 3.35789,4.86702 4.31386,7.78653c1.01747,3.10733 0.66813,6.98164 0.38717,10.19006c-0.17129,1.95612 -0.41734,4.02872 -1.02049,5.91001c-0.18411,0.57426 -0.45563,1.56552 -0.83628,2.09059c1.12633,-0.17949 2.27008,-0.3223 3.34913,-0.6893c4.70337,-2.17491 10.37611,-4.19669 14.36632,-7.57181c-0.14539,-0.52079 0.02115,-1.02043 0.02115,-1.02043z" fill="url(#color-1)" stroke="none" stroke-width="0.5"/><path d="M149.48334,326.39724v-5.51737h6.13686" fill="none" stroke="#ffffff" stroke-width="4"/><path d="M162.25059,320.87987h4.65911v5.44543" fill="none" stroke="#ffffff" stroke-width="4"/><path d="M166.9097,334.23182v4.93909h-4.65827" fill="none" stroke="#ffffff" stroke-width="4"/><path d="M154.83163,339.1709h-5.34829v-4.74499" fill="none" stroke="#ffffff" stroke-width="4"/><path d="M150.48103,327.39494v-5.51737h6.13686" fill="none" stroke="#000000" stroke-width="4"/><path d="M161.3194,321.87757h4.65911v5.44542" fill="none" stroke="#000000" stroke-width="4"/><path d="M165.91201,333.23412v4.93909h-4.65827" fill="none" stroke="#000000" stroke-width="4"/><path d="M155.82933,338.1067h-5.34829v-4.74499" fill="none" stroke="#000000" stroke-width="4"/><text transform="translate(187.22512,330.64263) scale(0.58667,0.58667)" font-size="40" xml:space="preserve" fill="#ffffff" fill-rule="nonzero" stroke="none" stroke-width="1" stroke-linecap="butt" stroke-linejoin="miter" stroke-miterlimit="10" stroke-dasharray="" stroke-dashoffset="0" font-family="&quot;OpenSans-ExtraBold&quot;, Sans Serif" font-weight="normal" text-anchor="start" style="mix-blend-mode: normal"><tspan x="0" dy="0">Options</tspan></text></g></g></svg>