<svg version="1.1" xmlns="http://www.w3.org/2000/svg" xmlns:xlink="http://www.w3.org/1999/xlink" width="105.19454" height="105.19454" viewBox="0,0,105.19454,105.19454"><defs><linearGradient x1="127.40273" y1="320" x2="232.59727" y2="320" gradientUnits="userSpaceOnUse" id="color-1"><stop offset="0" stop-color="#000000" stop-opacity="0.30588"/><stop offset="1" stop-color="#000000"/></linearGradient><linearGradient x1="163.75428" y1="334.73845" x2="185.56883" y2="334.73845" gradientUnits="userSpaceOnUse" id="color-2"><stop offset="0" stop-color="#ff0000" stop-opacity="0.50196"/><stop offset="1" stop-color="#ff0000" stop-opacity="0.50196"/></linearGradient><linearGradient x1="140.39538" y1="302.16897" x2="163.17946" y2="302.16897" gradientUnits="userSpaceOnUse" id="color-3"><stop offset="0" stop-color="#ffad00" stop-opacity="0.30588"/><stop offset="1" stop-color="#ff9400"/></linearGradient><linearGradient x1="164.30131" y1="316.01597" x2="204.77941" y2="316.01597" gradientUnits="userSpaceOnUse" id="color-4"><stop offset="0" stop-color="#00ff22" stop-opacity="0.50196"/><stop offset="1" stop-color="#1eff00" stop-opacity="0.50196"/></linearGradient><linearGradient x1="204.77941" y1="336.98217" x2="221.2615" y2="336.98217" gradientUnits="userSpaceOnUse" id="color-5"><stop offset="0" stop-color="#009bff" stop-opacity="0.30588"/><stop offset="1" stop-color="#00c1ff"/></linearGradient><linearGradient x1="196.44829" y1="301.01932" x2="227.95819" y2="301.01932" gradientUnits="userSpaceOnUse" id="color-6"><stop offset="0" stop-color="#cd00ff" stop-opacity="0.30588"/><stop offset="1" stop-color="#ff00e8"/></linearGradient><linearGradient x1="137.15434" y1="330.03892" x2="163.57417" y2="330.03892" gradientUnits="userSpaceOnUse" id="color-7"><stop offset="0" stop-color="#ff00c4" stop-opacity="0.30588"/><stop offset="1" stop-color="#ff00b9"/></linearGradient><linearGradient x1="162.14522" y1="290.8392" x2="178.26952" y2="290.8392" gradientUnits="userSpaceOnUse" id="color-8"><stop offset="0" stop-color="#00ffe8" stop-opacity="0.30588"/><stop offset="1" stop-color="#00ffcc"/></linearGradient></defs><g transform="translate(-127.40273,-267.40273)"><g data-paper-data="{&quot;isPaintingLayer&quot;:true}" fill-rule="nonzero" stroke="none" stroke-linecap="butt" stroke-linejoin="miter" stroke-miterlimit="10" stroke-dasharray="" stroke-dashoffset="0" style="mix-blend-mode: normal"><path d="M127.40273,372.59727v-105.19454h105.19454v105.19454z" fill="url(#color-1)" stroke-width="0"/><path d="M163.75428,334.73845c0,-6.02392 4.88334,-10.90727 10.90726,-10.90727c6.02392,0 10.90727,4.88335 10.90727,10.90727c0,6.02392 -4.88335,10.90727 -10.90727,10.90727c-6.02392,0 -10.90726,-4.88335 -10.90726,-10.90727z" fill="url(#color-2)" stroke-width="0"/><path d="M140.39538,302.16897c0,-6.29165 5.10039,-11.39204 11.39204,-11.39204c6.29164,0 11.39203,5.10039 11.39203,11.39204c0,6.29165 -5.10039,11.39203 -11.39203,11.39203c-6.29164,0 -11.39204,-5.10039 -11.39204,-11.39203z" fill="url(#color-3)" stroke-width="0"/><path d="M164.30131,316.01597c0,-11.17771 9.06133,-20.23904 20.23904,-20.23904c11.17771,0 20.23905,9.06133 20.23905,20.23904c0,11.17771 -9.06134,20.23904 -20.23905,20.23904c-11.17771,0 -20.23904,-9.06133 -20.23904,-20.23904z" fill="url(#color-4)" stroke-width="0"/><path d="M204.77941,336.98217c0,-4.5514 3.68964,-8.24105 8.24105,-8.24105c4.5514,0 8.24105,3.68965 8.24105,8.24105c0,4.5514 -3.68965,8.24104 -8.24105,8.24104c-4.5514,0 -8.24105,-3.68964 -8.24105,-8.24104z" fill="url(#color-5)" stroke-width="0"/><path d="M196.44829,301.01932c0,-8.70121 7.05373,-15.75495 15.75494,-15.75495c8.70121,0 15.75495,7.05374 15.75495,15.75495c0,8.70121 -7.05374,15.75494 -15.75495,15.75494c-8.70121,0 -15.75494,-7.05372 -15.75494,-15.75494z" fill="url(#color-6)" stroke-width="0"/><path d="M137.15434,330.03892c0,-7.31513 5.91428,-13.24522 13.20991,-13.24522c7.29563,0 13.20991,5.93009 13.20991,13.24522c0,7.31513 -5.91429,13.24522 -13.20991,13.24522c-7.29563,0 -13.20991,-5.93009 -13.20991,-13.24522z" fill="url(#color-7)" stroke-width="0"/><path d="M162.14522,290.8392c0,-4.41753 3.60955,-7.99866 8.06215,-7.99866c4.4526,0 8.06214,3.58113 8.06214,7.99866c0,4.41753 -3.60954,7.99866 -8.06214,7.99866c-4.4526,0 -8.06215,-3.58112 -8.06215,-7.99866z" fill="url(#color-8)" stroke-width="0"/><text transform="translate(133.60951,361.2304) scale(0.40074,0.40073)" font-size="40" xml:space="preserve" fill="#ffffff" fill-rule="nonzero" stroke="none" stroke-width="1" stroke-linecap="butt" stroke-linejoin="miter" stroke-miterlimit="10" stroke-dasharray="" stroke-dashoffset="0" font-family="&quot;Open Sans Light&quot;, Sans Serif" font-weight="normal" text-anchor="start" style="mix-blend-mode: normal"><tspan x="0" dy="0">Aksen Warna</tspan></text></g></g></svg>