<svg version="1.1" xmlns="http://www.w3.org/2000/svg" xmlns:xlink="http://www.w3.org/1999/xlink" width="188.01224" height="43.40292" viewBox="0,0,188.01224,43.40292"><g transform="translate(-272.08169,-211.36792)"><g data-paper-data="{&quot;isPaintingLayer&quot;:true}" fill-rule="nonzero" stroke-linecap="butt" stroke-linejoin="miter" stroke-miterlimit="10" stroke-dasharray="" stroke-dashoffset="0" style="mix-blend-mode: normal"><path d="M277.0817,254.77084v-38.40292h183.01223v38.40292z" fill="#272727" stroke="none" stroke-width="0"/><path d="M272.08169,249.77084v-38.40292h183.01223v38.40292z" fill="#000000" stroke="none" stroke-width="0"/><text transform="translate(278.61894,236.68278) scale(0.47128,0.47511)" font-size="40" xml:space="preserve" fill="#ffffff" fill-rule="nonzero" stroke="none" stroke-width="1" stroke-linecap="butt" stroke-linejoin="miter" stroke-miterlimit="10" stroke-dasharray="" stroke-dashoffset="0" font-family="&quot;OpenSans-Bold&quot;, Sans Serif" font-weight="normal" text-anchor="start" style="mix-blend-mode: normal"><tspan x="0" dy="0">MORE</tspan></text><path d="M416.94228,231.54357c0,-7.71909 6.25756,-13.97665 13.97665,-13.97665c7.71909,0 13.97666,6.25757 13.97666,13.97665c0,7.71909 -6.25756,13.97666 -13.97666,13.97666c-7.71909,0 -13.97665,-6.25757 -13.97665,-13.97666z" fill="none" stroke="#ffffff" stroke-width="1.5"/><path d="M421.29881,231.88466c0,-1.10457 0.89543,-2 2,-2c1.10457,0 2,0.89543 2,2c0,1.10457 -0.89543,2 -2,2c-1.10457,0 -2,-0.89543 -2,-2z" fill="none" stroke="#ffffff" stroke-width="1.5"/><path d="M428.89881,232.08466c0,-1.10457 0.89543,-2 2,-2c1.10457,0 2,0.89543 2,2c0,1.10457 -0.89543,2 -2,2c-1.10457,0 -2,-0.89543 -2,-2z" fill="none" stroke="#ffffff" stroke-width="1.5"/><path d="M436.29881,232.28466c0,-1.10457 0.89543,-2 2,-2c1.10457,0 2,0.89543 2,2c0,1.10457 -0.89543,2 -2,2c-1.10457,0 -2,-0.89543 -2,-2z" fill="none" stroke="#ffffff" stroke-width="1.5"/></g></g></svg>