<svg version="1.1" xmlns="http://www.w3.org/2000/svg" xmlns:xlink="http://www.w3.org/1999/xlink" width="32.0665" height="58.75994" viewBox="0,0,32.0665,58.75994"><g transform="translate(-80.71368,-271.12733)"><g data-paper-data="{&quot;isPaintingLayer&quot;:true}" fill-rule="nonzero" stroke="none" stroke-linecap="butt" stroke-linejoin="miter" stroke-miterlimit="10" stroke-dasharray="" stroke-dashoffset="0" style="mix-blend-mode: normal"><path d="M112.66007,329.88727h-7.95787v-7.33201h7.95787z" fill="#000000" stroke-width="NaN"/><path d="M112.78018,322.54667h-7.95787v-7.33201h7.95787z" fill="#ffffff" stroke-width="NaN"/><path d="M112.72037,315.22473h-7.95787v-7.33201h7.95787z" fill="#000000" stroke-width="NaN"/><path d="M112.76822,307.88414h-7.95787v-7.33201h7.95787z" fill="#ffffff" stroke-width="NaN"/><path d="M104.71207,329.88727h-7.95787v-7.33201h7.95787z" fill="#ffffff" stroke-width="NaN"/><path d="M104.83217,322.54667h-7.95787v-7.332h7.95787z" fill="#000000" stroke-width="NaN"/><path d="M104.77237,315.22473h-7.95787v-7.33201h7.95786z" fill="#ffffff" stroke-width="NaN"/><path d="M104.82021,307.88414h-7.95787v-7.33201h7.95786z" fill="#000000" stroke-width="NaN"/><path d="M96.61956,329.8207h-7.95787v-7.33201h7.95786z" fill="#000000" stroke-width="NaN"/><path d="M96.73966,322.4801h-7.95787v-7.332h7.95787z" fill="#ffffff" stroke-width="NaN"/><path d="M96.67985,315.15816h-7.95786v-7.33201h7.95786z" fill="#000000" stroke-width="NaN"/><path d="M96.7277,307.81757h-7.95786v-7.33201h7.95787z" fill="#ffffff" stroke-width="NaN"/><path d="M88.67155,329.8207h-7.95787v-7.332h7.95787z" fill="#ffffff" stroke-width="NaN"/><path d="M88.79166,322.4801h-7.95786v-7.33201h7.95786z" fill="#000000" stroke-width="NaN"/><path d="M88.73185,315.15816c0,0 -0.57324,0 -1.09479,0c-1.30584,0 -6.86308,0 -6.86308,0v-7.332h7.95787z" fill="#ffffff" stroke-width="NaN"/><path d="M88.7797,307.81757h-7.95786v-7.33201h7.95786z" fill="#000000" stroke-width="NaN"/><path d="M112.66008,300.52903h-7.95787v-7.33201h7.95787z" fill="#000000" stroke-width="NaN"/><path d="M112.78018,293.18843h-7.95787v-7.33201h7.95787z" fill="#ffffff" stroke-width="NaN"/><path d="M112.72037,285.86649h-7.95786v-7.332h7.95787z" fill="#000000" stroke-width="NaN"/><path d="M112.76822,278.5259h-7.95786v-7.33201h7.95786z" fill="#ffffff" stroke-width="NaN"/><path d="M104.71207,300.52903h-7.95787v-7.332h7.95787z" fill="#ffffff" stroke-width="NaN"/><path d="M104.83217,293.18843h-7.95786v-7.33201h7.95786z" fill="#000000" stroke-width="NaN"/><path d="M104.77237,285.86649h-7.95787v-7.332h7.95787z" fill="#ffffff" stroke-width="NaN"/><path d="M104.82022,278.5259h-7.95787v-7.33201h7.95787z" fill="#000000" stroke-width="NaN"/><path d="M96.61956,300.46246h-7.95786v-7.332h7.95786z" fill="#000000" stroke-width="NaN"/><path d="M96.73966,293.12186h-7.95786v-7.33201h7.95787z" fill="#ffffff" stroke-width="NaN"/><path d="M96.67985,285.79993h-7.95787v-7.33201h7.95787z" fill="#000000" stroke-width="NaN"/><path d="M96.72771,278.45933h-7.95787v-7.332h7.95787z" fill="#ffffff" stroke-width="NaN"/><path d="M88.67156,300.46246h-7.95787v-7.332h7.95787z" fill="#ffffff" stroke-width="NaN"/><path d="M88.79166,293.12186h-7.95787v-7.33201h7.95787z" fill="#000000" stroke-width="NaN"/><path d="M88.73185,285.79993h-7.95787v-7.33201h7.95787z" fill="#ffffff" stroke-width="NaN"/><path d="M88.7797,278.45933h-7.95787v-7.332h7.95787z" fill="#000000" stroke-width="NaN"/></g></g></svg>