<svg version="1.1" xmlns="http://www.w3.org/2000/svg" xmlns:xlink="http://www.w3.org/1999/xlink" width="749.26557" height="724.22847" viewBox="0,0,749.26557,724.22847"><defs><radialGradient cx="321.82328" cy="178.86174" r="320.75376" gradientUnits="userSpaceOnUse" id="color-1"><stop offset="0" stop-color="#000000"/><stop offset="1" stop-color="#3e3500"/></radialGradient></defs><g transform="translate(41.65251,219.73613)"><g data-paper-data="{&quot;isPaintingLayer&quot;:true}" fill-rule="nonzero" stroke="none" stroke-linecap="butt" stroke-linejoin="miter" stroke-miterlimit="10" stroke-dasharray="" stroke-dashoffset="0" style="mix-blend-mode: normal"><path d="M1.06953,368.36175v-379h641.50751v379z" fill="url(#color-1)" stroke-width="NaN"/><path d="M461.46997,363.50003v-43h181.60856v43z" fill="#000000" stroke-width="0"/><path d="M-41.65251,387.566l157.14121,-431.47247l64.04669,23.32565l-157.14121,431.47248z" fill-opacity="0.09804" fill="#ffffff" stroke-width="0"/><path d="M44.12962,406.53611l152.99592,-432.94718l23.74484,8.87214l-152.99592,432.94719z" fill-opacity="0.09804" fill="#ffffff" stroke-width="0"/><path d="M293.67782,460.59182l247.77376,-680.32795l100.98617,36.77891l-247.77376,680.32797z" fill-opacity="0.03529" fill="#ffffff" stroke-width="0"/><path d="M428.93553,490.5031l241.23765,-682.65321l37.43988,13.98922l-241.23764,682.65323z" fill-opacity="0.03529" fill="#ffffff" stroke-width="0"/><path d="M518.46997,72.50003v-69h131.60856v69z" fill="#000000" stroke-width="0"/><text transform="translate(462.9449,342.38335) scale(0.5,0.5)" font-size="40" xml:space="preserve" fill="#ffffff" fill-rule="nonzero" stroke="none" stroke-width="1" stroke-linecap="butt" stroke-linejoin="miter" stroke-miterlimit="10" stroke-dasharray="" stroke-dashoffset="0" font-family="&quot;OpenSans-Bold&quot;, Sans Serif" font-weight="normal" text-anchor="start" style="mix-blend-mode: normal"><tspan x="0" dy="0">COINS</tspan></text><text transform="translate(13.38589,79.39956) scale(1.81052,1.81052)" font-size="40" xml:space="preserve" fill="#ffffff" fill-rule="nonzero" stroke="none" stroke-width="1" stroke-linecap="butt" stroke-linejoin="miter" stroke-miterlimit="10" stroke-dasharray="" stroke-dashoffset="0" font-family="&quot;OpenSans-Bold&quot;, Sans Serif" font-weight="normal" text-anchor="start" style="mix-blend-mode: normal"><tspan x="0" dy="0">Tap!Dash</tspan></text></g></g></svg>