<svg version="1.1" xmlns="http://www.w3.org/2000/svg" xmlns:xlink="http://www.w3.org/1999/xlink" width="57.87942" height="57.87942" viewBox="0,0,57.87942,57.87942"><defs><linearGradient x1="240" y1="152.31029" x2="240" y2="207.68971" gradientUnits="userSpaceOnUse" id="color-1"><stop offset="0" stop-color="#ffffff"/><stop offset="1" stop-color="#919191"/></linearGradient><linearGradient x1="240" y1="185.50458" x2="240" y2="193.31108" gradientUnits="userSpaceOnUse" id="color-2"><stop offset="0" stop-color="#ffffff"/><stop offset="1" stop-color="#1a1a1a"/></linearGradient><linearGradient x1="240" y1="171.85267" x2="240" y2="188.14733" gradientUnits="userSpaceOnUse" id="color-3"><stop offset="0" stop-color="#ffffff"/><stop offset="1" stop-color="#1a1a1a"/></linearGradient><linearGradient x1="243.80316" y1="165.28776" x2="243.80316" y2="176.49708" gradientUnits="userSpaceOnUse" id="color-4"><stop offset="0" stop-color="#ffffff"/><stop offset="1" stop-color="#000000"/></linearGradient></defs><g transform="translate(-211.06029,-151.06029)"><g data-paper-data="{&quot;isPaintingLayer&quot;:true}" fill="#c7c7c7" fill-rule="nonzero" stroke-width="2.5" stroke-linecap="butt" stroke-linejoin="miter" stroke-miterlimit="10" stroke-dasharray="" stroke-dashoffset="0" style="mix-blend-mode: normal"><path d="M212.31029,180c0,-15.2926 12.39711,-27.68971 27.68971,-27.68971c15.2926,0 27.68971,12.39711 27.68971,27.68971c0,15.2926 -12.39711,27.68971 -27.68971,27.68971c-15.2926,0 -27.68971,-12.39711 -27.68971,-27.68971z" stroke="url(#color-1)"/><path d="M223.08592,193.31108v-7.8065h33.82815v7.8065z" stroke="url(#color-2)"/><path d="M233.45327,185.3963l8.91333,-13.54363l4.18013,2.75103l-8.91333,13.54363z" stroke="url(#color-3)"/><path d="M249.50791,170.89242c0,3.09537 -2.5541,5.60466 -5.70475,5.60466c-3.15065,0 -5.70475,-2.50929 -5.70475,-5.60466c0,-3.09537 2.5541,-5.60466 5.70475,-5.60466c3.15065,0 5.70475,2.50929 5.70475,5.60466z" stroke="url(#color-4)"/></g></g></svg>