<svg version="1.1" xmlns="http://www.w3.org/2000/svg" xmlns:xlink="http://www.w3.org/1999/xlink" width="439.68906" height="260.27612" viewBox="0,0,439.68906,260.27612"><g transform="translate(-75.00422,-79.5023)"><g data-paper-data="{&quot;isPaintingLayer&quot;:true}" fill="none" fill-rule="nonzero" stroke-width="7.5" stroke-linecap="round" stroke-linejoin="miter" stroke-miterlimit="10" stroke-dasharray="" stroke-dashoffset="0" style="mix-blend-mode: normal"><path d="M400.80141,164.68656v34.50078h27.41784v123.22692v11.38028l-68.61658,-0.68544v-51.66823v-82.25352h-63.518v-34.50078h63.06104" stroke="#00ffc1"/><path d="M360.36009,235.43617h33.35837" stroke="#00ffc1"/><path d="M426.16291,265.52224h-34.50079" stroke="#00ffc1"/><path d="M359.67465,297.50972h34.04382" stroke="#00ffc1"/><path d="M125.24179,213.99857h125.66169h5.08458v34.86567h64.64676v61.01493" stroke="#00ffc1"/><path d="M359.13233,336.02842h-123.48259h-75.54229v-69.73134h-81.35323v-98.78607h113.31344v46.48756" stroke="#00ffc1"/><path d="M284.31641,278.64533v52.29851" stroke="#00ffc1"/><path d="M197.15223,213.99857v95.8806h67.55224" stroke="#00ffc1"/><path d="M280.68457,282.27717h-68.2786v-45.03483h19.61194" stroke="#00ffc1"/><path d="M139.76915,216.17767v22.51742" stroke="#00ffc1"/><path d="M80.20696,235.06324h24.69652" stroke="#00ffc1"/><path d="M118.70447,168.96374v21.06467" stroke="#00ffc1"/><path d="M174.63482,165.3319v-31.23383h79.9005" stroke="#00ffc1"/><path d="M254.53532,160.24732v-76.99502h252.77612v69.73134" stroke="#00ffc1"/><path d="M510.94328,303.34185h-45.76119v-183.04478l-146,0" stroke="#00ffc1"/><path d="M465.18208,301.16274v33.41294" stroke="#00ffc1"/><path d="M425.23183,336.02842h39.95025" stroke="#00ffc1"/></g></g></svg>