<svg version="1.1" xmlns="http://www.w3.org/2000/svg" xmlns:xlink="http://www.w3.org/1999/xlink" width="188.01223" height="43.40292" viewBox="0,0,188.01223,43.40292"><defs><radialGradient cx="432.78692" cy="173.79083" r="7.06304" gradientUnits="userSpaceOnUse" id="color-1"><stop offset="0" stop-color="#ffffff"/><stop offset="1" stop-color="#000000"/></radialGradient></defs><g transform="translate(-273.46225,-158.29854)"><g data-paper-data="{&quot;isPaintingLayer&quot;:true}" fill-rule="nonzero" stroke-linejoin="miter" stroke-miterlimit="10" stroke-dasharray="" stroke-dashoffset="0" style="mix-blend-mode: normal"><path d="M278.46225,201.70146v-38.40292h183.01223v38.40292z" fill="#272727" stroke="none" stroke-width="0" stroke-linecap="butt"/><path d="M273.46225,196.70146v-38.40292h183.01223v38.40292z" fill="#000000" stroke="none" stroke-width="0" stroke-linecap="butt"/><text transform="translate(279.9995,183.6134) scale(0.47128,0.47511)" font-size="40" xml:space="preserve" fill="#ffffff" fill-rule="nonzero" stroke="none" stroke-width="1" stroke-linecap="butt" stroke-linejoin="miter" stroke-miterlimit="10" stroke-dasharray="" stroke-dashoffset="0" font-family="&quot;OpenSans-Bold&quot;, Sans Serif" font-weight="normal" text-anchor="start" style="mix-blend-mode: normal"><tspan x="0" dy="0">DISPLAY</tspan></text><path d="M418.32284,178.47419c0,-7.71909 6.25756,-13.97665 13.97665,-13.97665c7.71909,0 13.97666,6.25757 13.97666,13.97665c0,7.71909 -6.25756,13.97666 -13.97666,13.97666c-7.71909,0 -13.97665,-6.25757 -13.97665,-13.97666z" fill="none" stroke="#ffffff" stroke-width="1.5" stroke-linecap="butt"/><path d="M444.35869,176.36233h-12.85753v-10.28602c0,0 0.28886,-1.44982 1.83512,-1.51136c2.08903,-0.08315 5.71524,1.30657 6.90083,2.25504c1.09236,0.87389 3.3966,3.39497 4.14784,5.53754c0.31057,0.88576 1.2848,2.62675 1.24083,3.29309c-0.06506,0.98616 -1.2671,0.71171 -1.2671,0.71171z" fill="url(#color-1)" stroke="#ffffff" stroke-width="1.5" stroke-linecap="round"/></g></g></svg>