<svg version="1.1" xmlns="http://www.w3.org/2000/svg" xmlns:xlink="http://www.w3.org/1999/xlink" width="40.78168" height="40.78168" viewBox="0,0,40.78168,40.78168"><defs><radialGradient cx="221.97232" cy="179.61293" r="18.62317" gradientUnits="userSpaceOnUse" id="color-1"><stop offset="0" stop-color="#ffffff"/><stop offset="1" stop-color="#1a1a1a"/></radialGradient><radialGradient cx="229.36872" cy="179.63627" r="10.90746" gradientUnits="userSpaceOnUse" id="color-2"><stop offset="0" stop-color="#ffffff"/><stop offset="1" stop-color="#1a1a1a"/></radialGradient></defs><g transform="translate(-219.60916,-159.60916)"><g data-paper-data="{&quot;isPaintingLayer&quot;:true}" fill-rule="nonzero" stroke-linecap="butt" stroke-linejoin="miter" stroke-miterlimit="10" stroke-dasharray="" stroke-dashoffset="0" style="mix-blend-mode: normal"><path d="M258.62308,180.05875l-18.68183,18.56433l-18.56433,-18.68183l18.68183,-18.56433z" data-paper-data="{&quot;index&quot;:null}" fill="#000000" stroke="url(#color-1)" stroke-width="2.5"/><path d="M250.90741,180.0344l-10.94181,10.873l-10.873,-10.94181l10.94181,-10.873z" data-paper-data="{&quot;index&quot;:null}" fill="none" stroke="url(#color-2)" stroke-width="2.5"/><path d="M252.46875,184.05825c-0.53434,-0.00169 -0.97877,-0.06443 -1.34391,-0.17672c-0.01833,0.01652 -0.03691,0.03278 -0.05573,0.04877c-1.12139,1.02802 -3.70551,2.86282 -4.86891,3.26827l0.00001,-0.00001c-0.2144,0.07473 -0.43998,0.12306 -0.67029,0.147c-0.26986,0.49435 -0.57406,0.94341 -0.90696,1.17075l0.00519,0.03822c-0.04849,0.07814 -0.09524,0.15807 -0.14067,0.2394l-0.01206,0.0358l-0.00658,-0.00222c-0.03148,0.05706 -0.06235,0.11478 -0.09272,0.17299c0.00625,0.00665 0.01251,0.01331 0.01876,0.01997l-0.04357,0.02788c-0.02441,0.04739 -0.04852,0.09509 -0.07242,0.14302l0.00798,0.00574l-0.03491,0.04856c-0.45544,0.92265 -0.84061,1.9214 -1.67339,2.47197c-0.05601,0.03703 -0.11278,0.07261 -0.17024,0.1069l0.0259,0.03128l-1.19859,0.99243c-0.24247,0.20367 -0.55553,0.32593 -0.89698,0.32485c-0.76687,-0.00242 -1.3866,-0.62605 -1.38418,-1.39294c0.00045,-0.14357 0.02268,-0.28198 0.06354,-0.41211l0.35541,-1.22924c-0.02272,-4.0101 1.10785,-7.99962 0.63658,-12.01388c-0.39373,-3.35377 -0.67741,-6.45179 0.27425,-9.76908c0,0 0.38568,-1.33394 1.71962,-0.94826c1.33394,0.38568 0.94826,1.71962 0.94826,1.71962c-0.10422,0.35729 -0.18956,0.71256 -0.25874,1.06623l0.72589,-0.63031c0,0 1.38856,0.00438 1.38418,1.39294c-0.00108,0.34338 -0.08682,0.60159 -0.21527,0.79574c-0.00114,0.07702 -0.0018,0.1539 -0.00166,0.23055c0.22558,0.02873 0.43419,0.11155 0.61246,0.23502l1.18415,0.79484l-0.02229,0.03321c0.07568,0.03961 0.14982,0.08272 0.22218,0.12982c0.75962,0.49439 1.04783,1.47912 1.57175,2.21869l0.00473,0.0158l0.00406,-0.00269l0.09546,0.14416c1.17539,0.57368 2.61838,0.68891 3.25408,1.98474c0.30032,-0.12638 0.63046,-0.19578 0.97682,-0.19469c0.91755,0.0029 1.71809,0.49974 2.15064,1.23796c2.06021,1.1859 -0.6638,5.4838 -2.17183,5.47904zM242.70623,183.71582c0.87357,-1.21933 2.40292,-2.34204 3.99824,-3.14726l0.45366,-0.50714l0.01573,0.01407c0.01627,-0.02742 0.03271,-0.05476 0.04934,-0.08201c0.16271,-0.2667 0.39838,-0.47455 0.65539,-0.66179c-0.13933,-0.0333 -0.27047,-0.08757 -0.38992,-0.15931l-1.37918,-0.79388l0.00747,-0.01299c-0.02251,-0.0077 -0.04498,-0.01555 -0.0674,-0.02356c-1.82314,-0.65151 -2.9404,-1.98517 -3.56401,-3.56761l-0.00001,-0.00001c0.09529,1.64335 0.28615,3.29275 0.28603,4.99332c-0.00011,1.40591 -0.08898,2.78257 -0.20103,4.15201c0.04144,-0.06739 0.08662,-0.13533 0.13568,-0.20381zM242.44023,186.1718c0.01201,-0.03862 0.02566,-0.07652 0.04087,-0.11361c-0.02973,-0.04719 -0.05738,-0.09544 -0.0828,-0.14468c-0.01491,0.17126 -0.02968,0.34256 -0.04419,0.51398l0.08613,-0.25569z" data-paper-data="{&quot;index&quot;:null}" fill="#000000" stroke="none" stroke-width="0.5"/></g></g></svg>