<svg version="1.1" xmlns="http://www.w3.org/2000/svg" xmlns:xlink="http://www.w3.org/1999/xlink" width="133.90796" height="51.48324" viewBox="0,0,133.90796,51.48324"><g transform="translate(-99.47014,-128.18117)"><g data-paper-data="{&quot;isPaintingLayer&quot;:true}" fill-rule="nonzero" stroke-linejoin="miter" stroke-miterlimit="10" stroke-dasharray="" stroke-dashoffset="0" style="mix-blend-mode: normal"><path d="M184.89486,153.92279c0,-12.55985 10.18178,-22.74162 22.74162,-22.74162c12.55986,0 22.74163,10.18177 22.74163,22.74162c0,12.55986 -10.18178,22.74162 -22.74162,22.74162c-12.55985,0 -22.74162,-10.18178 -22.74162,-22.74162z" fill="#000000" stroke="#000000" stroke-width="6" stroke-linecap="butt"/><path d="M188.23015,154.13234c0,-10.83356 8.78234,-19.61589 19.61589,-19.61589c10.83356,0 19.61589,8.78234 19.61589,19.61589c0,10.83356 -8.78234,19.61589 -19.61589,19.61589c-10.83356,0 -19.61589,-8.78234 -19.61589,-19.61589z" fill="#000000" stroke="#ffffff" stroke-width="6" stroke-linecap="butt"/><path d="M190.64571,163.69887l30.597,-18.25084" fill="none" stroke="#ffffff" stroke-width="6" stroke-linecap="round"/><text transform="translate(99.88578,151.62649) scale(0.41563,0.41563)" font-size="40" xml:space="preserve" fill="#ffffff" fill-rule="nonzero" stroke="#000000" stroke-width="2" stroke-linecap="butt" stroke-linejoin="miter" stroke-miterlimit="10" stroke-dasharray="" stroke-dashoffset="0" font-family="&quot;OpenSans-Medium&quot;, Sans Serif" font-weight="normal" text-anchor="start" style="mix-blend-mode: normal"><tspan x="0" dy="0">Disable </tspan><tspan x="0" dy="46.150000000000006px">Gamepad</tspan></text></g></g></svg>