<svg version="1.1" xmlns="http://www.w3.org/2000/svg" xmlns:xlink="http://www.w3.org/1999/xlink" width="87.00374" height="48.69888" viewBox="0,0,87.00374,48.69888"><defs><linearGradient x1="142.93721" y1="253.49355" x2="142.93721" y2="281.24352" gradientUnits="userSpaceOnUse" id="color-1"><stop offset="0" stop-color="#ff6300"/><stop offset="1" stop-color="#ffffff"/></linearGradient><linearGradient x1="143.4511" y1="258.73519" x2="143.4511" y2="275.7963" gradientUnits="userSpaceOnUse" id="color-2"><stop offset="0" stop-color="#ff6f13"/><stop offset="1" stop-color="#9c4901"/></linearGradient><linearGradient x1="199.85762" y1="271.77575" x2="199.85762" y2="300.19242" gradientUnits="userSpaceOnUse" id="color-3"><stop offset="0" stop-color="#00d1ff"/><stop offset="1" stop-color="#ffffff"/></linearGradient><linearGradient x1="200.38385" y1="277.14334" x2="200.38385" y2="294.61434" gradientUnits="userSpaceOnUse" id="color-4"><stop offset="0" stop-color="#11d4ff"/><stop offset="1" stop-color="#00738f"/></linearGradient></defs><g transform="translate(-128.06221,-252.49352)"><g data-paper-data="{&quot;isPaintingLayer&quot;:true}" fill-rule="nonzero" stroke="#000000" stroke-linecap="butt" stroke-linejoin="miter" stroke-miterlimit="10" stroke-dasharray="" stroke-dashoffset="0" style="mix-blend-mode: normal"><path d="M129.06221,267.36852c0,-7.66296 6.21206,-13.875 13.875,-13.875c7.66294,0 13.875,6.21205 13.875,13.875c0,7.66296 -6.21206,13.875 -13.875,13.875c-7.66294,0 -13.875,-6.21204 -13.875,-13.875z" fill="url(#color-1)" stroke-width="2"/><path d="M134.92055,267.26572c0,-4.71129 3.81925,-8.53055 8.53055,-8.53055c4.7113,0 8.53056,3.81926 8.53056,8.53055c0,4.71129 -3.81926,8.53056 -8.53056,8.53056c-4.7113,0 -8.53055,-3.81927 -8.53055,-8.53056z" fill="url(#color-2)" stroke-width="2.5"/><path d="M185.64929,285.98407c0,-7.84705 6.36129,-14.20833 14.20833,-14.20833c7.84704,0 14.20833,6.36128 14.20833,14.20833c0,7.84705 -6.36129,14.20834 -14.20833,14.20834c-7.84705,0 -14.20833,-6.36129 -14.20833,-14.20834z" fill="url(#color-3)" stroke-width="2"/><path d="M191.64836,285.87884c0,-4.82448 3.91102,-8.7355 8.73549,-8.7355c4.82449,0 8.73549,3.91102 8.73549,8.7355c0,4.82448 -3.911,8.73549 -8.73549,8.73549c-4.82448,0 -8.73549,-3.91102 -8.73549,-8.73549z" fill="url(#color-4)" stroke-width="2.5"/></g></g></svg>