<svg version="1.1" xmlns="http://www.w3.org/2000/svg" xmlns:xlink="http://www.w3.org/1999/xlink" width="100.87112" height="104.2238" viewBox="0,0,100.87112,104.2238"><defs><linearGradient x1="320" y1="127.8881" x2="320" y2="232.1119" gradientUnits="userSpaceOnUse" id="color-1"><stop offset="0" stop-color="#000000"/><stop offset="1" stop-color="#000000" stop-opacity="0"/></linearGradient><radialGradient cx="320" cy="180" r="45.20693" gradientUnits="userSpaceOnUse" id="color-2"><stop offset="0" stop-color="#b100ff" stop-opacity="0.04706"/><stop offset="1" stop-color="#000000"/></radialGradient><linearGradient x1="298.9617" y1="179.99999" x2="341.03831" y2="179.99999" gradientUnits="userSpaceOnUse" id="color-3"><stop offset="0" stop-color="#00ffff"/><stop offset="1" stop-color="#ff0000"/></linearGradient><linearGradient x1="307.07393" y1="179.99999" x2="332.92608" y2="179.99999" gradientUnits="userSpaceOnUse" id="color-4"><stop offset="0" stop-color="#00ffff"/><stop offset="1" stop-color="#ff00de"/></linearGradient></defs><g transform="translate(-269.56444,-127.8881)"><g data-paper-data="{&quot;isPaintingLayer&quot;:true}" fill-rule="nonzero" stroke-linecap="butt" stroke-linejoin="miter" stroke-miterlimit="10" stroke-dasharray="" stroke-dashoffset="0" style="mix-blend-mode: normal"><path d="M269.56444,232.1119v-104.2238h100.87112v104.2238z" fill="url(#color-1)" stroke="none" stroke-width="NaN"/><path d="M274.79307,226.70948v-93.41899h90.41387v93.41899z" fill="url(#color-2)" stroke="none" stroke-width="NaN"/><path d="M298.9617,198.63136v-42.0766c0,0 13.87721,4.27897 20.86001,4.27897c7.04223,0 21.21659,-4.27897 21.21659,-4.27897v42.0766c0,0 -14.14541,4.81385 -21.21659,4.81385c-6.95233,0 -20.86001,-4.81385 -20.86001,-4.81385z" fill="url(#color-3)" stroke="#ffffff" stroke-width="2.5"/><path d="M307.07393,191.44724v-25.85215c0,0 8.52625,2.62903 12.81653,2.62903c4.32679,0 13.03562,-2.62903 13.03562,-2.62903v25.85215c0,0 -8.69103,2.95766 -13.03562,2.95766c-4.27156,0 -12.81653,-2.95766 -12.81653,-2.95766z" fill="url(#color-4)" stroke="#ffffff" stroke-width="2.5"/></g></g></svg>