<svg version="1.1" xmlns="http://www.w3.org/2000/svg" xmlns:xlink="http://www.w3.org/1999/xlink" width="125.17955" height="36.30497" viewBox="0,0,125.17955,36.30497"><g transform="translate(-257.41023,-161.61626)"><g data-paper-data="{&quot;isPaintingLayer&quot;:true}" fill-rule="nonzero" stroke="none" stroke-linecap="butt" stroke-linejoin="miter" stroke-miterlimit="10" stroke-dasharray="" stroke-dashoffset="0" style="mix-blend-mode: normal"><path d="M266.38592,197.92122c0,0 -4.88246,-2.6052 -7.22548,-6.8474c-2.02901,-3.67367 -1.73543,-9.90215 -1.73543,-12.8408c0,-2.43435 0.91806,-6.73895 2.21629,-10.17443c1.74358,-4.61401 6.74462,-6.44233 6.74462,-6.44233h108.9029c0,0 3.91821,1.96944 5.90201,6.10312c1.62445,3.3849 1.38677,8.72358 1.38677,11.397c0,2.82495 0.17992,7.01751 -1.48128,10.72747c-1.95859,4.37412 -5.8075,8.07738 -5.8075,8.07738z" fill="#3a7f00" stroke-width="0"/><text transform="translate(276.74805,185.76875) scale(0.5,0.5)" font-size="40" xml:space="preserve" fill="#ffffff" fill-rule="nonzero" stroke="none" stroke-width="1" stroke-linecap="butt" stroke-linejoin="miter" stroke-miterlimit="10" stroke-dasharray="" stroke-dashoffset="0" font-family="&quot;OpenSans-Medium&quot;, Sans Serif" font-weight="normal" text-anchor="start" style="mix-blend-mode: normal"><tspan x="0" dy="0">GO BACK</tspan></text></g></g></svg>