<svg version="1.1" xmlns="http://www.w3.org/2000/svg" xmlns:xlink="http://www.w3.org/1999/xlink" width="83.16272" height="59.62447" viewBox="0,0,83.16272,59.62447"><g transform="translate(-278.12418,-157.19104)"><g data-paper-data="{&quot;isPaintingLayer&quot;:true}" fill-rule="nonzero" stroke-linejoin="miter" stroke-miterlimit="10" stroke-dasharray="" stroke-dashoffset="0" style="mix-blend-mode: normal"><path d="M298.69104,201.30896v-42.61792h42.61792v42.61792z" fill="#00ff68" stroke="#000000" stroke-width="3" stroke-linecap="butt"/><path d="M318.7772,173.4046c0,1.05452 1.69636,3.37024 0.78655,4.17531c-1.46293,1.29449 -6.12903,0.80419 -8.88753,0.80419c-4.47405,0 -8.10098,-2.2294 -8.10098,-4.9795c0,-1.17794 -1.26694,-5.67911 -0.15457,-6.53172c1.48465,-1.13796 4.65735,3.33592 7.21505,3.33592c0.95001,0 1.57375,0.34739 2.11196,1.11534c0.6216,0.88693 2.16963,0.45189 2.93398,0.8645c1.69063,0.91262 4.09554,-0.27577 4.09554,1.21596z" fill="#ff0000" stroke="#000000" stroke-width="3" stroke-linecap="butt"/><path d="M325.64014,170.94569c0.76435,-0.41261 3.65015,-1.31535 4.27176,-2.20228c0.40657,-0.58012 1.45651,-0.9009 2.06446,-0.36868c0.19685,0.17233 2.04476,-2.08444 2.27713,-2.08444c2.5577,0 3.50078,-0.75782 4.98542,0.38013c1.11237,0.85261 -0.15457,5.35378 -0.15457,6.53172c0,2.7501 -3.62693,4.9795 -8.10098,4.9795c-2.7585,0 -7.4246,0.49029 -8.88753,-0.8042c-0.90982,-0.80507 0.78654,-3.12079 0.78654,-4.1753c0,-1.49173 1.06714,-1.34383 2.75777,-2.25645z" data-paper-data="{&quot;index&quot;:null}" fill="#ff0000" stroke="#000000" stroke-width="3" stroke-linecap="butt"/><path d="M341.55163,187.50499c0.83812,1.81592 -0.97781,2.65404 -0.97781,2.65404l-1.82563,0.83868c-0.61638,0.38064 -1.23276,0.76129 -1.84914,1.14194c-2.52282,1.45915 -4.70396,2.72007 -7.72547,1.6242c-2.91927,-1.05879 -4.06032,-3.44133 -7.49688,-3.42216c-2.37791,0.01326 -3.09305,2.28162 -5.48712,2.90168c-1.19146,0.30859 -2.46399,0.14975 -3.69178,0.06399c-1.42277,-0.09939 -3.9726,-0.72118 -5.21536,-1.50356c-2.62561,-1.65295 -3.99168,-4.16448 -6.5992,-0.68239c0,0 -1.29188,1.52678 -2.81866,0.23489c-1.52677,-1.29189 -0.23489,-2.81866 -0.23489,-2.81866c0.71522,-0.78769 1.23023,-1.82085 2.14565,-2.36307c6.31147,-3.7383 9.2673,4.75807 15.3465,3.21394c0.89031,-0.22614 2.96077,-2.31513 3.59435,-2.57932c1.36664,-0.56984 4.06956,-0.56905 5.5007,-0.27987c2.42846,0.49069 3.21137,1.14604 5.21649,2.55092c0.89344,0.62598 1.18959,1.32466 2.37215,1.13765c0.91237,-0.14429 2.3172,-1.08484 3.03743,-1.50936c0.67185,-0.41211 1.3437,-0.82422 2.01555,-1.23633l2.03906,-0.94502c0,0 1.81592,-0.83812 2.65404,0.9778z" fill="#000000" stroke="none" stroke-width="0.5" stroke-linecap="butt"/><path d="M301.83203,186.70805l4.75654,-2.8242l0.14864,2.8242" fill="none" stroke="#000000" stroke-width="3" stroke-linecap="round"/><path d="M334.08732,189.97817l-1.18914,-5.79703l3.56741,4.45925" fill="none" stroke="#000000" stroke-width="3" stroke-linecap="round"/><path d="M312.53425,192.05915l-2.8242,3.27012l-0.44593,-4.45925" fill="none" stroke="#000000" stroke-width="3" stroke-linecap="round"/><path d="M330.37127,191.61323l-1.48642,5.20247l-1.7837,-5.20247" fill="none" stroke="#000000" stroke-width="3" stroke-linecap="round"/><g fill="#ff0000" stroke="none" stroke-width="0.5" stroke-linecap="butt"><path d="M293.96748,210.265c-1.77092,0 -1.77092,-1.77092 -1.77092,-1.77092l0.00002,-2.54181c-0.0126,-1.78479 -0.20639,-3.5688 -0.47359,-5.33352c-0.15376,-1.01551 -0.42054,-1.46516 -1.01243,-0.25624c-0.14437,0.29488 -0.25277,0.60525 -0.35828,0.91687c0.74131,2.6661 0.29628,5.79433 -0.09834,8.39462l0.02059,0.27711c0,0 0,1.77092 -1.77092,1.77092c-1.77092,0 -1.77092,-1.77092 -1.77092,-1.77092l0.0206,-0.81566c0.3906,-2.50092 0.70069,-5.11415 -0.06173,-7.59832c-0.19793,-0.64491 -0.95369,-1.8781 -1.95144,-1.39671c-0.46353,0.22364 -0.68763,0.78351 -0.90864,1.2483c-1.30813,2.75092 -0.8421,5.60719 -0.8421,8.5624c0,0 0,1.77092 -1.77092,1.77092c-1.77092,0 -1.77092,-1.77092 -1.77092,-1.77092c0,-3.47104 -0.62266,-7.24249 1.34344,-10.37899c1.9699,-3.14255 5.24908,-3.7279 7.52693,-1.7255c1.15814,-1.57396 2.81556,-2.60793 5.15127,-1.22283c2.5938,1.53815 2.24244,6.83231 2.26918,9.31249l0.00002,2.55779c0,0 0,1.77092 -1.77092,1.77092z"/><path d="M321.96494,209.40473c0,1.77092 -1.77092,1.77091 -1.77092,1.77091l-1.08686,-0.00879c-1.28035,-0.13491 -2.06286,-0.15062 -2.77557,-0.02683l-1.90641,1.61312c-0.30969,0.26551 -0.71214,0.42592 -1.15206,0.42592c-0.97805,0 -1.77092,-0.79287 -1.77092,-1.77092c0,-0.37212 0.11478,-0.71743 0.31086,-1.00248l1.24639,-1.86959c0.06284,-1.53844 -0.00632,-3.09144 -0.24785,-4.61163c-0.42041,-2.64605 -1.29191,-3.2806 -2.29739,-0.7078c0,0 -0.03933,0.08653 -0.11982,0.21039c0.08645,0.49893 0.17118,0.99815 0.25446,1.49759l0.0241,0.47326c0,0 0,1.77092 -1.77092,1.77092c-0.42323,0 -0.74531,-0.10114 -0.99042,-0.25509c0.07779,2.65735 -1.53182,5.31537 -4.39841,5.70019c-1.07009,0.14365 -2.25417,0.28383 -3.23468,-0.16819c-3.12568,-1.44094 -3.53702,-7.07105 -1.98783,-9.62045c0.46715,-0.76877 1.31169,-1.23144 1.96753,-1.84715c0,0 1.3236,-1.17654 2.50013,0.14706c0.15963,0.17959 0.27325,0.35646 0.35038,0.52806c1.24623,0.41927 2.80581,0.98608 3.1677,1.3487c0.20898,0.2094 0.3971,0.43201 0.56485,0.66527c-0.24049,-1.37437 -0.49482,-2.74634 -0.76854,-4.11438c0,0 -0.3473,-1.73653 1.38922,-2.08383c1.40562,-0.28113 1.90103,0.80308 2.03879,1.22648c1.53627,-1.27684 3.45476,-1.31581 5.72993,1.2614c1.4862,1.6835 1.53727,4.86186 1.3711,7.46911c1.07101,-0.00738 2.31759,0.16498 2.85781,0.21661l0.73443,-0.00878c0,0 1.77092,0 1.77092,1.77092zM301.41535,204.80609c-0.46176,0.63959 -0.64536,1.37072 -0.42717,2.44245c0.28049,1.37775 1.37953,2.95715 2.91877,1.7378c0.19885,-0.15752 0.14639,-0.48793 0.18077,-0.73928c0.37541,-2.74366 -0.60136,-2.84591 -2.67237,-3.44098z"/><path d="M316.78395,205.76216c0,-1.77092 1.77092,-1.77092 1.77092,-1.77092l-0.03395,0.04535c0.69795,-0.1531 1.40976,-0.25294 2.09387,-0.45928c3.87311,-1.1682 -1.70588,-0.47846 -2.63281,-1.5316c-1.63948,-1.8627 -0.25846,-6.97647 1.67824,-8.19119c0.77101,-0.48359 1.81291,-0.16308 2.71936,-0.24462c0,0 1.77092,0 1.77092,1.77092c0,1.77092 -1.77092,1.77092 -1.77092,1.77092c-1.5426,-0.40873 -1.01313,0.62679 -1.51354,2.01899c-0.06204,0.1726 -0.4523,0.40677 -0.28124,0.47293c0.33828,0.13082 0.72164,-0.24603 1.07535,-0.16583c1.08963,0.24706 2.51335,0.21242 3.15722,1.12553c3.21345,4.55712 -2.572,6.18215 -5.50004,6.88437l-0.76247,0.04536c0,0 -1.77092,0 -1.77092,-1.77092z"/><path d="M335.20196,205.70431c1.33275,1.16616 0.16659,2.49891 0.16659,2.49891l-2.0428,1.96929c-1.73029,-0.42556 -4.0318,0.07667 -5.19086,-1.27668c-1.0481,-1.22378 -0.15711,-3.22643 -0.04223,-4.83359c0.09794,-1.37025 0.33174,-2.74895 0.62372,-4.12848c-0.66273,-0.088 -1.32684,-0.16658 -1.99052,-0.24435c0,0 -1.75878,-0.20692 -1.55187,-1.9657c0.20691,-1.75878 1.9657,-1.55187 1.9657,-1.55187c0.7957,0.09398 1.59136,0.19395 2.38483,0.30811c0.35266,-1.44798 0.69793,-2.88981 0.94526,-4.31662c0,0 0.30344,-1.74472 2.04816,-1.44129c1.74473,0.30343 1.44129,2.04816 1.44129,2.04816c-0.26428,1.51495 -0.57157,3.00511 -0.88562,4.49425l2.02404,0.85974c0,0 1.62773,0.6976 0.93013,2.32533c-0.6976,1.62773 -2.32533,0.93013 -2.32533,0.93013l-1.36498,-0.59094c-0.05184,0.25761 -0.10304,0.51574 -0.15341,0.77452c-0.19371,0.99506 -0.3531,1.9975 -0.58306,2.98481c-0.17491,0.75096 -0.82619,1.47979 -0.63049,2.2256c0.10375,0.39536 0.81702,0.02803 1.22553,0.04204l0.507,-0.94477c0,0 1.16616,-1.33275 2.49891,-0.1666z"/><path d="M360.73034,201.00413c-1.25223,1.25223 -2.50445,0 -2.50445,0l-0.48241,-0.69449c-1.23612,-0.4943 -2.54158,-1.7777 -3.78004,-1.28929c-1.07749,0.42494 -1.22277,1.65616 -1.04646,2.99547c0.20355,0.84409 0.39236,1.69176 0.57963,2.54254c0.20213,0.71241 0.37805,1.30142 0.39594,1.6163l0.70941,2.30558c0.05867,0.17607 0.09044,0.36444 0.09044,0.56023c0,0.97805 -0.79287,1.77092 -1.77092,1.77092c-0.79663,0 -1.4704,-0.526 -1.69295,-1.24964l-0.7156,-2.14681l0.03742,-0.01248l-0.06335,-0.07233c-0.01818,-0.08036 -0.03627,-0.16071 -0.05427,-0.24104c-0.40551,-0.55714 -0.70938,-1.26873 -0.90893,-2.06484c0.08618,1.199 -0.3007,2.47722 -1.20069,3.99244c-1.18791,1.99994 -4.33575,1.67041 -6.21008,1.61796c0.51648,2.68888 2.29593,2.46402 4.58101,2.65126l0.15373,-0.36554c0,0 1.58396,-0.79198 2.37593,0.79197c0.79197,1.58396 -0.79197,2.37594 -0.79197,2.37594l-2.03182,0.72723c-2.82734,-0.23919 -4.94921,-0.14569 -6.63808,-2.83232c-2.85994,-4.54955 -1.11762,-14.96439 5.93336,-14.31177c0.97787,0.09051 1.62669,1.14388 2.24764,1.90469c0.67298,0.82458 1.13955,1.61321 1.38657,2.4177c-0.08651,-0.65725 -0.1106,-1.34737 -0.07106,-2.03848c-0.22146,-0.85629 -0.46568,-1.70808 -0.74883,-2.55406c0,0 -0.56001,-1.68004 1.12002,-2.24005c0.4975,-0.16583 0.89679,-0.13524 1.2124,-0.01001c0.47868,-0.62194 1.06653,-1.11183 1.76611,-1.40309c2.14945,-0.89492 4.60456,0.57128 6.41917,1.26051l1.70314,1.49105c0,0 1.25223,1.25222 0,2.50445zM342.2404,207.1465c1.24265,0.19133 2.77785,0.72312 3.25894,-0.26779c0.45747,-0.94224 0.20714,-2.23484 -0.34822,-3.12291c-0.1259,-0.20133 -0.0652,-0.62994 -0.30217,-0.64512c-1.6743,-0.10721 -2.36182,2.30956 -2.60855,4.03581z"/></g><g fill="#000000" stroke="none" stroke-width="0.5" stroke-linecap="butt"><path d="M292.73775,208.34307c-1.77092,0 -1.77092,-1.77091 -1.77092,-1.77091l0.00002,-2.54181c-0.0126,-1.78479 -0.20639,-3.5688 -0.47359,-5.33352c-0.15376,-1.01551 -0.42054,-1.46516 -1.01243,-0.25624c-0.14437,0.29488 -0.25277,0.60525 -0.35828,0.91687c0.74131,2.6661 0.29628,5.79433 -0.09834,8.39463l0.02059,0.2771c0,0 0,1.77092 -1.77092,1.77092c-1.77092,0 -1.77092,-1.77092 -1.77092,-1.77092l0.0206,-0.81566c0.3906,-2.50092 0.70069,-5.11415 -0.06173,-7.59832c-0.19793,-0.64491 -0.95369,-1.8781 -1.95144,-1.39671c-0.46353,0.22364 -0.68763,0.78351 -0.90864,1.24829c-1.30813,2.75092 -0.8421,5.60719 -0.8421,8.5624c0,0 0,1.77092 -1.77092,1.77092c-1.77092,0 -1.77092,-1.77092 -1.77092,-1.77092c0,-3.47104 -0.62266,-7.24249 1.34344,-10.37899c1.9699,-3.14255 5.24908,-3.72789 7.52693,-1.72549c1.15814,-1.57396 2.81556,-2.60793 5.15127,-1.22283c2.5938,1.53815 2.24244,6.83231 2.26918,9.31249l0.00002,2.55779c0,0 0,1.77091 -1.77092,1.77091z"/><path d="M320.73521,207.4828c0,1.77092 -1.77092,1.77092 -1.77092,1.77092l-1.08686,-0.00879c-1.28035,-0.13491 -2.06286,-0.15062 -2.77557,-0.02683l-1.90641,1.61311c-0.30969,0.26551 -0.71214,0.42592 -1.15206,0.42592c-0.97805,0 -1.77092,-0.79287 -1.77092,-1.77092c0,-0.37212 0.11478,-0.71743 0.31086,-1.00248l1.24639,-1.86959c0.06284,-1.53844 -0.00632,-3.09143 -0.24785,-4.61163c-0.42041,-2.64605 -1.29191,-3.28061 -2.29739,-0.70781c0,0 -0.03933,0.08653 -0.11982,0.2104c0.08645,0.49893 0.17118,0.99815 0.25446,1.49759l0.0241,0.47326c0,0 0,1.77092 -1.77092,1.77092c-0.42323,0 -0.74531,-0.10115 -0.99042,-0.2551c0.07779,2.65735 -1.53182,5.31537 -4.39841,5.70019c-1.07009,0.14365 -2.25417,0.28383 -3.23468,-0.16818c-3.12568,-1.44094 -3.53702,-7.07105 -1.98783,-9.62046c0.46715,-0.76877 1.31169,-1.23144 1.96753,-1.84715c0,0 1.3236,-1.17653 2.50013,0.14707c0.15963,0.17959 0.27325,0.35646 0.35038,0.52806c1.24623,0.41927 2.80581,0.98608 3.1677,1.3487c0.20898,0.2094 0.3971,0.43201 0.56485,0.66527c-0.24049,-1.37437 -0.49482,-2.74634 -0.76854,-4.11438c0,0 -0.3473,-1.73653 1.38922,-2.08383c1.40562,-0.28113 1.90103,0.80308 2.03879,1.22648c1.53627,-1.27684 3.45476,-1.31581 5.72993,1.26139c1.4862,1.6835 1.53727,4.86186 1.3711,7.46911c1.07101,-0.00738 2.31759,0.16498 2.85781,0.21661l0.73443,-0.00878c0,0 1.77092,0 1.77092,1.77092zM300.18562,202.88416c-0.46176,0.63959 -0.64536,1.37072 -0.42717,2.44245c0.28049,1.37775 1.37953,2.95715 2.91877,1.7378c0.19885,-0.15752 0.14639,-0.48793 0.18077,-0.73927c0.37541,-2.74366 -0.60136,-2.84591 -2.67237,-3.44098z"/><path d="M315.55422,203.84023c0,-1.77092 1.77092,-1.77092 1.77092,-1.77092l-0.03395,0.04535c0.69795,-0.1531 1.40976,-0.25294 2.09387,-0.45928c3.87311,-1.1682 -1.70588,-0.47846 -2.63281,-1.53161c-1.63948,-1.8627 -0.25846,-6.97647 1.67824,-8.19119c0.77101,-0.48359 1.81291,-0.16307 2.71936,-0.24461c0,0 1.77092,0 1.77092,1.77092c0,1.77092 -1.77092,1.77091 -1.77092,1.77091c-1.5426,-0.40873 -1.01313,0.62679 -1.51354,2.01899c-0.06204,0.1726 -0.4523,0.40678 -0.28124,0.47293c0.33828,0.13082 0.72164,-0.24603 1.07535,-0.16583c1.08963,0.24706 2.51335,0.21242 3.15722,1.12552c3.21345,4.55712 -2.572,6.18215 -5.50004,6.88437l-0.76247,0.04536c0,0 -1.77092,0 -1.77092,-1.77092z"/><path d="M333.97223,203.78238c1.33275,1.16616 0.1666,2.49891 0.1666,2.49891l-2.0428,1.96929c-1.73029,-0.42556 -4.0318,0.07667 -5.19087,-1.27669c-1.0481,-1.22378 -0.15711,-3.22643 -0.04222,-4.83359c0.09794,-1.37025 0.33174,-2.74895 0.62372,-4.12848c-0.66273,-0.088 -1.32684,-0.16658 -1.99052,-0.24435c0,0 -1.75878,-0.20692 -1.55187,-1.9657c0.20691,-1.75878 1.9657,-1.55187 1.9657,-1.55187c0.7957,0.09398 1.59136,0.19395 2.38483,0.30811c0.35266,-1.44798 0.69793,-2.88981 0.94526,-4.31662c0,0 0.30343,-1.74472 2.04816,-1.44129c1.74473,0.30343 1.4413,2.04816 1.4413,2.04816c-0.26428,1.51495 -0.57157,3.00511 -0.88562,4.49425l2.02404,0.85974c0,0 1.62773,0.69759 0.93013,2.32532c-0.6976,1.62773 -2.32533,0.93013 -2.32533,0.93013l-1.36498,-0.59094c-0.05184,0.25761 -0.10304,0.51575 -0.15341,0.77452c-0.19371,0.99506 -0.3531,1.99749 -0.58306,2.98481c-0.17491,0.75096 -0.82619,1.47979 -0.63049,2.2256c0.10375,0.39536 0.81702,0.02802 1.22553,0.04204l0.507,-0.94476c0,0 1.16616,-1.33275 2.4989,-0.1666z"/><path d="M359.50061,199.0822c-1.25223,1.25223 -2.50445,0 -2.50445,0l-0.48241,-0.6945c-1.23612,-0.4943 -2.54158,-1.7777 -3.78004,-1.28929c-1.07749,0.42494 -1.22277,1.65616 -1.04646,2.99547c0.20355,0.84409 0.39236,1.69176 0.57963,2.54255c0.20213,0.71241 0.37805,1.30141 0.39594,1.61629l0.70941,2.30558c0.05867,0.17607 0.09044,0.36444 0.09044,0.56023c0,0.97805 -0.79287,1.77092 -1.77092,1.77092c-0.79663,0 -1.4704,-0.526 -1.69295,-1.24964l-0.7156,-2.14681l0.03742,-0.01247l-0.06335,-0.07233c-0.01818,-0.08036 -0.03627,-0.16071 -0.05427,-0.24104c-0.40551,-0.55714 -0.70938,-1.26873 -0.90893,-2.06484c0.08618,1.199 -0.3007,2.47722 -1.20069,3.99244c-1.18791,1.99994 -4.33575,1.67041 -6.21008,1.61796c0.51648,2.68888 2.29593,2.46402 4.58101,2.65126l0.15373,-0.36554c0,0 1.58396,-0.79198 2.37593,0.79198c0.79197,1.58396 -0.79198,2.37593 -0.79198,2.37593l-2.03182,0.72723c-2.82734,-0.23919 -4.94921,-0.14569 -6.63808,-2.83232c-2.85994,-4.54955 -1.11762,-14.96439 5.93336,-14.31177c0.97787,0.09051 1.62669,1.14388 2.24764,1.90469c0.67298,0.82458 1.13955,1.61321 1.38657,2.4177c-0.08651,-0.65725 -0.1106,-1.34736 -0.07106,-2.03848c-0.22146,-0.85629 -0.46568,-1.70809 -0.74883,-2.55407c0,0 -0.56001,-1.68004 1.12002,-2.24005c0.4975,-0.16583 0.89679,-0.13524 1.2124,-0.01001c0.47868,-0.62194 1.06653,-1.11183 1.7661,-1.4031c2.14945,-0.89492 4.60456,0.57128 6.41917,1.26051l1.70314,1.49105c0,0 1.25223,1.25222 0,2.50445zM341.01067,205.22457c1.24265,0.19133 2.77785,0.72312 3.25894,-0.26779c0.45747,-0.94224 0.20714,-2.23484 -0.34822,-3.12291c-0.1259,-0.20133 -0.0652,-0.62994 -0.30217,-0.64512c-1.6743,-0.10721 -2.36182,2.30956 -2.60855,4.03581z"/></g></g></g></svg>