<svg version="1.1" xmlns="http://www.w3.org/2000/svg" xmlns:xlink="http://www.w3.org/1999/xlink" width="32.0665" height="58.75994" viewBox="0,0,32.0665,58.75994"><g transform="translate(-437.51368,-250.72733)"><g data-paper-data="{&quot;isPaintingLayer&quot;:true}" fill-rule="nonzero" stroke="none" stroke-linecap="butt" stroke-linejoin="miter" stroke-miterlimit="10" stroke-dasharray="" stroke-dashoffset="0" style="mix-blend-mode: normal"><path d="M437.63379,250.72733h7.95787v7.33201h-7.95787z" fill="#000000" stroke-width="NaN"/><path d="M437.51368,258.06793h7.95787v7.33201h-7.95787z" fill="#ffffff" stroke-width="NaN"/><path d="M437.57349,265.38987h7.95787v7.33201h-7.95787z" fill="#000000" stroke-width="NaN"/><path d="M437.52564,272.73046h7.95787v7.33201h-7.95787z" fill="#ffffff" stroke-width="NaN"/><path d="M445.58179,250.72733h7.95787v7.33201h-7.95787z" fill="#ffffff" stroke-width="NaN"/><path d="M445.46169,258.06793h7.95787v7.332h-7.95787z" fill="#000000" stroke-width="NaN"/><path d="M445.52149,265.38987h7.95787v7.33201h-7.95786z" fill="#ffffff" stroke-width="NaN"/><path d="M445.47365,272.73046h7.95787v7.33201h-7.95786z" fill="#000000" stroke-width="NaN"/><path d="M453.6743,250.7939h7.95787v7.33201h-7.95786z" fill="#000000" stroke-width="NaN"/><path d="M453.5542,258.1345h7.95787v7.332h-7.95787z" fill="#ffffff" stroke-width="NaN"/><path d="M453.61401,265.45644h7.95786v7.33201h-7.95786z" fill="#000000" stroke-width="NaN"/><path d="M453.56616,272.79703h7.95786v7.33201h-7.95787z" fill="#ffffff" stroke-width="NaN"/><path d="M461.62231,250.7939h7.95787v7.332h-7.95787z" fill="#ffffff" stroke-width="NaN"/><path d="M461.5022,258.1345h7.95786v7.33201h-7.95786z" fill="#000000" stroke-width="NaN"/><path d="M461.56201,265.45644c0,0 0.57324,0 1.09479,0c1.30584,0 6.86308,0 6.86308,0v7.332h-7.95787z" fill="#ffffff" stroke-width="NaN"/><path d="M461.51416,272.79703h7.95786v7.33201h-7.95786z" fill="#000000" stroke-width="NaN"/><path d="M437.63378,280.08557h7.95787v7.33201h-7.95787z" fill="#000000" stroke-width="NaN"/><path d="M437.51368,287.42617h7.95787v7.33201h-7.95787z" fill="#ffffff" stroke-width="NaN"/><path d="M437.57349,294.74811h7.95786v7.332h-7.95787z" fill="#000000" stroke-width="NaN"/><path d="M437.52564,302.0887h7.95786v7.33201h-7.95786z" fill="#ffffff" stroke-width="NaN"/><path d="M445.58179,280.08557h7.95787v7.332h-7.95787z" fill="#ffffff" stroke-width="NaN"/><path d="M445.46169,287.42617h7.95786v7.33201h-7.95786z" fill="#000000" stroke-width="NaN"/><path d="M445.52149,294.74811h7.95787v7.332h-7.95787z" fill="#ffffff" stroke-width="NaN"/><path d="M445.47364,302.0887h7.95787v7.33201h-7.95787z" fill="#000000" stroke-width="NaN"/><path d="M453.6743,280.15214h7.95786v7.332h-7.95786z" fill="#000000" stroke-width="NaN"/><path d="M453.5542,287.49274h7.95786v7.33201h-7.95787z" fill="#ffffff" stroke-width="NaN"/><path d="M453.61401,294.81467h7.95787v7.33201h-7.95787z" fill="#000000" stroke-width="NaN"/><path d="M453.56615,302.15527h7.95787v7.332h-7.95787z" fill="#ffffff" stroke-width="NaN"/><path d="M461.6223,280.15214h7.95787v7.332h-7.95787z" fill="#ffffff" stroke-width="NaN"/><path d="M461.5022,287.49274h7.95787v7.33201h-7.95787z" fill="#000000" stroke-width="NaN"/><path d="M461.56201,294.81467h7.95787v7.33201h-7.95787z" fill="#ffffff" stroke-width="NaN"/><path d="M461.51416,302.15527h7.95787v7.332h-7.95787z" fill="#000000" stroke-width="NaN"/></g></g></svg>