<svg version="1.1" xmlns="http://www.w3.org/2000/svg" xmlns:xlink="http://www.w3.org/1999/xlink" width="102.125" height="452.04959" viewBox="0,0,102.125,452.04959"><g transform="translate(-109.20577,43.99416)"><g data-paper-data="{&quot;isPaintingLayer&quot;:true}" fill="#ffffff" fill-rule="nonzero" stroke="none" stroke-width="0" stroke-linecap="butt" stroke-linejoin="miter" stroke-miterlimit="10" stroke-dasharray="" stroke-dashoffset="0" style="mix-blend-mode: normal"><path d="M140.87786,187.62058l33.32586,-231.61474l7.91845,1.13934l-33.32586,231.61474z"/><path d="M150.13863,372.75066l-9.14458,-184.84942l11.86733,-38.9762l19.14458,198.84942z"/><path d="M149.13008,408.05543l2.18969,-115.95945l20.08669,56.13961l-7.53652,45.14003z"/><path d="M139.70577,349.75001l-2.5,-7.75l4.5,-13.25l4.75,31.25z"/><path d="M117.20577,341.50001l-8,-29.25l14.25,3.75l4.75,31.25z"/><path d="M174.08077,340.50001l4.75,-31.25l4.5,13.25l-2.5,7.75z" data-paper-data="{&quot;index&quot;:null}"/><path d="M192.33077,327.75001l4.75,-31.25l14.25,-3.75l-8,29.25z" data-paper-data="{&quot;index&quot;:null}"/></g></g></svg>