<svg version="1.1" xmlns="http://www.w3.org/2000/svg" xmlns:xlink="http://www.w3.org/1999/xlink" width="102.125" height="421.54959" viewBox="0,0,102.125,421.54959"><g transform="translate(-156.5,46.02479)"><g data-paper-data="{&quot;isPaintingLayer&quot;:true}" fill="#ffffff" fill-rule="nonzero" stroke="none" stroke-width="0" stroke-linecap="butt" stroke-linejoin="miter" stroke-miterlimit="10" stroke-dasharray="" stroke-dashoffset="0" style="mix-blend-mode: normal"><path d="M215.37009,110.72929l-22.44414,-155.98676l5.33288,-0.76732l22.44414,155.98676z" data-paper-data="{&quot;index&quot;:null}"/><path d="M191.30851,271.74384l19.14458,-198.84942l11.86733,38.9762l-9.14458,184.84942z" data-paper-data="{&quot;index&quot;:null}"/><path d="M209.4628,371.09499l-17.53652,-98.64003l20.58669,22.86039l0.93969,80.20945z" data-paper-data="{&quot;index&quot;:null}"/><path d="M187,346.75001l-2.5,-7.75l4.5,-13.25l4.75,31.25z"/><path d="M164.5,338.50001l-8,-29.25l14.25,3.75l4.75,31.25z"/><path d="M221.375,337.50001l4.75,-31.25l4.5,13.25l-2.5,7.75z" data-paper-data="{&quot;index&quot;:null}"/><path d="M239.625,324.75001l4.75,-31.25l14.25,-3.75l-8,29.25z" data-paper-data="{&quot;index&quot;:null}"/></g></g></svg>