<svg version="1.1" xmlns="http://www.w3.org/2000/svg" xmlns:xlink="http://www.w3.org/1999/xlink" width="32.06113" height="64.18883" viewBox="0,0,32.06113,64.18883"><g transform="translate(-236.00354,-175.96945)"><g data-paper-data="{&quot;isPaintingLayer&quot;:true}" fill-rule="nonzero" stroke="none" stroke-width="0" stroke-linecap="butt" stroke-linejoin="miter" stroke-miterlimit="10" stroke-dasharray="" stroke-dashoffset="0" style="mix-blend-mode: normal"><path d="M236.00355,240.15828v-60.21746h32.06112v60.21746z" fill-opacity="0.01176" fill="#ffffff"/><path d="M264.03603,180.03221v-4.02863h4.02863v4.02863z" data-paper-data="{&quot;index&quot;:null}" fill="none"/><path d="M260.04319,184.00363v-4.02863h4.02863v4.02863z" data-paper-data="{&quot;index&quot;:null}" fill="none"/><path d="M264.03603,184.0648v-4.02863h4.02863v4.02863z" data-paper-data="{&quot;index&quot;:null}" fill="none"/><path d="M260.04319,180.05969v-4.02863h4.02863v4.02863z" data-paper-data="{&quot;index&quot;:null}" fill="none"/><path d="M256.03594,179.99808v-4.02863h4.02863v4.02863z" data-paper-data="{&quot;index&quot;:null}" fill="none"/><path d="M252.04312,183.96945v-4.02863h4.02863v4.02863z" data-paper-data="{&quot;index&quot;:null}" fill="#000000"/><path d="M256.03594,184.03068v-4.02863h4.02863v4.02863z" data-paper-data="{&quot;index&quot;:null}" fill="#000000"/><path d="M252.04312,180.02551v-4.02863h4.02863v4.02863z" data-paper-data="{&quot;index&quot;:null}" fill="none"/><path d="M264.02266,187.99173v-4.02863h4.02863v4.02863z" data-paper-data="{&quot;index&quot;:null}" fill="none"/><path d="M260.02982,192.03632v-4.02863h4.02863v4.02863z" data-paper-data="{&quot;index&quot;:null}" fill="#000000"/><path d="M264.02266,192.02434v-4.02863h4.02863v4.02863z" data-paper-data="{&quot;index&quot;:null}" fill="none"/><path d="M260.02982,188.01922v-4.02863h4.02863v4.02863z" data-paper-data="{&quot;index&quot;:null}" fill="#000000"/><path d="M256.02259,187.95762v-4.02863h4.02863v4.02863z" data-paper-data="{&quot;index&quot;:null}" fill="#000000"/><path d="M252.02978,192.00221v-4.02863h4.02863v4.02863z" data-paper-data="{&quot;index&quot;:null}" fill="#a0fff1"/><path d="M256.02259,191.99021v-4.02863h4.02863v4.02863z" data-paper-data="{&quot;index&quot;:null}" fill="#5e5e5e"/><path d="M252.02978,187.98509v-4.02863h4.02863v4.02863z" data-paper-data="{&quot;index&quot;:null}" fill="#5e5e5e"/><path d="M248.06659,180.06316v-4.02863h4.02863v4.02863z" data-paper-data="{&quot;index&quot;:null}" fill="none"/><path d="M244.07374,184.03453v-4.02863h4.02863v4.02863z" data-paper-data="{&quot;index&quot;:null}" fill="#000000"/><path d="M248.06659,184.09578v-4.02863h4.02863v4.02863z" data-paper-data="{&quot;index&quot;:null}" fill="#000000"/><path d="M244.07374,180.09059v-4.02863h4.02863v4.02863z" data-paper-data="{&quot;index&quot;:null}" fill="none"/><path d="M240.06651,180.02898v-4.02863h4.02863v4.02863z" data-paper-data="{&quot;index&quot;:null}" fill="none"/><path d="M236.07367,184.00042v-4.02863h4.02863v4.02863z" data-paper-data="{&quot;index&quot;:null}" fill="none"/><path d="M240.06651,184.06164v-4.02863h4.02863v4.02863z" data-paper-data="{&quot;index&quot;:null}" fill="#ffffff"/><path d="M236.07367,180.05647v-4.02863h4.02863v4.02863z" data-paper-data="{&quot;index&quot;:null}" fill="none"/><path d="M248.05324,188.0227v-4.02863h4.02863v4.02863z" data-paper-data="{&quot;index&quot;:null}" fill="#5e5e5e"/><path d="M244.0604,192.06729v-4.02863h4.02863v4.02863z" data-paper-data="{&quot;index&quot;:null}" fill="#a0fff1"/><path d="M248.05324,192.05531v-4.02863h4.02863v4.02863z" data-paper-data="{&quot;index&quot;:null}" fill="#5e5e5e"/><path d="M244.0604,188.05013v-4.02863h4.02863v4.02863z" data-paper-data="{&quot;index&quot;:null}" fill="#5e5e5e"/><path d="M240.05315,187.98852v-4.02863h4.02863v4.02863z" data-paper-data="{&quot;index&quot;:null}" fill="#000000"/><path d="M236.06031,192.03311v-4.02863h4.02863v4.02863z" data-paper-data="{&quot;index&quot;:null}" fill="none"/><path d="M240.05315,192.02118v-4.02863h4.02863v4.02863z" data-paper-data="{&quot;index&quot;:null}" fill="#000000"/><path d="M236.06031,188.016v-4.02863h4.02863v4.02863z" data-paper-data="{&quot;index&quot;:null}" fill="none"/><path d="M264.00512,196.02719v-4.02863h4.02863v4.02863z" data-paper-data="{&quot;index&quot;:null}" fill="none"/><path d="M260.01228,199.99863v-4.02863h4.02863v4.02863z" data-paper-data="{&quot;index&quot;:null}" fill="#000000"/><path d="M264.00512,200.05985v-4.02863h4.02863v4.02863z" data-paper-data="{&quot;index&quot;:null}" fill="none"/><path d="M260.01228,196.05468v-4.02863h4.02863v4.02863z" data-paper-data="{&quot;index&quot;:null}" fill="#000000"/><path d="M256.00503,195.99308v-4.02863h4.02863v4.02863z" data-paper-data="{&quot;index&quot;:null}" fill="#5e5e5e"/><path d="M252.01223,199.9645v-4.02863h4.02863v4.02863z" data-paper-data="{&quot;index&quot;:null}" fill="#5e5e5e"/><path d="M256.00503,200.02567v-4.02863h4.02863v4.02863z" data-paper-data="{&quot;index&quot;:null}" fill="#000000"/><path d="M252.01223,196.02056v-4.02863h4.02863v4.02863z" data-paper-data="{&quot;index&quot;:null}" fill="#00ffda"/><path d="M263.99172,203.98672v-4.02863h4.02863v4.02863z" data-paper-data="{&quot;index&quot;:null}" fill="none"/><path d="M259.99888,208.03131v-4.02863h4.02863v4.02863z" data-paper-data="{&quot;index&quot;:null}" fill="#000000"/><path d="M263.99172,208.01939v-4.02863h4.02863v4.02863z" data-paper-data="{&quot;index&quot;:null}" fill="#323232"/><path d="M259.99888,204.01421v-4.02863h4.02863v4.02863z" data-paper-data="{&quot;index&quot;:null}" fill="#323232"/><path d="M255.99163,203.9526v-4.02863h4.02863v4.02863z" data-paper-data="{&quot;index&quot;:null}" fill="#000000"/><path d="M251.9988,207.99719v-4.02863h4.02863v4.02863z" data-paper-data="{&quot;index&quot;:null}" fill="#000000"/><path d="M255.99163,207.98521v-4.02863h4.02863v4.02863z" data-paper-data="{&quot;index&quot;:null}" fill="#000000"/><path d="M251.9988,203.98009v-4.02863h4.02863v4.02863z" data-paper-data="{&quot;index&quot;:null}" fill="#000000"/><path d="M248.03569,196.05816v-4.02863h4.02863v4.02863z" data-paper-data="{&quot;index&quot;:null}" fill="#5e5e5e"/><path d="M244.04285,200.02958v-4.02863h4.02863v4.02863z" data-paper-data="{&quot;index&quot;:null}" fill="#5e5e5e"/><path d="M248.03569,200.09077v-4.02863h4.02863v4.02863z" data-paper-data="{&quot;index&quot;:null}" fill="#5e5e5e"/><path d="M244.04285,196.08564v-4.02863h4.02863v4.02863z" data-paper-data="{&quot;index&quot;:null}" fill="#00ffda"/><path d="M240.0356,196.02398v-4.02863h4.02863v4.02863z" data-paper-data="{&quot;index&quot;:null}" fill="#000000"/><path d="M236.04276,199.9954v-4.02863h4.02863v4.02863z" data-paper-data="{&quot;index&quot;:null}" fill="none"/><path d="M240.0356,200.05665v-4.02863h4.02863v4.02863z" data-paper-data="{&quot;index&quot;:null}" fill="#4c4c4c"/><path d="M236.04276,196.05146v-4.02863h4.02863v4.02863z" data-paper-data="{&quot;index&quot;:null}" fill="none"/><path d="M248.02227,204.0177v-4.02863h4.02863v4.02863z" data-paper-data="{&quot;index&quot;:null}" fill="#000000"/><path d="M244.02943,208.06229v-4.02863h4.02863v4.02863z" data-paper-data="{&quot;index&quot;:null}" fill="#000000"/><path d="M248.02227,208.05029v-4.02863h4.02863v4.02863z" data-paper-data="{&quot;index&quot;:null}" fill="#838383"/><path d="M244.02943,204.04518v-4.02863h4.02863v4.02863z" data-paper-data="{&quot;index&quot;:null}" fill="#000000"/><path d="M240.02224,203.98356v-4.02863h4.02863v4.02863z" data-paper-data="{&quot;index&quot;:null}" fill="#000000"/><path d="M236.02934,208.02815v-4.02863h4.02863v4.02863z" data-paper-data="{&quot;index&quot;:null}" fill="none"/><path d="M240.02224,208.01618v-4.02863h4.02863v4.02863z" data-paper-data="{&quot;index&quot;:null}" fill="#323232"/><path d="M236.02934,204.011v-4.02863h4.02863v4.02863z" data-paper-data="{&quot;index&quot;:null}" fill="none"/><path d="M264.01023,212.0518v-4.02863h4.02863v4.02863z" data-paper-data="{&quot;index&quot;:null}" fill="#000000"/><path d="M260.01739,216.02317v-4.02863h4.02863v4.02863z" data-paper-data="{&quot;index&quot;:null}" fill="none"/><path d="M264.01023,216.08441v-4.02863h4.02863v4.02863z" data-paper-data="{&quot;index&quot;:null}" fill="#000000"/><path d="M260.01739,212.07923v-4.02863h4.02863v4.02863z" data-paper-data="{&quot;index&quot;:null}" fill="#323232"/><path d="M256.01014,212.01762v-4.02863h4.02863v4.02863z" data-paper-data="{&quot;index&quot;:null}" fill="#000000"/><path d="M252.01733,215.98905v-4.02863h4.02863v4.02863z" data-paper-data="{&quot;index&quot;:null}" fill="#000000"/><path d="M256.01014,216.05028v-4.02863h4.02863v4.02863z" data-paper-data="{&quot;index&quot;:null}" fill="#000000"/><path d="M252.01733,212.0451v-4.02863h4.02863v4.02863z" data-paper-data="{&quot;index&quot;:null}" fill="#000000"/><path d="M263.99683,220.01134v-4.02863h4.02863v4.02863z" data-paper-data="{&quot;index&quot;:null}" fill="#000000"/><path d="M260.00399,224.05593v-4.02863h4.02863v4.02863z" data-paper-data="{&quot;index&quot;:null}" fill="none"/><path d="M263.99683,224.04394v-4.02863h4.02863v4.02863z" data-paper-data="{&quot;index&quot;:null}" fill="#323232"/><path d="M260.00399,220.03881v-4.02863h4.02863v4.02863z" data-paper-data="{&quot;index&quot;:null}" fill="none"/><path d="M255.99675,219.9772v-4.02863h4.02863v4.02863z" data-paper-data="{&quot;index&quot;:null}" fill="#000000"/><path d="M252.0039,224.02179v-4.02863h4.02863v4.02863z" data-paper-data="{&quot;index&quot;:null}" fill="#000000"/><path d="M255.99675,224.00982v-4.02863h4.02863v4.02863z" data-paper-data="{&quot;index&quot;:null}" fill="#323232"/><path d="M252.0039,220.00463v-4.02863h4.02863v4.02863z" data-paper-data="{&quot;index&quot;:null}" fill="#000000"/><path d="M248.04079,212.08271v-4.02863h4.02863v4.02863z" data-paper-data="{&quot;index&quot;:null}" fill="#000000"/><path d="M244.04795,216.05414v-4.02863h4.02863v4.02863z" data-paper-data="{&quot;index&quot;:null}" fill="#000000"/><path d="M248.04079,216.11532v-4.02863h4.02863v4.02863z" data-paper-data="{&quot;index&quot;:null}" fill="#a3a3a3"/><path d="M244.04795,212.1102v-4.02863h4.02863v4.02863z" data-paper-data="{&quot;index&quot;:null}" fill="#000000"/><path d="M240.0407,212.04859v-4.02863h4.02863v4.02863z" data-paper-data="{&quot;index&quot;:null}" fill="#000000"/><path d="M236.04786,216.02001v-4.02863h4.02863v4.02863z" data-paper-data="{&quot;index&quot;:null}" fill="#000000"/><path d="M240.0407,216.08118v-4.02863h4.02863v4.02863z" data-paper-data="{&quot;index&quot;:null}" fill="#323232"/><path d="M236.04786,212.07607v-4.02863h4.02863v4.02863z" data-paper-data="{&quot;index&quot;:null}" fill="#323232"/><path d="M248.02745,220.04224v-4.02863h4.02863v4.02863z" data-paper-data="{&quot;index&quot;:null}" fill="#000000"/><path d="M244.0346,224.08683v-4.02863h4.02863v4.02863z" data-paper-data="{&quot;index&quot;:null}" fill="#323232"/><path d="M248.02745,224.0749v-4.02863h4.02863v4.02863z" data-paper-data="{&quot;index&quot;:null}" fill="#000000"/><path d="M244.0346,220.06972v-4.02863h4.02863v4.02863z" data-paper-data="{&quot;index&quot;:null}" fill="#000000"/><path d="M240.02736,220.00812v-4.02863h4.02863v4.02863z" data-paper-data="{&quot;index&quot;:null}" fill="none"/><path d="M236.03452,224.05271v-4.02863h4.02863v4.02863z" data-paper-data="{&quot;index&quot;:null}" fill="#000000"/><path d="M240.02736,224.04072v-4.02863h4.02863v4.02863z" data-paper-data="{&quot;index&quot;:null}" fill="none"/><path d="M236.03452,220.03561v-4.02863h4.02863v4.02863z" data-paper-data="{&quot;index&quot;:null}" fill="#000000"/><path d="M263.97927,228.0468v-4.02863h4.02863v4.02863z" data-paper-data="{&quot;index&quot;:null}" fill="none"/><path d="M259.98643,232.01822v-4.02863h4.02863v4.02863z" data-paper-data="{&quot;index&quot;:null}" fill="none"/><path d="M263.97927,232.07939v-4.02863h4.02863v4.02863z" data-paper-data="{&quot;index&quot;:null}" fill="none"/><path d="M259.98643,228.07428v-4.02863h4.02863v4.02863z" data-paper-data="{&quot;index&quot;:null}" fill="none"/><path d="M255.97919,228.01266v-4.02863h4.02863v4.02863z" data-paper-data="{&quot;index&quot;:null}" fill="#000000"/><path d="M251.98635,231.98404v-4.02863h4.02863v4.02863z" data-paper-data="{&quot;index&quot;:null}" fill="none"/><path d="M255.97919,232.04528v-4.02863h4.02863v4.02863z" data-paper-data="{&quot;index&quot;:null}" fill="#323232"/><path d="M251.98635,228.0401v-4.02863h4.02863v4.02863z" data-paper-data="{&quot;index&quot;:null}" fill="none"/><path d="M263.96592,236.00633v-4.02863h4.02863v4.02863z" data-paper-data="{&quot;index&quot;:null}" fill="none"/><path d="M259.97308,240.05092v-4.02863h4.02863v4.02863z" data-paper-data="{&quot;index&quot;:null}" fill="none"/><path d="M263.96592,240.03893v-4.02863h4.02863v4.02863z" data-paper-data="{&quot;index&quot;:null}" fill="none"/><path d="M259.97308,236.03382v-4.02863h4.02863v4.02863z" data-paper-data="{&quot;index&quot;:null}" fill="none"/><path d="M244.08029,235.9722v-4.02863h4.02863v4.02863z" data-paper-data="{&quot;index&quot;:null}" fill="#000000"/><path d="M251.97301,240.01679v-4.02863h4.02863v4.02863z" data-paper-data="{&quot;index&quot;:null}" fill="none"/><path d="M244.08029,240.00481v-4.02863h4.02863v4.02863z" data-paper-data="{&quot;index&quot;:null}" fill="#323232"/><path d="M251.97301,235.99968v-4.02863h4.02863v4.02863z" data-paper-data="{&quot;index&quot;:null}" fill="none"/><path d="M248.00983,228.0777v-4.02863h4.02863v4.02863z" data-paper-data="{&quot;index&quot;:null}" fill="none"/><path d="M244.01706,232.04913v-4.02863h4.02863v4.02863z" data-paper-data="{&quot;index&quot;:null}" fill="#000000"/><path d="M248.00983,232.11037v-4.02863h4.02863v4.02863z" data-paper-data="{&quot;index&quot;:null}" fill="none"/><path d="M244.01706,228.10518v-4.02863h4.02863v4.02863z" data-paper-data="{&quot;index&quot;:null}" fill="#000000"/><path d="M240.00981,228.04358v-4.02863h4.02863v4.02863z" data-paper-data="{&quot;index&quot;:null}" fill="none"/><path d="M236.01697,232.01501v-4.02863h4.02863v4.02863z" data-paper-data="{&quot;index&quot;:null}" fill="none"/><path d="M240.00981,232.07619v-4.02863h4.02863v4.02863z" data-paper-data="{&quot;index&quot;:null}" fill="none"/><path d="M236.01697,228.07107v-4.02863h4.02863v4.02863z" data-paper-data="{&quot;index&quot;:null}" fill="#323232"/><path d="M247.99647,236.03724v-4.02863h4.02863v4.02863z" data-paper-data="{&quot;index&quot;:null}" fill="none"/><path d="M247.99647,240.0699v-4.02863h4.02863v4.02863z" data-paper-data="{&quot;index&quot;:null}" fill="none"/><path d="M239.99638,236.0031v-4.02863h4.02863v4.02863z" data-paper-data="{&quot;index&quot;:null}" fill="none"/><path d="M236.00354,240.0477v-4.02863h4.02863v4.02863z" data-paper-data="{&quot;index&quot;:null}" fill="none"/><path d="M239.99638,240.03577v-4.02863h4.02863v4.02863z" data-paper-data="{&quot;index&quot;:null}" fill="none"/><path d="M236.00354,236.03059v-4.02863h4.02863v4.02863z" data-paper-data="{&quot;index&quot;:null}" fill="none"/><path d="M256.04314,236.12567v-4.02863h4.02863v4.02863z" data-paper-data="{&quot;index&quot;:null}" fill="none"/><path d="M256.04314,240.15828v-4.02863h4.02863v4.02863z" data-paper-data="{&quot;index&quot;:null}" fill="none"/></g></g></svg>