<svg version="1.1" xmlns="http://www.w3.org/2000/svg" xmlns:xlink="http://www.w3.org/1999/xlink" width="497" height="378" viewBox="0,0,497,378"><g transform="translate(7.5,10)"><g data-paper-data="{&quot;isPaintingLayer&quot;:true}" fill-rule="nonzero" stroke-linejoin="miter" stroke-miterlimit="10" stroke-dasharray="" stroke-dashoffset="0" style="mix-blend-mode: normal"><path d="M-7.5,368v-378h497v378z" fill="#ffffff" stroke="none" stroke-width="0" stroke-linecap="butt"/><text transform="translate(272.73488,153.88955) scale(0.21643,0.21643)" font-size="40" xml:space="preserve" fill="#000000" fill-rule="nonzero" stroke="none" stroke-width="1" stroke-linecap="butt" stroke-linejoin="miter" stroke-miterlimit="10" stroke-dasharray="" stroke-dashoffset="0" font-family="&quot;Source Code Pro&quot;, Sans Serif" font-weight="normal" text-anchor="start" style="mix-blend-mode: normal"><tspan x="0" dy="0">Jump boost</tspan></text><path d="M354.40635,240.77328c0,0 5.7081,-12.64422 -10.81378,-19.18373c-12.48027,-4.93981 -19.32874,-14.05774 -26.1501,-19.97561c-6.92318,-6.0062 1.65646,-10.49011 -4.39404,-20.1705c-7.32263,-11.71573 -8.61313,-17.91921 -8.61313,-17.91921" fill="none" stroke="#000000" stroke-width="1.5" stroke-linecap="round"/><path d="M363.86262,231.32259c0,0 -4.61656,9.48625 -7.05201,14.49069c-2.6177,5.37893 -15.99017,-13.15748 -15.99017,-13.15748" fill="none" stroke="#000000" stroke-width="1.5" stroke-linecap="round"/><path d="M268.51394,162.59523v-22.60568h60.38504v22.60568z" fill="none" stroke="#000000" stroke-width="1.5" stroke-linecap="butt"/><text transform="translate(152.91977,184.30776) scale(0.35898,0.35898)" font-size="40" xml:space="preserve" fill="#000000" fill-rule="nonzero" stroke="none" stroke-width="1" stroke-linecap="butt" stroke-linejoin="miter" stroke-miterlimit="10" stroke-dasharray="" stroke-dashoffset="0" font-family="&quot;Source Code Pro&quot;, Sans Serif" font-weight="normal" text-anchor="start" style="mix-blend-mode: normal"><tspan x="0" dy="0">Blocks</tspan></text><path d="M132.78079,191.30284v-22.60568h91.97105v22.60568z" fill="none" stroke="#000000" stroke-width="1.5" stroke-linecap="butt"/><path d="M106.83683,103.46117c0,0 8.42844,5.16201 16.98366,11.5369c6.46242,4.81546 11.61531,11.87602 14.64424,16.37347c3.07414,4.56458 5.73623,11.8027 7.72986,18.36078c2.41279,7.93693 2.19075,11.73499 2.19075,11.73499" fill="none" stroke="#000000" stroke-width="1.5" stroke-linecap="round"/><path d="M104.82032,117.36085c0,0 -3.48081,-10.29828 -5.3171,-15.7311c-1.97371,-5.83937 21.25001,-1.92502 21.25001,-1.92502" fill="none" stroke="#000000" stroke-width="1.5" stroke-linecap="round"/><text transform="translate(152.21468,163.74587) scale(0.21643,0.21643)" font-size="40" xml:space="preserve" fill="#000000" fill-rule="nonzero" stroke="none" stroke-width="1" stroke-linecap="butt" stroke-linejoin="miter" stroke-miterlimit="10" stroke-dasharray="" stroke-dashoffset="0" font-family="&quot;Source Code Pro&quot;, Sans Serif" font-weight="normal" text-anchor="start" style="mix-blend-mode: normal"><tspan x="0" dy="0">(Not passable)</tspan></text><text transform="translate(85.19189,236.85747) scale(0.35898,0.35898)" font-size="40" xml:space="preserve" fill="#000000" fill-rule="nonzero" stroke="none" stroke-width="1" stroke-linecap="butt" stroke-linejoin="miter" stroke-miterlimit="10" stroke-dasharray="" stroke-dashoffset="0" font-family="&quot;Source Code Pro&quot;, Sans Serif" font-weight="normal" text-anchor="start" style="mix-blend-mode: normal"><tspan x="0" dy="0">Annoying Things</tspan></text><path d="M81.62824,242.12032v-22.60568h140.24655v22.60568z" fill="none" stroke="#000000" stroke-width="1.5" stroke-linecap="butt"/><path d="M147.25965,257.9812c0,0 0.17894,2.15673 -1.68236,-4.20863c-1.11855,-3.82524 -2.5167,-7.94105 -4.12657,-11.31522" fill="none" stroke="#000000" stroke-width="1.5" stroke-linecap="round"/><path d="M151.66098,253.90206c0,0 -1.3162,5.21298 -2.01055,7.96307c-0.74631,2.95589 -9.34639,-4.90053 -9.34639,-4.90053" fill="none" stroke="#000000" stroke-width="1.5" stroke-linecap="round"/><text transform="translate(228.58319,134.0614) scale(0.21643,0.21643)" font-size="40" xml:space="preserve" fill="#000000" fill-rule="nonzero" stroke="none" stroke-width="1" stroke-linecap="butt" stroke-linejoin="miter" stroke-miterlimit="10" stroke-dasharray="" stroke-dashoffset="0" font-family="&quot;Source Code Pro&quot;, Sans Serif" font-weight="normal" text-anchor="start" style="mix-blend-mode: normal"><tspan x="0" dy="0">Adds jump power temporarily</tspan></text><text transform="translate(27.18462,212.74587) scale(0.21643,0.21643)" font-size="40" xml:space="preserve" fill="#000000" fill-rule="nonzero" stroke="none" stroke-width="1" stroke-linecap="butt" stroke-linejoin="miter" stroke-miterlimit="10" stroke-dasharray="" stroke-dashoffset="0" font-family="&quot;Source Code Pro&quot;, Sans Serif" font-weight="normal" text-anchor="start" style="mix-blend-mode: normal"><tspan x="0" dy="0">It makes you go to the beggining of the level again</tspan></text></g></g></svg>