<svg version="1.1" xmlns="http://www.w3.org/2000/svg" xmlns:xlink="http://www.w3.org/1999/xlink" width="102.125" height="452.0496" viewBox="0,0,102.125,452.0496"><g transform="translate(-334.03953,46.02479)"><g data-paper-data="{&quot;isPaintingLayer&quot;:true}" fill="#ffffff" fill-rule="nonzero" stroke="none" stroke-width="0" stroke-linecap="butt" stroke-linejoin="miter" stroke-miterlimit="10" stroke-dasharray="" stroke-dashoffset="0" style="mix-blend-mode: normal"><path d="M364.47988,185.58995c0,0 4.90116,-109.66308 10.75935,-150.37747c5.16217,-35.87706 22.56651,-81.23727 22.56651,-81.23727l7.91845,1.13934l-33.32586,231.61474z" data-paper-data="{&quot;index&quot;:null}"/><path d="M373.74065,370.72003l-9.14458,-184.84942l11.86733,-38.9762c0,0 -0.77876,90.61833 2.37918,123.41889c3.2223,33.46909 16.7654,75.43053 16.7654,75.43053z" data-paper-data="{&quot;index&quot;:null}"/><path d="M372.7321,406.02482l2.18969,-115.95945l20.08669,56.13961l-7.53652,45.14003z" data-paper-data="{&quot;index&quot;:null}"/><path d="M364.53953,348.75001l-2.5,-7.75l4.5,-13.25l4.75,31.25z"/><path d="M342.03953,340.50001l-8,-29.25l14.25,3.75l4.75,31.25z"/><path d="M398.91453,339.50001l4.75,-31.25l4.5,13.25l-2.5,7.75z" data-paper-data="{&quot;index&quot;:null}"/><path d="M417.16453,326.75001l4.75,-31.25l14.25,-3.75l-8,29.25z" data-paper-data="{&quot;index&quot;:null}"/></g></g></svg>