<svg version="1.1" xmlns="http://www.w3.org/2000/svg" xmlns:xlink="http://www.w3.org/1999/xlink" width="932.43243" height="523.01788" viewBox="0,0,932.43243,523.01788"><g transform="translate(226.21619,143.31817)"><g data-paper-data="{&quot;isPaintingLayer&quot;:true}" fill-rule="nonzero" stroke="none" stroke-linecap="butt" stroke-linejoin="miter" stroke-miterlimit="10" stroke-dasharray="" stroke-dashoffset="0" style="mix-blend-mode: normal"><path d="M-226.21618,379.69972v-399.3994h932.43243v399.3994z" fill="#000000" stroke-width="0"/><path d="M128.68447,-45.59016l308.55697,-97.72801l112.8242,356.22024l-308.55697,97.72801z" fill-opacity="0.02353" fill="#ffffff" stroke-width="0"/><g fill-opacity="0.08235" fill="#ffffff" stroke-width="0.5"><path d="M-41.89187,104.1742c0,-6.27723 2.31352,-12.01412 6.13439,-16.4045c-0.38934,-0.70077 -0.74598,-1.42221 -1.06784,-2.16228c-0.3606,0.01544 -0.72317,0.02323 -1.08757,0.02323c-7.06462,0 -13.44482,-2.9303 -17.99147,-7.64177c-2.9776,10.47809 -12.61788,18.15228 -24.05057,18.15228c-13.80712,0 -25,-11.19288 -25,-25c0,-5.90579 2.04782,-11.33329 5.47211,-15.61115c-0.6301,-2.19502 -0.96761,-4.51378 -0.96761,-6.91137c0,-13.80712 11.19288,-25 25,-25c2.82376,0 5.53817,0.46815 8.06987,1.33109c3.52084,-9.54212 12.69668,-16.3461 23.46166,-16.3461c7.18151,0 13.65578,3.02808 18.21566,7.8771c1.39916,-0.24295 2.83822,-0.36959 4.30686,-0.36959c3.37895,0 6.60133,0.67034 9.54141,1.88531c0.31458,-13.53356 11.38394,-24.40783 24.99313,-24.40783c13.80712,0 25,11.19288 25,25c0,2.39759 -0.33751,4.71636 -0.96761,6.91137c2.03254,2.53919 3.58013,5.48341 4.50236,8.69228c3.56334,-1.95459 7.65476,-3.06612 12.00579,-3.06612c13.80712,0 25,11.19288 25,25c0,13.52058 -10.73312,24.5343 -24.14382,24.98562c-1.23719,12.65099 -11.9042,22.53691 -24.88019,22.53691c-9.98864,0 -18.60908,-5.85799 -22.61321,-14.32587c-0.62644,0.9567 -1.3167,1.86783 -2.06473,2.72736c1.9951,3.59096 3.13139,7.7248 3.13139,12.12404c0,13.80712 -11.19288,25 -25,25c-13.80712,0 -25,-11.19288 -25,-25z"/><path d="M44.6697,68.13815c-9.6774,0 -18.07054,-5.49862 -22.22557,-13.54203c-13.24773,-0.62846 -23.79546,-11.56819 -23.79546,-24.97149c0,-13.80712 11.19288,-25 25,-25c9.6774,0 18.07054,5.49862 22.22557,13.54202c1.23279,0.05848 2.4422,0.20626 3.6219,0.437c4.49667,-6.62406 12.08964,-10.97602 20.69907,-10.97602c13.80712,0 25,11.19288 25,25c0,13.80712 -11.19288,25 -25,25c-1.65109,0 -3.2648,-0.16005 -4.82646,-0.4655c-4.49667,6.62406 -12.08964,10.97602 -20.69907,10.97602z"/><path d="M54.42944,116.41143c-7.4429,0 -14.12613,-3.25252 -18.70589,-8.41375c-10.55673,-2.92658 -18.30612,-12.60519 -18.30612,-24.09375c0,-2.3976 0.33751,-4.71636 0.96761,-6.91138c-3.4243,-4.27786 -5.47212,-9.70536 -5.47212,-15.61115c0,-13.80712 11.19288,-25 25,-25c13.80712,0 25,11.19288 25,25c0,0.97555 -0.05588,1.93806 -0.16461,2.88449c4.48211,-4.25369 10.53961,-6.86347 17.20665,-6.86347c13.80712,0 25,11.19288 25,25c0,12.78457 -9.59639,23.32779 -21.97886,24.81932c-4.54949,4.73863 -10.94837,7.68819 -18.03616,7.68819c-0.60066,0 -1.19638,-0.02118 -1.78644,-0.06284c-2.71612,1.01151 -5.65553,1.56435 -8.72407,1.56435z"/><path d="M-18.67868,77.64265c0,8.36574 -4.10908,15.77174 -10.41904,20.30984c-3.42193,9.72848 -12.69155,16.70217 -23.58997,16.70217c-13.80712,0 -25,-11.19288 -25,-25c0,-2.11588 0.26285,-4.17037 0.75769,-6.13259c-6.78797,-4.47008 -11.2682,-12.15905 -11.2682,-20.89444c0,-13.80712 11.19288,-25 25,-25c10.35184,0 19.23416,6.29173 23.03152,15.25976c12.1443,1.70734 21.488,12.14013 21.488,24.75525z"/><path d="M-66.95192,37.62764c0,-26.66059 21.61268,-48.27327 48.27328,-48.27327c26.66059,0 48.27328,21.61267 48.27328,48.27327c0,26.66059 -21.61268,48.27327 -48.27328,48.27327c-26.66059,0 -48.27327,-21.61268 -48.27327,-48.27327z"/></g><g fill-opacity="0.08235" fill="#ffffff" stroke-width="0.5"><path d="M280.65318,193.51354c0,13.80712 -11.19288,25 -25,25c-3.18687,0 -6.23448,-0.5963 -9.03732,-1.68341c-4.43382,-0.53592 -8.51009,-2.23245 -11.91604,-4.77682c-4.57974,5.76593 -11.65168,9.46323 -19.58719,9.46323c-13.80712,0 -25,-11.19288 -25,-25c0,-3.47052 0.70717,-6.77587 1.98528,-9.77981c-0.42911,-0.72291 -0.82282,-1.46929 -1.17875,-2.23677c-3.18657,10.14126 -12.66155,17.49706 -23.85457,17.49706c-13.80712,0 -25,-11.19288 -25,-25c0,-13.80712 11.19288,-25 25,-25c4.88837,0 9.44904,1.40302 13.30131,3.82835c1.9456,-7.68264 7.44816,-13.94786 14.65256,-16.94054c3.75988,-9.05128 12.68522,-15.41633 23.09718,-15.41633c8.51145,0 16.02944,4.25346 20.54434,10.75074c1.1372,-0.15836 2.29888,-0.24023 3.47968,-0.24023c7.79985,0 14.76543,3.57198 19.35015,9.16936c3.60426,-2.01492 7.75871,-3.16335 12.18138,-3.16335c13.80712,0 25,11.19288 25,25c0,11.52452 -7.79796,21.22772 -18.4053,24.12102c0.25449,1.43077 0.38729,2.90363 0.38729,4.40751z"/><path d="M224.34686,213.03306c0,13.80712 -11.19288,25 -25,25c-12.9467,0 -23.59484,-9.84135 -24.87167,-22.4513c-8.52011,-3.02037 -14.91618,-10.52962 -16.3447,-19.68425c-12.78757,-1.10326 -22.82266,-11.83297 -22.82266,-24.9065c0,-13.80712 11.19288,-25 25,-25c6.08823,0 11.66816,2.1763 16.00428,5.79338c-0.30429,-1.55884 -0.46374,-3.16951 -0.46374,-4.81741c0,-13.80712 11.19288,-25 25,-25c13.80712,0 25,11.19288 25,25c0,5.87338 -2.02541,11.27371 -5.41587,15.54063c13.77741,0.03485 24.93539,11.21434 24.93539,24.99992c0,12.45775 -9.11203,22.78727 -21.03481,24.68729c0.00917,0.27828 0.01378,0.55772 0.01378,0.83824zM185.00769,167.10553c0.40537,0.03497 0.80799,0.07963 1.20761,0.13371c-0.46959,-0.33956 -0.92693,-0.69504 -1.37121,-1.06564c0.06025,0.30865 0.11482,0.61933 0.1636,0.93192z"/><path d="M333.43095,164.98501c0,8.36574 -4.10908,15.77175 -10.41904,20.30984c-3.42192,9.72848 -12.69155,16.70217 -23.58997,16.70217c-13.80712,0 -25,-11.19288 -25,-25c0,-2.11588 0.26286,-4.17037 0.7577,-6.13259c-6.78798,-4.47008 -11.26821,-12.15905 -11.26821,-20.89444c0,-13.80712 11.19288,-25 25,-25c10.35183,0 19.23416,6.29173 23.03152,15.25976c12.14429,1.70733 21.488,12.14013 21.488,24.75525z"/><path d="M252.65017,199.51954c0,-13.80712 11.19288,-25 25,-25c7.09585,0 13.50124,2.95628 18.05168,7.70437c4.40037,-3.8617 10.16821,-6.20288 16.48286,-6.20288c8.82466,0 16.58141,4.57227 21.03048,11.47704c6.90476,4.44907 11.47703,12.20582 11.47703,21.03048c0,13.80712 -11.19288,25 -25,25c-8.82466,0 -16.58141,-4.57227 -21.03048,-11.47703c-1.65361,-1.0655 -3.17343,-2.3207 -4.52871,-3.73485c-4.40037,3.8617 -10.16821,6.20288 -16.48286,6.20288c-13.80712,0 -25,-11.19288 -25,-25z"/><path d="M178.10063,196.51653c0,-6.54321 2.51372,-12.49931 6.62815,-16.95527c-0.40715,-1.79031 -0.62215,-3.65367 -0.62215,-5.56725c0,-13.80712 11.19288,-25 25,-25c13.80712,0 25,11.19288 25,25c0,3.62729 -0.7725,7.07415 -2.16197,10.18504c1.82799,-0.42552 3.73296,-0.65051 5.69049,-0.65051c13.80712,0 25,11.19288 25,25c0,13.80712 -11.19288,25 -25,25c-10.21011,0 -18.99067,-6.12064 -22.8727,-14.89295c-3.4817,1.83946 -7.45014,2.88093 -11.66183,2.88093c-13.80712,0 -25,-11.19288 -25,-25z"/></g><g data-paper-data="{&quot;index&quot;:null}" fill-opacity="0.08235" fill="#ffffff" stroke-width="0.5"><path d="M-5.19126,202.25659c0,-8.4486 6.84894,-15.29754 15.29754,-15.29754c1.95005,0 3.81489,0.36488 5.52995,1.03008c2.71306,0.32793 5.20734,1.36604 7.29144,2.92294c2.80235,-3.52818 7.12969,-5.79057 11.98543,-5.79057c8.4486,0 15.29754,6.84894 15.29754,15.29754c0,2.12362 -0.43272,4.14617 -1.2148,5.98429c0.26258,0.44235 0.50349,0.89906 0.72128,1.36868c1.94986,-6.20545 7.74762,-10.70648 14.59665,-10.70648c8.4486,0 15.29754,6.84894 15.29754,15.29754c0,8.4486 -6.84894,15.29754 -15.29754,15.29754c-2.9912,0 -5.78189,-0.85851 -8.13909,-2.34257c-1.19052,4.70102 -4.55754,8.53472 -8.96592,10.36595c-2.30068,5.53849 -7.7621,9.43328 -14.13321,9.43328c-5.20817,0 -9.80844,-2.6027 -12.57112,-6.57839c-0.69585,0.0969 -1.40669,0.14699 -2.12922,0.14699c-4.77274,0 -9.03499,-2.1857 -11.84039,-5.61075c-2.20546,1.23293 -4.74756,1.93566 -7.45381,1.93566c-8.4486,0 -15.29754,-6.84894 -15.29754,-15.29754c0,-7.05187 4.77159,-12.98928 11.26223,-14.7597c-0.15572,-0.87549 -0.23698,-1.77674 -0.23698,-2.69696z"/><path d="M29.26266,190.31257c0,-8.4486 6.84894,-15.29754 15.29754,-15.29754c7.92211,0 14.43772,6.02194 15.21902,13.73799c5.21347,1.84817 9.12723,6.4431 10.00135,12.04483c7.82473,0.67509 13.96522,7.24061 13.96522,15.24033c0,8.4486 -6.84894,15.29754 -15.29754,15.29754c-3.7254,0 -7.13976,-1.33168 -9.79305,-3.54498c0.1862,0.95386 0.28376,1.93943 0.28376,2.94778c0,8.4486 -6.84894,15.29754 -15.29754,15.29754c-8.4486,0 -15.29754,-6.84894 -15.29754,-15.29754c0,-3.59393 1.23935,-6.8984 3.31398,-9.50933c-8.43042,-0.02132 -15.25801,-6.86208 -15.25801,-15.29749c0,-7.62292 5.57566,-13.94357 12.87123,-15.10619c-0.00561,-0.17028 -0.00844,-0.34127 -0.00844,-0.51292zM53.33436,218.4157c-0.24805,-0.0214 -0.49441,-0.04872 -0.73894,-0.08182c0.28735,0.20778 0.56719,0.4253 0.83904,0.65207c-0.03687,-0.18886 -0.07026,-0.37897 -0.10011,-0.57025z"/><path d="M-37.48608,219.71326c0,-5.11901 2.51435,-9.65076 6.37543,-12.42763c2.09388,-5.95287 7.76598,-10.22009 14.43474,-10.22009c8.4486,0 15.29754,6.84894 15.29754,15.29754c0,1.29471 -0.16084,2.55185 -0.46363,3.75254c4.15357,2.73525 6.89503,7.44014 6.89503,12.78534c0,8.4486 -6.84894,15.29754 -15.29754,15.29754c-6.33431,0 -11.76942,-3.84992 -14.09303,-9.33747c-7.43111,-1.04472 -13.14854,-7.42857 -13.14854,-15.14778z"/><path d="M11.94382,198.58151c0,8.4486 -6.84894,15.29754 -15.29754,15.29754c-4.34197,0 -8.26143,-1.80895 -11.04585,-4.71432c-2.6926,2.36298 -6.22195,3.79555 -10.08589,3.79555c-5.39982,0 -10.14619,-2.79778 -12.86858,-7.02282c-4.22504,-2.72239 -7.02281,-7.46876 -7.02281,-12.86858c0,-8.4486 6.84894,-15.29754 15.29754,-15.29754c5.39982,0 10.14619,2.79778 12.86859,7.02282c1.01184,0.65198 1.94183,1.42004 2.77113,2.28536c2.6926,-2.36298 6.22194,-3.79555 10.08589,-3.79555c8.4486,0 15.29754,6.84894 15.29754,15.29754z"/><path d="M57.56081,200.41905c0,4.0038 -1.53815,7.64835 -4.05578,10.37496c0.24914,1.09549 0.38069,2.23569 0.38069,3.40661c0,8.4486 -6.84894,15.29754 -15.29754,15.29754c-8.4486,0 -15.29754,-6.84894 -15.29754,-15.29754c0,-2.21954 0.4727,-4.32868 1.32291,-6.23224c-1.11855,0.26038 -2.28421,0.39805 -3.48202,0.39805c-8.4486,0 -15.29754,-6.84894 -15.29754,-15.29754c0,-8.4486 6.84894,-15.29754 15.29754,-15.29754c6.24758,0 11.62042,3.74523 13.99585,9.11302c2.13046,-1.12557 4.55875,-1.76285 7.13589,-1.76285c8.4486,0 15.29754,6.84894 15.29754,15.29754z"/></g><g data-paper-data="{&quot;index&quot;:null}" fill-opacity="0.08235" fill="#ffffff" stroke-width="0.5"><path d="M170.97991,50.99534c0,-8.4486 6.84894,-15.29755 15.29754,-15.29755c1.95005,0 3.81488,0.36488 5.52995,1.03009c2.71306,0.32792 5.20734,1.36604 7.29144,2.92294c2.80235,-3.52818 7.12968,-5.79057 11.98544,-5.79057c8.4486,0 15.29754,6.84894 15.29754,15.29754c0,2.12362 -0.43272,4.14616 -1.2148,5.98429c0.26258,0.44234 0.50349,0.89907 0.72128,1.36868c1.94986,-6.20545 7.74762,-10.70648 14.59665,-10.70648c8.4486,0 15.29754,6.84894 15.29754,15.29754c0,8.4486 -6.84894,15.29754 -15.29754,15.29754c-2.9912,0 -5.78189,-0.85851 -8.1391,-2.34257c-1.19052,4.70102 -4.55755,8.53472 -8.96592,10.36595c-2.30068,5.5385 -7.76211,9.43328 -14.13321,9.43328c-5.20817,0 -9.80845,-2.6027 -12.57112,-6.5784c-0.69585,0.0969 -1.40669,0.147 -2.12922,0.147c-4.77274,0 -9.03499,-2.1857 -11.84039,-5.61075c-2.20546,1.23293 -4.74757,1.93566 -7.45381,1.93566c-8.4486,0 -15.29754,-6.84894 -15.29754,-15.29754c0,-7.05187 4.77159,-12.98928 11.26224,-14.7597c-0.15573,-0.87549 -0.23699,-1.77674 -0.23699,-2.69696z"/><path d="M205.43385,39.0513c0,-8.4486 6.84894,-15.29754 15.29754,-15.29754c7.92211,0 14.43772,6.02193 15.21902,13.73798c5.21347,1.84817 9.12724,6.4431 10.00136,12.04483c7.82474,0.67508 13.96523,7.24061 13.96523,15.24033c0,8.4486 -6.84894,15.29754 -15.29755,15.29754c-3.72539,0 -7.13977,-1.33168 -9.79305,-3.54498c0.1862,0.95386 0.28376,1.93943 0.28376,2.94778c0,8.4486 -6.84894,15.29755 -15.29754,15.29755c-8.4486,0 -15.29755,-6.84895 -15.29755,-15.29755c0,-3.59393 1.23936,-6.8984 3.31399,-9.50933c-8.43042,-0.02132 -15.25801,-6.86208 -15.25801,-15.29749c0,-7.62292 5.57567,-13.94357 12.87124,-15.10619c-0.00561,-0.17029 -0.00844,-0.34127 -0.00844,-0.51292zM229.50554,67.15443c-0.24805,-0.0214 -0.49441,-0.04873 -0.73893,-0.08183c0.28734,0.20777 0.56719,0.4253 0.83904,0.65207c-0.03686,-0.18886 -0.07026,-0.37896 -0.10011,-0.57024z"/><path d="M138.6851,68.452c0,-5.11901 2.51435,-9.65076 6.37543,-12.42763c2.09388,-5.95288 7.76599,-10.22009 14.43474,-10.22009c8.4486,0 15.29754,6.84894 15.29754,15.29754c0,1.29471 -0.16084,2.55186 -0.46364,3.75254c4.15357,2.73525 6.89504,7.44014 6.89504,12.78534c0,8.4486 -6.84895,15.29755 -15.29755,15.29755c-6.3343,0 -11.76941,-3.84993 -14.09302,-9.33748c-7.43112,-1.04472 -13.14855,-7.42856 -13.14855,-15.14778z"/><path d="M188.115,47.32025c0,8.4486 -6.84894,15.29754 -15.29754,15.29754c-4.34196,0 -8.26142,-1.80896 -11.04585,-4.71432c-2.6926,2.36298 -6.22195,3.79555 -10.08589,3.79555c-5.39983,0 -10.14619,-2.79778 -12.86858,-7.02282c-4.22503,-2.7224 -7.02282,-7.46876 -7.02282,-12.86858c0,-8.4486 6.84894,-15.29755 15.29754,-15.29755c5.39983,0 10.14619,2.79779 12.86858,7.02282c1.01185,0.65198 1.94183,1.42004 2.77113,2.28536c2.6926,-2.36298 6.22195,-3.79555 10.08588,-3.79555c8.4486,0 15.29754,6.84895 15.29754,15.29755z"/><path d="M233.73199,49.15779c0,4.00381 -1.53815,7.64835 -4.05578,10.37497c0.24914,1.09549 0.38069,2.23569 0.38069,3.40661c0,8.4486 -6.84894,15.29754 -15.29754,15.29754c-8.4486,0 -15.29755,-6.84894 -15.29755,-15.29754c0,-2.21955 0.4727,-4.32869 1.32291,-6.23225c-1.11855,0.26038 -2.28421,0.39804 -3.48203,0.39804c-8.4486,0 -15.29754,-6.84894 -15.29754,-15.29754c0,-8.4486 6.84894,-15.29755 15.29754,-15.29755c6.24759,0 11.62043,3.74523 13.99585,9.11302c2.13046,-1.12557 4.55875,-1.76284 7.13589,-1.76284c8.4486,0 15.29755,6.84894 15.29755,15.29754z"/></g><g data-paper-data="{&quot;index&quot;:null}" fill-opacity="0.08235" fill="#ffffff" stroke-width="0.5"><path d="M455.12429,239.17852c0,-8.4486 6.84895,-15.29754 15.29755,-15.29754c1.95005,0 3.81488,0.36487 5.52995,1.03008c2.71306,0.32792 5.20734,1.36604 7.29145,2.92294c2.80235,-3.52818 7.12968,-5.79057 11.98543,-5.79057c8.4486,0 15.29754,6.84894 15.29754,15.29754c0,2.12362 -0.43272,4.14616 -1.2148,5.98429c0.26258,0.44235 0.50349,0.89907 0.72128,1.36869c1.94986,-6.20545 7.74762,-10.70649 14.59665,-10.70649c8.4486,0 15.29754,6.84894 15.29754,15.29754c0,8.4486 -6.84894,15.29754 -15.29754,15.29754c-2.9912,0 -5.78189,-0.85851 -8.13909,-2.34257c-1.19052,4.70101 -4.55755,8.53472 -8.96593,10.36595c-2.30068,5.5385 -7.76211,9.43328 -14.1332,9.43328c-5.20817,0 -9.80845,-2.6027 -12.57112,-6.5784c-0.69585,0.0969 -1.40668,0.147 -2.12922,0.147c-4.77274,0 -9.03499,-2.18569 -11.84039,-5.61074c-2.20546,1.23293 -4.74757,1.93566 -7.45381,1.93566c-8.4486,0 -15.29754,-6.84894 -15.29754,-15.29754c0,-7.05187 4.77159,-12.98928 11.26223,-14.7597c-0.15573,-0.87549 -0.23699,-1.77674 -0.23699,-2.69696z"/><path d="M489.57822,227.23449c0,-8.4486 6.84894,-15.29754 15.29754,-15.29754c7.92211,0 14.43772,6.02193 15.21902,13.73799c5.21346,1.84817 9.12723,6.4431 10.00135,12.04483c7.82474,0.67508 13.96522,7.24061 13.96522,15.24033c0,8.4486 -6.84894,15.29754 -15.29754,15.29754c-3.72539,0 -7.13976,-1.33168 -9.79304,-3.54498c0.1862,0.95386 0.28376,1.93943 0.28376,2.94778c0,8.4486 -6.84894,15.29755 -15.29754,15.29755c-8.4486,0 -15.29755,-6.84895 -15.29755,-15.29755c0,-3.59394 1.23935,-6.8984 3.31399,-9.50934c-8.43042,-0.02132 -15.25801,-6.86208 -15.25801,-15.29749c0,-7.62292 5.57566,-13.94357 12.87123,-15.10619c-0.00561,-0.17029 -0.00843,-0.34127 -0.00843,-0.51292zM513.64992,255.33763c-0.24805,-0.0214 -0.49441,-0.04873 -0.73893,-0.08183c0.28734,0.20778 0.56719,0.4253 0.83904,0.65207c-0.03687,-0.18887 -0.07026,-0.37896 -0.10011,-0.57024z"/><path d="M422.82948,256.63518c0,-5.11901 2.51435,-9.65076 6.37543,-12.42763c2.09388,-5.95288 7.76599,-10.22009 14.43475,-10.22009c8.4486,0 15.29754,6.84894 15.29754,15.29754c0,1.29471 -0.16084,2.55185 -0.46364,3.75254c4.15357,2.73525 6.89504,7.44014 6.89504,12.78534c0,8.4486 -6.84894,15.29755 -15.29755,15.29755c-6.3343,0 -11.76941,-3.84992 -14.09303,-9.33747c-7.43111,-1.04472 -13.14854,-7.42857 -13.14854,-15.14778z"/><path d="M472.25938,235.50343c0,8.4486 -6.84894,15.29754 -15.29754,15.29754c-4.34197,0 -8.26143,-1.80896 -11.04585,-4.71432c-2.6926,2.36298 -6.22195,3.79555 -10.08589,3.79555c-5.39982,0 -10.14619,-2.79778 -12.86858,-7.02282c-4.22503,-2.7224 -7.02281,-7.46876 -7.02281,-12.86858c0,-8.4486 6.84894,-15.29755 15.29755,-15.29755c5.39982,0 10.14619,2.79779 12.86858,7.02282c1.01184,0.65198 1.94183,1.42004 2.77113,2.28536c2.6926,-2.36298 6.22194,-3.79555 10.08589,-3.79555c8.4486,0 15.29754,6.84895 15.29754,15.29755z"/><path d="M517.87639,237.34097c0,4.00381 -1.53815,7.64835 -4.05578,10.37497c0.24914,1.09549 0.38069,2.23568 0.38069,3.4066c0,8.4486 -6.84894,15.29755 -15.29754,15.29755c-8.4486,0 -15.29754,-6.84894 -15.29754,-15.29755c0,-2.21954 0.47269,-4.32868 1.32291,-6.23224c-1.11854,0.26038 -2.28421,0.39804 -3.48202,0.39804c-8.4486,0 -15.29754,-6.84894 -15.29754,-15.29754c0,-8.4486 6.84894,-15.29755 15.29754,-15.29755c6.24758,0 11.62042,3.74523 13.99585,9.11302c2.13046,-1.12557 4.55875,-1.76284 7.13589,-1.76284c8.4486,0 15.29755,6.84894 15.29755,15.29754z"/></g><g fill-opacity="0.08235" fill="#ffffff" stroke-width="0.5"><path d="M376.1712,65.63063c0,-13.80712 11.19288,-25 25,-25c4.66247,0 9.02684,1.27634 12.76277,3.4987c0.10255,-0.06101 0.20558,-0.12129 0.30908,-0.18087c2.37994,-11.32856 12.42951,-19.83435 24.4657,-19.83435c10.22023,0 19.00807,6.13278 22.88423,14.91903c4.17705,-7.97559 12.53342,-13.41753 22.16081,-13.41753c11.22047,0 20.71447,7.39194 23.8779,17.57173c3.92646,-2.56632 8.61882,-4.05821 13.65963,-4.05821c0.22828,0 0.45584,0.00306 0.68266,0.00914c3.0312,-2.12457 6.55555,-3.59352 10.36717,-4.20094c-0.00917,-0.27828 -0.01379,-0.55772 -0.01379,-0.83823c0,-13.80712 11.19288,-25 25,-25c13.80712,0 25,11.19288 25,25c0,12.45775 -9.11203,22.78727 -21.03481,24.68729c0.00917,0.27828 0.01379,0.55772 0.01379,0.83823c0,4.66843 -1.2796,9.03799 -3.50722,12.77708c12.16243,1.69123 21.52524,12.13244 21.52524,24.76046c0,13.80712 -11.19288,25 -25,25c-8.26195,0 -15.58783,-4.00775 -20.13961,-10.1852c-3.5626,9.46078 -12.69728,16.19121 -23.40393,16.19121c-9.36179,0 -17.5217,-5.1458 -21.80561,-12.76326c-3.6732,9.23673 -12.69379,15.76626 -23.23944,15.76626c-11.93324,0 -21.91369,-8.36089 -24.40294,-19.54427c-0.37214,0.01644 -0.74639,0.02475 -1.12258,0.02475c-1.99144,0 -3.9285,-0.23284 -5.78544,-0.6728c-4.21792,3.24669 -9.50129,5.1773 -15.23558,5.1773c-13.80712,0 -25,-11.19288 -25,-25c0,-0.50386 0.0149,-1.00423 0.0443,-1.5007c-10.43203,-3.00709 -18.06232,-12.62488 -18.06232,-24.02482zM530.24511,87.47794c0.23138,0.28666 0.45655,0.57855 0.6753,0.87544c0.17763,-0.47171 0.36911,-0.93663 0.57395,-1.39427c-0.41067,0.18381 -0.82721,0.35688 -1.24925,0.51882z"/><path d="M452.22226,86.12615c-7.4429,0 -14.12613,-3.25252 -18.70589,-8.41375c-10.55673,-2.92659 -18.30612,-12.60519 -18.30612,-24.09375c0,-2.39759 0.33751,-4.71637 0.96761,-6.91138c-3.4243,-4.27786 -5.47212,-9.70535 -5.47212,-15.61114c0,-13.80712 11.19288,-25 25,-25c13.80712,0 25,11.19288 25,25c0,0.97556 -0.05588,1.93806 -0.16461,2.88449c4.4821,-4.2537 10.5396,-6.86347 17.20665,-6.86347c13.80712,0 25,11.19288 25,25c0,12.78457 -9.59639,23.32779 -21.97885,24.81932c-4.54949,4.73864 -10.94837,7.68819 -18.03616,7.68819c-0.60066,0 -1.19638,-0.02119 -1.78644,-0.06284c-2.71612,1.01151 -5.65553,1.56435 -8.72407,1.56435z"/><path d="M479.77481,102.68771c0,-13.80712 11.19288,-25 25,-25c13.80712,0 25,11.19288 25,25c0,13.80712 -11.19288,25 -25,25c-13.80712,0 -25,-11.19288 -25,-25z"/><path d="M389.45949,118.18318c0,-6.09828 2.18349,-11.68659 5.81131,-16.02576c-0.84743,-2.51125 -1.3068,-5.20111 -1.3068,-7.99827c0,-13.80712 11.19288,-25 25,-25c13.80712,0 25,11.19288 25,25c0,6.09828 -2.18349,11.68658 -5.81131,16.02575c0.84743,2.51125 1.3068,5.20111 1.3068,7.99828c0,13.80712 -11.19288,25 -25,25c-13.80712,0 -25,-11.19288 -25,-25z"/><path d="M533.82886,117.95797c0,-5.54925 1.80803,-10.67621 4.86712,-14.82394c-4.84495,-4.55953 -7.87013,-11.03102 -7.87013,-18.20909c0,-13.80712 11.19288,-25 25,-25c13.80712,0 25,11.19288 25,25c0,5.54924 -1.80803,10.6762 -4.86712,14.82393c4.84495,4.55953 7.87013,11.03103 7.87013,18.2091c0,13.80712 -11.19288,25 -25,25c-13.80712,0 -25,-11.19288 -25,-25z"/><path d="M416.71174,102.68771c0,-13.80712 11.19288,-25 25,-25c13.80712,0 25,11.19288 25,25c0,13.80712 -11.19288,25 -25,25c-13.80712,0 -25,-11.19288 -25,-25z"/></g><g fill-opacity="0.08235" fill="#ffffff" stroke-width="0.5"><path d="M357.88292,176.79409c0,-4.91336 3.98306,-8.89642 8.89642,-8.89642c1.65917,0 3.21226,0.4542 4.54172,1.24504c0.03649,-0.02171 0.07316,-0.04316 0.10999,-0.06436c0.84692,-4.03135 4.42312,-7.05819 8.70629,-7.05819c3.63694,0 6.76415,2.18239 8.14351,5.30904c1.48643,-2.83817 4.4601,-4.77472 7.88608,-4.77472c3.99288,0 7.37139,2.63047 8.49711,6.25302c1.39726,-0.91324 3.06707,-1.44414 4.86087,-1.44414c0.08123,0 0.16222,0.00109 0.24293,0.00325c1.07867,-0.75604 2.33284,-1.27878 3.68923,-1.49493c-0.00326,-0.09903 -0.00491,-0.19847 -0.00491,-0.29829c0,-4.91336 3.98306,-8.89642 8.89642,-8.89642c4.91336,0 8.89642,3.98306 8.89642,8.89642c0,4.43318 -3.24258,8.10901 -7.48538,8.78514c0.00326,0.09903 0.00491,0.19847 0.00491,0.29829c0,1.66129 -0.45536,3.21623 -1.24807,4.54681c4.32808,0.60183 7.6599,4.31741 7.6599,8.81118c0,4.91336 -3.98306,8.89642 -8.89642,8.89642c-2.94007,0 -5.54704,-1.42619 -7.16682,-3.62447c-1.26778,3.36668 -4.51841,5.76175 -8.32845,5.76175c-3.33146,0 -6.23522,-1.83117 -7.75968,-4.54189c-1.30713,3.28695 -4.51717,5.61053 -8.26991,5.61053c-4.24653,0 -7.79814,-2.97528 -8.68395,-6.95496c-0.13243,0.00585 -0.26561,0.00881 -0.39948,0.00881c-0.70867,0 -1.39798,-0.08286 -2.05879,-0.23942c-1.50097,1.15536 -3.3811,1.84238 -5.42169,1.84238c-4.91336,0 -8.89642,-3.98306 -8.89642,-8.89642c0,-0.1793 0.0053,-0.35736 0.01576,-0.53404c-3.71231,-1.07009 -6.4276,-4.49265 -6.4276,-8.5494zM412.71118,184.56861c0.08234,0.10201 0.16246,0.20588 0.24031,0.31153c0.06321,-0.16786 0.13135,-0.33331 0.20424,-0.49616c-0.14614,0.06541 -0.29437,0.127 -0.44455,0.18463z"/><path d="M384.94619,184.08757c-2.64861,0 -5.02688,-1.15743 -6.65662,-2.99409c-3.75668,-1.04145 -6.51436,-4.48564 -6.51436,-8.57393c0,-0.8532 0.12011,-1.67835 0.34433,-2.45946c-1.21856,-1.52231 -1.94729,-3.45372 -1.94729,-5.55533c0,-4.91336 3.98306,-8.89642 8.89642,-8.89642c4.91336,0 8.89642,3.98306 8.89642,8.89642c0,0.34716 -0.01989,0.68967 -0.05858,1.02646c1.59499,-1.51371 3.75059,-2.44241 6.1231,-2.44241c4.91336,0 8.89642,3.98306 8.89642,8.89642c0,4.54948 -3.41494,8.30135 -7.82133,8.83212c-1.61897,1.68628 -3.89605,2.7359 -6.41829,2.7359c-0.21375,0 -0.42574,-0.00754 -0.63572,-0.02236c-0.96655,0.35995 -2.01256,0.55668 -3.10452,0.55668z"/><path d="M394.75095,189.9811c0,-4.91336 3.98306,-8.89642 8.89642,-8.89642c4.91336,0 8.89642,3.98306 8.89642,8.89642c0,4.91336 -3.98306,8.89642 -8.89642,8.89642c-4.91336,0 -8.89642,-3.98306 -8.89642,-8.89642z"/><path d="M362.61163,195.49528c0,-2.17011 0.77701,-4.15875 2.06799,-5.70287c-0.30156,-0.89364 -0.46504,-1.85085 -0.46504,-2.84624c0,-4.91336 3.98306,-8.89642 8.89642,-8.89642c4.91336,0 8.89642,3.98306 8.89642,8.89642c0,2.17011 -0.77701,4.15875 -2.06799,5.70287c0.30156,0.89364 0.46504,1.85085 0.46504,2.84624c0,4.91336 -3.98306,8.89642 -8.89642,8.89642c-4.91336,0 -8.89642,-3.98306 -8.89642,-8.89642z"/><path d="M413.98648,195.41513c0,-1.97474 0.6434,-3.7992 1.732,-5.2752c-1.72411,-1.62254 -2.80064,-3.92547 -2.80064,-6.47983c0,-4.91336 3.98306,-8.89642 8.89642,-8.89642c4.91336,0 8.89642,3.98306 8.89642,8.89642c0,1.97474 -0.6434,3.7992 -1.732,5.2752c1.72411,1.62254 2.80064,3.92547 2.80064,6.47983c0,4.91336 -3.98306,8.89642 -8.89642,8.89642c-4.91336,0 -8.89642,-3.98306 -8.89642,-8.89642z"/><path d="M372.30954,189.9811c0,-4.91336 3.98306,-8.89642 8.89642,-8.89642c4.91336,0 8.89642,3.98306 8.89642,8.89642c0,4.91336 -3.98306,8.89642 -8.89642,8.89642c-4.91336,0 -8.89642,-3.98306 -8.89642,-8.89642z"/></g><g fill-opacity="0.08235" fill="#ffffff" stroke-width="0.5"><path d="M88.10813,244.24154c0,-4.91336 3.98307,-8.89642 8.89643,-8.89642c1.65918,0 3.21226,0.4542 4.54171,1.24504c0.0365,-0.02171 0.07316,-0.04316 0.10999,-0.06436c0.84692,-4.03135 4.42313,-7.05819 8.70629,-7.05819c3.63694,0 6.76415,2.18239 8.14351,5.30904c1.48643,-2.83817 4.4601,-4.77472 7.88608,-4.77472c3.99289,0 7.37139,2.63047 8.49712,6.25302c1.39725,-0.91325 3.06706,-1.44415 4.86087,-1.44415c0.08123,0 0.16222,0.00109 0.24293,0.00325c1.07867,-0.75604 2.33284,-1.27878 3.68922,-1.49493c-0.00326,-0.09903 -0.00491,-0.19846 -0.00491,-0.29829c0,-4.91336 3.98307,-8.89642 8.89643,-8.89642c4.91336,0 8.89642,3.98306 8.89642,8.89642c0,4.43318 -3.24257,8.109 -7.48538,8.78514c0.00326,0.09903 0.0049,0.19847 0.0049,0.29829c0,1.66129 -0.45536,3.21623 -1.24807,4.54681c4.32808,0.60183 7.6599,4.31741 7.6599,8.81117c0,4.91336 -3.98306,8.89642 -8.89642,8.89642c-2.94007,0 -5.54704,-1.42618 -7.16682,-3.62447c-1.26777,3.36668 -4.51842,5.76175 -8.32845,5.76175c-3.33146,0 -6.23522,-1.83117 -7.75968,-4.54189c-1.30714,3.28695 -4.51717,5.61053 -8.26991,5.61053c-4.24653,0 -7.79813,-2.97528 -8.68395,-6.95497c-0.13243,0.00585 -0.26561,0.00881 -0.39948,0.00881c-0.70867,0 -1.39798,-0.08286 -2.05879,-0.23942c-1.50097,1.15535 -3.38109,1.84238 -5.42168,1.84238c-4.91336,0 -8.89642,-3.98306 -8.89642,-8.89642c0,-0.1793 0.0053,-0.35736 0.01576,-0.53404c-3.71231,-1.07009 -6.4276,-4.49265 -6.4276,-8.5494zM142.93641,252.01606c0.08233,0.10201 0.16246,0.20589 0.24031,0.31154c0.06321,-0.16786 0.13135,-0.3333 0.20424,-0.49616c-0.14614,0.06541 -0.29436,0.127 -0.44455,0.18462z"/><path d="M115.17142,251.53502c-2.6486,0 -5.02688,-1.15743 -6.65662,-2.99409c-3.75669,-1.04145 -6.51436,-4.48565 -6.51436,-8.57393c0,-0.8532 0.12011,-1.67835 0.34433,-2.45946c-1.21856,-1.5223 -1.94729,-3.45371 -1.94729,-5.55533c0,-4.91336 3.98306,-8.89643 8.89642,-8.89643c4.91336,0 8.89642,3.98307 8.89642,8.89643c0,0.34716 -0.01989,0.68967 -0.05858,1.02646c1.59499,-1.51371 3.75059,-2.44241 6.12311,-2.44241c4.91336,0 8.89642,3.98306 8.89642,8.89642c0,4.54947 -3.41494,8.30136 -7.82133,8.83212c-1.61897,1.68628 -3.89605,2.7359 -6.41829,2.7359c-0.21375,0 -0.42574,-0.00754 -0.63572,-0.02237c-0.96655,0.35996 -2.01256,0.55669 -3.10452,0.55669z"/><path d="M124.97618,257.42855c0,-4.91336 3.98306,-8.89642 8.89642,-8.89642c4.91336,0 8.89642,3.98306 8.89642,8.89642c0,4.91336 -3.98306,8.89642 -8.89642,8.89642c-4.91336,0 -8.89642,-3.98306 -8.89642,-8.89642z"/><path d="M92.83686,262.94273c0,-2.17012 0.77701,-4.15874 2.06799,-5.70287c-0.30156,-0.89364 -0.46504,-1.85085 -0.46504,-2.84624c0,-4.91336 3.98306,-8.89642 8.89642,-8.89642c4.91336,0 8.89642,3.98306 8.89642,8.89642c0,2.17011 -0.77701,4.15875 -2.06799,5.70287c0.30156,0.89364 0.46504,1.85085 0.46504,2.84624c0,4.91336 -3.98306,8.89643 -8.89642,8.89643c-4.91336,0 -8.89642,-3.98307 -8.89642,-8.89643z"/><path d="M144.21168,262.86258c0,-1.97474 0.6434,-3.7992 1.732,-5.2752c-1.72411,-1.62254 -2.80064,-3.92546 -2.80064,-6.47983c0,-4.91336 3.98306,-8.89642 8.89642,-8.89642c4.91336,0 8.89642,3.98306 8.89642,8.89642c0,1.97474 -0.6434,3.7992 -1.732,5.2752c1.72411,1.62254 2.80064,3.92547 2.80064,6.47983c0,4.91336 -3.98306,8.89642 -8.89642,8.89642c-4.91336,0 -8.89642,-3.98306 -8.89642,-8.89642z"/><path d="M102.53476,257.42855c0,-4.91336 3.98306,-8.89642 8.89642,-8.89642c4.91336,0 8.89642,3.98306 8.89642,8.89642c0,4.91336 -3.98306,8.89642 -8.89642,8.89642c-4.91336,0 -8.89642,-3.98306 -8.89642,-8.89642z"/></g><g fill-opacity="0.08235" fill="#ffffff" stroke-width="0.5"><path d="M-111.09608,156.14846c0,-4.91336 3.98307,-8.89642 8.89642,-8.89642c1.65918,0 3.21226,0.45419 4.54172,1.24504c0.0365,-0.02171 0.07315,-0.04316 0.10998,-0.06436c0.84692,-4.03134 4.42313,-7.05819 8.70629,-7.05819c3.63694,0 6.76415,2.18239 8.14351,5.30904c1.48644,-2.83817 4.4601,-4.77472 7.88608,-4.77472c3.99289,0 7.37138,2.63047 8.49712,6.25302c1.39725,-0.91324 3.06706,-1.44414 4.86087,-1.44414c0.08123,0 0.16222,0.00109 0.24293,0.00325c1.07868,-0.75605 2.33284,-1.27878 3.68923,-1.49493c-0.00326,-0.09903 -0.00491,-0.19846 -0.00491,-0.29829c0,-4.91336 3.98307,-8.89642 8.89643,-8.89642c4.91336,0 8.89642,3.98306 8.89642,8.89642c0,4.43318 -3.24257,8.10901 -7.48538,8.78514c0.00326,0.09903 0.00491,0.19847 0.00491,0.29829c0,1.66129 -0.45536,3.21623 -1.24807,4.54681c4.32808,0.60183 7.6599,4.31741 7.6599,8.81118c0,4.91336 -3.98306,8.89642 -8.89642,8.89642c-2.94007,0 -5.54704,-1.42618 -7.16682,-3.62447c-1.26777,3.36668 -4.51842,5.76175 -8.32845,5.76175c-3.33146,0 -6.23522,-1.83116 -7.75968,-4.54189c-1.30713,3.28695 -4.51717,5.61053 -8.26991,5.61053c-4.24652,0 -7.79814,-2.97528 -8.68395,-6.95496c-0.13242,0.00585 -0.26561,0.00881 -0.39948,0.00881c-0.70867,0 -1.39798,-0.08286 -2.05879,-0.23942c-1.50097,1.15535 -3.38109,1.84238 -5.42168,1.84238c-4.91336,0 -8.89642,-3.98306 -8.89642,-8.89642c0,-0.1793 0.0053,-0.35736 0.01576,-0.53404c-3.7123,-1.07009 -6.4276,-4.49265 -6.4276,-8.5494zM-56.26782,163.92296c0.08234,0.10201 0.16246,0.20589 0.24031,0.31154c0.06321,-0.16786 0.13136,-0.3333 0.20425,-0.49616c-0.14614,0.06541 -0.29436,0.127 -0.44455,0.18462z"/><path d="M-84.03279,163.44191c-2.64861,0 -5.02688,-1.15743 -6.65662,-2.99409c-3.75669,-1.04145 -6.51436,-4.48565 -6.51436,-8.57393c0,-0.8532 0.1201,-1.67835 0.34433,-2.45946c-1.21856,-1.5223 -1.94729,-3.45372 -1.94729,-5.55533c0,-4.91336 3.98307,-8.89642 8.89643,-8.89642c4.91336,0 8.89642,3.98306 8.89642,8.89642c0,0.34716 -0.01989,0.68967 -0.05858,1.02646c1.59499,-1.5137 3.75059,-2.44241 6.1231,-2.44241c4.91336,0 8.89642,3.98306 8.89642,8.89642c0,4.54948 -3.41494,8.30136 -7.82133,8.83212c-1.61897,1.68627 -3.89605,2.73589 -6.41829,2.73589c-0.21375,0 -0.42574,-0.00754 -0.63572,-0.02237c-0.96655,0.35995 -2.01256,0.55668 -3.10452,0.55668z"/><path d="M-74.22803,169.33547c0,-4.91336 3.98306,-8.89642 8.89642,-8.89642c4.91336,0 8.89642,3.98306 8.89642,8.89642c0,4.91336 -3.98306,8.89642 -8.89642,8.89642c-4.91336,0 -8.89642,-3.98306 -8.89642,-8.89642z"/><path d="M-106.36735,174.84963c0,-2.17012 0.77701,-4.15875 2.068,-5.70287c-0.30157,-0.89364 -0.46504,-1.85085 -0.46504,-2.84624c0,-4.91336 3.98306,-8.89642 8.89642,-8.89642c4.91336,0 8.89642,3.98306 8.89642,8.89642c0,2.17012 -0.77701,4.15875 -2.06799,5.70287c0.30157,0.89364 0.46504,1.85085 0.46504,2.84624c0,4.91336 -3.98306,8.89642 -8.89642,8.89642c-4.91336,0 -8.89642,-3.98307 -8.89642,-8.89642z"/><path d="M-54.99251,174.7695c0,-1.97474 0.6434,-3.7992 1.732,-5.2752c-1.72411,-1.62254 -2.80064,-3.92547 -2.80064,-6.47983c0,-4.91336 3.98306,-8.89642 8.89642,-8.89642c4.91336,0 8.89642,3.98306 8.89642,8.89642c0,1.97474 -0.6434,3.7992 -1.732,5.2752c1.72411,1.62254 2.80064,3.92546 2.80064,6.47983c0,4.91336 -3.98306,8.89642 -8.89642,8.89642c-4.91336,0 -8.89642,-3.98306 -8.89642,-8.89642z"/><path d="M-96.66945,169.33547c0,-4.91336 3.98306,-8.89642 8.89642,-8.89642c4.91336,0 8.89642,3.98306 8.89642,8.89642c0,4.91336 -3.98306,8.89642 -8.89642,8.89642c-4.91336,0 -8.89642,-3.98306 -8.89642,-8.89642z"/></g><g fill-opacity="0.08235" fill="#ffffff" stroke-width="0.5"><path d="M50.06008,125.96828c0,-4.91336 3.98307,-8.89642 8.89643,-8.89642c1.65918,0 3.21226,0.45419 4.54171,1.24504c0.0365,-0.02171 0.07316,-0.04316 0.10999,-0.06436c0.84692,-4.03134 4.42313,-7.05819 8.70629,-7.05819c3.63694,0 6.76415,2.18239 8.14351,5.30904c1.48644,-2.83817 4.4601,-4.77472 7.88608,-4.77472c3.99289,0 7.37138,2.63047 8.49712,6.25302c1.39725,-0.91324 3.06707,-1.44415 4.86087,-1.44415c0.08124,0 0.16222,0.00109 0.24293,0.00325c1.07868,-0.75605 2.33284,-1.27878 3.68923,-1.49493c-0.00326,-0.09903 -0.00491,-0.19846 -0.00491,-0.29829c0,-4.91336 3.98307,-8.89642 8.89643,-8.89642c4.91336,0 8.89642,3.98306 8.89642,8.89642c0,4.43318 -3.24257,8.109 -7.48538,8.78514c0.00326,0.09903 0.00491,0.19847 0.00491,0.29829c0,1.66129 -0.45536,3.21623 -1.24807,4.54681c4.32808,0.60183 7.6599,4.31741 7.6599,8.81117c0,4.91336 -3.98306,8.89642 -8.89642,8.89642c-2.94007,0 -5.54704,-1.42619 -7.16682,-3.62447c-1.26777,3.36668 -4.51842,5.76175 -8.32845,5.76175c-3.33146,0 -6.23522,-1.83117 -7.75968,-4.54189c-1.30714,3.28696 -4.51717,5.61053 -8.26991,5.61053c-4.24653,0 -7.79814,-2.97528 -8.68395,-6.95496c-0.13242,0.00585 -0.26561,0.00881 -0.39948,0.00881c-0.70867,0 -1.39798,-0.08286 -2.05879,-0.23942c-1.50097,1.15535 -3.3811,1.84238 -5.42168,1.84238c-4.91336,0 -8.89642,-3.98306 -8.89642,-8.89642c0,-0.1793 0.0053,-0.35736 0.01576,-0.53403c-3.71231,-1.07009 -6.4276,-4.49265 -6.4276,-8.5494zM104.88833,133.74279c0.08234,0.10201 0.16246,0.20588 0.24031,0.31153c0.06321,-0.16786 0.13136,-0.3333 0.20425,-0.49616c-0.14614,0.06541 -0.29436,0.127 -0.44455,0.18463z"/><path d="M77.12337,133.26173c-2.64861,0 -5.02688,-1.15743 -6.65662,-2.99409c-3.75669,-1.04145 -6.51436,-4.48564 -6.51436,-8.57393c0,-0.8532 0.1201,-1.67835 0.34433,-2.45946c-1.21856,-1.5223 -1.94729,-3.45371 -1.94729,-5.55533c0,-4.91336 3.98306,-8.89643 8.89642,-8.89643c4.91336,0 8.89642,3.98307 8.89642,8.89643c0,0.34716 -0.01989,0.68967 -0.05858,1.02646c1.59499,-1.5137 3.75059,-2.44241 6.1231,-2.44241c4.91336,0 8.89642,3.98306 8.89642,8.89642c0,4.54948 -3.41494,8.30136 -7.82133,8.83212c-1.61897,1.68627 -3.89605,2.73589 -6.41829,2.73589c-0.21375,0 -0.42574,-0.00754 -0.63572,-0.02237c-0.96655,0.35996 -2.01256,0.55669 -3.10452,0.55669z"/><path d="M86.92813,139.15529c0,-4.91336 3.98306,-8.89642 8.89642,-8.89642c4.91336,0 8.89642,3.98306 8.89642,8.89642c0,4.91336 -3.98306,8.89642 -8.89642,8.89642c-4.91336,0 -8.89642,-3.98306 -8.89642,-8.89642z"/><path d="M54.78881,144.66945c0,-2.17012 0.77701,-4.15874 2.06799,-5.70287c-0.30156,-0.89364 -0.46504,-1.85085 -0.46504,-2.84624c0,-4.91336 3.98306,-8.89642 8.89642,-8.89642c4.91336,0 8.89642,3.98306 8.89642,8.89642c0,2.17012 -0.77701,4.15874 -2.06799,5.70287c0.30156,0.89364 0.46504,1.85085 0.46504,2.84624c0,4.91336 -3.98306,8.89643 -8.89642,8.89643c-4.91336,0 -8.89642,-3.98307 -8.89642,-8.89643z"/><path d="M106.16365,144.58932c0,-1.97474 0.6434,-3.7992 1.732,-5.2752c-1.72411,-1.62254 -2.80064,-3.92547 -2.80064,-6.47983c0,-4.91336 3.98306,-8.89642 8.89642,-8.89642c4.91336,0 8.89642,3.98306 8.89642,8.89642c0,1.97474 -0.6434,3.7992 -1.732,5.2752c1.72411,1.62254 2.80064,3.92547 2.80064,6.47983c0,4.91336 -3.98306,8.89642 -8.89642,8.89642c-4.91336,0 -8.89642,-3.98306 -8.89642,-8.89642z"/><path d="M64.4867,139.15529c0,-4.91336 3.98306,-8.89642 8.89642,-8.89642c4.91336,0 8.89642,3.98306 8.89642,8.89642c0,4.91336 -3.98306,8.89642 -8.89642,8.89642c-4.91336,0 -8.89642,-3.98306 -8.89642,-8.89642z"/></g><g fill-opacity="0.08235" fill="#ffffff" stroke-width="0.5"><path d="M280.2853,56.05836c0,-4.91336 3.98307,-8.89642 8.89643,-8.89642c1.65918,0 3.21226,0.45419 4.54172,1.24504c0.0365,-0.02171 0.07315,-0.04316 0.10998,-0.06436c0.84692,-4.03135 4.42313,-7.05819 8.70629,-7.05819c3.63694,0 6.76415,2.18239 8.14351,5.30904c1.48643,-2.83817 4.4601,-4.77472 7.88608,-4.77472c3.99289,0 7.37139,2.63047 8.49712,6.25302c1.39725,-0.91325 3.06706,-1.44415 4.86087,-1.44415c0.08123,0 0.16222,0.00109 0.24293,0.00325c1.07867,-0.75605 2.33284,-1.27878 3.68923,-1.49493c-0.00327,-0.09903 -0.00491,-0.19846 -0.00491,-0.29829c0,-4.91336 3.98307,-8.89642 8.89643,-8.89642c4.91336,0 8.89642,3.98306 8.89642,8.89642c0,4.43318 -3.24257,8.109 -7.48538,8.78514c0.00326,0.09903 0.00491,0.19847 0.00491,0.29829c0,1.66129 -0.45536,3.21623 -1.24807,4.54681c4.32809,0.60183 7.65991,4.31741 7.65991,8.81117c0,4.91336 -3.98306,8.89642 -8.89642,8.89642c-2.94007,0 -5.54704,-1.42619 -7.16682,-3.62447c-1.26778,3.36668 -4.51842,5.76175 -8.32845,5.76175c-3.33146,0 -6.23522,-1.83116 -7.75968,-4.54189c-1.30714,3.28696 -4.51717,5.61053 -8.26991,5.61053c-4.24653,0 -7.79814,-2.97528 -8.68396,-6.95496c-0.13243,0.00585 -0.26561,0.00881 -0.39948,0.00881c-0.70867,0 -1.39798,-0.08286 -2.05879,-0.23942c-1.50097,1.15535 -3.3811,1.84238 -5.42169,1.84238c-4.91336,0 -8.89642,-3.98306 -8.89642,-8.89642c0,-0.1793 0.0053,-0.35736 0.01576,-0.53404c-3.71231,-1.07009 -6.4276,-4.49265 -6.4276,-8.5494zM335.11356,63.83288c0.08233,0.10201 0.16246,0.20589 0.24031,0.31154c0.06321,-0.16786 0.13135,-0.3333 0.20425,-0.49616c-0.14614,0.06541 -0.29437,0.12699 -0.44456,0.18462z"/><path d="M307.34861,63.35182c-2.64861,0 -5.02688,-1.15743 -6.65662,-2.99409c-3.75669,-1.04145 -6.51436,-4.48564 -6.51436,-8.57393c0,-0.8532 0.1201,-1.67835 0.34433,-2.45946c-1.21856,-1.52231 -1.94729,-3.45372 -1.94729,-5.55533c0,-4.91336 3.98307,-8.89643 8.89643,-8.89643c4.91336,0 8.89642,3.98307 8.89642,8.89643c0,0.34716 -0.01989,0.68967 -0.05858,1.02646c1.59499,-1.5137 3.75059,-2.44241 6.1231,-2.44241c4.91336,0 8.89642,3.98306 8.89642,8.89642c0,4.54948 -3.41494,8.30136 -7.82133,8.83212c-1.61897,1.68627 -3.89605,2.73589 -6.41829,2.73589c-0.21375,0 -0.42574,-0.00754 -0.63572,-0.02236c-0.96655,0.35996 -2.01256,0.55668 -3.10452,0.55668z"/><path d="M317.15336,69.24537c0,-4.91336 3.98306,-8.89642 8.89642,-8.89642c4.91336,0 8.89642,3.98306 8.89642,8.89642c0,4.91336 -3.98306,8.89642 -8.89642,8.89642c-4.91336,0 -8.89642,-3.98306 -8.89642,-8.89642z"/><path d="M285.01401,74.75955c0,-2.17012 0.77701,-4.15875 2.06799,-5.70287c-0.30156,-0.89364 -0.46504,-1.85085 -0.46504,-2.84624c0,-4.91336 3.98306,-8.89642 8.89642,-8.89642c4.91336,0 8.89642,3.98306 8.89642,8.89642c0,2.17012 -0.77701,4.15875 -2.06799,5.70287c0.30156,0.89364 0.46504,1.85085 0.46504,2.84624c0,4.91336 -3.98306,8.89642 -8.89642,8.89642c-4.91336,0 -8.89642,-3.98306 -8.89642,-8.89642z"/><path d="M336.38887,74.6794c0,-1.97474 0.6434,-3.7992 1.732,-5.2752c-1.72411,-1.62254 -2.80064,-3.92547 -2.80064,-6.47983c0,-4.91336 3.98306,-8.89642 8.89642,-8.89642c4.91336,0 8.89642,3.98306 8.89642,8.89642c0,1.97474 -0.6434,3.7992 -1.732,5.2752c1.72411,1.62254 2.80064,3.92547 2.80064,6.47983c0,4.91336 -3.98306,8.89642 -8.89642,8.89642c-4.91336,0 -8.89642,-3.98306 -8.89642,-8.89642z"/><path d="M294.71193,69.24537c0,-4.91336 3.98306,-8.89642 8.89642,-8.89642c4.91336,0 8.89642,3.98306 8.89642,8.89642c0,4.91336 -3.98306,8.89642 -8.89642,8.89642c-4.91336,0 -8.89642,-3.98306 -8.89642,-8.89642z"/></g><path d="M160.98509,-25.77565l261.25263,-82.7455l95.52732,301.60873l-261.25263,82.7455z" fill-opacity="0.02353" fill="#ffffff" stroke-width="0"/><path d="M192.96177,-6.15986l214.42267,-67.91323l78.40389,247.54487l-214.42267,67.91323z" fill-opacity="0.02353" fill="#ffffff" stroke-width="0"/><path d="M207.76841,-41.15986l214.42267,-67.91323l78.40389,247.54486l-214.42267,67.91323z" fill-opacity="0.02353" fill="#ffffff" stroke-width="0"/><path d="M229.06065,-41.88173l183.24015,-58.03691l67.00196,211.54553l-183.24015,58.03692z" fill-opacity="0.02353" fill="#ffffff" stroke-width="0"/><path d="M256.97874,-24.75564l142.35401,-45.08721l52.0519,164.34365l-142.35401,45.08722z" fill-opacity="0.02353" fill="#ffffff" stroke-width="0"/><path d="M278.96825,-53.5321l142.35401,-45.08721l52.0519,164.34365l-142.35401,45.08722z" fill-opacity="0.02353" fill="#ffffff" stroke-width="0"/></g></g></svg>